<?xml version="1.0" encoding="utf-8"?>
<!-- Generator: Adobe Illustrator 25.1.0, SVG Export Plug-In . SVG Version: 6.00 Build 0)  -->
<svg version="1.1" id="Calque_1" xmlns="http://www.w3.org/2000/svg" xmlns:xlink="http://www.w3.org/1999/xlink" x="0px" y="0px"
	 viewBox="0 0 290.76 289.23" style="enable-background:new 0 0 290.76 289.23;" xml:space="preserve">
<style type="text/css">
	.st0{fill:#FFFFFF;}
</style>
<g>
	<path class="st0" d="M281.28,145.33l2.12-0.83c-0.94-1.46-1.89-2.89-2.83-4.3L281.28,145.33z"/>
	<path class="st0" d="M276.27,100.88c-0.89-0.77-1.77-1.77-2.71-2.79c-0.98-1.01-1.97-2.05-2.98-2.93c-1.99-1.79-4.15-2.9-6.23-2.05
		l1.63,1.18l1.56,1.24l3.15,2.55c-0.71,0.53-1.11,1.19-1.3,1.93c-0.21,0.75-0.2,1.58-0.02,2.46c0.33,1.76,1.4,3.67,2.44,5.48
		c-0.25-0.73-0.47-1.46-0.75-2.18l-0.84-2.15c0.81,0.99,2.61-0.41,3.43,0.6c0.17,1.83,0.47,3.26,0.98,4.46
		c0.47,1.2,1.1,2.19,1.6,3.19c0.48,1.01,0.91,2.03,1.08,3.25c0.15,1.22,0.13,2.64-0.52,4.45l-0.42-0.3l3.08,4.78
		c-0.23,1.73-1.92,1.3-2.59,0.88c1.19,2.16,2.35,4.08,3.3,6.28c0.85,2.2,1.49,4.68,1.56,7.89c1.52-1.31,1.81-2.87,1.64-4.52
		c-0.2-1.65-0.89-3.38-1.74-5.07c-0.82-1.69-1.63-3.35-1.9-4.95c-0.35-1.59-0.14-3.13,1.15-4.64l0.42,0.31
		c-0.83-1.45-1.29-3.01-1.67-4.63c-0.35-1.62-0.5-3.33-0.67-5.05C278.49,107.15,278.15,103.63,276.27,100.88z"/>
	<path class="st0" d="M276.85,124.93c-0.08-0.13-0.15-0.25-0.23-0.38C276.46,124.61,276.59,124.77,276.85,124.93z"/>
	<path class="st0" d="M81.22,18.3l0.2,0.99C81.61,18.79,81.78,18.31,81.22,18.3z"/>
	<path class="st0" d="M159.3,16.27c-0.12-0.06-0.23-0.11-0.35-0.16C158.34,17.4,158.62,17.1,159.3,16.27z"/>
	<path class="st0" d="M206.48,271.97l2.04,0.55C207.58,271.52,206.97,271.52,206.48,271.97z"/>
	<path class="st0" d="M278.49,193.56c0-0.06-0.01-0.12-0.01-0.18C278.48,193.44,278.49,193.51,278.49,193.56z"/>
	<path class="st0" d="M239.08,224.29l-1.07-0.66C238.43,224.22,238.77,224.38,239.08,224.29z"/>
	<path class="st0" d="M253.46,197.58c0.64-0.62,1.19-1.27,1.57-2.03C254.15,195.79,253.59,196.67,253.46,197.58z"/>
	<path class="st0" d="M278.61,194.75c-0.08-0.38-0.11-0.79-0.12-1.19C278.49,194,278.49,194.43,278.61,194.75z"/>
	<path class="st0" d="M202.51,251.27l-2.57-2.34C200.45,249.86,201.5,250.57,202.51,251.27z"/>
	<path class="st0" d="M254.05,189.82c0.73-0.14,1.24-0.53,1.64-1C254.99,188.85,254.35,189.14,254.05,189.82z"/>
	<path class="st0" d="M273.64,94.37c0.4,0.9,0.87,1.9,1.69,3.04C275.09,96.13,274.45,95.16,273.64,94.37z"/>
	<path class="st0" d="M52.32,217.43c0.41-0.03,0.85-0.15,1.3-0.36C53,216.75,52.62,217,52.32,217.43z"/>
	<path class="st0" d="M134.95,262.91l0.33-0.08c-0.07-0.15-0.18-0.32-0.36-0.55L134.95,262.91z"/>
	<path class="st0" d="M107.06,257.64c0.2-0.16,0.39-0.34,0.58-0.55C107.29,257.29,107.15,257.47,107.06,257.64z"/>
	<path class="st0" d="M156.08,259.44c0.31-0.31,0.62-0.66,0.85-1.18C156.65,258.67,156.36,259.04,156.08,259.44z"/>
	<path class="st0" d="M176.55,259.06c-1.19-0.86-0.52-2.18,0.08-3.48c-1.3-0.04-2.3,0.22-3.17,0.57c-0.88,0.32-1.63,0.77-2.4,1.18
		c-0.77,0.41-1.56,0.8-2.51,0.98c-0.95,0.15-2.08,0.05-3.47-0.41l2.69,1.14c-0.72,0.73-1.65,1.37-2.7,1.9
		c-1.05,0.53-2.21,0.94-3.4,1.08c-2.38,0.32-4.8,0.03-6.44-1.45l0.84-1.13c-1.47,1.4-3.6,1.04-5.44,0.54
		c-1.86-0.56-3.44-1.17-4.1-0.05c1.34,1.38-0.04,2.23,2.08,3.51c-1.38,0.46-2.77,1-4.18,1.41l-4.28,1.23l-0.44-4.39
		c-1.46,0.44-2.94,0.76-4.43,1.16c0.47,0.91-0.98,0.47-2.58,0.27c-1.6-0.26-3.38-0.23-3.72,1.82c-2.3-1.89,1.5-3.16,2.53-4.74
		c-2.57,0.93-2.56-0.89-5.18,1.23c-0.6-1.4-1.17-2.79-1.71-4.18c-1.09,0.25-2.21,0.57-3.32,0.77l-3.37,0.63
		c0.4-0.28,0.08-0.63,0.45-0.91c-0.89,0.62-1.76,0.73-2.64,0.58c-0.87-0.18-1.73-0.6-2.64-0.95c-0.91-0.36-1.86-0.63-2.9-0.58
		c-1.04,0.02-2.18,0.4-3.53,1.42c0.25-0.13,0.26-0.32,0.39-0.54c-2.97,2.27-7.06-1.72-8.48-3c-3.34-0.69-2.76,2.79-3.52,4.21
		c-4.42-2.48-5.78-3.53-7.38-3.74c-1.61-0.22-3.27,0.2-8.21-0.03c-0.52-1.67-0.14-2.77,0.57-3.49c0.71-0.72,1.79-1.15,2.81-1.59
		c2.04-0.85,3.73-1.7,1.95-4.65c-0.96,0.81-2.56,0.99-4.54,0.75c-0.98-0.13-2.09-0.33-3.19-0.69c-1.1-0.37-2.25-0.83-3.39-1.35
		c-0.34-0.5-0.72-1.01-1.13-1.55c-0.39-0.55-0.81-1.13-1.23-1.73c-0.85-1.2-1.79-2.41-2.62-3.73c-0.82-1.33-1.59-2.68-2.21-4.02
		c-0.63-1.33-1.02-2.74-1.22-4.04l-1.85,2.57l-2.87-1.53l-2.8-1.66c1.94-0.19,3.81-0.38,5.72-0.67c-1.45,0.1-4.99-0.77-7.61-1.26
		c-3.18-1.57-2.51-3.42-1.87-4.9c0.62-1.49,1.25-2.65-2.17-3.13c0.15-0.37,0.31-0.7,0.5-0.99c-1.44,0.11-2.69-0.79-3.91-2.23
		c-1.25-1.42-2.61-3.26-4.28-5.12c1.44-0.25,2.87-0.51,4.29-0.78c0.3,1.04,0.69,2.02,1.05,3.04c1.12-1.81,0.23-2.71-1.05-3.6
		c-1.29-0.87-3.12-1.65-3.81-3.01c-2.77-2.06-4.83,0.96-6.74,0.02c-0.22-0.57-0.82-1.09-1.29-1.66c-0.44-0.58-0.77-1.2-0.48-1.89
		c-0.23-3.16,4.09-2.42,5.98-2.48c-4.74-0.26-4.79-1.21-8.56-5.61c1.66-1.05,2.62-1.02,3.27-0.52c-0.93-0.84-2.16-1.4-3.99-1.3
		l1.45-2.63c0.21-1.76-0.27-2.8-1.11-3.55c-0.81-0.76-2.01-1.19-3.3-1.67c-1.29-0.48-2.65-1-3.79-1.89
		c-1.09-0.91-1.9-2.21-2.14-4.18c1.36,0.71,0.69-0.85,0.12-3.01c-0.55-2.17-1.29-4.89-0.18-6.31c0.55,1.26,1.94,0.64,3.53-0.13
		c1.59-0.77,3.38-1.66,4.7-1.15c0.22-2.96-1.06-3.31-2.61-3.51c-1.55-0.2-3.41-0.21-4.17-2.59c1.74,0.43,3.48,0.83,5.22,1.21
		c-1.36-2.08-2.07-2.29-2.7-2.5c-0.63-0.22-1.18-0.45-2.27-2.74c1.58,1.14,1.11-2.21,3.03,0.39c-0.06-3.05-0.08-4.17-0.15-5.2
		c-0.02-0.52-0.06-1.01-0.05-1.71c0.03-0.7,0.09-1.61,0.2-2.94l-4.85-0.34c-0.6-1.86,1.51-2.57,2.43-3.08
		c0.05,0.75-0.04,1.93,0.57,1.82c2.04-1.07,1.48-1.9,0.88-2.82c-0.61-0.9-1.26-1.89,0.68-3.03c-1.54,0.53-3.69,1.18-3.93-1.13
		c2.88,0.85,2.97-3.3,4.23-3.36c-1.07,0.63-1.21-0.58-1.49-2.03c-0.31-1.45-0.55-3.13-2.16-3.48c2.53-2.34,2.22,1.11,3.8,1.41
		c-1.72-1.25-1.63-3.55-1.2-5.76c0.48-2.21,1.1-4.35,0.25-5.53c0.3,0.02,0.53-0.04,0.72,0c-0.81-1.58-1.09-3.54-1.42-5.91
		c-0.11-1.17-0.22-2.45-0.4-3.84c-0.18-1.39-0.47-2.9-0.77-4.51c0.68,0.91,1.33,1.8,2.05,2.7c1.45-2.52,0.36-3.78-0.92-5.03
		c-1.26-1.24-2.77-2.47-1.82-4.76c1.66,1.18,2.32-0.72,2.98-2.47c0.66-1.76,1.46-3.28,3.01-1.42c-0.45-1.75-0.58-3.46-0.88-5.13
		c-0.27-1.66-0.66-3.27-1.74-4.93c1.64-0.77,2.21,1.08,2.76,2.68c0.54,1.61,1.05,2.99,2.41,1.57l0.02-4.61l2.23,0.38
		c-1.33-0.91,0.36-4.11-0.81-4.58c2.54,0.73,4.88,0.26,6.46,1.44c0.72-2.54,4.59-4.15,4-7.1l1.13,0.57
		c-1.24-2.35-0.35-4.12,0.58-5.65c0.9-1.57,1.68-3.03,0.17-5.09c1.03,0.15,2.07,0.32,3.09,0.49c2.19-3.24-2.06-6.04-1.66-8.23
		c0.99-1.31,1.98-3.16,3.49-4.11c-0.71,3.05,0.46,3.21,2.01,2.71c1.55-0.51,3.61-1.56,4.6-1.3c0.76-0.67,2.12-2.12,3.36-3.66
		c1.22-1.56,2.18-3.39,2.09-4.82c-0.32,3.5,2.19,4.12-0.94,7.09c2.47,1.05,3.45-0.21,4.43-2.07c1.02-1.78,1.96-4.3,4.13-5.44
		l1.29,1.84c2.31-2.56,2.99-4.71,3.21-6.75c0.2-2.07-0.15-4.15,0.16-6.65c2.18,1.89,1.92,2.92,1.76,6.35
		c2.35-0.6,4.91-2.06,7.43-3.78c2.6-1.57,5.18-3.42,7.65-4.29c2.3,1.12,1.77,2.62,0.62,4.08c0.96-1.02,2.13-1.81,3.35-2.51
		c1.23-0.67,2.54-1.18,3.75-1.8c0.61-0.3,1.19-0.62,1.74-0.97c0.55-0.34,1.08-0.68,1.55-1.1c0.94-0.83,1.68-1.88,2.1-3.33
		c-0.33,1.15,0.29,1.28,1.24,1.15c0.95-0.13,2.29-0.4,3.36-0.22c-0.28-0.98-0.27-2.33,0-2.27c2.55-2.94,9.59-6.28,13.77-5.18
		L124,22.05c2.23-0.24,4.08-0.78,5.78-1.64c0.85-0.42,1.67-0.91,2.47-1.39c0.82-0.46,1.62-0.92,2.43-1.38
		c3.25-1.86,6.87-3.22,11.92-1.4c1.77,1.09-1.87,4,1.74,3.96c0.9-0.88,1.24-2.26,1.94-3.28c0.35-0.51,0.79-0.93,1.44-1.15
		c0.65-0.19,1.5-0.16,2.66,0.19l-0.54,3.19c1.12-1,2.27-2,3.44-3c-1.4-2.78-6.88-2.26-2.91-4.95c2.07,1.66,3.06,0.99,4.2,0.4
		c1.13-0.57,2.42-1.01,4.83,1.08c-1.27,0.17-3.14,2.42-4.11,3.6c5.12,2.5,8.83,2.38,12.71,2.39c1.92,0.06,3.87,0.11,5.93,0.59
		c2.03,0.58,4.22,1.46,6.49,3.27c5.96-0.81,12.76,1.41,17.26,0.94c-1.64,2.8-2.85,5.39-6.09,6.7c1.95,1.13,4.21,0.19,6.07-0.15
		c1.86-0.37,3.4-0.3,3.71,2.52c2.02-1.46,5.16-0.43,8.34,0.36c3.1,0.91,6.3,1.55,8.51-0.63c-0.53,1.16,4.22,3.05-1.86,2.96
		c3.23,1.07,4.26,3.37,4.57,5.7c0.35,2.3,0.15,4.49,1.28,5.36c0.69,0.43,0.96-0.61,1.41-1.49c0.45-0.87,1.13-1.61,2.59-0.41
		c0.18,0.5-0.14,1.05,0.04,1.55l2.04-0.14c0.19,2.04-3.25,1.23-4.38,2.38c0.76,1.09,1.67,1.8,2.71,2.33
		c1.03,0.54,2.14,0.95,3.34,1.32c1.19,0.38,2.47,0.74,3.72,1.29c1.23,0.57,2.46,1.31,3.61,2.37l-1.52-0.03
		c0.69,0.79,1.41,1.56,2.08,2.36l1.98,2.45l-0.5-0.04c1.65,0.8,3.35,1.6,4.95,2.52l-1.34,0.88c1.08,0.64,2.03,0.24,3.21,1.43
		l-1.89,0.79c0.85-0.15,1.81-0.03,2.81,0.29c0.96,0.34,1.95,0.87,2.89,1.5c0.94,0.63,1.83,1.36,2.6,2.09
		c0.76,0.73,1.34,1.49,1.77,2.12l-0.43,0.97l3.62,1.95l3.53,2.13c0.06,4.37-6.51-1.89-1.45,3.93c-1.5,0.08-3,0.19-4.48,0.31
		c2.02,1.85,2.51,3.31,2.96,4.53c0.42,1.24,0.8,2.25,2.14,3.59c1.21-2.36-0.28-4.47,2.21-3.61c-1.1,2.89-0.24,4.27,1.48,5.32
		c0.84,0.53,1.89,0.98,2.91,1.5c1,0.53,2.01,1.13,2.82,1.92c-0.84-1.92-1.34-3.28-4.09-3.62c-0.83-2.02,1.63-1.59,1.23-2.91
		c-1.13-0.64-2.22-1.28-3.36-1.87l2.08-2.01l-4.4-3.77c3.01-1.25-2.1-4.49,1.92-4.34c-1.57-1.31-2.05-2.75-2.86-3.97
		c-0.78-1.23-1.76-2.31-4.04-2.85c0.23-3.25,4.18,2.13,2.97-0.36c-5.16-5.64-10.39-11.37-15.68-17.15
		c-5.28-5.7-10.81-11.29-16.73-16.6l2.11-0.18c-2.14,0.18-4.42-0.16-5.99,0.07c-0.15-0.9-0.68-2.13-1.48-3.43
		c-0.8-1.31-1.88-2.7-3.18-3.83c-1.29-1.15-2.74-2.14-4.22-2.66c-1.51-0.49-3.03-0.55-4.42,0.06c-0.3-0.49,0.73-0.72,1.25-0.84
		c-1.23-0.51-2.51-1.46-3.99-2.44c-1.46-1-3.01-2.21-4.65-3.43c-1.67-1.15-3.43-2.35-5.22-3.41c-1.81-1.03-3.68-1.86-5.5-2.45
		c-2.39,1.76-4.79,0.19-7.29-1.28c-2.49-1.41-5.15-2.44-7.41,0.54l1.87-0.97c0.97,1.28-0.25,2.2-1.84,2.98
		c-1.59,0.75-3.57,1.5-4.26,2.22c-0.94-4.89,0.7-3.42-0.82-8.07l2.56,2.22l0.23-3.8c-2.94,1.8-5.35,2.16-7.56,1.97
		c-2.2-0.22-4.15-1.29-6.06-2.21c-1.9-0.96-3.71-2.01-5.47-2.39c-1.77-0.32-3.48-0.01-5.08,1.63c0.39-0.34,0.33-0.96,0.75-1.28
		c-0.96-0.6-1.89-0.78-2.77-0.66c-0.88,0.14-1.72,0.56-2.52,1.08c-1.6,1.05-3.04,2.52-4.47,3.13c-0.33-1.89,1.73-3.02,3.32-4.42
		c-1.76-0.42-3.84-0.44-6.07-0.12c-2.23,0.3-4.6,0.7-6.97,1.29c-2.37,0.56-4.75,0.99-7.02,1.36c-2.27,0.35-4.48,0.3-6.51-0.05
		c-2.25,2.97,1.54,3.17-0.86,5.54c-2.38-0.29-4.46-1.98-1.82-3.76c-0.93-0.42-1.96-0.66-3.08-0.67c-1.11,0-2.3,0.17-3.55,0.46
		c-1.24,0.31-2.57,0.65-3.89,1.2c-1.33,0.53-2.69,1.12-4.07,1.73c-1.39,0.58-2.76,1.28-4.15,1.91c-1.38,0.65-2.79,1.21-4.17,1.76
		c-1.38,0.57-2.76,1.04-4.15,1.36c-0.7,0.16-1.39,0.29-2.09,0.37c-0.69,0.11-1.38,0.18-2.07,0.2c-1.9,2.4-1.91,3.51-2.31,4.67
		c-0.4,1.13-1.12,2.41-4.24,5.04c0.86-2.47-4.64-4.55-0.32-7l-0.36-2.03c-3.85,1.69-8.29,3.86-11.8,6.6
		c-1.73,1.4-3.29,2.85-4.37,4.47c-1.07,1.63-1.74,3.34-1.83,5.11c-2.64-3.17-1.69,0.18-5.47,0.37c-0.72,1.15,0.48,0.42,1.04,0.32
		c-0.2,4.63-3.69,2.68-4.97,4.56l0.11-1.06c-0.94,1.96-1.89,3.85-2.75,5.8c-1.06,0.28-2.67,0.72-3.69-0.05l2,2.05
		c-1.12,1.09-2.04,0.7-2.96,0.44c-0.93-0.26-1.88-0.38-2.98,1.33l2.11,0.9c-2.69,0.89-3.25,5.78-5.87,4.12
		c-0.53-0.33-0.01-0.53,0.5-1.27c-2.9,0.03-4.39,2.24-5.6,4.71c-0.58,1.26-1.12,2.59-1.8,3.76c-0.68,1.17-1.5,2.18-2.6,2.9
		l4.45,1.75c-1.49,4.62-2.42,1.75-3.64,0.66c-0.9,1.29-1.76,1.86-2.75,2.51c-0.96,0.67-2.04,1.42-3.39,3.06
		c-0.12,2.37,0.87,1.81,1.66,3.08c-1.08,0.98-2.06,2.03-3.1,3.06l-0.81-3.66c0.62,2.31,0.4,4.29-0.25,6.1
		c-0.62,1.83-1.58,3.54-2.58,5.17c-1.02,1.62-1.85,3.27-2.29,4.86c-0.41,1.6-0.4,3.16,0.67,4.76c-2.12,1.78-1.77-3.11-3.03-2.06
		c-1.4,1.52-2.26,3.42-2.82,5.45c-0.52,2.05-0.66,4.26-0.83,6.39c-0.17,2.13-0.16,4.24-0.55,6.11c-0.39,1.87-0.94,3.56-2.14,4.93
		c-0.69,1.18-1.32,2.42-1.82,3.71c-0.47,1.29-0.87,2.63-1.21,4c-0.75,2.73-1,5.6-1.33,8.5c-0.19,1.45-0.2,2.92-0.31,4.38
		c-0.1,1.47-0.21,2.94-0.31,4.41c-0.07,1.47-0.18,2.95-0.35,4.42c-0.08,0.74-0.18,1.47-0.3,2.21c-0.1,0.74-0.19,1.48-0.31,2.21
		l1.24-0.23c-0.26,2.77-0.58,5.57-0.65,8.38c1.5,1.03,1.96,2.96,2.64,5.01c0.69,2.05,1.47,4.25,3.29,5.7
		c-1.02-0.13-2.42,0.82-3.24,0.15c0.46,1.72,1.24,3.45,1.71,5.04c0.24,0.8,0.39,1.56,0.43,2.27c0.06,0.71-0.03,1.37-0.32,1.97
		l-1.31-0.93c0.26,1.96,0.59,4.1,1.03,6.26c0.52,2.14,1.13,4.3,1.8,6.32c1.49,3.98,3.24,7.37,5.14,8.82
		c1.24,2.36-0.85,3.15-1.99,4.41c1.72,4.29,4.1,6.56,7.61,8.93c-0.02,1.11-0.03,2.26-0.53,3.8c1.17,0.03,2.35,0.03,3.52,0.03
		c0.56,1.84-1.97,1.6-1.9,3.3c1.68,1.1,2.99,2.45,4.2,3.88c1.19,1.43,2.09,3.05,2.98,4.6c0.9,1.55,1.67,3.11,2.42,4.53
		c0.74,1.43,1.56,2.64,2.36,3.6l0.75-1.49c2.17,0.87,3.02,5.32,0.3,4.39c1.24,2.21,2.75,3.79,4.36,5.12
		c1.63,1.31,3.47,2.26,5.34,3.28c3.81,2.01,7.99,3.98,12.73,8.5c-1.04,2.69,1.59,4.27,4.16,5.84c2.65,1.48,5.2,3.02,4.32,6.13
		c2.84,0.87,4.65,2.36,6.5,3.41c1.85,1.03,3.66,1.75,6.23,1.13c-0.19,0.6,0.11,1.07-0.73,0.73c0.43,1.54,2.56,2.77,5.26,3.77
		c1.35,0.5,2.9,0.83,4.43,1.15c1.54,0.3,3.07,0.61,4.54,0.73l-0.41,1.84c0.86-0.74,2.04-1.01,3.36-1.05c1.33-0.04,2.8,0.18,4.3,0.29
		c2.99,0.25,5.93,0.52,7.46-1.19c0.33,1.01-1.49,1.37-2.45,1.81c0.81,2.26,2.2,2.15,3.73,1.73c1.55-0.44,3.23-1.14,4.92-0.34
		c-0.51,0.9,0.29,2.26-0.65,2.79c5.55,3.67,13.49,4.26,21.65,4.03c8.23-0.23,16.63-1.31,24.83-0.61c2.27-0.09,1.74-1.17,1.4-2.16
		c-0.34-1.01-0.5-2.03,2.36-2.24c1.93,1.82-2.37,4.47,1.46,4.86c1.2-1.43,2.04-2.04,3.04-2.32c1-0.33,2.16-0.34,3.96-0.54
		c-0.42,1.44,0.34,2.21-2.06,3.58c1.19,0.64,3.31-0.54,5.67-1.58c2.35-1.15,4.93-2.11,7.42-1.01c-0.52-1.15,0.05-2.06,0.61-2.96
		c1.25-1.27,2.76-1.93,4.35-2.25c1.58-0.35,3.22-0.41,4.74-0.35c3.05,0.16,5.52,0.49,5.43-0.52c0,0,1.82-1.31-0.09-1.02
		c1.07-0.38,2.42-0.73,3.54-0.74c1.11-0.01,1.98,0.27,2.12,1.31c0.67-1.49,0.92-3.49,2.47-4.4l0.09,2.53
		c0.74-0.9,1.22-2.7,1.99-3.41c-0.68-0.17-1.38-0.4-2.06-0.61c1.6,0.38,2.99-1.16,4.21-2.19c1.22-1.04,2.27-1.64,3.26,0.36
		l-0.74,0.5c1.77-0.12,3.48-0.4,5.25-0.62c0.4-1.28,0.8-2.54,1.47-3.63c0.66-1.11,1.58-2.07,3.11-2.68c1.77,1.6,3.73,0.72,5.56-0.96
		c0.93-0.82,1.85-1.8,2.77-2.7c0.93-0.89,1.78-1.79,2.68-2.32l0.84,1.39c1.28-3.71,8.13-8.45,6.48-8.05
		c2.32-2.12,6.17-4.32,6.05-2.18c0.65-1.21,1.9-2.83,2.86-4.49c0.96-1.66,1.68-3.32,1.09-4.75c2.09-0.42,4.2-0.88,6.35-1.38
		c-1.17-3.03,0.77-4.74,2.55-6.22c1.78-1.47,3.18-2.84,0.81-4.71c2.43-1.79,3.18-0.46,5.2-1.54c-0.14-2.54,0.43-4.59,1.38-6.42
		c0.89-1.86,2.13-3.54,3.39-5.23l0.61,0.21c1.24-1.71,1.67-4.08,2.14-6.59c0.41-2.55,0.71-5.33,1.72-8.02l4.75,0.63
		c0.27-1.58-0.36-2.86-0.82-4.04c-0.46-1.18-0.73-2.23,0.18-3.44c0.89-0.4,0.91,0.28,0.9,1.11c0.04-3.02,2.44-6.27,4.08-8.08
		c-1.01-2.62-0.94-4.59-1.1-6.56c-0.13-1.95-0.28-3.85-1.66-6.06c2.29-1.25,2.55,0.07,2.68,1.46c0.12,1.38,0.18,2.85,2.39,1.81
		c0.92-1.43,1.45-2.96,1.79-4.54c0.33-1.59,0.52-3.21,0.47-4.89c-0.13-3.36-0.71-6.81-1.52-10.32c0.92-0.52,1.59,0.3,2.55,0.67
		c0,0-0.63-0.95-1.65-2.29c-0.51-0.67-1.11-1.44-1.8-2.24c-0.71-0.8-1.49-1.63-2.31-2.43c-3.25-3.22-7.11-5.77-9.33-4.58
		c-1.52-0.79-2.74-1.63-3.89-1.6c-1.16-0.01-2.21,1.01-3.56,3.48c0.88,0.84,1.84,2.49,2.15,4.03c0.27,1.54-0.17,2.95-1.88,3.27
		l3.19,0.54c0.5,3.54-1.21,3.52-3.07,3.64c-1.86,0.12-3.92,0.38-4.38,4.3l1.26-1.51c0,0.76,0.48,1.52,0.78,2.28
		c0.28,0.76,0.4,1.53-0.27,2.28c-0.97,0.35-1.22-0.8-1.82-1.56c1.02,2.38,2.16,4.87,3.01,7.38c-1.9-0.12-2.8-0.6-3.92-2.18
		c-0.61,2.94,0.89,2.99,2.18,3.15c1.28,0.15,2.42,0.45,0.86,4.02c-1.76,0.96-1.74-0.98-2.58-2.2c-1.74,1.34-2.23,2.66-2.12,4.2
		c0.04,0.77,0.24,1.59,0.41,2.46c0.17,0.86,0.37,1.79,0.49,2.79c-2.73-0.89-1.67-2.95-4.35-0.81c1.61-0.05,4.11,0.38,3.65,2.65
		c-1.19-1.01-1.7-0.72-2.07,0.03c-0.38,0.75-0.72,1.96-1.46,2.85c1.09-0.05,2.3,0.6,2.45,1.6c0,1.19-1.35,1.65-1.83,3.11
		c1.26-0.45,2.47-0.94,3.69-1.46c0.57,2.37-0.49,3.64-1.84,4.59c-1.38,0.94-3.1,1.55-4.34,2.57c-0.37-0.45-0.46-1.06-0.35-1.65
		c-1.23,1.11-2.71,2.08-3.82,3.33c-1.09,1.27-1.97,2.72-1.83,5.03l-0.15-0.47c-0.27,1.94-0.15,2.92,0.24,3.47
		c0.39,0.55,1.03,0.66,1.64,0.8c1.23,0.28,2.39,0.61,1.11,5.09c-1.04,1.07-2.8-0.54-4.41-1.47c-1.61-0.92-3.06-1.25-3.54,2.35
		c1.89-0.52,2.51,1.17,2.44,3.54c-0.1,2.34-1,5.28-1.78,7.17c-0.6-2.24-1.24-4.43-1.92-6.58c-0.97,1.13-1.36,4.2-2.37,4.44
		l1.09,0.66c1.91,1.41,0.97,2.25-0.4,3.22c-0.69,0.48-1.46,1.01-2.07,1.63c-0.63,0.62-1.06,1.37-1.02,2.37
		c-1.16-3.49-1.51-4.96-2.14-6.26c-0.62-1.28-1.46-2.29-3.68-4.65c0.53,2.12,0.83,4.23,0.54,6.23c-0.15,1-0.44,1.96-0.93,2.87
		c-0.51,0.88-1.25,1.67-2.22,2.37c-0.21-2.11-0.4-4.12-0.74-6.21c-1.24,0.92-2.25,2.13-2.99,3.69c-0.73,1.57-1.36,3.32-1.87,5.22
		c-0.25,0.95-0.48,1.94-0.7,2.94c-0.23,0.99-0.46,1.97-0.68,2.92c-0.45,1.93-0.84,3.87-1.33,5.49c-0.5-1.9-1.41-2.79-2.17-3.69
		c-0.78-0.91-1.39-1.81-1.47-3.76c-1.41,1.42-2.92,2.73-4.39,4.11c-0.3-1.44-0.61-2.87-0.94-4.28c0.45,4.83-3.45,3.85-0.18,8.15
		c0.17-0.96-0.25-1.44,0.83-1.93c0.78,1.42,1.7,4.77-1.18,6.34c-2.53,0.04-0.01-2.46-1.33-3.41c-0.58,2.97-2.52-0.03-3.54,2.37
		l2.81,1.04c0.22,3.39-3.02,1.93-4.16,4.27c1.65-2.39-0.01-3.56-1.69-4.72l0.31,0.29c-1.23,0.86-2.07,3.71-3.81,2.6
		c-0.25-1.48-0.52-2.96-0.8-4.42c-0.17,1.27-0.35,2.54-0.56,3.83c-0.99-0.09-2.17-1.23-1.27-2.57c-3.61,0.24-2.61,2.28-1.94,4.34
		c0.34,1.02,0.6,2.03,0.14,2.81c-0.23,0.39-0.64,0.71-1.31,0.95c-0.67,0.21-1.62,0.31-2.87,0.28c-0.45-1.59,0.08-2.88,2.71-2.99
		c-0.68-2.57-1.82-3.62-4.39-3.67c-0.11-0.16-0.13-0.3-0.19-0.44c-1.06,0.4-2.2,0.82-3.34,1.29c-1.15,0.45-2.33,0.87-3.42,1.41
		C179.59,256.07,177.63,257.25,176.55,259.06z"/>
	<path class="st0" d="M188.53,252.27c0.56-0.22,1.11-0.41,1.61-0.63c0.49-0.23,0.95-0.46,1.36-0.68c0.82-0.45,1.44-0.89,1.75-1.34
		c-0.38-0.29-1.85-0.21-3.06,0.24C188.99,250.32,187.96,251.02,188.53,252.27z"/>
	<path class="st0" d="M94.3,36.59c-0.24,0.25-0.46,0.5-0.66,0.77C93.87,37.1,94.09,36.85,94.3,36.59z"/>
	<path class="st0" d="M112.67,28.45c-0.33-0.38-0.78-0.54-1.28-0.62C111.62,28.63,112.04,29.18,112.67,28.45z"/>
	<path class="st0" d="M36.85,193.66c-0.02-0.02-0.04-0.04-0.07-0.06C36.81,193.62,36.83,193.64,36.85,193.66z"/>
	<path class="st0" d="M43.59,86.41c-0.34-2.18-1-3.36-1.88-4C41.43,83.54,41.83,84.84,43.59,86.41z"/>
	<path class="st0" d="M28.54,120.85c0.15,0.28,0.28,0.57,0.48,0.82C28.89,121.08,28.76,120.9,28.54,120.85z"/>
	<path class="st0" d="M41.29,198.02c-0.99-0.41-1.76-1.14-2.42-1.95c-0.65-0.82-1.25-1.71-2.01-2.41c0.68,0.58,1.03,1.73,1.58,2.72
		C39.01,197.35,39.82,198.15,41.29,198.02z"/>
	<polygon class="st0" points="136.55,19.65 134.64,21.96 136.7,20.26 	"/>
	<path class="st0" d="M117.5,23.86c-0.98-0.32-3.95,1.77-2.71,2.67C115.52,25.25,116.53,24.56,117.5,23.86z"/>
	<polygon class="st0" points="52.67,58.88 53.8,61.07 53.67,58.59 	"/>
</g>
</svg>
