<?xml version="1.0" encoding="utf-8"?>
<!-- Generator: Adobe Illustrator 25.1.0, SVG Export Plug-In . SVG Version: 6.00 Build 0)  -->
<svg version="1.1" id="Calque_1" xmlns="http://www.w3.org/2000/svg" xmlns:xlink="http://www.w3.org/1999/xlink" x="0px" y="0px"
	 viewBox="0 0 10.14 17.31" style="enable-background:new 0 0 10.14 17.31;" xml:space="preserve">
<style type="text/css">
	.st0{fill:#6BC06D;}
</style>
<path class="st0" d="M6.51,17.15H3.15c-0.12,0-0.24-0.12-0.24-0.24V9.63H0.39c-0.12,0-0.24-0.12-0.24-0.24v-3
	c0-0.12,0.12-0.24,0.24-0.24h2.57V5.66c0-0.43,0-0.86,0-1.28c0-0.37,0-0.79,0.12-1.16c0.18-1.04,0.73-1.83,1.53-2.38
	C5.29,0.4,6.14,0.15,7.12,0.15c0.55,0,1.1,0,1.65,0.06h0.06c0.24,0,0.43,0.06,0.67,0.06h0.31c0.12,0,0.18,0.12,0.18,0.24v2.69
	c0,0.12-0.12,0.24-0.24,0.24H9.02c-0.37,0-0.73,0-1.16,0c-0.79,0-1.1,0.31-1.16,0.92c0,0.49,0,1.41,0,1.9c0.49,0,1.71,0,2.32,0h0.61
	c0.06,0,0.12,0,0.18,0.06c0.06,0.06,0.06,0.12,0.06,0.18l-0.43,3c0,0.12-0.12,0.18-0.24,0.18H6.69v7.22
	C6.75,17.03,6.63,17.15,6.51,17.15z"/>
</svg>
