<?xml version="1.0" encoding="utf-8"?>
<!-- Generator: Adobe Illustrator 25.1.0, SVG Export Plug-In . SVG Version: 6.00 Build 0)  -->
<svg version="1.1" id="Calque_1" xmlns="http://www.w3.org/2000/svg" xmlns:xlink="http://www.w3.org/1999/xlink" x="0px" y="0px"
	 viewBox="0 0 17.29 17.24" style="enable-background:new 0 0 17.29 17.24;" xml:space="preserve">
<style type="text/css">
	.st0{fill:#6BC06D;}
</style>
<path class="st0" d="M13.35,17.12h-9.3c-2.1,0-3.9-1.72-3.9-3.87V3.99c0-2.15,1.7-3.87,3.9-3.87h9.3c2.1,0,3.8,1.72,3.8,3.87v9.25
	C17.15,15.4,15.45,17.12,13.35,17.12z M4.05,1.84c-1.2,0-2.2,0.97-2.2,2.15v9.25c0,1.18,1,2.15,2.2,2.15h9.3
	c1.2,0,2.2-0.97,2.2-2.15V3.99c0-1.18-1-2.15-2.2-2.15L4.05,1.84z M8.65,13.03c-2.4,0-4.4-1.94-4.4-4.41c0-2.37,2-4.41,4.4-4.41
	s4.4,1.94,4.4,4.41S11.05,13.03,8.65,13.03z M8.65,5.93c-1.5,0-2.7,1.18-2.7,2.69s1.2,2.69,2.7,2.69s2.7-1.18,2.7-2.69
	S10.15,5.93,8.65,5.93z M13.25,3.24c-0.6,0-1.1,0.54-1.1,1.08c0,0.65,0.5,1.08,1.1,1.08s1.1-0.54,1.1-1.08
	C14.35,3.67,13.85,3.24,13.25,3.24z"/>
</svg>
