<?xml version="1.0" encoding="utf-8"?>
<!-- Generator: Adobe Illustrator 25.1.0, SVG Export Plug-In . SVG Version: 6.00 Build 0)  -->
<svg version="1.1" id="Calque_1" xmlns="http://www.w3.org/2000/svg" xmlns:xlink="http://www.w3.org/1999/xlink" x="0px" y="0px"
	 viewBox="0 0 149 83.13" style="enable-background:new 0 0 149 83.13;" xml:space="preserve">
<style type="text/css">
	.st0{fill:#C9DFD3;}
	.st1{fill:#7B6A58;}
</style>
<g>
	<path class="st0" d="M44.52,15.8c2.28-2.3,4.95-4.32,7.85-6.04c-0.01,0.06-0.01,0.13-0.02,0.2c-0.11,1.33,0.22,2.82,0.92,4.39
		c-2.52,0.04-5.03,0.42-7.39,1.13c-1.58,0.47-3.09,1.09-4.51,1.84c-3.11-0.67-6.55-0.62-9.98,0.01l-1.07-0.25
		c-9.66-2.23-13.82,1.3-14.45,7.12c-0.02,0.17-0.03,0.34-0.04,0.51c-2.45,2.2-4.28,4.74-5.13,7.47c-0.33,0.23-0.64,0.48-0.92,0.77
		c-1.71,1.75-2.43,4.48-1.57,8.38c-2.79-0.31-5.05-0.36-5.7-0.36H1.89v0.91c0,9.36,4.33,12.76,9.41,13.57
		c1.14,0.18,2.31,0.24,3.48,0.19c1.09,1.71,2.21,3.18,3.33,4.43c-1.24,1.89-0.92,3.67,1.42,5.2c2.53,1.66,8.03,2.88,17.4,3.39
		c1.12,4.36,3.23,7.55,5.75,9.74c0.11,0.1,0.22,0.19,0.34,0.28c1.14,1.17,2.46,2,3.88,2.51c0.78,0.28,1.6,0.47,2.45,0.57
		c2.05,0.44,4.05,0.39,5.77-0.1c1.29-0.37,2.43-0.99,3.33-1.86c0.6-0.32,1.21-0.67,1.8-1.05c1.61-0.38,2.66-1.27,3.26-2.52
		c2.01-1.83,3.86-4.08,5.4-6.69l-0.4-1.42c-1.28,2.17-2.78,4.08-4.42,5.71c0.01-0.06,0.01-0.12,0.01-0.18
		c0.05-0.9-0.04-1.88-0.24-2.91c1.12-0.51,2.2-1.18,3.22-2.01c0.22-0.09,0.44-0.19,0.66-0.3c0.87-0.44,1.71-1.01,2.5-1.71l0.11-0.01
		c1.28,0.45,2.66,0.54,4.06,0.32c4.64,6.11,11.38,6.6,17.92,3.85c1.95-0.82,3.87-1.92,5.73-3.25c4.25,0.23,7.84,0.3,10.41,0.24
		c14.48-0.38,22.63-1.93,26.08-4.19c3.05-1.99,3.18-4.32,1.12-6.81c1.54-1.08,2.77-2.49,3.62-4.24l0.01-0.03l0,0
		c0.71-1.49,1.11-2.85,1.24-4.1c1.14-0.7,2.14-1.48,2.99-2.3c1.89-1.82,3.07-3.86,3.45-5.73c0.43-2.13-0.09-3.99-1.69-5.12
		c-2.03-1.44-6.02-1.56-12.28,0.92c-3.58-9.37-10.13-11.55-15.99-10.43c-1.06-0.58-2.37-0.92-3.99-0.97
		c-1.06-0.33-2.33-0.62-3.84-0.85c-2.58-0.39-4.93-0.67-7.07-0.83c0.11-8.86-4.98-14.78-11.73-18.26c-0.2-0.1-0.4-0.2-0.6-0.3
		c-2.03-1.23-4.36-2.11-6.9-2.65c-1.39-0.3-2.85-0.5-4.35-0.6c-3.64-0.46-7.2-0.41-10.25,0.11c-2.3,0.39-4.32,1.05-5.91,1.97
		c-1.07,0.33-2.14,0.71-3.19,1.11c-2.86,0.41-4.73,1.35-5.78,2.67c-3.58,1.94-6.86,4.32-9.59,7.08L44.52,15.8L44.52,15.8z
		 M37.81,68.73l1.01,0.05c0.16,1.26,0.4,2.43,0.7,3.49c0.08,0.28,0.16,0.55,0.24,0.81C38.98,71.81,38.31,70.37,37.81,68.73
		L37.81,68.73z M39.56,68.8c0.69,0.03,1.4,0.05,2.13,0.07l0.06,0c2.1,4.1,5.74,7.55,11.27,9.2c1.37,0.41,2.59,0.67,3.68,0.8
		c-2.5,1.04-5.03,1.46-7.35,1.19c-0.1-0.02-0.19-0.05-0.29-0.07c-1.99-0.48-4.01-1.43-5.82-2.92c-1.37-1.41-2.46-3.32-3.14-5.78
		C39.87,70.52,39.7,69.69,39.56,68.8L39.56,68.8z M42.95,68.89c0.93,0.01,1.97-0.01,3.1-0.04c0.94,0.51,1.9,0.97,2.85,1.37
		c2.68,1.12,5.38,1.78,8,1.86c1.07,0.81,2.05,1.74,2.89,2.77c-0.03,0.92-0.31,1.75-0.78,2.46c-1.52,0.07-3.47-0.22-5.91-0.95
		C48.32,74.94,45.02,72.2,42.95,68.89L42.95,68.89z M58.93,72.03c1.45-0.13,2.86-0.44,4.22-0.98c0.19,0.88,0.27,1.69,0.24,2.41
		c-0.02,0.44-0.09,0.86-0.21,1.23c-0.98,0.89-2,1.67-3.04,2.35c0.27-0.84,0.39-1.79,0.34-2.83l-0.02-0.46l-0.17-0.21
		C59.87,73.02,59.42,72.51,58.93,72.03L58.93,72.03z M75.84,66.7l0.05-0.02l0.6,0.23c2.78,1.08,4.75,0.73,6.06-0.59
		c4.68,0.52,9.14,0.91,13.13,1.16c-1.2,0.74-2.42,1.38-3.66,1.89C86.18,71.84,80.17,71.58,75.84,66.7L75.84,66.7z M84.3,62.68
		c0.17-0.76,0.28-1.6,0.34-2.49c0.01-0.16,0.02-0.32,0.02-0.49c0.17-0.25,0.32-0.5,0.48-0.76c0.47-0.18,0.94-0.37,1.41-0.58
		c2.06,0.1,3.94,0.12,5.66,0.08c0.59,0.21,1.21,0.39,1.88,0.52c-0.84,0.71-1.67,1.34-2.48,1.9c-2.18,0.62-4.48,1.19-6.84,1.71
		L84.3,62.68L84.3,62.68z M86.36,56.55c0.05-0.1,0.09-0.21,0.13-0.31c0.35-0.11,0.71-0.22,1.08-0.33c-0.29,0.17-0.58,0.33-0.87,0.49
		L86.36,56.55L86.36,56.55L86.36,56.55z M87.53,52.75l0.02-0.11c0.19-0.21,0.36-0.45,0.52-0.72c0.45-0.77,0.78-1.76,0.96-2.96
		c0.51,1.03,1.1,2.11,1.78,3.25c0.13,0.31,0.26,0.62,0.39,0.91c-0.95,0.33-1.9,0.64-2.84,0.94C88.03,53.65,87.76,53.21,87.53,52.75
		L87.53,52.75z M89.79,44.13c0.31,0.05,0.59,0.08,0.86,0.11c-0.09,0.22-0.21,0.46-0.35,0.7c-0.09,0.15-0.18,0.3-0.29,0.45
		C89.92,44.96,89.85,44.54,89.79,44.13L89.79,44.13z M92.02,44.33l0.14,0h0.24c0.08,1.04,0.1,2.13,0.05,3.26
		c-0.51-0.35-1-0.7-1.47-1.05c0.09-0.14,0.18-0.28,0.26-0.41C91.6,45.5,91.86,44.9,92.02,44.33L92.02,44.33z M81.96,23.99
		c-0.71-0.97-1.42-1.7-2.13-2.21c1.41-0.7,2.69-1.48,3.82-2.34l0.25-0.19l0.03-0.41c0.02-0.26,0.02-0.51,0-0.76
		c1.31,0.11,2.61,0.19,3.88,0.22l0.2,0.1c0.18,0.35,0.28,0.72,0.32,1.12c0.08,1.03-0.28,2.25-1,3.59
		C85.51,23.18,83.7,23.47,81.96,23.99L81.96,23.99z M78.1,20.95c-0.92-0.22-1.82-0.09-2.69,0.34l-0.11,0.06
		c-2.48-1.27-4.98-2.36-7.52-3.24l-0.02-0.03c1.54-0.47,3.22-0.86,5.03-1.19c0.61-0.11,1.19-0.2,1.76-0.29
		c0.58,0.14,1.16,0.26,1.75,0.38c2.18,0.44,4.39,0.77,6.56,0.99c0.02,0.1,0.03,0.19,0.03,0.29C81.5,19.27,79.88,20.17,78.1,20.95
		L78.1,20.95z M66.38,16.93c-0.11-0.09-0.23-0.17-0.34-0.25c-1.64-1.14-3.29-1.78-4.88-1.77c1.47-0.5,2.99-0.88,4.51-1.14
		c1.69,0.72,3.48,1.35,5.33,1.9C69.34,16.02,67.8,16.45,66.38,16.93L66.38,16.93z M54.58,20.08c-0.28,0.54-0.55,1.14-0.81,1.78
		l-0.7-0.18c0.03-0.07,0.06-0.14,0.09-0.2c0.21-0.45,0.44-0.88,0.7-1.29C54.1,20.15,54.33,20.11,54.58,20.08L54.58,20.08z
		 M51.94,21.4l-0.57-0.13c0.21-0.27,0.44-0.53,0.67-0.78l0.32-0.06l-0.08,0.16C52.16,20.85,52.05,21.12,51.94,21.4L51.94,21.4z
		 M49.99,20.95l-0.06-0.01l0.09-0.02L49.99,20.95L49.99,20.95z M43.34,19.74c-0.53-0.08-1.05-0.16-1.56-0.22l0.44-0.14
		C42.6,19.49,42.98,19.6,43.34,19.74L43.34,19.74z M37.87,19.09c-0.31-0.03-0.62-0.05-0.91-0.07c-0.28-0.12-0.56-0.24-0.85-0.35
		c0.87-0.02,1.73,0.01,2.57,0.08C38.41,18.86,38.14,18.97,37.87,19.09L37.87,19.09z M22.33,20.37c-2.14,0.66-3.62,1.51-4.53,2.5
		c-0.19,0.21-0.36,0.42-0.51,0.63l-0.04,0.03c0.78-3.67,3.79-5.92,10-5.16c-0.87,0.28-1.73,0.59-2.57,0.93
		C23.88,19.63,23.09,19.98,22.33,20.37L22.33,20.37z M16.37,30.42c-0.07,0.12-0.15,0.25-0.22,0.37c-1.34-0.01-2.58,0.16-3.68,0.53
		c0.77-1.59,1.92-3.1,3.36-4.49C15.9,27.98,16.09,29.19,16.37,30.42L16.37,30.42z M15.35,32.61c-0.08,0.23-0.15,0.46-0.22,0.7
		l-0.01,0.03l0,0c-0.26,0.92-0.45,1.79-0.57,2.61c-1.26-0.28-2.3-0.28-3.13-0.06c-0.02-0.72,0.05-1.42,0.2-2.12v0
		c0.01-0.07,0.03-0.14,0.05-0.2C12.68,32.99,13.94,32.69,15.35,32.61L15.35,32.61z M14,37.68c-0.47,0.54-0.89,1.12-1.27,1.72
		c-0.09,0.15-0.19,0.31-0.28,0.46c-0.37-0.74-0.64-1.47-0.81-2.21C12.26,37.5,13.04,37.49,14,37.68L14,37.68z M11.02,43.56
		c-0.09,0.38-0.15,0.75-0.2,1.11c-0.16-0.42-0.3-0.82-0.42-1.22C10.6,43.49,10.81,43.52,11.02,43.56L11.02,43.56z M15.65,50.33
		c0.88-0.29,1.88-0.78,3.01-1.54c0.37,1.61,0.79,2.99,1.25,4.17c-1.66-0.39-3.14-0.98-4.42-1.69
		C15.52,50.94,15.57,50.63,15.65,50.33L15.65,50.33z M21.12,55.46c0.25,0.42,0.52,0.8,0.79,1.14c-0.41,0.28-0.8,0.55-1.16,0.83
		c-0.71-0.47-1.41-1.01-2.09-1.6C19.58,55.88,20.44,55.76,21.12,55.46L21.12,55.46z M22.91,57.64c1.73,1.48,3.63,1.55,5.38,0.78
		l0.08-0.03c0.23,0.26,0.5,0.51,0.82,0.74c-2.32,0.79-4.77,0.32-7.12-0.92C22.34,58.02,22.62,57.83,22.91,57.64L22.91,57.64z
		 M31.18,60.11c0.19,0.07,0.4,0.13,0.61,0.19c-0.38,0.04-0.75,0.07-1.13,0.1C30.84,60.31,31.01,60.21,31.18,60.11L31.18,60.11z
		 M36.06,61.2v0.37c-1.28,0.91-2.64,1.59-4.05,1.99c-3.42,0.98-7.15,0.33-10.85-2.72C25.15,62.39,30.5,62.33,36.06,61.2L36.06,61.2z
		 M36.12,63.53c0.08,1.26,0.23,2.45,0.44,3.58c-8.97-0.51-14.23-1.67-16.62-3.24c-1.16-0.76-1.38-1.69-0.85-2.74
		c4.44,4.39,9,5.42,13.15,4.22C33.59,64.97,34.89,64.35,36.12,63.53L36.12,63.53z M56.83,70.24c-0.91-0.67-1.87-1.26-2.87-1.78
		c1.42-0.1,2.91-0.22,4.45-0.36c1.24,0.75,2.54,1.2,3.85,1.35C60.52,70.05,58.7,70.3,56.83,70.24L56.83,70.24z M50.8,67.1l-0.2-0.07
		c-2.15-0.73-4.35-1.14-6.42-1.24c-1.21-0.78-2.4-1.65-3.56-2.59c-0.14-0.65-0.26-1.31-0.33-1.96c2.27-0.27,3.83-1.1,4.83-2.27
		c0.27,0.09,0.55,0.18,0.83,0.27c0.61,0.24,1.29,0.46,2.04,0.66c2.72,2.82,5.5,5.12,8.34,6.58c0.07,0.07,0.15,0.15,0.23,0.22
		C54.54,66.86,52.6,67,50.8,67.1L50.8,67.1z M37.39,67.15c-0.29-1.27-0.48-2.64-0.57-4.1c0.22-0.16,0.44-0.33,0.66-0.51
		c0.89,0.85,1.82,1.66,2.76,2.42c0.09,0.34,0.19,0.67,0.3,1c-0.55,0.09-1.07,0.2-1.57,0.35l-0.37,0.11l0.06,0.79
		C38.23,67.2,37.81,67.17,37.39,67.15L37.39,67.15z M38.87,61.32c0.24,0,0.48-0.01,0.71-0.03c0.04,0.38,0.09,0.76,0.14,1.13
		c-0.35-0.3-0.7-0.61-1.04-0.93L38.87,61.32L38.87,61.32z M50.35,68.68l0.16,0.06c0.79,0.27,1.58,0.58,2.36,0.94
		c-1.01-0.25-2.02-0.57-3.03-0.96L50.35,68.68L50.35,68.68z M36.9,58.35c0.05-0.53,0.1-1.08,0.17-1.63
		c0.82,0.26,1.64,0.44,2.45,0.51c-0.02,0.28-0.04,0.56-0.05,0.84C38.58,58.22,37.72,58.31,36.9,58.35L36.9,58.35z M39.66,54.66
		c0.08-0.05,0.15-0.11,0.22-0.16l-0.02,0.1l-0.02,0.09L39.66,54.66L39.66,54.66z M36.38,56.47c-0.08,0.64-0.14,1.27-0.19,1.89
		c-0.2,0-0.4,0-0.6-0.01c-0.39-0.44-0.77-0.88-1.14-1.33l0.1-0.13c0.22-0.3,0.42-0.59,0.62-0.89l0.09,0
		C35.62,56.18,36,56.33,36.38,56.47L36.38,56.47z M30.31,57.11c0.46-0.4,0.9-0.85,1.31-1.35c0.29,0.41,0.58,0.81,0.88,1.2
		c-0.26,0.26-0.52,0.5-0.78,0.72C31.22,57.52,30.75,57.32,30.31,57.11L30.31,57.11z M37.59,53.98c0.17-0.65,0.37-1.24,0.6-1.76
		c0.73,0.14,1.47,0.17,2.17,0.06C39.58,53.11,38.63,53.66,37.59,53.98L37.59,53.98z M45.46,51.26c0.16,0.5,0.28,1,0.36,1.48
		c0.03,0.14,0.05,0.29,0.06,0.43c-0.23,0.22-0.47,0.41-0.71,0.59c-0.16-0.26-0.32-0.52-0.48-0.79l0.03-0.07
		C44.99,52.37,45.23,51.82,45.46,51.26L45.46,51.26z M43.91,51.46c-0.13-0.28-0.26-0.56-0.38-0.85l1.16-1.03
		C44.45,50.21,44.19,50.84,43.91,51.46L43.91,51.46z M49.33,51.32c0.07,0.77,0.15,1.52,0.26,2.26c-0.8,0.36-1.68,0.65-2.65,0.86
		c0.83-0.84,1.62-1.89,2.34-3.16L49.33,51.32L49.33,51.32z M50.07,56.27c0.19,0.88,0.42,1.72,0.68,2.52
		c-0.34-0.09-0.68-0.19-1.02-0.28c-0.39-0.26-0.78-0.55-1.17-0.84c-0.17-0.14-0.33-0.29-0.49-0.44
		C48.74,56.92,49.41,56.6,50.07,56.27L50.07,56.27z M46.54,52.53c-0.02-0.15-0.05-0.3-0.07-0.46c-0.12-0.69-0.29-1.37-0.52-2.06
		l0.07-0.19c0.66,0.25,1.33,0.49,2,0.73C47.55,51.31,47.06,51.96,46.54,52.53L46.54,52.53z M50.11,51.89
		c0.12,0.09,0.23,0.18,0.35,0.28c0.04,0.31,0.08,0.61,0.12,0.92c-0.1,0.06-0.19,0.11-0.3,0.16C50.21,52.8,50.16,52.35,50.11,51.89
		L50.11,51.89z M51.06,55.76c0.25,1.17,0.56,2.26,0.9,3.27l-0.18-0.02c-0.39-0.95-0.72-2-0.98-3.11L51.06,55.76L51.06,55.76z
		 M55.3,50.54c0.36,0.07,0.71,0.14,1.06,0.21c-0.21,0.16-0.43,0.31-0.65,0.47l-0.44-0.14c-0.01-0.16-0.01-0.32-0.01-0.48L55.3,50.54
		L55.3,50.54z M58.9,51.17c1.03,0.14,2.03,0.25,3,0.31c0.35,0.41,0.69,0.83,1.04,1.28c0.17,0.21,0.32,0.42,0.46,0.62
		c-0.91-0.23-1.96-0.5-3.12-0.82c-0.53-0.39-1.03-0.8-1.46-1.22L58.9,51.17L58.9,51.17z M63.74,56.05c0.04,0.29,0.08,0.58,0.13,0.86
		c-2.22-0.72-4.39-1.61-6.49-2.64c0.11-0.2,0.22-0.39,0.32-0.59c1.03,0.3,2,0.58,2.91,0.82C61.56,55.1,62.61,55.64,63.74,56.05
		L63.74,56.05z M64.25,58.87l-0.03,0.04c-1.33,0.13-2.59,0.22-3.77,0.28c-0.89-0.41-1.75-0.89-2.59-1.44
		c-0.29-0.19-0.57-0.38-0.83-0.57c-0.28-0.37-0.57-0.73-0.86-1.09l0.12,0.02l0.18-0.3l0.04-0.06C59,57,61.6,58.06,64.25,58.87
		L64.25,58.87z M60.9,61c-0.12,0.04-0.25,0.07-0.38,0.1l-0.88-0.18l-0.08-0.14c0.25-0.01,0.5-0.02,0.75-0.03
		C60.51,60.84,60.7,60.92,60.9,61L60.9,61z M36.12,49.78c-0.5-0.24-0.98-0.53-1.41-0.84c0.49-0.27,0.98-0.52,1.47-0.75
		C36.2,48.71,36.18,49.24,36.12,49.78L36.12,49.78z M37.2,52.35c-0.14,0.43-0.26,0.89-0.37,1.38l-0.36-0.18
		c0.16-0.37,0.3-0.74,0.42-1.12L37.2,52.35L37.2,52.35z M35.21,52.87l0.07-0.02l-0.02,0.04L35.21,52.87L35.21,52.87z M56.67,58.64
		c0.16,0.21,0.33,0.43,0.49,0.64c-1.54,0.01-2.93-0.05-4.19-0.15c-0.45-1.13-0.84-2.39-1.17-3.77c0.33-0.18,0.65-0.37,0.97-0.55
		C53.57,56.05,54.84,57.33,56.67,58.64L56.67,58.64z M60.34,64.17l0.17,0.31c-0.57,0.07-1.16,0.12-1.77,0.15
		c-1.07,0.05-2.04-0.16-2.91-0.59c-0.22-0.25-0.43-0.52-0.64-0.81C56.99,63.85,58.71,64.15,60.34,64.17L60.34,64.17z M61.34,66.09
		l0.07,0.15l-0.63,0.07c-0.14-0.02-0.28-0.05-0.41-0.08C60.7,66.18,61.03,66.14,61.34,66.09L61.34,66.09z M62.4,66.14l-0.09-0.21
		c1.79-0.36,3.32-0.9,4.63-1.61c0.3,0.36,0.62,0.68,0.95,0.97c0.07,0.06,0.14,0.12,0.21,0.18C66.17,65.71,64.26,65.94,62.4,66.14
		L62.4,66.14z M61.57,64.34l-0.1-0.19c0.97-0.06,1.9-0.23,2.8-0.48l0.08,0.02C63.5,63.95,62.57,64.17,61.57,64.34L61.57,64.34z
		 M64.42,60.54l0.08-0.1l0.28-0.03l0.08,0.22C64.71,60.61,64.56,60.57,64.42,60.54L64.42,60.54z M40.21,57.57l0.02-0.3l0.21,0
		L40.21,57.57L40.21,57.57z M40.61,54.76c0.06-0.29,0.14-0.58,0.21-0.87c0.05,0.29,0.13,0.59,0.24,0.9
		C40.91,54.78,40.76,54.77,40.61,54.76L40.61,54.76z M47.34,45.24c0.14-0.06,0.27-0.11,0.41-0.16l-0.47,0.41L47.34,45.24
		L47.34,45.24z M57.57,47.33c0.39,0.29,0.79,0.61,1.18,0.95c-0.07,0.23-0.14,0.46-0.22,0.7c-0.18,0.17-0.37,0.33-0.57,0.5
		c-0.26-0.05-0.53-0.1-0.8-0.15l-0.04-0.08c-0.25-0.43-0.41-0.82-0.46-1.15C57,47.89,57.31,47.63,57.57,47.33L57.57,47.33z
		 M60.01,49.44c0.13,0.13,0.26,0.26,0.39,0.39c-0.23-0.03-0.46-0.06-0.7-0.09C59.8,49.65,59.91,49.54,60.01,49.44L60.01,49.44z
		 M62.27,50.02c-0.46-0.54-0.91-1.04-1.36-1.52c0.23-0.25,0.33-0.39,0.45-0.55c0.09-0.12,0.2-0.27,0.5-0.61l0.46-0.53
		c0.29,1.12,0.66,2.2,1.12,3.22v0.05C63.05,50.06,62.66,50.04,62.27,50.02L62.27,50.02z M58.2,40.4L58.2,40.4
		c0.61-0.9,1.3-1.73,2.05-2.5c0.48,0.27,0.96,0.52,1.43,0.76c-0.37,1.02-1.03,2.08-1.9,3.09c-0.13,0.02-0.26,0.04-0.39,0.05
		c-0.11-0.18-0.22-0.35-0.34-0.51C58.8,40.96,58.52,40.66,58.2,40.4L58.2,40.4z M57.64,38.99l-0.09-0.19l0.54-0.41
		C57.94,38.58,57.79,38.78,57.64,38.99L57.64,38.99z M56.91,37.53c-0.56-1.02-1.12-1.87-1.7-2.57l0.36,0.01
		c0.84,0.59,1.68,1.14,2.51,1.66C57.69,36.93,57.3,37.23,56.91,37.53L56.91,37.53z M52.21,32.54l-0.16-0.06l0.08-0.25l0.08,0.08
		l0,0.04L52.21,32.54L52.21,32.54z M61.99,36.88L61.99,36.88l-0.41-0.21c0.12-0.1,0.24-0.2,0.36-0.29
		C61.96,36.54,61.98,36.71,61.99,36.88L61.99,36.88z M62.12,46.01l0.02,0.1l-0.51-0.15c-0.48-0.15-0.93-0.26-1.35-0.35
		c0-0.14,0.01-0.27,0-0.41C60.87,45.5,61.48,45.77,62.12,46.01L62.12,46.01z M53.69,43.45c-0.38-0.13-0.76-0.24-1.13-0.33
		c0.05-0.14,0.1-0.29,0.13-0.43l0.18-0.15c0.76,0.34,1.57,0.58,2.44,0.73C54.86,43.39,54.31,43.44,53.69,43.45L53.69,43.45z
		 M50.9,42.39c0.02-0.34,0.04-0.68,0.06-1.03c0.13,0.1,0.26,0.21,0.39,0.31l-0.1,0.43L50.9,42.39L50.9,42.39z M51.2,38.65
		c0.03-0.28,0.06-0.56,0.09-0.85l0.02-0.17c0.24,0.08,0.48,0.17,0.71,0.26c-0.03,0.24-0.07,0.49-0.1,0.73
		C51.68,38.63,51.44,38.64,51.2,38.65L51.2,38.65z M51.48,36.15l0.13-1.14c0.14,0.15,0.28,0.31,0.42,0.47l0.19,0.23
		c-0.01,0.23-0.03,0.45-0.05,0.69C51.95,36.31,51.72,36.22,51.48,36.15L51.48,36.15z M53.82,35.37c0.76,0.67,1.52,1.59,2.25,2.81
		l-0.49,0.38C55.13,37.46,54.54,36.39,53.82,35.37L53.82,35.37z M56.75,39.41l0.05,0.11l-0.12-0.06L56.75,39.41L56.75,39.41z
		 M57.77,41.82L57.77,41.82c-0.08-0.06-0.16-0.14-0.25-0.21C57.61,41.68,57.69,41.75,57.77,41.82L57.77,41.82z M50.16,42.89
		l-0.15,0.01c0.06-0.75,0.13-1.49,0.22-2.23l0.05,0.06C50.24,41.47,50.19,42.19,50.16,42.89L50.16,42.89z M46.3,44.02
		c-0.52,0.3-1.02,0.65-1.49,1.05c0-0.15,0-0.3,0-0.46c0.27-0.09,0.57-0.22,0.89-0.38l0.61-0.31L46.3,44.02L46.3,44.02z M45.44,41.84
		c-0.03-0.07-0.07-0.15-0.12-0.25c0.45-0.19,0.93-0.36,1.43-0.52c-0.04,0.37-0.08,0.75-0.13,1.13
		C46.22,42.08,45.83,41.96,45.44,41.84L45.44,41.84z M44.59,40.32c-0.14-0.22-0.28-0.44-0.42-0.66l-0.04-0.2
		c0.79,0.04,1.51,0.1,2.17,0.17C45.7,39.84,45.13,40.07,44.59,40.32L44.59,40.32z M44.05,37.97c0.26-0.39,0.55-0.78,0.86-1.15
		c0.66-0.02,1.31-0.01,1.95,0.03c0.02,0.48,0.03,0.96,0.03,1.45C46.05,38.16,45.1,38.05,44.05,37.97L44.05,37.97z M46.45,35.33
		c0.09-0.07,0.18-0.14,0.27-0.2l0.03,0.22L46.45,35.33L46.45,35.33z M50.51,34.9c-0.07,0.31-0.14,0.62-0.21,0.93
		c-0.48-0.11-0.98-0.2-1.48-0.28c-0.03-0.12-0.06-0.24-0.09-0.37l-0.05-0.23C49.27,34.92,49.88,34.91,50.51,34.9L50.51,34.9z
		 M50.01,37.27c-0.05,0.27-0.1,0.55-0.14,0.82c-0.18-0.3-0.34-0.62-0.49-0.95C49.59,37.18,49.81,37.22,50.01,37.27L50.01,37.27z
		 M49.54,40.4c-0.1,0.82-0.18,1.65-0.24,2.49c-0.48-0.11-0.98-0.23-1.48-0.36c0.08-0.61,0.15-1.21,0.2-1.82
		c0.33-0.08,0.67-0.15,1.01-0.22C49.2,40.46,49.37,40.43,49.54,40.4L49.54,40.4z M64.81,56.4c0.05,0.29,0.06,0.56,0.05,0.82
		l-0.11-0.03c-0.06-0.28-0.12-0.56-0.17-0.85L64.81,56.4L64.81,56.4z M65.56,57.41c0.02-0.27,0.02-0.55,0-0.83
		c0.7,0.16,1.41,0.26,2.14,0.3c0.11,0.39,0.23,0.77,0.36,1.14C67.22,57.85,66.39,57.65,65.56,57.41L65.56,57.41z M64.8,53.72
		c-0.18-0.39-0.39-0.79-0.63-1.19c-0.01-0.32-0.02-0.64-0.03-0.98h0.06c0.5,0.87,1.06,1.68,1.7,2.4
		C65.59,53.89,65.22,53.81,64.8,53.72L64.8,53.72z M66,60.85c-0.09-0.17-0.17-0.35-0.25-0.54c0.7-0.08,1.43-0.16,2.17-0.25
		c-0.47,0.32-0.95,0.6-1.45,0.86C66.31,60.9,66.16,60.87,66,60.85L66,60.85z M41.5,40.37c-0.01-0.32-0.01-0.65-0.01-0.98
		c0.25,0,0.49,0,0.73,0.01l-0.03,0.07c-0.13,0.36-0.23,0.71-0.31,1.05L41.5,40.37L41.5,40.37z M42.62,36.97
		c0.09,0.3,0.18,0.6,0.27,0.88l0,0c-0.22-0.28-0.45-0.57-0.68-0.84L42.62,36.97L42.62,36.97z M40.87,34.45
		c0.28-0.53,0.63-1.08,1.04-1.65c1.53-0.22,2.95-0.39,4.28-0.52c0.09,0.37,0.17,0.73,0.25,1.11l0.02,0.12l-0.12,0.09
		c-1.33,0.12-2.59,0.29-3.78,0.5c-0.09-0.25-0.18-0.5-0.27-0.75l-0.12-0.33L42,33.06c-0.25,0.07-0.49,0.32-0.68,0.72
		c-0.08,0.17-0.15,0.38-0.21,0.6L40.87,34.45L40.87,34.45z M43.37,31.03c0.26-0.27,0.52-0.53,0.78-0.77
		c0.47,0.16,0.94,0.34,1.38,0.52C44.84,30.85,44.12,30.93,43.37,31.03L43.37,31.03z M48.16,30.04c0.72,0.13,1.47,0.28,2.26,0.45
		c-0.54,0.01-1.1,0.02-1.67,0.05c-0.19-0.12-0.39-0.24-0.59-0.36L48.16,30.04L48.16,30.04z M51.26,32.04l-0.03,0.18l-0.01,0.02
		c-0.09-0.02-0.19-0.04-0.28-0.05l-0.17-0.15C50.94,32.04,51.1,32.04,51.26,32.04L51.26,32.04z M48.55,32.4
		c-0.1,0.03-0.19,0.06-0.29,0.1c-0.01-0.11-0.02-0.21-0.03-0.31C48.34,32.26,48.45,32.33,48.55,32.4L48.55,32.4z M44.61,35.27
		l-0.04,0.05c-0.16,0.01-0.33,0.01-0.49,0.02C44.25,35.32,44.43,35.3,44.61,35.27L44.61,35.27z M40.78,39.88l0,0.17l-0.17-0.08
		l0.07-0.04L40.78,39.88L40.78,39.88z M42.79,51.27c0.18,0.46,0.37,0.91,0.57,1.34h0c-0.28-0.36-0.57-0.72-0.85-1.09L42.79,51.27
		L42.79,51.27z M43.37,43.16c-0.23-0.02-0.41-0.08-0.57-0.18c0.14-0.11,0.28-0.21,0.43-0.31l0.28,0.1
		C43.48,42.91,43.43,43.03,43.37,43.16L43.37,43.16z M42.64,40.83c0.03-0.08,0.05-0.16,0.08-0.25c0.06-0.17,0.13-0.35,0.2-0.53
		c0.18,0.31,0.33,0.61,0.44,0.91l-0.14,0.09C43.02,40.98,42.83,40.91,42.64,40.83L42.64,40.83z M33.52,47.87
		c-0.1-0.11-0.2-0.23-0.29-0.35l0.45,0.09c0.01,0.05,0.02,0.09,0.03,0.14L33.52,47.87L33.52,47.87z M31.93,47.23
		c0.16,0.44,0.37,0.86,0.64,1.27c-0.59,0.42-1.16,0.87-1.68,1.34c-0.37-0.34-0.72-0.68-1.03-1.03c-0.09-0.1-0.28-0.2-0.61-0.37
		l-0.39-0.2c-0.22-0.48-0.43-0.97-0.63-1.46c0.27-0.1,0.53-0.21,0.77-0.34C30.03,46.75,31.01,47.01,31.93,47.23L31.93,47.23z
		 M28.64,51.31c-1.32-0.24-2.46-0.8-3.4-1.59c-0.03-0.51-0.01-1.03,0.06-1.55c0.27,0.17,0.54,0.33,0.79,0.48
		C26.91,49.59,27.77,50.49,28.64,51.31L28.64,51.31z M23.39,47.55l-0.07-0.12l0.03,0L23.39,47.55L23.39,47.55z M26.91,47.17
		l0.03-0.01l0.01,0.03L26.91,47.17L26.91,47.17z M30.91,45.02L30.94,45l0.16,0.05L30.91,45.02L30.91,45.02z M33.51,49.65l0.09,0.1
		c-0.09,0.42-0.22,0.84-0.39,1.27l-0.58,0.23c-0.24-0.17-0.47-0.34-0.69-0.52C32.44,50.35,32.97,49.99,33.51,49.65L33.51,49.65z
		 M34.28,50.36c0.07,0.05,0.13,0.1,0.2,0.16l-0.26,0.1C34.25,50.53,34.27,50.44,34.28,50.36L34.28,50.36z M33.78,45.34l-0.07-0.12
		c-0.08-0.13-0.16-0.25-0.25-0.37c0.62,0.08,1.21,0.18,1.77,0.29l0.18,0.3C34.89,45.43,34.35,45.39,33.78,45.34L33.78,45.34z
		 M32.39,42.87c-0.07,0.1-0.13,0.2-0.19,0.3l-0.34-0.03c0.01-0.06,0.02-0.12,0.03-0.17L32.39,42.87L32.39,42.87z M36.62,42.25
		c1.3,0.06,2.65,0.69,3.91,1.69c-0.01,0.04-0.03,0.09-0.04,0.13c-1.27-0.54-2.52-1.1-3.75-1.69L36.62,42.25L36.62,42.25z
		 M39.79,41.64c-0.41-0.26-0.82-0.47-1.24-0.64c0.17-0.07,0.33-0.15,0.51-0.23l0.27,0.15C39.47,41.15,39.63,41.39,39.79,41.64
		L39.79,41.64z M28.11,55.62c0.03-0.29,0.11-0.59,0.23-0.9c0.19-0.03,0.39-0.06,0.59-0.1c0.48,0.21,0.98,0.4,1.48,0.57
		c-0.45,0.43-0.94,0.8-1.44,1.11c-0.07-0.05-0.15-0.11-0.22-0.16C28.52,55.98,28.31,55.8,28.11,55.62L28.11,55.62z M27.56,56.95
		c-1.06,0.34-2.16,0.32-3.23-0.17c0.64-0.36,1.32-0.73,2.04-1.1C26.72,56.13,27.12,56.56,27.56,56.95L27.56,56.95z M23.01,55.89
		c-0.3-0.28-0.6-0.61-0.89-0.98c0.76,0.09,1.54,0.13,2.35,0.13c-0.45,0.25-0.88,0.5-1.29,0.75L23.01,55.89L23.01,55.89z
		 M20.92,52.91c-0.52-1.07-0.99-2.36-1.39-3.92c0.18,0.12,0.37,0.23,0.56,0.35c0.37,1.07,1.02,1.93,1.87,2.6l0,0
		c-0.08,0.25-0.18,0.51-0.3,0.78C21.42,52.78,21.18,52.85,20.92,52.91L20.92,52.91z M26.33,45.58c-0.09,0.01-0.19,0.03-0.28,0.04
		l0,0l0.06-0.12L26.33,45.58L26.33,45.58z M19.44,46.46L19.44,46.46l-0.36,0.26l-0.06-0.04C19.15,46.6,19.29,46.53,19.44,46.46
		L19.44,46.46z M18.68,43.95c-0.02-0.39-0.02-0.75-0.01-1.1c0.42,0.5,0.89,0.98,1.39,1.44c-0.03,0.11-0.05,0.22-0.07,0.32
		l-0.06,0.03C19.53,44.39,19.11,44.16,18.68,43.95L18.68,43.95z M18.93,40.89c0.04-0.16,0.09-0.32,0.14-0.46
		c0.33,0.35,0.66,0.72,0.98,1.12c-0.28-0.11-0.56-0.21-0.84-0.3C19.11,41.13,19.02,41.01,18.93,40.89L18.93,40.89z M20.73,38.22
		c0.11-0.07,0.21-0.14,0.32-0.2c-0.03,0.22-0.05,0.44-0.07,0.66C20.9,38.53,20.81,38.37,20.73,38.22L20.73,38.22z M19.12,38.06
		l-0.08,0.14c-0.44-0.4-0.89-0.75-1.32-1.03c0.04-0.2,0.09-0.4,0.17-0.6c0.15-0.07,0.31-0.13,0.47-0.18
		C18.59,36.94,18.85,37.5,19.12,38.06L19.12,38.06z M18.37,39.74c-0.02,0.06-0.04,0.13-0.06,0.2c-0.08-0.15-0.16-0.3-0.22-0.45
		C18.18,39.57,18.28,39.65,18.37,39.74L18.37,39.74z M17.95,42.43c-0.02,0.38-0.02,0.77-0.01,1.18c-0.17-0.07-0.35-0.15-0.52-0.22
		c-0.45-0.41-0.85-0.87-1.19-1.4C16.76,42.11,17.33,42.25,17.95,42.43L17.95,42.43z M15.45,40.3c-0.17-0.59-0.28-1.23-0.31-1.94
		c0.11-0.1,0.22-0.2,0.34-0.3c0.23,0.07,0.47,0.15,0.71,0.25c0.09,0.03,0.18,0.07,0.27,0.11c0.01,0.12,0.03,0.23,0.05,0.35
		c0.11,0.63,0.34,1.26,0.65,1.87C16.55,40.49,15.98,40.38,15.45,40.3L15.45,40.3z M19.67,36.04c0.57-0.1,1.17-0.14,1.8-0.12
		l-0.05,0.2c-0.49,0.2-0.93,0.46-1.33,0.8C19.94,36.63,19.8,36.33,19.67,36.04L19.67,36.04z M17.6,47.68
		c-0.11,0.07-0.23,0.13-0.34,0.19c0.09-0.08,0.18-0.16,0.28-0.24L17.6,47.68L17.6,47.68z M14.97,48.8
		c-0.09,0.02-0.17,0.04-0.26,0.05c-0.1-0.29-0.22-0.54-0.37-0.76c-0.51-0.76-1.25-1.07-2.31-0.74c-0.22-0.42-0.42-0.83-0.61-1.24
		c-0.01-0.26,0.01-0.53,0.04-0.81c0.06-0.51,0.18-1.05,0.35-1.61c0.61,0.12,1.22,0.25,1.82,0.39c0.79,0.91,1.72,1.81,2.81,2.7
		c-0.06,0.06-0.13,0.13-0.19,0.19C15.72,47.53,15.29,48.14,14.97,48.8L14.97,48.8z M13.55,40.18c0.27-0.38,0.56-0.75,0.88-1.1
		c0.03,0.39,0.08,0.77,0.15,1.13C14.22,40.18,13.88,40.17,13.55,40.18L13.55,40.18z M15.02,41.8c0.12,0.32,0.25,0.62,0.4,0.91
		c-0.44-0.13-0.88-0.25-1.33-0.36c-0.17-0.22-0.34-0.43-0.49-0.64C14.04,41.71,14.51,41.73,15.02,41.8L15.02,41.8z M17.62,45.37
		c0.11,0.08,0.22,0.17,0.33,0.25c-0.07,0.05-0.15,0.1-0.22,0.14c-0.32-0.23-0.62-0.47-0.9-0.71C17.1,45.15,17.37,45.26,17.62,45.37
		L17.62,45.37z M21.86,37.68c0.4-0.13,0.83-0.21,1.28-0.25c-0.53,0.73-1.03,1.55-1.49,2.48l-0.05-0.09
		c0.02-0.46,0.07-0.92,0.13-1.36C21.77,38.19,21.81,37.93,21.86,37.68L21.86,37.68z M24.78,37.46l0.16,0.02
		c0.01,0.5,0.03,1.01,0.07,1.52c0.08,1.1,0.25,2.2,0.48,3.31c-0.15,0.29-0.25,0.58-0.29,0.87c-0.14,0.06-0.27,0.12-0.41,0.18
		l-0.11,0.02c-0.36-0.14-0.73-0.28-1.11-0.42c-0.42-0.61-0.81-1.22-1.2-1.85C23.08,39.62,23.89,38.42,24.78,37.46L24.78,37.46z
		 M26.21,38.2c0.71,0.49,1.46,0.97,2.23,1.44c-0.68,0.4-1.26,0.81-1.73,1.22c-0.06,0.05-0.12,0.11-0.18,0.16
		c-0.13-0.75-0.23-1.49-0.28-2.22C26.23,38.6,26.22,38.4,26.21,38.2L26.21,38.2z M30.72,41l0.12,0.07c0.07,0.12,0.14,0.23,0.19,0.34
		c-0.52,0.1-1.05,0.22-1.6,0.34C29.83,41.49,30.26,41.23,30.72,41L30.72,41z M27.97,36.53l-0.28-0.1l-0.11-0.07
		c-0.3-0.19-0.59-0.37-0.88-0.53l0.05-0.03C27.16,36.03,27.57,36.27,27.97,36.53L27.97,36.53z M25.06,35.02
		c-0.49-0.2-0.96-0.36-1.43-0.48c-0.17-0.13-0.33-0.26-0.49-0.39l0.03-0.05c0.64,0.25,1.27,0.52,1.9,0.82L25.06,35.02L25.06,35.02z
		 M24.21,32.63c0.48-0.53,1.01-0.98,1.61-1.32c-0.19,0.6-0.35,1.21-0.48,1.83C24.97,32.96,24.59,32.78,24.21,32.63L24.21,32.63z
		 M27.67,30.62c1.14-0.21,2.42-0.11,3.86,0.39c-0.06,0.55-0.09,1.11-0.1,1.69c-1.52,0.08-3.04,0.48-4.47,1.27
		c-0.14-0.08-0.29-0.16-0.43-0.24c0.21-1.04,0.53-2.06,0.95-3.05L27.67,30.62L27.67,30.62z M32.75,31.52
		c0.14,0.07,0.28,0.13,0.42,0.21c-0.18,0.28-0.34,0.57-0.47,0.86C32.7,32.22,32.72,31.87,32.75,31.52L32.75,31.52z M31.86,36.84
		c0,0.11,0.01,0.21,0.01,0.31c0.01,0.12,0.02,0.24,0.03,0.35c-1.04-0.96-2.19-1.84-3.4-2.62c0.98-0.38,1.98-0.58,2.98-0.63
		C31.55,35.1,31.68,35.96,31.86,36.84L31.86,36.84z M34.85,40.57c-0.1-0.09-0.21-0.17-0.32-0.26l-0.34-0.5
		c0.85-0.18,1.77-0.3,2.75-0.35c0.13,0.1,0.27,0.19,0.41,0.28C36.46,40.09,35.63,40.36,34.85,40.57L34.85,40.57z M32.82,34.78
		c0.05-0.16,0.11-0.33,0.17-0.5c0.43,0.04,0.85,0.09,1.27,0.17c-0.2,0.4-0.28,0.82-0.25,1.26c0.03,0.44,0.2,0.9,0.48,1.36
		c-0.39,0.12-0.78,0.25-1.16,0.38C33.09,36.53,32.92,35.64,32.82,34.78L32.82,34.78z M33.8,32.81c0.12-0.17,0.26-0.33,0.41-0.49
		c0.4,0.25,0.81,0.53,1.24,0.83l-0.1-0.03C34.84,32.99,34.32,32.88,33.8,32.81L33.8,32.81z M39.16,37.47
		c-0.01,0.08-0.01,0.16-0.01,0.24l-0.1-0.22L39.16,37.47L39.16,37.47z M20,31.26c-0.5-0.54-0.94-1.08-1.32-1.59
		c2.16-1.61,5.1-1.83,8.26-1.07c-0.08,0.16-0.16,0.32-0.24,0.47c-0.71,0.23-1.42,0.48-2.15,0.76c-1.4,0.53-2.58,1.09-3.58,1.68
		C20.65,31.41,20.32,31.34,20,31.26L20,31.26z M39.95,37.33c0.06,0.14,0.11,0.32,0.15,0.51h-0.25c0.01-0.16,0.02-0.33,0.04-0.5
		L39.95,37.33L39.95,37.33z M21.08,34.2c-0.48,0-0.94,0.04-1.39,0.12c0.26-0.21,0.55-0.42,0.86-0.62
		C20.73,33.86,20.9,34.03,21.08,34.2L21.08,34.2z M17.03,35.23c-0.53,0.29-1.03,0.62-1.5,0.99l-0.24-0.07
		c0.09-0.57,0.22-1.17,0.41-1.8l0,0l0.01-0.02c0.18-0.62,0.39-1.19,0.64-1.71c0.2,0.01,0.41,0.01,0.62,0.03
		c0.18,0.58,0.38,1.16,0.59,1.75C17.35,34.66,17.18,34.95,17.03,35.23L17.03,35.23z M17.7,30.55l0.11-0.12
		c0.11,0.17,0.22,0.33,0.34,0.5l-0.36-0.04C17.76,30.78,17.73,30.67,17.7,30.55L17.7,30.55z M27.81,27.09
		c-3.79-1.08-7.35-0.83-9.85,1.4c-0.6-1.16-0.78-2.22-0.44-3.13c1.7-1.35,3.66-2.55,5.78-3.55c2.33-0.61,5.36-1.02,9.21-1.19
		c0.66-0.03,1.44-0.03,2.32,0C31.7,22.44,29.4,24.64,27.81,27.09L27.81,27.09z M40.53,21.08c0.92,0.11,1.87,0.24,2.85,0.38
		c-0.5,0.26-0.96,0.53-1.4,0.82C41.53,21.86,41.04,21.46,40.53,21.08L40.53,21.08z M46.47,21.98c0.39,0.07,0.79,0.15,1.19,0.22
		c0.35,0.31,0.69,0.64,1.01,0.99c-0.48,1-0.87,2.07-1.14,3.21c-0.61,0.23-1.21,0.52-1.79,0.88c-0.69-1.36-1.54-2.62-2.56-3.78
		C44.13,22.94,45.23,22.43,46.47,21.98L46.47,21.98z M50.31,22.75c0.37,0.08,0.74,0.17,1.11,0.25c-0.09,0.34-0.17,0.69-0.24,1.04
		C50.91,23.59,50.62,23.16,50.31,22.75L50.31,22.75z M52.49,23.26l0.11,0.02l-0.14,0.09L52.49,23.26L52.49,23.26z M50.1,25.8
		c-0.43,0.04-0.86,0.11-1.28,0.21c0.19-0.62,0.42-1.21,0.69-1.78c0.28,0.38,0.54,0.79,0.78,1.22C50.22,25.56,50.16,25.68,50.1,25.8
		L50.1,25.8z M44.47,27.86c-0.93-0.07-1.79-0.08-2.59-0.06c-0.94-0.19-1.93-0.33-2.96-0.41c0.06-0.09,0.12-0.18,0.18-0.27
		c0.68-1,1.59-1.93,2.76-2.77C42.9,25.41,43.77,26.59,44.47,27.86L44.47,27.86z M36.01,29.15c-0.59,0.32-1.09,0.67-1.53,1.05
		c-0.44-0.28-0.88-0.55-1.32-0.8C34.14,29.27,35.09,29.19,36.01,29.15L36.01,29.15z M30.46,28.05c-0.41-0.17-0.81-0.34-1.21-0.48
		c1.4-1.92,3.32-3.66,5.83-5.15c-0.83,1.03-1.53,2.14-2.09,3.35c-0.29,0.63-0.55,1.28-0.77,1.95
		C31.64,27.81,31.06,27.92,30.46,28.05L30.46,28.05z M39.84,34.46c-0.38-0.37-0.77-0.73-1.16-1.08c0.54-0.13,1.14-0.25,1.82-0.36
		C40.24,33.5,40.02,33.98,39.84,34.46L39.84,34.46z M36.39,31.52c-0.21-0.16-0.42-0.31-0.64-0.46c0.22-0.13,0.45-0.26,0.69-0.38
		C36.41,30.96,36.4,31.24,36.39,31.52L36.39,31.52z M37.82,30.14c1-0.31,2.18-0.52,3.57-0.6c0.46,0.09,0.91,0.19,1.35,0.3
		c-0.43,0.48-0.81,0.96-1.15,1.44l-0.53,0.08c-1.35,0.21-2.48,0.47-3.41,0.78C37.64,31.45,37.69,30.79,37.82,30.14L37.82,30.14z
		 M48.38,27.84c0.44-0.13,0.89-0.22,1.34-0.29c0,0.36,0.04,0.73,0.14,1.1c-0.53-0.11-1.06-0.21-1.56-0.3
		C48.32,28.18,48.35,28.01,48.38,27.84L48.38,27.84z M50.97,27.46h0.24c0.19,0.51,0.35,1.05,0.49,1.61l-0.3-0.07
		C51.08,28.43,50.95,27.91,50.97,27.46L50.97,27.46z M52.87,27.6l0.21,0.04c-0.08,0.15-0.16,0.3-0.23,0.46L52.8,27.9L52.87,27.6
		L52.87,27.6z M54.34,27.92c2.97,0.84,5.91,2.76,8.54,5.31l-0.01,0c-3.04-1.59-5.68-2.71-6.57-2.95l-2.59-0.69
		c0.15-0.5,0.33-1,0.55-1.49L54.34,27.92L54.34,27.92z M66.02,36.78l0.02,0.02l-0.02,0.01L66.02,36.78L66.02,36.78z M67.09,38.25
		l0.1,0.15c-0.04,0.22-0.07,0.44-0.1,0.66c-0.39-0.13-0.79-0.28-1.18-0.43C66.27,38.48,66.67,38.36,67.09,38.25L67.09,38.25z
		 M66.79,41.3l-0.04,0.4c-0.62,0.11-1.24,0.23-1.86,0.35l0.01-0.04C65.52,41.8,66.15,41.56,66.79,41.3L66.79,41.3z M66.59,43.46
		c-0.05,0.68-0.08,1.36-0.1,2.03c-0.67-0.08-1.33-0.2-1.96-0.34l-0.05-0.07c0.05-0.41,0.1-0.84,0.15-1.26
		c0.51-0.11,1.02-0.2,1.53-0.29L66.59,43.46L66.59,43.46z M66.46,47.04l0,0.34c-0.12-0.13-0.25-0.25-0.37-0.38
		C66.22,47.01,66.34,47.03,66.46,47.04L66.46,47.04z M66.54,49.62L66.56,50c-0.64,0.06-1.3,0.09-1.99,0.09
		c-0.1-0.18-0.21-0.37-0.3-0.56l-0.11-0.22c0.02-0.67,0.06-1.36,0.12-2.08C65.02,48.13,65.77,48.92,66.54,49.62L66.54,49.62z
		 M65.19,40.32l0.02-0.08l0.1,0.04L65.19,40.32L65.19,40.32z M65.43,34.12l-0.03-0.04c0.24-0.13,0.49-0.26,0.74-0.38
		c-0.06,0.16-0.12,0.31-0.18,0.48L65.43,34.12L65.43,34.12z M63.88,32.38c-2.65-2.74-5.65-4.87-8.71-5.92l0.05-0.06
		c2.17,0.13,4.53,0.1,6.96-0.1c0.96,0.38,1.89,0.77,2.81,1.19c0.32,0.24,0.64,0.49,0.97,0.73c0.41,0.49,0.82,1.04,1.25,1.63
		C65.83,30.31,64.73,31.2,63.88,32.38L63.88,32.38z M56.9,24.91c0.16-0.1,0.33-0.2,0.5-0.29c0.31,0.1,0.61,0.19,0.92,0.29
		C57.84,24.92,57.37,24.92,56.9,24.91L56.9,24.91z M53.69,24.72l0.05-0.16c0.46-0.21,0.96-0.4,1.51-0.57l0.11,0.03
		c-0.21,0.26-0.41,0.52-0.6,0.79C54.4,24.79,54.04,24.76,53.69,24.72L53.69,24.72z M69.87,43.08c0.38,0.81,0.73,1.63,1.03,2.45
		c-0.53,0.05-1.05,0.08-1.55,0.09c-0.03-0.86-0.02-1.69,0.02-2.5L69.87,43.08L69.87,43.08z M71.41,47.03
		c0.15,0.49,0.28,0.97,0.4,1.45c-0.63,0.38-1.35,0.69-2.13,0.93c-0.1-0.77-0.18-1.52-0.24-2.25C70.08,47.15,70.74,47.11,71.41,47.03
		L71.41,47.03z M67.17,48.05v-0.03V48.05L67.17,48.05L67.17,48.05z M72.44,47.74c-0.06-0.27-0.13-0.54-0.21-0.81
		c0.52-0.08,1.04-0.17,1.58-0.28c-0.36,0.52-0.8,0.98-1.31,1.37C72.48,47.92,72.46,47.83,72.44,47.74L72.44,47.74z M71.79,45.43
		c-0.26-0.8-0.56-1.61-0.9-2.4c0.88-0.03,1.73-0.03,2.54,0.01c0.09,0.28,0.19,0.56,0.3,0.84c0.14,0.38,0.3,0.75,0.46,1.11
		C73.36,45.18,72.57,45.33,71.79,45.43L71.79,45.43z M68.75,38.8c-0.11-0.18-0.21-0.35-0.32-0.53l0-0.01
		c0.14,0.09,0.28,0.18,0.42,0.28l-0.05,0.24L68.75,38.8L68.75,38.8z M70.38,39.63c0.22,0.17,0.44,0.34,0.66,0.5
		c-0.38-0.08-0.76-0.16-1.14-0.26c0.15-0.07,0.3-0.15,0.44-0.23L70.38,39.63L70.38,39.63z M72.07,49.76
		c0.09,0.49,0.16,0.98,0.2,1.46c-0.55-0.2-1.11-0.45-1.66-0.74C71.14,50.28,71.63,50.04,72.07,49.76L72.07,49.76z M72.37,53.13
		c-0.01,0.53-0.04,1.05-0.11,1.57c-0.19,0.07-0.39,0.13-0.58,0.19l-1.05-0.17l-0.03-0.15l-0.46-2.39
		C70.88,52.56,71.62,52.88,72.37,53.13L72.37,53.13z M68.56,54.38c-0.26-0.16-0.52-0.33-0.77-0.51c-0.15-0.77-0.28-1.55-0.37-2.36
		l-0.02-0.19c0.15-0.02,0.3-0.05,0.45-0.07c0.29,1.09,0.64,2.16,1.04,3.19L68.56,54.38L68.56,54.38z M69.09,58.23
		c-0.18-0.43-0.35-0.87-0.5-1.33c0.46-0.01,0.92-0.04,1.38-0.09l0.01,0.01c0.1,0.43,0.21,0.85,0.32,1.26l-0.09,0.09l-0.77,0.11
		L69.09,58.23L69.09,58.23z M74.25,57.12l0.04-0.01l0.28,0.04c-0.03,0.12-0.06,0.24-0.09,0.36l-0.38,0.06
		C74.15,57.43,74.2,57.28,74.25,57.12L74.25,57.12z M70.69,61.12l-0.01-0.02c0.13-0.18,0.26-0.36,0.38-0.54
		c0.05,0.14,0.1,0.29,0.15,0.43l-0.06,0.11L70.69,61.12L70.69,61.12z M73.03,54.39c0.03-0.35,0.05-0.69,0.05-1.04
		c0.22,0.06,0.44,0.12,0.65,0.17c-0.15,0.26-0.3,0.51-0.45,0.76L73.03,54.39L73.03,54.39z M73.03,51.47
		c-0.05-0.72-0.14-1.44-0.27-2.17c0.8-0.61,1.45-1.34,1.94-2.23c0.09,0.52,0.17,1.03,0.24,1.54l-0.49,2.53
		c-0.04,0.22-0.09,0.44-0.13,0.66C73.88,51.71,73.45,51.6,73.03,51.47L73.03,51.47z M74.97,55.04l-0.03,0.23l-0.15,0.03l0.05-0.18
		L74.97,55.04L74.97,55.04z M69.24,62.69l0.01-0.01c0.33,0.01,0.67,0.01,1,0l-0.1,0.16L69.24,62.69L69.24,62.69z M68.49,32.65
		l-0.11,0.39c-0.13,0.45-0.25,0.91-0.36,1.37c-0.36-0.04-0.72-0.09-1.08-0.13c0.21-0.47,0.43-0.89,0.65-1.26
		C67.88,32.89,68.19,32.77,68.49,32.65L68.49,32.65z M64.21,24.54c-0.66-0.57-1.3-1.02-1.92-1.36l-0.24-0.21
		c2.45-0.07,5.13,0.12,7.83,0.61c-0.34,0.07-0.67,0.14-1.01,0.21C67.33,24.1,65.77,24.35,64.21,24.54L64.21,24.54z M55.08,22.21
		l-0.36-0.1c0.39-0.84,0.81-1.57,1.24-2.2c0.28-0.03,0.57-0.06,0.86-0.09c0.41,0.49,0.84,0.98,1.29,1.47
		c-0.11,0.09-0.21,0.17-0.31,0.26C56.83,21.72,55.92,21.94,55.08,22.21L55.08,22.21z M57.79,17.91c0.09-0.07,0.17-0.13,0.26-0.2
		c0.3,0.03,0.61,0.07,0.91,0.11C58.56,17.85,58.17,17.88,57.79,17.91L57.79,17.91z M71.66,24.73l0.13,0.19
		c-0.65,1.02-1.25,2.19-1.8,3.49c-1.24-0.79-2.57-1.52-3.98-2.2l-0.39-0.3c1.13-0.16,2.27-0.36,3.4-0.58
		C69.91,25.15,70.79,24.95,71.66,24.73L71.66,24.73z M69.87,34.16l0.22,0.4l-0.05,0.13l-0.4-0.06
		C69.71,34.47,69.79,34.31,69.87,34.16L69.87,34.16z M72.1,38.69c0.12,0.28,0.24,0.55,0.35,0.83c-0.23-0.21-0.47-0.41-0.71-0.62
		L72.1,38.69L72.1,38.69z M70.5,37.91l-0.25-0.18c0.22-0.02,0.45-0.04,0.67-0.05L70.5,37.91L70.5,37.91z M75.32,57.38l0.02-0.11
		l0.36,0.05L75.32,57.38L75.32,57.38z M76.18,58.81L76.18,58.81l-0.08,0.01L76.18,58.81L76.18,58.81z M74.93,60.63l-0.04,0.05
		c-0.17,0.03-0.34,0.06-0.51,0.09l-0.06-0.06l0.04-0.09C74.55,60.62,74.74,60.63,74.93,60.63L74.93,60.63z M75.7,55.06
		c0.02-0.18,0.04-0.36,0.06-0.54c0.28-0.2,0.56-0.41,0.84-0.64c0.52,0.01,1.04,0,1.55-0.04l-0.06,0.23
		C77.27,54.5,76.47,54.83,75.7,55.06L75.7,55.06z M77,49.5c0.34,0.4,0.69,0.78,1.04,1.13c-0.47,0.52-0.94,1-1.42,1.42
		c-0.2-0.01-0.41-0.02-0.61-0.03C76.38,51.2,76.71,50.36,77,49.5L77,49.5z M73.79,40.56c-0.14-0.39-0.28-0.79-0.43-1.18
		c-0.06-0.44-0.11-0.89-0.14-1.34c0.21-0.13,0.42-0.25,0.63-0.38c0.67,0.02,1.35,0.06,2.03,0.12c0.04,0.81,0.05,1.65,0.03,2.51
		c-0.7,0.09-1.41,0.19-2.12,0.29L73.79,40.56L73.79,40.56z M73.31,35.16c0.08-0.66,0.21-1.33,0.38-2.01l0.27,0.15
		c0.53,0.53,1.02,1.06,1.47,1.63c-0.23,0.15-0.46,0.31-0.69,0.46C74.26,35.31,73.79,35.23,73.31,35.16L73.31,35.16z M77.44,37.92
		c0.07,0.25,0.13,0.5,0.19,0.75c-0.01,0.47-0.03,0.94-0.05,1.41l-0.39,0.05c0.02-0.76,0.01-1.5-0.02-2.23L77.44,37.92L77.44,37.92z
		 M78.71,45.13c0.03,0.43,0.06,0.85,0.08,1.27c0.05,1.04,0.04,2.08-0.01,3.09c-0.46-0.42-0.91-0.88-1.34-1.37
		c0.16-0.55,0.31-1.11,0.45-1.67c0.09-0.36,0.17-0.73,0.25-1.09C78.33,45.28,78.52,45.21,78.71,45.13L78.71,45.13z M75.52,44.64
		l0.06-0.33l-0.08-0.36c-0.05-0.24-0.13-0.48-0.22-0.73c0.16,0.02,0.31,0.05,0.46,0.08c-0.04,0.44-0.09,0.88-0.15,1.33L75.52,44.64
		L75.52,44.64z M71.38,34.87l-0.06-0.13c0.37-0.79,0.78-1.53,1.24-2.22l0.4,0.22c-0.18,0.77-0.31,1.54-0.39,2.3
		C72.17,34.98,71.78,34.93,71.38,34.87L71.38,34.87z M70.62,33.4l-0.16-0.3c0.28-0.44,0.57-0.87,0.89-1.27l0.11,0.06
		C71.17,32.37,70.88,32.87,70.62,33.4L70.62,33.4z M72.44,25.96c0.29,0.49,0.58,0.98,0.85,1.49c-0.77,0.33-1.54,0.68-2.3,1.05
		C71.44,27.57,71.93,26.72,72.44,25.96L72.44,25.96z M73.44,24.66l0.1-0.11c0.55,0.68,1.04,1.42,1.48,2.21l-0.36,0.14
		C74.29,26.11,73.88,25.37,73.44,24.66L73.44,24.66z M77.92,22.65c0.92,0.19,1.85,0.75,2.79,1.75c-0.96-0.59-1.92-1.16-2.9-1.7
		L77.92,22.65L77.92,22.65z M76.91,25.52c-0.23,0.14-0.46,0.32-0.69,0.53c-0.17-0.33-0.35-0.66-0.54-0.97
		C76.09,25.22,76.5,25.37,76.91,25.52L76.91,25.52z M79.49,46.21c-0.02-0.45-0.05-0.91-0.09-1.37l0.08-0.03
		c0.25,0.22,0.44,0.46,0.59,0.72c0.43,0.75,0.31,1.8-0.56,3.19C79.54,47.89,79.53,47.05,79.49,46.21L79.49,46.21z M79.2,42.94
		c-0.02-0.19-0.05-0.38-0.08-0.58c0.36-0.04,0.72-0.09,1.08-0.14c0.07,0.17,0.14,0.35,0.21,0.52c-0.29,0.14-0.58,0.28-0.87,0.41
		C79.43,43.08,79.32,43.01,79.2,42.94L79.2,42.94z M78.86,39.25c0.11,0.21,0.21,0.43,0.31,0.65l-0.34,0.04
		C78.84,39.71,78.85,39.48,78.86,39.25L78.86,39.25z M80.94,44.13c0.07,0.19,0.14,0.37,0.2,0.56c0.64,1.8,1.2,3.66,1.65,5.48
		c-0.21,0.33-0.46,0.67-0.75,1c-0.2,0.07-0.41,0.14-0.62,0.2c-0.11-0.06-0.22-0.12-0.33-0.18c-0.41-0.23-0.81-0.5-1.22-0.8
		c1.71-2.39,1.89-4.35,1.01-5.87c-0.05-0.1-0.11-0.19-0.17-0.27L80.94,44.13L80.94,44.13z M79.35,35.81
		c0.01,0.12,0.02,0.25,0.03,0.37l-0.56-0.1c-0.01-0.17-0.02-0.34-0.04-0.5C78.97,35.66,79.16,35.73,79.35,35.81L79.35,35.81z
		 M80.44,27.5c0.54,0.36,1.06,0.85,1.58,1.44c-1.43-0.08-2.96-0.06-4.55,0.08c-0.12-0.35-0.24-0.7-0.38-1.03
		C78.12,27.69,79.23,27.52,80.44,27.5L80.44,27.5z M79.34,33.77l0,0.08l-0.05-0.04L79.34,33.77L79.34,33.77z M77.02,32.21
		c-0.22-0.14-0.44-0.28-0.66-0.41c-0.09-0.36-0.18-0.72-0.28-1.08c0.18-0.02,0.36-0.05,0.54-0.07
		C76.77,31.17,76.91,31.69,77.02,32.21L77.02,32.21z M74.11,63.43c0.19-0.19,0.38-0.39,0.56-0.6c0.36,0.3,0.73,0.57,1.12,0.83
		C75.23,63.59,74.67,63.51,74.11,63.43L74.11,63.43z M77.35,58.77l0.07-0.16l0.19-0.03c0.57-0.09,1.6-0.32,2.96-0.67
		c0.5,0.05,0.99,0.1,1.47,0.14C80.51,58.43,78.94,58.66,77.35,58.77L77.35,58.77z M78.46,55.85l0.07-0.25
		c0.4-0.22,0.8-0.45,1.21-0.72c0.79-0.51,1.45-1.04,2.02-1.59c0.61,0.28,1.21,0.47,1.79,0.58c0.09,0.54,0.16,1.06,0.22,1.58
		c-0.91,0.26-1.76,0.5-2.54,0.7C80.34,56.06,79.42,55.96,78.46,55.85L78.46,55.85z M83.22,59.72c-1.11,1.35-2.38,2.52-3.73,3.45
		c-0.2,0.14-0.41,0.27-0.61,0.4c-1.06-0.36-2.04-0.88-2.96-1.53C78.4,61.52,80.86,60.73,83.22,59.72L83.22,59.72z M79.28,51.87
		l0.01-0.12l0.13,0.1L79.28,51.87L79.28,51.87z M64.04,35.62c0.41,0.23,0.83,0.46,1.25,0.7c-0.08,0.28-0.15,0.56-0.22,0.86
		c-0.42,0.19-0.8,0.39-1.15,0.62c-0.28-0.13-0.57-0.26-0.86-0.4c0.03-0.41,0.02-0.8-0.03-1.19c0.08-0.23,0.17-0.45,0.26-0.67
		L64.04,35.62L64.04,35.62z M64.48,39.94c-0.04,0.22-0.08,0.44-0.12,0.67c-0.43,0.14-0.84,0.28-1.26,0.4
		c0.05-0.15,0.11-0.3,0.19-0.43c0.18-0.31,0.41-0.59,0.7-0.84L64.48,39.94L64.48,39.94z M63.88,43.99l-0.02,0.17l-0.09-0.15
		L63.88,43.99L63.88,43.99z M63.62,46.49c-0.04,0.46-0.07,0.91-0.1,1.35c-0.19-0.5-0.36-1.01-0.5-1.52
		C63.21,46.38,63.42,46.43,63.62,46.49L63.62,46.49z M65.48,51.51c0.41-0.03,0.81-0.06,1.2-0.1c0.02,0.19,0.04,0.39,0.06,0.58
		c0.04,0.38,0.1,0.76,0.15,1.14C66.39,52.65,65.91,52.1,65.48,51.51L65.48,51.51z M81.54,42.05l0.07,0.1l-0.02,0.01L81.54,42.05
		L81.54,42.05z M82.39,43.38c0.43,0.76,0.78,1.55,1,2.36c-0.42-0.59-0.84-1.36-1.24-2.23L82.39,43.38L82.39,43.38z M84.28,46.42
		c-0.13-1.22-0.52-2.4-1.05-3.51c0.33-0.19,0.65-0.38,0.98-0.58l0.16,0.1c0.07,0.04,0.15,0.08,0.22,0.12l0.13,0.14
		c0.35,0.4,0.48,0.57,0.58,0.72c0.19,0.27,0.35,0.48,0.96,1.11l0.04,0.1c-0.32,0.93-0.54,1.88-0.65,2.82
		c-0.36-0.12-0.76-0.31-1.2-0.59c-0.05-0.03-0.1-0.07-0.15-0.1C84.3,46.64,84.29,46.53,84.28,46.42L84.28,46.42z M81.22,39.71
		c-0.22-0.28-0.43-0.54-0.65-0.8c-0.04-0.18-0.08-0.35-0.12-0.53l0.39,0.08c0.16,0.44,0.36,0.84,0.59,1.22l0.01,0.01L81.22,39.71
		L81.22,39.71z M80.11,36.32l-0.01-0.05l0.08,0.06L80.11,36.32L80.11,36.32z M86.87,46.66c0.05,0.27,0.1,0.54,0.14,0.81
		c-0.09,0.04-0.19,0.07-0.29,0.09C86.76,47.26,86.81,46.96,86.87,46.66L86.87,46.66z M83.6,47.93c-0.04,0.37-0.13,0.75-0.26,1.13
		c-0.2-0.78-0.41-1.57-0.64-2.35C83,47.2,83.3,47.61,83.6,47.93L83.6,47.93z M83.72,50.48c0.27-0.65,0.44-1.3,0.53-1.97l0.03,0.02
		c0.47,0.29,0.9,0.5,1.29,0.62c0,0.1,0.01,0.2,0.01,0.31C85,49.83,84.38,50.17,83.72,50.48L83.72,50.48z M87.1,50.44
		c-0.02,0.24-0.04,0.47-0.07,0.7l0,0c-0.01,0.06-0.02,0.13-0.03,0.19l-0.02,0.02c-0.07-0.23-0.13-0.47-0.17-0.71
		C86.91,50.58,87,50.52,87.1,50.44L87.1,50.44z M86.01,51.98c-0.58,0.24-1.24,0.31-1.93,0.24c0.61-0.29,1.2-0.6,1.76-0.94
		C85.88,51.52,85.94,51.76,86.01,51.98L86.01,51.98z M82.82,38.88c0.19,0.22,0.38,0.44,0.56,0.66l-0.46,0.03
		c-0.28-0.26-0.53-0.54-0.76-0.84C82.37,38.78,82.6,38.83,82.82,38.88L82.82,38.88z M87.83,50.19c0-0.1,0.01-0.2,0.01-0.3l0.17-0.14
		C87.95,49.9,87.89,50.05,87.83,50.19L87.83,50.19z M87.66,46.84c-0.06-0.38-0.13-0.77-0.21-1.16l0.26,0.24
		c0.05,0.14,0.1,0.27,0.15,0.41c-0.05,0.18-0.11,0.34-0.18,0.48L87.66,46.84L87.66,46.84z M81.1,34.6c0.05-0.42,0.14-0.88,0.27-1.37
		c0.66-0.29,1.39-0.57,2.17-0.77c0.03,0.11,0.06,0.22,0.09,0.34c0.29,0.99,0.77,1.98,1.4,2.96C83.75,35.46,82.44,35.07,81.1,34.6
		L81.1,34.6z M80.03,34.2c0.01-0.12,0.02-0.23,0.03-0.34c0.14-0.07,0.29-0.14,0.45-0.22c-0.04,0.24-0.07,0.48-0.09,0.71L80.03,34.2
		L80.03,34.2z M86.55,53.46c-0.13,0.44-0.27,0.87-0.44,1.3c-0.56,0.17-1.11,0.33-1.64,0.49c-0.05-0.43-0.1-0.86-0.17-1.29
		C85.12,53.99,85.88,53.84,86.55,53.46L86.55,53.46z M81.66,63.24c0.78-0.72,1.52-1.53,2.2-2.41c-0.1,0.75-0.25,1.44-0.47,2.06
		C82.82,63,82.24,63.12,81.66,63.24L81.66,63.24z M87.53,36.2c-0.02-0.78-0.16-1.51-0.39-2.17c-0.25-0.71-0.61-1.33-1.03-1.86
		c0.34,0.02,0.69,0.08,1.02,0.17l0.16,0.05c0.62,0.69,1.2,1.42,1.72,2.19c-0.37,0.31-0.7,0.65-0.99,1.04
		c-0.14,0.19-0.28,0.39-0.41,0.6L87.53,36.2L87.53,36.2z M90.27,42.47c-0.22-0.03-0.46-0.06-0.7-0.1l-0.01-0.11
		C89.83,42.31,90.07,42.38,90.27,42.47L90.27,42.47z M94.56,22.93l0.03,0.17c-0.93,0.06-1.79,0.16-2.59,0.29
		c-1.12-0.18-2.26-0.28-3.4-0.3c0.59-1.35,0.87-2.62,0.78-3.76c-0.01-0.05-0.01-0.11-0.02-0.17C91.23,20.28,92.98,21.54,94.56,22.93
		L94.56,22.93z M96.98,24.81c1.17-0.01,2.42,0.02,3.78,0.1c-0.01,0.14-0.03,0.27-0.04,0.41c-0.68,0.07-1.35,0.17-2.01,0.32
		C98.15,25.34,97.58,25.06,96.98,24.81L96.98,24.81z M102,25.24l0.02-0.24c1.67,0.13,3.47,0.32,5.42,0.59l-0.24,0.06
		C105.45,25.32,103.69,25.18,102,25.24L102,25.24z M118.87,27.42c4.86-0.32,9.93,1.98,12.89,9.36c-1.16,0.48-2.26,0.91-3.31,1.3
		c-0.2-0.03-0.4-0.06-0.6-0.09c-0.05-0.95-0.69-1.91-1.78-2.86c-1.27-1.09-3.25-2.2-5.65-3.18c-0.01-0.15-0.02-0.29-0.04-0.43
		C120.21,29.92,119.73,28.51,118.87,27.42L118.87,27.42z M124.45,37.42c0.1,0.09,0.2,0.19,0.29,0.28l-0.18-0.01
		C124.52,37.61,124.49,37.52,124.45,37.42L124.45,37.42z M126.64,40.6l0.14-0.05l0.07,0.14c0.82,1.72,1.12,3.6,0.9,5.4
		c-0.28,0.02-0.56,0.05-0.85,0.09C127.41,43.85,127.27,42,126.64,40.6L126.64,40.6z M129.01,45.98c0.17-1.98-0.14-4.01-0.95-5.89
		l0.51-0.19c1.54,0.24,3.02,0.6,4.37,1.07c0.26,2.18-0.21,3.77-1.23,4.89C131.31,45.87,130.33,45.89,129.01,45.98L129.01,45.98z
		 M132.26,47.55c1.44-1.4,2.2-3.37,2.02-6.04c1.34,0.6,2.5,1.35,3.38,2.26c0.93,0.96,1.51,2.13,1.61,3.53
		c-2.01,1.11-4.42,1.96-7.19,2.35C132.17,48.99,132.23,48.29,132.26,47.55L132.26,47.55z M131.7,51.51c2.81-0.34,5.29-1.14,7.39-2.2
		c-0.16,0.7-0.42,1.45-0.81,2.24l0,0l-0.01,0.03c-0.84,1.74-2.13,3.09-3.76,4.1c-0.91-0.84-2.04-1.69-3.38-2.54
		C131.35,52.64,131.54,52.1,131.7,51.51L131.7,51.51z M130.33,54.61c1.02,0.64,1.91,1.27,2.64,1.88c-2.17,0.96-4.78,1.46-7.65,1.56
		C127.29,57.54,129.06,56.49,130.33,54.61L130.33,54.61z M120.47,59.7c5.31,0.48,10.17-0.05,13.79-1.97
		c1.45,1.67,1.52,3.14-0.23,4.29c-2.84,1.86-9.15,3.22-19.96,3.81C116.21,64.67,118.38,62.69,120.47,59.7L120.47,59.7z
		 M104.75,66.06c-1.37-0.02-2.88-0.07-4.52-0.14c0.61-0.51,1.2-1.05,1.78-1.61C102.89,65.02,103.8,65.61,104.75,66.06L104.75,66.06z
		 M10.74,49.08c-0.07,1.02,0.19,1.95,0.69,2.79c0.44,0.75,1.07,1.41,1.82,1.97c-0.61-0.03-1.22-0.08-1.82-0.18
		c-4.31-0.69-8-3.44-8.28-10.84c1.1,0.03,3.17,0.12,5.57,0.41c0.04,0.14,0.09,0.27,0.13,0.41c-0.07,0.56-0.04,1.17,0.08,1.8
		C9.18,46.61,9.79,47.87,10.74,49.08L10.74,49.08z M9.93,41.43C9.75,40.09,9.9,39,10.47,38.36l0.03-0.03
		c0.19,0.75,0.45,1.49,0.8,2.24c-0.35,0.13-0.65,0.29-0.92,0.48C10.22,41.17,10.06,41.3,9.93,41.43L9.93,41.43z M51.92,18.69
		c-1.69,0.32-3.23,0.71-4.62,1.16c-0.54-0.38-1.1-0.72-1.69-1.03c-0.14-0.07-0.29-0.15-0.43-0.21c1.04-0.24,2.12-0.45,3.26-0.64
		c1.61-0.27,3.21-0.41,4.79-0.45C52.77,17.89,52.33,18.28,51.92,18.69L51.92,18.69z M57.75,14.66c-0.99-0.15-1.99-0.25-2.99-0.29
		c-0.84-1.57-1.27-3-1.17-4.2c0.04-0.47,0.16-0.9,0.37-1.31c1.74-0.94,3.55-1.77,5.4-2.49c-0.48,0.89-0.69,1.89-0.61,2.99l0.04,0.48
		l0.3,0.22c1.2,0.91,2.56,1.74,4.03,2.5C61.15,13.02,59.34,13.71,57.75,14.66L57.75,14.66z M66.13,12.07
		c-2.29-0.97-4.38-2.09-6.15-3.37c0.06-0.98,0.55-1.85,1.38-2.61c2.69-0.07,6.15,0.24,10.5,1.01c9.63,1.71,15.88,5.22,19.41,9.36
		c-1.06,0.04-2.16,0.04-3.28,0.02c-0.94-0.86-2.39-1.47-4.43-1.76c-0.9-0.35-1.8-0.66-2.72-0.95c-1.35-0.79-3.07-1.36-5.02-1.69
		c-2.59-0.44-5.62-0.49-8.71-0.09C66.78,12.01,66.45,12.04,66.13,12.07L66.13,12.07z M90.69,18.3c0.64-0.01,1.27-0.04,1.89-0.08
		c0.42,0.65,0.78,1.31,1.08,1.98c0.04,0.1,0.09,0.2,0.13,0.3C92.81,19.72,91.77,18.99,90.69,18.3L90.69,18.3z M95.69,22.14
		c-0.23-0.99-0.56-1.97-0.99-2.94c-0.17-0.37-0.35-0.73-0.54-1.09c0.97-0.09,1.91-0.22,2.79-0.37l0.66-0.12l-0.13-0.96
		c-0.26-1.93-0.77-3.67-1.5-5.23c-0.14-0.29-0.28-0.58-0.44-0.85c3.23,3.12,5.31,7.25,5.3,12.53c-1.53-0.09-2.95-0.11-4.25-0.09
		C96.3,22.72,96,22.42,95.69,22.14L95.69,22.14z M78.23,14.62c-0.91,0.06-1.89,0.17-2.93,0.31c-1.83-0.41-3.64-0.89-5.37-1.45
		C72.62,13.53,75.43,13.92,78.23,14.62L78.23,14.62z M55.5,18.13l0.01,0.01l-0.03,0L55.5,18.13L55.5,18.13z M59.36,20.36
		c-0.23-0.24-0.44-0.47-0.66-0.7c0.62-0.04,1.26-0.08,1.92-0.11C60.18,19.82,59.76,20.09,59.36,20.36L59.36,20.36z M63.78,19.55
		c1.15,0.09,2.23,0.28,3.23,0.58c0.63,0.44,1.24,0.92,1.83,1.44c-2.88-0.43-5.68-0.53-8.2-0.36C61.59,20.62,62.63,20.06,63.78,19.55
		L63.78,19.55z M53.19,38.65l0.03-0.19c0.12,0.07,0.24,0.14,0.36,0.22C53.45,38.67,53.32,38.66,53.19,38.65L53.19,38.65z
		 M52.83,40.78c0.04-0.2,0.08-0.4,0.11-0.6c0.19,0.01,0.38,0.02,0.57,0.04L52.83,40.78L52.83,40.78z M54.17,41.46
		c0.27-0.22,0.55-0.44,0.82-0.66l0.01,0.02c0.1,0.3,0.18,0.61,0.25,0.91C54.88,41.66,54.52,41.57,54.17,41.46L54.17,41.46z
		 M67.98,41.2l0.43,0.13l-0.01,0.09l-0.45,0.08L67.98,41.2L67.98,41.2z M57.56,43.44l0.17,0.13l-0.63,0.15l0.02-0.02
		c0.05-0.08,0.1-0.17,0.15-0.26C57.37,43.44,57.47,43.44,57.56,43.44L57.56,43.44z M48.85,38.73c-0.23-0.07-0.47-0.13-0.72-0.18
		c0.01-0.52,0-1.03-0.02-1.55C48.32,37.63,48.57,38.2,48.85,38.73L48.85,38.73z M78.42,32.74c-0.13-0.75-0.29-1.48-0.48-2.2
		c1.1-0.08,2.17-0.11,3.19-0.08C80.27,31.23,79.36,31.99,78.42,32.74L78.42,32.74z M75.96,28.75c0.05,0.13,0.11,0.27,0.16,0.41
		c-0.17,0.02-0.34,0.04-0.51,0.07l-0.05-0.14C75.69,28.98,75.83,28.86,75.96,28.75L75.96,28.75z M85.35,26.03
		c-0.05,0.05-0.11,0.1-0.16,0.15c-0.47-0.04-0.94-0.08-1.43-0.11c0.57-0.07,1.14-0.13,1.71-0.18L85.35,26.03L85.35,26.03z
		 M87.7,26.47c0.48-0.24,1.01-0.45,1.61-0.64c1.12,0.05,2.25,0.17,3.39,0.36c0.72,0.12,1.41,0.25,2.08,0.39
		c-0.02,0.18-0.03,0.36-0.06,0.55c-0.36,0.2-0.71,0.43-1.05,0.67C91.95,27.23,89.97,26.78,87.7,26.47L87.7,26.47z M90.49,31.19
		c-1.53-1.17-3.07-2.3-4.62-3.39c2.45,0.25,4.58,0.64,6.42,1.15C91.61,29.6,91.01,30.34,90.49,31.19L90.49,31.19z M59.55,35.55
		c-0.22-0.13-0.43-0.25-0.65-0.39c0.36,0.03,0.71,0.05,1.07,0.08L59.55,35.55L59.55,35.55z M59.61,33.6
		c-1.14-0.08-2.26-0.14-3.36-0.18c-0.55-0.38-1.1-0.78-1.65-1.2C56.76,32.47,58.41,32.95,59.61,33.6L59.61,33.6z M67.97,45.61
		c-0.06-0.78-0.09-1.56-0.09-2.33l0.4-0.05c-0.03,0.77-0.03,1.57-0.01,2.4C68.17,45.62,68.07,45.61,67.97,45.61L67.97,45.61z
		 M76.91,44.2c0.02-0.21,0.04-0.42,0.06-0.63l0.19,0.05c-0.03,0.17-0.06,0.35-0.09,0.52L76.91,44.2L76.91,44.2z M72.58,57.82
		l0.05-0.06l-0.02,0.06L72.58,57.82L72.58,57.82L72.58,57.82z M76.71,45.86l-0.03,0.12l0.01-0.11L76.71,45.86L76.71,45.86z
		 M68.36,47.17c0.05,0.66,0.12,1.33,0.2,2.02l-0.1-0.08c-0.13-0.65-0.24-1.3-0.33-1.95L68.36,47.17L68.36,47.17z M89.81,38.14
		l0.31,0c0.05,0.1,0.11,0.2,0.17,0.3l0.02,0.03l-0.67-0.15L89.81,38.14L89.81,38.14z M94.79,34.58l-0.25-0.2
		c0.12-0.01,0.24-0.02,0.37-0.03C94.86,34.43,94.83,34.5,94.79,34.58L94.79,34.58z M95.96,32.51c-0.5,0-1,0.03-1.49,0.07
		c0.68-0.43,1.42-0.78,2.23-1.08C96.43,31.83,96.19,32.16,95.96,32.51L95.96,32.51z M95.6,30.11c-0.09,0.04-0.18,0.08-0.27,0.12
		l0.03-0.1l0.04-0.11L95.6,30.11L95.6,30.11z M94.17,29.54c-0.2,0.59-0.43,1.18-0.72,1.75c-0.49,0.34-0.94,0.72-1.36,1.14l-0.6-0.47
		c0.65-1.01,1.44-1.85,2.34-2.54L94.17,29.54L94.17,29.54z M55.42,53.15l0.15-0.1l0.97,0.29c-0.07,0.13-0.14,0.26-0.22,0.39
		c-0.3-0.15-0.59-0.31-0.89-0.48L55.42,53.15L55.42,53.15z M59.22,45.44l-0.02,0L59.22,45.44L59.22,45.44L59.22,45.44z M60.12,47.14
		l0.21,0.05c-0.07,0.08-0.16,0.18-0.28,0.3C60.09,47.38,60.11,47.26,60.12,47.14L60.12,47.14z M51.11,47.25
		c0.06-0.16,0.12-0.33,0.17-0.5c1.03-0.27,2.06-0.54,3.1-0.81C53.33,46.49,52.22,46.94,51.11,47.25L51.11,47.25z M35.44,34.73
		c0.47,0.14,0.93,0.3,1.38,0.48c0.04,0.17,0.09,0.35,0.14,0.52c-0.54,0.24-1.04,0.51-1.5,0.79c-0.24-0.33-0.38-0.65-0.4-0.96
		C35.05,35.27,35.16,35,35.44,34.73L35.44,34.73z M52.47,44.86l-0.65,0.17l0.06-0.22C52.08,44.84,52.28,44.85,52.47,44.86
		L52.47,44.86z M37.69,37.78l0.04,0.09l-0.38,0.01l-0.11,0L37.69,37.78L37.69,37.78z M20.83,47.39l0.03,0.02
		c0.27,0.27,0.51,0.55,0.7,0.84c-0.23-0.13-0.45-0.26-0.67-0.39C20.87,47.71,20.85,47.55,20.83,47.39L20.83,47.39z M24.99,53.48
		l0.02-0.09l0.04,0.09H24.99L24.99,53.48z M37.47,49.42c0.02-0.29,0.03-0.58,0.02-0.86c0.16,0.22,0.33,0.45,0.5,0.67L37.47,49.42
		L37.47,49.42z M41.91,53.8c0.17,0.17,0.33,0.35,0.51,0.53l-0.18,0.3c-0.04-0.08-0.08-0.15-0.11-0.22
		C42.04,54.2,41.96,54,41.91,53.8L41.91,53.8z M44.11,56.63c0.19-0.01,0.37-0.03,0.55-0.04l-0.39,0.15L44.11,56.63L44.11,56.63z
		 M17.07,53.64l-0.24,0.03c-0.17-0.05-0.34-0.1-0.51-0.16c-0.1-0.11-0.19-0.21-0.28-0.32C16.37,53.35,16.71,53.5,17.07,53.64
		L17.07,53.64z M92.3,52.7l-0.04-0.08c0.19-0.13,0.36-0.29,0.51-0.49c0.32-0.41,0.56-0.97,0.65-1.65c0.01-0.08,0.02-0.16,0.03-0.24
		l0.41,0.26c0.04,0.15,0.08,0.3,0.12,0.46C93.54,51.52,92.98,52.1,92.3,52.7L92.3,52.7L92.3,52.7z M90.7,48.36
		c0.52,0.38,1.05,0.75,1.6,1.12c-0.02,0.21-0.05,0.43-0.08,0.64c-0.04,0.27-0.13,0.48-0.25,0.64c-0.07,0.09-0.15,0.16-0.24,0.22
		c-0.15-0.25-0.3-0.5-0.44-0.75C91.07,49.65,90.88,49.02,90.7,48.36L90.7,48.36z M90.61,56.06c0.55-0.38,1.05-0.76,1.52-1.13
		c0.37,0.62,0.75,1.18,1.15,1.67c-0.5,0.02-1.02,0.04-1.56,0.05C91.32,56.47,90.95,56.28,90.61,56.06L90.61,56.06z M96.5,48.87
		c0.16-0.75,0.18-1.48,0.08-2.19c0.77-0.22,1.5-0.42,2.21-0.6C98.13,47.02,97.36,47.95,96.5,48.87L96.5,48.87z M100.56,43.15
		c-2.16-0.14-4.38-0.8-6.45-1.79l0.01-0.14c2.21,0.56,4.39,1.14,6.53,1.74L100.56,43.15L100.56,43.15z M94.04,44.41
		c0.27,0.31,0.5,0.63,0.7,0.96l-0.63,0.2C94.07,45.18,94.05,44.79,94.04,44.41L94.04,44.41z M100.54,45.67
		c1.31-0.29,2.55-0.52,3.72-0.71l0.42,0.21c-0.28,0.36-0.54,0.73-0.78,1.11c-0.35,0.56-0.66,1.15-0.93,1.74
		c-1.25,0.77-2.86,1.57-4.65,2.35c-0.31-0.18-0.62-0.35-0.93-0.54C98.63,48.48,99.69,47.08,100.54,45.67L100.54,45.67z
		 M101.61,40.31c-0.46-0.39-0.91-0.78-1.36-1.17c0.53-0.12,1.07-0.24,1.61-0.38C101.81,39.26,101.73,39.78,101.61,40.31
		L101.61,40.31z M101.78,36.93c-1.12,0.3-2.21,0.56-3.25,0.76c-0.48-0.41-0.97-0.82-1.45-1.22c1.35-0.39,2.83-0.64,4.42-0.71
		C101.63,36.14,101.73,36.53,101.78,36.93L101.78,36.93z M94.97,37.23c0.11-0.05,0.22-0.09,0.34-0.14l0.21,0.17
		c0.06,0.27,0.15,0.54,0.28,0.82c-0.39,0.03-0.76,0.05-1.11,0.06c0.08-0.3,0.17-0.61,0.27-0.9L94.97,37.23L94.97,37.23z M96.3,39.76
		c0.19-0.02,0.38-0.04,0.58-0.06l0.14,0.16C96.78,39.83,96.54,39.79,96.3,39.76L96.3,39.76z M98.76,31.99
		c-0.14,0.23-0.28,0.44-0.43,0.65c-0.28-0.03-0.56-0.06-0.85-0.08c0.26-0.31,0.53-0.62,0.82-0.92
		C98.46,31.76,98.61,31.88,98.76,31.99L98.76,31.99z M96.27,34.32l0.27,0.01c-0.14,0.13-0.27,0.26-0.39,0.4l-0.17,0.11
		C96.07,34.66,96.17,34.49,96.27,34.32L96.27,34.32z M104.56,34.28c-0.49-0.21-1-0.41-1.53-0.59c0.57-0.06,1.18-0.12,1.84-0.16
		l0.1,0.21c0.09,0.2,0.18,0.4,0.26,0.61C105,34.33,104.78,34.3,104.56,34.28L104.56,34.28z M103.92,31.91
		c-1.08,0.13-2.05,0.28-2.91,0.48c-0.17-0.22-0.36-0.44-0.55-0.65c0.17-0.38,0.32-0.77,0.46-1.19c0.59-0.07,1.2-0.11,1.81-0.13
		C103.16,30.89,103.56,31.39,103.92,31.91L103.92,31.91z M102.67,35.74c0.33,0,0.67,0.02,1.01,0.03c0.29,0.11,0.56,0.22,0.83,0.34
		c-0.56,0.18-1.11,0.36-1.66,0.52C102.8,36.33,102.74,36.03,102.67,35.74L102.67,35.74z M102.94,38.45
		c0.62-0.18,1.25-0.37,1.87-0.58l0.18-0.06c0.17,0.71,0.52,1.37,1.06,1.97c-0.05,0.83-0.18,1.69-0.4,2.58
		c-0.1,0.04-0.2,0.08-0.31,0.12c-0.55-0.17-1.1-0.33-1.65-0.5l-0.12-0.04l-0.23-0.13l-0.82-0.71
		C102.77,40.22,102.91,39.32,102.94,38.45L102.94,38.45z M95.76,28.58c0.03-0.13,0.05-0.26,0.07-0.39c0.68-0.33,1.4-0.59,2.15-0.81
		c0.68,0.2,1.33,0.42,1.95,0.65c0.1,0.07,0.19,0.13,0.28,0.19l-0.01,0.06c-0.37,0.24-0.72,0.5-1.06,0.76
		c-0.57,0.11-1.12,0.24-1.66,0.39C96.96,29.14,96.38,28.85,95.76,28.58L95.76,28.58z M96.01,56.41c-0.3,0.03-0.61,0.06-0.93,0.09
		c-0.71-0.62-1.38-1.4-1.99-2.39l0.1-0.09c0.53-0.19,1.05-0.39,1.58-0.58c0.33,0.91,0.69,1.79,1.09,2.65
		C95.9,56.19,95.96,56.3,96.01,56.41L96.01,56.41z M95.85,59.22c0.26,0.02,0.53,0.04,0.8,0.05c-0.45,0.16-0.91,0.32-1.37,0.47
		C95.47,59.57,95.66,59.4,95.85,59.22L95.85,59.22z M91.93,62.36c2.25-0.64,4.38-1.34,6.36-2.09c0.83,1.17,1.74,2.24,2.71,3.15
		c-0.92,0.86-1.88,1.65-2.86,2.39c-3.4-0.18-7.23-0.47-11.3-0.86C88.46,64.41,90.16,63.56,91.93,62.36L91.93,62.36z M97.16,56.07
		c-0.15-0.29-0.29-0.58-0.44-0.88c-0.33-0.7-0.64-1.43-0.91-2.17c0.49-0.19,0.97-0.38,1.44-0.58c0.72,0.38,1.45,0.75,2.19,1.11
		C98.74,54.39,97.98,55.22,97.16,56.07L97.16,56.07z M100.91,51.73c-0.31-0.16-0.62-0.32-0.94-0.48c0.72-0.34,1.4-0.68,2.03-1.03
		C101.65,50.72,101.29,51.22,100.91,51.73L100.91,51.73z M106.78,34.57c0.2-0.38,0.44-0.77,0.73-1.16c0.23-0.01,0.46-0.01,0.7-0.02
		c0.28,0.33,0.55,0.66,0.79,1c-0.32,0.14-0.65,0.28-0.99,0.42C107.6,34.73,107.19,34.64,106.78,34.57L106.78,34.57z M106.46,31.69
		c-0.41,0.02-0.8,0.05-1.19,0.08c-0.27-0.48-0.58-0.94-0.9-1.38l0.35,0.01C105.35,30.82,105.93,31.25,106.46,31.69L106.46,31.69z
		 M107.1,37.57c0.78,0.59,1.33,1.22,1.56,1.85c0.02,0.06,0.04,0.13,0.05,0.19c-0.63-0.26-1.14-0.57-1.55-0.92
		C107.15,38.31,107.13,37.93,107.1,37.57L107.1,37.57z M107.06,40.66c0.23,0.16,0.49,0.3,0.76,0.44l-0.09,0.07
		c-0.27,0.21-0.55,0.39-0.83,0.57C106.97,41.37,107.02,41.01,107.06,40.66L107.06,40.66z M110.48,40.14
		c-0.17-0.04-0.34-0.08-0.5-0.12c0.03-0.47-0.05-0.96-0.23-1.45c-0.25-0.69-0.75-1.37-1.46-2.01l0.17-0.07
		c0.67,0.16,1.35,0.35,2.05,0.57c0.36,0.84,0.62,1.71,0.81,2.61C111.04,39.82,110.76,39.98,110.48,40.14L110.48,40.14z M104.3,48.78
		c0.99-0.72,1.72-1.44,2.11-2.15l1.15,1.01l0.67,0.58c0.01,0.01,0.04,0.21,0.08,0.61c0.06,0.56,0,1.31-0.38,2.13
		c-0.41,0.89-1.17,1.84-2.52,2.72c-0.74-0.27-1.5-0.58-2.28-0.92c-0.03-0.83,0.06-1.63,0.25-2.42
		C103.71,49.82,104.02,49.3,104.3,48.78L104.3,48.78z M108.76,52.39c0.07-0.14,0.14-0.27,0.2-0.41c0.58-1.27,0.67-2.49,0.58-3.41
		c-0.06-0.62-0.23-1.14-0.4-1.49c0.44,0.17,0.89,0.33,1.33,0.48l0.46,0.15c-0.38,1.46-0.92,2.92-1.58,4.36l-0.33,0.18
		C108.91,52.3,108.83,52.35,108.76,52.39L108.76,52.39z M111.53,44.48l-0.13-0.04c-0.13-0.13-0.25-0.25-0.34-0.37l0.51-0.06
		C111.55,44.16,111.54,44.32,111.53,44.48L111.53,44.48z M111.61,42.17l-0.53,0.06c0.04-0.05,0.09-0.1,0.14-0.15
		c0.13,0.02,0.26,0.04,0.39,0.05L111.61,42.17L111.61,42.17z M100.64,54.13c0.55,0.25,1.1,0.5,1.66,0.74
		c0.02,0.09,0.04,0.17,0.07,0.26c-0.96,0.33-2.06,0.62-3.31,0.86C99.61,55.35,100.14,54.74,100.64,54.13L100.64,54.13z
		 M100.21,57.56c0.58-0.13,1.12-0.27,1.63-0.42c-0.18,0.09-0.37,0.18-0.56,0.26C100.92,57.47,100.56,57.52,100.21,57.56
		L100.21,57.56z M101.98,62.49c-0.88-0.78-1.71-1.68-2.48-2.68c1.46,0,2.96-0.4,4.48-1.12c0.17,0.26,0.35,0.53,0.54,0.79l0.08,0.11
		C103.77,60.6,102.89,61.57,101.98,62.49L101.98,62.49z M105.43,60.6c4.15,4.51,9.3,2.81,13.47-1l0.07-0.06l0.06,0.01
		c-4.14,5.39-8.48,6.77-12.36,5.64c-1.28-0.37-2.5-1-3.65-1.86C103.86,62.46,104.66,61.54,105.43,60.6L105.43,60.6z M105.4,58.57
		c-0.06-0.07-0.12-0.15-0.17-0.23c-0.05-0.07-0.11-0.15-0.16-0.22l0.02-0.01c0.28-0.08,0.56-0.16,0.84-0.25
		C105.76,58.1,105.58,58.34,105.4,58.57L105.4,58.57z M112.62,44.17c0.01-0.1,0.01-0.2,0.02-0.3c1.2-0.16,2.43-0.33,3.72-0.56
		c-0.38,0.75-0.8,1.49-1.24,2.23l-0.1,0.16c-0.81-0.29-1.63-0.59-2.46-0.88C112.58,44.61,112.6,44.39,112.62,44.17L112.62,44.17z
		 M111.97,48.04c0.42,0.13,0.84,0.26,1.27,0.38c-0.66,0.92-1.35,1.81-2.07,2.65l-0.2,0.12C111.37,50.14,111.7,49.09,111.97,48.04
		L111.97,48.04z M117.4,40.39c-1.05,0.08-2.03,0.12-2.92,0.11c0.73-0.2,1.54-0.38,2.41-0.53C117.08,40.12,117.25,40.25,117.4,40.39
		L117.4,40.39z M109.6,54.94l-0.25-0.06c0.81-0.76,1.59-1.58,2.35-2.45c0.34-0.2,0.69-0.41,1.05-0.65c-0.17,0.66-0.3,1.31-0.36,1.94
		l-0.08,0.04C111.39,54.19,110.48,54.58,109.6,54.94L109.6,54.94z M107.87,57.21l0.35-0.13c2.13,0.69,4.28,1.27,6.4,1.72
		c0.85,0.18,1.69,0.34,2.53,0.47c-3.52,2.72-7.58,3.66-10.9,0.27C106.82,58.79,107.36,58.01,107.87,57.21L107.87,57.21z
		 M112.4,55.43l-0.14-0.02l0.13-0.06L112.4,55.43L112.4,55.43z M101.73,27.16c0.02-0.12,0.04-0.24,0.06-0.37
		c0.46-0.02,0.92-0.03,1.39-0.02c-0.4,0.16-0.79,0.33-1.17,0.51L101.73,27.16L101.73,27.16z M103.76,28.17
		c0.71-0.26,1.46-0.49,2.26-0.67l1.19-0.28c1.27,0.24,2.54,0.58,3.78,1c-0.43,0.27-0.85,0.55-1.25,0.85
		c-1.72-0.25-3.47-0.41-5.16-0.43C104.31,28.48,104.04,28.32,103.76,28.17L103.76,28.17z M107.23,30.56
		c0.23,0.02,0.47,0.05,0.7,0.07c-0.1,0.1-0.19,0.2-0.29,0.3C107.51,30.81,107.37,30.68,107.23,30.56L107.23,30.56z M109.84,33.4
		c0.42,0,0.85,0.01,1.28,0.01c-0.31,0.16-0.63,0.31-0.96,0.47C110.06,33.72,109.95,33.55,109.84,33.4L109.84,33.4z M110.99,35.31
		c1.11-0.58,2.14-1.19,3.03-1.82c1.98,0.11,3.73,0.44,5.28,0.95c-0.1,0.89-0.29,1.83-0.55,2.79c-0.88,0.1-1.79,0.27-2.7,0.52
		c-0.85-0.5-1.86-0.98-3.05-1.43c-0.62-0.24-1.23-0.45-1.83-0.65C111.12,35.56,111.06,35.43,110.99,35.31L110.99,35.31z
		 M115.61,30.26l-0.04,0.04c-1.11-0.31-2.25-0.58-3.42-0.81c0.3-0.17,0.6-0.33,0.91-0.48C113.94,29.39,114.79,29.81,115.61,30.26
		L115.61,30.26z M111.9,37.53c0.28,0.1,0.56,0.2,0.84,0.31c0.48,0.19,0.94,0.37,1.36,0.56c-0.59,0.22-1.18,0.48-1.77,0.76
		C112.22,38.61,112.08,38.06,111.9,37.53L111.9,37.53z M93.57,38.12c-0.09-0.01-0.18-0.02-0.26-0.02c0.1-0.06,0.21-0.12,0.31-0.18
		L93.57,38.12L93.57,38.12z M117.19,46.51l-0.37-0.14c0.55-0.69,1.12-1.29,1.68-1.77C118.21,45.25,117.75,45.89,117.19,46.51
		L117.19,46.51z M119.85,43.98c0.02-0.1,0.03-0.2,0.04-0.3c0.08-0.04,0.15-0.07,0.23-0.09c1.72-0.64,2.98-0.79,3.85-0.56
		c-0.31,1.32-0.98,2.67-2.08,4.02c-0.65,0.16-1.28,0.35-1.9,0.56l-0.03,0.01c-0.51-0.21-1.03-0.42-1.56-0.62
		C119.13,46.03,119.66,45.02,119.85,43.98L119.85,43.98z M116.29,49.19l0.28,0.06c-0.37,0.26-0.7,0.53-1.01,0.83
		c-0.8,0.8-1.36,1.74-1.56,2.86c-0.15,0.08-0.3,0.15-0.46,0.23c0.14-0.77,0.39-1.58,0.72-2.39
		C114.95,50.29,115.64,49.76,116.29,49.19L116.29,49.19z M117.79,43.04l0.6-0.13c-0.31,0.24-0.62,0.5-0.93,0.8
		C117.57,43.49,117.68,43.26,117.79,43.04L117.79,43.04z M118.96,40.23c0.07-0.18,0.13-0.37,0.19-0.55
		c0.91-0.09,1.85-0.15,2.81-0.17c0.65-0.02,1.3-0.02,1.95-0.01l0.04,0.02c-0.61,0.15-1.32,0.27-2.15,0.38l-1.89,0.24
		c-0.32,0.04-0.63,0.08-0.94,0.11L118.96,40.23L118.96,40.23z M123.96,41.47l0.21-0.07l0,0.11C124.1,41.5,124.03,41.48,123.96,41.47
		L123.96,41.47z M115.55,52.09c0.17-0.25,0.37-0.49,0.6-0.72c0.59-0.59,1.36-1.08,2.24-1.51l0.38,0.13
		C117.83,50.7,116.76,51.4,115.55,52.09L115.55,52.09z M125.23,41.07l0.26-0.09c0.35,0.58,0.56,1.3,0.62,2.15
		c-0.13-0.27-0.29-0.52-0.49-0.74c-0.12-0.14-0.26-0.27-0.41-0.38C125.23,41.69,125.24,41.38,125.23,41.07L125.23,41.07z
		 M124.95,43.6l0.02,0.03c0.5,0.57,0.63,1.54,0.45,2.74c-0.58,0.08-1.17,0.18-1.77,0.29C124.28,45.64,124.7,44.62,124.95,43.6
		L124.95,43.6z M120.33,50.48c1.15,0.33,2.27,0.59,3.36,0.78l-0.03,0.07c-0.91-0.28-1.53-0.02-1.97,0.63
		c-0.39,0.59-0.58,1.47-0.64,2.52c-1.63,0.67-3.54,1.07-5.72,1.11c-0.15-0.39-0.25-0.76-0.3-1.11c-0.02-0.14-0.03-0.27-0.04-0.4
		C117.13,52.91,118.9,51.71,120.33,50.48L120.33,50.48z M124.95,48.28c-0.53,0.03-1.08,0.03-1.64,0.02
		c0.58-0.12,1.17-0.22,1.74-0.31C125.02,48.09,124.98,48.19,124.95,48.28L124.95,48.28z M113.97,54.6c0.01,0.07,0.02,0.14,0.03,0.21
		c0.04,0.24,0.09,0.49,0.16,0.74c-0.24-0.07-0.46-0.14-0.68-0.2c-0.02-0.15-0.04-0.31-0.05-0.47
		C113.6,54.78,113.78,54.69,113.97,54.6L113.97,54.6z M123.28,37.61c-1-0.34-2.16-0.48-3.39-0.45c0.19-0.8,0.34-1.58,0.43-2.34
		c0.64,0.26,1.24,0.56,1.79,0.87C122.57,36.32,122.96,36.96,123.28,37.61L123.28,37.61z M114.91,28.24c0.29-0.1,0.59-0.2,0.89-0.28
		c0.32,0.31,0.46,0.64,0.44,0.96l0,0.03C115.81,28.71,115.36,28.47,114.91,28.24L114.91,28.24z M117.38,29.65
		c0.05-0.18,0.08-0.37,0.09-0.54c0.04-0.51-0.05-1-0.28-1.47c1.08,0.79,1.73,1.93,2.02,3.3C118.63,30.49,118.02,30.06,117.38,29.65
		L117.38,29.65z M112.14,26.41c0.57,0.14,1.08,0.28,1.52,0.43c-0.32,0.13-0.62,0.27-0.93,0.42c-0.66-0.27-1.34-0.51-2.02-0.73
		C111.21,26.47,111.69,26.43,112.14,26.41L112.14,26.41z M124.87,51.66l0.19,0.09c-0.13,0.14-0.27,0.27-0.41,0.41l-0.01-0.03
		L124.87,51.66L124.87,51.66z M124.53,54.39c0.73-0.58,1.38-1.24,1.94-1.94c0.98,0.5,1.89,0.99,2.74,1.49
		c-1.29,1.65-3.1,2.47-5.05,2.78c-0.51,0.08-1.02,0.13-1.54,0.15c0.63-0.48,1.17-1.04,1.55-1.68
		C124.31,54.93,124.44,54.67,124.53,54.39L124.53,54.39z M130.1,52.5c-0.44-0.27-0.91-0.53-1.39-0.8c0.6,0,1.18-0.03,1.76-0.07
		C130.35,51.93,130.23,52.22,130.1,52.5L130.1,52.5z M130.95,49.78c-0.94,0.09-1.92,0.12-2.93,0.1l0.09-0.21
		c1.14-0.27,2.16-0.67,3.02-1.23C131.09,48.91,131.03,49.35,130.95,49.78L130.95,49.78z M129.07,47.54
		c-0.1,0.04-0.21,0.07-0.31,0.11l0.02-0.09L129.07,47.54L129.07,47.54z M127.42,47.68c-0.03,0.11-0.07,0.22-0.11,0.34
		c-0.32,0.06-0.65,0.11-0.98,0.15c0.04-0.13,0.08-0.25,0.13-0.38C126.79,47.75,127.11,47.71,127.42,47.68L127.42,47.68z
		 M122.19,53.77c0.06-0.31,0.14-0.55,0.25-0.72c0.09-0.14,0.22-0.23,0.38-0.26C122.62,53.11,122.41,53.44,122.19,53.77L122.19,53.77
		z M65.46,4.44c4.44-1.1,8.92-1.54,13.05-1.25c0.17,0.02,0.35,0.04,0.52,0.07c3.53,0.51,7.12,1.52,10.34,3.08
		c2.43,1.49,4.36,3.51,5.58,6.11c0.51,1.08,0.9,2.28,1.14,3.57c-0.96,0.14-1.97,0.26-3.03,0.33c-3.5-4.93-10.25-9.15-21.06-11.08
		C69.58,4.86,67.4,4.58,65.46,4.44L65.46,4.44z M93.76,35.83c-0.62,0.19-1.28,0.33-1.97,0.41c0.35-0.39,0.68-0.78,1-1.19
		C93.12,35.31,93.44,35.57,93.76,35.83L93.76,35.83z M95.38,43.79c0.77,0.29,1.54,0.53,2.32,0.72c-0.53,0.14-1.07,0.29-1.63,0.45
		C95.89,44.56,95.66,44.17,95.38,43.79L95.38,43.79z M110.01,30.91c1.24,0.2,2.48,0.45,3.68,0.74l-0.13,0
		c-1.57-0.05-3.02-0.07-4.36-0.05C109.45,31.37,109.73,31.14,110.01,30.91L110.01,30.91z M132.36,38.42
		c0.06,0.19,0.12,0.38,0.17,0.57c-0.3-0.1-0.61-0.18-0.92-0.27C131.86,38.63,132.11,38.52,132.36,38.42L132.36,38.42z M133.99,39.51
		c-0.11-0.51-0.25-1.03-0.41-1.58c5.78-2.26,9.39-2.19,11.16-0.94c0.96,0.68,1.28,1.76,1.04,2.97c-0.3,1.47-1.3,3.15-2.93,4.72
		c-0.68,0.65-1.46,1.28-2.33,1.86c-0.23-1.66-0.99-3.07-2.14-4.26C137.25,41.12,135.74,40.21,133.99,39.51L133.99,39.51z
		 M95.29,48.48c-0.27-0.3-0.4-0.75-0.5-1.27l0.57-0.18C95.43,47.5,95.41,47.98,95.29,48.48L95.29,48.48z M38.21,25.84
		c-0.33,0.48-0.61,0.98-0.85,1.49c-1.17-0.02-2.39,0.04-3.66,0.19c0.1-0.24,0.2-0.48,0.31-0.72c0.95-2.03,2.36-3.8,4.1-5.29
		c0.92,0.52,1.77,1.09,2.53,1.73C39.65,24.04,38.84,24.91,38.21,25.84L38.21,25.84z M18.97,32.89c-0.15,0.13-0.29,0.26-0.43,0.38
		c-0.06-0.16-0.12-0.32-0.17-0.48C18.57,32.82,18.77,32.85,18.97,32.89L18.97,32.89z M10.2,34.78c-0.04,0.56-0.05,1.12-0.01,1.68
		c-0.18,0.13-0.34,0.28-0.49,0.45c-0.23,0.26-0.42,0.55-0.57,0.87C9.22,36.53,9.6,35.54,10.2,34.78z"/>
</g>
<g>
	<path class="st1" d="M53.08,46.27c0.01,0.03,0.02,0.05,0.03,0.07c0.02,0,0.06,0,0.12,0.02C53.18,46.08,53.35,46.12,53.08,46.27z"/>
	<path class="st1" d="M53.1,46.34C52.98,46.36,53.18,46.57,53.1,46.34L53.1,46.34z"/>
	<path class="st1" d="M53.82,45.66l-0.08,0.1C53.75,45.83,53.77,45.86,53.82,45.66z"/>
	<path class="st1" d="M53.65,45.85c0.01-0.21-0.02-0.01-0.1,0.14l0.18-0.22C53.71,45.65,53.71,45.42,53.65,45.85z"/>
	<path class="st1" d="M53.46,45.88c-0.09-0.16-0.21-0.25-0.04-0.5C53.11,45.48,53.15,45.98,53.46,45.88z"/>
	<path class="st1" d="M54.67,46.55c0.01-0.15-0.05-0.4-0.07-0.6l-0.12,0.17C54.54,46.23,54.66,46.33,54.67,46.55z"/>
	<path class="st1" d="M54.6,45.95l0.18-0.26C54.62,45.66,54.59,45.78,54.6,45.95z"/>
	<polygon class="st1" points="53.85,44.87 53.56,45.42 53.9,44.86 	"/>
	<polygon class="st1" points="55.34,46.57 55.24,46.92 55.42,46.39 	"/>
	<path class="st1" d="M56.14,46.65c-0.1,0.13-0.21,0.09-0.34-0.15c-0.07,0.29,0.1,0.49,0.02,0.67
		C55.94,47.13,56.04,46.88,56.14,46.65z"/>
	<path class="st1" d="M56.14,46.65c0.05-0.07,0.11-0.16,0.16-0.33C56.25,46.4,56.19,46.52,56.14,46.65z"/>
	<path class="st1" d="M55.22,46.2l-0.07-0.43c-0.02,0-0.05,0-0.07-0.01C55.09,45.86,55.12,46.1,55.22,46.2z"/>
	<path class="st1" d="M55.15,45.76l0,0.01c0.08,0.01,0.13,0.02,0.15,0.02C55.28,45.79,55.24,45.78,55.15,45.76z"/>
	<path class="st1" d="M55.06,45.76c0.01,0,0.01,0,0.02,0C55.07,45.72,55.07,45.71,55.06,45.76z"/>
	<path class="st1" d="M54.42,44.4c-0.07,0.29,0.05,0.5-0.11,0.86C54.42,45.02,54.63,44.76,54.42,44.4z"/>
	<path class="st1" d="M54.79,45.13c0,0.11,0.04,0.28-0.01,0.4l0.2-0.3L54.79,45.13z"/>
	<polygon class="st1" points="55.07,45.09 54.98,45.23 55.05,45.27 	"/>
	<path class="st1" d="M55.97,45.93c0.08-0.19,0.17-0.2,0.27-0.23c-0.11-0.08-0.22-0.13-0.33-0.13C55.9,45.7,55.86,45.94,55.97,45.93
		z"/>
	<path class="st1" d="M55.57,45.81c0.01-0.01,0.01-0.01,0.02-0.02C55.58,45.75,55.57,45.74,55.57,45.81z"/>
	<path class="st1" d="M57.23,45.7c-0.01-0.02-0.01-0.05-0.02-0.08c0,0.02,0,0.05,0,0.07L57.23,45.7z"/>
	<path class="st1" d="M55.9,45.49c-0.08-0.08-0.13,0.02-0.18,0.15c0.06-0.04,0.13-0.07,0.19-0.07
		C55.93,45.51,55.93,45.47,55.9,45.49z"/>
	<path class="st1" d="M56.57,46.13c-0.04-0.09-0.09-0.17-0.14-0.23C56.47,46.03,56.56,46.24,56.57,46.13z"/>
	<path class="st1" d="M55.62,45.9c0,0.01-0.01,0.01-0.01,0.02C55.63,46.01,55.63,45.97,55.62,45.9z"/>
	<path class="st1" d="M55.62,45.9c0.04-0.06,0.07-0.17,0.11-0.26c-0.05,0.03-0.1,0.08-0.13,0.14C55.6,45.81,55.61,45.86,55.62,45.9z
		"/>
	<path class="st1" d="M57.48,44.54c-0.1-0.49,0.31-0.72,0.26-1.44l-0.22,0.26c0-0.11,0.07-0.29,0.01-0.4
		c-0.01,0.4-0.23,0.76-0.41,0.34c-0.18,0.3-0.06,1.6,0.1,2.33c0.01-0.17,0.01-0.33,0.19-0.57c-0.06-0.22-0.41-0.51-0.26-0.86
		C57.4,43.99,57.36,44.33,57.48,44.54z"/>
	<path class="st1" d="M56.86,45.58l-0.08,0.05c0.09,0.07,0.15,0.23,0.27,0.54c0.13-0.19,0.15-0.34,0.16-0.47l-0.38-0.06L56.86,45.58
		z"/>
	<path class="st1" d="M56.44,45.63c0.06-0.43,0.24-0.61,0.13-1.08c-0.23,0.03-0.16,0.36-0.29,0.55c0.36-0.11-0.1,0.24,0.16,0.48
		c-0.07,0.07-0.14,0.1-0.2,0.11c0.07,0.05,0.13,0.12,0.19,0.2c0-0.01-0.01-0.02-0.01-0.03l0,0c0,0,0,0,0-0.01
		c-0.02-0.05-0.02-0.09,0-0.06c0-0.01,0.01-0.01,0.01-0.01C56.43,45.74,56.44,45.68,56.44,45.63c0.1,0.09,0.02,0.11-0.02,0.16
		c0,0.02,0,0.04,0,0.06c0,0,0,0,0,0.01l0.36-0.24C56.71,45.57,56.61,45.58,56.44,45.63z"/>
	<path class="st1" d="M54.62,43.47c0.01,0.04,0.01,0.07,0.01,0.1C54.65,43.52,54.66,43.48,54.62,43.47z"/>
	<path class="st1" d="M54.61,44.09l0.03-0.06c0.15,0.15,0.33,0.69,0.31,0.74c-0.04-0.39-0.08-0.66-0.18-1.04
		c-0.03,0.06-0.05,0.23-0.13,0.19c-0.07-0.13,0-0.21,0-0.35C54.58,43.68,54.45,43.88,54.61,44.09z"/>
	<path class="st1" d="M55.62,44.57l0.3-0.21l-0.15-0.37l0.01,0.22C55.6,44.12,55.64,44.4,55.62,44.57z"/>
	<polygon class="st1" points="57.4,45.72 57.27,45.91 57.23,46.37 	"/>
	<polygon class="st1" points="57.66,45.86 57.65,46.25 57.75,46.01 	"/>
	<path class="st1" d="M79.23,40.92l-0.02,0.19C79.25,41.01,79.26,40.93,79.23,40.92z"/>
	<path class="st1" d="M67.33,45.81c0.13,0.37,0.27,0.94,0.26,0.5l-0.04-0.43C67.46,45.95,67.39,45.91,67.33,45.81z"/>
	<path class="st1" d="M73.95,43.22c-0.01-0.04-0.02-0.09-0.04-0.13c-0.03,0.15-0.06,0.29-0.09,0.42
		C73.86,43.42,73.91,43.32,73.95,43.22z"/>
	<path class="st1" d="M83.4,40.49l0.1-0.44C83.34,40.05,83.41,40.27,83.4,40.49z"/>
	<path class="st1" d="M61.69,45.7c0.11,0.17,0.2,0.24,0.28,0.26C61.84,45.71,61.73,45.34,61.69,45.7z"/>
	<path class="st1" d="M79.7,45.29c-0.06,0.07-0.09,0.16-0.08,0.26C79.68,45.47,79.7,45.38,79.7,45.29z"/>
	<path class="st1" d="M62.3,45.96c-0.02-0.04-0.04-0.07-0.06-0.1c-0.08,0.07-0.16,0.13-0.26,0.1C62.07,46.14,62.19,46.26,62.3,45.96
		z"/>
	<path class="st1" d="M96.16,40.85c0.01,0.02,0.02,0.03,0.03,0.05C96.19,40.84,96.18,40.84,96.16,40.85z"/>
	<path class="st1" d="M99.88,45.22c-0.04,0.03-0.1,0.03-0.15,0.03C99.75,45.29,99.8,45.28,99.88,45.22z"/>
	<path class="st1" d="M59.25,46.05C59.16,46.07,59.23,46.09,59.25,46.05L59.25,46.05z"/>
	<path class="st1" d="M58.87,44.12c-0.01,0.1-0.02,0.17-0.03,0.21C58.86,44.28,58.87,44.22,58.87,44.12z"/>
	<path class="st1" d="M63.13,43.26C63.13,43.26,63.13,43.26,63.13,43.26C63.11,43.17,63.12,43.19,63.13,43.26z"/>
	<path class="st1" d="M59.14,46.05c-0.03-0.02-0.05-0.03-0.07-0.04C59.05,46.08,59.06,46.13,59.14,46.05z"/>
	<path class="st1" d="M59.23,45.98c0.02,0.03,0.02,0.05,0.02,0.07c0.02-0.01,0.06-0.02,0.12-0.02
		C59.32,46.03,59.27,46.01,59.23,45.98z"/>
	<path class="st1" d="M89.32,42.01c0.01,0.01,0.01,0.02,0.02,0.04C89.42,41.87,89.39,41.9,89.32,42.01z"/>
	<path class="st1" d="M69.5,41.31c0,0-0.01,0.02-0.01,0.02c0,0,0.01,0.01,0.01,0.02L69.5,41.31z"/>
	<path class="st1" d="M69.8,40.98c-0.13,0.54-0.2,0.47-0.3,0.36l0.1,1.25L69.8,40.98z"/>
	<path class="st1" d="M100.34,42.07c-0.22,0.85-0.58-1.26-0.95-0.04c-0.08-0.2,0.07-0.31,0.03-0.53c-0.09,0.41-0.2,0.5-0.41,0.31
		l0.02-0.1c-0.58,0.1-0.83-0.3-1.48-0.57l0.05,0.47c-0.14-0.06-0.17-0.21-0.23-0.33c-0.16,0.72,0.39,0.04,0.25,0.83
		c-0.19-0.96-0.98-0.01-1.11-1.11c-0.21-0.01,0.06,0.55-0.15,0.54l-0.06-0.3l-0.05,0.38c-0.14-0.06-0.21-0.43-0.22-0.68
		c0.03,0.03,0.1-0.07,0.13-0.09c-0.18-0.35-0.51,0.12-0.58,0.01l0.21,0.18c-0.59,0.28-1.3-0.11-1.87,0.49l0.04,0.22
		c-0.43,0.41-0.35-0.25-0.82-0.05l0.02-0.05c-0.1,0.22-0.22,0.34-0.35,0.31c0.12-0.26-0.23-0.51-0.07-0.8
		c-0.47,0.44-0.23,0.35-0.54,1.18l-0.07-0.37c-0.11,0.34-0.11,0.51-0.35,0.61c0.19-0.32-0.15-0.57,0.07-0.99
		c-0.5-0.81-0.74,0.82-0.97-0.37c-0.23,1.03,0.43,0.57,0.3,0.79c0.11,0.34-0.19,0.77-0.34,0.66c-0.16-0.02-0.27-1.31-0.67-1.29
		c0.04,0,0.04-0.07,0.08-0.07c-0.15-0.26-0.29,0.35-0.48-0.07c-0.1,0.62-0.24-0.04-0.27,0.76l0.37-0.18
		c-0.21,0.21-0.4,1.13-0.75,0.68c0.03-0.16,0.13-0.37,0.2-0.49c-0.1-0.23-0.19,0.15-0.3-0.08c0.03-0.79,0.45-0.17,0.67-0.78
		c-0.11-0.33-0.42,0.57-0.31-0.28c-0.16,1.09-0.39-0.14-0.66,0.7l0.02-0.47c-0.04,0.07-0.13,0.3-0.21,0.29l0.14-0.62
		c-0.22,0.52-0.42-0.46-0.63-0.17c0.44-0.01,0.1,0.57,0.28,0.92c-0.54,0.64-0.31-1.24-0.92-1.01c0.08-0.07,0.31,0.29,0.18,0.5
		c-0.12-0.1-0.27-0.28-0.34-0.53c-0.4,0.1,0.06,0.49-0.11,0.78c-0.14-0.58-0.2,0.24-0.37,0.42l0-0.48
		c-0.46-0.31-0.12,1.01-0.53,0.63l0.17-0.67l-0.22,0.17l0.04-0.55c-0.23,0.41-0.31,0.3-0.54,0.15c0.05,0.34-0.03,0.88-0.23,0.89
		c-0.14-0.29,0.08-0.46-0.21-0.39c0.06-0.3,0.14-0.68,0.26-0.24c0.01-0.16,0.06-0.3,0.08-0.46c-0.15-0.33-0.38-0.08-0.48-0.07
		c0.04,0.02,0.09,0.04,0.11,0.11l-0.42,0.67c-0.07-0.18-0.01-0.33,0.04-0.47c-0.08,0.05-0.14,0.27-0.27,0.32
		c0.03-0.39,0.02-0.8,0.2-0.98l-0.4,0.44c-0.03-0.17-0.2-0.47-0.15-0.61c-0.22-0.23-0.54,0.76-0.83,0.46
		c-0.02,0.08-0.05,0.15-0.11,0.21c-0.27-0.09-0.52-0.57-0.84-0.03l-0.18-0.7c-0.26,0.16,0.25,0.89-0.17,1.15
		c-0.3,0.22-0.11-0.6-0.22-0.8c-0.15,0.35-0.41,1.08-0.69,0.5c0.09-0.13,0.16-0.03,0.25-0.08l-0.21-0.39
		c0.25-0.64,0.44-0.42,0.24-0.97c-0.03,1.36-0.82,0.14-0.85,1.5l-0.14-0.29c0.04,0.01,0.05-0.07,0.09-0.05
		c-0.27-0.65-0.2,0.98-0.55,0.79c-0.12-0.1-0.21-0.3-0.12-0.46l-0.27,0.34c-0.08-0.03-0.06-0.26,0.02-0.24l-0.41,0.11l0-0.04
		c-0.06,0.21-0.19,0.54-0.26,0.68c-0.1-0.19,0.05-0.14,0.03-0.31l-0.23,0.33c-0.09-0.35,0.1-0.69,0.25-0.64
		c-0.21-1.36-0.19,0.34-0.65-0.45l0.22-0.17c-0.14-0.77-0.31-0.49-0.55-0.97c0.06,0.25,0.49,1.21,0.24,1.55
		c-0.07-0.1-0.16-0.15-0.3,0.12c0-0.48-0.13-0.36-0.29-0.34l0.01-0.64c-0.18,0.18-0.16,0.51-0.27,0.8c-0.2-0.06-0.24-0.56-0.28-0.98
		c-0.31-0.1,0.22,0.79-0.16,0.91c-0.26-0.24-0.45,0.02-0.76,0.4c-0.18-0.22,0.03-0.39-0.03-0.57l-0.16,0.51
		c-0.04-0.01-0.03-0.17-0.02-0.25c-0.14,0.2-0.01,0.64-0.23,0.81c-0.06,0.7-0.44-1.03-0.71-0.23c-0.07-0.18,0.03-0.39,0.01-0.64
		c-0.37,0.52-0.31,0.38-0.61,1.09l-0.26-0.42c0.19,0.48-0.05,1.05-0.26,1.52c0.07,0.23,0.12,0.43,0.16,0.53l-0.34,0.34
		c-0.04-0.1-0.01-0.32,0.05-0.59c-0.02,0.05-0.04,0.1-0.06,0.15c-0.12-0.24-0.06-0.61,0.03-0.96c0.04,0.13,0.08,0.26,0.12,0.39
		c0.08-0.39,0.16-0.82,0.14-1.19c-0.02,0.07-0.06,0.14-0.11,0.17c0.02-0.11,0.04-0.2,0.03-0.26c-0.01-0.07-0.05,0.07-0.1,0.24
		l-0.08-0.71l-0.02,0.28l-0.44-0.45c-0.31,0.72-0.59,1.77-1.09,2.07c0.12-0.52,0.03-0.85,0.03-1.47c0.14,0.66,0.39-0.28,0.64-0.15
		c-0.13-0.07-0.1-0.36-0.07-0.47l-0.46,0.6c0.01-0.51-0.1-0.38-0.22-0.59c0.09,1-0.34,0.67-0.53,0.97c-0.01-0.34,0.03-0.68,0.26-0.6
		c-0.25-0.75-0.33,1.18-0.57,0.54c0.06-0.01,0.09,0.04,0.11-0.13c-0.13,0.3-0.45,0.06-0.37-0.23l0.06-0.01
		c-0.37-0.12-1.13-0.01-1.18,0.84c0-0.11,0.05-1.03,0.07-1.2l-0.66,2.86c0.06-0.73-0.17-2.47,0.14-2.88
		c-0.09-0.1-0.2-0.23-0.38,0.03c0.06,0.1,0.15,1.06,0.07,1.12c-0.23-0.81-0.16-0.43-0.44-1.13c0.09,0.16-0.01,1.3-0.15,1.27
		c0.02-0.17-0.01-1.13,0.04-1.25l-0.35,1.12c0.09-0.2,0.02-0.95-0.06-1.27c0.04,0.22-0.31-0.02-0.4,0.09l0.15,0.26
		c-0.4-0.17-0.4,1.58-0.79,1.52c0.05-0.23,0.12-1.43-0.08-1.57c-0.09,0.58-0.41,2.77-0.76,3.21l-0.07-0.33l-0.27,0.38
		c0.17-0.87,0.64-2.69,0.9-3.4c-0.15-0.26-0.04-0.39-0.27-0.36c-0.08-0.31,0.12-0.47,0.19-0.49l-0.52-0.2
		c0.02,0.67-0.4,0.67-0.38,1.23l0.57-0.7c0.02,0.67-0.33,1.91-0.7,1.79c-0.09-0.27,0.07-1.2,0.06-1.42
		c-0.05,0.23-0.35,0.44-0.39,0.28l0.16-0.36c-0.21-0.25-0.34,0.89-0.58,0.25c-0.09-0.04-0.26-0.87-0.27-0.47
		c0.14,0.77,0.17,3.14,0.07,3.72c-0.03-0.05-0.45-0.73-0.55-1.11c-0.14-0.6,0.21-1.43,0.09-1.95c-0.01,0.18-0.08,0.41-0.12,0.48
		c-0.09-0.16,0.04-0.57-0.16-0.49c-0.03,0.68-0.4-0.06-0.09,0.58c-0.19,0.19-0.2-0.14-0.43-0.11c0.07,0.44-0.2,1.5-0.39,1.69
		c0.01-0.17-0.03-0.4-0.05-0.5c-0.39-0.06-0.6-0.37-0.97-0.38c-0.03-0.17-0.21-0.36-0.13-0.66c-0.05,0.12-0.1,0.35-0.21,0.37
		c-0.22-0.59,0.25-0.09,0.08-0.8c-0.01,0.4-0.29,0.55-0.45,0.79c0.05,0.61,0.37,0.12,0.53-0.13c0,0.84-0.28,1.73-0.66,2.12
		c-0.3,0.21-0.13-0.55-0.18-0.43c-0.57-0.15-0.49,1.47-0.96,0.86c-0.19-0.54-0.01-1.07-0.05-1.46c0.25-0.2,0.38,0.34,0.55,0.32
		l-0.21-0.25c0.08-0.18,0.24-0.31,0.33-0.16c-0.16-0.48-0.96-0.09-1.4-0.54c-0.08,0.18-0.21,0.37-0.15,0.58l0.14-0.08
		c0.13,0.43-0.26,0.6-0.09,0.8c-0.19,0.3-0.4,0.78-0.66,0.54l-0.05-0.61c0.01,0.18,0.17,0.37,0.25,0.18
		c-0.11,0.27-0.4-0.83-0.52-0.03l0.18,0.42c-0.19,0.31-0.42,0.96-0.65,0.77c0.11,0.61,0.05-0.07,0.22,0.64
		c-0.14-0.88,0.6,0.04,0.36-0.89c0.17,0.82,0.29,0.35,0.52,1.05c-0.01-0.2-0.08-0.39,0.12-0.29c0.01-0.06,0.03-0.13,0.04-0.18
		c0.01,0.01,0.01,0.01,0.01,0.02c0-0.01-0.01-0.02-0.01-0.02c0.01-0.03,0.01-0.04,0-0.01c-0.05-0.09-0.08-0.19-0.1-0.31
		c0.1-0.46,0.41-0.45,0.51-0.69c0.12,0.1-0.05,0.23,0.02,0.45l0.16-0.36c0.02,0.45,0.31,0.75,0.04,1.01l0.25,0.02
		c0.15,0.25,0.34,0.35,0.47,0.16c0.12,0.1,0.29-0.5,0.19-0.15l0.39-0.28l0,0.11c0.38,0.06,0.78-0.74,1.22,0.07
		c0.13-0.11,0.26-0.25,0.47-0.12l0.04,0.39c0.16-0.14,0.49,0.39,0.56-0.02c0.18,1.05,0.8,0.23,1.09,0.41l0.01-0.51
		c0.2,0.03,0.39-0.12,0.64-0.32l-0.02-0.45c0.21-0.37,0.55,0.32,0.88,0.27c-0.02,0.17-0.11,0.13-0.17,0.02
		c0.4,1.01,0.85-0.74,1.21,0c0.09-0.16,0.16-0.11,0.22,0.01c-0.01,0-0.02,0.01-0.02,0.02c0.01,0.01,0.02,0.01,0.04,0.01
		c0.04,0.08,0.08,0.17,0.13,0.24c-0.04-0.11-0.07-0.2-0.11-0.24c0.07-0.01,0.18-0.07,0.28-0.18l0.04,0.48
		c0.01-0.01,0.02-0.01,0.02-0.01c0.1,0.18,0.08-0.23,0.03-0.59c0.05-0.08,0.1-0.17,0.14-0.29c0.08,0.78,0.27-0.26,0.39,0.57
		c0.07-0.4,0.52-0.3,0.58-1.15c0,0.11,0.03,0.16-0.02,0.17c0.12,0.1,0.23,0.19,0.34-0.05l0.05,0.61l0.25-0.82
		c0.15,0.37,0.22,0.59,0.06,1.06c0.37-0.72,0.3-0.27,0.61-0.99l-0.02,0.4c0.11-0.02,0.29-0.55,0.36-0.22
		c0.25,0.75,1.24,0.1,1.89,0.8c-0.13-1.17,0.3,0.52,0.33-0.38c0.04,0.28,0.13,0.43,0.02,0.67c0.33-0.27,0.5,0.44,0.72-0.32
		c0.04,0.28-0.07,0.4-0.04,0.57c0.03-0.06,0.1-0.24,0.14-0.08c0.03,0.16-0.05,0.23-0.1,0.35c0.34-0.05,0.37-0.9,0.4-1.69
		c0.17,0.38,0.26,0.32,0.38-0.2c0.06,0.26,0.16,0.53-0.05,0.63c0.12,0.04,0.72,0.38,0.73-0.26c0.04,0.16,0.16,0.05,0.2-0.03
		c0.26,0.04,0.29,0.1,0.55,0.04l-0.07-0.1c0.1-0.77,0.22-0.17,0.42-0.26l-0.01,0.08c0.48,0.56,0.21-0.27,0.68,0.37l-0.03-0.48
		c0.04-1.03,0.42,0.61,0.69,0.21l-0.1-0.27c0.15-0.35,0.42,1.4,0.57,1.53c0.03,0.09-0.05,0.14-0.1,0.21
		c0.39,0.61,0.05-0.63,0.34-0.77c0.05,0.34-0.07,0.86,0.13,0.92c0.1,0.27,0.57-1.1,0.84-0.45c-0.06-0.26-0.12-0.52,0.02-0.72
		c0.21-0.09,0.56,0.99,0.75,0.16c0.03,0.07,0.04,0.14,0.04,0.2c0.16-0.21,0.52-0.35,0.62-0.8c0.15,1.66,0.99-0.81,0.99,0.72
		l0.49-0.08l-0.01,0.16c0.31,0.1,0.43-0.27,0.54-0.63c0.07,0.1,0.02,0.25,0.01,0.33c0.46,0.31,0.5,0.24,0.89-0.52l0.04,0.5
		c0.1-0.29,0.66,0.78,1.11,0.2c0,0.06-0.01,0.15-0.05,0.22c0.51-0.58,1.21,1.38,1.4-0.43l0.33-0.44c-0.43-0.14,0.06-0.78-0.11-1.08
		c0.17-0.11,0.44,0.54,0.23,0.64l-0.03-0.09c-0.08,0.94,0.54,0.33,0.53,0.97c0.85-0.05,1.68,0.47,2.48,0.51l-0.09-0.73l0.28,0.04
		c0.07,0.17,0.1,0.57-0.1,0.54c0.1,0.41,0.33-0.35,0.34-0.51c0.39,0.3-0.15,0.85-0.03,0.87l0.16-0.05l-0.04-0.09
		c0.13-0.3,0.14-0.62,0.38-0.58c0.15,0.15,0.08,0.45,0.14,0.48c0,0.05,0.02,0.08,0.09,0.02l0.35,0.06l-0.14-0.58
		c0.16-0.28,0.33,0.03,0.17-0.62c0.24,1.01,1.31,0.36,1.45,0.68c0.22-0.42,0.43-0.41,0.7-0.36c-0.07-0.12-0.11-0.77,0.12-0.69
		c-0.08,1.34,0.42,0.58,0.61,1.55c-0.17-0.64,0.65-0.16,0.39-1.07c0.19,0.11,0.01,0.5,0.16,0.82c0.46-0.52,1,0.34,1.57,0.16
		c0.01-0.18-0.09-0.44,0.04-0.71l0.3,0.88c0.11-0.09,0.1-1.02,0.31-0.4c-0.03-0.15-0.07-0.37,0-0.43c1.1,0.86,2.25-0.7,3.37,0.91
		c-0.15-0.34-0.05-0.37,0.07-0.39c-0.08-0.08,0-0.43-0.01-0.67l0.47,0.66c0.09-0.66,0.5-0.04,0.55-0.68l-0.15,0.11
		C100.78,43.94,100.31,43.02,100.34,42.07z M60.16,45.65c0-0.01,0-0.01,0.01-0.02C60.3,45.82,60.26,45.74,60.16,45.65z M73.49,42.3
		c0.04-0.16,0.12-0.08,0.19,0.1C73.63,42.44,73.56,42.42,73.49,42.3z M78.27,41.13c0.06-0.1,0.18-0.41,0.23-0.13
		C78.43,41.56,78.38,41.29,78.27,41.13z M90.21,45.25l-0.05-0.13C90.28,44.99,90.25,45.12,90.21,45.25z"/>
	<path class="st1" d="M74.03,41.64c0.02,0.08,0.02,0.17,0.03,0.26C74.08,41.82,74.08,41.72,74.03,41.64z"/>
	<path class="st1" d="M83.38,40.57C83.38,40.57,83.38,40.57,83.38,40.57c0.01-0.02,0.02-0.05,0.02-0.08L83.38,40.57z"/>
	<path class="st1" d="M64.37,41.6c0-0.12-0.02-0.22-0.11-0.25C64.31,41.42,64.35,41.51,64.37,41.6z"/>
	<path class="st1" d="M58.56,46.14c-0.09,0.02-0.12-0.08-0.16-0.16c0,0.11,0.04,0.28-0.02,0.28L58.56,46.14z"/>
	<path class="st1" d="M56.81,43.28c-0.03,0.06-0.06,0.01-0.08,0.07l0.01,0.22C56.85,43.55,56.93,43.37,56.81,43.28z"/>
	<path class="st1" d="M58.22,44.66c-0.01-0.41-0.13-0.27-0.25-0.19c0.01,0,0.02,0,0.02,0C57.95,45.04,58.08,44.85,58.22,44.66z"/>
	<path class="st1" d="M57.93,44.48c-0.04,0.02-0.08,0.03-0.12,0.01C57.8,44.72,57.86,44.54,57.93,44.48z"/>
	<path class="st1" d="M59.52,45.71c-0.06-0.1-0.04,0.52-0.07,0.35C59.38,46.58,59.85,45.44,59.52,45.71z"/>
	<polygon class="st1" points="58.11,43.32 58.16,43.83 58.23,43.42 	"/>
	<path class="st1" d="M59.11,43.69l-0.2-0.14c0,0.08-0.02,0.13-0.05,0.17C58.98,43.74,59.12,43.84,59.11,43.69z"/>
	<path class="st1" d="M58.69,43.81c0.04-0.01,0.11-0.02,0.16-0.08C58.79,43.71,58.73,43.73,58.69,43.81z"/>
	<polygon class="st1" points="58.59,43.32 58.39,43.17 58.45,43.28 	"/>
	<path class="st1" d="M61.51,43.65c0.02-0.17-0.04-0.28-0.12-0.21c-0.05,0.12-0.13,0.19-0.1,0.35L61.51,43.65z"/>
	<path class="st1" d="M60.73,42.18l-0.1,0.24c0.06,0.1,0.06,0.22,0.1,0.38L60.73,42.18z"/>
	<path class="st1" d="M61.27,42.27c0.02-0.17,0.32-0.49,0.04-0.46C61.28,41.99,61.06,42.13,61.27,42.27z"/>
	<polygon class="st1" points="64.6,43.06 64.54,43.07 64.55,44.08 	"/>
	<path class="st1" d="M67.23,40.94c-0.06,0.24,0.19,0.25,0.13,0.46c0.16-0.25,0.24-0.11,0.17-0.78
		C67.27,40.38,67.47,41.25,67.23,40.94z"/>
	<polygon class="st1" points="100.5,45.77 100.66,45.98 100.55,45.64 	"/>
	<path class="st1" d="M100.82,45.02l0.04,0.65l0.1-0.59C100.92,45.11,100.85,45.16,100.82,45.02z"/>
	<path class="st1" d="M77.94,40.19l-0.13-0.36l-0.01,0.16C77.82,40.15,77.86,40.16,77.94,40.19z"/>
	<polygon class="st1" points="80.09,40.31 80.05,40.3 80.12,40.89 	"/>
	<path class="st1" d="M82.01,39.56c-0.08-0.02-0.17,0.11-0.25,0.08C81.93,39.54,82.03,40.3,82.01,39.56z"/>
	<path class="st1" d="M70.43,58.44l0.18-0.11c0.1-0.14,0.25-0.5,0.15-0.47L70.43,58.44z"/>
	<path class="st1" d="M70.48,57.4c0.04-0.14,0.14-0.29,0.2-0.39c-0.22,0.25-0.56,0.71-0.77,1.29c0.36-0.54,0.26-0.29,0.67-0.93
		c0.1-0.04,0.03,0.25-0.09,0.46c0.1-0.14,0.04,0.18,0.26-0.17C70.89,57.15,70.79,57.08,70.48,57.4z"/>
	<path class="st1" d="M60.58,50.44c-0.05,0.03-0.09,0.05-0.11,0.11C60.51,50.54,60.55,50.49,60.58,50.44z"/>
	<path class="st1" d="M60.08,49.54c0.01,0.03,0.01,0.04,0.02,0.06C60.12,49.54,60.11,49.5,60.08,49.54z"/>
	<path class="st1" d="M64.43,52.62c-0.1,0.19-0.01,0.17,0.02,0.24L64.43,52.62z"/>
	<path class="st1" d="M69.07,58c0.04-0.02,0.08-0.06,0.14-0.13c-0.03,0.02-0.06,0.03-0.09,0.04C69.1,57.94,69.08,57.97,69.07,58z"/>
	<path class="st1" d="M66.51,53.26l0.03,0.02c0.04-0.07,0.09-0.14,0.15-0.23L66.51,53.26z"/>
	<path class="st1" d="M67.56,54.52c0.12-0.2,0.19-0.29,0.24-0.31c0.05-0.1,0.1-0.21,0.16-0.37C67.93,53.8,67.68,54.3,67.56,54.52z"
		/>
	<path class="st1" d="M64.14,30.14c0.02,0.03,0.04,0.05,0.06,0.08C64.17,30.17,64.15,30.14,64.14,30.14z"/>
	<polygon class="st1" points="67.19,31.44 67.19,31.48 67.36,31.75 	"/>
	<path class="st1" d="M59.1,48.27c0,0.01,0,0.01,0,0.01C59.17,48.24,59.14,48.24,59.1,48.27z"/>
	<path class="st1" d="M49.04,44.89c0.4-0.01,1.57,0,2.24-0.06C50.28,44.9,50.17,44.8,49.04,44.89z"/>
	<path class="st1" d="M55.9,47.38c0.02-0.05,0.05-0.12,0.08-0.24C55.94,47.23,55.92,47.31,55.9,47.38z"/>
	<path class="st1" d="M54.48,47.3c-0.01-0.05,0.01-0.13-0.06-0.08c-0.01,0.03-0.01,0.05-0.02,0.07
		C54.45,47.23,54.49,47.2,54.48,47.3z"/>
	<path class="st1" d="M53.28,46.73c-0.01,0.04-0.02,0.07-0.03,0.11l0.05-0.01L53.28,46.73z"/>
	<path class="st1" d="M60.94,32.63c0.11,0.11,0.23,0.25,0.33,0.38C61.03,32.7,61.12,32.47,60.94,32.63z"/>
	<path class="st1" d="M69.06,57.92c0.02,0,0.03,0,0.05-0.01c0.04-0.07,0.07-0.14,0.09-0.19C69.13,57.84,69.09,57.9,69.06,57.92z"/>
	<path class="st1" d="M51.75,50.91c0.05-0.19,0.07-0.32,0.06-0.4c-0.03,0.04-0.05,0.06-0.08,0.12L51.75,50.91z"/>
	<path class="st1" d="M70.2,57.43l0-0.22c0.06,0-0.17,0.43-0.25,0.5c-0.3,0.32-0.09-0.25-0.01-0.43l0.14-0.07
		c0.41-1.07-0.43,0-0.57-0.15l0.43-0.71l-0.48,0.54c0.06-0.21,0.23-0.64,0.37-0.72c0.05-0.43-0.24,0.21-0.15-0.25
		c0.02-0.07,0.04-0.1,0.07-0.13l-0.23,0.16c0.1-0.15,0.23-0.54,0.26-0.39c-0.01-0.54-0.63,0.39-0.43-0.22l0.04-0.04
		c-0.43,0.11-0.29,0.54-0.83,1.07l0.5-1.43l-0.29,0.54c-0.02-0.03-0.06-0.11,0.05-0.32c-0.3,0.32-0.1,0.25-0.33,0.57
		c0.09-0.57-0.53,0.03-0.14-0.86c-0.26,0.39-0.01,0.39-0.31,0.61c0.41-0.97-0.26,0.07-0.19-0.43c0.28-0.47,0.28-0.15,0.35-0.65
		c-0.48,0.78-0.18-0.31-0.38-0.21c-0.32,0.65-0.39,0.15-0.69,0.27c0.12-0.21-0.2-0.54-0.26-0.86l0.06-0.11
		c-0.35,0.64-0.48,0.43-0.68,0.5c0.2-0.39,0.3-0.54,0.46-0.68l-0.13-0.06c-0.13,0.2-0.23,0.29-0.35,0.33l0.27-0.48
		c-0.18-0.06-0.63,0.42-0.69-0.02c-0.23,0.46-0.44,1.37-0.82,1.57c0.11-0.25,0.31-0.68,0.42-0.76c-0.04,0.02-0.17,0.17-0.16,0.05
		l0.3-0.37c-0.01-0.23-0.22,0.33-0.28,0.25c0.17-0.36,0.06-0.28,0.21-0.56c0.04-0.02,0,0.18,0.1,0.06
		c-0.06-0.11-0.07-0.37,0.03-0.66c-0.09,0.21-0.23,0.48-0.32,0.49c-0.18-0.06,0.15-0.46,0.14-0.69c-0.16,0.23-0.15-0.08-0.41,0.45
		c-0.05-0.03,0.06-0.28,0.11-0.43c-0.2,0.19-0.45-0.13-0.62,0.48l0,0.05c-0.01,0.01-0.02,0.01-0.03,0.02
		c-0.55,0.39-0.46-0.59-0.86-0.5l0.09-0.18c-0.27,0.12-0.44-0.06-0.75,0.26c-0.05-0.03,0.04-0.38,0.16-0.58
		c-0.2,0.07-0.31,0.26-0.36-0.12c0.28-0.25,0.09-0.3,0.25-0.16c-0.1-0.24,0-0.54-0.42-0.14c0.28-0.43,0.15-0.64,0-0.54l-0.04,0.38
		c-0.12,0.02-0.18-0.06-0.25-0.13l0.33-0.58c0-0.9-1.23,0.94-0.91-0.41c-0.29,0.37,0.05,0.39-0.27,0.84
		c-0.12-0.16,0.12-1.1,0.08-1.13c-0.06-0.44-0.63,0.78-0.75,0.44c-0.07,0.23-0.32,0.81-0.59,0.93c-0.12-0.16,0.23-0.99,0.42-1.11
		c0.05,0,0.03,0.08,0,0.15c0.09-0.05,0.2-0.11,0.25-0.37l-0.12,0.2c0.03-0.26-0.21-0.34,0.01-0.67c-0.22,0.15-0.22,0.33-0.18,0.48
		c-0.06-0.41-0.32-0.16-0.43-0.48c-0.02,0.13-0.11,0.4-0.15,0.38c-0.18-0.42-0.33,0.34-0.59,0.33c0.04-0.38,0.42-0.76,0.07-0.59
		c-0.02-0.28,0.25-0.58,0.38-0.73c-0.39,0.32-0.23-0.45-0.31-0.57l0.19-0.12c-0.11,0.07-0.16,0.05-0.21,0.02l-0.15,0.46
		c-0.02-0.1-0.07-0.13,0.01-0.31c-0.2,0.25-0.3,0.73-0.6,1.06c0.02-0.26-0.36,0.12-0.11-0.46c0.16,0.31,0.25-0.58,0.5-0.57
		c-0.07,0.05-0.12,0.02-0.15-0.08c0.02-0.07,0.07-0.11,0.1-0.14c0-0.62-0.42,0.59-0.66,0.46c0.19-0.3,0.23-0.63,0.16-0.59
		c0.1,0.05-0.21,0.56-0.42,0.76c-0.04-0.33-0.26,0.1-0.33,0.03l0.04,0.16c-0.19,0.3-0.25,0.22-0.41,0.27
		c0.11-0.25,0.18-0.12,0.2-0.25c-0.39,0.5,0-0.72-0.35-0.42c0.02-0.26,0.28-0.6,0.28-0.79c-0.39,0.32,0-0.54-0.37-0.29
		c-0.15,0.46-0.09,0.36-0.43,0.71l0.48-0.14l-0.52,0.52c0.1,0.05,0.34-0.17,0.37-0.07c-0.27,0.3-0.21,0.2-0.33,0.58
		c0.17-0.71-0.45,0.24-0.4-0.27l0.52-1.06c-0.01-0.59-0.69,0.34-0.87-0.08l0.01,0.23c-0.25,0.4-0.22-0.03-0.4,0.09
		c0.18-0.35,0.18-0.51,0.24-0.75c-0.12,0.27-0.22-0.13-0.59,0.56l0.09-0.54c-0.16-0.31-0.77,0.88-0.96,0.64
		c0.26-0.35,0.27-0.66,0.57-0.86c-0.08-0.04-0.12-0.14-0.24,0.1c0.06-0.25-0.45,0.37-0.37,0c-0.11,0.14-0.3,0.51-0.38,0.43
		c0.02-0.08,0.09-0.18,0.09-0.18c-0.09,0.18-0.26,0.17-0.37,0.6c0.29-1.23-0.73-0.25-0.49-1.31c-0.23,0.03-0.5,0.05-0.67,0
		c0.06-0.1,0.09-0.18,0.1-0.13c-0.06-0.44-0.63,0.96-0.7,0.47c0.15-0.64,0.28-0.25,0.31-0.5c0.27-0.59,0.16-0.59,0.03-0.53
		c-0.09,0.08-0.25,0.2-0.09-0.14l0.06-0.06c0.2-0.4-0.41,0.35-0.49,0.21c0,0,0.08-0.09,0.13-0.15c-0.51,0.49-0.9,0.55-1.22,0.59
		c0.49-0.33,0.29-0.16,0.71-0.53c-0.12,0.02-0.68,0.59-0.96,0.62c0.2-0.21,0.33-0.42,0.85-0.78l0.12,0.02
		c0.62-0.49-0.13-0.03-0.06-0.14l0.32-0.19c-0.2,0.02-1.06,0.47-1.19,0.35l-0.25,0.14c-0.01,0-0.02,0.01-0.03,0.01
		c0.01-0.06,0.01-0.13,0.01-0.2l0.59-0.25c-0.12,0.03-0.35,0.08-0.6,0.13c0-0.01,0-0.03,0-0.01c0,0-0.01,0.01-0.01,0.01
		c-0.35,0.07-0.76,0.12-0.97,0.11c0.92-0.2,1.45-0.28,1.96-0.43c-0.04-0.02-0.22-0.04-0.8,0.11c0.13-0.02,0.43-0.09,0.28-0.03
		c-0.91,0.25-1.5,0.3-1.65,0.22c1.17-0.28,1.25-0.36,1.26-0.41c0.01-0.06-0.08-0.11,0.93-0.28c-0.9,0.07-0.27-0.1-0.05-0.15
		c0.09-0.02,0.14-0.03,0.13-0.05c-2.36,0.16-0.03-0.02-2.37,0.09c-0.08-0.03-0.02-0.05,0.11-0.06c0.01,0,0.02,0,0.03,0l-0.01,0
		c0.51-0.05,1-0.09,1.48-0.12c0.66-0.01,0.45,0.02,0.95,0.01l-0.01,0.02l-0.02,0.17l0.08-0.19c0.09-0.01,0.23-0.01,0.39-0.01
		l-0.05,0.32c0.18-0.07,0.4-0.27,0.57-0.32c0.02,0,0.04,0,0.06,0c0.04,0,0.09,0,0.12,0.04c0-0.02-0.01-0.03-0.01-0.04
		c0.13,0,0.27,0,0.39,0c-0.15,0-0.28,0-0.39-0.01c-0.08-0.41-0.23-0.21-0.39-0.1c-0.06-0.01-0.13-0.03-0.24-0.06l-0.01-0.03
		c0.03,0.01,0.07,0.02,0.09,0.02c0.07,0,0-0.03-0.1-0.08l0-0.01l0,0.01c-0.08-0.04-0.19-0.08-0.27-0.14
		c-0.2-0.11-0.27-0.24,0.1-0.13l0.32,0.14c-0.08-0.05-0.57-0.29-0.23-0.16c0.13,0.06,0.31,0.15,0.33,0.16
		c-0.11-0.05-0.48-0.31-0.28-0.23l0.31,0.2c0.42,0.19-0.62-0.57-0.58-0.84c0.67,0.61,0.93,0.78,1.03,0.88l0.08,0.1
		c0.04,0-0.02,0.01,0.03-0.11c0.05-0.11,0.07-0.26,0.08-0.41c0.02-0.31,0.01-0.65,0.09-0.92c0.75,0.64,0.97-0.17,1.62,0.04
		c-0.14-0.1-0.38-0.57-0.36-0.69c0.18,0.09-0.11-0.66,0.33,0.02l-0.04,0.01c0.51,0.61,0.56,0.33,0.7,0.25l-0.57-0.89
		c1.21,1.04,0.59-1.08,1.55-0.07c-0.06-0.28,0.04-0.34-0.02-0.62l0.31,0.47c0.31-0.04,0.47-0.06,0.68-0.36l0.17,0.37
		c0.18-0.08-0.71-1.49-0.58-1.62l0.52,0.67c0.27-0.2,0.98,0.22,0.82-0.6c0.06,0.11,0.19,0.31,0.17,0.37
		c0.15-0.07,0.83,0.13,0.14-0.8c0.43,0.62,0.33-0.14,0.3-0.51l0.29,0.48c-0.27-0.68-0.38-0.84-0.31-1.13
		c0.08,0.03,0.29,0.34,0.15,0.26c0.31,0.15-0.19-0.51,0.15-0.38l0.14,0.34c0.17-0.06,0.05-0.21-0.1-0.61
		c-0.03-0.25,0.36-0.07,0.66,0.33c-0.15-0.27-0.3-0.66-0.14-0.6c0.12,0.15,0.15,0.27,0.17,0.33c0.46,0.15,0-0.78,0.47-0.44
		c0.11,0.15,0.17,0.22,0.21,0.26c-0.2,0.12-0.37,0.2-0.38,0.16c0.29,0.43,0.49,0.39,0.77,1.07c-0.09-0.41-0.35-1.25-0.06-1.15
		c0.04,0.04,0.07,0.07,0.12,0.13l0.02,0.06c0.06,0.02,0.07-0.04,0.05-0.13c0.1,0.04,0.16,0.07,0.21,0.04
		c0.26,0.34,0.31,0.07,0.4,0.03c-0.32-0.46-0.17-0.46-0.52-0.78c0.03,0.02,0.02,0.07-0.02,0.12c0,0.02-0.01,0.04,0,0.07l-0.02-0.04
		c-0.04,0.05-0.1,0.1-0.17,0.16c-0.1-0.28-0.17-0.52,0.09-0.32c-0.16-0.33-0.32-0.66-0.4-0.83c0.55,0.58,0.99,0.79,1.29,1.17
		c0.06-0.42,0.44-0.55,0-1.53c-0.01-0.16,0.25,0.2,0.37,0.32c0.02,0.11-0.04,0.13,0.03,0.27c-0.02-0.32,0.34-0.36-0.04-0.99
		c0.36,0.16,0.28,0.63,0.45,0.37l0.09,0.21c1.12,0.67-0.3-2.07,1.05-1.16c-0.09-0.05-0.13-0.08-0.21-0.17
		c0.96,0.16,0.85-1.33,2.02-0.84c0.28,0.07,0.04-0.34-0.06-0.7l0.37,0.48l-0.22-0.69c-0.04-0.59,1.25,0.94,1.02-0.06l-0.27-0.31
		c0.15-0.01,0.21-0.43,0.46-0.03c-0.03-0.07-0.2-0.37-0.04-0.23l0.18,0.26l-0.03-0.63c0.34,0.05,0.67,1.06,1.01,0.91
		c0.05-0.18-0.19-0.98-0.35-1.13c-0.05,0.02-0.23-0.08-0.41-0.34l0.01-0.21c-0.5-0.78-0.96-1.63-1.58-1.99l0.14,0.59l-0.31-0.34
		l0.13-0.12c-0.32-0.29-0.17,0.05-0.08,0.31c-0.15-0.19-0.27-0.31-0.35-0.36l0.32,0.86c-0.23-0.29-0.33-0.65-0.56-0.74
		c0.15,0.4,0.54,0.62,0.55,0.94c-0.32-0.29-0.49-0.6-0.39-0.23c-0.15-0.19-0.21-0.33-0.23-0.44c0.07,0.3-0.17,0.26,0.06,0.7
		c-0.38-0.37-0.22,0.32-0.71-0.42c0.09,0.19,0.23,0.68,0.17,0.76c-0.44-0.98-0.34,0.16-0.93-0.81c0.42,0.86-0.16,0.62-0.06,1.19
		c-0.03-0.07-0.1-0.21-0.05-0.18c-0.15,0.01-0.35-0.21-0.52-0.31c0.42,0.66,0.35,0.92,0.53,1.39c-0.56-0.54-0.43-0.82-0.88-1.39
		c0.36,0.52,0.12,0.68,0.46,1.09c-0.37-0.32-0.22-0.13-0.63-0.63c0.53,0.82,0,0.2,0.25,0.76c-0.42-0.3-0.55-0.73-0.55-0.38
		c-0.25-0.2-0.29-0.58-0.29-0.58c-0.18,0.1,0.33,0.65,0.53,1.03c-0.08,0.31-0.4-0.39-0.68-0.66c-0.01,0.25,0.27,0.87,0.16,0.91
		c-0.08-0.1-0.12-0.12-0.18-0.26c0.2,0.58-0.37,0.29-0.11,1c-0.05-0.05-0.09-0.09-0.12-0.14c0.23,0.29,0.45,0.6,0.59,0.82
		c-0.07,0.06,0.12,0.48-0.18,0.1c0.05-0.02-0.05-0.18-0.11-0.32l0.04,0.23c-0.46-0.53-0.03-0.27-0.32-0.7
		c-0.03,0.29,0.12,0.89-0.11,0.8c-0.4-0.55,0.15-0.37-0.35-0.77l0.33,0.09c-0.74-0.79,0.15-0.01-0.62-0.88
		c-0.35,0-0.07,0.47-0.42,0.46c0.16,0.35,0.33,0.45,0.49,0.8c0.04,0.79-1.22-1.24-0.96-0.32c0.19,0.42,0.65,1.15,0.21,0.89
		l-0.37-0.68c-0.27,0.09,0.49,1-0.04,0.74c-0.13-0.28,0.04-0.33-0.05-0.39c-0.5-0.4,0.13,0.44,0.01,0.52l-0.41-0.55
		c-0.19,0.25-0.18,0.84-0.39,1.13c-0.1-0.18-0.17-0.39-0.35-0.51c-0.15,0.51-0.78,0.43-1.34,0.32l0.2,0.57
		c-0.03,0.01-0.2-0.18-0.23-0.3c-0.25-0.1,0.2,0.31,0.27,0.55c-0.05,0.08-0.29-0.21-0.34-0.39c0.05,0.57-0.05,1.33-0.64,0.97
		l-0.05-0.18c-0.32-0.07,0.46,1.14-0.02,0.8l-0.02-0.11c-0.55,0.06-0.7,0.81-1.5,0.29c0.41,0.74-0.61-0.04,0.02,0.95
		c-0.56-0.33-0.61-0.55-1.16-0.65c-0.12,0.01,0.28,0.7,0.24,0.87l-0.35-0.51l0.22,0.63l-0.49-0.56l-0.01,0.2
		c0.06,0,0.24,0.17,0.33,0.32c0,0.34-0.63-0.1-0.81-0.36l-0.08,0.68c-0.13-0.21-0.12-0.32-0.15-0.49c0.15,0.66-0.4-0.51-0.26,0.09
		c0.1,0.1,0.19,0.31,0.26,0.42c-0.3-0.25-0.51-0.11-0.57,0.12l-0.21-0.37c-0.34,0.1-0.47,0.56-0.79,0.77
		c0.22,0.09,0.61,0.72,0.56,0.84l-0.4-0.52c0.17,0.37,0.23,0.14,0.39,0.63c-0.16,0.02-0.49-0.56-0.54-0.78l-0.01,0.28
		c-0.12-0.16-0.14-0.26-0.27-0.47c0.17,0.37-0.61-0.38-0.3,0.26l-0.12-0.16c-0.16,0.1-0.24,0.22-0.31,0.35
		c-0.08,0.13-0.09,0.21-0.35,0.41c0.33,0.46,0.08,0.48,0.25,0.91c-0.4,0.05-1.09-0.02-1.45,0.29c-0.03,0.36,0.33,0.35,0.51,0.63
		c-0.46-0.31-0.8-0.02-0.94-0.37c-0.38,0.36-0.52,0.48-0.61,1.04c0.3,0.05,0.46,0.06,0.62,0.16c0.01,0.1-0.45,0.04-0.72-0.07
		l-0.03-0.04c0.14,0.37-0.61,0.43-1.43,0.57c-0.8,0.13-1.65,0.35-1.11,0.63l-0.05-0.03c0.1,0.16,0.21,0.31,0.34,0.44
		c-0.38,0.15-0.47-0.15-1.16-0.06c0.39,0.25,0.14,0.39-0.2,0.53c-0.33,0.14-0.73,0.29-0.44,0.44c-1.45,0.15-1.86,0.38-2.06,0.6
		c0.62,0.21,1.5,0.36,0.88,0.65l0.61-0.1c0.77-0.02-0.19,0.14-0.21,0.22c0.47-0.08,0.4-0.16,0.83-0.17
		c0.98,0.23,1.33,0.55,1.66,0.96c0.32,0.4,0.62,0.9,1.16,1.34c0.44,0.32,2.2-0.98,1.9-0.19l-0.81,0.35c0.88-0.01,1.32,0.2,1.79,0.45
		c0.46,0.24,0.94,0.52,1.55,0.44c-0.13,0.11-0.23,0.28-0.32,0.23c-0.02,0.25,0.17,0.35,0.38,0.34c0.15-0.04,0.3-0.2,0.39-0.38
		c0.06,0.08-0.14,0.33-0.17,0.53c-0.01,0.31,0.54-0.42,0.39,0.04c-0.02,0.08-0.1,0.13-0.13,0.15c0.17-0.18,0.31,0.21,0.48-0.32
		c0.08,0.33,0.48-0.04,0.49,0.33c0.37-0.51,0.2,0.43,0.61-0.35c-0.41,0.81,0.02,0.82,0.33,0.5c-0.16,0.23-0.02,0.31-0.23,0.62
		c0.15,0.06,0.35-0.03,0.52-0.46c-0.21,1.1,0.9-0.54,0.44,0.78c0.63-0.24,1.15-0.35,1.62-0.36c-0.41,0.81-0.45-0.12-0.85,0.74
		c0.52-0.16,1.06-0.76,1.31-0.4c0.04,0.15-0.22,0.33-0.32,0.45c0.52-0.16,0.65,0.4,1.18,0.11c-0.04,0.08-0.11,0.14-0.17,0.19
		c0.07,0,0.09,0.19,0.26-0.18l-0.11,0.07c0.16-0.58,0.79-1,0.93-1.28c-0.62,1.01,0.18,0.42-0.63,1.67c0.07-0.05,0.21-0.2,0.32-0.45
		c0.03,0.1-0.02,0.26-0.22,0.51c0.32-0.09,0.43-0.52,0.63-0.42c-0.09,0.18-0.16,0.23-0.28,0.43c0.27-0.3,0.54-0.6,0.64-0.37
		c-0.06,0.1-0.11,0.25-0.16,0.23c0.32,0.09,0.95-0.69,1.1-0.2c-0.47,0.73-0.01,0.31-0.32,0.99l0.27-0.12l0.09-0.36
		c0.15,0.08,0.52-0.34,0.54-0.06l-0.25,0.22l0.34,0.01l-0.04-0.33c0.32-0.27,0.39-0.86,0.5-0.57c-0.07,0.05,0.15,0.08,0.04,0.52l0,0
		c0.18-0.18,0.36-0.37,0.39-0.15c-0.07,0.23-0.38,0.73-0.43,0.89c0.34-0.53,0.43,0.01,0.81-0.54c-0.1,0.13-0.27,0.48-0.29,0.55
		l0.28-0.43c0,0.18-0.02,0.26-0.17,0.53c0.17,0.19,0.34-0.89,0.42-0.4c-0.04,0.03-0.06,0.1-0.14,0.15c0.16,0.31,0.62-0.06,0.75,0.28
		c-0.26,0.71-0.28,0.07-0.48,0.68c0.39,0.04,1.08-0.48,1.32-0.17l-0.02-0.1c0.5-0.93,0.01,0.59,0.39,0.22
		c-0.07,0.05-0.31,0.51-0.25,0.4c0.15,0.26,0.56-0.02,1.04-0.16l-0.16,0.23c0.02,0.28,0.28,0.29,0.37,0.47
		c0.16-0.23,0.22-0.15,0.34-0.53c-0.24,1.61,1.19-0.35,1.01,1c-0.05-0.02-0.21,0.16-0.18,0.18l0.44-0.07
		c0.17-0.43,0.08-0.27,0.17-0.63c0.16-0.23,0.34-0.37,0.43-0.33c-0.28,0.21-0.32,0.67-0.37,0.93c0.05-0.13,0.14-0.26,0.2-0.4
		c-0.19,0.82,0.43-0.82,0.42-0.21l-0.12,0.21c0.14-0.07,0.36-0.32,0.42-0.21c-0.19,0.5-0.2,0.18-0.4,0.57
		c0.15,0.04,0.7-0.79,0.59-0.25c-0.12,0.11-0.2,0.07-0.32,0.18c-0.14,0.63-0.06,0.49,0,0.63l0-0.02l0.1,0.36l0.02-0.18
		c0.77-1.18,0.45-0.07,1.07-0.78c-0.59,0.67-0.25,0.43-0.53,0.97c-0.02,0.18-0.01,0.39-0.11,0.53c0.32-0.39,0.01,0.43,0.47-0.14
		c-0.08,0.18,0.1,0.07-0.13,0.5c0.2-0.07,0.11-0.32,0.23-0.54c0.5-0.5,0.15,0.97,0.85,0.29c0.42-0.21,0.76-0.78,1.14-0.96
		c-0.05,0.32-0.38,0.61-0.38,0.61c0.01,0.32,0.13,0.32,0.35,0.18c-0.1,0.14-0.14,0.28-0.19,0.5c0.12,0,0.38-0.61,0.38-0.29
		c-0.12,0.18-0.3,0.48-0.44,0.66c0.2-0.1,0.47-0.38,0.67-0.48c-0.12,0.32-0.3,0.43-0.44,0.61C69.64,57.93,69.92,57.9,70.2,57.43z
		 M52,44.69l0.15,0.01c0,0,0,0,0,0C52.11,44.7,52.07,44.69,52,44.69L52,44.69z M61.15,37.92c0.06,0.09,0.11,0.18,0.14,0.25
		c-0.01,0.1-0.09,0.02-0.16-0.07c0.02-0.02,0.04-0.06,0.05-0.12C61.17,37.96,61.16,37.94,61.15,37.92z M58.79,35.08
		c-0.01,0.02-0.03,0.04-0.06,0.09c0,0-0.01-0.01-0.01-0.01C58.75,35.13,58.78,35.1,58.79,35.08z M58.57,35.33
		c0.12,0.15,0.22,0.33,0.18,0.34c-0.05-0.12-0.19-0.16-0.34-0.26C58.46,35.39,58.52,35.36,58.57,35.33z M51.91,44.74l-0.38,0
		l0.02-0.04c0.13,0,0.26,0.01,0.37,0.01L51.91,44.74z M51.93,44.58l0,0.03c-0.16-0.04-0.37-0.08-0.67-0.15
		C51.42,44.48,51.75,44.54,51.93,44.58z M51.51,44.7l-0.02,0.04l-0.28,0C50.74,44.69,51.1,44.69,51.51,44.7z M50.15,46.1
		c-0.86,0.29,0.49-0.3-0.3-0.06l0.3-0.13C50.15,45.98,50.15,46.05,50.15,46.1z"/>
	<path class="st1" d="M60.97,37.49c0-0.02-0.01-0.04,0-0.05c-0.04-0.03-0.07-0.06-0.1-0.08l0.08,0.16L60.97,37.49z"/>
	<path class="st1" d="M64.46,52.95c0,0.02-0.01,0.05-0.02,0.08c0.01-0.03,0.01-0.04,0.02-0.06L64.46,52.95z"/>
	<polygon class="st1" points="53.28,37.57 53.36,37.69 53.32,37.56 	"/>
	<path class="st1" d="M66.38,56.17l0.03,0.24C66.41,56.28,66.4,56.22,66.38,56.17z"/>
	<path class="st1" d="M66.91,56.74c0.05-0.09,0.08-0.15,0.12-0.21l0,0L66.91,56.74z"/>
	<path class="st1" d="M56.26,52.34c-0.01,0-0.02,0-0.04,0.01C56.12,52.42,56.18,52.4,56.26,52.34z"/>
	<path class="st1" d="M59.92,52.64c-0.08,0.08-0.15,0.15-0.21,0.19C59.74,52.9,59.77,52.93,59.92,52.64z"/>
	<polygon class="st1" points="52.52,51.29 52.53,51.28 52.51,51.27 	"/>
	<path class="st1" d="M59.56,52.76c0.01,0.13,0.06,0.13,0.14,0.08C59.67,52.78,59.64,52.7,59.56,52.76z"/>
	<path class="st1" d="M69.65,58.36c0.02-0.03,0.03-0.06,0.04-0.08l-0.06,0.04L69.65,58.36z"/>
	<path class="st1" d="M69.69,58.28l0.06-0.04C69.74,58.23,69.72,58.23,69.69,58.28z"/>
	<path class="st1" d="M69.89,58.15l-0.14,0.09C69.78,58.26,69.8,58.29,69.89,58.15z"/>
	<path class="st1" d="M68.59,57.61c0.04,0.07-0.03,0.47,0.11,0.39l0.08-0.14C68.6,58.11,68.8,57.32,68.59,57.61z"/>
	<path class="st1" d="M68.99,54.56c0-0.72-0.15,0.47-0.4,0.25l0.15,0.25C68.79,54.85,68.87,54.56,68.99,54.56z"/>
	<path class="st1" d="M68.04,54.2c0.16-0.03,0.14-0.28,0.19-0.39C68.08,53.95,68.04,53.98,68.04,54.2z"/>
	<path class="st1" d="M63.12,51.82l0.23-0.46C63.23,51.39,63.27,51.55,63.12,51.82z"/>
	<polygon class="st1" points="61.03,53.75 60.98,54.08 61.23,53.68 	"/>
	<polygon class="st1" points="61.9,50.25 62.06,50.2 62.13,50.15 	"/>
	<path class="st1" d="M53.74,46.49c0.03-0.09,0.03-0.14-0.02-0.12c-0.01-0.06-0.03-0.12-0.06-0.2l-0.16,0.25
		c0.02,0.09,0.07,0.14,0.1,0.19l-0.14,0.34c0.04-0.03,0.11-0.13,0.17-0.24c0,0.01,0,0.01,0,0.02
		C53.72,46.68,53.75,46.59,53.74,46.49z"/>
	<path class="st1" d="M51.07,45.59c-0.02,0.04-0.26,0.19-0.14,0.16C51.26,45.57,51.47,45.44,51.07,45.59z"/>
	<polygon class="st1" points="55.24,42.34 55.29,42.56 55.32,42.33 	"/>
</g>
</svg>
