<?xml version="1.0" encoding="utf-8"?>
<!-- Generator: Adobe Illustrator 25.1.0, SVG Export Plug-In . SVG Version: 6.00 Build 0)  -->
<svg version="1.1" id="Calque_1" xmlns="http://www.w3.org/2000/svg" xmlns:xlink="http://www.w3.org/1999/xlink" x="0px" y="0px"
	 viewBox="0 0 237.78 217.37" style="enable-background:new 0 0 237.78 217.37;" xml:space="preserve">
<style type="text/css">
	.st0{fill-rule:evenodd;clip-rule:evenodd;fill:#7B6A58;}
	.st1{fill-rule:evenodd;clip-rule:evenodd;fill:#FFC372;}
	.st2{fill-rule:evenodd;clip-rule:evenodd;fill:#F8FBE4;}
	.st3{fill-rule:evenodd;clip-rule:evenodd;fill:#FFC376;}
	.st4{fill-rule:evenodd;clip-rule:evenodd;fill:#F9F8E2;}
	.st5{fill:#CBE5F1;}
	.st6{fill-rule:evenodd;clip-rule:evenodd;fill:#CBE5F1;}
	.st7{fill-rule:evenodd;clip-rule:evenodd;fill:#D9ECF5;}
	.st8{fill-rule:evenodd;clip-rule:evenodd;fill:#E4F0F6;}
	.st9{fill-rule:evenodd;clip-rule:evenodd;fill:#B3D5E6;}
	.st10{fill-rule:evenodd;clip-rule:evenodd;fill:#559CB8;}
	.st11{fill:#F2F2F2;}
	.st12{fill:#F9E153;}
	.st13{fill:#7B6A58;}
</style>
<g>
	<path class="st0" d="M154.31,108.22c-4.13,4.77-9.5,10.84-11.26,12.97c-1.75,2.13-5.45,6.19-5.45,6.19s-0.5-6.57,2.54-11.96
		c3.05-5.39,14.9-20.97,17.62-21.44c2.72-0.47,11.33,0.36,11.33,0.36S158.43,103.45,154.31,108.22L154.31,108.22z M183.95,87.91
		c-13.71,3.7-22.62,2.42-22.62,2.42s7.25-4.36,10.16-6.05c2.91-1.69,8.13-6.04,12.44-8.15c4.31-2.11,25.93-12.67,27.43-13.7
		c1.5-1.03,0.29-2.88-2.71-0.89c-2.99,2-22.17,12.19-22.17,12.19s3.14-3.47,4.94-5.29c1.8-1.81,4.31-4.58,6.62-7.36
		c2.31-2.77,5.76-7.09,3.87-7.25c-1.89-0.16-17.22,9.19-18.41,9.37c-1.19,0.18,2.78-6.7,0.44-6.95c-2.35-0.25-4.25,8.28-5.02,9.17
		c-0.77,0.89-0.44-1.57-2.34-1.61c-1.9-0.04-8.26,9.79-8.26,9.79s1.66-3.98,2.82-7.31c1.16-3.33,2.77-16.2-0.36-16.49
		c-3.13-0.29-5.02,17.62-6.44,24.58c-1.42,6.95-14.66,20.12-15.97,21.35c-1.31,1.23-3.9-5.52-4.65-7.35
		c-0.75-1.83,1.31-4.86,4.61-10.18c3.3-5.31,4.73-11.1,4.69-12.83c-0.04-1.73-1.72,0.34-2.64,0.35c-0.92,0.01,0.8-2.67-1.09-1.6
		c-1.89,1.07-8.14,20.85-9.15,22.58c-1.01,1.73-12.63-2.96-14.23-3.54c-1.61-0.58-0.57-2.75-0.21-4.7c0.37-1.95,2.09-2.29,5.12-4.84
		c3.02-2.55,5.51-8.58,4.09-8.91c-1.43-0.32-1.11,1.11-2.55,3.5c-1.44,2.39-3.61,3.76-5.39,3.97c-1.78,0.21-0.42-4.34-1.55-4.09
		c-1.13,0.25-1.86,10.2-2.84,10.02c-0.97-0.17-2.4-1.67-3.85-3.97c-1.45-2.3-0.8-11.89-3.23-11.77c-2.43,0.11-2.29,15.79-3.41,15.79
		c-1.11,0-8.11-10.06-8.58-12.31c-0.47-2.25,0.98-4.88-1.56-5.27c-2.54-0.38-4.45,20.49-4.75,23.62c-0.3,3.13-0.26,7.26,1.25,9.69
		c1.51,2.43,2.41,2.78,0.18,2.79c-2.23,0-4.63-4.26-7.04-5.81c-2.41-1.55-2.55-2.61-4.58-2.53c-2.04,0.08-3.62-3.34-4.67-2.16
		c-1.05,1.18,9.03,10.05,9.45,10.81c0.42,0.76,0.48,0.77-2.53,0.6c-3.01-0.16-7.01-2.48-13.32-3.49c-6.31-1.02-10.1-3.57-10.23-2.4
		c-0.13,1.16,17.56,8.72,17.56,8.72s-2,0.69-7.19,1.96c-5.18,1.26-18.67,4.55-21.35,4.34c-2.68-0.21-4.18-0.35-3.25,0.63
		c0.93,0.97,6.23,1.14,11.88-0.1c5.64-1.24,16.2-3.75,21.26-5.21c5.06-1.46,11.51-1.91,14.29-1.2c2.78,0.7,9.46,6.99,11.1,9.48
		c1.64,2.5,12.03,14.04,12.03,14.04s-1.23-0.25-5.71,1.3c-4.48,1.55-15.08,3.57-27.31,3.03c-12.23-0.54-17.22-1.79-20.1-3.12
		c-2.88-1.33-7.37-3.18-9.75-5.15c-2.39-1.98-14.9-20.36-17.25-19.38c-2.35,0.98,12.64,17.24,11.84,17.51
		c-0.8,0.27-18.3-8.39-19.69-6.92c-1.39,1.47,13.59,6.96,13.41,8c-0.19,1.04-15.73,7.17-15.73,7.17s-13.46,4.02-15.7,5.32
		c-2.24,1.3-7.32,5.59-6.19,6.58c1.13,0.99,5.19-2.56,8.58-4.66c3.39-2.1,8-2.41,13.19-3.73c5.19-1.32,12.2-1.25,12.2-1.25
		s-8.71,5.95-7.73,7.11c0.99,1.16,6.01-1.96,8.86-3.78c2.85-1.82,2-3.04,9.22-3.27c7.23-0.23,36.07,2.31,43.14,2.69
		c7.06,0.38,21.35-4.4,26.88-4.84c5.53-0.44,8.2,9.23,8.07,13.39c-1.61,49.55-9.78,66.18-8.31,66.81
		c1.47,0.63,12.49-1.55,22.28,0.13c1.7,0.29-0.52-42.11-7.07-72.15c-0.75-3.45,2.82-6.14,9.85-12.43
		c7.03-6.28,21.25-8.78,42.66-17.75c21.4-8.96,39.68-24.64,38.57-25.81c-1.12-1.17-13.68,9.32-13.68,9.32s0.87-5.26,1.69-7.13
		c0.82-1.87,2.16-9.57,2.16-9.57s9.11-4.82,6.58-5.32C224.41,65.97,197.66,84.21,183.95,87.91L183.95,87.91z M171.34,101.12
		c4.18-3.23,9.43-8.37,9.43-8.37s-1.44-0.02-3.55,0.12c-2.11,0.13-20.44,19.07-20.44,19.07S167.17,104.35,171.34,101.12
		L171.34,101.12z M137.42,111.14c2.13-4.2,6.54-8.22,7.29-9.85c0.74-1.63-1.26-5.8-3.34-8.57c-2.08-2.76-5.1-2.68-8.15-3.28
		c-3.05-0.6-9.15-5.37-9.82-5.15c-0.67,0.21,0.21,10.81,0.24,13.77c0.03,2.96,5.01,5.52,6.51,9.48c1.49,3.97,2.33,12.83,2.33,12.83
		S135.29,115.34,137.42,111.14L137.42,111.14z M186.04,98.64c-8.82,4.28-18.94,9.59-18.94,9.59s17.32-13.56,23.3-17.44
		c5.98-3.87,17.88-10.57,20.95-12.81c3.07-2.24,6.61-4.58,6.61-4.58s-1.64,6.14-2.5,9.86c-0.86,3.72-1.5,5.97-2.07,6.74
		c-0.56,0.77-13.58,7.41-13.58,7.41s12.79-13.38,11.06-14.21c-1.72-0.83-7.78,6.92-11.17,8.9
		C196.32,94.07,194.86,94.37,186.04,98.64L186.04,98.64z M126.45,117.58c-0.34-2.18-4.86-14.51-5.72-16.84
		c-0.86-2.33-2.05-3.32-3.99-2.5c-1.94,0.82-10.33,1.79-10.33,1.79s1.26,1.06,4.11,3.99c2.86,2.93,15.96,16.59,15.96,16.59
		S126.79,119.75,126.45,117.58L126.45,117.58z M120.58,84.19c0.18,1.62-1.2,11.35-1.2,11.35s-12.96,1.95-15.82,0.38
		c-2.87-1.57-3.88-3.42-3.91-6.5c-0.03-3.09,3.65-20.22,3.65-20.22s3.31,7.89,6.26,10.39C112.49,82.09,120.4,82.58,120.58,84.19
		L120.58,84.19z M59.19,125.8c0,0-4.31,0.82-9.02,0.63L38.98,126c0,0,8.74-3.97,10.92-4.29C52.08,121.4,59.19,125.8,59.19,125.8
		L59.19,125.8z M173.08,79.87c-4.07,2.5-5.87,3.08-5.87,3.08s11.16-11.18,12.66-13.51c1.5-2.33,1.27-2.83,3.78-4.48
		c2.51-1.65,14.22-7.13,14.22-7.13s-5.66,6.48-9.67,10.28C184.2,71.89,177.15,77.37,173.08,79.87z"/>
	<g>
		<g>
			<path class="st1" d="M16.36,111.57c-1.25,0.03,1.87-8.82,0.31-8.85c-1.55-0.03-2.99,4.15-4.17,4.79
				c-1.18,0.64-3.97-3.37-4.78-2.46c-0.81,0.9,3.82,5.43,3.96,6.53c0.13,1.1-5.09,7.01-3.72,7.96c1.37,0.95,4.05-5.21,5.67-4.91
				c1.62,0.3,2.87,8.46,4.35,8.16c1.48-0.3-1.35-7.34-0.49-8.44c0.86-1.1,8.38-3.19,8-4.69C25.11,108.15,17.61,111.54,16.36,111.57z
				"/>
			<path class="st2" d="M15.11,110.29c-0.88-0.27-3.2,2.76-1.55,3.14C15.21,113.8,16,110.57,15.11,110.29z"/>
		</g>
		<g>
			<path class="st1" d="M34.89,86.18c-1.25,0.03,1.87-8.82,0.31-8.85c-1.55-0.03-2.99,4.15-4.17,4.79
				c-1.18,0.64-3.97-3.37-4.78-2.46c-0.81,0.91,3.82,5.43,3.96,6.53c0.13,1.1-5.09,7.01-3.72,7.96c1.37,0.95,4.05-5.21,5.67-4.91
				c1.62,0.3,2.87,8.46,4.35,8.16c1.48-0.3-1.35-7.35-0.49-8.44c0.86-1.09,8.39-3.19,8.01-4.69C43.64,82.76,36.14,86.16,34.89,86.18
				z"/>
			<path class="st2" d="M33.64,84.91c-0.88-0.27-3.2,2.76-1.55,3.13C33.74,88.42,34.53,85.18,33.64,84.91z"/>
		</g>
		<g>
			<path class="st1" d="M40.91,123.55c-1.25,0.03,1.87-8.82,0.31-8.85c-1.55-0.03-2.99,4.15-4.17,4.79
				c-1.17,0.64-3.97-3.37-4.78-2.46c-0.81,0.91,3.82,5.43,3.96,6.53c0.13,1.1-5.09,7.01-3.72,7.96c1.37,0.95,4.05-5.21,5.67-4.91
				c1.62,0.3,2.87,8.46,4.35,8.16c1.48-0.3-1.35-7.34-0.5-8.44c0.86-1.1,8.39-3.19,8.01-4.7C49.67,120.13,42.17,123.52,40.91,123.55
				z"/>
			<path class="st2" d="M39.67,122.27c-0.88-0.27-3.2,2.76-1.55,3.14C39.77,125.78,40.55,122.55,39.67,122.27z"/>
		</g>
		<g>
			<path class="st1" d="M91.03,64.14c-1.11,0.55-2.51-8.62-3.92-7.99c-1.41,0.63-0.73,4.94-1.48,6.01
				c-0.76,1.06-5.18-1.31-5.48-0.17c-0.3,1.15,6.03,3.21,6.67,4.13c0.64,0.92-1.25,8.37,0.43,8.63c1.69,0.27,1.18-6.33,2.78-6.75
				c1.6-0.42,6.61,6.3,7.8,5.41c1.19-0.89-4.71-5.95-4.46-7.29c0.25-1.33,6.04-6.37,4.98-7.54C97.29,57.41,92.14,63.58,91.03,64.14z
				"/>
			<path class="st2" d="M89.3,63.53c-0.92,0.13-1.57,3.8,0.09,3.44C91.06,66.61,90.23,63.4,89.3,63.53z"/>
		</g>
		<g>
			<path class="st3" d="M41.62,75.19c0.54-0.41,3.54,1.74,2.45,2.5C42.97,78.44,41.08,75.59,41.62,75.19L41.62,75.19z M41.47,70.98
				c-1.02-0.56,2.53-4.04,2.86-3.88C44.67,67.26,42.5,71.54,41.47,70.98L41.47,70.98z M36.3,63.95c-2.01,0.59,1.89,7.61,1.66,8.21
				c-0.24,0.6-5.83,0.39-5.4,4.13c0.42,3.73,5.49-0.45,6.14-0.22c0.66,0.23,0.07,5.7,1.13,5.79c1.07,0.09,0.69-3.87,1.42-4.3
				c0.74-0.43,2.24,3.2,4.33,0.84c2.09-2.36-2.45-3.83-2.62-5.27c-0.17-1.44,4.83-6.11,2.57-7.6c-2.26-1.5-4.83,4.22-5.76,4.17
				C38.84,69.66,38.31,63.36,36.3,63.95L36.3,63.95z M33.97,76.33c-0.47-0.5,2.99-3.06,3.89-2.18
				C38.77,75.04,34.45,76.83,33.97,76.33z"/>
			<path class="st4" d="M39.93,72.78c-0.06-0.51-0.55-0.86-1.1-0.8c-0.55,0.07-0.94,0.53-0.88,1.04c0.06,0.51,0.55,0.86,1.1,0.8
				C39.59,73.75,39.99,73.28,39.93,72.78z"/>
		</g>
		<g>
			<path class="st3" d="M59.92,49.08c0.54-0.41,3.54,1.75,2.45,2.5C61.27,52.34,59.38,49.49,59.92,49.08L59.92,49.08z M59.78,44.88
				c-1.02-0.56,2.53-4.04,2.86-3.88C62.97,41.16,60.8,45.44,59.78,44.88L59.78,44.88z M54.6,37.85c-2.01,0.58,1.89,7.61,1.66,8.21
				c-0.24,0.6-5.82,0.39-5.4,4.13c0.42,3.73,5.49-0.45,6.14-0.22c0.65,0.23,0.06,5.7,1.13,5.79c1.07,0.09,0.69-3.87,1.42-4.3
				c0.74-0.43,2.24,3.2,4.32,0.84c2.09-2.36-2.45-3.83-2.62-5.27c-0.17-1.44,4.83-6.11,2.57-7.6c-2.26-1.49-4.83,4.22-5.76,4.17
				C57.14,43.56,56.61,37.26,54.6,37.85L54.6,37.85z M52.28,50.23c-0.47-0.5,2.99-3.06,3.89-2.18
				C57.07,48.94,52.75,50.73,52.28,50.23z"/>
			<path class="st4" d="M58.23,46.68c-0.06-0.51-0.55-0.86-1.1-0.8c-0.55,0.07-0.94,0.53-0.88,1.04c0.06,0.51,0.56,0.86,1.1,0.8
				C57.9,47.65,58.29,47.18,58.23,46.68z"/>
		</g>
		<g>
			<path class="st3" d="M68.09,54.89c0.55-0.41,3.54,1.74,2.45,2.5C69.44,58.14,67.54,55.3,68.09,54.89L68.09,54.89z M67.95,50.69
				c-1.03-0.56,2.53-4.05,2.86-3.88C71.14,46.97,68.97,51.25,67.95,50.69L67.95,50.69z M62.77,43.65c-2.01,0.58,1.89,7.6,1.65,8.21
				c-0.24,0.6-5.82,0.4-5.4,4.13c0.42,3.73,5.49-0.45,6.14-0.22c0.66,0.23,0.07,5.7,1.13,5.79c1.07,0.09,0.69-3.87,1.43-4.3
				c0.74-0.43,2.23,3.2,4.32,0.84c2.09-2.36-2.44-3.83-2.62-5.27c-0.17-1.44,4.84-6.11,2.58-7.6c-2.26-1.5-4.83,4.22-5.76,4.17
				C65.31,49.37,64.78,43.07,62.77,43.65L62.77,43.65z M60.44,56.04c-0.47-0.5,2.99-3.06,3.89-2.18
				C65.24,54.74,60.92,56.54,60.44,56.04z"/>
			<path class="st4" d="M66.4,52.48c-0.06-0.51-0.55-0.86-1.1-0.8c-0.55,0.07-0.94,0.53-0.88,1.04c0.06,0.5,0.55,0.86,1.1,0.8
				C66.07,53.45,66.46,52.99,66.4,52.48z"/>
		</g>
		<g>
			<path class="st3" d="M83.91,44.26c0.54-0.41,3.54,1.75,2.45,2.5C85.26,47.51,83.37,44.66,83.91,44.26L83.91,44.26z M83.76,40.06
				c-1.02-0.56,2.53-4.05,2.86-3.88C86.96,36.33,84.79,40.61,83.76,40.06L83.76,40.06z M78.59,33.02c-2.01,0.59,1.89,7.61,1.65,8.21
				c-0.24,0.6-5.82,0.39-5.4,4.13c0.42,3.74,5.49-0.44,6.14-0.21c0.65,0.23,0.06,5.7,1.13,5.79c1.07,0.09,0.69-3.87,1.42-4.3
				c0.74-0.43,2.24,3.2,4.32,0.84c2.09-2.36-2.44-3.83-2.62-5.27c-0.18-1.44,4.83-6.11,2.58-7.6c-2.26-1.49-4.83,4.21-5.76,4.17
				C81.13,38.73,80.6,32.43,78.59,33.02L78.59,33.02z M76.27,45.4c-0.47-0.5,2.99-3.06,3.89-2.18C81.06,44.11,76.74,45.9,76.27,45.4
				z"/>
			<path class="st4" d="M82.22,41.85c-0.06-0.51-0.55-0.86-1.1-0.8c-0.55,0.07-0.94,0.53-0.88,1.04c0.06,0.51,0.55,0.86,1.1,0.8
				C81.89,42.82,82.28,42.35,82.22,41.85z"/>
		</g>
		<g>
			<path class="st3" d="M105.28,24.97c0.54-0.41,3.54,1.74,2.45,2.5C106.63,28.22,104.74,25.38,105.28,24.97L105.28,24.97z
				 M105.14,20.77c-1.02-0.56,2.53-4.04,2.86-3.88C108.33,17.05,106.16,21.33,105.14,20.77L105.14,20.77z M99.96,13.74
				c-2.01,0.58,1.89,7.6,1.65,8.21c-0.24,0.6-5.82,0.39-5.4,4.13c0.42,3.73,5.49-0.45,6.14-0.22c0.66,0.23,0.06,5.7,1.13,5.79
				c1.07,0.09,0.69-3.87,1.43-4.3c0.74-0.43,2.24,3.2,4.32,0.84c2.09-2.36-2.44-3.83-2.62-5.27c-0.17-1.44,4.83-6.11,2.58-7.6
				c-2.26-1.49-4.83,4.22-5.76,4.17C102.5,19.45,101.97,13.15,99.96,13.74L99.96,13.74z M97.64,26.12c-0.47-0.5,2.99-3.06,3.89-2.18
				C102.43,24.82,98.11,26.62,97.64,26.12z"/>
			<path class="st4" d="M103.59,22.56c-0.06-0.51-0.56-0.86-1.1-0.8c-0.55,0.07-0.94,0.53-0.88,1.04c0.06,0.51,0.56,0.87,1.1,0.8
				C103.26,23.54,103.65,23.07,103.59,22.56z"/>
		</g>
		<g>
			<path class="st1" d="M53.18,69.33c-0.76,0.6-3.44-6.2-4.42-5.5c-0.98,0.7,0.31,3.9-0.09,4.83c-0.4,0.93-4.22-0.2-4.25,0.72
				c-0.03,0.93,5.2,1.52,5.86,2.13c0.65,0.6,0.5,6.6,1.84,6.54c1.34-0.06-0.2-5.03,0.96-5.6c1.16-0.57,6.19,3.79,6.95,2.92
				c0.76-0.87-4.66-3.82-4.71-4.88c-0.04-1.06,3.54-5.81,2.52-6.55C56.83,63.2,53.94,68.73,53.18,69.33z"/>
			<path class="st2" d="M51.75,69.13c-0.69,0.24-0.54,3.15,0.67,2.62C53.64,71.21,52.43,68.88,51.75,69.13z"/>
		</g>
		<g>
			<path class="st1" d="M58.51,82.83c-0.76,0.6-3.44-6.2-4.42-5.5c-0.98,0.7,0.31,3.89-0.09,4.83c-0.4,0.93-4.22-0.2-4.25,0.72
				c-0.03,0.93,5.2,1.52,5.86,2.13c0.66,0.6,0.5,6.6,1.84,6.54c1.35-0.06-0.2-5.03,0.96-5.6c1.16-0.56,6.19,3.8,6.95,2.93
				c0.76-0.87-4.67-3.82-4.71-4.88c-0.04-1.06,3.54-5.81,2.52-6.55C62.16,76.71,59.27,82.23,58.51,82.83z"/>
			<path class="st2" d="M57.08,82.63c-0.69,0.24-0.54,3.15,0.67,2.62C58.96,84.71,57.76,82.39,57.08,82.63z"/>
		</g>
		<g>
			<path class="st1" d="M64.14,75.94c-0.76,0.59-3.44-6.21-4.42-5.5c-0.98,0.7,0.31,3.9-0.09,4.83c-0.4,0.93-4.22-0.2-4.25,0.72
				c-0.03,0.92,5.2,1.52,5.86,2.12c0.66,0.6,0.5,6.6,1.84,6.54c1.34-0.06-0.2-5.03,0.96-5.6c1.16-0.56,6.19,3.79,6.95,2.93
				c0.76-0.87-4.67-3.82-4.71-4.88c-0.04-1.06,3.54-5.81,2.52-6.55C67.79,69.82,64.9,75.35,64.14,75.94z"/>
			<path class="st2" d="M62.7,75.74c-0.69,0.24-0.54,3.15,0.67,2.62C64.59,77.82,63.39,75.5,62.7,75.74z"/>
		</g>
		<g>
			<path class="st1" d="M72.61,86.76c-0.32,0.88-6.42-3.53-6.86-2.45c-0.45,1.08,2.44,3.13,2.62,4.11c0.18,0.98-3.73,1.92-3.24,2.71
				c0.49,0.8,5.31-1.29,6.21-1.11c0.9,0.18,4.11,5.32,5.23,4.6c1.12-0.72-2.98-4.14-2.3-5.2c0.68-1.05,7.43,0.14,7.6-0.97
				c0.17-1.11-6.14-0.91-6.76-1.79c-0.63-0.87-0.2-6.65-1.49-6.77C72.32,79.79,72.93,85.88,72.61,86.76z"/>
			<path class="st2" d="M71.26,87.31c-0.46,0.55,1.29,2.93,2.04,1.87C74.04,88.12,71.72,86.76,71.26,87.31z"/>
		</g>
		<g>
			<path class="st3" d="M86.97,86.66c0.55-0.41,3.54,1.74,2.45,2.5C88.32,89.91,86.43,87.07,86.97,86.66L86.97,86.66z M86.83,82.46
				c-1.02-0.56,2.53-4.05,2.86-3.88C90.02,78.74,87.85,83.02,86.83,82.46L86.83,82.46z M81.65,75.43c-2.01,0.59,1.89,7.61,1.66,8.21
				c-0.24,0.6-5.82,0.4-5.4,4.13c0.42,3.73,5.49-0.45,6.14-0.22c0.66,0.23,0.06,5.7,1.13,5.79c1.06,0.09,0.69-3.87,1.42-4.3
				c0.74-0.43,2.23,3.21,4.32,0.84c2.09-2.36-2.44-3.83-2.62-5.27c-0.17-1.44,4.83-6.11,2.58-7.6c-2.26-1.49-4.83,4.22-5.76,4.17
				C84.19,81.14,83.66,74.84,81.65,75.43L81.65,75.43z M79.33,87.81c-0.47-0.5,2.99-3.06,3.89-2.18
				C84.12,86.51,79.8,88.31,79.33,87.81z"/>
			<path class="st4" d="M85.28,84.25c-0.06-0.51-0.55-0.86-1.1-0.8c-0.55,0.07-0.94,0.53-0.88,1.04c0.06,0.5,0.55,0.86,1.1,0.8
				C84.95,85.22,85.34,84.76,85.28,84.25z"/>
		</g>
		<g>
			<path class="st3" d="M84.75,99.64c0.54-0.41,3.54,1.74,2.45,2.5C86.1,102.88,84.2,100.04,84.75,99.64L84.75,99.64z M84.6,95.43
				c-1.03-0.56,2.53-4.05,2.86-3.88C87.8,91.71,85.62,95.99,84.6,95.43L84.6,95.43z M79.43,88.4c-2.01,0.58,1.89,7.61,1.66,8.21
				c-0.24,0.6-5.83,0.39-5.41,4.13c0.42,3.73,5.49-0.45,6.14-0.22c0.66,0.23,0.07,5.7,1.13,5.79c1.07,0.09,0.69-3.87,1.42-4.3
				c0.74-0.43,2.24,3.21,4.32,0.84c2.09-2.36-2.44-3.83-2.61-5.27c-0.18-1.44,4.83-6.11,2.57-7.6c-2.26-1.5-4.83,4.22-5.76,4.17
				C81.97,94.11,81.44,87.81,79.43,88.4L79.43,88.4z M77.1,100.78c-0.47-0.5,2.99-3.06,3.89-2.18
				C81.89,99.48,77.57,101.28,77.1,100.78z"/>
			<path class="st4" d="M83.06,97.22c-0.06-0.51-0.56-0.86-1.1-0.8c-0.55,0.07-0.94,0.53-0.88,1.04c0.06,0.51,0.56,0.86,1.1,0.8
				C82.72,98.19,83.12,97.73,83.06,97.22z"/>
		</g>
		<g>
			<path class="st1" d="M112.39,68.37c-1.11,0.55-2.51-8.62-3.92-7.99c-1.41,0.63-0.73,4.94-1.48,6.01
				c-0.75,1.06-5.18-1.31-5.48-0.17c-0.3,1.15,6.02,3.21,6.67,4.13c0.64,0.92-1.26,8.37,0.43,8.63c1.68,0.27,1.18-6.33,2.78-6.75
				c1.6-0.41,6.61,6.3,7.8,5.41c1.19-0.89-4.71-5.95-4.45-7.28c0.25-1.33,6.04-6.37,4.98-7.54
				C118.65,61.65,113.5,67.82,112.39,68.37z"/>
			<path class="st2" d="M110.66,67.77c-0.93,0.13-1.57,3.8,0.09,3.44C112.42,70.84,111.59,67.64,110.66,67.77z"/>
		</g>
		<g>
			<path class="st1" d="M122.08,53.31c-0.21,1.17-8.85-3.17-9.18-1.74c-0.33,1.44,3.76,3.46,4.2,4.65c0.44,1.2-4.28,3.13-3.49,4.03
				c0.79,0.9,6.41-2.66,7.58-2.6c1.17,0.06,6.34,5.86,7.6,4.75c1.26-1.11-4.66-4.61-4.03-6.06c0.63-1.45,9.39-1.28,9.36-2.7
				c-0.03-1.42-7.93,0.05-8.91-0.92c-0.98-0.97-1.72-8.3-3.36-8.19C120.2,44.64,122.3,52.15,122.08,53.31z"/>
			<path class="st2" d="M120.51,54.26c-0.45,0.77,2.27,3.42,2.98,1.95C124.2,54.74,120.97,53.49,120.51,54.26z"/>
		</g>
		<g>
			<path class="st3" d="M146.75,14.41c0-0.65,3.68-1.58,3.62-0.31C150.31,15.37,146.74,15.06,146.75,14.41L146.75,14.41z
				 M143.14,11.98c-1.11,0.42-1.8-4.32-1.45-4.47C142.03,7.36,144.25,11.56,143.14,11.98L143.14,11.98z M134.01,11.58
				c-0.77,1.84,7.55,3.19,7.9,3.73c0.36,0.54-3.32,4.57,0.07,6.51c3.39,1.94,3.07-4.35,3.67-4.69c0.6-0.35,4.81,3.4,5.55,2.66
				c0.74-0.74-2.81-2.85-2.7-3.66c0.1-0.81,4.08,0.27,3.41-2.7c-0.67-2.98-4.74-0.5-6.05-1.24c-1.31-0.74-2.08-7.28-4.75-6.5
				c-2.67,0.77,0.5,6.13-0.12,6.8C140.38,13.14,134.78,9.73,134.01,11.58L134.01,11.58z M142.91,20.78
				c-0.71,0.05-0.68-4.07,0.62-4.21C144.83,16.44,143.63,20.73,142.91,20.78z"/>
			<path class="st4" d="M143.67,14.21c-0.46-0.26-1.07-0.11-1.36,0.34c-0.29,0.45-0.15,1.02,0.31,1.28
				c0.46,0.26,1.07,0.11,1.36-0.34C144.27,15.05,144.13,14.47,143.67,14.21z"/>
		</g>
		<g>
			<path class="st3" d="M174.86,26.52c0-0.65,3.68-1.58,3.62-0.31C178.42,27.48,174.86,27.17,174.86,26.52L174.86,26.52z
				 M171.25,24.09c-1.11,0.42-1.8-4.32-1.45-4.47C170.14,19.47,172.36,23.67,171.25,24.09L171.25,24.09z M162.13,23.69
				c-0.77,1.84,7.55,3.19,7.9,3.73c0.35,0.54-3.32,4.57,0.07,6.51c3.39,1.94,3.07-4.35,3.67-4.69c0.6-0.35,4.81,3.39,5.55,2.66
				c0.74-0.74-2.81-2.85-2.7-3.66c0.1-0.81,4.08,0.27,3.41-2.7c-0.67-2.98-4.74-0.5-6.05-1.23c-1.31-0.74-2.08-7.28-4.75-6.5
				c-2.67,0.77,0.5,6.13-0.12,6.8C168.49,25.25,162.89,21.84,162.13,23.69L162.13,23.69z M171.02,32.89
				c-0.71,0.05-0.68-4.07,0.62-4.21C172.95,28.55,171.74,32.84,171.02,32.89z"/>
			<path class="st4" d="M171.78,26.32c-0.46-0.26-1.07-0.11-1.36,0.34c-0.29,0.45-0.15,1.02,0.32,1.28
				c0.46,0.26,1.07,0.11,1.36-0.34C172.39,27.16,172.24,26.58,171.78,26.32z"/>
		</g>
		<g>
			<path class="st3" d="M149.13,31.86c0-0.65,3.68-1.58,3.62-0.31C152.7,32.81,149.13,32.5,149.13,31.86L149.13,31.86z
				 M145.53,29.43c-1.11,0.42-1.8-4.32-1.45-4.47C144.42,24.81,146.64,29,145.53,29.43L145.53,29.43z M136.4,29.02
				c-0.77,1.84,7.55,3.19,7.9,3.73c0.35,0.54-3.32,4.57,0.06,6.51c3.39,1.94,3.07-4.35,3.67-4.69c0.6-0.35,4.81,3.4,5.55,2.66
				c0.74-0.74-2.81-2.85-2.7-3.66c0.1-0.81,4.08,0.27,3.41-2.71c-0.67-2.98-4.74-0.5-6.05-1.23c-1.31-0.74-2.08-7.28-4.75-6.5
				c-2.67,0.77,0.5,6.13-0.12,6.8C142.77,30.58,137.17,27.18,136.4,29.02L136.4,29.02z M145.3,38.23c-0.71,0.05-0.68-4.07,0.62-4.21
				C147.22,33.89,146.01,38.18,145.3,38.23z"/>
			<path class="st4" d="M146.06,31.66c-0.46-0.26-1.07-0.11-1.36,0.34c-0.29,0.45-0.15,1.02,0.32,1.28
				c0.46,0.26,1.07,0.11,1.36-0.34C146.66,32.49,146.52,31.92,146.06,31.66z"/>
		</g>
		<g>
			<path class="st3" d="M155.3,44.32c0-0.65,3.68-1.58,3.62-0.31C158.87,45.28,155.3,44.97,155.3,44.32L155.3,44.32z M151.7,41.89
				c-1.11,0.42-1.8-4.32-1.45-4.47C150.59,37.27,152.81,41.47,151.7,41.89L151.7,41.89z M142.57,41.49
				c-0.77,1.84,7.55,3.19,7.9,3.73c0.35,0.54-3.32,4.56,0.07,6.51c3.39,1.94,3.07-4.35,3.67-4.69c0.6-0.35,4.81,3.39,5.55,2.66
				c0.74-0.74-2.81-2.85-2.71-3.65c0.1-0.81,4.08,0.27,3.42-2.7c-0.67-2.98-4.74-0.5-6.05-1.24c-1.31-0.74-2.08-7.28-4.75-6.5
				c-2.67,0.77,0.5,6.13-0.12,6.8C148.94,43.05,143.34,39.64,142.57,41.49L142.57,41.49z M151.47,50.69
				c-0.71,0.05-0.68-4.07,0.62-4.21C153.39,46.35,152.18,50.64,151.47,50.69z"/>
			<path class="st4" d="M152.23,44.12c-0.46-0.26-1.07-0.11-1.36,0.34c-0.29,0.44-0.15,1.02,0.32,1.28
				c0.46,0.26,1.07,0.11,1.36-0.34C152.83,44.96,152.69,44.38,152.23,44.12z"/>
		</g>
		<g>
			<path class="st3" d="M146.88,57.46c0-0.65,3.68-1.58,3.62-0.31C150.45,58.42,146.88,58.11,146.88,57.46L146.88,57.46z
				 M143.28,55.03c-1.11,0.42-1.8-4.32-1.45-4.47C142.17,50.41,144.39,54.61,143.28,55.03L143.28,55.03z M134.15,54.62
				c-0.77,1.85,7.55,3.19,7.9,3.73c0.36,0.54-3.32,4.57,0.07,6.51c3.39,1.94,3.07-4.35,3.67-4.69c0.6-0.35,4.81,3.39,5.55,2.66
				c0.74-0.74-2.8-2.85-2.7-3.65c0.1-0.81,4.08,0.27,3.41-2.71c-0.67-2.98-4.74-0.5-6.04-1.24c-1.31-0.74-2.08-7.28-4.75-6.51
				c-2.67,0.77,0.5,6.14-0.12,6.8C140.52,56.19,134.92,52.78,134.15,54.62L134.15,54.62z M143.05,63.83
				c-0.72,0.05-0.69-4.07,0.61-4.21C144.97,59.49,143.76,63.78,143.05,63.83z"/>
			<path class="st4" d="M143.81,57.26c-0.46-0.26-1.07-0.11-1.36,0.34c-0.29,0.45-0.15,1.02,0.32,1.28
				c0.46,0.26,1.07,0.11,1.36-0.34C144.41,58.1,144.27,57.52,143.81,57.26z"/>
		</g>
		<g>
			<path class="st3" d="M182.76,44.98c0-0.65,3.68-1.58,3.62-0.31C186.32,45.94,182.75,45.63,182.76,44.98L182.76,44.98z
				 M179.15,42.55c-1.11,0.42-1.8-4.32-1.45-4.47C178.04,37.93,180.26,42.13,179.15,42.55L179.15,42.55z M170.02,42.15
				c-0.77,1.84,7.55,3.19,7.9,3.73c0.35,0.54-3.32,4.56,0.07,6.51c3.39,1.94,3.07-4.35,3.67-4.69c0.6-0.35,4.81,3.4,5.55,2.66
				c0.74-0.74-2.81-2.85-2.7-3.66c0.1-0.81,4.08,0.28,3.41-2.7c-0.67-2.98-4.74-0.5-6.05-1.24c-1.31-0.74-2.08-7.28-4.75-6.5
				c-2.67,0.78,0.5,6.14-0.12,6.8C176.39,43.71,170.79,40.3,170.02,42.15L170.02,42.15z M178.92,51.35
				c-0.72,0.05-0.69-4.07,0.62-4.21C180.84,47.01,179.63,51.3,178.92,51.35z"/>
			<path class="st4" d="M179.68,44.78c-0.46-0.26-1.07-0.11-1.36,0.34c-0.29,0.45-0.15,1.02,0.32,1.28s1.07,0.11,1.36-0.34
				C180.28,45.62,180.14,45.04,179.68,44.78z"/>
		</g>
		<g>
			<path class="st1" d="M105.71,50.03c-1.11,0.55-2.51-8.62-3.92-7.99c-1.41,0.63-0.73,4.94-1.48,6.01
				c-0.76,1.06-5.18-1.31-5.48-0.17c-0.3,1.15,6.03,3.21,6.67,4.13c0.64,0.92-1.25,8.37,0.43,8.63c1.68,0.27,1.18-6.33,2.78-6.75
				c1.6-0.42,6.61,6.3,7.8,5.41c1.19-0.89-4.71-5.95-4.45-7.29c0.25-1.34,6.04-6.37,4.98-7.54
				C111.97,43.3,106.83,49.47,105.71,50.03z"/>
			<path class="st2" d="M103.98,49.42c-0.92,0.13-1.57,3.8,0.09,3.44C105.74,52.49,104.91,49.29,103.98,49.42z"/>
		</g>
		<g>
			<path class="st1" d="M128.45,36.23c-1.11,0.55-2.51-8.62-3.92-7.99c-1.41,0.63-0.73,4.94-1.48,6.01
				c-0.75,1.06-5.17-1.31-5.48-0.17c-0.3,1.15,6.02,3.21,6.67,4.13c0.64,0.92-1.25,8.37,0.43,8.64c1.68,0.27,1.18-6.33,2.78-6.75
				c1.6-0.41,6.61,6.3,7.8,5.41c1.19-0.9-4.71-5.95-4.45-7.28c0.25-1.34,6.04-6.37,4.98-7.55C134.71,29.5,129.56,35.68,128.45,36.23
				z"/>
			<path class="st2" d="M126.72,35.62c-0.92,0.13-1.57,3.8,0.09,3.44C128.47,38.7,127.64,35.49,126.72,35.62z"/>
		</g>
		<g>
			<path class="st1" d="M134.76,68.43c-0.58,1.05-7.35-5.6-8.13-4.32c-0.78,1.27,2.43,4.39,2.46,5.66c0.03,1.27-5.07,1.75-4.62,2.84
				c0.45,1.09,6.93-0.68,8.03-0.29c1.09,0.39,4.09,7.44,5.64,6.75c1.55-0.7-2.91-5.76-1.84-6.97c1.07-1.21,9.31,1.5,9.74,0.13
				c0.43-1.37-7.53-2.25-8.14-3.47c-0.61-1.21,1.08-8.43-0.51-8.81C135.8,59.59,135.33,67.38,134.76,68.43z"/>
			<path class="st2" d="M132.96,68.88c-0.68,0.61,1.03,3.92,2.18,2.73C136.29,70.41,133.64,68.27,132.96,68.88z"/>
		</g>
		<g>
			<path class="st3" d="M177.36,56.26c0.07-0.65,3.81-1.26,3.63,0C180.82,57.52,177.3,56.91,177.36,56.26L177.36,56.26z
				 M174.01,53.53c-1.15,0.33-1.38-4.46-1.02-4.58C173.35,48.83,175.16,53.2,174.01,53.53L174.01,53.53z M164.97,52.35
				c-0.94,1.78,7.2,3.82,7.5,4.39c0.3,0.57-3.74,4.27-0.56,6.49c3.18,2.23,3.47-4.07,4.1-4.37c0.63-0.3,4.46,3.8,5.27,3.12
				c0.81-0.67-2.52-3.08-2.34-3.87c0.18-0.8,4.03,0.62,3.66-2.41c-0.38-3.03-4.66-0.9-5.9-1.75c-1.23-0.85-1.37-7.44-4.1-6.89
				c-2.72,0.55-0.09,6.16-0.77,6.77C171.16,54.45,165.91,50.57,164.97,52.35L164.97,52.35z M172.94,62.29
				c-0.72-0.01-0.29-4.12,1.02-4.14C175.26,58.12,173.65,62.3,172.94,62.29z"/>
			<path class="st4" d="M174.32,55.8c-0.44-0.3-1.05-0.2-1.38,0.22c-0.33,0.42-0.24,1,0.19,1.3c0.43,0.3,1.05,0.2,1.38-0.22
				C174.84,56.68,174.76,56.1,174.32,55.8z"/>
		</g>
		<g>
			<path class="st3" d="M162.5,51.12c-0.39-0.53,2.12-3.24,2.83-2.18C166.04,50.01,162.89,51.66,162.5,51.12L162.5,51.12z
				 M158.04,51.06c-0.67,0.94-4.09-2.58-3.89-2.88C154.35,47.87,158.71,50.12,158.04,51.06L158.04,51.06z M150.18,55.58
				c0.46,1.92,8.2-1.41,8.82-1.16c0.62,0.25-0.04,5.5,3.95,5.29c3.99-0.21-0.05-5.18,0.25-5.79c0.3-0.6,6.04,0.22,6.22-0.78
				c0.18-1-4.04-0.83-4.44-1.55c-0.4-0.72,3.57-1.95,1.23-4.03c-2.34-2.08-4.25,2.11-5.78,2.2c-1.53,0.1-6.09-4.84-7.85-2.79
				c-1.76,2.05,4.09,4.75,3.97,5.62C156.43,53.47,149.72,53.66,150.18,55.58L150.18,55.58z M163.12,58.37
				c-0.57,0.42-3.01-2.96-2.01-3.77C162.12,53.8,163.68,57.95,163.12,58.37z"/>
			<path class="st4" d="M159.81,52.6c-0.54,0.03-0.96,0.48-0.93,1c0.03,0.52,0.49,0.91,1.03,0.88c0.54-0.03,0.96-0.48,0.93-1
				C160.82,52.96,160.36,52.57,159.81,52.6z"/>
		</g>
		<g>
			<path class="st3" d="M164.24,28.54c-0.46-0.48,1.65-3.48,2.5-2.51C167.6,26.99,164.7,29.01,164.24,28.54L164.24,28.54z
				 M159.8,29.03c-0.53,1.01-4.42-2.03-4.27-2.36C155.68,26.35,160.34,28.02,159.8,29.03L159.8,29.03z M152.64,34.49
				c0.73,1.84,7.94-2.43,8.6-2.25c0.65,0.18,0.74,5.44,4.67,4.73c3.93-0.71-0.78-5.12-0.57-5.76c0.21-0.64,6.03-0.54,6.06-1.55
				c0.03-1.01-4.13-0.32-4.63-0.97c-0.5-0.66,3.27-2.38,0.65-4.14c-2.62-1.76-3.92,2.62-5.43,2.91c-1.51,0.29-6.74-4.03-8.19-1.77
				c-1.45,2.25,4.73,4.19,4.74,5.06C158.55,31.62,151.91,32.66,152.64,34.49L152.64,34.49z M165.88,35.63
				c-0.5,0.49-3.41-2.55-2.52-3.47C164.24,31.23,166.38,35.14,165.88,35.63z"/>
			<path class="st4" d="M161.79,30.33c-0.54,0.1-0.89,0.59-0.79,1.1c0.1,0.51,0.62,0.84,1.15,0.74c0.53-0.1,0.88-0.59,0.78-1.1
				C162.83,30.56,162.32,30.23,161.79,30.33z"/>
		</g>
		<g>
			<path class="st3" d="M218.79,36.21c-0.65-0.21-0.27-3.78,0.98-3.31C221.01,33.37,219.43,36.43,218.79,36.21L218.79,36.21z
				 M215.08,38.61c0.03,1.12-4.95,0.18-4.97-0.18C210.08,38.08,215.05,37.49,215.08,38.61L215.08,38.61z M211.43,46.56
				c1.57,1.29,5.86-5.64,6.53-5.78c0.67-0.14,3.37,4.44,6.51,2.08c3.14-2.36-3.24-4.14-3.37-4.79c-0.13-0.65,5.1-3.14,4.63-4.04
				c-0.47-0.9-3.84,1.55-4.61,1.19c-0.77-0.36,1.72-3.53-1.48-3.91c-3.21-0.39-2.18,4.03-3.38,4.95c-1.2,0.92-8-0.55-8.17,2.07
				c-0.18,2.61,6.29,1.57,6.74,2.34C215.25,41.43,209.86,45.27,211.43,46.56L211.43,46.56z M223.78,41.7
				c-0.21,0.65-4.31-0.73-3.98-1.93C220.13,38.57,223.98,41.05,223.78,41.7z"/>
			<path class="st4" d="M217.5,38.87c-0.43,0.33-0.49,0.91-0.15,1.31c0.34,0.4,0.96,0.46,1.39,0.14c0.42-0.32,0.49-0.91,0.15-1.31
				C218.54,38.61,217.92,38.55,217.5,38.87z"/>
		</g>
		<g>
			<path class="st3" d="M211.63,55.16c-0.65-0.21-0.26-3.77,0.98-3.31C213.86,52.32,212.28,55.38,211.63,55.16L211.63,55.16z
				 M207.93,57.56c0.03,1.12-4.95,0.17-4.97-0.18C202.92,57.03,207.9,56.44,207.93,57.56L207.93,57.56z M204.27,65.51
				c1.57,1.29,5.86-5.64,6.53-5.77c0.66-0.14,3.37,4.44,6.51,2.08c3.14-2.36-3.24-4.14-3.37-4.79c-0.13-0.65,5.1-3.14,4.62-4.04
				c-0.47-0.9-3.84,1.55-4.61,1.19c-0.77-0.36,1.72-3.53-1.48-3.91c-3.21-0.39-2.18,4.03-3.38,4.95c-1.2,0.91-8-0.55-8.18,2.07
				c-0.17,2.62,6.29,1.57,6.74,2.34C208.1,60.38,202.71,64.22,204.27,65.51L204.27,65.51z M216.62,60.65
				c-0.21,0.65-4.3-0.73-3.98-1.93C212.97,57.52,216.83,60,216.62,60.65z"/>
			<path class="st4" d="M210.34,57.82c-0.42,0.32-0.49,0.91-0.15,1.31c0.34,0.4,0.96,0.46,1.39,0.14c0.43-0.32,0.49-0.91,0.15-1.31
				C211.38,57.56,210.76,57.5,210.34,57.82z"/>
		</g>
		<g>
			<path class="st3" d="M198.18,69.13c0.06-0.65,3.81-1.26,3.63,0C201.64,70.39,198.12,69.78,198.18,69.13L198.18,69.13z
				 M194.83,66.4c-1.14,0.33-1.37-4.46-1.02-4.58C194.17,61.7,195.97,66.07,194.83,66.4L194.83,66.4z M185.79,65.21
				c-0.94,1.77,7.2,3.82,7.5,4.39c0.3,0.57-3.74,4.27-0.56,6.5c3.18,2.23,3.47-4.07,4.1-4.37c0.63-0.3,4.46,3.79,5.27,3.12
				c0.81-0.67-2.52-3.08-2.34-3.87c0.18-0.8,4.03,0.62,3.66-2.41c-0.38-3.03-4.66-0.9-5.9-1.75c-1.23-0.85-1.37-7.44-4.1-6.89
				c-2.73,0.55-0.09,6.16-0.77,6.77C191.97,67.32,186.73,63.44,185.79,65.21L185.79,65.21z M193.76,75.15
				c-0.72-0.01-0.29-4.12,1.02-4.14C196.08,70.99,194.47,75.17,193.76,75.15z"/>
			<path class="st4" d="M195.14,68.67c-0.43-0.3-1.05-0.2-1.38,0.22c-0.33,0.42-0.24,1,0.19,1.3c0.44,0.3,1.05,0.2,1.38-0.22
				C195.66,69.55,195.58,68.97,195.14,68.67z"/>
		</g>
		<g>
			<path class="st3" d="M193.82,47.76c-0.46-0.48,1.65-3.48,2.51-2.51C197.19,46.22,194.28,48.24,193.82,47.76L193.82,47.76z
				 M189.38,48.26c-0.53,1.01-4.42-2.03-4.27-2.36C185.27,45.57,189.92,47.25,189.38,48.26L189.38,48.26z M182.22,53.72
				c0.73,1.84,7.95-2.43,8.6-2.25c0.65,0.17,0.74,5.44,4.67,4.73c3.93-0.71-0.78-5.12-0.57-5.76c0.21-0.63,6.03-0.54,6.07-1.55
				c0.03-1.01-4.13-0.32-4.63-0.97c-0.5-0.66,3.27-2.37,0.65-4.14c-2.62-1.76-3.92,2.62-5.43,2.91c-1.51,0.29-6.74-4.03-8.19-1.78
				c-1.46,2.25,4.73,4.19,4.74,5.07C188.13,50.84,181.49,51.88,182.22,53.72L182.22,53.72z M195.46,54.85
				c-0.5,0.49-3.41-2.55-2.52-3.47C193.82,50.46,195.96,54.37,195.46,54.85z"/>
			<path class="st4" d="M191.37,49.56c-0.53,0.1-0.88,0.59-0.78,1.1c0.1,0.51,0.62,0.84,1.15,0.74c0.54-0.1,0.88-0.6,0.78-1.1
				C192.41,49.79,191.9,49.46,191.37,49.56z"/>
		</g>
		<g>
			<path class="st1" d="M226.43,49.06c-1.11,0.55-2.51-8.62-3.92-7.99c-1.41,0.63-0.72,4.94-1.48,6.01
				c-0.76,1.06-5.17-1.31-5.48-0.17c-0.3,1.15,6.03,3.21,6.67,4.13c0.64,0.92-1.26,8.37,0.43,8.64c1.68,0.27,1.18-6.33,2.78-6.75
				c1.6-0.41,6.61,6.3,7.8,5.41c1.19-0.89-4.71-5.95-4.46-7.28c0.25-1.33,6.04-6.37,4.98-7.55
				C232.69,42.33,227.55,48.5,226.43,49.06z"/>
			<path class="st2" d="M224.71,48.45c-0.92,0.13-1.57,3.8,0.09,3.44C226.46,51.52,225.63,48.32,224.71,48.45z"/>
		</g>
		<g>
			<path class="st3" d="M227.85,67.43c0.54-0.41,3.54,1.74,2.45,2.49C229.2,70.68,227.3,67.84,227.85,67.43L227.85,67.43z
				 M227.7,63.23c-1.02-0.56,2.53-4.04,2.86-3.88C230.89,59.51,228.72,63.79,227.7,63.23L227.7,63.23z M222.53,56.19
				c-2.01,0.59,1.89,7.6,1.65,8.21c-0.24,0.6-5.82,0.4-5.4,4.13c0.42,3.73,5.49-0.45,6.14-0.22c0.66,0.23,0.06,5.7,1.13,5.79
				c1.07,0.09,0.69-3.87,1.43-4.3c0.74-0.43,2.24,3.2,4.32,0.84c2.09-2.36-2.44-3.83-2.62-5.27c-0.17-1.44,4.84-6.11,2.58-7.61
				c-2.26-1.5-4.83,4.22-5.76,4.17C225.07,61.9,224.53,55.61,222.53,56.19L222.53,56.19z M220.2,68.58
				c-0.47-0.5,2.99-3.06,3.89-2.18C224.99,67.28,220.67,69.08,220.2,68.58z"/>
			<path class="st4" d="M226.15,65.02c-0.06-0.51-0.56-0.86-1.1-0.8c-0.55,0.07-0.94,0.53-0.88,1.04c0.06,0.51,0.56,0.86,1.1,0.8
				C225.82,65.99,226.21,65.53,226.15,65.02z"/>
		</g>
		<g>
			<path class="st3" d="M192.17,29.06c0-0.65,3.68-1.58,3.62-0.31C195.74,30.02,192.17,29.71,192.17,29.06L192.17,29.06z
				 M188.56,26.63c-1.11,0.42-1.8-4.32-1.46-4.47C187.45,22.01,189.68,26.21,188.56,26.63L188.56,26.63z M179.44,26.22
				c-0.77,1.85,7.55,3.19,7.9,3.73c0.35,0.54-3.32,4.56,0.07,6.51c3.39,1.94,3.07-4.35,3.67-4.69c0.6-0.35,4.81,3.39,5.55,2.66
				c0.74-0.74-2.81-2.85-2.7-3.66c0.1-0.81,4.08,0.27,3.41-2.71c-0.67-2.98-4.74-0.5-6.05-1.23c-1.31-0.74-2.08-7.28-4.75-6.5
				c-2.67,0.77,0.5,6.14-0.12,6.8C185.8,27.79,180.2,24.38,179.44,26.22L179.44,26.22z M188.34,35.43
				c-0.72,0.05-0.68-4.07,0.62-4.21C190.26,31.09,189.05,35.38,188.34,35.43z"/>
			<path class="st4" d="M189.09,28.86c-0.46-0.26-1.07-0.11-1.36,0.34c-0.29,0.45-0.15,1.02,0.32,1.28
				c0.46,0.26,1.07,0.11,1.36-0.34C189.7,29.69,189.56,29.12,189.09,28.86z"/>
		</g>
		<g>
			<path class="st3" d="M182.86,34.87c0-0.65,3.68-1.58,3.62-0.31C186.43,35.83,182.86,35.52,182.86,34.87L182.86,34.87z
				 M179.26,32.44c-1.11,0.42-1.8-4.32-1.46-4.47C178.15,27.82,180.37,32.02,179.26,32.44L179.26,32.44z M170.13,32.03
				c-0.77,1.85,7.55,3.19,7.9,3.73c0.35,0.54-3.32,4.57,0.06,6.51c3.39,1.94,3.07-4.35,3.67-4.69c0.6-0.35,4.81,3.4,5.55,2.66
				c0.74-0.74-2.8-2.84-2.7-3.65c0.1-0.81,4.08,0.27,3.41-2.7c-0.67-2.98-4.73-0.5-6.05-1.24c-1.31-0.74-2.08-7.28-4.75-6.51
				c-2.67,0.78,0.5,6.14-0.12,6.8C176.5,33.6,170.9,30.19,170.13,32.03L170.13,32.03z M179.03,41.24c-0.71,0.05-0.68-4.07,0.62-4.2
				C180.95,36.9,179.74,41.19,179.03,41.24z"/>
			<path class="st4" d="M179.79,34.67c-0.46-0.26-1.07-0.11-1.36,0.33c-0.29,0.45-0.15,1.02,0.32,1.28
				c0.46,0.26,1.07,0.11,1.36-0.34C180.39,35.51,180.25,34.93,179.79,34.67z"/>
		</g>
		<g>
			<path class="st3" d="M139.61,38.84c-0.42-0.51,1.91-3.36,2.69-2.33C143.08,37.54,140.03,39.35,139.61,38.84L139.61,38.84z
				 M135.15,39.03c-0.61,0.97-4.25-2.33-4.07-2.65C131.25,36.07,135.76,38.06,135.15,39.03L135.15,39.03z M127.59,43.99
				c0.59,1.88,8.1-1.87,8.74-1.66c0.63,0.22,0.32,5.48,4.29,5.05c3.97-0.44-0.38-5.17-0.12-5.79c0.26-0.62,6.05-0.13,6.16-1.13
				c0.11-1.01-4.09-0.6-4.54-1.29c-0.45-0.69,3.44-2.15,0.97-4.09c-2.47-1.94-4.11,2.35-5.64,2.53c-1.53,0.18-6.4-4.48-8.02-2.34
				c-1.63,2.15,4.39,4.5,4.33,5.38C133.7,41.53,127,42.11,127.59,43.99L127.59,43.99z M140.69,46.04c-0.54,0.45-3.2-2.79-2.24-3.64
				C139.4,41.54,141.23,45.59,140.69,46.04z"/>
			<path class="st4" d="M137.02,40.47c-0.54,0.06-0.92,0.53-0.86,1.05c0.06,0.52,0.55,0.88,1.08,0.82c0.54-0.06,0.92-0.53,0.86-1.05
				C138.05,40.77,137.56,40.41,137.02,40.47z"/>
		</g>
		<g>
			<path class="st1" d="M141.33,49.37c0.61,1.02-9.1,2.77-8.4,4.07c0.69,1.3,5.26,0.45,6.4,1.11c1.14,0.66-1.3,4.94-0.08,5.17
				c1.22,0.23,3.3-5.83,4.26-6.47c0.97-0.65,8.9,0.79,9.15-0.81c0.26-1.6-6.74-0.81-7.2-2.3c-0.47-1.49,6.57-6.52,5.6-7.6
				c-0.97-1.08-6.23,4.71-7.65,4.54c-1.42-0.17-6.86-5.39-8.09-4.34C134.08,43.78,140.72,48.35,141.33,49.37z"/>
			<path class="st2" d="M140.71,51.02c0.15,0.86,4.06,1.3,3.64-0.25C143.94,49.23,140.56,50.16,140.71,51.02z"/>
		</g>
		<g>
			<path class="st1" d="M95.22,39.87c-0.51,1.08-7.7-5.16-8.4-3.84c-0.7,1.32,2.71,4.24,2.82,5.5c0.11,1.26-4.96,2.04-4.43,3.1
				c0.52,1.07,6.88-1.08,8.01-0.75c1.12,0.33,4.57,7.19,6.07,6.4c1.51-0.79-3.28-5.57-2.29-6.84c0.99-1.27,9.39,0.96,9.74-0.43
				c0.34-1.39-7.67-1.81-8.35-2.99c-0.69-1.18,0.54-8.47-1.08-8.75C95.69,30.99,95.73,38.78,95.22,39.87z"/>
			<path class="st2" d="M93.45,40.42c-0.64,0.64,1.29,3.85,2.36,2.59C96.88,41.75,94.09,39.77,93.45,40.42z"/>
		</g>
		<g>
			<path class="st3" d="M183.82,39.11c-0.69,0.05-1.85-3.34-0.5-3.38C184.66,35.69,184.5,39.07,183.82,39.11L183.82,39.11z
				 M181.41,42.69c0.5,1.01-4.49,2.03-4.66,1.71C176.58,44.1,180.92,41.68,181.41,42.69L181.41,42.69z M181.42,51.31
				c1.99,0.58,3.01-7.35,3.57-7.72c0.56-0.37,4.99,2.77,6.89-0.56c1.9-3.34-4.75-2.55-5.14-3.09c-0.4-0.54,3.36-4.79,2.55-5.43
				c-0.82-0.64-2.88,2.86-3.74,2.82c-0.86-0.03,0.1-3.86-3.03-3c-3.12,0.86-0.3,4.49-1.02,5.78c-0.72,1.29-7.61,2.52-6.66,4.96
				c0.95,2.45,6.47-0.94,7.21-0.41C182.77,45.2,179.43,50.73,181.42,51.31L181.42,51.31z M190.75,42.24
				c0.09,0.67-4.28,0.95-4.48-0.26C186.06,40.76,190.66,41.56,190.75,42.24z"/>
			<path class="st4" d="M183.75,42.02c-0.25,0.46-0.06,1.02,0.42,1.25c0.49,0.23,1.09,0.06,1.34-0.4c0.26-0.46,0.07-1.02-0.42-1.25
				C184.61,41.39,184.01,41.57,183.75,42.02z"/>
		</g>
		<g>
			<path class="st3" d="M162.08,19.63c-0.44-0.5,1.82-3.4,2.63-2.39C165.51,18.24,162.51,20.13,162.08,19.63L162.08,19.63z
				 M157.62,19.92c-0.59,0.98-4.31-2.23-4.14-2.55C153.65,17.05,158.2,18.94,157.62,19.92L157.62,19.92z M150.19,25.05
				c0.63,1.87,8.05-2.06,8.7-1.86c0.64,0.2,0.46,5.47,4.42,4.94c3.96-0.53-0.52-5.16-0.27-5.78c0.24-0.62,6.05-0.27,6.13-1.28
				c0.09-1.01-4.11-0.5-4.57-1.19c-0.47-0.68,3.38-2.22,0.86-4.11c-2.52-1.88-4.05,2.44-5.57,2.66c-1.52,0.22-6.52-4.33-8.09-2.15
				c-1.57,2.18,4.51,4.4,4.47,5.28C156.23,22.45,149.56,23.18,150.19,25.05L150.19,25.05z M163.35,26.79
				c-0.53,0.46-3.27-2.71-2.34-3.59C161.94,22.33,163.87,26.33,163.35,26.79z"/>
			<path class="st4" d="M159.53,21.31c-0.54,0.08-0.91,0.55-0.84,1.07c0.07,0.51,0.57,0.87,1.11,0.79c0.54-0.08,0.91-0.55,0.84-1.07
				C160.56,21.59,160.07,21.24,159.53,21.31z"/>
		</g>
	</g>
</g>
<g>
	<path class="st5" d="M148.42,180.94c-3.96-0.62-7.24,1.15-9.17,3.74c-0.77,1.04-1.32,2.2-1.62,3.4c-0.29,1.18-0.33,2.39-0.07,3.51
		c0.54,2.34,2.36,4.4,5.87,5.34c0.22,0.06,0.8,0.29,1.43,0.56c0.84,0.35,1.75,0.76,2.01,0.89l-0.78,1.67
		c-0.29-0.14-1.16-0.54-1.91-0.85c-0.56-0.24-1.06-0.44-1.2-0.48c-4.23-1.14-6.45-3.72-7.13-6.68c-0.33-1.44-0.29-2.94,0.07-4.4
		c0.35-1.44,1.02-2.85,1.94-4.09c2.29-3.09,6.18-5.19,10.85-4.46L148.42,180.94z"/>
	<g>
		<path class="st6" d="M166.54,171.36l-1.84-0.85c-2.82-0.44-7.05-2.05-9.67-1.38c-2.42,0.62-4.68,0.03-5.83,2.91
			c-1.95,4.88-3.12,17.48-4.48,22.94c-0.46,1.87-1.84,9.44-3.23,13.26c-0.18,0.49,0.38,1.32,0.45,1.78
			c7.8,5.28,17.72,4.48,27.66,4.72c0.59-3.73,1.17-12.16,0.72-15.74c-0.48-3.77-0.12-21.07-0.37-22.22
			C169.41,174.32,169.1,172.57,166.54,171.36z"/>
		<path class="st6" d="M167.52,209.71l0.63-7.43c2.36-1.39,24.37-26.45,25.63-27.05c0.31,0.19-0.58,1.6-0.28,1.71
			c0.11,0.41-4.05,5.98-4.63,6.77c-6.9,9.37-15.63,20.08-20.19,26.93C167.9,211.82,167.63,209.43,167.52,209.71z"/>
		<path class="st6" d="M190.32,170.37c-0.11,0.21,0.21,5.61,1.7,7.03c2.35,2.24,5.02,0.12,7.94-0.08c0.12-0.18,0.08-0.16,0.29-0.24
			C199.51,175.59,192.05,171.76,190.32,170.37z"/>
	</g>
	<g>
		<path class="st7" d="M194.43,178.42c0.3,0.01,0.61-0.02,0.91-0.07c0.28-0.22,0.58-0.4,0.92-0.49c0.29-1.26,1.16-1.67,1.52-2.83
			c-0.2-0.13-0.41-0.27-0.63-0.41c-0.54,0.5-0.95,1.19-1.14,2.18C195.47,177.21,194.62,177.63,194.43,178.42z"/>
		<path class="st7" d="M197.67,177.77c0.44-0.12,0.89-0.24,1.34-0.33c0.05-0.23,0.08-0.48,0.07-0.75c0.18-0.11,0.35-0.22,0.52-0.34
			c-0.14-0.12-0.29-0.25-0.46-0.38c-0.35,0.4-0.76,0.71-1.33,0.8L197.67,177.77z"/>
		<path class="st7" d="M161.32,169.75l-0.21-0.05c-0.01,0.05-0.01,0.1-0.01,0.15C161.17,169.82,161.25,169.78,161.32,169.75z"/>
		<path class="st7" d="M190.32,170.37c-0.01,0.02-0.02,0.12-0.02,0.28c0.11,0,0.2-0.03,0.27-0.09
			C190.48,170.49,190.39,170.43,190.32,170.37z"/>
		<g>
			<path class="st7" d="M193.68,176.02c-0.15,0.42-0.34,0.86-0.19,0.92c0.02,0.07-0.08,0.27-0.26,0.57
				c-0.16,0.13-0.31,0.26-0.46,0.38c-0.06,0.17-0.04,0.27-0.01,0.37c-0.21,0.32-0.45,0.68-0.71,1.05c-0.34,0.27-0.67,0.55-0.8,1.13
				l-0.35,0.48c-1.31,0.49-1.4,2.75-2.84,3.07c0.07,1.02-0.7,0.82-0.7,1.73l-0.04,0.06c-0.49,0.09-0.98,0.17-0.95,1
				c-0.62,0.16-1.13,0.46-1.65,0.76c-0.1,1.16-0.58,2.41-1.42,1.96c0.47-1.41,1.49-2.04,2.05-3.31c0.36,0.06,0.77,0.18,0.97,0.01
				c0.07-2.18,1.72-3.23,3.13-4.02c0.08-2.49,2.35-3.04,3.15-5.03c0.34,0.07,0.46-0.16,0.72-0.18c0.18-0.38-0.13-0.4-0.02-0.73
				C193.45,176.18,193.57,176.11,193.68,176.02z"/>
			<path class="st7" d="M192.35,177.68c0.14,0.11,0.27,0.2,0.41,0.28c0.01-0.02,0.01-0.05,0.02-0.07c1.22-0.99,2.79-2.34,3.13-4.02
				l0.02-0.01c-0.19-0.12-0.38-0.23-0.57-0.35c-0.7,0.88-1.03,2.29-2.04,2.71c-0.11,0.33,0.2,0.35,0.02,0.73
				c-0.27,0.02-0.39,0.25-0.72,0.18C192.54,177.33,192.45,177.51,192.35,177.68z"/>
		</g>
		<path class="st7" d="M157.4,169.01c-0.44-0.04-0.87-0.06-1.28-0.04c-0.15,0.18-0.32,0.34-0.52,0.46c-0.23,0.51,0.27,0.46,0.14,0.9
			c-0.32,0-0.59,0.08-0.86,0.16c-0.19,0.47,0.16,0.64-0.13,0.85c-0.23-0.04-0.45-0.07-0.68-0.11c0.1,1.13-0.81,0.81-0.83,1.76
			c0.49,0.14,0.44-0.52,1.02-0.28c0.21-1.1,0.94-1.43,1.67-1.77c0.04-0.24,0.07-0.47,0.11-0.71
			C156.68,170.14,157.09,169.63,157.4,169.01z"/>
		<path class="st7" d="M166.11,171.15l-0.5-0.23c-0.13,0.28-0.25,0.58-0.36,0.89C165.6,171.73,165.89,171.48,166.11,171.15z"/>
		<g>
			<path class="st7" d="M184.46,185.08c1.2-1.32,2.36-2.58,3.43-3.74c-0.55,0.77-1.15,1.45-1.59,2.37
				C185.38,183.72,185.19,184.78,184.46,185.08z"/>
			<path class="st7" d="M191.1,175.72c0.12,0.36,0.26,0.69,0.41,0.98c0.06-0.01,0.13-0.01,0.2,0c0.52-1.45,1.64-2.05,2.1-3.6
				c-0.27-0.04-0.11-0.41-0.5-0.37C192.57,173.72,191.83,174.72,191.1,175.72z"/>
		</g>
		<path class="st7" d="M159.63,169.36c-0.31-0.06-0.62-0.13-0.93-0.18c-0.92,1.28-2.1,2.2-2.81,3.78c0.36,0.06,0.77,0.18,0.97,0.01
			C156.77,170.98,158.96,170.77,159.63,169.36z"/>
		<path class="st7" d="M163.79,170.33c-0.25-0.05-0.5-0.11-0.75-0.17c-0.46,0.45-0.88,0.97-1.03,1.87c-1.2,0.24-1.65,1.57-2.23,2.71
			c0.45,0.48,1.16,0.12,1.08-0.7c0.89-0.12,0.85-1.14,1.4-1.82c0.21-0.26,0.59-0.14,0.75-0.32
			C163.31,171.54,163.64,170.9,163.79,170.33z"/>
		<path class="st7" d="M154.19,169.3c-0.41,0.07-0.82,0.12-1.21,0.18c-0.58,0.68-1.02,1.56-1.62,2.2c-0.77,1.66-2.22,2.34-3.17,3.75
			c-0.13,0.57-0.26,1.17-0.39,1.79c1.15-1.03,2.27-2.1,3-3.73c0.27-0.02,0.39-0.25,0.72-0.18c0.18-0.51-0.14-0.65,0.04-1.16
			c0.26-0.09,0.41-0.34,0.86-0.15C152.88,170.9,153.79,170.47,154.19,169.3z"/>
		<path class="st7" d="M167.99,172.29c-0.18-0.16-0.37-0.31-0.59-0.46c-0.37,0.78-1.24,1.16-1.09,2.04
			C166.97,173.49,167.52,172.95,167.99,172.29z"/>
		<path class="st7" d="M161.17,170.3c0.08,0.67-0.66,0.6-0.88,0.3C160.46,170.32,160.76,170.23,161.17,170.3z"/>
		<path class="st7" d="M169.18,173.98c-0.1-0.24-0.22-0.47-0.36-0.69c-0.2,0.19-0.32,0.42-0.19,0.81c-1.08,0.53-2.15,1.08-2.39,2.83
			c-0.74,0.91-1.61,1.63-2.46,2.38c-0.11,0.33,0.2,0.35,0.02,0.73c-0.87,0.25-1.62,0.68-1.83,1.9c-0.72,0.47-1.28,1.17-1.49,2.39
			c-1.38,1.09-2.24,2.93-3.56,4.1c-0.05,0.33-0.1,0.66-0.16,0.99c-0.76,0.99-1.87,1.48-2.39,2.82c0.21,0.32,0.63,0.17,0.95,0.15
			c0.37-1.97,2.33-1.64,2.43-3.98c0.77,0,0.82-1.02,1.56-1.07c0.05-0.33,0.1-0.66,0.16-0.99c1.2-0.14,1.21-1.97,2.19-2.42
			c0.1-0.41-0.24-0.48-0.14-0.9c1.13-0.09,1.1-2.25,2.35-1.67c0.79-2.46,3.08-2.76,3.54-5.7C167.94,175,168.6,174.54,169.18,173.98z
			"/>
		<path class="st7" d="M160.42,171.49c-0.53,0.52-0.78,1.43-1.62,1.49C157.91,171.99,159.6,170.44,160.42,171.49z"/>
		<path class="st7" d="M163.89,173.35c-0.11,0.37-0.83,0.55-0.68-0.11C163.55,173.28,163.67,173.04,163.89,173.35z"/>
		<path class="st7" d="M166.1,174.28c-0.38,0.79-0.96,1.29-1.19,2.29c-0.47-0.04-0.71,0.26-1.26,0.09c-0.06-0.67,0.41-0.57,0.79-0.6
			c-0.06-0.37-0.06-0.79,0.06-1.3C165.25,174.97,165.42,173.6,166.1,174.28z"/>
		<path class="st7" d="M158.73,173.41c0.02,0.57-0.57,0.72-0.77,0.46c0.02-0.14,0.04-0.28,0.07-0.43
			C158.35,173.56,158.37,173.23,158.73,173.41z"/>
		<path class="st7" d="M156,173.13c-0.04,0.58-0.2,0.98-0.7,0.91C155.14,173.52,155.34,172.94,156,173.13z"/>
		<path class="st7" d="M144,198.31c-0.08,0.39-0.17,0.8-0.26,1.22c2.48-1.53,2.94-5.33,5.62-6.35c0.19-0.84,0.68-0.9,0.68-1.64
			c1.32-0.28,2.08-1.78,2.41-2.97c1.44-1.41,2.61-3.2,3.95-4.76c0.07-0.26-0.1-0.34-0.05-0.59c1.22-0.1,1.28-1.87,2.19-2.42
			c-0.08-0.42-0.05-0.61,0.16-0.99c2.1-0.92,3.12-3.39,4.35-5.57c-0.94-0.11-1.45,1.04-1.4,1.82c-0.88,0.25-1.57,0.75-1.71,2.06
			c-1.56,0.83-2.6,2.41-3.34,4.42c-1.33,0.53-1.86,2.2-2.87,3.19c-0.04,0.28-0.09,0.57-0.13,0.85c-0.73,0.16-0.9,1.14-1.6,1.35
			c-0.05,0.33-0.1,0.66-0.16,0.99c-0.7,0.32-1.31,0.78-1.42,1.96c-0.5,0.73-1.51,0.72-1.58,2.08c-0.2,0.17-0.65-0.01-0.86,0.16
			c-0.62,1.2-1.6,1.87-2.5,2.66C145.36,196.99,144.55,197.6,144,198.31z"/>
		<path class="st7" d="M153.22,173.13c0.14,0.06,0.05,0.3,0.23,0.33c-0.27,0.94-0.75,1.59-1.65,1.63c-0.11,1.64-1.41,1.57-1.6,3.1
			c-0.56-0.26-0.83,0.35-1.11-0.03C150.4,176.38,151.33,174.06,153.22,173.13z"/>
		<path class="st7" d="M170.04,179c0-0.28-0.01-0.54-0.01-0.78c-0.03,0-0.07,0-0.1,0c-0.04,0.24-0.07,0.47-0.11,0.71
			C169.9,178.97,169.97,178.99,170.04,179z"/>
		<path class="st7" d="M169.3,176.09c0.29-0.01,0.34,0.16,0.52,0.23c-0.16,0.23-0.33,0.45-0.75,0.32
			C169.06,176.33,169.22,176.28,169.3,176.09z"/>
		<path class="st7" d="M157.04,174.45c0.18,0.03,0.36,0.06,0.54,0.09C157.66,175.06,156.72,175.08,157.04,174.45z"/>
		<path class="st7" d="M155.5,174.5c-0.14,1.02-0.91,1.12-1.49,1.51c-0.15,0.86-0.81,1.79-1.71,2.06c0.11-1.25,1.32-2.37,2.09-3.6
			C154.83,174.58,155.01,174.31,155.5,174.5z"/>
		<path class="st7" d="M159.84,175.19c-0.09,0.4-0.33,0.57-0.77,0.46c0.02-0.14,0.04-0.28,0.07-0.43
			C159.32,175.13,159.54,175.09,159.84,175.19z"/>
		<path class="st7" d="M169.16,176.94c0.02,0.72-0.35,0.89-0.95,0.72C168.21,176.97,168.63,176.87,169.16,176.94z"/>
		<path class="st7" d="M156.52,175.1c0.14,0.02,0.27,0.04,0.41,0.06c-0.36,2.46-2.56,3.72-3.45,6.01c-0.18,0.09-0.39,0.13-0.7,0.04
			c-0.3,0.96-0.89,1.5-1.67,1.77c0.15-1.82,1.68-1.64,1.91-3.34C154.53,178.62,155.55,176.89,156.52,175.1z"/>
		<path class="st7" d="M158.42,176.27c0.4,1.54-1.19,3.14-2.25,3.72c-0.07,1.41-0.71,1.99-1.6,2.22c-0.17,1.5-1.04,1.99-2.03,2.3
			c-0.03-0.35-0.09-0.68,0.04-1.16c0.86,0.08,0.94-0.97,1.81-0.88c-0.25-1.29,0.51-2.16,1.47-2.24c0.05-0.86,0.32-1.4,0.58-1.94
			c0.43,0.09,0.51-0.31,0.99-0.13C157.44,177.48,158.05,176.91,158.42,176.27z"/>
		<path class="st7" d="M163.4,177.35c-1.25,2.67-2.86,4.82-4.67,6.69c-0.36-0.06-0.78-0.07-0.93-0.29c1.29-0.82,1.57-3.08,3.07-3.59
			C161.38,178.74,161.91,177.35,163.4,177.35z"/>
		<path class="st7" d="M168.37,178.42c0.28,1.03-0.9,1.33-1.62,1.49c-0.23,0.63,0.23,0.74,0.07,1.32c-0.48,0.88-1.46,1.03-2.08,1.71
			c-0.03,1.17-0.61,1.56-1.03,2.17c-0.56-0.12-0.68,0.13-1.09-0.17c0.73-0.58,0.95-1.88,1.53-2.67c0.32,0.05,0.44-0.18,0.84-0.01
			C166.09,180.94,166.12,178.08,168.37,178.42z"/>
		<path class="st7" d="M169.8,179.08c0.23,0.07,0.27,0.29,0.18,0.61c-0.14-0.02-0.27-0.04-0.41-0.06
			C169.56,179.32,169.72,179.26,169.8,179.08z"/>
		<path class="st7" d="M170.06,182.9l0-0.64c-0.14,0.22-0.28,0.42-0.44,0.58C169.8,182.9,169.94,182.91,170.06,182.9z"/>
		<path class="st7" d="M169.14,180.58c0.07,0.46-0.69,1.05-1.06,1.43c-0.01,0.52,0.09,0.85-0.2,1.28c-2.11,0.04-1.97,3.32-3.79,3.77
			c-0.13,1.5-1.26,1.55-1.44,2.97c-1.27-0.38-0.79,1.77-2.15,1.26c-0.02-0.55,0.43-0.42,0.65-0.63c1.23-3.16,3.57-4.72,5.07-7.5
			c0.53-0.34,1.03-0.73,1.67-0.9C167.85,181.34,168.14,180.44,169.14,180.58z"/>
		<path class="st7" d="M151.94,178.6c-0.18,0.36-0.63,1.73-1.4,1.82c-0.18,0.86-1.12,1.94-1.92,2.46c-0.06-1.25,0.69-2.22,1.76-2.34
			C149.93,179.43,150.85,178.5,151.94,178.6z"/>
		<path class="st7" d="M149.39,178.93c-0.24,1.05-1.04,1.29-1.9,1.45c-0.01-0.94,0.7-0.84,0.81-1.62
			C148.72,178.84,149.12,178.54,149.39,178.93z"/>
		<path class="st7" d="M169.44,183.1c0.37,0.06,0.22,0.72,0,0.87C169.07,183.91,169.23,183.25,169.44,183.1z"/>
		<g>
			<path class="st7" d="M170.49,203.16c0-0.24,0.01-0.48,0-0.71c-0.37,0.43-0.74,0.86-1.1,1.3c-1.07,1.47-2.06,3.07-3.09,4.61
				c0.54,0.25,1.15-0.74,1.81-0.88c0.42-1.06,0.76-2.22,1.44-2.97c0.15-0.17,0.61-0.13,0.75-0.32c0.15-0.21-0.13-0.51-0.02-0.73
				C170.32,203.36,170.39,203.26,170.49,203.16z"/>
			<path class="st7" d="M167.7,207.67l0.14-1.64c0.51-0.77,1.02-1.54,1.56-2.28c1.35-1.66,2.84-3.11,3.76-5.38
				c2.45-1.11,2.86-5.18,5.41-6.13c0.03-0.34,0.09-0.64,0.17-0.91c0.6-0.66,1.21-1.32,1.82-1.99c0.18-0.07,0.38-0.14,0.58-0.19
				c0.06-0.19,0.04-0.32,0-0.44l0.65-0.71c0.03-0.01,0.06-0.02,0.09-0.04l-0.01-0.05l1.8-1.97c0.35,0.94-0.71,1.19-1.52,2.07
				c-0.66,0.72-0.58,2.02-1.67,1.77c0.04,0.82-0.44,0.88-0.74,1.19c-0.17,0.42,0.06,0.54,0,0.88c-0.78,0.85-1.73,1.45-2.57,2.21
				c-0.91,2.17-1.78,4.41-3.61,5.25c-0.26,0.86-0.54,0.92-0.99,1.88c-0.46,0.98-1.97,1.57-2.3,2.26c-0.11,0.22,0.18,0.52,0.02,0.73
				c-0.13,0.19-0.59,0.15-0.75,0.32c-0.68,0.75-1.02,1.92-1.44,2.97C167.97,207.51,167.83,207.58,167.7,207.67z"/>
		</g>
		<path class="st7" d="M147.17,180.62c-0.07,0.41-0.14,0.82-0.21,1.23c0.14-0.42,0.42-0.65,0.48-1.19L147.17,180.62L147.17,180.62z
			 M146.88,182.36l-0.02,0.12l0.02-0.01C146.88,182.43,146.88,182.39,146.88,182.36z"/>
		<path class="st7" d="M170.06,186.77l0-0.99c-0.25,0.37-0.47,0.76-0.66,1.1C169.76,187.04,169.95,186.95,170.06,186.77z"/>
		<path class="st7" d="M162.55,185.36c-0.18,0.69-0.55,0.94-0.4,1.68c-1.53-0.12-1.17,2.5-2.62,2.5c-0.29-1.65,1.6-2.83,2.21-4.31
			C162.15,185.37,162.32,185.01,162.55,185.36z"/>
		<path class="st7" d="M157.4,184.55c0.48,0.29,0,1.59-0.18,2.01c-0.42-0.1-0.5-0.45-0.72-0.7
			C156.62,185.18,157.2,185.13,157.4,184.55z"/>
		<path class="st7" d="M146.53,184.6l-0.25,1.63c0.08-0.16,0.16-0.32,0.23-0.48c0.89-0.11,1.53-1.5,1.38-2.55
			C147.45,183.69,146.96,184.1,146.53,184.6z"/>
		<path class="st7" d="M150.41,183.89c0.31,1.08-1.18,2.45-2.12,2.87c0.09,0.18,0.12,0.41,0.02,0.73c-0.53-0.18-0.6,0.29-1.13,0.11
			c-0.25-0.67,0.4-0.71,0.95-0.72C148.07,185.34,149.57,184.69,150.41,183.89z"/>
		<path class="st7" d="M167.23,186.53c0.16,0.09,0.25,0.23,0.2,0.47c-0.92-0.19-1.14,1.44-1.83,1.02
			C165.75,186.95,166.69,187.02,167.23,186.53z"/>
		<path class="st7" d="M168.95,187.1c0.23,0.07,0.27,0.29,0.18,0.61c-0.15-0.05-0.25-0.01-0.29,0.1c-0.23-0.07-0.27-0.29-0.18-0.61
			C168.81,187.24,168.91,187.2,168.95,187.1z"/>
		<path class="st7" d="M152.34,184.92c-0.3,1.31-0.82,2.3-1.92,2.46c0,0.87-0.43,1.12-0.79,1.48c-1.06-1.31,1.4-1.41,1.31-3
			C151.74,186.03,151.51,184.71,152.34,184.92z"/>
		<path class="st7" d="M183.01,191.47l-0.52,0.68c-0.6,0.24-0.93,0.86-1.68,0.88c-0.7-1.53,1.48-1.31,1.44-2.98
			c0.23-0.13,0.58-0.09,0.75-0.32C183.37,190.27,183.17,190.77,183.01,191.47z"/>
		<path class="st7" d="M170.07,190.07l0-0.93c-1.09,1.12-2.09,2.6-2.32,3.88c0.87-0.72,1.7-1.5,2.12-2.87
			C169.93,190.13,170,190.11,170.07,190.07z"/>
		<path class="st7" d="M157.02,186.97c-0.12,0.61-0.28,0.22-0.72,0.18c-1.09,0.99-1.33,3.19-2.91,3.47c0.08,1.04-0.72,0.82-0.7,1.78
			c-0.79-0.03-0.98,0.8-1.56,1.07c0.6-2.4,3.57-4.48,4.66-6.69C156.21,186.69,156.72,186.76,157.02,186.97z"/>
		<path class="st7" d="M168.42,188.76c-0.4,0.52-0.62,1.32-1.45,1.23C167.06,189.02,167.54,188.6,168.42,188.76z"/>
		<path class="st7" d="M164.98,188.51c0.14,0.02,0.27,0.04,0.41,0.06c0.18,1.06-1.24,1.52-0.99,2.75c-0.94,0.1-1.14,1.26-2.03,1.43
			c0.18-0.84,0.32-1.43,0.77-2.21C164.11,190.39,164.83,189.85,164.98,188.51z"/>
		<path class="st7" d="M170.1,193.42c-0.01-0.36-0.01-0.73-0.01-1.1c-0.57,0.76-0.98,1.77-1.75,2.25c-0.01,0.34,0.07,0.61,0.14,0.89
			c-0.17,0.35-0.84-0.05-0.9,0.44C168.61,196.07,169.91,194.83,170.1,193.42z"/>
		<path class="st7" d="M159.51,189.69c-1.29,1.51-1.93,3.95-3.68,4.81c0.17,1.32-1.35,1.32-1.42,2.83
			c-1.62,0.51-2.04,2.76-3.59,3.36c-0.74,1.62-1.43,3.11-2.98,3.9c-0.02,1.19-0.78,1.31-1.15,2c-0.24-1.75,1.64-4.01,3.25-4.73
			c-0.17-0.53,0.08-1.05,0.59-1.07c0.07-1.89,2.34-1.92,2.48-4.27c1.35-0.73,2.02-2.44,3.29-3.27c0.04-2.14,2.01-1.52,2.21-3.44
			c0.2-0.11,0.44-0.17,0.61-0.34C159.22,189.57,159.32,189.66,159.51,189.69z"/>
		<path class="st7" d="M180.79,193.18c0.18,0.07,0.06,0.37,0.05,0.59c-0.23,0.18-0.92,0.07-1.08-0.17
			C179.86,193.13,180.63,193.59,180.79,193.18z"/>
		<path class="st7" d="M145.8,189.28c-0.11,0.69-0.22,1.35-0.33,1.98c0.81-0.7,1.1-2.15,1.65-3.23c-0.89-0.11-0.33,1-1.26,0.97
			C145.85,189.1,145.82,189.19,145.8,189.28z"/>
		<path class="st7" d="M149.43,189.27c-0.51,0.54-0.87,1.3-1.74,1.33c0.05-0.86,0.95-0.49,0.92-1.45
			C149.03,189.27,149.2,188.91,149.43,189.27z"/>
		<g>
			<path class="st7" d="M170.33,207.34c0.03-0.48,0.05-0.95,0.07-1.43c-1.16,1.99-2.77,3.32-3.75,5.56
				c0.21,0.32,0.49,0.12,0.81,0.13C168,209.58,169.56,209.02,170.33,207.34z"/>
			<path class="st7" d="M167.88,210.58c-0.13-0.28-0.22-0.64-0.28-0.8c0.92-1.37,2.02-2.48,2.86-3.96c0.24,0.06,0.31-0.13,0.57-0.06
				c1.29-2.61,2.86-4.82,4.67-6.69c0.33-1.73,1.6-2.11,2.55-2.95c-0.21-1.1,0.35-2,1.4-1.82c-0.4,1.3-1.11,3.62-2.68,3.8
				c-0.77,1.9-1.9,3.3-3.31,4.28c-0.58,1.9-1.66,3.07-2.98,3.9C170.24,208.44,168.73,209.04,167.88,210.58z"/>
		</g>
		<path class="st7" d="M160.22,191.4c0.34,0.96-0.94,2.26-0.72,3.67c0.48-0.42,1.15-0.55,1.44-1.23c0.23,1.95-1.73,3.31-2.79,4.51
			c-0.14-0.96,1.98-2.16,0.94-3.34c-2.47,0.34-3.1,3.31-4.33,5.43c-1.19,0.26-1.5,1.79-2.35,2.54c-0.05,0.33-0.1,0.66-0.16,0.99
			c-0.94-0.43-0.81,0.69-1.72,0.31c-0.2-1.58,1.69-1.61,1.89-3.2c0.42-0.33,0.91-0.55,1.04-1.29c0.24,0.06,0.31-0.13,0.56-0.06
			c0.35-1.47,1.42-1.9,1.78-3.36c0.58-0.09,0.65-0.92,1.26-0.97C157.9,193.76,159.11,192.64,160.22,191.4z"/>
		<path class="st7" d="M170.19,197.07c-0.01-0.28-0.02-0.58-0.03-0.9c-0.99,0.6-1.59,1.75-2.36,2.68c0.07,0.32,0.26,0.56,0.75,0.55
			c0.43-0.37,0.19-0.65,0.36-1.4C169.38,197.76,169.81,197.44,170.19,197.07z"/>
		<path class="st7" d="M144.96,193.93c-0.08,0.37-0.16,0.72-0.24,1.04c-0.05,0.22-0.12,0.52-0.2,0.87c0.14-0.05,0.26-0.14,0.42-0.16
			c0.2-2.3,2-2.19,2.5-4.41c-1.25-0.06-1.76,1.7-2.05,2.44C145.25,193.77,145.1,193.84,144.96,193.93z"/>
		<path class="st7" d="M166.5,194.72c-0.03,0.36-0.28,0.41-0.38,0.67c-0.44,0-0.5-0.29-0.77-0.41
			C165.51,194.56,165.97,194.58,166.5,194.72z"/>
		<path class="st7" d="M154.12,193.06c-0.97,2.09-2.63,3.18-3.61,5.25c-0.23-0.03-0.45-0.07-0.68-0.11
			c0.33-1.17,1.34-1.42,1.37-2.55C152.42,195.15,152.57,193.09,154.12,193.06z"/>
		<path class="st7" d="M163.48,194.53c-0.69,0.92-0.92,2.51-2.21,2.56C161.7,195.8,162.26,194.7,163.48,194.53z"/>
		<g>
			<path class="st7" d="M170.44,200.25c-0.02-0.46-0.06-0.88-0.11-1.25c-1.08,1.23-2.2,2.4-3.04,3.98
				c-0.01,0.34,0.43,0.34,0.29,0.77c-0.89,0-1.07,1.01-1.62,1.49c1.12,0.49,1.53-1.5,2.51-1.79
				C168.85,202,169.6,201.07,170.44,200.25z"/>
			<path class="st7" d="M168.03,203.72l0.12-1.44c0.47-0.27,1.69-1.46,3.37-3.2l-0.03,0.2c-1.2,1.11-2.47,2.12-3.02,4.18
				C168.31,203.51,168.16,203.6,168.03,203.72z"/>
		</g>
		<path class="st7" d="M165.51,195.72c-0.99,0.46-0.96,1.76-1.4,2.69c-1.05-0.01-1.53,0.81-1.71,2.06
			c-0.37,0.15-0.59,0.26-0.97-0.01c0.11-1.29,0.83-1.71,1.69-1.92C163.18,197.25,164.34,195.39,165.51,195.72z"/>
		<path class="st7" d="M150.91,194.01c-0.18,0.84-0.69,1.21-1.33,1.39c-0.05,0.33-0.1,0.66-0.16,0.99
			c-0.32,0.05-0.75,0.32-0.97-0.01C149.3,195.63,149.45,193.89,150.91,194.01z"/>
		<path class="st7" d="M167.44,196.75c-1.04,1.87-2.35,3.35-3.68,4.81c-0.27-1.06,0.99-2.68,2.01-3.03
			C166,197.47,166.49,196.79,167.44,196.75z"/>
		<path class="st7" d="M161.31,197.68c0.01,0.54-0.31,0.59-0.77,0.46C160.6,197.69,160.97,197.71,161.31,197.68z"/>
		<path class="st7" d="M168.19,199.93c-0.08,0.71-1.41,0.58-1.22-0.19C167.5,199.96,167.89,199.52,168.19,199.93z"/>
		<path class="st7" d="M148.52,196.83c0.07,0.64-0.52,0.79-0.77,0.46C147.91,197,148.11,196.77,148.52,196.83z"/>
		<path class="st7" d="M157.83,198.59c0.11,0.08,0.22,0.16,0.23,0.33c-1.76,2.58-3.95,4.53-5.25,7.76c-0.19,0.14-0.5,0.08-0.84,0.01
			c-0.47,0.83-0.81,1.86-1.71,2.06c-0.22,1.08-0.79,1.65-1.56,1.94c-0.22,0.61-0.38,1.31-1.26,0.97c1.51-2.94,3.98-4.49,5.36-7.6
			c0.3-0.21,0.74-0.21,1.04-0.42C154.52,201.01,156.21,199.84,157.83,198.59z"/>
		<path class="st7" d="M160.14,198.95c-0.48,1.58-1.11,3.2-2.77,3.49c-0.04-0.64,0.4-0.59,0.68-0.77
			C158.48,200.39,158.82,198.97,160.14,198.95z"/>
		<path class="st7" d="M166.81,200.73c-0.54,0.7-1.01,1.44-1.08,2.45c-0.8,0.18-0.84,1.46-1.87,1.31c0.04-1.3,1.29-2.31,2.14-3.01
			C166.01,200.86,166.2,200.49,166.81,200.73z"/>
		<path class="st7" d="M147.77,198.03c-0.16,0.29-0.41,0.45-0.88,0.3C147.06,198.04,147.31,197.88,147.77,198.03z"/>
		<path class="st7" d="M161.61,201.08c-2.13,3.09-4.42,5.94-6.9,8.52c0.17,1.69-1.44,2.18-2.16,3.15c-0.31-0.1-0.24-0.49-0.46-0.65
			c0.6-1.23,1.73-1.69,2.16-3.15c1.51-0.49,1.76-2.81,3.41-3.1c0.26-2.25,2.27-3.3,3.29-5.01
			C161.28,200.83,161.47,200.93,161.61,201.08z"/>
		<path class="st7" d="M142.99,202.91c-0.25,1.05-0.51,2.09-0.78,3.05c0.88-1.15,1.44-2.77,2.52-3.62
			c-0.02-0.86,0.79-0.79,0.52-1.52c0.82,0.02,2.07-1.45,1.01-2.02c-0.45,0.63-1.18,0.86-1.28,1.98
			C144.16,201.28,143.55,202.06,142.99,202.91z"/>
		<path class="st7" d="M162.07,202.6c0.04,2.24-2.24,4.79-4.01,6.06c-0.16,1.66-1.97,2.35-2.57,3.96c-0.34-0.03-0.66-0.08-0.79-0.27
			c0.52-1.22,1.25-2.15,2.35-2.54c0.66-1.43,1.13-2.4,2.44-3.11C160.03,204.89,161.17,203.93,162.07,202.6z"/>
		<path class="st7" d="M156.35,203.6c0.29,0.07,0.23,0.4,0.16,0.75c-0.2,0.17-0.67,0.09-0.81-0.13
			C155.84,203.91,156.21,203.91,156.35,203.6z"/>
		<path class="st7" d="M163.92,204.93c-0.4,0.73-0.8,2.28-1.78,1.61C162.75,206.11,162.97,204.3,163.92,204.93z"/>
		<path class="st7" d="M170.12,210.27l0.03-0.41c-0.07,0.09-0.11,0.22-0.11,0.4L170.12,210.27z"/>
		<path class="st7" d="M155.13,204.28c1.04,1.64-1.11,3.87-2.36,4.43c-0.19,1.07-0.66,1.72-1.42,1.96c-0.05,0.33-0.1,0.66-0.16,0.99
			c-0.78-0.04-1.23,1.19-1.81,0.88c0.34-1.83,1.97-1.8,2.25-3.72c0.2-0.12,0.52-0.06,0.72-0.18
			C152.9,206.63,154.63,206.34,155.13,204.28z"/>
		<path class="st7" d="M146.13,203.15c-0.53,1.15-0.89,2.55-1.87,3.05c-0.29-0.19-0.36-0.56-0.25-1.06
			c0.27-0.02,0.39-0.25,0.72-0.18C144.47,203.99,145.3,202.53,146.13,203.15z"/>
		<path class="st7" d="M158.31,214.52c0.37,0.02,0.75,0.03,1.12,0.05c0.15-0.27,0.26-0.6,0.35-0.98c1.64-0.48,1.45-2.64,3.14-3.15
			c0.11-0.33-0.2-0.35-0.02-0.73c0.84-0.2,1.49-1.14,1.33-2.26c0.26,0.17,0.67-0.27,0.34-0.38c-0.81,0.72-2.24,1.18-2.1,2.73
			c-0.26,0.15-0.52,0.31-1,0.14C160.36,211.38,159.37,213,158.31,214.52z"/>
		<path class="st7" d="M155.6,214.33c0.31,0.03,0.62,0.05,0.94,0.08c0.4-0.33,0.83-0.61,1.31-0.83c0.59-1.64,1.98-2.15,2.32-4.15
			c0.49-0.16,0.78-0.61,1.24-0.82c-0.1-0.78,0.69-1.53,0.16-1.87c-0.81,0.3-0.91,1.48-1.06,2.31c-1.61,0.99-2.86,2.5-3.76,4.5
			c-0.31,0.08-0.47,0.37-0.88,0.3C155.77,214.01,155.68,214.17,155.6,214.33z"/>
		<path class="st7" d="M150.25,205.26c-0.17,1.99-1.97,2.06-2.21,3.44c-0.31,0.03-0.93,0.21-0.93-0.29
			C148.17,207.36,148.55,205.36,150.25,205.26z"/>
		<path class="st7" d="M143.38,206.5c0.54,0.33-0.49,1.22-0.79,1.48C142.19,207.22,143.1,206.86,143.38,206.5z"/>
		<path class="st7" d="M142.92,210.63c0.07,0.04,0.14,0.08,0.21,0.12c0.82-0.14,1.57-0.76,1.39-1.74c0.48-0.56,1.22-1.56,1.31-2.12
			c-0.37-0.18-0.38,0.15-0.7,0.04C144.61,208.48,143.57,209.27,142.92,210.63z"/>
		<path class="st7" d="M166.45,214.69l0.76,0.01c0.35-0.29,0.61-0.72,0.5-1.17c1.15-0.3,1.75-1.39,2.33-2.52l0-0.02
			C168.14,211.2,167.64,213.44,166.45,214.69z"/>
		<path class="st7" d="M141.52,208.84c0.06,0.2,0.15,0.42,0.23,0.62c0.14-0.64,0.79-0.53,0.81-1.34
			C142.02,208.08,141.77,208.45,141.52,208.84z"/>
		<path class="st7" d="M144.64,211.57c0.15,0.07,0.3,0.14,0.44,0.21c0.57-0.96,1.16-1.9,2.17-2.48c-0.91-1.06-1.28,0.84-2.1,0.98
			c-0.06,0.33,0.17,0.45,0,0.87C144.98,211.29,144.8,211.42,144.64,211.57z"/>
		<path class="st7" d="M160.29,214.6c0.33,0.01,0.66,0.02,0.99,0.03c0.87-0.75,2.36-1.45,1.98-2.82c-0.13-0.02-0.27-0.04-0.41-0.06
			c0.04,1.2-1.11,0.88-0.74,2.07c-0.58,0.22-1.27,0.26-1.76,0.6C160.33,214.48,160.31,214.54,160.29,214.6z"/>
		<path class="st7" d="M165.5,212.6c0.11,0.08,0.22,0.16,0.23,0.33c-0.62,0.3-1.26,1.39-1.85,1.16c0.26-0.56,0.71-0.84,0.92-1.46
			C165.01,212.59,165.47,212.91,165.5,212.6z"/>
		<path class="st7" d="M169.04,214.73l0.57,0.01c0.03-0.18,0.06-0.38,0.09-0.59C169.36,214.17,169.18,214.43,169.04,214.73z"/>
		<path class="st7" d="M153.16,214.04c0.28,0.04,0.56,0.08,0.85,0.11c0.21-0.53,0.33-1.05,0.35-1.42
			C153.91,213.1,153.51,213.55,153.16,214.04z"/>
		<path class="st7" d="M146.69,212.45l0.21,0.08c0.14-0.17,0.51-0.01,0.46-0.45c-0.22-0.31-0.34-0.07-0.68-0.11
			C146.64,212.17,146.63,212.34,146.69,212.45z"/>
		<path class="st7" d="M190.51,173.02c0.05,0.38,0.12,0.78,0.2,1.17c0.52-0.73,0.91-1.56,1.09-2.42c0.11-0.07,0.22-0.13,0.33-0.2
			c-0.13-0.08-0.26-0.16-0.39-0.24C191.29,171.84,190.89,172.43,190.51,173.02z"/>
		<path class="st7" d="M148.07,200.55c-0.24-0.35,0.06-0.8,0.29-0.97c0.7,0.39,0.01,0.8-0.31,1.12c0.29,0.78-0.32,2.16-1.53,1.8
			c0.37-0.45,0.88-0.71,0.83-1.76C147.76,200.91,147.8,200.57,148.07,200.55z"/>
	</g>
	<g>
		<g>
			<path class="st8" d="M148.21,175.33l-0.01,0.03L148.21,175.33L148.21,175.33L148.21,175.33z M147.77,177.38
				c-0.04,0.17-0.07,0.35-0.1,0.52c0.64-0.43,1.32-0.65,2.02-0.58c0,0.29-0.15,0.72-0.39,1.25c0-0.16-0.01-0.29-0.04-0.38l-0.1-0.25
				l-0.21,0.17c-0.56,0.48-1.15,1.29-1.74,2.3c-0.07,0.39-0.13,0.79-0.2,1.18c0.63-1.25,1.29-2.28,1.9-2.91
				c-0.02,0.23-0.07,0.54-0.16,0.92c-0.46,0.8-1.05,1.73-1.72,2.69l-0.18,0.25c-0.05,0.29-0.09,0.58-0.14,0.88
				c0.22-0.3,0.43-0.6,0.63-0.9c0.36-0.52,0.7-1.04,1.02-1.53c-0.15,0.48-0.32,1-0.5,1.54c-0.52,1.53-1.16,3.23-1.74,4.68
				c-0.15,0.98-0.3,1.94-0.45,2.85c0.23-0.56,0.47-1.14,0.71-1.73c0.2-0.4,0.41-0.8,0.63-1.21c-0.51,1.28-1.02,2.6-1.49,3.87
				c-0.15,0.85-0.29,1.65-0.44,2.38c0.08-0.23,0.17-0.47,0.25-0.72c0.93-2.62,2.15-5.7,3.17-8.18c2.08-3.52,4.38-6.76,5.51-7.53
				c-0.15,0.62-0.57,1.78-1.17,3.25c-1.67,2.07-3.38,4.9-4.51,7.25l0,0c-0.64,1.33-1.1,2.51-1.25,3.31
				c-0.12,0.64-0.08,1.08,0.18,1.22c-0.92,1.12-1.74,1.94-2.36,2.27c-0.04,0.16-0.07,0.32-0.11,0.47c0.56-0.22,1.27-0.84,2.07-1.71
				c-1.03,1.93-1.97,3.52-2.65,4.35l-0.15,0.74c0.85-0.77,2.27-3.18,3.79-6.13l0.04-0.01c0.15-0.06,0.33-0.15,0.54-0.3
				c-0.2,0.98,0,1.42,0.76,0.99c0.32-0.18,0.79-0.62,1.44-1.36c-0.42,0.95-0.64,1.63-0.55,1.77l0,0.01l0,0l0.14,0.21l0.16-0.2
				c1.1-1.35,2.05-2.64,3-3.92c1.44-1.96,2.86-3.9,4.79-5.96c-0.68,1.52-1.59,2.9-2.53,4.31c-1.32,2-2.69,4.07-3.55,6.73l-0.21,0.64
				l0.51-0.42l0.06-0.05c-0.1,0.39-0.12,0.7-0.06,0.89c0.03,0.08,0.07,0.14,0.12,0.2l0.07,0.07l0.1-0.02
				c0.36-0.09,0.85-0.54,1.44-1.22c-1.04,2.35-1.8,4.5-2.03,5.97l-0.03,0.19l0.18,0.04c0.85,0.21,3.13-3.32,5.57-7.59
				c-0.31,0.92-0.44,1.64-0.31,2.02l0.04,0.13l0.13,0c0.29,0.01,0.73-0.35,1.24-0.97c-0.31,0.98-0.47,1.74-0.43,2.12
				c0.07,0.74,0.51,0.71,1.43-0.46c0.34-0.43,0.76-1.04,1.27-1.85c-0.37,1.1-0.53,1.98-0.38,2.52l0.11,0.4l0.23-0.34
				c0.43-0.62,0.91-1.43,1.41-2.36c0.34-0.06,0.77-0.39,1.24-0.91c-0.13,0.56-0.2,1.01-0.18,1.32c0.03,0.62,0.27,0.83,0.76,0.49
				c-0.02,0.19-0.03,0.36-0.02,0.5l0.01,0.16l0.16,0.03c1.52,0.24,3.63-2.51,5.56-5.34l0-0.69c-1.87,2.79-3.94,5.63-5.33,5.65
				c0.01-0.21,0.04-0.45,0.09-0.72c0.6-0.66,1.51-2,2.8-4.27c0.22-0.39,1.34-2.39,2.43-4.36l0-0.81c-1.18,2.14-2.52,4.54-2.77,4.97
				c-0.94,1.65-1.67,2.8-2.21,3.54c0.48-1.51,1.41-3.51,2.46-5.43c0.81-1.48,1.7-2.92,2.51-4.05l0-0.65
				c-0.92,1.22-1.93,2.84-2.85,4.51c-1.27,2.31-2.36,4.74-2.73,6.36c-0.06,0.06-0.12,0.12-0.18,0.17c-0.2,0.17-0.29,0.13-0.3-0.06
				c-0.02-0.41,0.12-1.12,0.38-2.01c0.55-0.72,1.14-1.62,1.74-2.6c1.45-2.41,2.93-5.31,3.79-7.12l0.15-0.31c0-0.47,0-0.92,0-1.35
				c-2.55,2.5-5.05,7.94-6.02,11.19l-0.02,0.06c-0.46,0.6-0.87,1.04-1.19,1.25c1.46-2.77,3.11-6.45,4.52-9.58
				c0.72-1.6,1.38-3.06,1.9-4.16l0.45-0.95l-0.57,0.54c0.15-0.29,0.28-0.57,0.37-0.83l-0.36-0.15c-0.19,0.43-0.67,1.3-1.31,2.43
				c-1.13,1.49-2.41,3.66-3.48,5.87c-0.36,0.75-0.7,1.51-1,2.25c-0.48,0.94-0.92,1.86-1.31,2.72c-1.08,1.84-1.88,3.05-2.44,3.77
				c-0.51,0.64-0.73,0.82-0.75,0.67c-0.04-0.42,0.2-1.38,0.65-2.65l0.05-0.16c-0.03,0.56,0.13,0.84,0.53,0.71
				c0.24-0.07,0.59-0.38,1.07-0.97c0.31-0.39,1.6-3.13,2.88-5.97c1.37-3.08,2.74-6.29,2.84-6.8l0.03-0.13
				c0.17-0.35,0.27-0.54,0.27-0.54l0-0.35l-0.29,0.18c-2.11,1.29-4.86,6.56-6.32,10.34c-0.5,1.12-0.93,2.19-1.27,3.13
				c-0.63,0.9-1.15,1.52-1.47,1.67c-0.07-0.74,0.62-2.5,1.59-4.57l0.07-0.16c0.98-1.77,1.93-3.54,2.79-5.14
				c1.15-2.13,2.13-3.94,2.73-4.96l0.01-0.01l0.29-0.47l-0.33-0.22l0,0l0,0l-0.02,0.03c-0.07,0.11-0.15,0.24-0.23,0.38l-0.03,0.05
				c-0.8,1.32-3.68,6.23-5.56,10.18c-2.74,4.98-5.58,9.86-6.61,10.32c0.33-1.75,1.34-4.34,2.64-7.09c0.35-0.49,0.73-1.02,1.11-1.59
				c2.52-3.77,5.45-9.02,6.24-10.5l0.71-1.33l-1.02,1.09c-0.55,0.58-1.18,1.4-1.85,2.37c0.09-0.27,0.16-0.53,0.21-0.76l0.07-0.36
				l-0.33,0.13c-0.32,0.13-0.77,0.54-1.29,1.14c-0.34,0.4-0.73,0.89-1.13,1.43c0.39-0.72,0.74-1.46,1.03-2.25l0.31-0.86l-0.63,0.64
				c-2.31,2.36-3.91,4.54-5.53,6.74c-0.79,1.08-1.59,2.17-2.49,3.29c0.2-0.48,0.54-1.2,0.96-2.05c0.15-0.19,0.31-0.4,0.48-0.62
				c0.53-0.7,1.2-1.81,1.88-3c0.92-1.64,1.86-3.45,2.43-4.62l0.36-0.73l-0.23,0.17c0.76-1.28,1.32-2.36,1.42-2.91l0.03-0.16
				l-0.14-0.06c-0.43-0.19-0.95-0.05-1.52,0.33c0.24-0.5,0.39-0.83,0.4-0.96l0-0.01l0-0.01l0.02-0.22l-0.21,0
				c-0.77,0.01-1.77,0.77-2.84,1.94c0.52-1.34,0.83-2.32,0.85-2.69l0.01-0.25l-0.24,0.05c-0.12,0.02-0.26,0.09-0.41,0.19
				c-0.93,0.62-2.63,2.86-4.36,5.56c0.4-0.94,0.71-1.66,0.87-2.04l0.49-1.11l0.51-1.18l-0.84,0.96c-0.76,0.88-1.72,2.86-2.71,5.14
				c0.15-0.43,0.3-0.85,0.44-1.26c0.37-1.09,0.68-2.1,0.87-2.9c0.67-1.19,1.05-2.16,0.96-2.67l-0.03-0.14l-0.13-0.02
				C149.16,176.83,148.44,176.99,147.77,177.38L147.77,177.38z M142.96,203.05l-0.11,0.46c0.42-0.08,0.63,0.54,0.66,1.48l0,0.04
				c-0.4,0.38-0.84,0.96-1.28,1.65c-0.06,0.09-0.12,0.19-0.18,0.28c0.16-0.6,0.29-1.17,0.35-1.68c-0.29,1.1-0.6,2.11-0.9,2.95
				c-0.06,0.15-0.04,0.34,0.01,0.53c0.33-0.66,0.69-1.3,1.05-1.87c0.33-0.51,0.65-0.96,0.95-1.3c-0.01,0.33-0.04,0.68-0.09,1.05
				c-0.1,0.17-0.2,0.35-0.3,0.53c-0.44,0.8-0.87,1.65-1.26,2.49c0.05,0.12,0.09,0.24,0.1,0.34c0.04,0.03,0.09,0.06,0.13,0.09
				c0.35-0.78,0.75-1.57,1.15-2.33c-0.13,0.66-0.3,1.34-0.5,1.99c-0.07,0.21-0.14,0.42-0.21,0.62c0.22,0.14,0.44,0.27,0.66,0.4
				c0.75-2.01,1.36-4.23,1.52-5.45c0.45-0.66,0.88-1.17,1.24-1.44l0,0c0.14-0.1,0.26-0.17,0.36-0.19c-0.05,0.67-0.29,2.04-0.63,3.6
				c-0.47,0.74-0.9,1.51-1.29,2.31c-0.23,0.48-0.45,0.98-0.65,1.47c0.23,0.12,0.46,0.24,0.69,0.36c0.12-0.24,0.25-0.49,0.38-0.74
				l0.01-0.02c-0.08,0.28-0.16,0.55-0.25,0.82c0.12,0.06,0.23,0.12,0.35,0.17c0.23-0.74,0.46-1.55,0.67-2.35
				c0.54-0.89,1.13-1.75,1.72-2.49c0.26-0.33,0.53-0.64,0.79-0.91c-0.29,1.24-0.84,3.03-1.53,4.72c-0.2,0.5-0.42,1-0.64,1.47
				c0.12,0.05,0.24,0.1,0.36,0.15c0.22-0.47,0.44-0.96,0.64-1.46c0.81-2,1.43-4.13,1.67-5.37c0.41-0.37,0.8-0.63,1.15-0.74
				c0.25-0.08,0.47-0.08,0.66,0.01c0,0.31-0.05,0.7-0.14,1.16c-0.02,0.13-0.05,0.27-0.08,0.4c-1.12,1.55-2.87,4.05-3.88,6.01
				c0.12,0.05,0.24,0.09,0.36,0.14c0.81-1.55,2.1-3.46,3.15-4.95c-0.54,1.12-1.07,2.38-1.53,3.63c-0.11,0.29-0.21,0.58-0.31,0.87
				c-0.15,0.27-0.31,0.52-0.46,0.76c0.19,0.06,0.38,0.12,0.57,0.18c0.08-0.26,0.16-0.52,0.25-0.78c0.14-0.26,0.29-0.52,0.42-0.8
				c0.62-1.25,1.17-2.7,1.54-3.97c0.43-0.87,0.85-1.66,1.25-2.3l0,0c0.02-0.03,0.03-0.06,0.03-0.08l0.15-0.96l-0.51,0.82l-0.12,0.2
				c-0.06,0.07-0.14,0.16-0.24,0.3l-0.14,0.2c0.06-0.36,0.08-0.68,0.07-0.94l0-0.1l-0.08-0.06c-0.31-0.23-0.67-0.25-1.07-0.12
				c-0.3,0.1-0.61,0.28-0.94,0.54c0.02-0.25,0.02-0.43-0.03-0.52l-0.08-0.17l-0.17,0.07l-0.57,0.25l-0.04,0.02l-0.03,0.03
				c-0.53,0.59-1.03,1.22-1.51,1.9c0.27-1.33,0.44-2.43,0.45-2.91l0-0.14l-0.13-0.05c-0.25-0.1-0.54,0-0.86,0.24l0,0
				c-0.3,0.23-0.64,0.6-0.99,1.07l-0.09-0.04c-0.18-0.08-0.38-0.06-0.59,0.04c-0.05,0.02-0.1,0.05-0.15,0.08
				C143.81,203.67,143.52,203,142.96,203.05L142.96,203.05z M149.39,213.29c0.86-1.44,1.77-3.14,2.5-4.54
				c0.35-0.68,0.68-1.31,0.95-1.83c0.13-0.25,0.24-0.46,0.31-0.59l0.21-0.39l0.34,0.19l0,0l0,0l-0.03,0.06
				c-0.14,0.27-0.27,0.52-0.42,0.8l-0.12,0.22l-0.06,0.12c-0.22,0.44-0.5,0.97-0.81,1.56c-0.72,1.4-1.53,3.06-2.19,4.57
				C149.84,213.41,149.61,213.35,149.39,213.29L149.39,213.29z M151.03,213.68c0.35-0.6,0.72-1.22,1.08-1.85
				c0.22-0.39,0.45-0.78,0.66-1.17c0.92-2.24,1.87-4.23,2.34-4.71l0.37-0.37l-0.04,0.53c-0.03,0.42-1.06,2.46-2.32,4.73
				c-0.23,0.56-0.46,1.14-0.67,1.71c-0.17,0.44-0.33,0.89-0.48,1.32c-0.13-0.02-0.26-0.05-0.39-0.07c0.08-0.22,0.16-0.45,0.24-0.68
				c-0.13,0.22-0.26,0.44-0.38,0.65C151.3,213.73,151.17,213.7,151.03,213.68L151.03,213.68z M153.11,214.04
				c0.57-1.28,1.13-2.72,1.67-4.11c0.81-2.08,1.57-4.03,2.24-5.14l0.51-0.83l-0.15,0.97c-0.03,0.16-0.07,0.4-0.14,0.69
				c0.94-1.49,1.89-2.58,2.75-2.9c0.22-0.08,0.44-0.11,0.65-0.09l0.1,0.01l0.05,0.09c0.11,0.21,0.15,0.59,0.12,1.1
				c-0.02,0.36-0.08,0.81-0.16,1.3c1.76-2.88,3.59-5.16,4.87-5.38l0.26-0.04l-0.04,0.27c-0.05,0.36-0.14,0.77-0.26,1.24
				c0.1-0.16,0.2-0.32,0.29-0.48c1.52-2.45,3.02-4.48,4.25-5.41l0.01,0.47c-1.12,0.94-2.51,2.86-3.94,5.16
				c-0.37,0.6-0.75,1.23-1.12,1.87c-0.48,1.4-1.15,3.02-1.89,4.66c-1.17,2.6-2.53,5.24-3.64,7.08c-0.26-0.01-0.51-0.02-0.77-0.03
				c1.13-2.66,3.48-7.61,5.95-11.88c0.32-0.93,0.55-1.76,0.67-2.42c-1.29,0.5-3.13,3.02-4.87,6.01c-0.33,1.59-0.86,3.51-1.46,5.33
				c-0.34,1.03-0.72,2.03-1.1,2.92l-0.41-0.02c0.39-0.91,0.78-1.94,1.14-3.02c0.45-1.35,0.85-2.75,1.17-4.03
				c-1.33,2.41-2.55,4.98-3.34,6.99l-0.39-0.03c0.9-2.32,2.36-5.38,3.93-8.09l0.1-0.18c0.19-0.91,0.31-1.7,0.34-2.29
				c0.02-0.35,0.01-0.62-0.03-0.78c-0.12,0-0.24,0.03-0.37,0.07c-0.97,0.35-2.1,1.85-3.19,3.8c-0.49,1.95-1.31,4.85-2.13,7.34
				l-0.4-0.05c0.62-1.87,1.23-3.98,1.71-5.74c-0.22,0.45-0.44,0.91-0.65,1.38c-0.65,1.44-1.23,2.93-1.7,4.28
				C153.55,214.1,153.33,214.07,153.11,214.04L153.11,214.04z M161.49,214.63c0.26-0.63,0.53-1.3,0.81-2
				c2.05-5.11,4.67-11.63,7.89-15.78c0.01,0.21,0.02,0.42,0.03,0.61c-3.05,4.11-5.57,10.38-7.56,15.32
				c-0.26,0.64-0.51,1.26-0.75,1.85L161.49,214.63L161.49,214.63z M162.05,214.64c0.75-1.81,1.87-4.16,3.13-6.63
				c1.37-2.71,2.91-5.57,4.29-8.03c0.29-0.69,0.55-1.34,0.79-1.93c0.02,0.37,0.05,0.69,0.09,0.95c0.01,0.06,0.02,0.13,0.02,0.2
				c-0.18,0.32-0.37,0.65-0.56,0.99c-0.88,2.09-1.99,4.53-3.14,6.88c-1.42,2.92-2.9,5.72-4.04,7.58L162.05,214.64L162.05,214.64z
				 M163.5,214.66l0.45,0.01c0.9-1.46,1.93-3.29,3.02-5.23c1.13-2,2.33-4.13,3.51-6.09c0-0.26,0.01-0.52,0.01-0.77
				c-1.3,2.12-2.62,4.46-3.85,6.65C165.49,211.27,164.41,213.18,163.5,214.66L163.5,214.66z M165.75,214.68l0.42,0
				c1.19-2.63,2.73-5.67,4.22-8.5c0.02-0.3,0.03-0.61,0.04-0.91C168.79,208.37,167.06,211.78,165.75,214.68L165.75,214.68z
				 M168.7,214.72l0.45,0.01c0.19-0.29,0.39-0.59,0.59-0.89c0.04-0.28,0.07-0.57,0.11-0.88
				C169.46,213.57,169.07,214.16,168.7,214.72L168.7,214.72z M170.2,209.23c0.03-0.42,0.06-0.86,0.09-1.29
				c-0.44,0.67-0.79,1.25-1.01,1.72l-0.33,0.69l0.61-0.43C169.68,209.83,169.9,209.6,170.2,209.23L170.2,209.23z M170.1,193.97
				c-0.23,0.1-0.44,0.14-0.62,0.11l-0.1-0.02l-0.04-0.1c-0.18-0.39,0.16-1.3,0.73-2.44l0.01,0.84c-0.27,0.59-0.43,1.05-0.41,1.31
				c0.12-0.01,0.27-0.06,0.43-0.13L170.1,193.97L170.1,193.97z M149.24,181.66c-0.31,0.74-0.68,1.63-1.09,2.63
				c-0.12,0.2-0.24,0.41-0.35,0.61C148.29,183.74,148.78,182.62,149.24,181.66L149.24,181.66z M147.64,191.5l-0.07,0.09
				c-0.17-0.05-0.2-0.32-0.11-0.76c0.15-0.76,0.59-1.9,1.22-3.2l0,0c0.93-1.94,2.26-4.21,3.61-6.09c-0.99,2.34-2.28,5.18-3.59,7.84
				C148.34,190.11,147.99,190.82,147.64,191.5L147.64,191.5z M149.04,189.56c0.14-0.28,0.27-0.56,0.41-0.85
				c-0.12,0.28-0.23,0.54-0.34,0.8l-0.16,0.22L149.04,189.56L149.04,189.56z M153.19,180.34c1.1-1.36,2.16-2.34,2.97-2.54
				c-0.11,0.28-0.34,0.74-0.65,1.34c-1.36,1.26-2.91,3.55-4.21,5.89c-0.33,0.59-0.64,1.17-0.93,1.75
				C151.45,184.46,152.45,182.17,153.19,180.34L153.19,180.34z M150.33,187.75c0.39-0.81,0.83-1.67,1.31-2.52
				c1.01-1.81,2.15-3.58,3.2-4.85c-0.94,1.68-2.25,3.89-3.65,6.07C150.9,186.88,150.62,187.32,150.33,187.75L150.33,187.75z
				 M151.51,186.67c1.78-2.76,3.43-5.61,4.35-7.37c0.6-0.54,1.15-0.83,1.58-0.74c-0.23,0.77-1.14,2.35-2.23,4.05
				c-1.63,2.56-3.65,5.37-4.39,6.2c-0.66,0.73-1.21,1.3-1.67,1.73c0.1-0.27,0.2-0.55,0.33-0.86
				C150.15,188.73,150.84,187.71,151.51,186.67L151.51,186.67z M148.64,190.83c-0.02,0.08-0.05,0.15-0.07,0.22
				c-0.09,0.07-0.17,0.13-0.25,0.19C148.43,191.11,148.53,190.97,148.64,190.83L148.64,190.83z M151.1,189.09
				c0.35-0.39,0.97-1.21,1.71-2.23c-0.1,0.18-0.19,0.36-0.29,0.54c-0.45,0.84-0.88,1.69-1.25,2.46c-1.12,1.43-1.85,2.19-2.28,2.43
				c-0.31,0.18-0.3-0.24-0.08-1.01C149.47,190.81,150.19,190.1,151.1,189.09L151.1,189.09z M153.2,186.95
				c0.41-0.75,0.82-1.5,1.2-2.17c-0.28,0.52-0.57,1.04-0.85,1.55C153.44,186.54,153.32,186.75,153.2,186.95L153.2,186.95z
				 M153.72,191.36c-0.24,0.46-0.45,0.91-0.64,1.33C153.29,192.23,153.5,191.79,153.72,191.36L153.72,191.36z M153.38,192.96
				c0.39-0.86,0.92-1.89,1.53-2.96c1.38-2.44,3.13-5.08,4.38-6.53c0.29-0.33,0.54-0.6,0.76-0.78c-0.21,0.71-0.6,1.57-1.1,2.5
				c-0.42,0.68-0.85,1.4-1.27,2.14c-0.16,0.25-0.32,0.5-0.49,0.75C155.96,189.9,154.56,191.69,153.38,192.96L153.38,192.96z
				 M156,190.42L156,190.42c-0.41,0.8-0.81,1.6-1.18,2.39c-0.87,1.19-1.61,2.05-2.08,2.29c-0.04-0.23,0.05-0.63,0.24-1.16
				C153.87,193.07,154.94,191.82,156,190.42L156,190.42z M159.28,185.39c0.62-1,1.22-1.91,1.79-2.69c-1.18,2.09-2.98,5.19-4.67,7.79
				c0.51-0.99,1.05-1.97,1.58-2.92C158.46,186.83,158.9,186.09,159.28,185.39L159.28,185.39z M160.55,191.05l0.01-0.04
				c0.11-0.32,0.24-0.66,0.37-1.02c1.39-3.12,3.27-6.6,4.98-8.6c-1.18,2.28-3.36,6.39-5.25,9.46L160.55,191.05L160.55,191.05z
				 M160.99,191.07c1.41-2.31,3-5.23,4.21-7.53c-0.45,1.06-0.98,2.26-1.51,3.45c-1.26,2.82-2.53,5.52-2.82,5.88
				c-0.42,0.53-0.71,0.79-0.87,0.84c-0.06,0.02-0.07-0.17-0.02-0.51c0.03-0.21,0.08-0.47,0.15-0.76
				C160.4,192.02,160.7,191.56,160.99,191.07L160.99,191.07z M168.34,180.9L168.34,180.9c-0.41,0.89-0.86,1.9-1.34,2.97
				c-1.41,3.13-3.06,6.8-4.51,9.56c0.07-0.8,0.33-1.8,0.72-2.91C164.55,188.16,166.24,185,168.34,180.9L168.34,180.9z M162.35,192
				c-0.18,0.73-0.28,1.38-0.28,1.91l0,0.13l0.07,0.03c-0.36,0.66-0.7,1.25-1.02,1.75c0.04-0.86,0.5-2.2,1.2-3.78L162.35,192
				L162.35,192z M164.78,191.31c1.06-3.03,3.07-7.18,5.15-9.47c-0.1,0.23-0.23,0.49-0.36,0.78c-0.86,1.8-2.33,4.69-3.77,7.09
				C165.45,190.27,165.11,190.81,164.78,191.31L164.78,191.31z M165.52,208.2c-0.76,1.5-1.48,2.96-2.09,4.27
				c0.9-1.62,1.89-3.57,2.87-5.58c0.4-0.82,0.79-1.65,1.18-2.47C166.81,205.68,166.15,206.95,165.52,208.2L165.52,208.2z
				 M163.78,205.19c-1.76,3.25-3.35,6.57-4.32,8.79c1.06-1.8,2.31-4.24,3.39-6.65C163.18,206.61,163.49,205.89,163.78,205.19
				L163.78,205.19z M156.14,207.56c0.14-0.27,0.28-0.53,0.42-0.79c0.04-0.16,0.08-0.31,0.11-0.46
				C156.5,206.69,156.32,207.11,156.14,207.56L156.14,207.56z M151.89,208.76c0.32-0.61,0.6-1.16,0.84-1.61L151.89,208.76
				L151.89,208.76z M146.99,206.59c-0.38,0.48-0.76,1-1.13,1.55c0.05-0.23,0.1-0.45,0.15-0.67c0.61-0.95,1.28-1.84,1.98-2.63
				l0.29-0.13c-0.01,0.09-0.02,0.21-0.04,0.36c-0.01,0.05-0.02,0.11-0.03,0.17C147.81,205.61,147.4,206.07,146.99,206.59
				L146.99,206.59z M144.44,210.52c-0.12,0.23-0.24,0.46-0.36,0.69c0.19-0.48,0.4-0.95,0.63-1.41c0.2-0.42,0.42-0.83,0.65-1.24
				c-0.05,0.2-0.1,0.41-0.15,0.61C144.94,209.62,144.68,210.07,144.44,210.52L144.44,210.52z M144.16,206.16
				c-0.2,0.95-0.55,2.2-0.97,3.45c0.28-0.93,0.48-1.91,0.6-2.82C143.91,206.57,144.04,206.36,144.16,206.16L144.16,206.16z
				 M143.87,205.88c0.02-0.23,0.02-0.46,0.02-0.67c0.1-0.08,0.2-0.15,0.29-0.19c0.06-0.03,0.11-0.05,0.16-0.05
				c0,0.07-0.01,0.14-0.02,0.22C144.18,205.4,144.03,205.64,143.87,205.88z"/>
		</g>
		<path class="st8" d="M167.65,208.24l0.08-0.94c2.61-4.6,5.43-9.36,7.59-11.13l0.25-0.21l0.05,0.27l0.14-0.22
			c0.96-1.51,1.95-3.09,2.49-4.14l0.77-0.84c-0.23,0.91-1.62,3.12-2.94,5.2c-0.87,1.38-1.71,2.71-2.14,3.54
			c0.83-0.73,2.08-2.21,3.2-3.54c0.97-1.15,1.85-2.19,2.31-2.57l0.48-0.4l-0.18,0.61c-0.51,1.8-2.26,4.52-4.18,7.26
			c-2.48,3.26-4.73,6.29-6.46,8.84l0.16-0.33c0.61-1.27,2.15-3.4,3.86-5.78c2.32-3.21,4.95-6.86,5.96-9.31
			c-0.45,0.49-1.04,1.18-1.67,1.93c-1.44,1.7-3.09,3.65-3.88,4.05l-0.19,0.09c-1.52,2.79-3.56,6.57-5.35,10.18
			c-0.09-0.11-0.16-0.27-0.22-0.43c1.99-4,4.27-8.18,5.78-10.95l1.2-2.21C172.68,199.46,170.05,203.99,167.65,208.24L167.65,208.24z
			 M167.98,204.27c0.47-1.02,0.93-2.03,1.34-2.99c-0.5,0.48-0.88,0.81-1.11,0.96l-0.07,0.12L167.98,204.27L167.98,204.27z
			 M180.2,195.12l-0.01-0.08l-0.3,0.43l-0.64,0.89L180.2,195.12z"/>
	</g>
	<g>
		<path class="st9" d="M147.72,177.62c-0.06,0.3-0.12,0.61-0.18,0.92c2.33,0.81,4.6,1.39,6.91,1.79c4.78,0.83,9.69,0.9,15.6,0.7
			l0-0.93c-5.88,0.2-10.75,0.14-15.44-0.68C152.31,179.03,150.05,178.45,147.72,177.62z"/>
		<path class="st9" d="M142.23,205.9c-0.08,0.31-0.17,0.6-0.26,0.89c2.11,0.92,4.86,1.79,7.76,2.53c5.64,1.45,11.87,2.43,15.02,2.38
			c0.82-0.01,2.91-0.07,5.26-0.15c0.03-0.3,0.06-0.61,0.09-0.93c-2.37,0.09-4.5,0.14-5.33,0.15c-3.08,0.05-9.22-0.92-14.8-2.35
			C147.04,207.68,144.29,206.81,142.23,205.9z"/>
	</g>
	<path class="st10" d="M152.92,171.1c-2.24-0.7-3.14,3.45-2.91,4.81c2.35,1.3,18,3.1,18.49,1.98
		C169.49,172.07,154.82,170.59,152.92,171.1z"/>
</g>
<g>
	<path class="st11" d="M34.45,37.38c-0.01,0.02-0.01,0.04-0.02,0.04c-0.27,0.16-0.53,0.34-0.8,0.48c-0.65,0.33-1.28,0.68-1.95,0.95
		c-0.42,0.17-0.84,0.33-1.28,0.45c-0.32,0.09-0.63,0.21-0.95,0.31c-0.66,0.21-1.32,0.43-2.01,0.52c-0.4,0.05-0.8,0.09-1.2,0.11
		c-0.74,0.03-1.49,0.02-2.23-0.08c-0.45-0.06-0.9-0.14-1.32-0.31c-0.49-0.2-0.84-0.55-1-1.06c-0.03-0.1-0.05-0.2-0.07-0.29
		c-0.07-0.25-0.01-0.48,0.15-0.68c0.06-0.08,0.12-0.16,0.2-0.23c0.44-0.41,0.93-0.74,1.49-0.96c0.84-0.33,1.71-0.51,2.62-0.51
		c0.66,0,1.33-0.03,1.99,0.06c0.65,0.09,1.29,0.19,1.94,0.29c0.56,0.09,1.11,0.18,1.66,0.29c0.39,0.07,0.77,0.15,1.15,0.25
		c0.45,0.12,0.91,0.19,1.36,0.28C34.27,37.31,34.37,37.32,34.45,37.38z"/>
	<path class="st11" d="M34.42,35.01c-0.73,0.08-1.34,0.38-1.82,0.91c-0.28-0.07-0.55-0.13-0.82-0.22c-0.33-0.11-0.67-0.22-1-0.34
		c-0.2-0.07-0.4-0.14-0.59-0.22c-0.57-0.22-1.15-0.44-1.71-0.68c-0.68-0.29-1.38-0.56-2.04-0.91c-0.38-0.2-0.72-0.45-1.01-0.75
		c-0.4-0.42-0.7-0.91-0.86-1.47c-0.12-0.4-0.13-0.82,0.04-1.21c0.04-0.09,0.09-0.19,0.16-0.25c0.35-0.35,0.76-0.59,1.27-0.62
		c0.41-0.02,0.8,0.03,1.2,0.1c0.58,0.11,1.11,0.33,1.63,0.63c0.55,0.32,1.1,0.64,1.61,1.01c0.59,0.43,1.12,0.92,1.59,1.47
		c0.63,0.72,1.29,1.41,1.97,2.08c0.11,0.11,0.21,0.22,0.31,0.33C34.35,34.9,34.37,34.95,34.42,35.01z"/>
	<path class="st12" d="M29.25,43.89c-0.18,0.18-0.55,0.41-0.93,0.55c-0.08-0.03-0.19-0.06-0.29-0.12c-0.22-0.12-0.43-0.26-0.64-0.39
		c-0.29-0.18-0.58-0.37-0.86-0.55c-0.37-0.24-0.68-0.53-0.96-0.87c-0.28-0.33-0.54-0.68-0.82-1.03c0.05-0.35,0.21-0.63,0.55-0.8
		c0.04,0.05,0.07,0.09,0.11,0.14c0.13,0.15,0.25,0.32,0.4,0.45c0.64,0.57,1.28,1.13,1.93,1.68c0.42,0.35,0.89,0.62,1.37,0.87
		C29.17,43.85,29.21,43.87,29.25,43.89z"/>
	<path class="st12" d="M30.98,42.11c-0.17,0.25-0.33,0.49-0.52,0.72c-1.14-0.68-2.18-1.45-3.11-2.38c0.2-0.1,0.71-0.21,1.26-0.28
		c0.18,0.28,0.41,0.53,0.66,0.76c0.26,0.24,0.52,0.47,0.81,0.67C30.35,41.79,30.66,41.93,30.98,42.11z"/>
	<path class="st12" d="M31.77,40.83c-0.51-0.3-0.86-0.77-1.26-1.23c0.23-0.09,0.44-0.16,0.65-0.25c0.22-0.09,0.44-0.19,0.67-0.29
		c0.21-0.09,0.42-0.19,0.64-0.29c0.09,0.1,0.18,0.2,0.25,0.29C32.61,39.39,31.97,40.59,31.77,40.83z"/>
	<path class="st13" d="M21.54,39.33c0.22,0.35,0.54,0.6,0.92,0.76c0.35,0.14,0.73,0.25,1.11,0.29c0.42,0.05,0.84,0.09,1.26,0.13
		c0.07,0.01,0.13,0.02,0.2,0.03c-0.01,0.03-0.01,0.04-0.01,0.05c-0.02,0.02-0.04,0.05-0.06,0.07c-0.31,0.28-0.45,0.64-0.53,1.03
		c-0.16,0.84-0.03,1.64,0.39,2.39c0.16,0.28,0.37,0.5,0.65,0.66c0.36,0.21,0.76,0.32,1.16,0.41c0.55,0.12,1.09,0.07,1.6-0.16
		c1.06-0.47,1.97-1.13,2.64-2.1c0.21-0.31,0.41-0.62,0.64-0.92c0.24-0.32,0.44-0.67,0.61-1.04c0.24-0.49,0.47-0.98,0.71-1.47
		c0.03-0.07,0.08-0.13,0.14-0.21c0.09,0.05,0.17,0.09,0.25,0.13c0.27,0.14,0.55,0.24,0.86,0.28c1.28,0.16,2.44-0.52,2.91-1.73
		c0.02-0.06,0.06-0.12,0.1-0.19c0.07,0.05,0.11,0.09,0.16,0.12c0.16,0.14,0.34,0.24,0.54,0.33c0.44,0.19,0.9,0.28,1.36,0.39
		c0.06,0.01,0.13-0.02,0.19-0.03c0.06-0.25,0.13-0.47,0.16-0.7c0.05-0.36,0.06-0.72,0.09-1.08c0.01-0.09-0.03-0.18,0.07-0.27
		c0.44,0.08,0.86,0.25,1.22,0.53c0.35,0.26,0.65,0.57,0.92,0.91c0.05,0.06,0.09,0.13,0.15,0.19c0.02,0.02,0.06,0.02,0.12,0.04
		c-0.02-0.27-0.18-0.43-0.3-0.6c-0.13-0.18-0.27-0.35-0.43-0.51c-0.16-0.16-0.35-0.3-0.53-0.44c-0.18-0.13-0.38-0.23-0.59-0.3
		c-0.21-0.07-0.42-0.14-0.63-0.22c-0.02-0.13-0.03-0.26-0.05-0.38c-0.02-0.14-0.06-0.27-0.09-0.42c0.27-0.09,0.51-0.18,0.76-0.25
		c0.24-0.06,0.49-0.12,0.74-0.15c0.26-0.03,0.52-0.05,0.78-0.04c0.25,0.01,0.5,0.06,0.75,0.08c0.26,0.02,0.48,0.17,0.75,0.18
		c-0.05-0.17-0.05-0.18-0.15-0.21c-0.21-0.07-0.42-0.13-0.64-0.18c-0.95-0.24-1.89-0.24-2.82,0.13c-0.05,0.02-0.09,0.03-0.14,0.05
		c-0.07,0.02-0.13,0.04-0.21,0.06c-0.06-0.07-0.11-0.13-0.16-0.19c-0.2-0.22-0.45-0.38-0.74-0.44c-0.52-0.11-1,0.03-1.4,0.38
		c-0.23,0.2-0.4,0.45-0.54,0.72c-0.03,0.05-0.06,0.1-0.1,0.15c-0.47-0.34-0.96-0.59-1.52-0.6c-0.1-0.15-0.19-0.29-0.29-0.4
		c-0.31-0.33-0.63-0.65-0.95-0.97c-0.12-0.12-0.25-0.23-0.37-0.36c-0.33-0.37-0.65-0.74-0.98-1.11c-0.54-0.6-1.12-1.16-1.79-1.61
		c-0.49-0.32-0.99-0.62-1.48-0.93c-0.36-0.22-0.74-0.41-1.15-0.52c-0.19-0.05-0.39-0.1-0.59-0.14c-0.45-0.09-0.89-0.13-1.35-0.07
		c-0.57,0.07-1.02,0.35-1.41,0.75c-0.07,0.08-0.13,0.18-0.18,0.28c-0.1,0.23-0.16,0.48-0.16,0.73c0,0.35,0.08,0.68,0.21,1
		c0.15,0.37,0.37,0.69,0.58,1.02c0.15,0.23,0.33,0.43,0.54,0.61c0.47,0.4,1,0.71,1.56,0.98c0.39,0.18,0.8,0.34,1.2,0.49
		c0.42,0.16,0.85,0.31,1.28,0.46c0.18,0.06,0.36,0.12,0.54,0.19c0.64,0.24,1.28,0.5,1.94,0.67c0.15,0.04,0.31,0.07,0.47,0.17
		c-0.06,0.11-0.12,0.21-0.18,0.33c-0.1-0.02-0.19-0.04-0.28-0.07c-0.14-0.03-0.27-0.07-0.41-0.1c-0.51-0.11-1.02-0.22-1.54-0.32
		c-0.64-0.12-1.29-0.24-1.93-0.34c-0.64-0.1-1.28-0.07-1.93-0.08c-0.99-0.02-1.94,0.18-2.86,0.54c-0.61,0.24-1.14,0.6-1.61,1.05
		c-0.11,0.11-0.21,0.22-0.28,0.35c-0.15,0.24-0.24,0.51-0.18,0.81C21.26,38.73,21.36,39.05,21.54,39.33z M28.33,44.45
		c-0.08-0.03-0.19-0.06-0.29-0.12c-0.22-0.12-0.43-0.26-0.64-0.39c-0.29-0.18-0.58-0.37-0.86-0.55c-0.37-0.24-0.68-0.53-0.96-0.87
		c-0.28-0.33-0.54-0.68-0.82-1.03c0.05-0.35,0.21-0.63,0.55-0.8c0.04,0.05,0.07,0.09,0.11,0.14c0.13,0.15,0.25,0.32,0.4,0.45
		c0.64,0.57,1.28,1.13,1.93,1.68c0.42,0.35,0.89,0.62,1.37,0.87c0.04,0.02,0.08,0.05,0.13,0.07C29.07,44.08,28.7,44.3,28.33,44.45z
		 M30.46,42.83c-1.14-0.68-2.18-1.45-3.11-2.38c0.2-0.1,0.71-0.21,1.26-0.28c0.18,0.28,0.41,0.53,0.66,0.76
		c0.26,0.24,0.52,0.47,0.81,0.67c0.28,0.19,0.58,0.34,0.9,0.52C30.8,42.37,30.65,42.6,30.46,42.83z M31.77,40.83
		c-0.51-0.3-0.86-0.77-1.26-1.23c0.23-0.09,0.44-0.16,0.65-0.25c0.22-0.09,0.44-0.19,0.67-0.29c0.21-0.09,0.42-0.19,0.64-0.29
		c0.09,0.1,0.18,0.2,0.25,0.29C32.61,39.39,31.97,40.59,31.77,40.83z M31.77,35.71c-0.33-0.11-0.67-0.22-1-0.34
		c-0.2-0.07-0.4-0.14-0.59-0.22c-0.57-0.22-1.15-0.44-1.71-0.68c-0.68-0.29-1.38-0.56-2.04-0.91c-0.38-0.2-0.72-0.45-1.01-0.75
		c-0.4-0.42-0.7-0.91-0.86-1.47c-0.12-0.4-0.13-0.82,0.04-1.21c0.04-0.09,0.09-0.19,0.16-0.25c0.35-0.35,0.76-0.59,1.27-0.62
		c0.41-0.02,0.8,0.03,1.2,0.1c0.58,0.11,1.11,0.33,1.63,0.63c0.55,0.32,1.1,0.64,1.61,1.01c0.59,0.43,1.12,0.92,1.59,1.47
		c0.63,0.72,1.29,1.41,1.97,2.08c0.11,0.11,0.21,0.22,0.31,0.33c0.03,0.03,0.05,0.08,0.09,0.15c-0.73,0.08-1.34,0.38-1.82,0.91
		C32.31,35.86,32.04,35.8,31.77,35.71z M21.77,37.82c0.06-0.08,0.12-0.16,0.2-0.23c0.44-0.41,0.93-0.74,1.49-0.96
		c0.84-0.33,1.71-0.51,2.62-0.51c0.66,0,1.33-0.03,1.99,0.06c0.65,0.09,1.29,0.19,1.94,0.29c0.56,0.09,1.11,0.18,1.66,0.29
		c0.39,0.07,0.77,0.15,1.15,0.25c0.45,0.12,0.91,0.19,1.36,0.28c0.09,0.02,0.19,0.03,0.27,0.09c-0.01,0.02-0.01,0.04-0.02,0.04
		c-0.27,0.16-0.53,0.34-0.8,0.48c-0.65,0.33-1.28,0.68-1.95,0.95c-0.42,0.17-0.84,0.33-1.28,0.45c-0.32,0.09-0.63,0.21-0.95,0.31
		c-0.66,0.21-1.32,0.43-2.01,0.52c-0.4,0.05-0.8,0.09-1.2,0.11c-0.74,0.03-1.49,0.02-2.23-0.08c-0.45-0.06-0.9-0.14-1.32-0.31
		c-0.49-0.2-0.84-0.55-1-1.06c-0.03-0.1-0.05-0.2-0.07-0.29C21.54,38.24,21.61,38.02,21.77,37.82z"/>
</g>
</svg>
