<?xml version="1.0" encoding="utf-8"?>
<!-- Generator: Adobe Illustrator 25.1.0, SVG Export Plug-In . SVG Version: 6.00 Build 0)  -->
<svg version="1.1" id="Calque_1" xmlns="http://www.w3.org/2000/svg" xmlns:xlink="http://www.w3.org/1999/xlink" x="0px" y="0px"
	 viewBox="0 0 292.45 44.91" style="enable-background:new 0 0 292.45 44.91;" xml:space="preserve">
<style type="text/css">
	.st0{fill:#7B6A58;}
</style>
<path class="st0" d="M289.38,44.91c-0.14-0.47-0.11-2.48-4.89-4.58c-0.06-0.02-0.13-0.05-0.19-0.07c-0.86-0.27-1.71-0.43-2.56-0.52
	c-1.19-0.56-2.69-0.99-4.59-1.26c0.23-0.44,0.45-0.89,0.67-1.34c1.4-0.64,2.82-1.24,4.24-1.78c1.21-0.43,1.17-2.06,0.25-2.51
	c-0.85-0.38-1.76-0.69-2.72-0.91c0.08-0.87,0-1.7-0.32-2.47c-1.4-3.41-7.11-5.15-22.79-2.37c0.46-0.98,0.32-1.86-0.29-2.62
	c-1.48-1.83-6.11-2.73-11.46-2.65c-0.37-0.06-0.74-0.11-1.12-0.14c-0.94-1.68-2.17-2.97-3.67-3.59c1.7,0.59,5.9,2.38,7.86,4.18
	l1.71-0.24c-4.6-4.79-12.3-6.63-16.7-6.65c-0.24,0-0.49,0-0.73,0.01c-1.55-0.76-3.52-1.18-5.58-1.35l-0.17-0.01l-0.17,0.03
	c-0.64,0.12-1.25,0.25-1.84,0.39c-0.52-0.21-1.03-0.37-1.54-0.48c-3.04-0.66-5.79,0.29-7.79,3.52c-0.16,0.09-0.32,0.18-0.47,0.27
	c-1.43,0.87-2.55,1.94-3.42,3.17c-1.9-1.39-4.86-2.24-9.13-2.26c-1.64-0.88-3.34-1.63-5.04-2.23c-4.17-1.48-8.39-2.09-11.97-1.49
	c-1,0.17-1.94,0.42-2.81,0.77c-0.2-0.18-0.42-0.35-0.63-0.52c-0.23-0.18-0.47-0.35-0.71-0.52c-1.22-1.63-2.67-3.31-4.36-5.07
	c-7.13-7.39-12.34-9.13-15.88-7.48c-2.51,1.17-3.89,4.17-4.34,8.07c-1.15,0.22-2.26,0.49-3.31,0.84c-3.19-0.03-6.83,1.18-10.91,4.1
	l-0.62,0.44l0.18,0.62l0.05,0.16c-1,1.54-0.91,3.96,0.76,7.46c-1.29,1.04-1.96,2.37-1.77,3.99c-0.07-0.02-0.13-0.05-0.2-0.07
	c-2.46-0.79-4.99-0.88-7.41-0.42c-0.37-0.05-0.73-0.1-1.07-0.12c-2.92-0.19-4.94,0.62-6.09,2.04c-0.33,0.13-0.66,0.24-1,0.38
	c-0.87,0.35-1.62,0.74-2.28,1.15c-0.01-0.04-0.02-0.08-0.04-0.11c0.1-1.85,0.07-3.83-0.13-5.98c-0.87-9.07-4.08-12.58-8.26-12.55
	c-2.96,0.02-6.25,2.04-9.39,5.19c-1.13-0.26-2.27-0.46-3.42-0.57c-2.7-1.26-6.65-1.65-12.18-0.75l-0.84,0.14l-0.28,0.59l-0.07,0.16
	c-1.94,0.93-3.56,3.02-4.61,6.67c-1.83,0.39-3.33,1.27-4.3,2.72c-0.05-0.05-0.09-0.11-0.13-0.16c-1.54-1.63-3.64-2.69-6.02-3.24
	c-0.28-0.19-0.55-0.37-0.83-0.52c-2.36-1.3-4.64-1.39-6.63-0.63c-0.37-0.02-0.73-0.05-1.12-0.07c-3.85-0.14-6.59,0.77-8.45,2.35
	c-0.27-0.02-0.53-0.04-0.8-0.05l-0.95-0.03l-0.38,0.59c-0.28,0.44-0.53,0.88-0.76,1.32c-0.17-0.14-0.35-0.29-0.53-0.43
	c0.59,3.68-2.9,3.24-6.48,5.97c-0.98,1.19-1.57,2.63-1.66,4.34l-0.32-0.07c-0.05-0.22-0.11-0.45-0.17-0.67
	c-0.3-1.06-0.74-2.13-1.31-3.14c-3.65-2.08-4.29-6.29-10.06-7.7c0.34,0.3,0.67,0.66,0.98,1.07c-0.58-0.26-1.2-0.51-1.86-0.76
	c0.03-0.17,0.07-0.32,0.12-0.47c-1-0.19-2.13-0.3-3.44-0.31c-1.05-0.32-2.14-0.43-3.25-0.38c-0.14,0.07-0.29,0.15-0.43,0.22
	c0,0,0,0,0,0c-0.02,0.01-0.03,0.02-0.05,0.03c-0.12,0.06-0.25,0.13-0.37,0.19c0,0-0.01,0.01-0.01,0.01c-1.39,0.73-2.8,1.51-4.2,2.37
	l0,0c-0.04,0.02-0.08,0.05-0.12,0.07c-0.03,0.02-0.05,0.03-0.08,0.05l0,0c-0.95,0.58-1.9,1.2-2.86,1.85
	c0.01-0.01,0.02-0.02,0.03-0.03c-0.57,0.39-1.15,0.79-1.72,1.2c-0.01,0.01-0.02,0.01-0.03,0.02c0,0,0,0,0,0
	c-0.15,0.11-0.29,0.22-0.44,0.32l-0.01,0c-0.11,0.08-0.22,0.17-0.33,0.25c-0.51,0.38-1.02,0.77-1.53,1.17
	c-0.19,0.15-0.39,0.3-0.58,0.46c-0.64,0.52-1.28,1.04-1.92,1.59c0,0,0,0,0,0c-0.03,0.03-0.07,0.05-0.1,0.08
	c0.84,0.66,1.74,1.46,2.69,2.43c-0.94-0.17-1.87-0.34-2.79-0.51c-0.15-0.44-0.34-0.88-0.59-1.3c-0.36,0.32-0.71,0.67-1.06,1
	c-0.01,0-0.02,0-0.03,0c-0.44,0.41-0.88,0.83-1.31,1.26c-0.04,0.04-0.09,0.08-0.13,0.13c-0.01,0.01-0.01,0.02-0.02,0.03
	c-0.06,0.11-0.13,0.22-0.18,0.33c0,0,0.01,0,0.01,0c-0.08,0.15-0.16,0.29-0.23,0.44c-0.24,0.04-3.3,5.14-3.53,5.19
	c-0.84,1.44-1.34,2.75-1.34,2.75H2h0.33h1.2h3.51h0.94h0.46h0.48h2.81h9.7h4.38h2.32h0.97h0.07h0.19h1.97h1.05h1.57h0.28h7.95h0.35
	h1.48h3.96h2.27h1.2c-0.05-0.07-0.09-0.14-0.13-0.2c0.31,0.06,0.62,0.11,0.94,0.17c0,0.01,0,0.02,0,0.03h0.17H53h1.1h6.6h1.93h0.84
	h2.98h1.94h0.67h2.42h0.71h5.82h0.91h3.78h0.79c-0.28-0.2-0.52-0.41-0.78-0.61c0-0.04,0-0.07,0-0.11c0.02-0.03,0.04-0.05,0.06-0.08
	c0.25,0.28,0.51,0.55,0.77,0.8h0.22h4.38h2.96h0.35h2.21h2.04h0.94h1.56h0.75h0.05h3.23h0.03h0.47h0.78h3.22h0.44h2.96h1.37h4.56
	h0.28h0.89h1.55h3.15h0.47h3.79h0.51h1.43h2.4h0.87h0.61h0.41h0.4h0.92h0.52h0.12h0.99h3.9h0.18h2.36
	c-0.26-0.23-0.54-0.45-0.85-0.68c1.24,0.06,2.5,0.14,3.76,0.28l-0.03,0.08c-0.65,0.1-1.3,0.21-1.95,0.31h1.77h2.08h0.62h7.14h2.58
	h2.4h2.34h6.74h1.95h0.11h2.75h2.89h4.04h6.23h8.73h0.16h1.77h4.06h0.42h0.97h1.9h0.25h1.1h1.51h0.39h0.18h4.62h2.02h0.74l0.12-0.04
	c-0.01,0.01-0.01,0.03-0.02,0.04h2.53h0.27h0.28h1.55h1.53h1.36h2.14h3.01h1.04h2.4h0.39h2.54h1.02c0.24-0.29,0.49-0.58,0.75-0.87
	c0,0,0,0,0.01,0c-0.16,0.33-0.33,0.62-0.52,0.87h1.77h0.13h0.19h0.82h1.61h0.35h0.24h1.93h0.81h3.99h0.79h0.72h1.26h0.58h6.82h2.35
	h6.55h3.41h1.73h0.85h0.17h0.29h8.56c-1.17-0.78-2.6-1.49-4.21-2.13c-0.06-0.08-0.14-0.14-0.2-0.22c0.49-0.09,0.96-0.16,1.42-0.2
	c1.07,0.29,2.28,0.75,3.63,1.39c0.08,0.37,0.12,0.75,0.06,1.16h1.46h0.73h0.3H289.38z M19.39,30.55l-0.57-0.11
	c-0.44-0.79-0.69-1.52-0.77-2.2C18.69,28.93,19.13,29.71,19.39,30.55z M16.64,35.58c-0.19-0.21-0.38-0.42-0.57-0.62
	c-0.14-0.37-0.29-0.74-0.46-1.12c0.94,0.19,1.88,0.38,2.82,0.57c0.31,0.31,0.64,0.62,0.99,0.94c-0.11,0.46-0.24,0.91-0.4,1.36
	c-0.55-0.1-1.11-0.2-1.66-0.3C17.14,36.15,16.9,35.87,16.64,35.58z M20.19,44.27c-0.64-0.23-1.27-0.45-1.91-0.67
	c0.72,0.15,1.43,0.28,2.12,0.4c0.06,0.02,0.12,0.05,0.18,0.07C20.46,44.14,20.33,44.21,20.19,44.27z M22.89,25.41l-0.71-0.49
	c0.29,0.06,0.58,0.15,0.87,0.24C23,25.24,22.94,25.32,22.89,25.41z M28.73,29.76c0.08-0.05,0.15-0.11,0.23-0.16
	c0.04,0.15,0.1,0.31,0.14,0.46C28.98,29.96,28.85,29.85,28.73,29.76z M33.71,29.65c-0.36-0.5-0.74-0.99-1.18-1.46
	c0.41-0.04,0.81-0.04,1.2,0c0.76,0.43,1.41,0.88,1.96,1.33c0.35,0.9,0.66,1.85,0.92,2.81c0.04,0.16,0.07,0.32,0.11,0.48
	C35.79,31.73,34.78,30.67,33.71,29.65z M48.16,36.15c-0.27,0.06-0.53,0.12-0.79,0.2c0.01-0.89,0.18-1.68,0.48-2.39
	c0.15,0.38,0.26,0.74,0.33,1.08C48.15,35.41,48.15,35.78,48.16,36.15z M50.15,42.46c-0.05-0.13-0.1-0.26-0.14-0.39
	c0.07-0.11,0.14-0.22,0.2-0.33c0.2,0.29,0.4,0.57,0.6,0.85C50.6,42.54,50.37,42.5,50.15,42.46z M56.69,43.68
	c-0.42-0.08-0.84-0.16-1.27-0.24c-0.25-0.2-0.5-0.44-0.75-0.67c0.02-0.04,0.05-0.08,0.07-0.12l1.64,0.42
	c0.11,0.18,0.22,0.37,0.34,0.55C56.71,43.63,56.7,43.65,56.69,43.68z M56.9,33.55c-0.11,0.38-0.2,0.76-0.29,1.13
	c-0.14-0.01-0.28-0.03-0.42-0.03c0.35-0.93,0.48-1.85,0.42-2.73c0.16,0.14,0.3,0.29,0.42,0.47c0.05,0.07,0.09,0.15,0.14,0.23
	L56.9,33.55z M59.15,30.6c-0.58-0.61-1.28-1.07-2.1-1.35c0.78-0.07,1.58-0.1,2.4-0.1C59.33,29.62,59.23,30.1,59.15,30.6z
	 M58.88,26.88c0.16-0.08,0.33-0.14,0.5-0.22c0.26,0.07,0.51,0.15,0.76,0.23C59.72,26.88,59.3,26.87,58.88,26.88z M62.5,33.79
	c-0.14,0.13-0.26,0.27-0.39,0.4c-0.08-0.05-0.15-0.11-0.23-0.16c-0.13-1.68,0.07-3.3,0.5-4.75c0.91,0.07,1.83,0.18,2.76,0.32
	c0.57,0.45,1.1,0.94,1.6,1.46C65.05,31.79,63.62,32.71,62.5,33.79z M73.85,29.33c-2.11-0.72-4.33-1.32-6.57-1.73
	c-0.41-0.07-0.82-0.13-1.23-0.19c-0.69-0.46-1.42-0.89-2.2-1.27c0.18-0.26,0.38-0.52,0.58-0.75c0.1-0.12,0.21-0.22,0.32-0.33
	c0.87-0.15,1.74-0.26,2.6-0.31c1.12-0.06,2.22-0.03,3.26,0.11c0.54,0.15,1.05,0.31,1.52,0.49c0.97,0.94,1.93,2.23,2.87,3.9
	C74.62,29.26,74.23,29.29,73.85,29.33z M82.39,28.39c-0.03,0.02-0.06,0.03-0.09,0.05c-0.5,0.32-0.96,0.64-1.4,0.96
	c-0.03,0-0.05-0.01-0.08-0.01c0-0.01-0.01-0.02-0.01-0.03c0.26-1.52,0.94-2.57,1.92-3.21C82.6,26.85,82.48,27.6,82.39,28.39z
	 M85.3,30.07c0.01-0.11,0.01-0.24,0.02-0.35c0.04-0.12,0.08-0.24,0.11-0.36c0.07-0.03,0.14-0.06,0.21-0.09
	c0.05,0.31,0.09,0.61,0.16,0.91C85.63,30.15,85.46,30.11,85.3,30.07z M96.27,21.75c0.16,0.16,0.32,0.32,0.49,0.49
	c-0.2,0.14-0.4,0.28-0.59,0.43l-0.07,0.06c-0.11,0.03-0.21,0.07-0.31,0.1C95.93,22.45,96.09,22.09,96.27,21.75z M90.4,18.62
	c0.04,0,0.09,0,0.13,0l-0.17,0.09L90.4,18.62z M88.54,26.01c0.01-0.1,0.02-0.21,0.03-0.31c0.11,0.03,0.23,0.05,0.34,0.08
	C88.79,25.85,88.65,25.92,88.54,26.01z M89.09,30.81c-0.06-0.2-0.12-0.39-0.17-0.59c0.09-0.46,0.29-0.9,0.55-1.31
	c0.04,0.01,0.08,0.04,0.12,0.05C89.4,29.54,89.22,30.15,89.09,30.81z M92.29,24.24c-0.23,0.06-0.45,0.13-0.67,0.21
	c-0.94-0.32-1.87-0.58-2.79-0.77c0.04-0.22,0.07-0.43,0.12-0.65c1.43-1.53,3.1-2.59,4.92-3.24c0.08,0.05,0.17,0.12,0.25,0.18
	C93.34,21.16,92.73,22.61,92.29,24.24z M95.31,31c-0.3-0.46-0.63-0.89-0.96-1.29c0.03-0.56,0.08-1.12,0.15-1.66
	c0.6,0.34,1.19,0.7,1.77,1.09C95.94,29.76,95.62,30.38,95.31,31z M97.36,27.18c-0.69-0.43-1.4-0.82-2.12-1.19
	c0.89-0.1,1.84-0.1,2.83,0.01C97.83,26.4,97.59,26.79,97.36,27.18z M100.2,27.83c0.13-0.22,0.26-0.45,0.4-0.67
	c0.09,0.14,0.19,0.28,0.28,0.43c0.02,0.03,0.04,0.06,0.06,0.1C100.67,27.73,100.43,27.78,100.2,27.83z M102.27,24.56
	c0.12-0.18,0.25-0.36,0.38-0.54c0.12,0.03,0.24,0.04,0.36,0.07c0.02,0.25,0.04,0.49,0.04,0.74
	C102.79,24.74,102.53,24.65,102.27,24.56z M107.4,27.15c-0.46-0.32-0.92-0.62-1.39-0.9c0.04-0.39,0.07-0.78,0.08-1.17
	c1.33,0.53,2.62,1.17,3.84,1.9c0.03,0.1,0.04,0.2,0.06,0.3C109.17,27.21,108.31,27.16,107.4,27.15z M117.03,38.85
	c-0.06,0.01-0.12,0.03-0.18,0.04c0.41-0.24,0.77-0.51,1.06-0.8c0.04,0.05,0.08,0.1,0.11,0.15
	C117.72,38.48,117.39,38.68,117.03,38.85z M118.27,32.76c-0.18-0.33-0.38-0.67-0.61-1c0.31,0.3,0.59,0.61,0.84,0.93
	C118.42,32.72,118.35,32.74,118.27,32.76z M119.02,35.04C119.02,35.04,119.02,35.04,119.02,35.04
	C119.02,35.04,119.02,35.03,119.02,35.04C119.02,35.03,119.02,35.03,119.02,35.04C119.02,35.03,119.02,35.03,119.02,35.04z
	 M107.6,18.06c2.42-2.37,4.76-3.87,6.68-3.89c2.34-0.02,4.24,2.63,5.05,9.37C116.54,19.15,112.16,17.7,107.6,18.06z M145.01,16.83
	l-0.08,0.14l-0.03-0.08C144.93,16.86,144.97,16.85,145.01,16.83z M143.66,26.28c0.39,0.65,0.82,1.33,1.29,2.04
	c-0.01,0.03-0.03,0.05-0.04,0.08c-0.2,0.47-0.37,0.92-0.52,1.36c-0.02,0.01-0.05,0.01-0.07,0.02c-0.01-0.01-0.02-0.02-0.03-0.02
	C143.44,28.36,143.28,27.2,143.66,26.28z M124.13,35.79c0.27-0.04,0.54-0.07,0.81-0.1c-0.36,0.16-0.73,0.31-1.08,0.48
	C123.95,36.04,124.04,35.92,124.13,35.79z M125.94,37.88c0.19,0.39,0.41,0.77,0.64,1.16c-0.79-0.14-1.55-0.25-2.27-0.33
	C124.83,38.42,125.37,38.14,125.94,37.88z M126.32,42.43c-0.25-0.38-0.53-0.75-0.85-1.09c0.23,0.06,0.46,0.14,0.69,0.24
	c0.09,0.04,0.19,0.1,0.28,0.14l0.32,0.69C126.62,42.41,126.47,42.42,126.32,42.43z M131.89,40.29c-0.49-0.14-0.99-0.29-1.47-0.41
	c-0.79-1.01-1.42-2.03-1.89-3.03c0.16-0.06,0.32-0.11,0.48-0.17c1.1,0.76,2.14,1.68,3.1,2.73
	C132.01,39.69,131.95,39.99,131.89,40.29z M133.38,36.85c-0.11-0.11-0.22-0.22-0.34-0.32c0.15,0.04,0.31,0.09,0.46,0.14
	C133.46,36.73,133.42,36.79,133.38,36.85z M131.52,33.52c-0.4,0.09-0.79,0.21-1.18,0.31c-0.52-0.07-1.04-0.13-1.57-0.17
	c-0.4-0.19-0.81-0.37-1.22-0.53c0-0.13-0.02-0.27-0.02-0.4c0-0.14,0.03-0.27,0.04-0.41c0.63-0.47,1.3-0.9,2-1.27
	c0.91-0.49,1.87-0.89,2.86-1.17c0.57-0.09,1.11-0.15,1.64-0.18c1.49,0.42,3.22,1.15,5.2,2.21c-0.32,0.17-0.63,0.35-0.93,0.53
	C136.03,32.64,133.72,33,131.52,33.52z M137.12,38.21c-0.48,0.52-0.85,1.03-1.16,1.52c-0.32-0.42-0.62-0.84-0.96-1.23
	c-0.13-0.15-0.26-0.28-0.39-0.42c0.16-0.28,0.35-0.56,0.55-0.84c0.7,0.27,1.38,0.56,2.06,0.88
	C137.18,38.15,137.15,38.18,137.12,38.21z M137.98,36.03c-0.42-0.18-0.85-0.36-1.28-0.53c0.26-0.24,0.53-0.47,0.82-0.7
	c1.53-0.18,3.06-0.28,4.57-0.29c-0.14,0.06-0.27,0.14-0.41,0.21c-1.61,0.03-2.83,0.3-3.4,0.86
	C138.14,35.72,138.04,35.87,137.98,36.03z M138.95,41.94c0.11-0.7,0.36-1.38,0.72-2.02c0.07-0.12,0.15-0.23,0.22-0.34
	c1.32,0.79,2.56,1.67,3.72,2.6C142.04,42.04,140.48,41.95,138.95,41.94z M144.89,40.09c-0.97-0.73-2.01-1.41-3.07-2.05
	c1.02-0.38,2.14-0.46,3.29-0.31c0.02,0.03,0.05,0.07,0.07,0.1c0.16,0.82,0.23,1.67,0.23,2.53
	C145.23,40.27,145.06,40.18,144.89,40.09z M148.68,16.53c0.11,0.01,0.23,0.04,0.34,0.06c0.17,1.31,0.68,2.78,1.45,4.34
	c-0.15,0.15-0.3,0.3-0.44,0.45c-1.02,0.09-1.99,0.23-2.89,0.43c-0.12-0.2-0.25-0.39-0.36-0.6
	C146.91,19.34,147.59,17.79,148.68,16.53z M148.65,23.56c-0.04,0.11-0.09,0.22-0.13,0.34c-0.07-0.09-0.13-0.19-0.19-0.27
	C148.43,23.6,148.54,23.58,148.65,23.56z M147.32,32.55c-0.17-0.19-0.34-0.37-0.5-0.56c0.02-0.12,0.03-0.24,0.05-0.36
	c0.18,0.31,0.35,0.61,0.55,0.92L147.32,32.55z M148.02,32.65l0.11-0.04l0.05,0.06L148.02,32.65z M148.35,27.8
	c0.26,0.24,0.51,0.49,0.78,0.72c-0.17,0.04-0.34,0.07-0.51,0.11c-0.07-0.1-0.16-0.21-0.23-0.31c-0.06-0.12-0.1-0.23-0.16-0.35
	C148.27,27.91,148.31,27.86,148.35,27.8z M149.15,42.31c-0.26-0.13-0.52-0.26-0.77-0.39c0.01-0.1,0.03-0.19,0.04-0.29
	c0.02-0.22,0.02-0.45,0.03-0.67c0.11,0.07,0.23,0.15,0.34,0.22C148.92,41.55,149.04,41.92,149.15,42.31
	C149.16,42.3,149.16,42.31,149.15,42.31z M151.02,31.78c-0.42-0.52-0.85-1.08-1.3-1.66c-0.09-0.11-0.16-0.21-0.24-0.33
	c0.21-0.04,0.42-0.09,0.64-0.13c0.5,0.5,1.11,0.98,1.83,1.41C151.61,31.28,151.3,31.52,151.02,31.78z M152.65,18.09l-0.02,0.08
	c-0.07,0.06-0.13,0.13-0.2,0.2c-0.13-0.37-0.24-0.74-0.33-1.09c0.25,0.07,0.5,0.15,0.76,0.23
	C152.79,17.69,152.71,17.89,152.65,18.09z M155.66,34.38c-0.88-0.29-1.73-0.52-2.57-0.69c0.5-0.56,1.13-0.98,1.87-1.27
	c0.38,0.13,0.78,0.24,1.2,0.35c0.16,0.07,0.33,0.13,0.5,0.19c0.12,0.05,0.25,0.09,0.37,0.14C156.53,33.51,156.07,33.93,155.66,34.38
	z M156.43,41.74c-0.03-0.03-0.05-0.06-0.07-0.09c0-0.03,0-0.06-0.01-0.09c0.49,0.17,0.97,0.32,1.44,0.44c0,0,0,0,0,0
	C157.32,41.94,156.88,41.84,156.43,41.74z M162.74,37.77c-1.47-0.93-2.91-1.7-4.32-2.32c0.5-0.51,1.08-0.99,1.76-1.41
	c0.3,0.07,0.6,0.12,0.9,0.18c0.62,1.24,1.29,2.4,2.02,3.47C162.98,37.71,162.86,37.74,162.74,37.77z M159.14,16.72
	c0.12-0.02,0.23-0.05,0.35-0.08c0.19,0.2,0.38,0.4,0.56,0.62c-0.29,0.02-0.57,0.04-0.85,0.07
	C159.18,17.13,159.16,16.93,159.14,16.72z M164.34,28.46c0.03,0,0.05,0.01,0.08,0.01c0.01,0.08,0.02,0.17,0.03,0.26l0.01,0.05
	C164.42,28.68,164.39,28.56,164.34,28.46z M163.58,17.31c-0.24-0.35-0.49-0.7-0.75-1.03c1.5-0.07,3.06-0.02,4.61,0.13
	c0.09,0.08,0.17,0.16,0.26,0.24c-0.75,0.25-1.52,0.54-2.31,0.89C164.78,17.44,164.17,17.37,163.58,17.31z M167.19,38.88l-0.05-0.06
	l0.06,0.04L167.19,38.88z M167.6,29.57c-0.02-0.24-0.04-0.49-0.06-0.73c0.61,0.04,1.22,0.07,1.85,0.07c0.48,0.01,0.97,0,1.45-0.02
	l-0.46,0.15c-0.53,0.17-1.03,0.32-1.53,0.46C168.43,29.53,168,29.54,167.6,29.57z M170.69,41.22c-0.3,0.03-0.61,0.06-0.91,0.09
	c-0.33-0.22-0.66-0.47-0.98-0.75c0.16-0.1,0.32-0.21,0.47-0.33c0.53,0.33,1.05,0.65,1.58,0.95C170.8,41.2,170.74,41.21,170.69,41.22
	z M159.17,9.72c0.39-2.96,1.33-5.15,2.95-5.91c1.98-0.92,5.47,0.6,10.91,6.02C167.55,7.17,162.79,7.64,159.17,9.72z M173.84,34.9
	c-0.11-0.07-0.21-0.13-0.32-0.2c0.05-0.13,0.1-0.25,0.15-0.38c0.1-0.02,0.21-0.04,0.31-0.06C173.94,34.46,173.89,34.68,173.84,34.9z
	 M180.85,19.74c0.01,0.01,0.01,0.03,0.02,0.04C180.87,19.76,180.86,19.75,180.85,19.74C180.85,19.74,180.85,19.74,180.85,19.74z
	 M178.3,37.72c-0.02,0-0.03,0.01-0.05,0.01c0.01-0.08,0.02-0.16,0.03-0.24c0.03,0.06,0.05,0.12,0.07,0.18
	C178.33,37.69,178.32,37.7,178.3,37.72z M178.61,18.1c-0.39-0.21-0.79-0.42-1.23-0.62c0.47,0.13,0.93,0.29,1.37,0.47
	C178.71,18,178.66,18.05,178.61,18.1z M180.37,34.62c-0.06-0.17-0.12-0.33-0.17-0.51l-0.07-0.23c0.13-0.12,0.26-0.24,0.4-0.36
	c0.15,0.23,0.31,0.45,0.48,0.68C180.79,34.33,180.57,34.47,180.37,34.62z M181.84,23.77c-0.04,0.03-0.08,0.07-0.12,0.1
	c0.25-0.51,0.37-1.01,0.36-1.5c0.02,0,0.03,0.01,0.05,0.01c0.05,0.13,0.1,0.27,0.16,0.4C182.19,23.14,182.04,23.46,181.84,23.77z
	 M183.12,36.52c0.04,0.04,0.08,0.07,0.11,0.11c-0.08,0.02-0.17,0.03-0.25,0.05C183.03,36.63,183.08,36.58,183.12,36.52z
	 M183.19,40.11c-0.02-0.03-0.04-0.06-0.06-0.08c0.05,0,0.09-0.01,0.14-0.01c0.04,0.02,0.07,0.04,0.11,0.05
	C183.31,40.09,183.25,40.1,183.19,40.11z M186.03,25.41c-0.07-0.37-0.16-0.75-0.26-1.13c0.05-0.03,0.12-0.06,0.18-0.08
	c0.21,0.34,0.4,0.67,0.58,1.02C186.37,25.28,186.19,25.34,186.03,25.41z M185.54,20.77c-0.32-1.11-0.87-2.15-1.62-3.12
	c0.53-0.19,1.09-0.34,1.68-0.44c2.88-0.48,6.41,0.06,9.98,1.33c0.43,0.15,0.86,0.32,1.29,0.49l-0.25,0.03
	c-4.01,0.48-7.23,1.2-9.77,2.1C186.42,21.02,185.98,20.9,185.54,20.77z M188.21,24.6c-0.09-0.18-0.19-0.35-0.29-0.52
	c0.28,0.11,0.55,0.23,0.82,0.35C188.55,24.49,188.39,24.55,188.21,24.6z M197.12,21.31c1.41-0.17,2.69-0.26,3.85-0.29
	c0.29,0.16,0.57,0.33,0.86,0.5c-1.36,0.16-2.77,0.43-4.19,0.77c-2.06-0.32-3.96,0.12-5.59,1.04c-0.52-0.28-1.05-0.55-1.61-0.8
	C192.3,22.04,194.51,21.62,197.12,21.31z M191.79,37.93c-0.02-0.01-0.04-0.02-0.06-0.02c0.02,0,0.04,0.01,0.06,0.01
	C191.79,37.91,191.79,37.92,191.79,37.93z M192.74,43.65c-0.25,0.04-0.5,0.05-0.75,0.08c0.72-0.25,1.33-0.53,1.84-0.83
	c0.12,0.14,0.24,0.29,0.36,0.43C193.71,43.46,193.22,43.57,192.74,43.65z M194.26,31.5c0.19-1.04,0.7-1.73,1.43-2.13
	c0.82,0.96,1.44,1.95,1.82,2.93c0.04,0.11,0.08,0.22,0.12,0.33c-0.16,0.03-0.32,0.06-0.47,0.09
	C196.27,32.29,195.31,31.88,194.26,31.5z M197.87,35.43c-0.36-0.07-0.73-0.13-1.11-0.19c0.34-0.14,0.73-0.27,1.18-0.36
	C197.93,35.07,197.91,35.25,197.87,35.43z M200.11,39.43c-0.2-0.22-0.41-0.45-0.65-0.67c0.06-0.07,0.09-0.14,0.15-0.2
	c0.19-0.06,0.37-0.13,0.54-0.19c0.51-0.11,1.01-0.21,1.5-0.31c0.11,0.15,0.22,0.3,0.31,0.46C201.39,38.83,200.76,39.13,200.11,39.43
	z M202.38,35.82c-0.18-0.38-0.58-0.75-1.16-1.09c1.14,0.07,2.45,0.25,3.95,0.55C204.46,35.5,203.54,35.68,202.38,35.82z
	 M206.33,33.16c-2.12-0.44-3.99-0.67-5.61-0.71c-0.08-0.26-0.16-0.53-0.27-0.79c-0.36-0.91-0.88-1.82-1.55-2.72
	c1.56,0.15,3.26,0.67,4.74,1.38c1.08,0.52,2.01,1.13,2.65,1.74C206.34,32.44,206.36,32.81,206.33,33.16z M210.48,39.85
	c-0.04,0.02-0.08,0.05-0.12,0.07c-0.72-0.18-1.45-0.31-2.38-0.39c0.78-0.41,1.52-0.85,2.22-1.31c0.13,0.49,0.28,0.98,0.43,1.47
	C210.58,39.75,210.53,39.8,210.48,39.85z M212.95,23.04c-0.16-0.27-0.33-0.53-0.53-0.79c0.31-0.52,0.67-1.02,1.08-1.48
	C213.25,21.53,213.07,22.28,212.95,23.04z M242.28,24.44c0.27,0.32,0.54,0.65,0.81,0.98c0.1,0.36,0.2,0.71,0.28,1.08
	c-1.6-0.76-3.35-1.25-5.11-1.49C239.5,24.61,240.85,24.4,242.28,24.44z M239.06,17.83c-0.5-0.12-1.02-0.18-1.57-0.16
	c-0.2-0.13-0.4-0.27-0.6-0.39C237.61,17.42,238.33,17.61,239.06,17.83z M236.78,19.13c0.28,0.2,0.57,0.42,0.85,0.64
	c-0.49-0.16-1-0.3-1.52-0.43C236.35,19.26,236.57,19.18,236.78,19.13z M239.05,22.03c-0.78,0.16-1.57,0.37-2.34,0.62
	c-0.15,0.03-0.3,0.06-0.45,0.09c-0.17-0.64-0.35-1.3-0.55-1.97C236.88,21.08,238.01,21.5,239.05,22.03z M235.25,18.15
	c-0.1,0.04-0.21,0.08-0.31,0.13c-0.05-0.13-0.09-0.26-0.15-0.38C234.94,17.98,235.09,18.06,235.25,18.15z M234.39,23.14
	c-0.08,0.02-0.16,0.04-0.24,0.06c-0.18-0.24-0.35-0.49-0.54-0.73c-0.24-0.32-0.49-0.62-0.74-0.93c0.29-0.27,0.57-0.52,0.85-0.74
	C233.96,21.61,234.18,22.38,234.39,23.14z M226.46,15.53c0.66,0.06,1.3,0.14,1.92,0.26c-0.41,0.07-0.83,0.15-1.25,0.24
	c-0.25-0.17-0.5-0.33-0.75-0.49L226.46,15.53z M227.24,18.78c-0.22,0.02-0.44,0.05-0.66,0.07c0.13-0.11,0.26-0.22,0.4-0.32
	C227.06,18.61,227.15,18.69,227.24,18.78z M224.79,18.17c-0.39,0.35-0.78,0.75-1.16,1.18l-0.33,0.07c-0.89,0.21-1.77,0.45-2.62,0.73
	l0.05-0.51C222.12,19.07,223.47,18.58,224.79,18.17z M221.5,15.29c-0.41,0.14-0.8,0.28-1.17,0.43c-0.62,0.11-1.21,0.24-1.78,0.4
	C219.47,15.47,220.47,15.21,221.5,15.29z M215.05,24.84c0.64-0.52,1.35-1,2.11-1.45c0.16-0.09,0.32-0.18,0.48-0.27
	c-0.76,0.89-1.23,1.91-1.48,3.03C215.87,25.68,215.51,25.25,215.05,24.84z M218.06,36.5c-0.27-0.47-0.52-0.95-0.76-1.43
	c0.07-0.01,0.16-0.02,0.23-0.03c0.28,0.35,0.55,0.7,0.85,1.05c0.02,0.27,0.05,0.53,0.07,0.79C218.31,36.75,218.19,36.62,218.06,36.5
	z M218.33,25.64c-0.09,1.76-0.14,3.38-0.15,4.88c-0.05-0.2-0.09-0.4-0.12-0.6C217.79,28.38,217.85,26.92,218.33,25.64z
	 M219.32,18.58l-0.46,0.19l-0.04,0.39c-0.06,0.6-0.11,1.19-0.16,1.76c-0.95,0.4-1.86,0.85-2.71,1.34c-0.25,0.15-0.5,0.3-0.74,0.45
	c0.67-2.25,2.52-4.21,5.93-5.64c0.89-0.14,1.85-0.24,2.87-0.29l0.12,0.03C222.57,17.29,220.97,17.88,219.32,18.58z M220.36,24.16
	c0.03-0.4,0.05-0.8,0.08-1.22c0.28-0.2,0.59-0.39,0.93-0.56c-0.17,0.27-0.34,0.54-0.51,0.83C220.68,23.52,220.51,23.83,220.36,24.16
	z M222.63,37.32C222.63,37.32,222.63,37.32,222.63,37.32c-0.27-0.73-0.5-1.46-0.7-2.19c0.28,0.14,0.55,0.27,0.8,0.41
	C222.62,36.15,222.58,36.74,222.63,37.32z M222.56,33.03c-0.26-0.05-0.64-0.06-1.12-0.05c-0.6-3.37-0.36-6.56,1.2-9.2
	c0.52-0.88,1.04-1.67,1.57-2.37c0.36-0.07,0.74-0.14,1.14-0.19l0.6,0.63c0.74,0.78,1.53,1.61,2.15,2.48
	c-0.39,0.52-0.73,1.04-1.03,1.54c-0.71,0.41-1.37,0.85-1.94,1.33C223.19,28.82,222.17,30.77,222.56,33.03z M228.11,32.09
	c-0.01,0.11-0.02,0.23-0.02,0.34c-0.02-0.07-0.05-0.15-0.07-0.22C228.05,32.17,228.08,32.13,228.11,32.09z M225.74,39.24
	c-0.13,0.05-0.25,0.1-0.37,0.16c-0.05-0.06-0.08-0.13-0.12-0.19c0.17-0.09,0.35-0.18,0.52-0.26
	C225.77,39.04,225.76,39.14,225.74,39.24z M226.54,35.15c-0.11-0.16-0.21-0.32-0.3-0.48c0.03-0.05,0.06-0.09,0.09-0.14
	c0.23,0.39,0.5,0.75,0.8,1.1C226.95,35.47,226.76,35.31,226.54,35.15z M229.02,41.76c-0.45-0.15-0.87-0.31-1.24-0.49
	c0.17-0.22,0.33-0.44,0.46-0.66c0.02-0.01,0.05-0.02,0.07-0.03c0.27,0.21,0.55,0.43,0.85,0.64C229.1,41.4,229.07,41.58,229.02,41.76
	z M229.07,37.96l-0.32-0.29c0.17-0.06,0.35-0.12,0.52-0.18c0.14,0.09,0.28,0.18,0.42,0.27C229.49,37.83,229.27,37.89,229.07,37.96z
	 M229.23,22.9c-0.54-0.65-1.13-1.27-1.7-1.87c-0.24-0.26-0.48-0.51-0.71-0.75c0.56-0.07,1.11-0.12,1.67-0.15
	c0.49,0.59,0.98,1.25,1.46,1.96C229.72,22.35,229.48,22.62,229.23,22.9z M228.91,17.41c0.9-0.36,1.79-0.5,2.68-0.45
	c0.74,0.47,1.28,1.08,1.55,1.84c-0.54-0.06-1.08-0.11-1.62-0.13c-0.42-0.02-0.84-0.03-1.26-0.04
	C229.81,18.2,229.36,17.79,228.91,17.41z M231.95,20.16c-0.05,0.04-0.1,0.08-0.15,0.12c-0.04-0.05-0.08-0.1-0.13-0.15
	C231.77,20.14,231.86,20.16,231.95,20.16z M230.33,24.34c0.2-0.25,0.4-0.49,0.6-0.72c0.09,0.14,0.17,0.29,0.26,0.44
	c-0.29,0.1-0.59,0.2-0.87,0.31C230.32,24.36,230.33,24.35,230.33,24.34z M231.52,37.08c-0.06-0.04-0.13-0.07-0.19-0.11
	c-0.04-0.04-0.08-0.08-0.12-0.12c0.09-0.03,0.18-0.06,0.27-0.08c0.03,0.09,0.06,0.17,0.09,0.26
	C231.56,37.04,231.54,37.06,231.52,37.08z M231.3,31.45c-0.14,0.34-0.23,0.71-0.3,1.09c-0.03-0.68,0.19-1.47,0.63-2.29
	c0.39-0.73,0.94-1.47,1.63-2.16c0.13,0.29,0.26,0.58,0.39,0.88C232.49,29.55,231.73,30.41,231.3,31.45z M232.99,40.91L232.99,40.91
	c-0.18-0.12-0.36-0.23-0.53-0.35c0.06-0.13,0.14-0.25,0.21-0.38c0.19,0.14,0.37,0.28,0.57,0.42c0.11,0.08,0.22,0.16,0.33,0.23
	c0.05,0.07,0.1,0.13,0.14,0.2C233.3,41,233.13,41.01,232.99,40.91z M232.88,34.09c-0.05-0.81,0.04-1.57,0.31-2.24
	c0.22-0.54,0.58-1.01,1.09-1.38c0.4,0.99,0.79,2,1.16,3.03c-0.35,0.07-0.7,0.15-1.05,0.22C233.88,33.83,233.38,33.96,232.88,34.09z
	 M236,40.57c-0.27-0.15-0.54-0.31-0.82-0.5l-0.08-0.11c0.41,0.1,0.83,0.19,1.26,0.28C236.24,40.34,236.12,40.46,236,40.57z
	 M237.06,38.96c-0.76-0.14-1.49-0.32-2.2-0.53c0.54-0.16,1.09-0.31,1.66-0.47c0.13,0.09,0.29,0.18,0.44,0.26
	c0.04,0.12,0.07,0.25,0.11,0.37C237.07,38.72,237.06,38.84,237.06,38.96z M239.73,41.29c-0.04-0.18-0.09-0.36-0.13-0.54
	c0.02-0.02,0.05-0.04,0.07-0.06c0.17,0.01,0.34,0.02,0.51,0.03c0.02,0.12,0.05,0.24,0.08,0.36
	C240.09,41.17,239.92,41.23,239.73,41.29z M239.02,31.47c-0.31-0.66-0.63-1.31-0.97-1.96c0.93,0,2.01,0.11,3.25,0.35
	c0.09,0.19,0.18,0.37,0.27,0.56C240.68,30.73,239.82,31.08,239.02,31.47z M243.35,29.85c-0.11-0.23-0.22-0.46-0.34-0.72l-0.16-0.35
	l-0.52-0.11c-1.84-0.39-3.42-0.55-4.77-0.53c-0.13-0.62-0.27-1.25-0.42-1.9c2.02,0.18,4.07,0.73,5.84,1.71
	c0.24,0.13,0.48,0.27,0.7,0.42c0.05,0.42,0.09,0.83,0.13,1.25c0,0.03,0,0.06,0,0.08C243.66,29.76,243.51,29.81,243.35,29.85z
	 M255.54,34.67c0.17,0.03,0.37,0.05,0.53,0.08c0,0.23-0.03,0.45-0.09,0.65c-0.24-0.01-0.47,0-0.71,0.01
	C255.39,35.17,255.47,34.92,255.54,34.67z M246.96,37.28c-0.24,0.12-0.49,0.24-0.73,0.37c-0.03-0.48-0.08-0.93-0.16-1.34
	c0.29-0.17,0.59-0.33,0.89-0.49C246.94,36.25,246.94,36.74,246.96,37.28z M250.07,36.11c-0.02-0.43-0.05-0.86-0.11-1.26
	c0.01,0,0.03-0.01,0.04-0.01c0.06,0.09,0.12,0.18,0.18,0.26c0.07,0.29,0.11,0.61,0.11,0.94C250.22,36.06,250.15,36.09,250.07,36.11z
	 M247.98,28.86c-0.8-1.09-1.6-2.17-2.43-3.21c-0.2-0.31-0.42-0.59-0.64-0.88c2.07,0.49,4.25,1.55,6.45,3.35
	C250.27,28.35,249.14,28.6,247.98,28.86z M253.37,40.09c-0.86,0.14-1.7,0.31-2.51,0.51c-0.01-0.1-0.02-0.19-0.03-0.29
	c0.94-0.11,1.84-0.26,2.68-0.48c0.05,0.07,0.11,0.15,0.16,0.22C253.56,40.07,253.46,40.08,253.37,40.09z M252.61,34.35
	c0.32,0.02,0.62,0.05,0.93,0.08c-0.12,0.39-0.28,0.76-0.5,1.1c-0.11,0.01-0.22,0.03-0.33,0.05c-0.21-0.3-0.41-0.6-0.62-0.9
	c-0.02-0.03-0.04-0.06-0.06-0.09c-0.01-0.04-0.03-0.08-0.04-0.12C252.18,34.43,252.41,34.39,252.61,34.35z M252.16,30.97l0.13-0.08
	l0.08,0L252.16,30.97z M253.66,26.78c-1.02-0.86-2.05-1.58-3.08-2.18c-0.12-0.11-0.25-0.22-0.37-0.32c1.72,0.26,2.98,0.71,3.48,1.33
	C253.94,25.92,253.95,26.31,253.66,26.78z M256.29,39.75c-0.21,0.02-0.41,0.04-0.61,0.06c-0.14-0.19-0.27-0.37-0.41-0.56
	c0.39-0.16,0.77-0.33,1.11-0.53c0.13-0.07,0.25-0.15,0.36-0.22c0.24,0.27,0.45,0.63,0.6,1.07C257,39.63,256.65,39.69,256.29,39.75z
	 M259.12,35.67l-0.16-0.02l0.02-0.12c0.14,0.06,0.27,0.12,0.39,0.18L259.12,35.67z M259.6,33.38l0.25-0.02l0.12,0.15
	C259.84,33.46,259.72,33.42,259.6,33.38z M263.02,43.15l-0.06-0.01l0.12-0.03L263.02,43.15z M263.05,33.16
	c1.61-0.04,2.94,0.03,4.01,0.2c-1.01,0.42-2.03,0.92-3.07,1.51C263.75,34.3,263.44,33.73,263.05,33.16z M267.5,38.33
	c-0.88-0.44-1.79-0.83-2.71-1.18c1.37-0.84,2.71-1.51,3.99-2.03c0.39,0.87,0.65,1.89,0.73,3.1
	C268.86,38.24,268.19,38.28,267.5,38.33z M273.13,40.29c-0.1-0.02-0.21-0.05-0.31-0.07l0.34,0.01L273.13,40.29z M275.41,35.72
	c-0.64,0.31-1.29,0.62-1.92,0.94c0.13-0.74,0.08-1.43-0.17-2.05c-0.1-0.25-0.23-0.48-0.39-0.71c1.16-0.2,2.27-0.27,3.32-0.23
	C276.03,34.34,275.74,35.03,275.41,35.72z M270.55,32.17c-0.18-0.07-0.37-0.14-0.57-0.21c-2.04-2.12-5.19-2.96-8.89-2.84
	c-0.88,0.03-1.8,0.12-2.74,0.26c-0.37-0.07-0.74-0.14-1.11-0.2c13.5-2.47,18.27-1.43,19.25,0.94c0.17,0.42,0.24,0.9,0.22,1.41
	C274.79,31.42,272.72,31.61,270.55,32.17z"/>
</svg>
