<svg xmlns="http://www.w3.org/2000/svg" width="124.328" height="69.367" viewBox="0 0 124.328 69.367">
  <g id="Сгруппировать_2419" data-name="Сгруппировать 2419" transform="translate(-897.836 -1510.661)">
    <g id="Сгруппировать_2418" data-name="Сгруппировать 2418">
      <path id="Контур_6208" data-name="Контур 6208" d="M934.332,1523.289a33.434,33.434,0,0,1,6.723-5.173c-.006.055-.012.112-.016.167a7.847,7.847,0,0,0,.787,3.762,23.417,23.417,0,0,0-6.329.969,21.016,21.016,0,0,0-3.861,1.579,22.044,22.044,0,0,0-8.544.01l-.914-.213c-8.271-1.909-11.832,1.111-12.368,6.092-.015.145-.029.291-.038.44a14.706,14.706,0,0,0-4.389,6.4,5.334,5.334,0,0,0-.787.656c-1.466,1.495-2.084,3.835-1.347,7.173a47.848,47.848,0,0,0-4.881-.3h-.532v.782c0,8.016,3.705,10.92,8.057,11.62a15.454,15.454,0,0,0,2.976.166,29.047,29.047,0,0,0,2.85,3.789c-1.063,1.621-.788,3.14,1.212,4.455,2.164,1.423,6.878,2.468,14.895,2.9a16.046,16.046,0,0,0,4.924,8.335c.094.081.19.164.288.242a8.774,8.774,0,0,0,3.325,2.148,9.367,9.367,0,0,0,2.1.489,10.342,10.342,0,0,0,4.942-.087,6.63,6.63,0,0,0,2.847-1.6q.777-.406,1.541-.9a3.905,3.905,0,0,0,2.789-2.16,24.812,24.812,0,0,0,4.623-5.729l-.339-1.212a24.294,24.294,0,0,1-3.786,4.889c0-.051.007-.1.009-.158a10.605,10.605,0,0,0-.2-2.491,12.708,12.708,0,0,0,2.76-1.722c.189-.078.376-.166.563-.258a10.129,10.129,0,0,0,2.139-1.459l.091-.013a7.086,7.086,0,0,0,3.472.27c3.971,5.235,9.738,5.649,15.339,3.3a25.2,25.2,0,0,0,4.9-2.782c3.638.2,6.711.26,8.911.2,12.393-.324,19.376-1.655,22.329-3.584,2.607-1.7,2.721-3.7.962-5.829a9.42,9.42,0,0,0,3.1-3.631l.013-.027,0,0a10.766,10.766,0,0,0,1.064-3.511,14.891,14.891,0,0,0,2.556-1.97,9.808,9.808,0,0,0,2.95-4.905,4.054,4.054,0,0,0-1.449-4.382c-1.741-1.23-5.158-1.335-10.509.786-3.067-8.023-8.675-9.887-13.69-8.932a7.5,7.5,0,0,0-3.416-.83,22.211,22.211,0,0,0-3.283-.728c-2.21-.338-4.224-.57-6.057-.708.1-7.586-4.263-12.654-10.043-15.634-.169-.084-.339-.171-.512-.255a19.065,19.065,0,0,0-5.9-2.271,26.731,26.731,0,0,0-3.722-.517,30.553,30.553,0,0,0-8.775.092,15.259,15.259,0,0,0-5.056,1.689q-1.379.429-2.735.951c-2.445.347-4.05,1.152-4.952,2.284a35.188,35.188,0,0,0-8.209,6.061l.6,1.281Zm-5.739,45.311.86.039a20.914,20.914,0,0,0,.6,2.992q.1.354.207.693a16.034,16.034,0,0,1-1.663-3.724Zm1.5.062q.887.036,1.822.058l.049,0a15.448,15.448,0,0,0,9.647,7.875,18.865,18.865,0,0,0,3.154.685,12.631,12.631,0,0,1-6.293,1.015l-.25-.059a12.543,12.543,0,0,1-4.986-2.495,11.376,11.376,0,0,1-2.693-4.95,17.836,17.836,0,0,1-.45-2.132Zm2.9.075c.794,0,1.682-.006,2.654-.032a26.446,26.446,0,0,0,2.439,1.17,19.558,19.558,0,0,0,6.851,1.595,14.856,14.856,0,0,1,2.474,2.37,4.028,4.028,0,0,1-.665,2.108,15.878,15.878,0,0,1-5.064-.816,14.986,14.986,0,0,1-8.689-6.395Zm13.685,2.686a12.786,12.786,0,0,0,3.612-.84,7.968,7.968,0,0,1,.205,2.063,4.261,4.261,0,0,1-.18,1.057,20.95,20.95,0,0,1-2.6,2.016A6.906,6.906,0,0,0,948,1573.3l-.019-.392-.142-.18a14.978,14.978,0,0,0-1.166-1.3Zm14.473-4.562.047-.014.515.2c2.376.921,4.063.628,5.185-.5,4.008.447,7.827.776,11.239.995a22.668,22.668,0,0,1-3.132,1.62c-5.005,2.1-10.147,1.882-13.854-2.3Zm7.242-3.439a14.335,14.335,0,0,0,.287-2.135c.008-.137.016-.275.02-.415.142-.213.278-.429.411-.648.4-.153.806-.316,1.2-.493,1.765.084,3.375.1,4.841.064a11.418,11.418,0,0,0,1.61.449q-1.082.909-2.122,1.624c-1.871.53-3.837,1.019-5.858,1.468l-.393.086Zm1.767-5.254c.039-.09.074-.179.111-.269l.922-.285c-.245.143-.495.285-.746.421l-.281.133Zm1-3.249.017-.1a3.938,3.938,0,0,0,.443-.618,6.924,6.924,0,0,0,.818-2.536q.649,1.32,1.525,2.781c.108.27.219.53.332.782-.816.281-1.631.551-2.43.808a6.735,6.735,0,0,1-.705-1.12Zm1.936-7.379c.262.039.509.068.735.091a4.754,4.754,0,0,1-.3.6c-.075.127-.157.258-.244.387-.073-.365-.136-.725-.189-1.078Zm1.909.169h.331a21.461,21.461,0,0,1,.04,2.79q-.648-.445-1.26-.9c.08-.117.152-.236.22-.353a6.38,6.38,0,0,0,.669-1.535Zm-8.609-17.416a8.425,8.425,0,0,0-1.825-1.9,20.77,20.77,0,0,0,3.273-2l.216-.165.027-.352a4,4,0,0,0,0-.648c1.124.1,2.235.162,3.319.191l.167.089a2.534,2.534,0,0,1,.271.957,5.807,5.807,0,0,1-.854,3.074,18.643,18.643,0,0,0-4.595.753Zm-3.306-2.6a3.389,3.389,0,0,0-2.3.289l-.095.049a50.378,50.378,0,0,0-6.436-2.773l-.02-.022a38.155,38.155,0,0,1,4.309-1.021q.779-.138,1.505-.251.744.174,1.5.325c1.864.375,3.756.659,5.618.849.013.083.022.163.027.245a21.931,21.931,0,0,1-4.1,2.31Zm-10.035-3.441c-.1-.074-.2-.144-.294-.212a7.311,7.311,0,0,0-4.176-1.515,26.787,26.787,0,0,1,3.862-.979,42.719,42.719,0,0,0,4.565,1.623,35.676,35.676,0,0,0-3.957,1.083Zm-10.1,2.7q-.36.7-.692,1.521l-.6-.156c.025-.058.052-.116.079-.172a9.779,9.779,0,0,1,.6-1.106c.2-.03.407-.06.614-.087Zm-2.256,1.129-.489-.115c.183-.23.376-.452.575-.667l.276-.05-.066.139c-.1.225-.2.457-.3.693Zm-1.674-.384-.053-.009.075-.019-.022.028Zm-5.688-1.039c-.454-.069-.9-.133-1.34-.188l.381-.118c.324.092.646.193.959.306Zm-4.684-.554c-.265-.024-.527-.044-.779-.062-.237-.1-.481-.205-.729-.3a20.274,20.274,0,0,1,2.2.071c-.234.095-.467.192-.7.292Zm-13.3,1.092a8.555,8.555,0,0,0-3.876,2.142,5.115,5.115,0,0,0-.434.542l-.038.028c.671-3.145,3.247-5.067,8.563-4.419-.745.238-1.482.5-2.205.8-.683.277-1.355.581-2.01.908Zm-5.1,8.608c-.062.1-.124.21-.185.321a9.661,9.661,0,0,0-3.149.454,13.837,13.837,0,0,1,2.874-3.843,19.493,19.493,0,0,0,.46,3.068Zm-.87,1.877c-.07.2-.132.4-.189.6l-.008.024v0a16.637,16.637,0,0,0-.486,2.233,5.778,5.778,0,0,0-2.679-.056,7.5,7.5,0,0,1,.169-1.814h0c.012-.059.026-.118.04-.175a7.139,7.139,0,0,1,3.154-.817Zm-1.153,4.336a10.838,10.838,0,0,0-1.085,1.473c-.081.131-.159.263-.236.4A8.548,8.548,0,0,1,906.2,1542a4.616,4.616,0,0,1,2.012.019Zm-2.556,5.033q-.111.482-.175.953c-.136-.355-.258-.7-.362-1.041.179.027.356.056.537.088Zm3.968,5.8a10.879,10.879,0,0,0,2.576-1.317,25.182,25.182,0,0,0,1.072,3.574,14.748,14.748,0,0,1-3.784-1.45,3.972,3.972,0,0,1,.136-.807Zm4.684,4.391a8.954,8.954,0,0,0,.674.974c-.351.239-.682.473-.99.709a17,17,0,0,1-1.792-1.367,4.613,4.613,0,0,0,2.108-.316Zm1.53,1.871a4.119,4.119,0,0,0,4.6.664l.067-.029a4.034,4.034,0,0,0,.7.633,7.62,7.62,0,0,1-6.093-.787c.227-.157.468-.319.719-.481Zm7.076,2.111q.25.084.525.162c-.324.035-.645.063-.964.087q.221-.117.439-.249Zm4.181.932v.319a11.569,11.569,0,0,1-3.463,1.708c-2.93.843-6.122.28-9.292-2.329,3.416,1.321,7.992,1.275,12.755.3Zm.055,2a24.834,24.834,0,0,0,.378,3.061c-7.681-.437-12.182-1.432-14.227-2.775a1.646,1.646,0,0,1-.725-2.342c3.8,3.76,7.7,4.638,11.259,3.612a12.224,12.224,0,0,0,3.315-1.556Zm17.728,5.737a18.8,18.8,0,0,0-2.46-1.525c1.219-.088,2.493-.191,3.806-.309a8.217,8.217,0,0,0,3.293,1.159,12.7,12.7,0,0,1-4.639.675Zm-5.161-2.686-.174-.06a20.409,20.409,0,0,0-5.494-1.064,33.751,33.751,0,0,1-3.044-2.219,16.164,16.164,0,0,1-.283-1.679,6.144,6.144,0,0,0,4.135-1.942c.234.078.472.154.711.231a15.244,15.244,0,0,0,1.75.564,28.36,28.36,0,0,0,7.14,5.637c.064.063.129.125.194.185-1.74.145-3.4.26-4.935.347Zm-11.481.047a21.872,21.872,0,0,1-.486-3.514c.19-.138.377-.283.564-.433.764.729,1.555,1.42,2.363,2.072.077.287.164.572.255.856a10.651,10.651,0,0,0-1.344.3l-.319.095.053.678q-.553-.024-1.086-.052Zm1.263-4.991c.208,0,.41-.01.605-.023.033.323.073.647.121.97-.3-.259-.595-.524-.888-.793l.162-.154Zm9.827,6.3.138.048a20.006,20.006,0,0,1,2.017.8,21.327,21.327,0,0,1-2.6-.826l.44-.025Zm-11.509-8.844c.039-.458.089-.922.148-1.4a10.084,10.084,0,0,0,2.1.439c-.019.238-.031.475-.042.715a17.43,17.43,0,0,1-2.2.244Zm2.358-3.161c.065-.046.128-.092.192-.141l-.017.084-.015.076-.16-.019Zm-2.809,1.557c-.067.552-.122,1.089-.165,1.618-.171,0-.344,0-.512-.01-.332-.372-.659-.755-.976-1.141l.082-.11c.187-.256.362-.509.527-.764h.075c.324.151.646.285.969.408Zm-5.193.542a9.72,9.72,0,0,0,1.122-1.152q.369.522.754,1.03a8.112,8.112,0,0,1-.672.617,9.6,9.6,0,0,1-1.2-.495Zm6.23-2.679a10.072,10.072,0,0,1,.517-1.507,5.462,5.462,0,0,0,1.862.047,5.41,5.41,0,0,1-2.379,1.46Zm6.74-2.326a10.345,10.345,0,0,1,.311,1.271c.023.123.039.247.055.37-.2.184-.4.351-.607.507q-.21-.328-.412-.676l.028-.058q.33-.695.625-1.414Zm-1.332.169c-.111-.236-.219-.478-.322-.728l1-.885c-.209.545-.434,1.087-.675,1.613Zm4.642-.116q.088.985.221,1.935a11.8,11.8,0,0,1-2.266.738,12.99,12.99,0,0,0,2.006-2.7l.039.029Zm.637,4.235c.166.755.362,1.476.583,2.16l-.871-.241c-.333-.227-.668-.467-1.005-.717-.142-.122-.284-.247-.423-.376.58-.266,1.154-.541,1.716-.826Zm-3.023-3.2c-.018-.13-.039-.261-.062-.39a12.217,12.217,0,0,0-.446-1.763l.062-.164c.566.214,1.14.422,1.715.628a11.792,11.792,0,0,1-1.269,1.689Zm3.052-.542c.1.078.2.156.3.236.033.266.069.527.106.784-.084.048-.167.093-.254.139-.056-.382-.105-.767-.149-1.159Zm.814,3.311a26.392,26.392,0,0,0,.766,2.8l-.151-.017a18.274,18.274,0,0,1-.842-2.665l.227-.12Zm3.634-4.467c.3.061.606.123.909.181-.182.135-.367.269-.556.405l-.379-.118c0-.137-.007-.273-.007-.408l.033-.06Zm3.08.538c.878.121,1.736.21,2.566.264.3.348.595.711.895,1.094q.213.271.4.531c-.778-.193-1.679-.429-2.67-.7a12.123,12.123,0,0,1-1.252-1.041l.064-.146Zm4.143,4.174c.036.251.073.495.115.736a40.89,40.89,0,0,1-5.553-2.263c.093-.171.184-.336.271-.5.878.256,1.715.493,2.491.7a13.647,13.647,0,0,0,2.676,1.328Zm.438,2.417-.022.031q-1.71.162-3.226.239a16.6,16.6,0,0,1-2.213-1.23c-.249-.165-.485-.327-.711-.487-.242-.315-.489-.627-.738-.934l.106.02.156-.26.035-.054a41.746,41.746,0,0,0,6.613,2.675Zm-2.868,1.825c-.1.03-.214.056-.322.082l-.753-.154-.072-.119.641-.026c.17.073.337.146.506.217Zm-21.212-9.608a7.931,7.931,0,0,1-1.208-.723c.418-.231.84-.446,1.256-.639a8.669,8.669,0,0,1-.048,1.362Zm.922,2.2c-.116.369-.221.765-.315,1.185l-.311-.157c.136-.318.254-.638.357-.956l.269-.072Zm-1.7.445.058-.013-.015.037-.043-.024Zm18.37,4.936c.141.184.282.366.418.551-1.317.006-2.51-.04-3.586-.13a22.61,22.61,0,0,1-1-3.229c.282-.156.56-.315.834-.474a12.38,12.38,0,0,0,3.332,3.282Zm3.144,4.738.146.265q-.729.087-1.517.129a4.927,4.927,0,0,1-2.489-.505c-.185-.217-.368-.447-.545-.689a14.1,14.1,0,0,0,4.405.8Zm.858,1.642.06.126-.542.057c-.118-.021-.236-.045-.353-.072.285-.032.564-.069.835-.111Zm.905.039-.079-.183a13.918,13.918,0,0,0,3.96-1.381,7.824,7.824,0,0,0,.815.831c.061.052.12.1.181.152-1.653.216-3.284.41-4.877.581Zm-.711-1.541-.083-.164a11.613,11.613,0,0,0,2.4-.412l.066.014a17.137,17.137,0,0,1-2.379.562Zm2.438-3.253.065-.084.241-.023.071.192c-.126-.025-.253-.055-.377-.085Zm-20.721-2.543.019-.253.177,0-.2.251Zm.341-2.4c.055-.252.116-.5.181-.742a4.991,4.991,0,0,0,.2.772l-.385-.03Zm5.763-8.146c.116-.05.235-.1.355-.141l-.4.349.047-.208Zm8.759,1.786c.334.249.672.522,1.012.816-.056.2-.119.392-.189.6-.157.143-.32.283-.487.425l-.684-.124-.038-.066a3.015,3.015,0,0,1-.4-.982,4.009,4.009,0,0,0,.783-.666Zm2.085,1.809c.111.11.22.221.332.335-.2-.024-.4-.05-.6-.077.091-.086.178-.173.267-.258Zm1.935.489c-.39-.462-.777-.892-1.162-1.3a5,5,0,0,0,.382-.472c.079-.1.169-.231.425-.526l.39-.452a17.553,17.553,0,0,0,.956,2.758v.041c-.326-.012-.655-.03-.991-.051Zm-3.481-8.233v0a15.349,15.349,0,0,1,1.755-2.139q.615.342,1.223.647a8.71,8.71,0,0,1-1.626,2.644c-.113.016-.224.032-.337.045a4.782,4.782,0,0,0-.294-.438,4.58,4.58,0,0,0-.721-.757Zm-.482-1.208-.077-.167.464-.355c-.132.172-.26.345-.387.522Zm-.624-1.251a14.43,14.43,0,0,0-1.452-2.2l.31.012q1.086.762,2.149,1.422c-.337.253-.672.51-1.007.767Zm-4.028-4.266-.137-.054.072-.21.065.067,0,.038,0,.159Zm8.376,3.716v0l-.355-.182c.1-.086.2-.169.306-.251a3.066,3.066,0,0,1,.049.431Zm.11,7.81.019.088-.435-.13c-.414-.124-.8-.221-1.156-.3,0-.12,0-.235,0-.351a14.519,14.519,0,0,0,1.569.691Zm-7.219-2.192c-.33-.112-.652-.2-.97-.279a2.94,2.94,0,0,0,.109-.368l.154-.128a8.5,8.5,0,0,0,2.086.621,5.483,5.483,0,0,1-1.379.154Zm-2.386-.905c.016-.292.033-.584.053-.883.11.089.22.177.334.262l-.082.366-.3.255Zm.255-3.2q.038-.36.08-.73l.017-.147c.207.068.407.143.606.222-.028.207-.057.417-.087.629-.2,0-.41.013-.616.026Zm.243-2.144.114-.974c.123.132.241.266.356.4l.163.193c-.011.194-.025.389-.04.587q-.289-.111-.593-.209Zm2-.669a10.27,10.27,0,0,1,1.929,2.405l-.416.326a14.446,14.446,0,0,0-1.513-2.731Zm2.511,3.458.047.092-.1-.047.057-.045Zm.87,2.067,0,.007-.213-.184c.072.057.144.115.211.177Zm-6.513.918-.128.007c.05-.64.115-1.274.192-1.907l.047.05c-.047.63-.085,1.245-.111,1.85Zm-3.306.963a8.36,8.36,0,0,0-1.275.9c0-.127,0-.257,0-.391a6.346,6.346,0,0,0,.765-.326l.525-.263-.015.078Zm-.741-1.869c-.029-.063-.062-.13-.1-.212.387-.16.8-.312,1.221-.444-.031.32-.07.641-.115.965-.334-.1-.669-.2-1-.309Zm-.72-1.3c-.117-.189-.236-.377-.36-.565l-.038-.169c.678.037,1.294.087,1.854.15a15.609,15.609,0,0,0-1.456.584Zm-.467-2.012a10.5,10.5,0,0,1,.738-.98q.849-.021,1.669.022c.019.411.029.825.027,1.241q-1.084-.183-2.434-.283Zm2.053-2.261c.076-.062.152-.119.23-.174l.022.184-.252-.01Zm3.477-.372c-.063.262-.121.527-.179.793-.411-.1-.834-.173-1.266-.237-.026-.1-.055-.209-.08-.315l-.046-.2q.77-.033,1.571-.046Zm-.424,2.034q-.064.351-.121.706a7.734,7.734,0,0,1-.422-.818c.183.036.365.072.543.112Zm-.4,2.679q-.129,1.056-.207,2.13c-.414-.091-.836-.193-1.263-.3.07-.52.129-1.04.171-1.56.284-.071.572-.133.864-.189l.435-.077Zm13.071,13.7a2.81,2.81,0,0,1,.039.7l-.1-.028c-.053-.239-.1-.481-.146-.732l.2.061Zm.639.87a5.859,5.859,0,0,0,0-.713,11.25,11.25,0,0,0,1.835.261q.141.5.3.977-1.071-.227-2.136-.525Zm-.646-3.165a9.614,9.614,0,0,0-.542-1.018c-.012-.273-.021-.55-.025-.836h.047a12.231,12.231,0,0,0,1.452,2.052c-.259-.049-.572-.117-.932-.2Zm1.028,6.1c-.075-.147-.148-.3-.217-.459q.9-.1,1.857-.217a12.7,12.7,0,0,1-1.243.737c-.134-.019-.266-.039-.4-.061Zm-20.979-17.534c-.007-.275-.011-.554-.011-.839.21,0,.419,0,.622.008l-.021.062a9.208,9.208,0,0,0-.268.9l-.322-.134Zm.96-2.91c.081.258.157.51.23.757l0,0c-.188-.244-.381-.486-.58-.723l.352-.036Zm-1.5-2.159a11.464,11.464,0,0,1,.894-1.414q1.961-.285,3.667-.441c.079.312.149.627.213.947l.021.106-.1.077q-1.711.157-3.235.426c-.075-.212-.153-.426-.23-.644l-.1-.286-.154.045a1.045,1.045,0,0,0-.581.62,3.081,3.081,0,0,0-.179.517l-.208.047Zm2.147-2.925q.332-.351.671-.658.609.2,1.183.448-.894.091-1.854.21Zm4.1-.843q.926.164,1.936.388c-.461,0-.939.02-1.434.041-.165-.1-.334-.207-.505-.307l0-.122Zm2.653,1.707-.022.156,0,.015c-.08-.018-.16-.033-.241-.043l-.146-.128Zm-2.318.315c-.083.027-.166.055-.249.087l-.027-.268c.094.06.185.12.276.181Zm-3.379,2.454-.036.043c-.14.005-.279.012-.419.016.15-.02.3-.038.455-.059Zm-3.272,3.947,0,.146-.147-.069.063-.032.082-.045Zm1.715,9.745c.154.393.318.777.489,1.147h0c-.242-.306-.484-.62-.728-.933l.242-.214Zm.5-6.941a1.09,1.09,0,0,1-.486-.155c.117-.091.24-.178.371-.264l.237.088a1.8,1.8,0,0,1-.122.331Zm-.632-1.989c.021-.07.045-.139.069-.211.054-.149.111-.3.174-.453a4.7,4.7,0,0,1,.377.783l-.121.073c-.167-.064-.334-.127-.5-.192Zm-7.8,6.024c-.089-.1-.171-.2-.251-.3l.387.078c.008.042.015.081.022.122l-.158.1Zm-1.357-.548a5.171,5.171,0,0,0,.551,1.09,16.421,16.421,0,0,0-1.441,1.144,11.9,11.9,0,0,1-.886-.883,2.114,2.114,0,0,0-.524-.321l-.336-.174q-.286-.619-.541-1.247a7.088,7.088,0,0,0,.662-.287c.887.264,1.721.486,2.515.678Zm-2.82,3.495a6.235,6.235,0,0,1-2.911-1.361,7.224,7.224,0,0,1,.051-1.329q.349.214.678.408c.705.809,1.435,1.573,2.182,2.282Zm-4.495-3.226-.063-.1.028,0,.035.1Zm3.018-.319.026-.009.009.027-.035-.018Zm3.425-1.843.017-.019.136.038-.153-.019Zm2.217,3.963.08.082a7.431,7.431,0,0,1-.33,1.084l-.5.2q-.3-.222-.59-.442c.425-.323.875-.631,1.336-.922Zm.668.608c.056.046.115.089.172.136l-.222.083c.016-.072.033-.146.05-.219Zm-.435-4.293-.062-.106a3.715,3.715,0,0,0-.212-.313c.53.069,1.039.152,1.515.25l.153.255c-.441-.015-.906-.046-1.394-.086Zm-1.187-2.116c-.057.084-.11.172-.16.26l-.289-.027c.01-.049.017-.1.025-.149l.424-.084Zm3.624-.529a5.946,5.946,0,0,1,3.346,1.445c-.011.038-.021.076-.032.114-1.084-.461-2.156-.945-3.207-1.444l-.107-.115Zm2.709-.528a6.748,6.748,0,0,0-1.066-.551c.143-.064.287-.128.434-.2l.232.126c.129.205.262.414.4.623Zm-10,11.972a2.684,2.684,0,0,1,.2-.769c.166-.026.334-.054.5-.084.413.179.836.342,1.266.487a7.478,7.478,0,0,1-1.233.951l-.19-.138q-.285-.216-.542-.447Zm-.471,1.14a3.726,3.726,0,0,1-2.764-.148c.544-.312,1.126-.628,1.743-.942a8.587,8.587,0,0,0,1.021,1.09Zm-3.892-.913a6.478,6.478,0,0,1-.765-.843,18.188,18.188,0,0,0,2.011.114c-.387.216-.755.43-1.108.645l-.138.084Zm-1.79-2.548a18.59,18.59,0,0,1-1.193-3.352c.157.1.315.2.479.3a4.778,4.778,0,0,0,1.6,2.222h0a7.173,7.173,0,0,1-.256.672c-.209.052-.421.108-.637.16Zm4.631-6.275c-.079.01-.16.024-.242.034v0l.048-.1.193.068Zm-5.9.753.006,0-.318.219-.054-.037q.178-.094.366-.184Zm-.651-2.15c-.016-.331-.019-.644-.009-.942a15.078,15.078,0,0,0,1.187,1.231c-.021.095-.042.186-.062.276l-.054.023a11.666,11.666,0,0,0-1.062-.588Zm.219-2.622q.056-.208.122-.4c.283.3.563.616.835.959-.243-.091-.483-.177-.719-.256-.082-.1-.161-.2-.238-.306Zm1.542-2.283c.09-.06.18-.116.273-.168q-.036.281-.064.563c-.07-.132-.14-.263-.209-.4Zm-1.383-.133-.071.117a9.115,9.115,0,0,0-1.134-.884,2.872,2.872,0,0,1,.149-.517c.131-.057.265-.108.4-.156q.31.72.656,1.44Zm-.638,1.433c-.018.055-.033.113-.05.17-.07-.126-.135-.255-.192-.381.081.068.16.138.242.211Zm-.365,2.306c-.015.322-.017.656-.007,1.009-.147-.063-.3-.125-.447-.186a5.994,5.994,0,0,1-1.022-1.2c.461.1.952.219,1.476.375Zm-2.14-1.821a6.82,6.82,0,0,1-.266-1.663c.1-.09.191-.175.291-.258.2.063.4.132.61.213.076.028.153.058.23.094.012.1.027.2.043.3a5.912,5.912,0,0,0,.553,1.6c-.518-.125-1-.221-1.461-.286Zm3.616-3.653a7.137,7.137,0,0,1,1.538-.1l-.045.171a4.074,4.074,0,0,0-1.14.685c-.121-.252-.238-.506-.353-.757Zm-1.773,9.965c-.1.058-.2.112-.291.165.079-.068.158-.137.24-.2l.051.037Zm-2.247.96c-.074.017-.148.032-.221.046a2.773,2.773,0,0,0-.318-.651,1.588,1.588,0,0,0-1.976-.637c-.188-.355-.362-.709-.525-1.061a4.961,4.961,0,0,1,.037-.69,8.117,8.117,0,0,1,.3-1.375c.519.1,1.042.21,1.561.333a19.188,19.188,0,0,0,2.4,2.31c-.055.055-.111.11-.164.165a5.921,5.921,0,0,0-1.094,1.56Zm-1.217-7.38a10.443,10.443,0,0,1,.753-.944,8.817,8.817,0,0,0,.129.971,8.367,8.367,0,0,0-.882-.027Zm1.258,1.386a6.924,6.924,0,0,0,.344.782c-.373-.11-.753-.211-1.135-.306-.149-.184-.29-.364-.423-.548a8.975,8.975,0,0,1,1.214.072Zm2.227,3.06c.1.073.19.144.286.211l-.191.124c-.271-.2-.527-.405-.775-.609.232.087.46.18.68.274Zm3.63-6.587a4.877,4.877,0,0,1,1.1-.215,14.563,14.563,0,0,0-1.273,2.12l-.045-.08c.019-.392.057-.784.111-1.167q.046-.335.111-.658Zm2.5-.184.137.017c0,.428.024.863.056,1.3a21.97,21.97,0,0,0,.408,2.831,2.152,2.152,0,0,0-.245.748c-.117.05-.232.1-.35.158l-.1.014q-.462-.174-.947-.363-.532-.78-1.026-1.583a12.35,12.35,0,0,1,2.063-3.119Zm1.218.633q.918.624,1.909,1.236a10.167,10.167,0,0,0-1.482,1.04c-.052.046-.1.091-.152.137a19.08,19.08,0,0,1-.242-1.9c-.012-.171-.023-.339-.033-.51Zm3.861,2.4.1.058a3.043,3.043,0,0,1,.162.3c-.449.088-.9.185-1.367.294a10.2,10.2,0,0,1,1.106-.647Zm-2.352-3.829-.241-.084-.091-.061c-.254-.164-.5-.317-.751-.457l.04-.026c.353.2.7.409,1.043.628Zm-2.494-1.291a9.912,9.912,0,0,0-1.224-.414c-.143-.112-.285-.224-.423-.336l.028-.046c.545.211,1.091.445,1.629.7l-.01.094Zm-.721-2.049a5.627,5.627,0,0,1,1.378-1.132,15.611,15.611,0,0,0-.407,1.564c-.321-.151-.646-.3-.971-.432Zm2.962-1.714a6.428,6.428,0,0,1,3.3.334c-.049.472-.077.953-.081,1.443a8.849,8.849,0,0,0-3.826,1.084c-.124-.07-.246-.136-.371-.2a13.633,13.633,0,0,1,.811-2.609l.165-.05Zm4.348.767c.118.056.236.115.357.177a6.126,6.126,0,0,0-.4.733c0-.308.02-.611.045-.91Zm-.76,4.557c0,.092.006.181.012.265.005.106.014.207.025.3a21.816,21.816,0,0,0-2.912-2.238,8.362,8.362,0,0,1,2.555-.544,17.193,17.193,0,0,0,.32,2.214Zm2.556,3.194c-.089-.075-.179-.15-.27-.223l-.289-.427a16.1,16.1,0,0,1,2.355-.3c.114.082.23.161.347.241a21.935,21.935,0,0,1-2.143.711Zm-1.741-4.962c.041-.141.09-.284.145-.429a10.649,10.649,0,0,1,1.089.149,2.089,2.089,0,0,0-.21,1.081,2.616,2.616,0,0,0,.415,1.162q-.506.159-.992.325a16.461,16.461,0,0,1-.447-2.288Zm.841-1.686c.107-.142.222-.282.349-.421q.516.322,1.06.713l-.088-.022a11.367,11.367,0,0,0-1.321-.27Zm4.59,3.992c0,.068-.008.137-.012.2l-.086-.184.1-.019Zm-16.4-5.317a13.832,13.832,0,0,1-1.126-1.364c1.851-1.376,4.363-1.569,7.068-.918-.069.133-.136.27-.2.4q-.907.294-1.843.65a21.124,21.124,0,0,0-3.066,1.435c-.278-.076-.558-.144-.832-.207Zm17.08,5.194a2.066,2.066,0,0,1,.128.437h-.213c.005-.141.018-.284.036-.43l.049-.007Zm-16.151-2.679a7.394,7.394,0,0,0-1.194.1c.223-.178.469-.357.74-.533.148.143.3.286.454.431Zm-3.47.879a8.633,8.633,0,0,0-1.286.847l-.209-.063a13.06,13.06,0,0,1,.348-1.545h0l.006-.02a9.458,9.458,0,0,1,.55-1.464c.175.005.354.013.533.026q.23.744.508,1.5a5.456,5.456,0,0,0-.45.718Zm.575-4,.1-.1c.091.142.188.284.29.428l-.31-.037c-.027-.1-.053-.2-.077-.29Zm8.654-2.963c-3.245-.928-6.294-.71-8.436,1.2a3.309,3.309,0,0,1-.38-2.678,25.424,25.424,0,0,1,4.949-3.041,38.645,38.645,0,0,1,7.885-1.017c.565-.024,1.234-.024,1.987,0a17.45,17.45,0,0,0-6.005,5.54Zm10.889-5.147c.784.093,1.6.2,2.443.328-.424.225-.826.457-1.2.7a15.114,15.114,0,0,0-1.241-1.027Zm5.083.767c.336.061.673.124,1.015.189a11.122,11.122,0,0,1,.866.845,13.385,13.385,0,0,0-.975,2.748,8.982,8.982,0,0,0-1.536.753,15.429,15.429,0,0,0-2.19-3.233,17.91,17.91,0,0,1,2.82-1.3Zm3.289.663c.315.072.632.143.947.217-.076.29-.145.589-.2.893a11.783,11.783,0,0,0-.745-1.11Zm1.864.439.094.02-.122.074.028-.094Zm-2.043,2.17a8.761,8.761,0,0,0-1.1.177,11.528,11.528,0,0,1,.592-1.525,10.734,10.734,0,0,1,.666,1.041c-.059.1-.112.2-.161.307Zm-4.824,1.765a22.046,22.046,0,0,0-2.22-.048,20.778,20.778,0,0,0-2.532-.349c.048-.079.1-.157.151-.235a9.577,9.577,0,0,1,2.367-2.374,13.657,13.657,0,0,1,2.234,3.006Zm-7.242,1.107a6.876,6.876,0,0,0-1.308.9c-.374-.24-.749-.469-1.129-.684.837-.115,1.65-.184,2.437-.214Zm-4.744-.946c-.347-.148-.69-.287-1.034-.412a16.5,16.5,0,0,1,4.988-4.405,14,14,0,0,0-2.449,4.532c-.494.081-1,.176-1.505.285Zm8.025,5.484c-.325-.315-.656-.624-.994-.922q.69-.164,1.558-.312a10.67,10.67,0,0,0-.564,1.234Zm-2.954-2.512c-.181-.134-.361-.266-.545-.4.186-.114.383-.22.593-.322-.025.238-.041.476-.048.717Zm1.228-1.182a12.622,12.622,0,0,1,3.054-.516c.4.074.781.161,1.159.258-.366.414-.693.822-.989,1.23l-.45.067a18.535,18.535,0,0,0-2.919.665,7.811,7.811,0,0,1,.145-1.7Zm9.038-1.971a8.222,8.222,0,0,1,1.15-.246,3.888,3.888,0,0,0,.116.939c-.457-.1-.9-.182-1.334-.258.02-.146.043-.292.068-.435Zm2.222-.327h.2a13.4,13.4,0,0,1,.421,1.38l-.261-.063a2.4,2.4,0,0,1-.362-1.317Zm1.622.12.181.031c-.067.129-.134.261-.2.4l-.044-.162.063-.264Zm1.255.279a17.9,17.9,0,0,1,7.308,4.543l-.006,0a39.69,39.69,0,0,0-5.626-2.523l-2.214-.593a9.958,9.958,0,0,1,.471-1.28l.067-.149Zm10.007,7.587.013.015-.018.008.005-.023Zm.913,1.254.086.127c-.031.187-.062.374-.089.561-.336-.112-.673-.236-1.012-.364a9.289,9.289,0,0,1,1.015-.324Zm-.26,2.611-.036.346c-.529.1-1.061.2-1.592.3l.005-.03q.807-.279,1.623-.615Zm-.167,1.847c-.043.578-.072,1.162-.089,1.74a16.222,16.222,0,0,1-1.676-.292l-.043-.058c.039-.355.082-.716.132-1.083q.651-.137,1.31-.248l.366-.059Zm-.111,3.067,0,.287c-.106-.108-.213-.215-.317-.328.1.016.209.029.313.041Zm.063,2.206.022.331q-.82.075-1.7.078-.133-.237-.26-.483l-.092-.184q.03-.858.1-1.782a19.222,19.222,0,0,0,1.934,2.04Zm-1.156-7.96.015-.073.088.034-.1.039Zm.21-5.309-.025-.03c.209-.113.419-.222.631-.329-.051.134-.1.269-.153.408l-.453-.049Zm-1.33-1.484a19.632,19.632,0,0,0-7.456-5.064l.044-.053a42.861,42.861,0,0,0,5.962-.09c.819.322,1.622.662,2.4,1.019q.408.312.827.624c.351.423.706.887,1.069,1.4a5.746,5.746,0,0,0-2.848,2.166Zm-5.974-6.394a4.852,4.852,0,0,1,.431-.244q.395.122.787.251c-.413,0-.818,0-1.218-.007Zm-2.75-.164.044-.134a10.81,10.81,0,0,1,1.293-.492l.1.028c-.18.224-.35.449-.513.676-.311-.022-.618-.048-.919-.078Zm13.856,15.718q.493,1.043.882,2.1-.678.063-1.331.076c-.024-.738-.018-1.45.016-2.142l.433-.031Zm1.315,3.382q.19.624.341,1.243a8.077,8.077,0,0,1-1.828.8c-.089-.658-.157-1.3-.206-1.924.555-.014,1.118-.053,1.693-.117Zm-3.625.872v-.027l0,.03,0,0Zm4.508-.269c-.055-.231-.115-.463-.177-.7.443-.065.894-.145,1.349-.242a5.292,5.292,0,0,1-1.12,1.172c-.017-.079-.035-.157-.052-.234Zm-.56-1.975q-.338-1.032-.772-2.057c.752-.029,1.479-.025,2.172.012.08.242.165.482.254.717.121.324.253.642.391.955-.7.162-1.377.285-2.045.373Zm-2.6-5.674c-.091-.152-.182-.3-.275-.455l0-.013c.12.078.24.158.359.24l-.044.206-.043.022Zm1.4.706c.191.144.38.288.562.432-.324-.066-.649-.14-.977-.22.125-.063.253-.128.38-.195l.035-.017Zm1.448,8.676c.076.42.133.837.175,1.247a11.9,11.9,0,0,1-1.419-.631,8.141,8.141,0,0,0,1.244-.616Zm.25,2.882a11.729,11.729,0,0,1-.094,1.34c-.165.059-.331.113-.495.161l-.9-.146-.026-.131-.394-2.045a12.623,12.623,0,0,0,1.907.821Zm-3.263,1.074c-.226-.136-.447-.282-.658-.438q-.2-.986-.317-2.02l-.02-.164c.13-.019.261-.039.389-.062a24.945,24.945,0,0,0,.893,2.729l-.287-.045Zm.458,3.3c-.157-.369-.3-.745-.431-1.135a10.563,10.563,0,0,0,1.184-.08l.006.013q.132.552.272,1.08l-.08.08-.661.093-.29-.051Zm4.417-.95.037-.008.236.037c-.026.1-.05.2-.077.307l-.322.051c.043-.128.085-.256.126-.387Zm-3.044,3.424-.012-.015c.112-.153.221-.305.323-.463.042.123.085.247.131.367l-.051.1-.391.015Zm2-5.762c.022-.3.038-.594.044-.894.187.053.373.1.559.143-.124.222-.253.438-.386.654l-.217.1Zm0-2.5c-.045-.613-.122-1.235-.23-1.861a6,6,0,0,0,1.658-1.906c.079.446.147.886.2,1.317l-.42,2.165c-.037.188-.076.374-.114.562-.366-.075-.731-.166-1.1-.277Zm1.66,3.052-.026.2-.126.028.045-.158.107-.068Zm-4.9,6.552.013-.012c.286.005.569.005.857,0l-.087.136-.783-.124Zm-.641-25.715-.1.338c-.107.385-.213.778-.31,1.174-.312-.038-.62-.077-.929-.113a9.816,9.816,0,0,1,.561-1.08c.255-.111.515-.217.775-.319Zm-3.662-6.946a9.176,9.176,0,0,0-1.643-1.163l-.2-.179a33.021,33.021,0,0,1,6.707.519c-.288.064-.577.123-.868.183-1.326.269-2.667.483-4,.64Zm-7.82-1.994-.31-.085a13.532,13.532,0,0,1,1.065-1.884c.244-.027.49-.051.738-.075q.525.627,1.107,1.258c-.091.073-.181.147-.269.22a17.34,17.34,0,0,0-2.331.566Zm2.316-3.677c.074-.057.149-.115.224-.169.262.029.522.061.78.093-.339.024-.675.049-1,.076Zm11.877,5.835.112.167a20.981,20.981,0,0,0-1.541,2.986,33.982,33.982,0,0,0-3.407-1.879l-.335-.256c.971-.138,1.947-.305,2.914-.5q1.138-.233,2.257-.518Zm-1.533,8.07.187.343-.043.108-.34-.048c.064-.134.129-.271.2-.4Zm1.91,3.883c.1.237.2.474.3.708-.2-.178-.4-.355-.609-.533l.311-.175Zm-1.373-.665-.21-.156c.19-.017.382-.03.576-.043l-.366.2Zm4.132,16.664.021-.1.312.045-.333.054Zm.737,1.223-.006.006-.06,0,.066-.009Zm-1.07,1.557-.034.041c-.145.026-.291.05-.437.075l-.05-.049.032-.079c.163.005.326.01.489.012Zm.656-4.765c.018-.154.034-.309.049-.465q.361-.258.722-.548a12.74,12.74,0,0,0,1.329-.036l-.048.195a12.162,12.162,0,0,1-2.052.854Zm1.114-4.763c.289.343.589.668.893.97a14.554,14.554,0,0,1-1.214,1.218c-.171-.005-.347-.013-.52-.026q.462-1.053.841-2.162Zm-2.748-7.654c-.117-.335-.24-.673-.368-1.011q-.082-.565-.119-1.149c.181-.109.36-.218.542-.33.569.019,1.152.051,1.741.1.035.7.047,1.41.03,2.146q-.9.117-1.816.245Zm-.411-4.622a13.4,13.4,0,0,1,.326-1.719l.234.125a15.165,15.165,0,0,1,1.255,1.392c-.2.13-.391.263-.59.393-.409-.063-.817-.13-1.225-.191Zm3.537,2.367c.056.21.111.425.163.638q-.009.6-.045,1.2l-.336.039c.013-.654.008-1.288-.016-1.91l.234.029Zm1.087,6.166c.029.366.053.725.069,1.087a25.968,25.968,0,0,1-.012,2.649,14.072,14.072,0,0,1-1.147-1.177q.21-.706.384-1.429c.075-.309.144-.621.21-.934.166-.063.33-.128.5-.2Zm-2.736-.413.051-.286-.065-.31a4.093,4.093,0,0,0-.188-.623c.136.019.268.04.4.064-.036.374-.078.751-.126,1.135l-.069.02Zm-3.537-8.366-.053-.107a15.11,15.11,0,0,1,1.06-1.9l.341.191a16.288,16.288,0,0,0-.337,1.967c-.338-.053-.674-.1-1.011-.149Zm-.653-1.263-.138-.258a11.407,11.407,0,0,1,.765-1.09l.094.055c-.255.414-.5.843-.721,1.293Zm1.553-6.362q.375.624.731,1.279-.987.423-1.968.9a17.351,17.351,0,0,1,1.237-2.18Zm.861-1.117.087-.1a13.4,13.4,0,0,1,1.264,1.889l-.311.124a19.334,19.334,0,0,0-1.04-1.916Zm3.834-1.719a4.67,4.67,0,0,1,2.39,1.5c-.825-.507-1.648-.993-2.48-1.46l.09-.036Zm-.868,2.457a3.767,3.767,0,0,0-.587.45c-.146-.284-.3-.563-.462-.833q.528.185,1.049.383Zm2.21,17.708c-.018-.389-.041-.78-.073-1.172l.067-.028a2.478,2.478,0,0,1,.508.615c.368.639.267,1.537-.478,2.732q.027-1.063-.024-2.147Zm-.244-2.794c-.021-.164-.043-.328-.067-.494.311-.032.618-.073.922-.12.062.149.121.3.182.448q-.375.18-.745.347c-.093-.061-.19-.122-.292-.181Zm-.291-3.159c.091.184.179.368.268.555l-.293.03c.01-.195.018-.39.025-.585Zm1.783,4.176c.057.159.116.319.172.48a48.424,48.424,0,0,1,1.413,4.692,6.167,6.167,0,0,1-.646.854c-.173.059-.35.118-.527.172-.094-.048-.189-.1-.285-.153a10.482,10.482,0,0,1-1.043-.685c1.463-2.048,1.615-3.72.861-5.028a2.283,2.283,0,0,0-.15-.235l.205-.1Zm-1.364-7.123c.007.1.015.211.023.319l-.482-.087c-.01-.144-.02-.288-.032-.431l.491.2Zm.931-7.117a7.171,7.171,0,0,1,1.353,1.235,27.058,27.058,0,0,0-3.892.065c-.1-.3-.209-.595-.324-.885a11.4,11.4,0,0,1,2.863-.415Zm-.938,5.368,0,.069-.04-.031.043-.038Zm-1.99-1.329c-.188-.123-.376-.239-.561-.349-.076-.312-.154-.619-.24-.923.154-.02.31-.039.464-.057.126.434.24.878.337,1.329Zm-2.493,26.723c.164-.166.326-.336.481-.51a11.816,11.816,0,0,0,.956.71c-.478-.066-.957-.13-1.437-.2Zm2.778-3.993.063-.135.159-.025c.486-.079,1.373-.277,2.532-.576.427.044.847.086,1.259.123a23.069,23.069,0,0,1-4.013.613Zm.948-2.5.063-.218c.341-.185.686-.388,1.038-.613a10.777,10.777,0,0,0,1.727-1.358,6.434,6.434,0,0,0,1.533.494q.113.69.19,1.355c-.781.224-1.511.425-2.172.6q-1.152-.116-2.379-.262Zm4.076,3.316a15.416,15.416,0,0,1-3.2,2.951c-.174.117-.348.23-.525.34a9.941,9.941,0,0,1-2.534-1.312,32.87,32.87,0,0,0,6.255-1.979Zm-3.371-6.718.012-.1.107.083-.119.02Zm-13.048-13.911q.531.293,1.069.6c-.065.238-.13.483-.191.736a6.949,6.949,0,0,0-.985.534c-.244-.108-.49-.222-.736-.339a4.883,4.883,0,0,0-.026-1.021c.069-.2.144-.389.225-.575l.644.067Zm.379,3.7c-.035.187-.066.376-.1.569-.364.121-.724.236-1.082.341a1.672,1.672,0,0,1,.162-.37,2.943,2.943,0,0,1,.6-.72l.421.18Zm-.518,3.46-.017.145-.074-.127.091-.018Zm-.222,2.143c-.034.392-.062.775-.086,1.152-.161-.426-.3-.862-.43-1.3.169.054.342.1.516.151Zm1.593,4.3c.35-.021.692-.049,1.028-.086.017.167.036.332.055.5q.057.494.13.973a9.97,9.97,0,0,1-1.213-1.383Zm13.75-8.1.056.083-.02.011-.036-.094Zm.725,1.141a9.023,9.023,0,0,1,.853,2.018,12.013,12.013,0,0,1-1.06-1.905l.207-.113Zm1.616,2.6a9.288,9.288,0,0,0-.9-3.007q.418-.24.839-.5l.141.083c.062.036.128.07.192.1l.108.124c.3.346.407.49.5.617a8.044,8.044,0,0,0,.821.953l.032.086a11.422,11.422,0,0,0-.553,2.414,4.734,4.734,0,0,1-1.031-.5,1.46,1.46,0,0,1-.129-.089c-.006-.094-.016-.188-.025-.282Zm-2.614-5.749c-.184-.236-.368-.464-.554-.684-.036-.151-.071-.3-.1-.452l.336.065a6.13,6.13,0,0,0,.505,1.046l0,.009-.189.016Zm-.955-2.9-.006-.044.066.054-.06-.01Zm5.792,8.856c.046.23.086.462.117.691a1,1,0,0,1-.251.077c.033-.256.078-.513.134-.768Zm-2.8,1.087a4.257,4.257,0,0,1-.225.969c-.168-.67-.348-1.344-.547-2.013a7.157,7.157,0,0,0,.772,1.044Zm.107,2.178a6.538,6.538,0,0,0,.456-1.685l.026.015a4.859,4.859,0,0,0,1.108.533c0,.087,0,.173.007.262a15.35,15.35,0,0,1-1.6.875Zm2.893-.029c-.017.2-.036.4-.061.6h0c-.008.054-.016.11-.026.165l-.019.02c-.056-.2-.107-.4-.147-.607.084-.06.169-.119.253-.18Zm-.938,1.319a3.44,3.44,0,0,1-1.656.209,16.834,16.834,0,0,0,1.505-.806c.043.2.094.4.151.6Zm-2.733-11.215c.166.189.326.376.478.564l-.392.027a5.384,5.384,0,0,1-.652-.722c.189.042.379.087.566.131Zm4.29,9.678c0-.087.007-.174.01-.26l.148-.12a3.491,3.491,0,0,1-.158.38Zm-.142-2.867c-.049-.329-.109-.658-.18-.99l.218.2c.044.118.088.234.133.353a2.034,2.034,0,0,1-.158.411l-.013.024Zm-5.613-10.482a8.519,8.519,0,0,1,.229-1.171,12.585,12.585,0,0,1,1.857-.662c.025.1.05.192.078.289a9.876,9.876,0,0,0,1.194,2.536,29.65,29.65,0,0,1-3.358-.992Zm-.922-.342c.007-.1.013-.2.022-.292.119-.061.248-.124.384-.191-.034.206-.06.407-.08.607l-.326-.124Zm5.584,16.488c-.109.377-.233.748-.373,1.116l-1.406.419c-.041-.365-.089-.736-.142-1.108a3.505,3.505,0,0,0,1.921-.427Zm-4.186,8.372a16.319,16.319,0,0,0,1.881-2.064,8.354,8.354,0,0,1-.4,1.76c-.491.1-.983.206-1.48.3Zm5.024-23.143a6.062,6.062,0,0,0-.335-1.855,5.448,5.448,0,0,0-.877-1.593,4.517,4.517,0,0,1,.876.146l.141.04a17.671,17.671,0,0,1,1.473,1.875,5.522,5.522,0,0,0-.847.887,5.285,5.285,0,0,0-.348.511l-.083-.011Zm2.346,5.364c-.192-.022-.393-.051-.6-.083l-.009-.093a2.332,2.332,0,0,1,.611.176Zm3.671-16.725.029.148c-.795.055-1.535.14-2.22.247a19.913,19.913,0,0,0-2.913-.259,6.8,6.8,0,0,0,.669-3.22l-.015-.141a29.47,29.47,0,0,1,4.45,3.225Zm2.077,1.611c1-.012,2.074.017,3.234.082-.011.117-.022.234-.035.352a14.564,14.564,0,0,0-1.718.27q-.72-.386-1.481-.7Zm4.291.361.019-.2q2.142.162,4.643.506l-.209.048a20.815,20.815,0,0,0-4.453-.35Zm14.45,1.867c4.162-.276,8.5,1.7,11.038,8.009-.993.407-1.935.776-2.834,1.111-.17-.026-.341-.051-.512-.074a3.757,3.757,0,0,0-1.527-2.446,18.4,18.4,0,0,0-4.84-2.72c-.007-.126-.02-.245-.033-.366a6.8,6.8,0,0,0-1.292-3.514Zm4.771,8.568c.085.08.169.162.249.243l-.155-.007c-.03-.078-.062-.158-.094-.236Zm1.874,2.716.121-.04.057.117a8.461,8.461,0,0,1,.773,4.623q-.354.031-.727.075a7.612,7.612,0,0,0-.224-4.775Zm2.035,4.611a10.519,10.519,0,0,0-.816-5.043l.436-.16a21.32,21.32,0,0,1,3.739.917,5.044,5.044,0,0,1-1.05,4.189c-.342,0-1.186.018-2.309.1Zm2.778,1.338a6.255,6.255,0,0,0,1.726-5.17,9.3,9.3,0,0,1,2.9,1.933,4.709,4.709,0,0,1,1.375,3.021,17.954,17.954,0,0,1-6.151,2.013,17.342,17.342,0,0,0,.154-1.8Zm-.48,3.4a19.126,19.126,0,0,0,6.324-1.883,9.07,9.07,0,0,1-.69,1.915h0l-.01.022a8.39,8.39,0,0,1-3.219,3.511,21.177,21.177,0,0,0-2.89-2.177,10.111,10.111,0,0,0,.485-1.388Zm-1.173,2.651a20.9,20.9,0,0,1,2.258,1.608,17.784,17.784,0,0,1-6.547,1.334,7.1,7.1,0,0,0,4.289-2.942Zm-8.44,4.358c4.547.415,8.71-.046,11.8-1.686,1.243,1.426,1.3,2.692-.2,3.674-2.435,1.589-7.837,2.761-17.087,3.263a16.51,16.51,0,0,0,5.483-5.251Zm-13.459,5.446c-1.172-.018-2.467-.058-3.867-.119q.779-.66,1.527-1.375a11.858,11.858,0,0,0,2.34,1.494Zm-80.479-14.538a4.109,4.109,0,0,0,.59,2.39,5.858,5.858,0,0,0,1.558,1.683,13.17,13.17,0,0,1-1.557-.154c-3.687-.594-6.849-2.948-7.088-9.282.937.022,2.715.1,4.772.351.037.117.076.231.115.348a4.741,4.741,0,0,0,.071,1.54,7.607,7.607,0,0,0,1.539,3.124Zm-.7-6.547a3.306,3.306,0,0,1,.467-2.633l.022-.026a10.537,10.537,0,0,0,.687,1.92,3.5,3.5,0,0,0-.786.414,3.4,3.4,0,0,0-.39.325Zm35.948-19.469a32.346,32.346,0,0,0-3.955.992,12.491,12.491,0,0,0-1.447-.879c-.123-.062-.246-.125-.371-.184.888-.2,1.818-.385,2.791-.543a29.457,29.457,0,0,1,4.1-.387q-.583.477-1.12,1Zm4.991-3.453a22.583,22.583,0,0,0-2.558-.245,6.763,6.763,0,0,1-1-3.594,2.86,2.86,0,0,1,.319-1.117,41.167,41.167,0,0,1,4.621-2.131,4.6,4.6,0,0,0-.52,2.559l.032.414.253.191a24.187,24.187,0,0,0,3.447,2.138,16.038,16.038,0,0,0-4.59,1.785Zm7.174-2.212a26.651,26.651,0,0,1-5.262-2.889,3.259,3.259,0,0,1,1.184-2.23,46.211,46.211,0,0,1,8.989.864c8.241,1.464,13.6,4.467,16.615,8.013-.91.033-1.848.035-2.807.013a6.982,6.982,0,0,0-3.791-1.509q-1.151-.445-2.325-.814a12.847,12.847,0,0,0-4.3-1.444,25.762,25.762,0,0,0-7.459-.079c-.285.02-.566.044-.845.075Zm21.032,5.332c.549-.011,1.088-.034,1.616-.064a13.013,13.013,0,0,1,.926,1.693c.038.086.076.173.113.26a30.447,30.447,0,0,0-2.655-1.889Zm4.278,3.283a13.42,13.42,0,0,0-.851-2.516c-.142-.314-.3-.627-.465-.937.833-.079,1.631-.185,2.386-.317l.568-.1-.108-.821a15.258,15.258,0,0,0-1.282-4.478c-.117-.248-.242-.493-.372-.731a14.41,14.41,0,0,1,4.535,10.728c-1.311-.075-2.522-.1-3.637-.075-.252-.254-.51-.506-.774-.753Zm-14.951-6.437q-1.172.081-2.512.264c-1.57-.348-3.114-.76-4.6-1.241a32.206,32.206,0,0,1,7.109.977Zm-19.456,3.006.01.012-.024,0,.014-.014Zm3.3,1.915c-.193-.2-.379-.4-.563-.6q.8-.057,1.639-.1-.564.337-1.076.695Zm3.787-.7a13,13,0,0,1,2.761.5,16.578,16.578,0,0,1,1.565,1.234,32.711,32.711,0,0,0-7.021-.307,22.136,22.136,0,0,1,2.7-1.425Zm-9.07,16.355.023-.159c.1.061.205.122.307.186-.11-.011-.219-.019-.33-.027Zm-.3,1.819c.034-.17.065-.341.094-.51.165.008.326.02.487.035l-.581.475Zm1.146.588c.234-.191.469-.381.7-.567l.013.015q.121.389.21.779a8.052,8.052,0,0,1-.927-.227Zm11.819-.23.372.109-.009.074-.383.065.02-.248Zm-8.916,1.921.144.113-.536.126.016-.02a2.306,2.306,0,0,0,.126-.22Zm-7.457-4.032c-.2-.056-.4-.108-.62-.158.005-.442,0-.884-.017-1.323a10.053,10.053,0,0,0,.637,1.481Zm25.309-5.129c-.113-.64-.253-1.268-.415-1.882a26.589,26.589,0,0,1,2.731-.066c-.731.659-1.507,1.311-2.316,1.948Zm-2.1-3.413c.045.115.091.234.136.351-.146.017-.294.038-.44.058l-.042-.119c.114-.1.228-.195.346-.29Zm8.037-2.333c-.047.045-.092.087-.139.127q-.6-.054-1.226-.094c.487-.064.974-.115,1.464-.155l-.1.122Zm2.011.376a9.588,9.588,0,0,1,1.377-.547,24.95,24.95,0,0,1,2.9.306q.921.153,1.779.336c-.014.158-.03.312-.049.468a9.906,9.906,0,0,0-.9.574,29.978,29.978,0,0,0-5.109-1.137Zm2.386,4.042q-1.962-1.5-3.954-2.9a34.2,34.2,0,0,1,5.492.98,10.016,10.016,0,0,0-1.538,1.921ZM947.2,1540.19c-.186-.109-.37-.218-.556-.332l.919.069-.363.263Zm.046-1.668q-1.47-.1-2.879-.154c-.471-.329-.942-.669-1.416-1.025a11.812,11.812,0,0,1,4.3,1.179Zm7.158,10.283c-.053-.668-.078-1.337-.074-2l.343-.041q-.041.994-.005,2.05c-.09,0-.177-.007-.264-.01Zm7.66-1.208c.019-.179.037-.359.054-.538l.164.047c-.025.148-.052.3-.079.443l-.139.048Zm-3.713,11.662.041-.052-.019.049-.021,0Zm3.537-10.24-.024.1.013-.1.011,0Zm-7.149,1.124c.043.562.1,1.14.176,1.729l-.087-.064q-.171-.831-.284-1.672l.2.007Zm18.363-7.735h.264a2.242,2.242,0,0,0,.149.256l.016.025-.57-.132.141-.148Zm4.265-3.044-.216-.175.313-.026c-.034.068-.066.134-.1.2Zm1-1.778c-.431,0-.858.023-1.277.063a10.138,10.138,0,0,1,1.906-.923c-.223.279-.431.566-.629.86Zm-.3-2.048c-.08.033-.158.067-.235.1l.029-.087.03-.093.176.078Zm-1.221-.489a11.554,11.554,0,0,1-.613,1.5,8.419,8.419,0,0,0-1.163.98l-.514-.4a8.827,8.827,0,0,1,2-2.176l.288.1Zm-33.175,20.208.129-.089.828.249c-.062.111-.123.22-.188.331q-.381-.2-.76-.407l-.009-.084Zm3.251-6.6-.013,0,.013-.005v.008Zm.774,1.46.182.039c-.061.071-.137.154-.236.26.021-.1.038-.2.054-.3Zm-7.72.091c.051-.141.1-.283.149-.429q1.321-.352,2.658-.69a14.985,14.985,0,0,1-2.807,1.119Zm-13.415-10.717a12.041,12.041,0,0,1,1.183.409c.037.147.078.3.12.443a11.5,11.5,0,0,0-1.282.675,1.625,1.625,0,0,1-.34-.821.892.892,0,0,1,.319-.706Zm14.584,8.672-.558.146.055-.186c.17.017.339.03.5.04Zm-12.655-6.06.033.079-.327.011-.1,0,.39-.093Zm-14.431,8.225.022.02a4.5,4.5,0,0,1,.6.722c-.193-.112-.385-.221-.571-.333-.023-.133-.041-.269-.052-.409Zm3.557,5.213.02-.076.032.076Zm10.684-3.477c.016-.246.021-.492.019-.736.141.191.285.385.432.578l-.451.158Zm3.8,3.755c.142.149.286.3.433.45l-.153.259c-.034-.065-.065-.128-.093-.19a3.471,3.471,0,0,1-.187-.519Zm1.885,2.42c.16-.01.316-.022.472-.035l-.333.127-.139-.092Zm-23.152-2.557-.207.025c-.146-.04-.289-.088-.436-.138-.081-.091-.163-.184-.242-.277.285.136.58.267.885.39Zm64.4-.81-.033-.068a1.915,1.915,0,0,0,.44-.417,2.948,2.948,0,0,0,.556-1.41c.01-.069.018-.136.025-.2l.351.221c.031.129.066.259.1.389a11.646,11.646,0,0,1-1.437,1.488l0,0Zm-1.375-3.714q.663.487,1.366.962c-.02.18-.043.364-.068.545a1.141,1.141,0,0,1-.216.549.745.745,0,0,1-.206.187c-.13-.216-.256-.428-.376-.638-.176-.5-.342-1.037-.5-1.6Zm-.077,6.593c.469-.324.9-.649,1.3-.97a11.593,11.593,0,0,0,.985,1.432c-.428.019-.873.033-1.332.041a8.247,8.247,0,0,1-.953-.5Zm5.047-6.159a5.154,5.154,0,0,0,.068-1.876q.985-.282,1.9-.511a23.265,23.265,0,0,1-1.964,2.387Zm3.476-4.894a15.289,15.289,0,0,1-5.522-1.531l.012-.121c1.888.478,3.756.976,5.587,1.494l-.077.158Zm-5.588,1.075a5.649,5.649,0,0,1,.6.822l-.537.168c-.03-.331-.05-.66-.063-.99Zm5.568,1.079c1.124-.25,2.179-.447,3.187-.61l.361.178c-.238.311-.459.63-.664.954a11.938,11.938,0,0,0-.794,1.49,33.327,33.327,0,0,1-3.981,2.014c-.264-.151-.531-.3-.8-.462a23.01,23.01,0,0,0,2.69-3.564Zm.913-4.586c-.39-.335-.777-.671-1.169-1.005.454-.1.914-.208,1.377-.328a8.656,8.656,0,0,1-.208,1.333Zm.153-2.892c-.955.26-1.89.478-2.78.647q-.62-.526-1.245-1.046a16.259,16.259,0,0,1,3.786-.6,5.922,5.922,0,0,1,.239,1Zm-5.831.257c.1-.039.192-.08.287-.123l.181.149a3.488,3.488,0,0,0,.239.7c-.332.028-.651.046-.954.052.072-.26.15-.52.233-.773l.014-.007Zm1.133,2.166c.163-.015.329-.031.5-.05l.122.14c-.2-.032-.408-.063-.618-.09Zm2.111-6.65c-.118.193-.242.376-.372.552-.24-.028-.481-.049-.724-.069.219-.269.452-.533.7-.786.136.1.269.2.4.3Zm-2.135,1.988.228.006a3.385,3.385,0,0,0-.33.339l-.143.093c.079-.148.16-.293.245-.438Zm7.1-.03q-.632-.27-1.306-.5.73-.081,1.573-.136l.084.176c.08.172.154.346.225.522-.193-.021-.386-.041-.576-.059Zm-.548-2.031a24.138,24.138,0,0,0-2.491.409c-.148-.189-.3-.373-.472-.554q.212-.482.392-1.014c.506-.056,1.024-.095,1.551-.115a11.822,11.822,0,0,1,1.02,1.274Zm-1.071,3.28c.284,0,.572.013.864.028.245.093.483.19.713.289q-.713.235-1.423.445c-.039-.256-.09-.511-.154-.762Zm.238,2.322c.534-.155,1.07-.317,1.6-.494l.157-.052a3.907,3.907,0,0,0,.906,1.688,13.517,13.517,0,0,1-.339,2.21c-.087.035-.174.072-.262.1-.469-.143-.938-.285-1.413-.425l-.1-.03-.2-.112-.7-.611a10.377,10.377,0,0,0,.352-2.279Zm-6.148-8.449c.023-.11.044-.219.063-.331a11.463,11.463,0,0,1,1.842-.69q.871.264,1.671.561l.243.166-.011.051c-.317.207-.619.424-.91.651q-.729.137-1.42.332a15.3,15.3,0,0,0-1.478-.74Zm.211,23.819c-.26.029-.525.05-.8.074a9.054,9.054,0,0,1-1.706-2.044l.086-.077q.68-.246,1.348-.5c.28.776.592,1.533.936,2.265.044.1.088.188.134.281Zm-.137,2.408c.225.021.451.034.684.045-.387.137-.778.27-1.175.4.163-.145.327-.3.491-.448Zm-3.359,2.69c1.924-.551,3.751-1.146,5.442-1.789a18.34,18.34,0,0,0,2.325,2.7,30.7,30.7,0,0,1-2.449,2.049c-2.908-.158-6.186-.4-9.671-.74a18.129,18.129,0,0,0,4.353-2.219Zm4.478-5.382c-.129-.248-.252-.5-.372-.753-.283-.6-.545-1.223-.781-1.856.419-.163.83-.329,1.234-.494q.919.489,1.873.951-.9,1.059-1.954,2.152Zm3.21-3.715q-.4-.2-.809-.412c.615-.291,1.2-.584,1.738-.882-.289.426-.6.856-.929,1.294Zm5.033-14.692a7.236,7.236,0,0,1,.626-.989l.6-.013c.243.28.469.563.68.853-.278.122-.56.24-.848.36-.357-.079-.71-.15-1.057-.211Zm-.277-2.465c-.35.021-.688.045-1.018.071a12.443,12.443,0,0,0-.774-1.178l.3.005a15.848,15.848,0,0,1,1.493,1.1Zm.544,5.028a3.726,3.726,0,0,1,1.333,1.585.8.8,0,0,1,.04.164,4.766,4.766,0,0,1-1.324-.792q-.006-.486-.049-.957Zm-.032,2.645a5.619,5.619,0,0,0,.654.377l-.075.057a7.612,7.612,0,0,1-.71.484c.054-.309.1-.616.131-.918Zm2.932-.44c-.148-.032-.291-.065-.429-.1a3.129,3.129,0,0,0-.193-1.239,4.4,4.4,0,0,0-1.251-1.722l.148-.062c.572.137,1.159.3,1.753.486a11.62,11.62,0,0,1,.69,2.232q-.363.2-.718.405Zm-5.291,7.4a6.069,6.069,0,0,0,1.806-1.843l.982.867.57.5a3.832,3.832,0,0,1,.069.519,3.52,3.52,0,0,1-.324,1.823,5.637,5.637,0,0,1-2.161,2.331q-.954-.352-1.952-.786a7.42,7.42,0,0,1,.211-2.067c.287-.454.554-.9.8-1.344Zm3.811,3.084c.063-.117.122-.233.175-.35a5.662,5.662,0,0,0,.5-2.918,3.938,3.938,0,0,0-.344-1.28c.376.143.758.279,1.142.412l.394.132a22.946,22.946,0,0,1-1.354,3.736l-.285.15-.224.118Zm2.372-6.771-.11-.038a3.383,3.383,0,0,1-.291-.313l.437-.052c-.011.134-.022.267-.036.4Zm.071-1.975-.454.054c.037-.041.076-.084.119-.127.109.018.222.034.334.047v.026Zm-9.392,10.235q.7.324,1.418.63c.018.073.038.149.057.223a20.332,20.332,0,0,1-2.837.732q.722-.8,1.362-1.585Zm-.364,2.945c.5-.113.96-.233,1.4-.362-.157.076-.318.152-.479.226-.312.051-.617.1-.917.136Zm1.509,4.214a16.174,16.174,0,0,1-2.12-2.294,9.057,9.057,0,0,0,3.831-.956c.142.227.3.452.463.677l.071.095a33.24,33.24,0,0,1-2.245,2.478Zm2.956-1.618c3.556,3.861,7.958,2.4,11.53-.853l.06-.054.047.005c-3.541,4.618-7.261,5.8-10.58,4.829a9.918,9.918,0,0,1-3.128-1.588q1.087-1.12,2.071-2.339Zm-.021-1.734c-.05-.063-.1-.131-.149-.2s-.091-.127-.135-.191l.019-.012c.239-.068.478-.139.719-.213-.148.207-.3.41-.454.612Zm6.177-12.325c.007-.087.012-.173.018-.26,1.027-.134,2.076-.286,3.182-.481-.329.641-.683,1.28-1.057,1.914l-.085.137c-.69-.251-1.394-.5-2.11-.749.021-.189.037-.375.052-.561Zm-.554,3.313c.36.111.722.22,1.086.323-.563.788-1.157,1.545-1.775,2.264l-.173.1a23.881,23.881,0,0,0,.862-2.689Zm4.65-6.55c-.9.069-1.735.1-2.5.1a19.95,19.95,0,0,1,2.059-.452c.159.119.306.236.439.355Zm-6.68,12.456-.216-.05c.689-.649,1.362-1.355,2.013-2.1.287-.171.59-.355.9-.554a10.293,10.293,0,0,0-.305,1.657l-.067.032c-.8.372-1.576.709-2.328,1.017Zm-1.479,1.943.3-.11a54.449,54.449,0,0,0,5.482,1.471q1.089.231,2.162.4c-3.016,2.327-6.485,3.135-9.334.233.488-.651.954-1.316,1.391-2Zm3.878-1.526-.117-.015.111-.051.006.066Zm-9.135-24.2c.018-.106.036-.208.051-.314.394-.018.791-.022,1.189-.013q-.517.2-1,.434l-.241-.107Zm1.739.858a16.169,16.169,0,0,1,1.938-.577l1.016-.236a23.778,23.778,0,0,1,3.236.859q-.557.348-1.07.73a34.353,34.353,0,0,0-4.42-.37c-.228-.139-.46-.274-.7-.406Zm2.969,2.048c.2.02.4.04.6.062-.083.084-.165.17-.247.254-.115-.1-.233-.211-.354-.316Zm2.228,2.429c.358,0,.725,0,1.1.01q-.4.2-.818.4c-.091-.138-.184-.275-.282-.411Zm.993,1.637a22.63,22.63,0,0,0,2.594-1.555,17.427,17.427,0,0,1,4.52.817,16.554,16.554,0,0,1-.471,2.393,14.894,14.894,0,0,0-2.312.447,17.936,17.936,0,0,0-2.607-1.227q-.8-.3-1.567-.555c-.051-.107-.1-.215-.157-.32Zm3.951-4.32-.032.037c-.948-.264-1.929-.5-2.927-.7q.381-.216.778-.408a23.563,23.563,0,0,1,2.181,1.068Zm-3.172,6.219c.24.086.477.174.718.267q.622.239,1.161.482-.761.288-1.512.648a13.341,13.341,0,0,0-.367-1.4Zm-15.7.506-.225-.02c.089-.053.178-.106.269-.155l-.044.175Zm20.227,7.188-.321-.123a10.983,10.983,0,0,1,1.44-1.517,6.607,6.607,0,0,1-1.119,1.64Zm2.272-2.171c.015-.085.025-.17.036-.255.066-.031.132-.056.2-.081a5.749,5.749,0,0,1,3.3-.477,8.5,8.5,0,0,1-1.779,3.437c-.553.139-1.1.3-1.626.476l-.024.007c-.437-.18-.883-.357-1.336-.535a6.066,6.066,0,0,0,1.234-2.572Zm-3.045,4.463.236.05a6.879,6.879,0,0,0-.861.709,4.553,4.553,0,0,0-1.332,2.445l-.393.2a10.8,10.8,0,0,1,.614-2.045c.588-.417,1.178-.872,1.736-1.357Zm1.282-5.267.518-.108a9.33,9.33,0,0,0-.8.685c.1-.193.188-.384.278-.577Zm1-2.405c.056-.156.113-.314.166-.471.776-.077,1.583-.127,2.406-.149.553-.016,1.11-.017,1.671-.006l.036.021a17.06,17.06,0,0,1-1.843.324l-1.62.2q-.413.053-.8.093l-.013-.015Zm4.286,1.061.178-.056,0,.1c-.057-.015-.115-.028-.176-.041Zm-7.2,9.1a3.856,3.856,0,0,1,.511-.617,7.181,7.181,0,0,1,1.919-1.3l.323.111a25.64,25.64,0,0,1-2.753,1.8Zm8.285-9.438.224-.074a4.1,4.1,0,0,1,.53,1.843,2.785,2.785,0,0,0-.419-.637,2.212,2.212,0,0,0-.354-.329,7.7,7.7,0,0,0,.019-.8Zm-.235,2.165.019.022a2.924,2.924,0,0,1,.384,2.345c-.495.071-1,.155-1.512.252a9.352,9.352,0,0,0,1.109-2.619Zm-3.962,5.887a27.442,27.442,0,0,0,2.873.667l-.029.057a1.345,1.345,0,0,0-1.682.543,4.422,4.422,0,0,0-.546,2.153,13.37,13.37,0,0,1-4.9.952,4.607,4.607,0,0,1-.26-.95,3.169,3.169,0,0,1-.032-.343,25.407,25.407,0,0,0,4.574-3.079Zm3.958-1.875c-.455.023-.927.026-1.408.013.5-.1,1-.191,1.49-.268-.026.084-.054.17-.082.255Zm-9.4,5.405c.008.062.014.119.023.179a6.282,6.282,0,0,0,.133.636c-.206-.061-.4-.118-.579-.175-.021-.131-.036-.267-.045-.406.159-.078.314-.154.468-.234Zm7.971-14.542a8.34,8.34,0,0,0-2.9-.384,17.865,17.865,0,0,0,.371-2,12.792,12.792,0,0,1,1.533.749,10.358,10.358,0,0,1,1,1.639Zm-7.161-8.02c.252-.089.506-.169.765-.243a1.043,1.043,0,0,1,.374.825l0,.029q-.556-.321-1.137-.611Zm2.116,1.2a2.477,2.477,0,0,0,.08-.464,2.39,2.39,0,0,0-.242-1.255,4.547,4.547,0,0,1,1.73,2.829c-.5-.39-1.022-.763-1.568-1.11Zm-4.486-2.773c.489.12.921.243,1.3.369-.269.113-.533.231-.793.359-.567-.231-1.148-.44-1.732-.627.428-.052.837-.087,1.225-.1Zm10.9,21.616.165.079c-.112.118-.229.235-.348.347l-.005-.023.188-.4Zm-.292,2.335a10.159,10.159,0,0,0,1.66-1.663c.836.428,1.62.85,2.344,1.273a6.623,6.623,0,0,1-4.323,2.381,11.759,11.759,0,0,1-1.321.132,4.991,4.991,0,0,0,1.323-1.442,3.659,3.659,0,0,0,.317-.681Zm4.765-1.62c-.381-.228-.779-.458-1.193-.684.511,0,1.012-.022,1.5-.057-.094.26-.2.506-.31.741Zm.732-2.328a21.425,21.425,0,0,1-2.51.082l.078-.179a8.323,8.323,0,0,0,2.588-1.049c-.037.4-.089.782-.156,1.146Zm-1.614-1.913-.267.092.016-.076.251-.016Zm-1.409.12c-.029.1-.059.192-.091.288-.272.051-.553.094-.838.13.035-.11.072-.218.107-.325.28-.035.555-.067.822-.093Zm-4.483,5.21a1.73,1.73,0,0,1,.214-.62.512.512,0,0,1,.329-.226c-.173.283-.354.566-.543.846Zm-48.559-42.228a36.37,36.37,0,0,1,11.172-1.069c.148.018.3.038.446.059a30.329,30.329,0,0,1,8.853,2.64,12.161,12.161,0,0,1,4.779,5.235,12.744,12.744,0,0,1,.979,3.059c-.821.124-1.689.219-2.6.285-3-4.219-8.773-7.837-18.029-9.483a54.688,54.688,0,0,0-5.6-.726Zm24.227,26.872a10.416,10.416,0,0,1-1.682.355q.453-.5.853-1.022.414.332.829.667Zm1.385,6.811a17.078,17.078,0,0,0,1.99.618c-.455.122-.919.25-1.4.388a6.046,6.046,0,0,0-.591-1.006Zm12.524-11.02c1.064.171,2.12.385,3.149.634l-.115,0c-1.344-.047-2.585-.061-3.731-.044q.332-.3.7-.586Zm19.133,6.425c.053.165.1.329.146.49-.258-.082-.518-.158-.783-.229.21-.085.423-.173.637-.261Zm1.394.931q-.141-.65-.354-1.352c4.949-1.931,8.037-1.877,9.556-.806a2.361,2.361,0,0,1,.892,2.539,8.261,8.261,0,0,1-2.512,4.045,14.029,14.029,0,0,1-2,1.59,6.415,6.415,0,0,0-1.834-3.646,10.69,10.69,0,0,0-3.752-2.37Zm-33.133,7.683a2.222,2.222,0,0,1-.426-1.085l.491-.153a3.269,3.269,0,0,1-.065,1.238Zm-48.861-19.382a9.156,9.156,0,0,0-.725,1.272,23.909,23.909,0,0,0-3.136.161c.084-.208.171-.412.265-.614a13.563,13.563,0,0,1,3.514-4.525,14.579,14.579,0,0,1,2.169,1.477,10.2,10.2,0,0,0-2.087,2.229Zm-16.468,6.034c-.129.108-.251.218-.368.326-.049-.136-.1-.275-.145-.413.17.027.341.054.513.087Zm-7.508,1.62a9.622,9.622,0,0,0,0,1.441,2.91,2.91,0,0,0-.417.385,3.326,3.326,0,0,0-.491.743A4.493,4.493,0,0,1,904.957,1539.536Z" fill="#7b6a58"/>
    </g>
    <path id="Контур_6209" data-name="Контур 6209" d="M991.3,1547.305c-.477,14.357-17.342,12.41-36.925,12.41s-34.2-.208-33.991-12.41c.249-14.779,15.773-13.317,35.356-13.317S991.736,1534.192,991.3,1547.305Z" fill="#7b6a58"/>
    <text id="VOIR_PLUS" data-name="VOIR PLUS" transform="translate(955.83 1556.05)" fill="#fff" font-size="23.955" font-family="AmaticSC-Bold, Amatic SC" font-weight="700"><tspan x="-32.099" y="0">VOIR PLUS</tspan></text>
  </g>
</svg>
