<?xml version="1.0" encoding="utf-8"?>
<!-- Generator: Adobe Illustrator 25.1.0, SVG Export Plug-In . SVG Version: 6.00 Build 0)  -->
<svg version="1.1" id="Calque_1" xmlns="http://www.w3.org/2000/svg" xmlns:xlink="http://www.w3.org/1999/xlink" x="0px" y="0px"
	 viewBox="0 0 59.05 32.95" style="enable-background:new 0 0 59.05 32.95;" xml:space="preserve">
<style type="text/css">
	.st0{fill:#C9DFD3;}
	.st1{fill:#7B6A58;}
</style>
<g>
	<g>
		<path class="st0" d="M17.66,6.28c0.9-0.91,1.96-1.71,3.11-2.39c0,0.03-0.01,0.05-0.01,0.08c-0.04,0.53,0.09,1.12,0.36,1.74
			c-1,0.02-1.99,0.17-2.92,0.45c-0.62,0.19-1.22,0.43-1.78,0.73c-1.23-0.27-2.59-0.24-3.95,0l-0.42-0.1
			C8.22,5.91,6.58,7.3,6.33,9.61c-0.01,0.07-0.01,0.13-0.02,0.2c-0.97,0.87-1.69,1.88-2.03,2.96c-0.13,0.09-0.25,0.19-0.36,0.3
			c-0.68,0.69-0.96,1.77-0.62,3.31c-1.1-0.12-2-0.14-2.26-0.14H0.8v0.36c0,3.7,1.71,5.05,3.72,5.37c0.45,0.07,0.91,0.09,1.38,0.08
			c0.43,0.68,0.87,1.26,1.32,1.75c-0.49,0.75-0.36,1.45,0.56,2.06c1,0.66,3.18,1.14,6.88,1.34c0.44,1.72,1.28,2.99,2.28,3.85
			c0.04,0.04,0.09,0.08,0.13,0.11c0.45,0.46,0.97,0.79,1.54,0.99c0.31,0.11,0.63,0.19,0.97,0.23c0.81,0.17,1.6,0.15,2.28-0.04
			c0.51-0.14,0.96-0.39,1.32-0.74c0.24-0.13,0.48-0.26,0.71-0.42c0.64-0.15,1.05-0.5,1.29-1c0.8-0.73,1.53-1.62,2.14-2.65
			l-0.16-0.56c-0.51,0.86-1.1,1.62-1.75,2.26c0-0.02,0-0.05,0-0.07c0.02-0.36-0.02-0.74-0.09-1.15c0.44-0.2,0.87-0.47,1.28-0.8
			c0.09-0.04,0.17-0.08,0.26-0.12c0.35-0.17,0.68-0.4,0.99-0.67l0.04-0.01c0.51,0.18,1.05,0.21,1.6,0.12
			c1.83,2.42,4.5,2.61,7.09,1.52c0.77-0.32,1.53-0.76,2.26-1.29c1.68,0.09,3.1,0.12,4.12,0.09c5.73-0.15,8.95-0.76,10.32-1.66
			c1.2-0.79,1.26-1.71,0.44-2.69c0.61-0.43,1.1-0.98,1.43-1.68l0.01-0.01l0,0c0.28-0.59,0.44-1.13,0.49-1.62
			c0.45-0.28,0.85-0.59,1.18-0.91c0.75-0.72,1.21-1.53,1.36-2.27c0.17-0.84-0.04-1.58-0.67-2.02c-0.8-0.57-2.38-0.62-4.86,0.36
			c-1.42-3.71-4.01-4.57-6.33-4.13c-0.42-0.23-0.94-0.36-1.58-0.38c-0.42-0.13-0.92-0.25-1.52-0.34c-1.02-0.16-1.95-0.26-2.8-0.33
			c0.04-3.51-1.97-5.85-4.64-7.22c-0.08-0.04-0.16-0.08-0.24-0.12c-0.8-0.49-1.73-0.83-2.73-1.05c-0.55-0.12-1.13-0.2-1.72-0.24
			c-1.44-0.18-2.85-0.16-4.06,0.04c-0.91,0.15-1.71,0.42-2.34,0.78c-0.42,0.13-0.85,0.28-1.26,0.44c-1.13,0.16-1.87,0.53-2.29,1.06
			c-1.41,0.77-2.71,1.71-3.79,2.8L17.66,6.28L17.66,6.28z M15.01,27.22l0.4,0.02c0.06,0.5,0.16,0.96,0.28,1.38
			c0.03,0.11,0.06,0.22,0.1,0.32C15.47,28.44,15.21,27.86,15.01,27.22L15.01,27.22z M15.7,27.25c0.27,0.01,0.55,0.02,0.84,0.03
			l0.02,0c0.83,1.62,2.27,2.99,4.46,3.64c0.54,0.16,1.03,0.27,1.46,0.32c-0.99,0.41-1.99,0.58-2.91,0.47
			c-0.04-0.01-0.08-0.02-0.12-0.03c-0.79-0.19-1.59-0.57-2.3-1.15c-0.54-0.56-0.97-1.31-1.24-2.29
			C15.83,27.93,15.76,27.6,15.7,27.25L15.7,27.25z M17.04,27.28c0.37,0,0.78,0,1.23-0.01c0.37,0.2,0.75,0.38,1.13,0.54
			c1.06,0.44,2.13,0.7,3.17,0.74c0.42,0.32,0.81,0.69,1.14,1.1c-0.01,0.37-0.12,0.69-0.31,0.97c-0.6,0.03-1.37-0.09-2.34-0.38
			C19.17,29.67,17.86,28.59,17.04,27.28L17.04,27.28z M23.37,28.52c0.57-0.05,1.13-0.18,1.67-0.39c0.08,0.35,0.11,0.67,0.09,0.95
			c-0.01,0.18-0.04,0.34-0.08,0.49c-0.39,0.35-0.79,0.66-1.2,0.93c0.11-0.33,0.15-0.71,0.14-1.12l-0.01-0.18l-0.07-0.08
			C23.74,28.91,23.56,28.71,23.37,28.52L23.37,28.52z M30.05,26.42l0.02-0.01l0.24,0.09c1.1,0.43,1.88,0.29,2.4-0.23
			c1.85,0.21,3.62,0.36,5.19,0.46c-0.48,0.29-0.96,0.54-1.45,0.75C34.14,28.45,31.77,28.35,30.05,26.42L30.05,26.42z M33.4,24.83
			c0.07-0.3,0.11-0.63,0.13-0.99c0-0.06,0.01-0.13,0.01-0.19c0.07-0.1,0.13-0.2,0.19-0.3c0.19-0.07,0.37-0.15,0.56-0.23
			c0.82,0.04,1.56,0.05,2.24,0.03c0.23,0.08,0.48,0.15,0.74,0.21c-0.33,0.28-0.66,0.53-0.98,0.75c-0.86,0.25-1.77,0.47-2.71,0.68
			L33.4,24.83L33.4,24.83z M34.22,22.4c0.02-0.04,0.03-0.08,0.05-0.12c0.14-0.04,0.28-0.09,0.43-0.13
			c-0.11,0.07-0.23,0.13-0.35,0.19L34.22,22.4L34.22,22.4L34.22,22.4z M34.68,20.9l0.01-0.04c0.07-0.08,0.14-0.18,0.2-0.29
			c0.18-0.31,0.31-0.69,0.38-1.17c0.2,0.41,0.43,0.83,0.7,1.29c0.05,0.12,0.1,0.24,0.15,0.36c-0.38,0.13-0.75,0.25-1.12,0.37
			C34.88,21.25,34.77,21.08,34.68,20.9L34.68,20.9z M35.57,17.49c0.12,0.02,0.24,0.03,0.34,0.04c-0.04,0.09-0.08,0.18-0.14,0.28
			c-0.03,0.06-0.07,0.12-0.11,0.18C35.63,17.82,35.6,17.65,35.57,17.49L35.57,17.49z M36.45,17.57l0.06,0h0.1
			c0.03,0.41,0.04,0.84,0.02,1.29c-0.2-0.14-0.39-0.28-0.58-0.42c0.04-0.05,0.07-0.11,0.1-0.16C36.29,18.03,36.39,17.79,36.45,17.57
			L36.45,17.57z M32.48,9.52c-0.28-0.39-0.56-0.67-0.84-0.88c0.56-0.28,1.07-0.59,1.51-0.93l0.1-0.08l0.01-0.16
			c0.01-0.1,0.01-0.2,0-0.3c0.52,0.05,1.03,0.07,1.53,0.09l0.08,0.04c0.07,0.14,0.11,0.28,0.13,0.44c0.03,0.41-0.11,0.89-0.39,1.42
			C33.88,9.2,33.16,9.31,32.48,9.52L32.48,9.52z M30.95,8.32c-0.36-0.09-0.72-0.03-1.06,0.13l-0.04,0.02
			c-0.98-0.5-1.97-0.93-2.97-1.28l-0.01-0.01c0.61-0.18,1.27-0.34,1.99-0.47c0.24-0.04,0.47-0.08,0.7-0.12
			c0.23,0.05,0.46,0.1,0.69,0.15c0.86,0.17,1.74,0.3,2.6,0.39c0.01,0.04,0.01,0.08,0.01,0.11C32.29,7.65,31.65,8.01,30.95,8.32
			L30.95,8.32z M26.31,6.73c-0.05-0.03-0.09-0.07-0.14-0.1c-0.65-0.45-1.3-0.7-1.93-0.7c0.58-0.2,1.18-0.35,1.78-0.45
			c0.67,0.28,1.38,0.53,2.11,0.75C27.48,6.37,26.87,6.54,26.31,6.73L26.31,6.73z M21.64,7.97c-0.11,0.21-0.22,0.45-0.32,0.7
			L21.04,8.6c0.01-0.03,0.02-0.05,0.04-0.08c0.08-0.18,0.18-0.35,0.28-0.51C21.45,8,21.55,7.99,21.64,7.97L21.64,7.97z M20.6,8.49
			l-0.23-0.05c0.08-0.11,0.17-0.21,0.27-0.31l0.13-0.02l-0.03,0.06C20.69,8.28,20.64,8.39,20.6,8.49L20.6,8.49z M19.83,8.32l-0.02,0
			l0.03-0.01L19.83,8.32L19.83,8.32z M17.2,7.84c-0.21-0.03-0.42-0.06-0.62-0.09l0.18-0.05C16.9,7.74,17.05,7.78,17.2,7.84
			L17.2,7.84z M15.03,7.58c-0.12-0.01-0.24-0.02-0.36-0.03c-0.11-0.05-0.22-0.09-0.34-0.14c0.34-0.01,0.69,0,1.02,0.03
			C15.25,7.49,15.14,7.54,15.03,7.58L15.03,7.58z M8.89,8.09c-0.85,0.26-1.43,0.6-1.79,0.99c-0.07,0.08-0.14,0.16-0.2,0.25
			L6.88,9.34C7.19,7.89,8.38,7,10.83,7.3c-0.34,0.11-0.68,0.23-1.02,0.37C9.5,7.79,9.19,7.93,8.89,8.09L8.89,8.09z M6.53,12.06
			c-0.03,0.05-0.06,0.1-0.09,0.15c-0.53,0-1.02,0.06-1.46,0.21c0.3-0.63,0.76-1.23,1.33-1.78C6.34,11.1,6.42,11.57,6.53,12.06
			L6.53,12.06z M6.12,12.93c-0.03,0.09-0.06,0.18-0.09,0.28l0,0.01l0,0c-0.1,0.36-0.18,0.71-0.22,1.03
			c-0.5-0.11-0.91-0.11-1.24-0.03c-0.01-0.28,0.02-0.56,0.08-0.84v0c0.01-0.03,0.01-0.05,0.02-0.08
			C5.07,13.08,5.57,12.96,6.12,12.93L6.12,12.93z M5.59,14.93c-0.19,0.21-0.35,0.44-0.5,0.68c-0.04,0.06-0.07,0.12-0.11,0.18
			c-0.15-0.29-0.25-0.58-0.32-0.87C4.9,14.86,5.21,14.86,5.59,14.93L5.59,14.93z M4.41,17.26c-0.03,0.15-0.06,0.3-0.08,0.44
			c-0.06-0.16-0.12-0.32-0.17-0.48C4.25,17.23,4.33,17.25,4.41,17.26L4.41,17.26z M6.24,19.94c0.35-0.11,0.74-0.31,1.19-0.61
			c0.15,0.64,0.31,1.18,0.5,1.65c-0.65-0.15-1.24-0.39-1.75-0.67C6.19,20.18,6.21,20.06,6.24,19.94L6.24,19.94z M8.41,21.97
			c0.1,0.17,0.2,0.32,0.31,0.45c-0.16,0.11-0.31,0.22-0.46,0.33c-0.28-0.19-0.56-0.4-0.83-0.63C7.8,22.13,8.14,22.09,8.41,21.97
			L8.41,21.97z M9.12,22.83c0.68,0.59,1.44,0.61,2.13,0.31l0.03-0.01c0.09,0.1,0.2,0.2,0.33,0.29c-0.92,0.31-1.89,0.13-2.82-0.36
			C8.89,22.98,9,22.91,9.12,22.83L9.12,22.83z M12.39,23.81c0.08,0.03,0.16,0.05,0.24,0.07c-0.15,0.02-0.3,0.03-0.45,0.04
			C12.25,23.89,12.32,23.85,12.39,23.81L12.39,23.81z M14.32,24.24v0.15c-0.51,0.36-1.04,0.63-1.6,0.79
			c-1.35,0.39-2.83,0.13-4.29-1.08C10,24.71,12.12,24.69,14.32,24.24L14.32,24.24z M14.34,25.16c0.03,0.5,0.09,0.97,0.17,1.41
			c-3.55-0.2-5.63-0.66-6.57-1.28c-0.46-0.3-0.55-0.67-0.34-1.08c1.76,1.74,3.56,2.14,5.2,1.67C13.34,25.73,13.85,25.48,14.34,25.16
			L14.34,25.16z M22.53,27.81c-0.36-0.26-0.74-0.5-1.14-0.7c0.56-0.04,1.15-0.09,1.76-0.14c0.49,0.3,1,0.47,1.52,0.54
			C24,27.74,23.27,27.84,22.53,27.81L22.53,27.81z M20.15,26.57l-0.08-0.03c-0.85-0.29-1.72-0.45-2.54-0.49
			c-0.48-0.31-0.95-0.65-1.41-1.03c-0.06-0.26-0.1-0.52-0.13-0.78c0.9-0.11,1.52-0.43,1.91-0.9c0.11,0.04,0.22,0.07,0.33,0.11
			c0.24,0.1,0.51,0.18,0.81,0.26c1.08,1.12,2.17,2.03,3.3,2.6c0.03,0.03,0.06,0.06,0.09,0.09C21.63,26.48,20.86,26.53,20.15,26.57
			L20.15,26.57z M14.84,26.59c-0.11-0.5-0.19-1.04-0.22-1.62c0.09-0.06,0.17-0.13,0.26-0.2c0.35,0.34,0.72,0.66,1.09,0.96
			c0.04,0.13,0.08,0.26,0.12,0.4c-0.22,0.03-0.42,0.08-0.62,0.14l-0.15,0.04l0.02,0.31C15.18,26.61,15.01,26.6,14.84,26.59
			L14.84,26.59z M15.43,24.29c0.1,0,0.19,0,0.28-0.01c0.02,0.15,0.03,0.3,0.06,0.45c-0.14-0.12-0.28-0.24-0.41-0.37L15.43,24.29
			L15.43,24.29z M19.97,27.2l0.06,0.02c0.31,0.11,0.63,0.23,0.93,0.37c-0.4-0.1-0.8-0.23-1.2-0.38L19.97,27.2L19.97,27.2z
			 M14.65,23.11c0.02-0.21,0.04-0.43,0.07-0.65c0.33,0.1,0.65,0.17,0.97,0.2c-0.01,0.11-0.01,0.22-0.02,0.33
			C15.31,23.06,14.97,23.1,14.65,23.11L14.65,23.11z M15.74,21.65c0.03-0.02,0.06-0.04,0.09-0.07l-0.01,0.04l-0.01,0.04L15.74,21.65
			L15.74,21.65z M14.44,22.37c-0.03,0.26-0.06,0.5-0.08,0.75c-0.08,0-0.16,0-0.24,0c-0.15-0.17-0.3-0.35-0.45-0.53l0.04-0.05
			c0.09-0.12,0.17-0.24,0.24-0.35l0.03,0C14.14,22.25,14.29,22.31,14.44,22.37L14.44,22.37z M12.04,22.62
			c0.18-0.16,0.36-0.34,0.52-0.53c0.11,0.16,0.23,0.32,0.35,0.48c-0.1,0.1-0.21,0.2-0.31,0.28C12.4,22.78,12.22,22.71,12.04,22.62
			L12.04,22.62z M14.92,21.38c0.07-0.26,0.15-0.49,0.24-0.7c0.29,0.05,0.58,0.07,0.86,0.02C15.71,21.04,15.34,21.26,14.92,21.38
			L14.92,21.38z M18.04,20.31c0.06,0.2,0.11,0.39,0.14,0.59c0.01,0.06,0.02,0.11,0.03,0.17c-0.09,0.09-0.19,0.16-0.28,0.23
			c-0.06-0.1-0.13-0.21-0.19-0.31l0.01-0.03C17.85,20.75,17.95,20.53,18.04,20.31L18.04,20.31z M17.42,20.39
			c-0.05-0.11-0.1-0.22-0.15-0.34l0.46-0.41C17.64,19.89,17.53,20.14,17.42,20.39L17.42,20.39z M19.57,20.33
			c0.03,0.3,0.06,0.6,0.1,0.89c-0.32,0.14-0.67,0.26-1.05,0.34c0.33-0.33,0.64-0.75,0.93-1.25L19.57,20.33L19.57,20.33z
			 M19.86,22.29c0.08,0.35,0.17,0.68,0.27,1c-0.14-0.04-0.27-0.07-0.4-0.11c-0.15-0.1-0.31-0.22-0.46-0.33
			c-0.07-0.06-0.13-0.11-0.2-0.17C19.34,22.55,19.6,22.42,19.86,22.29L19.86,22.29z M18.46,20.81c-0.01-0.06-0.02-0.12-0.03-0.18
			c-0.05-0.27-0.12-0.54-0.21-0.81l0.03-0.08c0.26,0.1,0.53,0.2,0.79,0.29C18.86,20.32,18.67,20.58,18.46,20.81L18.46,20.81z
			 M19.87,20.56c0.05,0.04,0.09,0.07,0.14,0.11c0.02,0.12,0.03,0.24,0.05,0.36c-0.04,0.02-0.08,0.04-0.12,0.06
			C19.92,20.92,19.89,20.74,19.87,20.56L19.87,20.56z M20.25,22.09c0.1,0.46,0.22,0.9,0.35,1.29l-0.07-0.01
			c-0.15-0.38-0.28-0.79-0.39-1.23L20.25,22.09L20.25,22.09z M21.93,20.02c0.14,0.03,0.28,0.06,0.42,0.08
			c-0.08,0.06-0.17,0.12-0.26,0.19l-0.18-0.05c0-0.06,0-0.13,0-0.19L21.93,20.02L21.93,20.02z M23.35,20.27
			c0.41,0.06,0.8,0.1,1.19,0.12c0.14,0.16,0.27,0.33,0.41,0.51c0.07,0.08,0.13,0.17,0.18,0.25c-0.36-0.09-0.78-0.2-1.23-0.32
			c-0.21-0.15-0.41-0.32-0.58-0.48L23.35,20.27L23.35,20.27z M25.27,22.2c0.02,0.12,0.03,0.23,0.05,0.34
			c-0.88-0.28-1.74-0.64-2.57-1.05c0.04-0.08,0.09-0.16,0.13-0.23c0.41,0.12,0.79,0.23,1.15,0.32C24.4,21.83,24.82,22.04,25.27,22.2
			L25.27,22.2z M25.47,23.32l-0.01,0.01c-0.53,0.05-1.02,0.09-1.49,0.11c-0.35-0.16-0.69-0.35-1.02-0.57
			c-0.11-0.08-0.22-0.15-0.33-0.23c-0.11-0.15-0.23-0.29-0.34-0.43l0.05,0.01l0.07-0.12l0.02-0.02C23.39,22.58,24.42,23,25.47,23.32
			L25.47,23.32z M24.14,24.16c-0.05,0.01-0.1,0.03-0.15,0.04l-0.35-0.07l-0.03-0.06c0.1,0,0.2-0.01,0.3-0.01
			C23.99,24.09,24.07,24.13,24.14,24.16L24.14,24.16z M14.34,19.72c-0.2-0.1-0.39-0.21-0.56-0.33c0.19-0.11,0.39-0.21,0.58-0.3
			C14.37,19.3,14.37,19.51,14.34,19.72L14.34,19.72z M14.77,20.74c-0.05,0.17-0.1,0.35-0.15,0.55l-0.14-0.07
			c0.06-0.15,0.12-0.29,0.16-0.44L14.77,20.74L14.77,20.74z M13.98,20.95l0.03-0.01L14,20.96L13.98,20.95L13.98,20.95z M22.47,23.23
			c0.07,0.09,0.13,0.17,0.19,0.25c-0.61,0-1.16-0.02-1.66-0.06c-0.18-0.45-0.33-0.95-0.46-1.49c0.13-0.07,0.26-0.15,0.39-0.22
			C21.24,22.2,21.74,22.71,22.47,23.23L22.47,23.23z M23.92,25.42l0.07,0.12c-0.22,0.03-0.46,0.05-0.7,0.06
			c-0.42,0.02-0.81-0.06-1.15-0.23c-0.09-0.1-0.17-0.21-0.25-0.32C22.6,25.29,23.28,25.41,23.92,25.42L23.92,25.42z M24.32,26.17
			l0.03,0.06l-0.25,0.03c-0.05-0.01-0.11-0.02-0.16-0.03C24.06,26.21,24.19,26.19,24.32,26.17L24.32,26.17z M24.74,26.19l-0.04-0.08
			c0.71-0.14,1.31-0.36,1.83-0.64c0.12,0.14,0.25,0.27,0.38,0.38c0.03,0.02,0.06,0.05,0.08,0.07
			C26.23,26.02,25.47,26.11,24.74,26.19L24.74,26.19z M24.41,25.48l-0.04-0.08c0.38-0.03,0.75-0.09,1.11-0.19l0.03,0.01
			C25.17,25.33,24.8,25.42,24.41,25.48L24.41,25.48z M25.53,23.98l0.03-0.04l0.11-0.01l0.03,0.09C25.65,24,25.59,23.99,25.53,23.98
			L25.53,23.98z M15.96,22.8l0.01-0.12l0.08,0L15.96,22.8L15.96,22.8z M16.12,21.69c0.03-0.12,0.05-0.23,0.08-0.34
			c0.02,0.11,0.05,0.23,0.09,0.36C16.24,21.7,16.18,21.7,16.12,21.69L16.12,21.69z M18.78,17.93c0.05-0.02,0.11-0.05,0.16-0.07
			l-0.19,0.16L18.78,17.93L18.78,17.93z M22.83,18.75c0.15,0.12,0.31,0.24,0.47,0.38c-0.03,0.09-0.05,0.18-0.09,0.28
			c-0.07,0.07-0.15,0.13-0.23,0.2c-0.1-0.02-0.21-0.04-0.32-0.06l-0.02-0.03c-0.1-0.17-0.16-0.32-0.18-0.45
			C22.6,18.97,22.72,18.87,22.83,18.75L22.83,18.75z M23.79,19.59c0.05,0.05,0.1,0.1,0.15,0.15c-0.09-0.01-0.18-0.02-0.28-0.04
			C23.71,19.67,23.75,19.63,23.79,19.59L23.79,19.59z M24.69,19.81c-0.18-0.21-0.36-0.41-0.54-0.6c0.09-0.1,0.13-0.15,0.18-0.22
			c0.04-0.05,0.08-0.11,0.2-0.24l0.18-0.21c0.11,0.44,0.26,0.87,0.44,1.27v0.02C24.99,19.83,24.84,19.82,24.69,19.81L24.69,19.81z
			 M23.08,16.01L23.08,16.01c0.24-0.36,0.51-0.69,0.81-0.99c0.19,0.11,0.38,0.21,0.57,0.3c-0.15,0.4-0.41,0.82-0.75,1.22
			c-0.05,0.01-0.1,0.01-0.16,0.02c-0.04-0.07-0.09-0.14-0.14-0.2C23.31,16.23,23.2,16.11,23.08,16.01L23.08,16.01z M22.85,15.45
			l-0.04-0.08l0.21-0.16C22.97,15.29,22.91,15.37,22.85,15.45L22.85,15.45z M22.57,14.87c-0.22-0.4-0.44-0.74-0.67-1.02l0.14,0.01
			c0.33,0.23,0.67,0.45,0.99,0.66C22.88,14.64,22.72,14.76,22.57,14.87L22.57,14.87z M20.7,12.9l-0.06-0.02l0.03-0.1l0.03,0.03
			l0,0.02L20.7,12.9L20.7,12.9z M24.58,14.62L24.58,14.62l-0.16-0.08c0.05-0.04,0.09-0.08,0.14-0.12
			C24.56,14.49,24.57,14.55,24.58,14.62L24.58,14.62z M24.63,18.23l0.01,0.04l-0.2-0.06c-0.19-0.06-0.37-0.1-0.53-0.14
			c0-0.06,0-0.11,0-0.16C24.13,18.03,24.37,18.13,24.63,18.23L24.63,18.23z M21.29,17.22c-0.15-0.05-0.3-0.09-0.45-0.13
			c0.02-0.06,0.04-0.11,0.05-0.17l0.07-0.06c0.3,0.14,0.62,0.23,0.96,0.29C21.75,17.19,21.54,17.22,21.29,17.22L21.29,17.22z
			 M20.19,16.8c0.01-0.14,0.02-0.27,0.02-0.41c0.05,0.04,0.1,0.08,0.15,0.12l-0.04,0.17L20.19,16.8L20.19,16.8z M20.31,15.32
			c0.01-0.11,0.02-0.22,0.04-0.34l0.01-0.07c0.1,0.03,0.19,0.07,0.28,0.1c-0.01,0.1-0.03,0.19-0.04,0.29
			C20.5,15.31,20.4,15.31,20.31,15.32L20.31,15.32z M20.42,14.33l0.05-0.45c0.06,0.06,0.11,0.12,0.16,0.19l0.08,0.09
			c-0.01,0.09-0.01,0.18-0.02,0.27C20.6,14.39,20.51,14.36,20.42,14.33L20.42,14.33z M21.34,14.02c0.3,0.27,0.6,0.63,0.89,1.11
			l-0.19,0.15C21.86,14.85,21.63,14.42,21.34,14.02L21.34,14.02z M22.5,15.62l0.02,0.04l-0.05-0.02L22.5,15.62L22.5,15.62z
			 M22.91,16.57L22.91,16.57c-0.03-0.03-0.06-0.05-0.1-0.08C22.84,16.52,22.87,16.54,22.91,16.57L22.91,16.57z M19.9,17l-0.06,0
			c0.02-0.3,0.05-0.59,0.09-0.88l0.02,0.02C19.93,16.43,19.91,16.72,19.9,17L19.9,17z M18.37,17.44c-0.21,0.12-0.4,0.26-0.59,0.42
			c0-0.06,0-0.12,0-0.18c0.11-0.04,0.23-0.09,0.35-0.15l0.24-0.12L18.37,17.44L18.37,17.44z M18.03,16.58
			c-0.01-0.03-0.03-0.06-0.05-0.1c0.18-0.07,0.37-0.14,0.56-0.21c-0.01,0.15-0.03,0.3-0.05,0.45
			C18.34,16.68,18.18,16.63,18.03,16.58L18.03,16.58z M17.69,15.98c-0.05-0.09-0.11-0.17-0.17-0.26l-0.02-0.08
			c0.31,0.02,0.6,0.04,0.86,0.07C18.13,15.79,17.91,15.88,17.69,15.98L17.69,15.98z M17.48,15.05c0.1-0.16,0.22-0.31,0.34-0.45
			c0.26-0.01,0.52,0,0.77,0.01c0.01,0.19,0.01,0.38,0.01,0.57C18.27,15.12,17.89,15.08,17.48,15.05L17.48,15.05z M18.43,14.01
			c0.04-0.03,0.07-0.06,0.11-0.08l0.01,0.09L18.43,14.01L18.43,14.01z M20.03,13.83c-0.03,0.12-0.06,0.24-0.08,0.37
			c-0.19-0.04-0.39-0.08-0.59-0.11c-0.01-0.05-0.02-0.1-0.04-0.15l-0.02-0.09C19.54,13.84,19.79,13.84,20.03,13.83L20.03,13.83z
			 M19.84,14.77c-0.02,0.11-0.04,0.22-0.06,0.33c-0.07-0.12-0.14-0.24-0.19-0.38C19.67,14.74,19.75,14.75,19.84,14.77L19.84,14.77z
			 M19.65,16.01c-0.04,0.33-0.07,0.65-0.1,0.98c-0.19-0.04-0.39-0.09-0.58-0.14c0.03-0.24,0.06-0.48,0.08-0.72
			c0.13-0.03,0.26-0.06,0.4-0.09C19.52,16.03,19.58,16.02,19.65,16.01L19.65,16.01z M25.69,22.34c0.02,0.11,0.02,0.22,0.02,0.32
			l-0.04-0.01c-0.02-0.11-0.05-0.22-0.07-0.34L25.69,22.34L25.69,22.34z M25.99,22.74c0.01-0.11,0.01-0.22,0-0.33
			c0.28,0.06,0.56,0.1,0.85,0.12c0.04,0.15,0.09,0.3,0.14,0.45C26.64,22.91,26.31,22.83,25.99,22.74L25.99,22.74z M25.69,21.28
			c-0.07-0.16-0.15-0.31-0.25-0.47c-0.01-0.13-0.01-0.25-0.01-0.39h0.02c0.2,0.35,0.42,0.66,0.67,0.95
			C26,21.35,25.85,21.32,25.69,21.28L25.69,21.28z M26.16,24.1c-0.03-0.07-0.07-0.14-0.1-0.21c0.28-0.03,0.56-0.06,0.86-0.1
			c-0.19,0.13-0.38,0.24-0.57,0.34C26.28,24.12,26.22,24.11,26.16,24.1L26.16,24.1z M16.47,16c0-0.13-0.01-0.26-0.01-0.39
			c0.1,0,0.19,0,0.29,0l-0.01,0.03c-0.05,0.14-0.09,0.28-0.12,0.42L16.47,16L16.47,16z M16.91,14.65c0.04,0.12,0.07,0.24,0.11,0.35
			l0,0c-0.09-0.11-0.18-0.22-0.27-0.33L16.91,14.65L16.91,14.65z M16.22,13.66c0.11-0.21,0.25-0.43,0.41-0.65
			c0.6-0.09,1.17-0.16,1.69-0.2c0.04,0.14,0.07,0.29,0.1,0.44l0.01,0.05l-0.05,0.04c-0.53,0.05-1.03,0.11-1.49,0.2
			c-0.03-0.1-0.07-0.2-0.11-0.3l-0.05-0.13l-0.07,0.02c-0.1,0.03-0.19,0.13-0.27,0.29c-0.03,0.07-0.06,0.15-0.08,0.24L16.22,13.66
			L16.22,13.66z M17.21,12.3c0.1-0.11,0.21-0.21,0.31-0.3c0.19,0.06,0.37,0.13,0.55,0.21C17.79,12.23,17.51,12.27,17.21,12.3
			L17.21,12.3z M19.1,11.91c0.29,0.05,0.58,0.11,0.89,0.18c-0.21,0-0.43,0.01-0.66,0.02c-0.08-0.05-0.15-0.1-0.23-0.14L19.1,11.91
			L19.1,11.91z M20.33,12.7l-0.01,0.07l0,0.01c-0.04-0.01-0.07-0.02-0.11-0.02l-0.07-0.06C20.2,12.7,20.27,12.7,20.33,12.7
			L20.33,12.7z M19.26,12.85c-0.04,0.01-0.08,0.03-0.12,0.04c0-0.04-0.01-0.08-0.01-0.12C19.18,12.79,19.22,12.82,19.26,12.85
			L19.26,12.85z M17.7,13.98L17.68,14c-0.06,0-0.13,0.01-0.19,0.01C17.56,14,17.63,13.99,17.7,13.98L17.7,13.98z M16.19,15.81
			l0,0.07l-0.07-0.03l0.03-0.02L16.19,15.81L16.19,15.81z M16.98,20.31c0.07,0.18,0.15,0.36,0.23,0.53h0
			c-0.11-0.14-0.22-0.29-0.34-0.43L16.98,20.31L16.98,20.31z M17.21,17.1c-0.09-0.01-0.16-0.03-0.22-0.07
			c0.05-0.04,0.11-0.08,0.17-0.12l0.11,0.04C17.25,17,17.23,17.05,17.21,17.1L17.21,17.1z M16.92,16.18
			c0.01-0.03,0.02-0.06,0.03-0.1c0.02-0.07,0.05-0.14,0.08-0.21c0.07,0.12,0.13,0.24,0.17,0.36l-0.06,0.03
			C17.07,16.24,17,16.21,16.92,16.18L16.92,16.18z M13.31,18.97c-0.04-0.05-0.08-0.09-0.12-0.14l0.18,0.04
			c0,0.02,0.01,0.04,0.01,0.06L13.31,18.97L13.31,18.97z M12.68,18.71c0.06,0.17,0.15,0.34,0.25,0.5c-0.23,0.17-0.46,0.34-0.67,0.53
			c-0.15-0.13-0.28-0.27-0.41-0.41c-0.04-0.04-0.11-0.08-0.24-0.15l-0.16-0.08c-0.09-0.19-0.17-0.38-0.25-0.58
			c0.11-0.04,0.21-0.08,0.31-0.13C11.93,18.52,12.32,18.62,12.68,18.71L12.68,18.71z M11.38,20.33c-0.52-0.1-0.97-0.32-1.35-0.63
			c-0.01-0.2,0-0.41,0.02-0.61c0.11,0.07,0.21,0.13,0.31,0.19C10.7,19.65,11.04,20,11.38,20.33L11.38,20.33z M9.3,18.84l-0.03-0.05
			l0.01,0L9.3,18.84L9.3,18.84z M10.7,18.69l0.01,0l0,0.01L10.7,18.69L10.7,18.69z M12.28,17.84L12.28,17.84l0.07,0.01L12.28,17.84
			L12.28,17.84z M13.31,19.67l0.04,0.04c-0.04,0.16-0.09,0.33-0.15,0.5l-0.23,0.09c-0.09-0.07-0.19-0.14-0.27-0.2
			C12.89,19.95,13.09,19.8,13.31,19.67L13.31,19.67z M13.62,19.95c0.03,0.02,0.05,0.04,0.08,0.06l-0.1,0.04
			C13.6,20.02,13.61,19.98,13.62,19.95L13.62,19.95z M13.41,17.97l-0.03-0.05c-0.03-0.05-0.06-0.1-0.1-0.14
			c0.25,0.03,0.48,0.07,0.7,0.12l0.07,0.12C13.85,18,13.64,17.99,13.41,17.97L13.41,17.97z M12.87,16.99
			c-0.03,0.04-0.05,0.08-0.07,0.12l-0.13-0.01c0-0.02,0.01-0.05,0.01-0.07L12.87,16.99L12.87,16.99z M14.54,16.74
			c0.52,0.02,1.05,0.27,1.55,0.67c-0.01,0.02-0.01,0.04-0.02,0.05c-0.5-0.21-1-0.44-1.48-0.67L14.54,16.74L14.54,16.74z M15.79,16.5
			c-0.16-0.1-0.33-0.19-0.49-0.25c0.07-0.03,0.13-0.06,0.2-0.09l0.11,0.06C15.67,16.31,15.73,16.4,15.79,16.5L15.79,16.5z
			 M11.17,22.03c0.01-0.12,0.04-0.23,0.09-0.36c0.08-0.01,0.15-0.02,0.23-0.04c0.19,0.08,0.39,0.16,0.58,0.23
			c-0.18,0.17-0.37,0.32-0.57,0.44c-0.03-0.02-0.06-0.04-0.09-0.06C11.34,22.17,11.25,22.1,11.17,22.03L11.17,22.03z M10.95,22.56
			c-0.42,0.13-0.86,0.13-1.28-0.07c0.25-0.14,0.52-0.29,0.81-0.44C10.62,22.23,10.78,22.4,10.95,22.56L10.95,22.56z M9.16,22.14
			c-0.12-0.11-0.24-0.24-0.35-0.39c0.3,0.03,0.61,0.05,0.93,0.05c-0.18,0.1-0.35,0.2-0.51,0.3L9.16,22.14L9.16,22.14z M8.33,20.96
			c-0.2-0.42-0.39-0.93-0.55-1.55C7.85,19.46,7.92,19.5,8,19.55c0.15,0.42,0.4,0.76,0.74,1.03l0,0c-0.03,0.1-0.07,0.2-0.12,0.31
			C8.53,20.91,8.43,20.94,8.33,20.96L8.33,20.96z M10.47,18.06c-0.04,0-0.07,0.01-0.11,0.02l0,0l0.02-0.05L10.47,18.06L10.47,18.06z
			 M7.74,18.41L7.74,18.41l-0.14,0.1l-0.02-0.02C7.63,18.46,7.68,18.44,7.74,18.41L7.74,18.41z M7.44,17.42
			c-0.01-0.15-0.01-0.3,0-0.44c0.17,0.2,0.35,0.39,0.55,0.57c-0.01,0.04-0.02,0.09-0.03,0.13l-0.02,0.01
			C7.78,17.59,7.61,17.5,7.44,17.42L7.44,17.42z M7.54,16.2c0.02-0.06,0.04-0.13,0.06-0.18c0.13,0.14,0.26,0.28,0.39,0.44
			c-0.11-0.04-0.22-0.08-0.33-0.12C7.61,16.3,7.58,16.25,7.54,16.2L7.54,16.2z M8.25,15.15c0.04-0.03,0.08-0.05,0.13-0.08
			c-0.01,0.09-0.02,0.17-0.03,0.26C8.32,15.27,8.29,15.21,8.25,15.15L8.25,15.15z M7.61,15.09l-0.03,0.05
			c-0.18-0.16-0.35-0.3-0.52-0.41c0.02-0.08,0.04-0.16,0.07-0.24c0.06-0.03,0.12-0.05,0.18-0.07C7.41,14.64,7.51,14.87,7.61,15.09
			L7.61,15.09z M7.32,15.75C7.31,15.77,7.3,15.8,7.3,15.83c-0.03-0.06-0.06-0.12-0.09-0.18C7.25,15.68,7.28,15.72,7.32,15.75
			L7.32,15.75z M7.15,16.81c-0.01,0.15-0.01,0.3,0,0.47c-0.07-0.03-0.14-0.06-0.21-0.09c-0.18-0.16-0.34-0.35-0.47-0.55
			C6.68,16.69,6.91,16.74,7.15,16.81L7.15,16.81z M6.16,15.97c-0.07-0.23-0.11-0.49-0.12-0.77c0.04-0.04,0.09-0.08,0.13-0.12
			c0.09,0.03,0.19,0.06,0.28,0.1c0.04,0.01,0.07,0.03,0.11,0.04c0.01,0.05,0.01,0.09,0.02,0.14c0.05,0.25,0.13,0.5,0.26,0.74
			C6.6,16.05,6.37,16,6.16,15.97L6.16,15.97z M7.83,14.29c0.23-0.04,0.46-0.06,0.71-0.05l-0.02,0.08C8.33,14.4,8.15,14.5,8,14.64
			C7.94,14.52,7.89,14.4,7.83,14.29L7.83,14.29z M7.01,18.89c-0.05,0.03-0.09,0.05-0.13,0.08c0.04-0.03,0.07-0.06,0.11-0.09
			L7.01,18.89L7.01,18.89z M5.98,19.33c-0.03,0.01-0.07,0.01-0.1,0.02c-0.04-0.11-0.09-0.21-0.15-0.3c-0.2-0.3-0.49-0.42-0.91-0.29
			c-0.09-0.16-0.17-0.33-0.24-0.49c0-0.1,0-0.21,0.02-0.32c0.02-0.2,0.07-0.42,0.14-0.64c0.24,0.05,0.48,0.1,0.72,0.15
			c0.31,0.36,0.68,0.72,1.11,1.07c-0.03,0.03-0.05,0.05-0.08,0.08C6.27,18.83,6.1,19.07,5.98,19.33L5.98,19.33z M5.41,15.92
			c0.11-0.15,0.22-0.3,0.35-0.44c0.01,0.16,0.03,0.31,0.06,0.45C5.68,15.92,5.54,15.92,5.41,15.92L5.41,15.92z M6,16.56
			c0.05,0.13,0.1,0.25,0.16,0.36c-0.17-0.05-0.35-0.1-0.52-0.14c-0.07-0.09-0.13-0.17-0.2-0.25C5.61,16.53,5.79,16.54,6,16.56
			L6,16.56z M7.02,17.98c0.04,0.03,0.09,0.07,0.13,0.1c-0.03,0.02-0.06,0.04-0.09,0.06c-0.13-0.09-0.24-0.19-0.36-0.28
			C6.82,17.89,6.92,17.93,7.02,17.98L7.02,17.98z M8.7,14.93c0.16-0.05,0.33-0.08,0.51-0.1C9,15.12,8.8,15.45,8.62,15.81L8.6,15.78
			c0.01-0.18,0.03-0.36,0.05-0.54C8.66,15.14,8.68,15.03,8.7,14.93L8.7,14.93z M9.86,14.85l0.06,0.01c0,0.2,0.01,0.4,0.03,0.6
			c0.03,0.43,0.1,0.87,0.19,1.31c-0.06,0.12-0.1,0.23-0.11,0.35c-0.05,0.02-0.11,0.05-0.16,0.07l-0.04,0.01
			c-0.14-0.05-0.29-0.11-0.44-0.17c-0.16-0.24-0.32-0.48-0.47-0.73C9.18,15.7,9.5,15.23,9.86,14.85L9.86,14.85z M10.42,15.14
			c0.28,0.19,0.58,0.38,0.88,0.57c-0.27,0.16-0.5,0.32-0.68,0.48c-0.02,0.02-0.05,0.04-0.07,0.06c-0.05-0.3-0.09-0.59-0.11-0.88
			C10.43,15.3,10.42,15.22,10.42,15.14L10.42,15.14z M12.2,16.25l0.05,0.03c0.03,0.05,0.05,0.09,0.07,0.14
			c-0.21,0.04-0.42,0.09-0.63,0.14C11.85,16.44,12.02,16.34,12.2,16.25L12.2,16.25z M11.12,14.48l-0.11-0.04l-0.04-0.03
			c-0.12-0.08-0.23-0.15-0.35-0.21l0.02-0.01C10.8,14.28,10.96,14.38,11.12,14.48L11.12,14.48z M9.96,13.88
			c-0.19-0.08-0.38-0.14-0.57-0.19c-0.07-0.05-0.13-0.1-0.2-0.16l0.01-0.02c0.25,0.1,0.5,0.21,0.75,0.32L9.96,13.88L9.96,13.88z
			 M9.63,12.94c0.19-0.21,0.4-0.39,0.64-0.52c-0.08,0.24-0.14,0.48-0.19,0.72C9.93,13.07,9.78,13,9.63,12.94L9.63,12.94z M11,12.14
			c0.45-0.08,0.96-0.04,1.53,0.15c-0.02,0.22-0.04,0.44-0.04,0.67c-0.6,0.03-1.2,0.19-1.77,0.5c-0.06-0.03-0.11-0.06-0.17-0.09
			c0.08-0.41,0.21-0.82,0.37-1.21L11,12.14L11,12.14z M13.01,12.5c0.05,0.03,0.11,0.05,0.17,0.08c-0.07,0.11-0.13,0.22-0.19,0.34
			C12.99,12.78,13,12.64,13.01,12.5L13.01,12.5z M12.66,14.6c0,0.04,0,0.08,0.01,0.12c0,0.05,0.01,0.1,0.01,0.14
			c-0.41-0.38-0.87-0.73-1.35-1.03c0.39-0.15,0.78-0.23,1.18-0.25C12.54,13.91,12.58,14.26,12.66,14.6L12.66,14.6z M13.84,16.08
			c-0.04-0.03-0.08-0.07-0.12-0.1l-0.13-0.2c0.34-0.07,0.7-0.12,1.09-0.14c0.05,0.04,0.11,0.07,0.16,0.11
			C14.48,15.89,14.15,15.99,13.84,16.08L13.84,16.08z M13.03,13.79c0.02-0.07,0.04-0.13,0.07-0.2c0.17,0.01,0.34,0.04,0.5,0.07
			c-0.08,0.16-0.11,0.33-0.1,0.5c0.01,0.18,0.08,0.36,0.19,0.54c-0.16,0.05-0.31,0.1-0.46,0.15C13.14,14.48,13.08,14.13,13.03,13.79
			L13.03,13.79z M13.42,13.01c0.05-0.07,0.1-0.13,0.16-0.19c0.16,0.1,0.32,0.21,0.49,0.33l-0.04-0.01
			C13.83,13.08,13.63,13.04,13.42,13.01L13.42,13.01z M15.54,14.85c0,0.03,0,0.06-0.01,0.09l-0.04-0.09L15.54,14.85L15.54,14.85z
			 M7.96,12.4c-0.2-0.21-0.37-0.43-0.52-0.63c0.86-0.64,2.02-0.72,3.27-0.42c-0.03,0.06-0.06,0.12-0.09,0.19
			c-0.28,0.09-0.56,0.19-0.85,0.3c-0.55,0.21-1.02,0.43-1.42,0.66C8.22,12.46,8.09,12.43,7.96,12.4L7.96,12.4z M15.86,14.8
			c0.02,0.06,0.04,0.13,0.06,0.2h-0.1c0-0.07,0.01-0.13,0.02-0.2L15.86,14.8L15.86,14.8z M8.39,13.56c-0.19,0-0.37,0.02-0.55,0.05
			c0.1-0.08,0.22-0.17,0.34-0.25C8.25,13.43,8.32,13.49,8.39,13.56L8.39,13.56z M6.79,13.96c-0.21,0.11-0.41,0.24-0.59,0.39
			l-0.1-0.03c0.04-0.23,0.09-0.46,0.16-0.71l0,0l0-0.01c0.07-0.25,0.16-0.47,0.25-0.68c0.08,0,0.16,0.01,0.25,0.01
			C6.83,13.17,6.91,13.4,7,13.63C6.92,13.74,6.85,13.85,6.79,13.96L6.79,13.96z M7.06,12.12l0.04-0.05c0.04,0.07,0.09,0.13,0.13,0.2
			l-0.14-0.02C7.08,12.21,7.07,12.16,7.06,12.12L7.06,12.12z M11.05,10.75c-1.5-0.43-2.91-0.33-3.9,0.55
			c-0.24-0.46-0.31-0.88-0.18-1.24c0.67-0.53,1.45-1.01,2.29-1.41c0.92-0.24,2.12-0.4,3.64-0.47c0.26-0.01,0.57-0.01,0.92,0
			C12.59,8.91,11.68,9.78,11.05,10.75L11.05,10.75z M16.09,8.37c0.36,0.04,0.74,0.09,1.13,0.15c-0.2,0.1-0.38,0.21-0.56,0.32
			C16.48,8.68,16.29,8.52,16.09,8.37L16.09,8.37z M18.43,8.72c0.16,0.03,0.31,0.06,0.47,0.09c0.14,0.12,0.27,0.25,0.4,0.39
			c-0.19,0.4-0.34,0.82-0.45,1.27c-0.24,0.09-0.48,0.21-0.71,0.35c-0.27-0.54-0.61-1.04-1.01-1.49C17.51,9.1,17.95,8.9,18.43,8.72
			L18.43,8.72z M19.95,9.03c0.15,0.03,0.29,0.07,0.44,0.1c-0.04,0.13-0.07,0.27-0.09,0.41C20.19,9.36,20.08,9.19,19.95,9.03
			L19.95,9.03z M20.82,9.23l0.04,0.01L20.8,9.28L20.82,9.23L20.82,9.23z M19.87,10.24c-0.17,0.02-0.34,0.04-0.51,0.08
			c0.08-0.24,0.17-0.48,0.27-0.7c0.11,0.15,0.21,0.31,0.31,0.48C19.92,10.14,19.89,10.19,19.87,10.24L19.87,10.24z M17.64,11.05
			c-0.37-0.03-0.71-0.03-1.03-0.02c-0.37-0.08-0.76-0.13-1.17-0.16c0.02-0.04,0.05-0.07,0.07-0.11c0.27-0.39,0.63-0.76,1.09-1.1
			C17.02,10.08,17.37,10.55,17.64,11.05L17.64,11.05z M14.3,11.56c-0.23,0.12-0.43,0.26-0.6,0.42c-0.17-0.11-0.35-0.22-0.52-0.32
			C13.56,11.61,13.93,11.58,14.3,11.56L14.3,11.56z M12.1,11.13c-0.16-0.07-0.32-0.13-0.48-0.19c0.55-0.76,1.31-1.45,2.3-2.04
			c-0.33,0.41-0.61,0.85-0.83,1.32c-0.12,0.25-0.22,0.51-0.3,0.77C12.57,11.03,12.34,11.07,12.1,11.13L12.1,11.13z M15.81,13.66
			c-0.15-0.15-0.3-0.29-0.46-0.43c0.21-0.05,0.45-0.1,0.72-0.14C15.97,13.28,15.88,13.47,15.81,13.66L15.81,13.66z M14.45,12.5
			c-0.08-0.06-0.17-0.12-0.25-0.18c0.09-0.05,0.18-0.1,0.27-0.15C14.46,12.28,14.45,12.39,14.45,12.5L14.45,12.5z M15.01,11.95
			c0.4-0.12,0.86-0.21,1.41-0.24c0.18,0.03,0.36,0.07,0.54,0.12c-0.17,0.19-0.32,0.38-0.46,0.57l-0.21,0.03
			c-0.53,0.08-0.98,0.19-1.35,0.31C14.94,12.47,14.96,12.21,15.01,11.95L15.01,11.95z M19.19,11.04c0.18-0.05,0.35-0.09,0.53-0.11
			c0,0.14,0.02,0.29,0.05,0.43c-0.21-0.04-0.42-0.08-0.62-0.12C19.17,11.17,19.18,11.11,19.19,11.04L19.19,11.04z M20.22,10.89h0.09
			c0.07,0.2,0.14,0.42,0.19,0.64l-0.12-0.03C20.26,11.28,20.21,11.07,20.22,10.89L20.22,10.89z M20.97,10.95l0.08,0.01
			c-0.03,0.06-0.06,0.12-0.09,0.18l-0.02-0.08L20.97,10.95L20.97,10.95z M21.55,11.07c1.17,0.33,2.34,1.09,3.38,2.1l0,0
			c-1.2-0.63-2.25-1.07-2.6-1.17l-1.02-0.27c0.06-0.2,0.13-0.4,0.22-0.59L21.55,11.07L21.55,11.07z M26.17,14.58L26.17,14.58l0,0.01
			L26.17,14.58L26.17,14.58z M26.59,15.16l0.04,0.06c-0.01,0.09-0.03,0.17-0.04,0.26c-0.16-0.05-0.31-0.11-0.47-0.17
			C26.27,15.25,26.43,15.2,26.59,15.16L26.59,15.16z M26.47,16.37l-0.02,0.16c-0.24,0.04-0.49,0.09-0.74,0.14l0-0.01
			C25.97,16.56,26.22,16.47,26.47,16.37L26.47,16.37z M26.4,17.22c-0.02,0.27-0.03,0.54-0.04,0.8c-0.27-0.03-0.53-0.08-0.77-0.14
			l-0.02-0.03c0.02-0.16,0.04-0.33,0.06-0.5c0.2-0.04,0.4-0.08,0.61-0.11L26.4,17.22L26.4,17.22z M26.34,18.64l0,0.13
			c-0.05-0.05-0.1-0.1-0.15-0.15C26.25,18.63,26.3,18.63,26.34,18.64L26.34,18.64z M26.37,19.66l0.01,0.15
			c-0.25,0.02-0.52,0.04-0.79,0.04c-0.04-0.07-0.08-0.15-0.12-0.22l-0.04-0.09c0.01-0.26,0.02-0.54,0.05-0.82
			C25.77,19.07,26.07,19.38,26.37,19.66L26.37,19.66z M25.84,15.98l0.01-0.03l0.04,0.02L25.84,15.98L25.84,15.98z M25.94,13.53
			l-0.01-0.01c0.1-0.05,0.19-0.1,0.29-0.15c-0.02,0.06-0.05,0.12-0.07,0.19L25.94,13.53L25.94,13.53z M25.32,12.84
			c-1.05-1.08-2.24-1.93-3.45-2.34l0.02-0.02c0.86,0.05,1.79,0.04,2.75-0.04c0.38,0.15,0.75,0.31,1.11,0.47
			c0.13,0.1,0.25,0.19,0.38,0.29c0.16,0.2,0.33,0.41,0.49,0.65C26.1,12.02,25.66,12.37,25.32,12.84L25.32,12.84z M22.56,9.89
			c0.07-0.04,0.13-0.08,0.2-0.11c0.12,0.04,0.24,0.08,0.36,0.12C22.93,9.89,22.75,9.89,22.56,9.89L22.56,9.89z M21.29,9.81
			l0.02-0.06c0.18-0.08,0.38-0.16,0.6-0.23l0.04,0.01c-0.08,0.1-0.16,0.21-0.24,0.31C21.57,9.84,21.43,9.82,21.29,9.81L21.29,9.81z
			 M27.69,17.07c0.15,0.32,0.29,0.64,0.41,0.97c-0.21,0.02-0.41,0.03-0.61,0.04c-0.01-0.34-0.01-0.67,0.01-0.99L27.69,17.07
			L27.69,17.07z M28.3,18.63c0.06,0.19,0.11,0.38,0.16,0.57c-0.25,0.15-0.53,0.27-0.84,0.37c-0.04-0.3-0.07-0.6-0.1-0.89
			C27.77,18.68,28.03,18.66,28.3,18.63L28.3,18.63z M26.63,19.04v-0.01V19.04L26.63,19.04L26.63,19.04z M28.71,18.91
			c-0.03-0.11-0.05-0.21-0.08-0.32c0.21-0.03,0.41-0.07,0.62-0.11c-0.14,0.21-0.32,0.39-0.52,0.54
			C28.72,18.99,28.72,18.95,28.71,18.91L28.71,18.91z M28.45,18c-0.1-0.32-0.22-0.64-0.36-0.95c0.35-0.01,0.68-0.01,1,0.01
			c0.04,0.11,0.08,0.22,0.12,0.33c0.06,0.15,0.12,0.3,0.18,0.44C29.07,17.9,28.76,17.96,28.45,18L28.45,18z M27.25,15.38
			c-0.04-0.07-0.08-0.14-0.13-0.21l0-0.01c0.06,0.04,0.11,0.07,0.17,0.11l-0.02,0.1L27.25,15.38L27.25,15.38z M27.89,15.71
			c0.09,0.07,0.18,0.13,0.26,0.2c-0.15-0.03-0.3-0.06-0.45-0.1c0.06-0.03,0.12-0.06,0.18-0.09L27.89,15.71L27.89,15.71z
			 M28.56,19.71c0.04,0.19,0.06,0.39,0.08,0.58c-0.22-0.08-0.44-0.18-0.66-0.29C28.19,19.92,28.39,19.82,28.56,19.71L28.56,19.71z
			 M28.68,21.05c0,0.21-0.02,0.42-0.04,0.62c-0.08,0.03-0.15,0.05-0.23,0.07l-0.42-0.07l-0.01-0.06l-0.18-0.95
			C28.09,20.82,28.39,20.95,28.68,21.05L28.68,21.05z M27.17,21.54c-0.1-0.06-0.21-0.13-0.3-0.2c-0.06-0.3-0.11-0.61-0.15-0.93
			l-0.01-0.08c0.06-0.01,0.12-0.02,0.18-0.03c0.11,0.43,0.25,0.85,0.41,1.26L27.17,21.54L27.17,21.54z M27.38,23.07
			c-0.07-0.17-0.14-0.34-0.2-0.52c0.18,0,0.36-0.01,0.55-0.04l0,0.01c0.04,0.17,0.08,0.34,0.13,0.5l-0.04,0.04l-0.31,0.04
			L27.38,23.07L27.38,23.07z M29.42,22.63l0.02,0l0.11,0.02c-0.01,0.05-0.02,0.09-0.04,0.14l-0.15,0.02
			C29.39,22.75,29.41,22.69,29.42,22.63L29.42,22.63z M28.02,24.21L28.02,24.21c0.05-0.08,0.1-0.15,0.14-0.22
			c0.02,0.06,0.04,0.11,0.06,0.17L28.2,24.2L28.02,24.21L28.02,24.21z M28.94,21.55c0.01-0.14,0.02-0.27,0.02-0.41
			c0.09,0.02,0.17,0.05,0.26,0.07c-0.06,0.1-0.12,0.2-0.18,0.3L28.94,21.55L28.94,21.55z M28.94,20.39
			c-0.02-0.28-0.06-0.57-0.11-0.86c0.32-0.24,0.58-0.53,0.77-0.88c0.04,0.21,0.07,0.41,0.09,0.61l-0.19,1
			c-0.02,0.09-0.04,0.17-0.05,0.26C29.28,20.48,29.11,20.44,28.94,20.39L28.94,20.39z M29.71,21.8l-0.01,0.09l-0.06,0.01l0.02-0.07
			L29.71,21.8L29.71,21.8z M27.44,24.83L27.44,24.83c0.14,0,0.27,0,0.4-0.01l-0.04,0.06L27.44,24.83L27.44,24.83z M27.15,12.95
			L27.1,13.1c-0.05,0.18-0.1,0.36-0.14,0.54c-0.14-0.02-0.29-0.04-0.43-0.05c0.08-0.19,0.17-0.35,0.26-0.5
			C26.91,13.04,27.03,12.99,27.15,12.95L27.15,12.95z M25.45,9.74c-0.26-0.23-0.51-0.4-0.76-0.54L24.6,9.12
			c0.97-0.03,2.03,0.05,3.1,0.24c-0.13,0.03-0.27,0.06-0.4,0.08C26.69,9.56,26.07,9.66,25.45,9.74L25.45,9.74z M21.84,8.81
			L21.7,8.78c0.16-0.33,0.32-0.62,0.49-0.87c0.11-0.01,0.23-0.02,0.34-0.03c0.16,0.19,0.33,0.39,0.51,0.58
			c-0.04,0.03-0.08,0.07-0.12,0.1C22.53,8.62,22.17,8.71,21.84,8.81L21.84,8.81z M22.91,7.12c0.03-0.03,0.07-0.05,0.1-0.08
			c0.12,0.01,0.24,0.03,0.36,0.04C23.22,7.09,23.06,7.1,22.91,7.12L22.91,7.12z M28.4,9.81l0.05,0.08c-0.26,0.4-0.49,0.87-0.71,1.38
			c-0.49-0.31-1.02-0.6-1.57-0.87l-0.15-0.12c0.45-0.06,0.9-0.14,1.35-0.23C27.71,9.98,28.06,9.9,28.4,9.81L28.4,9.81z M27.69,13.54
			l0.09,0.16l-0.02,0.05l-0.16-0.02C27.63,13.67,27.66,13.6,27.69,13.54L27.69,13.54z M28.57,15.34c0.05,0.11,0.09,0.22,0.14,0.33
			c-0.09-0.08-0.18-0.16-0.28-0.25L28.57,15.34L28.57,15.34z M27.94,15.03l-0.1-0.07c0.09-0.01,0.18-0.01,0.27-0.02L27.94,15.03
			L27.94,15.03z M29.85,22.73l0.01-0.05L30,22.7L29.85,22.73L29.85,22.73z M30.19,23.29L30.19,23.29l-0.03,0L30.19,23.29
			L30.19,23.29z M29.69,24.01l-0.02,0.02c-0.07,0.01-0.13,0.02-0.2,0.03l-0.02-0.02l0.01-0.04C29.54,24.01,29.62,24.01,29.69,24.01
			L29.69,24.01z M30,21.81c0.01-0.07,0.02-0.14,0.02-0.22c0.11-0.08,0.22-0.16,0.33-0.25c0.21,0,0.41,0,0.61-0.02l-0.02,0.09
			C30.62,21.59,30.3,21.72,30,21.81L30,21.81z M30.51,19.61c0.13,0.16,0.27,0.31,0.41,0.45c-0.18,0.21-0.37,0.39-0.56,0.56
			c-0.08,0-0.16-0.01-0.24-0.01C30.27,20.28,30.4,19.95,30.51,19.61L30.51,19.61z M29.24,16.07c-0.05-0.15-0.11-0.31-0.17-0.47
			c-0.03-0.17-0.04-0.35-0.06-0.53c0.08-0.05,0.17-0.1,0.25-0.15c0.26,0.01,0.53,0.02,0.8,0.05c0.02,0.32,0.02,0.65,0.01,0.99
			C29.81,16,29.53,16.03,29.24,16.07L29.24,16.07L29.24,16.07z M29.05,13.94c0.03-0.26,0.08-0.53,0.15-0.79l0.11,0.06
			c0.21,0.21,0.4,0.42,0.58,0.64c-0.09,0.06-0.18,0.12-0.27,0.18C29.43,14,29.24,13.97,29.05,13.94L29.05,13.94z M30.69,15.03
			c0.03,0.1,0.05,0.2,0.08,0.3c0,0.18-0.01,0.37-0.02,0.56l-0.16,0.02c0.01-0.3,0-0.6-0.01-0.88L30.69,15.03L30.69,15.03z
			 M31.19,17.88c0.01,0.17,0.02,0.34,0.03,0.5c0.02,0.41,0.02,0.82-0.01,1.22c-0.18-0.17-0.36-0.35-0.53-0.54
			c0.06-0.22,0.12-0.44,0.18-0.66c0.03-0.14,0.07-0.29,0.1-0.43C31.04,17.94,31.11,17.91,31.19,17.88L31.19,17.88z M29.93,17.69
			l0.02-0.13l-0.03-0.14c-0.02-0.09-0.05-0.19-0.09-0.29c0.06,0.01,0.12,0.02,0.18,0.03c-0.02,0.17-0.04,0.35-0.06,0.52L29.93,17.69
			L29.93,17.69z M28.29,13.82l-0.02-0.05c0.15-0.31,0.31-0.61,0.49-0.88l0.16,0.09c-0.07,0.31-0.12,0.61-0.16,0.91
			C28.6,13.87,28.45,13.85,28.29,13.82L28.29,13.82z M27.99,13.24l-0.06-0.12c0.11-0.18,0.23-0.34,0.35-0.5l0.04,0.03
			C28.2,12.83,28.09,13.03,27.99,13.24L27.99,13.24z M28.71,10.3c0.12,0.19,0.23,0.39,0.34,0.59c-0.3,0.13-0.61,0.27-0.91,0.42
			C28.31,10.94,28.51,10.6,28.71,10.3L28.71,10.3z M29.1,9.78l0.04-0.05c0.22,0.27,0.41,0.56,0.58,0.87l-0.14,0.06
			C29.44,10.36,29.28,10.06,29.1,9.78L29.1,9.78z M30.88,8.99c0.36,0.07,0.73,0.3,1.1,0.69c-0.38-0.23-0.76-0.46-1.15-0.67
			L30.88,8.99L30.88,8.99z M30.48,10.13c-0.09,0.06-0.18,0.12-0.27,0.21c-0.07-0.13-0.14-0.26-0.21-0.39
			C30.15,10.01,30.31,10.06,30.48,10.13L30.48,10.13z M31.5,18.31c-0.01-0.18-0.02-0.36-0.03-0.54l0.03-0.01
			c0.1,0.09,0.18,0.18,0.23,0.28c0.17,0.3,0.12,0.71-0.22,1.26C31.52,18.97,31.51,18.64,31.5,18.31L31.5,18.31z M31.38,17.02
			c-0.01-0.08-0.02-0.15-0.03-0.23c0.14-0.01,0.29-0.03,0.43-0.06c0.03,0.07,0.06,0.14,0.08,0.21c-0.12,0.06-0.23,0.11-0.34,0.16
			C31.48,17.07,31.43,17.04,31.38,17.02L31.38,17.02z M31.25,15.56c0.04,0.09,0.08,0.17,0.12,0.26l-0.14,0.01
			C31.24,15.74,31.25,15.65,31.25,15.56L31.25,15.56z M32.07,17.49c0.03,0.07,0.05,0.15,0.08,0.22c0.25,0.71,0.48,1.45,0.65,2.17
			c-0.08,0.13-0.18,0.26-0.3,0.39c-0.08,0.03-0.16,0.05-0.24,0.08c-0.04-0.02-0.09-0.05-0.13-0.07c-0.16-0.09-0.32-0.2-0.48-0.32
			c0.68-0.95,0.75-1.72,0.4-2.32c-0.02-0.04-0.04-0.07-0.07-0.11L32.07,17.49L32.07,17.49z M31.44,14.2c0,0.05,0.01,0.1,0.01,0.15
			l-0.22-0.04c0-0.07-0.01-0.13-0.01-0.2C31.29,14.13,31.37,14.17,31.44,14.2L31.44,14.2z M31.87,10.91
			c0.21,0.14,0.42,0.34,0.63,0.57c-0.57-0.03-1.17-0.02-1.8,0.03c-0.05-0.14-0.1-0.27-0.15-0.41C30.95,10.98,31.4,10.92,31.87,10.91
			L31.87,10.91z M31.44,13.39l0,0.03l-0.02-0.01L31.44,13.39L31.44,13.39z M30.52,12.77c-0.09-0.06-0.17-0.11-0.26-0.16
			c-0.03-0.14-0.07-0.29-0.11-0.43c0.07-0.01,0.14-0.02,0.21-0.03C30.42,12.36,30.48,12.56,30.52,12.77L30.52,12.77z M29.37,25.12
			c0.08-0.08,0.15-0.16,0.22-0.24c0.14,0.12,0.29,0.23,0.44,0.33C29.81,25.18,29.59,25.15,29.37,25.12L29.37,25.12z M30.65,23.28
			l0.03-0.06l0.07-0.01c0.22-0.04,0.63-0.13,1.17-0.27c0.2,0.02,0.39,0.04,0.58,0.06C31.9,23.14,31.28,23.24,30.65,23.28
			L30.65,23.28z M31.09,22.12l0.03-0.1c0.16-0.09,0.32-0.18,0.48-0.28c0.31-0.2,0.58-0.41,0.8-0.63c0.24,0.11,0.48,0.19,0.71,0.23
			c0.03,0.21,0.06,0.42,0.09,0.63c-0.36,0.1-0.7,0.2-1,0.28C31.83,22.21,31.47,22.17,31.09,22.12L31.09,22.12z M32.97,23.65
			c-0.44,0.53-0.94,1-1.48,1.36c-0.08,0.05-0.16,0.11-0.24,0.16c-0.42-0.14-0.81-0.35-1.17-0.61
			C31.07,24.37,32.04,24.05,32.97,23.65L32.97,23.65z M31.42,20.55l0.01-0.05l0.05,0.04L31.42,20.55L31.42,20.55z M25.39,14.12
			c0.16,0.09,0.33,0.18,0.49,0.28c-0.03,0.11-0.06,0.22-0.09,0.34c-0.17,0.07-0.32,0.16-0.46,0.25c-0.11-0.05-0.23-0.1-0.34-0.16
			c0.01-0.16,0.01-0.32-0.01-0.47c0.03-0.09,0.07-0.18,0.1-0.27L25.39,14.12L25.39,14.12z M25.56,15.83
			c-0.02,0.09-0.03,0.17-0.05,0.26c-0.17,0.06-0.33,0.11-0.5,0.16c0.02-0.06,0.04-0.12,0.07-0.17c0.07-0.12,0.16-0.23,0.28-0.33
			L25.56,15.83L25.56,15.83z M25.32,17.43l-0.01,0.07l-0.03-0.06L25.32,17.43L25.32,17.43z M25.22,18.42
			c-0.02,0.18-0.03,0.36-0.04,0.53c-0.07-0.2-0.14-0.4-0.2-0.6C25.06,18.37,25.14,18.4,25.22,18.42L25.22,18.42z M25.96,20.41
			c0.16-0.01,0.32-0.02,0.47-0.04c0.01,0.08,0.02,0.15,0.03,0.23c0.02,0.15,0.04,0.3,0.06,0.45C26.31,20.86,26.13,20.64,25.96,20.41
			L25.96,20.41z M32.31,16.66l0.03,0.04l-0.01,0L32.31,16.66L32.31,16.66z M32.64,17.19c0.17,0.3,0.31,0.61,0.39,0.93
			c-0.17-0.23-0.33-0.54-0.49-0.88L32.64,17.19L32.64,17.19z M33.39,18.39c-0.05-0.48-0.2-0.95-0.41-1.39
			c0.13-0.07,0.26-0.15,0.39-0.23l0.07,0.04c0.03,0.02,0.06,0.03,0.09,0.05l0.05,0.06c0.14,0.16,0.19,0.23,0.23,0.29
			c0.08,0.1,0.14,0.19,0.38,0.44l0.02,0.04c-0.13,0.37-0.21,0.74-0.26,1.12c-0.14-0.05-0.3-0.12-0.48-0.23
			c-0.02-0.01-0.04-0.03-0.06-0.04C33.4,18.48,33.4,18.44,33.39,18.39L33.39,18.39z M32.18,15.74c-0.09-0.11-0.17-0.21-0.26-0.32
			c-0.02-0.07-0.03-0.14-0.05-0.21l0.16,0.03c0.06,0.17,0.14,0.33,0.23,0.48l0,0L32.18,15.74L32.18,15.74z M31.74,14.4l0-0.02
			l0.03,0.02L31.74,14.4L31.74,14.4z M34.42,18.49c0.02,0.11,0.04,0.21,0.05,0.32c-0.04,0.02-0.08,0.03-0.12,0.04
			C34.37,18.73,34.39,18.61,34.42,18.49L34.42,18.49z M33.12,18.99c-0.02,0.15-0.05,0.3-0.1,0.45c-0.08-0.31-0.16-0.62-0.25-0.93
			C32.89,18.7,33.01,18.86,33.12,18.99L33.12,18.99z M33.17,20c0.11-0.26,0.18-0.52,0.21-0.78l0.01,0.01
			c0.19,0.12,0.36,0.2,0.51,0.25c0,0.04,0,0.08,0,0.12C33.68,19.74,33.43,19.88,33.17,20L33.17,20z M34.51,19.98
			c-0.01,0.09-0.02,0.19-0.03,0.28l0,0c0,0.02-0.01,0.05-0.01,0.08l-0.01,0.01c-0.03-0.09-0.05-0.19-0.07-0.28
			C34.43,20.04,34.47,20.01,34.51,19.98L34.51,19.98z M34.08,20.59c-0.23,0.09-0.49,0.12-0.77,0.1c0.24-0.11,0.47-0.24,0.7-0.37
			C34.03,20.41,34.05,20.5,34.08,20.59L34.08,20.59z M32.81,15.41c0.08,0.09,0.15,0.17,0.22,0.26l-0.18,0.01
			c-0.11-0.1-0.21-0.21-0.3-0.33C32.64,15.37,32.73,15.39,32.81,15.41L32.81,15.41z M34.8,19.88c0-0.04,0-0.08,0-0.12l0.07-0.06
			C34.85,19.77,34.82,19.83,34.8,19.88L34.8,19.88z M34.73,18.56c-0.02-0.15-0.05-0.3-0.08-0.46l0.1,0.09
			c0.02,0.05,0.04,0.11,0.06,0.16c-0.02,0.07-0.04,0.13-0.07,0.19L34.73,18.56L34.73,18.56z M32.14,13.72
			c0.02-0.17,0.05-0.35,0.11-0.54c0.26-0.11,0.55-0.23,0.86-0.31c0.01,0.04,0.02,0.09,0.04,0.13c0.11,0.39,0.3,0.78,0.55,1.17
			C33.18,14.06,32.66,13.9,32.14,13.72L32.14,13.72z M31.71,13.56c0-0.05,0.01-0.09,0.01-0.14c0.06-0.03,0.11-0.06,0.18-0.09
			c-0.02,0.09-0.03,0.19-0.04,0.28L31.71,13.56L31.71,13.56z M34.29,21.18c-0.05,0.17-0.11,0.35-0.17,0.52
			c-0.22,0.07-0.44,0.13-0.65,0.19c-0.02-0.17-0.04-0.34-0.07-0.51C33.73,21.39,34.03,21.33,34.29,21.18L34.29,21.18z M32.36,25.04
			c0.31-0.29,0.6-0.61,0.87-0.95c-0.04,0.3-0.1,0.57-0.19,0.81C32.81,24.95,32.59,25,32.36,25.04L32.36,25.04z M34.68,14.35
			c-0.01-0.31-0.06-0.6-0.15-0.86c-0.1-0.28-0.24-0.53-0.41-0.74c0.14,0.01,0.27,0.03,0.41,0.07l0.07,0.02
			c0.25,0.27,0.47,0.56,0.68,0.87c-0.14,0.12-0.28,0.26-0.39,0.41c-0.06,0.07-0.11,0.15-0.16,0.24L34.68,14.35L34.68,14.35z
			 M35.76,16.83c-0.09-0.01-0.18-0.02-0.28-0.04l0-0.04C35.59,16.76,35.68,16.79,35.76,16.83L35.76,16.83z M37.46,9.1l0.01,0.07
			c-0.37,0.03-0.71,0.06-1.03,0.11C36,9.21,35.55,9.17,35.1,9.16c0.23-0.53,0.35-1.04,0.31-1.49c0-0.02,0-0.04-0.01-0.07
			C36.14,8.05,36.83,8.55,37.46,9.1L37.46,9.1z M38.42,9.85c0.46-0.01,0.96,0.01,1.49,0.04c0,0.05-0.01,0.11-0.02,0.16
			c-0.27,0.03-0.54,0.07-0.79,0.12C38.88,10.05,38.65,9.94,38.42,9.85L38.42,9.85z M40.4,10.01l0.01-0.09
			c0.66,0.05,1.37,0.13,2.15,0.23l-0.1,0.02C41.77,10.05,41.07,9.99,40.4,10.01L40.4,10.01z M47.08,10.87
			c1.92-0.13,3.93,0.78,5.1,3.7c-0.46,0.19-0.89,0.36-1.31,0.51c-0.08-0.01-0.16-0.02-0.24-0.03c-0.02-0.37-0.27-0.76-0.71-1.13
			c-0.5-0.43-1.29-0.87-2.24-1.26c0-0.06-0.01-0.11-0.02-0.17C47.61,11.86,47.42,11.31,47.08,10.87L47.08,10.87z M49.28,14.83
			c0.04,0.04,0.08,0.07,0.12,0.11l-0.07,0C49.31,14.91,49.3,14.87,49.28,14.83L49.28,14.83z M50.15,16.09l0.06-0.02l0.03,0.05
			c0.32,0.68,0.44,1.42,0.36,2.14c-0.11,0.01-0.22,0.02-0.34,0.03C50.45,17.37,50.4,16.65,50.15,16.09L50.15,16.09z M51.09,18.22
			c0.07-0.78-0.06-1.58-0.38-2.33l0.2-0.07c0.61,0.1,1.2,0.24,1.73,0.42c0.1,0.86-0.08,1.49-0.48,1.94
			C52,18.18,51.61,18.18,51.09,18.22L51.09,18.22z M52.37,18.84c0.57-0.55,0.87-1.33,0.8-2.39c0.53,0.24,0.99,0.53,1.34,0.89
			c0.37,0.38,0.6,0.84,0.64,1.4c-0.79,0.44-1.75,0.77-2.84,0.93C52.34,19.41,52.36,19.13,52.37,18.84L52.37,18.84z M52.15,20.41
			c1.11-0.14,2.09-0.45,2.92-0.87c-0.06,0.28-0.17,0.57-0.32,0.88l0,0l0,0.01c-0.33,0.69-0.84,1.22-1.49,1.62
			c-0.36-0.33-0.81-0.67-1.34-1.01C52.01,20.85,52.09,20.64,52.15,20.41L52.15,20.41z M51.61,21.63c0.4,0.25,0.75,0.5,1.04,0.74
			c-0.86,0.38-1.89,0.58-3.03,0.62C50.41,22.79,51.11,22.38,51.61,21.63L51.61,21.63z M47.71,23.65c2.1,0.19,4.02-0.02,5.45-0.78
			c0.57,0.66,0.6,1.24-0.09,1.7c-1.13,0.73-3.62,1.28-7.9,1.51C46.03,25.61,46.88,24.83,47.71,23.65L47.71,23.65z M41.49,26.16
			c-0.54-0.01-1.14-0.03-1.79-0.06c0.24-0.2,0.48-0.42,0.71-0.64C40.75,25.75,41.11,25.98,41.49,26.16L41.49,26.16z M4.3,19.44
			c-0.03,0.4,0.08,0.77,0.27,1.1c0.18,0.3,0.43,0.56,0.72,0.78c-0.24-0.01-0.48-0.03-0.72-0.07c-1.7-0.27-3.16-1.36-3.28-4.29
			c0.43,0.01,1.25,0.05,2.21,0.16c0.02,0.05,0.04,0.11,0.05,0.16C3.53,17.51,3.54,17.75,3.59,18C3.68,18.47,3.93,18.97,4.3,19.44
			L4.3,19.44z M3.98,16.42c-0.07-0.53-0.01-0.96,0.22-1.22l0.01-0.01c0.07,0.3,0.18,0.59,0.32,0.89c-0.14,0.05-0.26,0.12-0.36,0.19
			C4.09,16.32,4.03,16.37,3.98,16.42L3.98,16.42z M20.59,7.42c-0.67,0.13-1.28,0.28-1.83,0.46c-0.21-0.15-0.44-0.29-0.67-0.41
			c-0.06-0.03-0.11-0.06-0.17-0.09c0.41-0.09,0.84-0.18,1.29-0.25c0.64-0.11,1.27-0.16,1.9-0.18C20.93,7.11,20.76,7.26,20.59,7.42
			L20.59,7.42z M22.9,5.83c-0.39-0.06-0.79-0.1-1.18-0.11c-0.33-0.62-0.5-1.19-0.46-1.66c0.02-0.19,0.06-0.36,0.15-0.52
			c0.69-0.37,1.4-0.7,2.14-0.98c-0.19,0.35-0.27,0.75-0.24,1.18l0.01,0.19l0.12,0.09C23.9,4.37,24.44,4.7,25.02,5
			C24.24,5.18,23.53,5.45,22.9,5.83L22.9,5.83z M26.21,4.8c-0.91-0.38-1.73-0.83-2.43-1.33C23.8,3.08,24,2.74,24.33,2.44
			c1.06-0.03,2.43,0.09,4.15,0.4c3.81,0.68,6.28,2.06,7.68,3.7c-0.42,0.02-0.85,0.02-1.3,0.01c-0.37-0.34-0.95-0.58-1.75-0.7
			c-0.35-0.14-0.71-0.26-1.07-0.38c-0.53-0.31-1.21-0.54-1.99-0.67c-1.03-0.18-2.22-0.19-3.45-0.04C26.47,4.78,26.34,4.79,26.21,4.8
			L26.21,4.8z M35.93,7.27c0.25-0.01,0.5-0.02,0.75-0.03c0.17,0.26,0.31,0.52,0.43,0.78c0.02,0.04,0.04,0.08,0.05,0.12
			C36.77,7.83,36.36,7.54,35.93,7.27L35.93,7.27z M37.91,8.79c-0.09-0.39-0.22-0.78-0.39-1.16c-0.07-0.15-0.14-0.29-0.21-0.43
			c0.39-0.04,0.75-0.09,1.1-0.15L38.66,7l-0.05-0.38c-0.1-0.76-0.3-1.45-0.59-2.07c-0.05-0.11-0.11-0.23-0.17-0.34
			c1.28,1.23,2.1,2.87,2.1,4.96c-0.61-0.03-1.17-0.05-1.68-0.03C38.15,9.02,38.03,8.9,37.91,8.79L37.91,8.79z M31,5.81
			c-0.36,0.02-0.75,0.07-1.16,0.12c-0.73-0.16-1.44-0.35-2.12-0.57C28.78,5.38,29.89,5.54,31,5.81L31,5.81z M22.01,7.2L22.01,7.2
			L22.01,7.2L22.01,7.2L22.01,7.2z M23.53,8.09c-0.09-0.09-0.18-0.19-0.26-0.28c0.25-0.02,0.5-0.03,0.76-0.04
			C23.86,7.87,23.69,7.98,23.53,8.09L23.53,8.09z M25.28,7.76c0.46,0.03,0.88,0.11,1.28,0.23c0.25,0.17,0.49,0.36,0.72,0.57
			c-1.14-0.17-2.25-0.21-3.24-0.14C24.42,8.19,24.83,7.97,25.28,7.76L25.28,7.76z M21.09,15.32l0.01-0.07
			c0.05,0.03,0.09,0.06,0.14,0.09C21.2,15.33,21.14,15.32,21.09,15.32L21.09,15.32z M20.95,16.16c0.02-0.08,0.03-0.16,0.04-0.24
			c0.08,0,0.15,0.01,0.23,0.02L20.95,16.16L20.95,16.16z M21.48,16.43c0.11-0.09,0.22-0.18,0.33-0.26l0.01,0.01
			c0.04,0.12,0.07,0.24,0.1,0.36C21.76,16.51,21.62,16.47,21.48,16.43L21.48,16.43z M26.94,16.33l0.17,0.05l0,0.03l-0.18,0.03
			L26.94,16.33L26.94,16.33z M22.82,17.21l0.07,0.05l-0.25,0.06l0.01-0.01c0.02-0.03,0.04-0.07,0.06-0.1
			C22.75,17.21,22.79,17.21,22.82,17.21L22.82,17.21z M19.38,15.35c-0.09-0.03-0.19-0.05-0.29-0.07c0-0.2,0-0.41-0.01-0.61
			C19.17,14.91,19.27,15.14,19.38,15.35L19.38,15.35z M31.07,12.98c-0.05-0.3-0.12-0.59-0.19-0.87c0.43-0.03,0.86-0.04,1.26-0.03
			C31.81,12.38,31.45,12.69,31.07,12.98L31.07,12.98z M30.1,11.4c0.02,0.05,0.04,0.11,0.06,0.16c-0.07,0.01-0.14,0.02-0.2,0.03
			l-0.02-0.06C30,11.49,30.05,11.45,30.1,11.4L30.1,11.4z M33.82,10.32c-0.02,0.02-0.04,0.04-0.06,0.06
			c-0.18-0.02-0.37-0.03-0.57-0.04c0.23-0.03,0.45-0.05,0.68-0.07L33.82,10.32L33.82,10.32z M34.75,10.5
			c0.19-0.09,0.4-0.18,0.64-0.25c0.44,0.02,0.89,0.07,1.34,0.14c0.28,0.05,0.56,0.1,0.82,0.16c-0.01,0.07-0.01,0.14-0.02,0.22
			c-0.14,0.08-0.28,0.17-0.42,0.27C36.43,10.8,35.64,10.62,34.75,10.5L34.75,10.5z M35.85,12.37c-0.6-0.46-1.21-0.91-1.83-1.34
			c0.97,0.1,1.81,0.25,2.54,0.45C36.29,11.74,36.06,12.03,35.85,12.37L35.85,12.37z M23.61,14.09c-0.09-0.05-0.17-0.1-0.26-0.15
			c0.14,0.01,0.28,0.02,0.42,0.03L23.61,14.09L23.61,14.09z M23.63,13.32c-0.45-0.03-0.9-0.05-1.33-0.07
			c-0.22-0.15-0.44-0.31-0.65-0.47C22.51,12.87,23.16,13.06,23.63,13.32L23.63,13.32z M26.94,18.07c-0.02-0.31-0.04-0.62-0.03-0.92
			l0.16-0.02c-0.01,0.31-0.01,0.62,0,0.95C27.02,18.08,26.98,18.07,26.94,18.07L26.94,18.07z M30.48,17.51
			c0.01-0.08,0.02-0.17,0.03-0.25l0.08,0.02c-0.01,0.07-0.02,0.14-0.04,0.2L30.48,17.51L30.48,17.51z M28.76,22.9l0.02-0.02
			L28.76,22.9L28.76,22.9L28.76,22.9L28.76,22.9z M30.4,18.17l-0.01,0.05L30.4,18.17L30.4,18.17L30.4,18.17z M27.09,18.69
			c0.02,0.26,0.05,0.53,0.08,0.8l-0.04-0.03c-0.05-0.26-0.1-0.51-0.13-0.77L27.09,18.69L27.09,18.69z M35.58,15.12l0.12,0
			c0.02,0.04,0.04,0.08,0.07,0.12l0.01,0.01l-0.26-0.06L35.58,15.12L35.58,15.12z M37.55,13.71l-0.1-0.08c0.05,0,0.1-0.01,0.14-0.01
			C37.58,13.65,37.56,13.68,37.55,13.71L37.55,13.71z M38.01,12.89c-0.2,0-0.4,0.01-0.59,0.03c0.27-0.17,0.56-0.31,0.88-0.43
			C38.2,12.62,38.1,12.75,38.01,12.89L38.01,12.89z M37.87,11.94c-0.04,0.02-0.07,0.03-0.11,0.05l0.01-0.04l0.01-0.04L37.87,11.94
			L37.87,11.94z M37.31,11.72c-0.08,0.23-0.17,0.47-0.28,0.69c-0.19,0.14-0.37,0.29-0.54,0.45l-0.24-0.19
			c0.26-0.4,0.57-0.73,0.92-1.01L37.31,11.72L37.31,11.72z M21.98,21.05l0.06-0.04l0.38,0.12c-0.03,0.05-0.06,0.1-0.09,0.15
			c-0.12-0.06-0.23-0.12-0.35-0.19L21.98,21.05L21.98,21.05z M23.48,18L23.48,18L23.48,18L23.48,18L23.48,18z M23.84,18.68
			l0.08,0.02c-0.03,0.03-0.06,0.07-0.11,0.12C23.82,18.77,23.83,18.72,23.84,18.68L23.84,18.68z M20.27,18.72
			c0.02-0.07,0.05-0.13,0.07-0.2c0.41-0.11,0.82-0.22,1.23-0.32C21.15,18.42,20.71,18.6,20.27,18.72L20.27,18.72z M14.07,13.77
			c0.19,0.05,0.37,0.12,0.55,0.19c0.02,0.07,0.04,0.14,0.06,0.2c-0.21,0.1-0.41,0.2-0.59,0.31c-0.09-0.13-0.15-0.26-0.16-0.38
			C13.92,13.98,13.96,13.87,14.07,13.77L14.07,13.77z M20.81,17.78l-0.26,0.07l0.03-0.09C20.66,17.77,20.73,17.77,20.81,17.78
			L20.81,17.78z M14.96,14.98l0.02,0.04l-0.15,0.01l-0.04,0L14.96,14.98L14.96,14.98z M8.29,18.78L8.29,18.78
			C8.41,18.89,8.5,19,8.58,19.12c-0.09-0.05-0.18-0.1-0.26-0.15C8.31,18.9,8.3,18.84,8.29,18.78L8.29,18.78z M9.94,21.19l0.01-0.04
			l0.01,0.04H9.94L9.94,21.19z M14.87,19.58c0.01-0.11,0.01-0.23,0.01-0.34c0.07,0.09,0.13,0.18,0.2,0.27L14.87,19.58L14.87,19.58z
			 M16.63,21.31c0.07,0.07,0.13,0.14,0.2,0.21l-0.07,0.12c-0.02-0.03-0.03-0.06-0.04-0.09C16.68,21.47,16.65,21.39,16.63,21.31
			L16.63,21.31z M17.5,22.43c0.07,0,0.15-0.01,0.22-0.02l-0.15,0.06L17.5,22.43L17.5,22.43z M6.81,21.25l-0.1,0.01
			c-0.07-0.02-0.13-0.04-0.2-0.06c-0.04-0.04-0.08-0.09-0.11-0.13C6.53,21.13,6.66,21.19,6.81,21.25L6.81,21.25z M36.57,20.88
			l-0.02-0.03c0.07-0.05,0.14-0.11,0.2-0.19c0.13-0.16,0.22-0.38,0.26-0.65c0-0.03,0.01-0.06,0.01-0.09l0.16,0.1
			c0.01,0.06,0.03,0.12,0.05,0.18C37.06,20.41,36.84,20.64,36.57,20.88L36.57,20.88L36.57,20.88z M35.93,19.16
			c0.2,0.15,0.41,0.3,0.63,0.44c-0.01,0.08-0.02,0.17-0.03,0.25c-0.01,0.11-0.05,0.19-0.1,0.25c-0.03,0.04-0.06,0.06-0.1,0.09
			c-0.06-0.1-0.12-0.2-0.17-0.29C36.08,19.67,36,19.42,35.93,19.16L35.93,19.16z M35.9,22.21c0.22-0.15,0.42-0.3,0.6-0.45
			c0.15,0.25,0.3,0.47,0.45,0.66c-0.2,0.01-0.4,0.02-0.62,0.02C36.18,22.37,36.03,22.29,35.9,22.21L35.9,22.21z M38.23,19.36
			c0.07-0.3,0.07-0.58,0.03-0.87c0.3-0.09,0.59-0.17,0.88-0.24C38.87,18.63,38.57,19,38.23,19.36L38.23,19.36z M39.83,17.1
			c-0.86-0.06-1.73-0.32-2.55-0.71l0.01-0.06c0.87,0.22,1.74,0.45,2.58,0.69L39.83,17.1L39.83,17.1z M37.25,17.6
			c0.11,0.12,0.2,0.25,0.28,0.38l-0.25,0.08C37.27,17.9,37.26,17.75,37.25,17.6L37.25,17.6z M39.82,18.09
			c0.52-0.12,1.01-0.21,1.47-0.28l0.17,0.08c-0.11,0.14-0.21,0.29-0.31,0.44c-0.14,0.22-0.26,0.45-0.37,0.69
			c-0.5,0.31-1.13,0.62-1.84,0.93c-0.12-0.07-0.25-0.14-0.37-0.21C39.07,19.21,39.49,18.65,39.82,18.09L39.82,18.09z M40.25,15.98
			c-0.18-0.16-0.36-0.31-0.54-0.46c0.21-0.05,0.42-0.1,0.64-0.15C40.33,15.56,40.29,15.77,40.25,15.98L40.25,15.98z M40.32,14.64
			c-0.44,0.12-0.87,0.22-1.28,0.3c-0.19-0.16-0.38-0.32-0.58-0.48c0.54-0.15,1.12-0.25,1.75-0.28
			C40.26,14.33,40.29,14.48,40.32,14.64L40.32,14.64z M37.62,14.76c0.04-0.02,0.09-0.04,0.13-0.06l0.08,0.07
			c0.02,0.11,0.06,0.21,0.11,0.32c-0.15,0.01-0.3,0.02-0.44,0.02C37.54,15,37.58,14.88,37.62,14.76L37.62,14.76L37.62,14.76z
			 M38.15,15.76c0.08-0.01,0.15-0.01,0.23-0.02l0.06,0.07C38.34,15.79,38.24,15.77,38.15,15.76L38.15,15.76z M39.12,12.69
			c-0.05,0.09-0.11,0.17-0.17,0.26c-0.11-0.01-0.22-0.02-0.33-0.03c0.1-0.12,0.21-0.25,0.32-0.36C39,12.59,39.06,12.64,39.12,12.69
			L39.12,12.69z M38.13,13.6l0.11,0c-0.06,0.05-0.11,0.1-0.15,0.16l-0.07,0.04C38.06,13.74,38.1,13.67,38.13,13.6L38.13,13.6z
			 M41.41,13.59c-0.19-0.08-0.4-0.16-0.6-0.23c0.23-0.03,0.47-0.05,0.73-0.06l0.04,0.08c0.04,0.08,0.07,0.16,0.1,0.24
			C41.59,13.61,41.5,13.6,41.41,13.59L41.41,13.59z M41.16,12.65c-0.43,0.05-0.81,0.11-1.15,0.19c-0.07-0.09-0.14-0.17-0.22-0.26
			c0.07-0.15,0.13-0.3,0.18-0.47c0.23-0.03,0.47-0.04,0.72-0.05C40.86,12.25,41.02,12.45,41.16,12.65L41.16,12.65z M40.67,14.17
			c0.13,0,0.26,0.01,0.4,0.01c0.11,0.04,0.22,0.09,0.33,0.13c-0.22,0.07-0.44,0.14-0.66,0.21C40.72,14.4,40.7,14.28,40.67,14.17
			L40.67,14.17z M40.78,15.24c0.25-0.07,0.49-0.15,0.74-0.23l0.07-0.02c0.07,0.28,0.21,0.54,0.42,0.78
			c-0.02,0.33-0.07,0.67-0.16,1.02c-0.04,0.02-0.08,0.03-0.12,0.05c-0.22-0.07-0.43-0.13-0.65-0.2l-0.05-0.01l-0.09-0.05l-0.32-0.28
			C40.71,15.94,40.76,15.59,40.78,15.24L40.78,15.24z M37.93,11.34c0.01-0.05,0.02-0.1,0.03-0.15c0.27-0.13,0.56-0.23,0.85-0.32
			c0.27,0.08,0.53,0.17,0.77,0.26c0.04,0.03,0.08,0.05,0.11,0.08l-0.01,0.02c-0.15,0.1-0.29,0.2-0.42,0.3
			c-0.22,0.04-0.44,0.09-0.66,0.15C38.41,11.56,38.18,11.44,37.93,11.34L37.93,11.34z M38.03,22.34c-0.12,0.01-0.24,0.02-0.37,0.03
			c-0.28-0.24-0.54-0.55-0.79-0.94l0.04-0.04c0.21-0.08,0.42-0.15,0.62-0.23c0.13,0.36,0.27,0.71,0.43,1.05
			C37.99,22.26,38.01,22.3,38.03,22.34L38.03,22.34z M37.97,23.46c0.1,0.01,0.21,0.02,0.32,0.02c-0.18,0.06-0.36,0.12-0.54,0.19
			C37.82,23.6,37.89,23.53,37.97,23.46L37.97,23.46z M36.42,24.7c0.89-0.25,1.73-0.53,2.51-0.83c0.33,0.46,0.69,0.88,1.07,1.25
			c-0.36,0.34-0.74,0.65-1.13,0.95c-1.34-0.07-2.86-0.19-4.47-0.34C35.05,25.51,35.72,25.17,36.42,24.7L36.42,24.7z M38.49,22.21
			c-0.06-0.11-0.12-0.23-0.17-0.35c-0.13-0.28-0.25-0.56-0.36-0.86c0.19-0.08,0.38-0.15,0.57-0.23c0.28,0.15,0.57,0.3,0.87,0.44
			C39.11,21.54,38.81,21.87,38.49,22.21L38.49,22.21z M39.97,20.49c-0.12-0.06-0.25-0.12-0.37-0.19c0.28-0.13,0.55-0.27,0.8-0.41
			C40.27,20.09,40.12,20.29,39.97,20.49L39.97,20.49z M42.3,13.71c0.08-0.15,0.18-0.3,0.29-0.46c0.09,0,0.18,0,0.28-0.01
			c0.11,0.13,0.22,0.26,0.31,0.39c-0.13,0.06-0.26,0.11-0.39,0.17C42.62,13.77,42.46,13.73,42.3,13.71L42.3,13.71z M42.17,12.57
			c-0.16,0.01-0.32,0.02-0.47,0.03c-0.11-0.19-0.23-0.37-0.36-0.54l0.14,0C41.73,12.22,41.96,12.39,42.17,12.57L42.17,12.57z
			 M42.42,14.89c0.31,0.23,0.53,0.48,0.62,0.73c0.01,0.03,0.01,0.05,0.02,0.08c-0.25-0.1-0.45-0.23-0.61-0.37
			C42.44,15.18,42.43,15.04,42.42,14.89L42.42,14.89z M42.4,16.11c0.09,0.06,0.19,0.12,0.3,0.17l-0.03,0.03
			c-0.11,0.08-0.22,0.16-0.33,0.22C42.37,16.39,42.39,16.25,42.4,16.11L42.4,16.11z M43.76,15.91c-0.07-0.01-0.13-0.03-0.2-0.05
			c0.01-0.19-0.02-0.38-0.09-0.57c-0.1-0.27-0.3-0.54-0.58-0.8l0.07-0.03c0.26,0.06,0.54,0.14,0.81,0.22
			c0.14,0.33,0.25,0.68,0.32,1.03C43.98,15.78,43.87,15.84,43.76,15.91L43.76,15.91z M41.31,19.33c0.39-0.28,0.68-0.57,0.83-0.85
			l0.45,0.4l0.26,0.23c0,0,0.02,0.08,0.03,0.24c0.02,0.22,0,0.52-0.15,0.84c-0.16,0.35-0.46,0.73-1,1.08
			c-0.29-0.11-0.59-0.23-0.9-0.36c-0.01-0.33,0.02-0.65,0.1-0.96C41.08,19.74,41.2,19.53,41.31,19.33L41.31,19.33z M43.07,20.75
			c0.03-0.05,0.06-0.11,0.08-0.16c0.23-0.5,0.27-0.99,0.23-1.35c-0.02-0.25-0.09-0.45-0.16-0.59c0.17,0.07,0.35,0.13,0.53,0.19
			l0.18,0.06c-0.15,0.58-0.36,1.16-0.63,1.73l-0.13,0.07C43.14,20.72,43.1,20.74,43.07,20.75L43.07,20.75z M44.17,17.62l-0.05-0.02
			c-0.05-0.05-0.1-0.1-0.13-0.14l0.2-0.02C44.18,17.5,44.18,17.56,44.17,17.62L44.17,17.62z M44.2,16.71l-0.21,0.02
			c0.02-0.02,0.04-0.04,0.05-0.06c0.05,0.01,0.1,0.02,0.15,0.02L44.2,16.71L44.2,16.71z M39.86,21.44c0.22,0.1,0.43,0.2,0.65,0.29
			c0.01,0.03,0.02,0.07,0.03,0.1c-0.38,0.13-0.81,0.25-1.31,0.34C39.46,21.93,39.67,21.68,39.86,21.44L39.86,21.44z M39.7,22.8
			c0.23-0.05,0.44-0.11,0.65-0.17c-0.07,0.04-0.15,0.07-0.22,0.1C39.97,22.76,39.83,22.78,39.7,22.8L39.7,22.8z M40.39,24.75
			c-0.35-0.31-0.68-0.66-0.98-1.06c0.58,0,1.17-0.16,1.77-0.44c0.07,0.1,0.14,0.21,0.21,0.31l0.03,0.04
			C41.1,24,40.76,24.39,40.39,24.75L40.39,24.75z M41.76,24c1.64,1.78,3.68,1.11,5.33-0.39l0.03-0.02l0.02,0
			c-1.64,2.13-3.36,2.68-4.89,2.23c-0.5-0.15-0.99-0.4-1.45-0.73C41.14,24.74,41.46,24.38,41.76,24L41.76,24z M41.75,23.2
			c-0.02-0.03-0.05-0.06-0.07-0.09c-0.02-0.03-0.04-0.06-0.06-0.09l0.01-0.01c0.11-0.03,0.22-0.06,0.33-0.1
			C41.89,23.01,41.82,23.11,41.75,23.2L41.75,23.2z M44.6,17.5c0-0.04,0.01-0.08,0.01-0.12c0.47-0.06,0.96-0.13,1.47-0.22
			c-0.15,0.3-0.32,0.59-0.49,0.88l-0.04,0.06c-0.32-0.12-0.64-0.23-0.97-0.35C44.59,17.68,44.6,17.59,44.6,17.5L44.6,17.5z
			 M44.35,19.04c0.17,0.05,0.33,0.1,0.5,0.15c-0.26,0.36-0.53,0.71-0.82,1.05l-0.08,0.05C44.11,19.87,44.24,19.45,44.35,19.04
			L44.35,19.04z M46.5,16.01c-0.42,0.03-0.8,0.05-1.15,0.04c0.29-0.08,0.61-0.15,0.95-0.21C46.37,15.9,46.43,15.95,46.5,16.01
			L46.5,16.01z M43.41,21.76l-0.1-0.02c0.32-0.3,0.63-0.63,0.93-0.97c0.13-0.08,0.27-0.16,0.42-0.26c-0.07,0.26-0.12,0.52-0.14,0.77
			l-0.03,0.01C44.12,21.47,43.76,21.62,43.41,21.76L43.41,21.76z M42.73,22.66l0.14-0.05c0.84,0.27,1.69,0.5,2.53,0.68
			c0.34,0.07,0.67,0.13,1,0.19c-1.39,1.08-3,1.45-4.31,0.11C42.31,23.28,42.52,22.98,42.73,22.66L42.73,22.66z M44.52,21.96
			l-0.05-0.01l0.05-0.02L44.52,21.96L44.52,21.96z M40.3,10.77c0.01-0.05,0.02-0.1,0.02-0.14c0.18-0.01,0.37-0.01,0.55-0.01
			c-0.16,0.06-0.31,0.13-0.46,0.2L40.3,10.77L40.3,10.77z M41.1,11.17c0.28-0.1,0.58-0.19,0.9-0.27l0.47-0.11
			c0.5,0.1,1,0.23,1.5,0.4c-0.17,0.11-0.34,0.22-0.49,0.34c-0.68-0.1-1.37-0.16-2.04-0.17C41.32,11.29,41.21,11.23,41.1,11.17
			L41.1,11.17z M42.47,12.12c0.09,0.01,0.19,0.02,0.28,0.03c-0.04,0.04-0.08,0.08-0.11,0.12C42.58,12.22,42.53,12.17,42.47,12.12
			L42.47,12.12z M43.5,13.24c0.17,0,0.33,0,0.51,0c-0.12,0.06-0.25,0.12-0.38,0.19C43.59,13.37,43.55,13.3,43.5,13.24L43.5,13.24z
			 M43.96,14c0.44-0.23,0.85-0.47,1.2-0.72c0.78,0.04,1.48,0.18,2.09,0.38c-0.04,0.35-0.11,0.72-0.22,1.11
			c-0.35,0.04-0.71,0.11-1.07,0.21c-0.34-0.2-0.74-0.39-1.2-0.57c-0.25-0.09-0.49-0.18-0.72-0.26C44.01,14.1,43.99,14.05,43.96,14
			L43.96,14z M45.79,12l-0.01,0.02c-0.44-0.12-0.89-0.23-1.35-0.32c0.12-0.07,0.24-0.13,0.36-0.19C45.13,11.66,45.46,11.82,45.79,12
			L45.79,12z M44.32,14.87c0.11,0.04,0.22,0.08,0.33,0.12c0.19,0.07,0.37,0.15,0.54,0.22c-0.23,0.09-0.47,0.19-0.7,0.3
			C44.44,15.3,44.39,15.09,44.32,14.87L44.32,14.87z M37.07,15.11c-0.04,0-0.07-0.01-0.1-0.01c0.04-0.02,0.08-0.05,0.12-0.07
			L37.07,15.11L37.07,15.11z M46.41,18.43l-0.15-0.06c0.22-0.27,0.44-0.51,0.67-0.7C46.81,17.93,46.63,18.18,46.41,18.43
			L46.41,18.43z M47.46,17.43c0.01-0.04,0.01-0.08,0.02-0.12c0.03-0.01,0.06-0.03,0.09-0.04c0.68-0.25,1.18-0.31,1.52-0.22
			c-0.12,0.52-0.39,1.06-0.82,1.59c-0.26,0.06-0.51,0.14-0.75,0.22l-0.01,0c-0.2-0.08-0.41-0.16-0.62-0.25
			C47.18,18.24,47.39,17.84,47.46,17.43L47.46,17.43z M46.06,19.49l0.11,0.02c-0.15,0.1-0.28,0.21-0.4,0.33
			c-0.32,0.32-0.54,0.69-0.62,1.13c-0.06,0.03-0.12,0.06-0.18,0.09c0.06-0.3,0.15-0.62,0.28-0.94
			C45.52,19.92,45.8,19.71,46.06,19.49L46.06,19.49z M46.65,17.05l0.24-0.05c-0.12,0.09-0.25,0.2-0.37,0.32
			C46.56,17.23,46.61,17.14,46.65,17.05L46.65,17.05z M47.11,15.94c0.03-0.07,0.05-0.15,0.08-0.22c0.36-0.04,0.73-0.06,1.11-0.07
			c0.26-0.01,0.51-0.01,0.77,0l0.02,0.01c-0.24,0.06-0.52,0.11-0.85,0.15l-0.75,0.09C47.36,15.92,47.24,15.94,47.11,15.94
			L47.11,15.94L47.11,15.94z M49.09,16.43l0.08-0.03l0,0.05C49.15,16.45,49.12,16.44,49.09,16.43L49.09,16.43z M45.76,20.64
			c0.07-0.1,0.15-0.2,0.24-0.29c0.23-0.23,0.54-0.43,0.89-0.6l0.15,0.05C46.67,20.08,46.24,20.36,45.76,20.64L45.76,20.64z
			 M49.59,16.28l0.1-0.03c0.14,0.23,0.22,0.51,0.24,0.85c-0.05-0.11-0.12-0.21-0.19-0.29c-0.05-0.06-0.1-0.11-0.16-0.15
			C49.59,16.52,49.6,16.4,49.59,16.28L49.59,16.28z M49.48,17.28L49.48,17.28c0.21,0.24,0.26,0.62,0.19,1.09
			c-0.23,0.03-0.46,0.07-0.7,0.12C49.22,18.08,49.38,17.68,49.48,17.28L49.48,17.28z M47.65,20c0.45,0.13,0.9,0.23,1.33,0.31
			l-0.01,0.03c-0.36-0.11-0.61-0.01-0.78,0.25c-0.16,0.23-0.23,0.58-0.25,0.99c-0.64,0.27-1.4,0.42-2.26,0.44
			c-0.06-0.16-0.1-0.3-0.12-0.44c-0.01-0.05-0.01-0.11-0.02-0.16C46.39,20.96,47.09,20.48,47.65,20L47.65,20z M49.48,19.13
			c-0.21,0.01-0.43,0.01-0.65,0.01c0.23-0.05,0.46-0.09,0.69-0.12C49.51,19.05,49.49,19.09,49.48,19.13L49.48,19.13z M45.14,21.63
			c0,0.03,0.01,0.06,0.01,0.08c0.02,0.1,0.04,0.19,0.06,0.29c-0.1-0.03-0.18-0.05-0.27-0.08c-0.01-0.06-0.02-0.12-0.02-0.19
			C44.99,21.7,45.06,21.66,45.14,21.63L45.14,21.63z M48.82,14.91c-0.4-0.14-0.85-0.19-1.34-0.18c0.08-0.32,0.13-0.63,0.17-0.93
			c0.25,0.1,0.49,0.22,0.71,0.35C48.54,14.4,48.69,14.65,48.82,14.91L48.82,14.91z M45.51,11.2c0.12-0.04,0.23-0.08,0.35-0.11
			c0.13,0.12,0.18,0.25,0.17,0.38l0,0.01C45.86,11.39,45.69,11.29,45.51,11.2L45.51,11.2z M46.49,11.76
			c0.02-0.07,0.03-0.14,0.04-0.21c0.01-0.2-0.02-0.4-0.11-0.58c0.43,0.31,0.68,0.76,0.8,1.31C46.98,12.09,46.74,11.92,46.49,11.76
			L46.49,11.76z M44.41,10.48c0.23,0.06,0.43,0.11,0.6,0.17c-0.12,0.05-0.25,0.11-0.37,0.17c-0.26-0.11-0.53-0.2-0.8-0.29
			C44.05,10.5,44.24,10.48,44.41,10.48L44.41,10.48z M49.45,20.47l0.08,0.04c-0.05,0.05-0.11,0.11-0.16,0.16l0-0.01L49.45,20.47
			L49.45,20.47z M49.32,21.54c0.29-0.23,0.55-0.49,0.77-0.77c0.39,0.2,0.75,0.39,1.08,0.59c-0.51,0.65-1.23,0.98-2,1.1
			c-0.2,0.03-0.4,0.05-0.61,0.06c0.25-0.19,0.46-0.41,0.61-0.67C49.23,21.76,49.28,21.65,49.32,21.54L49.32,21.54z M51.52,20.8
			c-0.18-0.11-0.36-0.21-0.55-0.32c0.24,0,0.47-0.01,0.69-0.03C51.62,20.57,51.57,20.69,51.52,20.8L51.52,20.8z M51.86,19.72
			c-0.37,0.03-0.76,0.05-1.16,0.04l0.04-0.08c0.45-0.11,0.86-0.27,1.2-0.48C51.91,19.38,51.89,19.55,51.86,19.72L51.86,19.72z
			 M51.11,18.84c-0.04,0.01-0.08,0.03-0.12,0.04l0.01-0.04L51.11,18.84L51.11,18.84z M50.46,18.89c-0.01,0.04-0.03,0.09-0.04,0.13
			c-0.13,0.02-0.26,0.04-0.39,0.06c0.02-0.05,0.03-0.1,0.05-0.15C50.21,18.92,50.34,18.9,50.46,18.89L50.46,18.89z M48.39,21.3
			c0.02-0.12,0.05-0.22,0.1-0.29c0.04-0.05,0.09-0.09,0.15-0.1C48.56,21.04,48.47,21.17,48.39,21.3L48.39,21.3z M25.95,1.79
			c1.76-0.43,3.53-0.61,5.16-0.49c0.07,0.01,0.14,0.02,0.21,0.03c1.4,0.2,2.82,0.6,4.09,1.22c0.96,0.59,1.73,1.39,2.21,2.42
			c0.2,0.43,0.35,0.9,0.45,1.41c-0.38,0.06-0.78,0.1-1.2,0.13c-1.38-1.95-4.05-3.62-8.33-4.38C27.58,1.95,26.71,1.84,25.95,1.79
			L25.95,1.79z M37.14,14.2c-0.25,0.08-0.51,0.13-0.78,0.16c0.14-0.15,0.27-0.31,0.39-0.47C36.89,14,37.02,14.1,37.14,14.2
			L37.14,14.2z M37.78,17.35c0.3,0.11,0.61,0.21,0.92,0.29c-0.21,0.06-0.42,0.12-0.65,0.18C37.98,17.66,37.89,17.5,37.78,17.35
			L37.78,17.35z M43.57,12.26c0.49,0.08,0.98,0.18,1.46,0.29l-0.05,0c-0.62-0.02-1.19-0.03-1.72-0.02
			C43.35,12.44,43.46,12.35,43.57,12.26L43.57,12.26z M52.41,15.23c0.02,0.08,0.05,0.15,0.07,0.23c-0.12-0.04-0.24-0.07-0.36-0.11
			C52.22,15.31,52.31,15.27,52.41,15.23L52.41,15.23z M53.06,15.66c-0.04-0.2-0.1-0.41-0.16-0.62c2.29-0.89,3.71-0.87,4.42-0.37
			c0.38,0.27,0.51,0.7,0.41,1.17c-0.12,0.58-0.52,1.25-1.16,1.87c-0.27,0.26-0.58,0.51-0.92,0.73c-0.09-0.66-0.39-1.21-0.85-1.68
			C54.35,16.3,53.75,15.93,53.06,15.66L53.06,15.66z M37.75,19.21c-0.11-0.12-0.16-0.3-0.2-0.5l0.23-0.07
			C37.8,18.82,37.79,19.01,37.75,19.21L37.75,19.21z M15.17,10.25c-0.13,0.19-0.24,0.39-0.33,0.59c-0.46-0.01-0.95,0.02-1.45,0.07
			c0.04-0.1,0.08-0.19,0.12-0.28c0.38-0.8,0.93-1.5,1.62-2.09c0.37,0.2,0.7,0.43,1,0.68C15.74,9.54,15.42,9.89,15.17,10.25
			L15.17,10.25z M7.56,13.04c-0.06,0.05-0.12,0.1-0.17,0.15C7.37,13.13,7.34,13.06,7.32,13C7.4,13.01,7.48,13.02,7.56,13.04
			L7.56,13.04z M4.09,13.79c-0.02,0.22-0.02,0.44,0,0.67c-0.07,0.05-0.13,0.11-0.19,0.18c-0.09,0.1-0.17,0.22-0.23,0.34
			C3.7,14.48,3.85,14.09,4.09,13.79z"/>
	</g>
	<g>
		<path class="st1" d="M34.53,22.56c0,0.03,0.16-0.05,0.19-0.06C34.65,22.48,34.49,22.58,34.53,22.56z"/>
		<polygon class="st1" points="33.9,22.41 33.97,22.38 33.77,22.41 		"/>
		<path class="st1" d="M33.68,22.33l0.24-0.07c-0.09-0.05-0.3-0.06-0.26-0.14c-0.25,0.15,0.13,0.09,0.08,0.18L33.68,22.33z"/>
		<path class="st1" d="M34.12,21.74c0.01-0.01,0.01-0.01,0.02-0.02c-0.01-0.01-0.01-0.01-0.02-0.03C34.02,21.75,34,21.7,34.12,21.74
			z"/>
		<path class="st1" d="M34.14,21.73C34.17,21.75,34.21,21.67,34.14,21.73L34.14,21.73z"/>
		<path class="st1" d="M33.96,21.61l0.13,0c0.06-0.04,0.04-0.08,0.1-0.09C34.1,21.5,34.04,21.54,33.96,21.61z"/>
		<path class="st1" d="M33.73,21.66l0.06,0C33.81,21.65,33.81,21.64,33.73,21.66z"/>
		<path class="st1" d="M33.91,21.67l-0.12-0.01c-0.04,0.03-0.13,0.07,0.05,0.01C33.75,21.7,33.83,21.68,33.91,21.67z"/>
		<path class="st1" d="M33.89,21.71c-0.04,0.05-0.05,0.1-0.18,0.1C33.81,21.87,33.99,21.78,33.89,21.71z"/>
		<path class="st1" d="M33.36,22.22l-0.05,0.07l0.11-0.01C33.36,22.28,33.44,22.18,33.36,22.22z"/>
		<path class="st1" d="M33.89,21.29c-0.06,0.02-0.14,0.08-0.22,0.12l0.09,0C33.79,21.38,33.8,21.33,33.89,21.29z"/>
		<path class="st1" d="M33.67,21.41l-0.14,0C33.56,21.46,33.61,21.44,33.67,21.41z"/>
		<polygon class="st1" points="33.41,21.79 33.69,21.77 33.4,21.78 		"/>
		<polygon class="st1" points="33.75,21.12 33.91,21.09 33.67,21.13 		"/>
		<path class="st1" d="M33.63,21.02c0.13-0.03,0.17-0.11,0.25-0.12c-0.05-0.02-0.16-0.01-0.27,0.01
			C33.69,20.91,33.7,20.94,33.63,21.02z"/>
		<path class="st1" d="M33.46,20.92c0.04,0,0.1-0.01,0.16-0.02C33.58,20.9,33.53,20.91,33.46,20.92z"/>
		<path class="st1" d="M33.64,21.21l-0.15,0.09c0,0.01,0.01,0.01,0.01,0.02C33.53,21.3,33.62,21.26,33.64,21.21z"/>
		<path class="st1" d="M33.48,21.31L33.48,21.31c-0.01-0.02-0.02-0.04-0.02-0.05C33.47,21.27,33.47,21.28,33.48,21.31z"/>
		<path class="st1" d="M33.5,21.33C33.5,21.33,33.5,21.33,33.5,21.33C33.48,21.33,33.48,21.34,33.5,21.33z"/>
		<path class="st1" d="M33.11,21.72c0.13-0.03,0.18-0.1,0.35-0.12C33.35,21.62,33.21,21.61,33.11,21.72z"/>
		<path class="st1" d="M33.32,21.51c0.04-0.02,0.1-0.06,0.16-0.06l-0.16,0L33.32,21.51z"/>
		<polygon class="st1" points="33.24,21.44 33.31,21.44 33.31,21.42 		"/>
		<path class="st1" d="M33.37,21.07c-0.09,0.01-0.11-0.01-0.15-0.03c-0.01,0.04,0,0.08,0.02,0.1C33.3,21.13,33.4,21.1,33.37,21.07z"
			/>
		<path class="st1" d="M33.41,21.19c0,0-0.01,0-0.01,0C33.39,21.2,33.38,21.21,33.41,21.19z"/>
		<path class="st1" d="M33.02,20.79c-0.01,0.01-0.02,0.01-0.03,0.02C33,20.8,33.01,20.8,33.02,20.79L33.02,20.79z"/>
		<path class="st1" d="M33.22,21.16c-0.01,0.03,0.04,0.03,0.1,0.02c-0.03-0.01-0.05-0.02-0.07-0.04
			C33.22,21.15,33.2,21.16,33.22,21.16z"/>
		<path class="st1" d="M33.32,20.89c-0.03,0.03-0.04,0.05-0.06,0.08C33.3,20.93,33.37,20.87,33.32,20.89z"/>
		<path class="st1" d="M33.44,21.17C33.44,21.16,33.44,21.16,33.44,21.17C33.48,21.14,33.46,21.15,33.44,21.17z"/>
		<path class="st1" d="M33.44,21.17c-0.03,0-0.08,0.01-0.12,0.02c0.02,0.01,0.05,0.01,0.08,0.01
			C33.41,21.18,33.42,21.17,33.44,21.17z"/>
		<path class="st1" d="M32.99,20.81c-0.07,0.03-0.13,0.06-0.26,0.05c-0.07,0.05-0.11,0.19-0.28,0.21c-0.13-0.03,0.01-0.08,0.07-0.14
			c-0.17,0.11-0.34,0.04-0.61,0.18l0.14,0.01c-0.04,0.02-0.13,0.03-0.16,0.06c0.16-0.06,0.34-0.07,0.22,0.05
			C32.27,21.23,32.74,20.97,32.99,20.81z"/>
		<path class="st1" d="M33.05,20.91l0.04,0.01c0.01-0.03,0.06-0.08,0.15-0.16c-0.1,0-0.16,0.02-0.22,0.04l0.06,0.1L33.05,20.91z"/>
		<path class="st1" d="M32.71,21.15c0.06,0.05,0.17-0.02,0.27-0.02c-0.12-0.07,0.11-0.01,0.15-0.12c0.04,0.01,0.07,0.02,0.09,0.03
			c0.01-0.03,0.02-0.05,0.04-0.08c0,0-0.01,0-0.01,0.01l0,0c0,0,0,0,0,0c-0.02,0.01-0.03,0.02-0.02,0.01c0,0,0,0,0,0
			C33.2,20.99,33.18,21,33.16,21c0.01-0.04,0.04-0.02,0.07-0.02c0.01,0,0.02-0.01,0.03-0.01c0,0,0,0,0,0l-0.17-0.05
			c-0.01,0.03,0.02,0.05,0.07,0.09C32.98,21.06,32.87,21.05,32.71,21.15z"/>
		<path class="st1" d="M32.71,21.83c0.01-0.01,0.02-0.01,0.04-0.02C32.72,21.82,32.71,21.82,32.71,21.83z"/>
		<path class="st1" d="M33.15,21.53c-0.14,0.08-0.24,0.13-0.36,0.22c0.03,0,0.1-0.03,0.1,0c-0.03,0.04-0.08,0.04-0.13,0.06
			c0.05-0.01,0.16-0.01,0.2-0.08l-0.03,0C32.95,21.67,33.12,21.53,33.15,21.53z"/>
		<path class="st1" d="M32.93,21.39l-0.15-0.04l-0.11,0.1l0.08-0.04C32.76,21.47,32.85,21.42,32.93,21.39z"/>
		<polygon class="st1" points="33.27,20.68 32.99,20.74 33.09,20.75 		"/>
		<polygon class="st1" points="32.99,20.66 33.14,20.59 33.03,20.61 		"/>
		<path class="st1" d="M30.92,18.22c0.11-0.1,0.3-0.23,0.14-0.15l-0.16,0.08C30.95,18.16,30.95,18.19,30.92,18.22z"/>
		<path class="st1" d="M28.48,17.02c0.06-0.02,0.12-0.03,0.18-0.05c-0.04,0.01-0.09,0.01-0.14,0.02
			C28.51,17,28.49,17.01,28.48,17.02z"/>
		<path class="st1" d="M25.47,15.07l-0.19,0.05C25.31,15.16,25.38,15.11,25.47,15.07z"/>
		<path class="st1" d="M32.07,19.66c0.04-0.06,0.05-0.09,0.04-0.12C32.05,19.63,31.92,19.72,32.07,19.66z"/>
		<path class="st1" d="M32.11,19.55c0.05-0.06,0.07-0.11-0.07-0.08c-0.01,0.01-0.02,0.02-0.03,0.03
			C32.06,19.51,32.1,19.52,32.11,19.55z"/>
		<path class="st1" d="M22.91,11.79c0.01-0.01,0.01-0.01,0.01-0.02C22.9,11.78,22.9,11.78,22.91,11.79z"/>
		<path class="st1" d="M23.8,10.1c0.02,0,0.03,0.02,0.05,0.03C23.85,10.12,23.84,10.11,23.8,10.1z"/>
		<path class="st1" d="M30.83,19.72C30.83,19.72,30.83,19.72,30.83,19.72C30.8,19.74,30.81,19.73,30.83,19.72z"/>
		<path class="st1" d="M32.75,20.25c0,0.01,0,0.02,0,0.03C32.78,20.27,32.8,20.26,32.75,20.25z"/>
		<path class="st1" d="M32.69,20.2c0.01,0.01,0.01,0.03,0.01,0.04c0.01-0.01,0.02-0.02,0.02-0.02
			C32.72,20.22,32.71,20.21,32.69,20.2z"/>
		<path class="st1" d="M24.8,13.32c0,0,0.01-0.01,0.01-0.01C24.73,13.31,24.74,13.32,24.8,13.32z"/>
		<polygon class="st1" points="28.73,18.44 28.74,18.44 28.74,18.44 		"/>
		<path class="st1" d="M28.54,18.42c0.23-0.06,0.22-0.03,0.2,0.01l0.46-0.24L28.54,18.42z"/>
		<path class="st1" d="M32.01,20.52c0.16,0,0.39-0.03,0.35,0.07l-0.23,0.12c0.07-0.03,0.1-0.11,0.02-0.09
			c0.13-0.02-0.23,0.24,0.1,0.14l0.12-0.12c0.16-0.01,0.46-0.06,0.43,0.03c0.21-0.13-0.04,0,0.2-0.16
			c-0.31,0.19-0.11-0.16-0.42,0.06c0.28-0.18,0.07-0.13,0.29-0.31c-0.08,0.04-0.13,0.09-0.14,0.02c-0.02,0.01-0.06,0.02-0.08,0.02
			c0,0,0,0,0-0.01c0,0,0,0-0.01,0.01c-0.01,0-0.02,0,0,0c-0.02,0.03-0.06,0.05-0.1,0.08c-0.2,0.05-0.26-0.03-0.37-0.01
			c0.01-0.05,0.1-0.03,0.17-0.08l-0.17,0.02c0.17-0.08,0.22-0.21,0.38-0.18l-0.04-0.07c0.07-0.08,0.06-0.15-0.04-0.15
			c0.01-0.05-0.25,0.01-0.1-0.02l-0.19-0.05l0.04-0.02c-0.06-0.11-0.45-0.07-0.23-0.32c-0.07-0.01-0.15-0.02-0.15-0.1l0.14-0.08
			c-0.09-0.02,0.05-0.19-0.13-0.14c0.36-0.22-0.08-0.24-0.07-0.35l-0.2,0.08c-0.03-0.06-0.13-0.08-0.26-0.11l-0.17,0.08
			c-0.19,0.01,0.01-0.19-0.08-0.27c0.07-0.02,0.07,0.01,0.04,0.04c0.3-0.27-0.46-0.09-0.26-0.31c-0.08,0-0.07-0.02-0.04-0.06
			c0,0,0.01,0,0.01,0c0,0,0-0.01-0.01-0.01c0.02-0.02,0.05-0.05,0.07-0.07c-0.03,0.03-0.06,0.05-0.07,0.07
			c-0.02-0.02-0.06-0.03-0.13-0.04l0.18-0.09c0,0-0.01,0-0.01,0c0.05-0.06-0.11,0.02-0.23,0.09c-0.04,0-0.09,0-0.14,0.01
			c0.28-0.15-0.16-0.02,0.14-0.19c-0.17,0.05-0.23-0.08-0.57,0.05c0.04-0.02,0.06-0.04,0.07-0.02c0.01-0.05,0.03-0.09-0.09-0.08
			l0.23-0.12l-0.37,0.08c0.11-0.1,0.18-0.16,0.39-0.2c-0.36,0.03-0.17-0.03-0.51,0.01l0.16-0.06c-0.03-0.03-0.27,0.02-0.16-0.05
			c0.24-0.19-0.22-0.33-0.09-0.61c-0.42,0.23,0.14-0.17-0.22-0.02c0.1-0.06,0.14-0.11,0.25-0.12c-0.17-0.04,0.06-0.2-0.28-0.13
			c0.1-0.06,0.17-0.05,0.23-0.09c-0.03,0-0.11,0.01-0.06-0.02c0.06-0.04,0.1-0.03,0.16-0.03c-0.09-0.08-0.42,0.06-0.74,0.19
			c0.11-0.11,0.07-0.12-0.16-0.06c0.09-0.06,0.17-0.13,0.25-0.09c-0.01-0.04-0.01-0.25-0.25-0.14c0.05-0.04-0.02-0.05-0.05-0.04
			c-0.04-0.07-0.02-0.09-0.1-0.14l-0.02,0.04c-0.32,0.11-0.11-0.03-0.19-0.06l0.03-0.01c0.1-0.19-0.09-0.05-0.03-0.18
			c0.42,0.11-0.15-0.13,0.24-0.13l0.02,0.09c0.33,0.09,0.26-0.01,0.5,0c-0.11-0.02-0.58-0.06-0.66-0.19c0.06,0,0.1-0.02,0.02-0.1
			c0.19,0.08,0.17,0.02,0.2-0.03l0.25,0.11c-0.03-0.08-0.16-0.13-0.25-0.21c0.07-0.05,0.27,0.02,0.44,0.08
			c0.11-0.07-0.36-0.07-0.32-0.19c0.15-0.03,0.09-0.13,0.02-0.28c0.13-0.02,0.15,0.07,0.23,0.08l-0.16-0.13
			c0.01-0.01,0.07,0.02,0.1,0.03c-0.05-0.07-0.25-0.11-0.27-0.2c-0.26-0.13,0.5,0.04,0.25-0.16c0.09,0.01,0.15,0.07,0.25,0.11
			c-0.12-0.19-0.08-0.15-0.29-0.35l0.22,0c-0.23-0.03-0.4-0.19-0.53-0.32c-0.11-0.02-0.2-0.04-0.24-0.04l-0.06-0.15
			c0.05,0.01,0.13,0.05,0.22,0.11c-0.02-0.02-0.03-0.03-0.05-0.04c0.12,0,0.25,0.08,0.37,0.17c-0.06-0.01-0.12-0.02-0.18-0.03
			c0.13,0.09,0.28,0.18,0.43,0.24c-0.02-0.02-0.04-0.04-0.04-0.06c0.04,0.02,0.07,0.04,0.1,0.05c0.03,0.01-0.02-0.03-0.07-0.07
			l0.3,0.1l-0.11-0.05l0.27-0.05c-0.21-0.21-0.56-0.46-0.56-0.65c0.18,0.12,0.33,0.15,0.57,0.25c-0.29-0.07,0.02,0.16-0.09,0.21
			c0.06-0.03,0.17,0.03,0.2,0.06l-0.13-0.23c0.2,0.09,0.17,0.03,0.28,0.03c-0.41-0.14-0.18-0.21-0.26-0.31
			c0.13,0.05,0.26,0.12,0.17,0.17c0.35,0.05-0.39-0.29-0.08-0.25c-0.01,0.02-0.04,0.02,0.03,0.05c-0.09-0.09,0.08-0.14,0.17-0.07
			l-0.01,0.02c0.13-0.09,0.26-0.32-0.06-0.47c0.04,0.02,0.39,0.18,0.45,0.22l-0.97-0.66c0.27,0.14,1,0.36,1.09,0.51
			c0.06-0.01,0.13-0.02,0.07-0.11c-0.05,0-0.45-0.13-0.45-0.17c0.37,0.07,0.21,0.03,0.54,0.06c-0.08,0-0.51-0.22-0.46-0.25
			c0.06,0.03,0.44,0.18,0.48,0.22l-0.36-0.29c0.06,0.06,0.37,0.16,0.51,0.19c-0.09-0.03,0.08-0.08,0.06-0.13l-0.14,0
			c0.16-0.09-0.53-0.37-0.42-0.48c0.08,0.05,0.53,0.27,0.63,0.23c-0.2-0.12-0.99-0.57-1.08-0.74l0.14,0.03l-0.09-0.14
			c0.3,0.19,0.91,0.62,1.12,0.81c0.14,0,0.16,0.05,0.2-0.02c0.14,0.03,0.16,0.11,0.15,0.13l0.2-0.12c-0.27-0.1-0.17-0.22-0.4-0.31
			l0.14,0.28c-0.27-0.1-0.67-0.41-0.54-0.49c0.13,0.02,0.45,0.22,0.54,0.25c-0.08-0.05-0.09-0.17-0.02-0.16l0.1,0.1
			c0.15-0.02-0.27-0.24,0.03-0.21c0.04-0.02,0.4,0.07,0.24,0c-0.33-0.09-1.26-0.47-1.47-0.59c0.03,0,0.39-0.01,0.56,0.03
			c0.27,0.06,0.51,0.3,0.74,0.35c-0.07-0.03-0.14-0.09-0.16-0.11c0.08,0,0.21,0.1,0.23,0.03c-0.26-0.12,0.11-0.1-0.2-0.12
			c-0.03-0.09,0.1-0.03,0.14-0.1c-0.19-0.05-0.54-0.3-0.57-0.39c0.07,0.03,0.16,0.06,0.21,0.07c0.11-0.1,0.28-0.11,0.36-0.21
			c0.07,0.02,0.19,0,0.29,0.07c-0.04-0.03-0.11-0.09-0.1-0.12c0.28,0.03-0.02,0.09,0.29,0.16c-0.15-0.07-0.15-0.17-0.21-0.26
			c-0.25-0.09-0.13,0.09-0.07,0.17c-0.33-0.14-0.61-0.36-0.68-0.54c-0.01-0.12,0.24,0.05,0.21,0.02c0.19-0.14-0.47-0.38-0.12-0.41
			c0.25,0.03,0.42,0.17,0.58,0.22c0.02,0.1-0.22,0.05-0.25,0.1l0.15-0.02c0.05,0.05,0.07,0.12-0.01,0.12
			c0.22,0.03,0.25-0.26,0.53-0.31c-0.05-0.05-0.1-0.12-0.19-0.14l0,0.05c-0.2-0.03-0.18-0.17-0.29-0.16
			c-0.08-0.1-0.22-0.24-0.06-0.28l0.25,0.09c-0.07-0.03-0.18-0.01-0.13,0.04c-0.08-0.08,0.41,0.02,0.13-0.14L31.67,9.7
			c-0.08-0.1-0.28-0.28-0.15-0.31c-0.26-0.07,0.01,0.03-0.3-0.04c0.38,0.1-0.15,0.16,0.26,0.25c-0.36-0.09-0.2,0.03-0.53-0.03
			c0.08,0.03,0.17,0.04,0.09,0.08c0.02,0.01,0.05,0.03,0.06,0.04c0,0-0.01,0-0.01,0c0,0,0.01,0,0.01,0c0.01,0.01,0.01,0.01,0,0
			c0.05,0,0.1,0.01,0.14,0.02c0.16,0.1,0.08,0.19,0.15,0.26c-0.06,0.02-0.08-0.05-0.18-0.07l0.1,0.1c-0.18-0.07-0.36-0.03-0.4-0.16
			l-0.06,0.07c-0.13,0-0.21,0.04-0.17,0.11c-0.06,0.02,0.13,0.16,0.01,0.08l0.02,0.16l-0.04-0.02c-0.11,0.1,0.11,0.34-0.3,0.33
			c0.02,0.05,0.04,0.12-0.06,0.16l-0.16-0.05c0.02,0.07-0.26,0.08-0.12,0.16c-0.45-0.12-0.27,0.19-0.41,0.24l0.2,0.09
			c-0.06,0.05-0.04,0.13-0.02,0.23L30,11.48c0.1,0.12-0.25,0.1-0.31,0.21c-0.06-0.03-0.02-0.05,0.03-0.05
			c-0.49-0.05,0.1,0.36-0.27,0.34c0.04,0.05,0.01,0.06-0.05,0.06c0,0,0-0.01,0-0.01c0,0-0.01,0.01-0.01,0.01c-0.04,0-0.08,0-0.12,0
			c0.05,0.01,0.09,0.01,0.12,0.01c-0.01,0.02-0.01,0.06,0.01,0.11l-0.2-0.07c0,0,0,0.01,0,0.01c-0.09,0,0.07,0.06,0.22,0.1
			c0.02,0.03,0.05,0.06,0.08,0.09c-0.32-0.1,0.04,0.12-0.31,0.02c0.14,0.09,0,0.2,0.32,0.35c-0.04-0.02-0.07-0.02-0.06-0.03
			c-0.06,0.02-0.13,0.03-0.06,0.1l-0.25-0.09l0.26,0.21c-0.18-0.02-0.28-0.03-0.43-0.16c0.2,0.22,0.04,0.13,0.25,0.34l-0.15-0.07
			c-0.02,0.03,0.15,0.17,0,0.14c-0.35-0.05-0.32,0.34-0.74,0.4c0.48,0.16-0.27,0,0.08,0.16c-0.12-0.03-0.2-0.03-0.27-0.1
			c0.03,0.14-0.28,0.07-0.04,0.26c-0.12-0.03-0.14-0.09-0.21-0.1c0.02,0.02,0.07,0.07,0,0.05c-0.07-0.02-0.08-0.05-0.11-0.09
			c-0.06,0.1,0.27,0.25,0.57,0.39c-0.19-0.01-0.18,0.02-0.01,0.14c-0.12-0.03-0.24-0.04-0.23-0.12c-0.04,0.03-0.31,0.14-0.06,0.25
			c-0.07-0.02-0.06,0.04-0.03,0.06c-0.07,0.07-0.1,0.07-0.14,0.15l0.06,0c0.28,0.16,0.02,0.09,0.01,0.16l-0.03-0.01
			c-0.29,0.04-0.01,0.09-0.22,0.12c0.01-0.01,0.03-0.01,0.04-0.02l-0.14-0.11l0.06-0.02c-0.03-0.1-0.19-0.06-0.36-0.03
			c0.02-0.04,0.09-0.05,0.12-0.06c0.02-0.17-0.01-0.17-0.39-0.14l0.18-0.09c-0.13,0.02,0.16-0.3-0.16-0.32
			c0.02-0.01,0.06-0.02,0.1-0.03c-0.33-0.03,0.27-0.54-0.46-0.28l-0.24-0.01c0.04,0.13-0.32,0.12-0.39,0.21
			c-0.08-0.02,0.12-0.2,0.2-0.17l-0.03,0.02c0.38-0.14,0.01-0.19,0.26-0.3c-0.2-0.21-0.17-0.51-0.33-0.71l-0.26,0.15l-0.04-0.08
			c0.05-0.05,0.2-0.12,0.23-0.07c0.14-0.1-0.2-0.02-0.27,0c0.03-0.15,0.36-0.11,0.34-0.14l-0.06-0.03l-0.03,0.02
			c-0.14,0.02-0.27,0.07-0.3,0c0.02-0.06,0.16-0.1,0.16-0.12c0.02-0.01,0.03-0.02-0.01-0.03l-0.05-0.1l-0.19,0.13
			c-0.14,0.01-0.06-0.09-0.28,0.06c0.34-0.23-0.14-0.39-0.05-0.48c-0.21,0.02-0.25-0.04-0.29-0.11c-0.03,0.04-0.27,0.16-0.29,0.09
			c0.53-0.21,0.13-0.21,0.47-0.42c-0.21,0.15-0.2-0.14-0.49,0.08c0-0.07,0.19-0.09,0.28-0.18c-0.3-0.03-0.08-0.31-0.27-0.42
			c-0.07,0.03-0.15,0.1-0.28,0.11l0.28-0.23c-0.06-0.01-0.41,0.15-0.22-0.01c-0.05,0.03-0.13,0.08-0.16,0.07
			c0.1-0.43-0.75-0.45-0.37-1.01c-0.1,0.1-0.13,0.08-0.16,0.05c-0.02,0.03-0.17,0.07-0.26,0.12l0.16-0.23
			c-0.27,0.09-0.12-0.12-0.38-0.02l0.08,0.02c-0.33,0.08-0.58,0.35-0.95,0.51c0.37-0.09-0.36,0.36,0.18,0.25
			c-0.06,0.05-0.13,0.04-0.21,0.08c0.18-0.05,0.23-0.03,0.21,0.05l-0.04,0.01c0.16,0.13,0.06,0.26,0.09,0.47l0.17-0.09
			c0.01,0.05-0.05,0.08-0.08,0.12c0.31-0.08-0.07-0.11,0.27-0.2c-0.33,0.21,0.2,0.25-0.19,0.47c0.04,0.06,0.2-0.11,0.24-0.05
			l-0.1,0.07l0.16-0.05c0.01,0.05-0.12,0.13-0.22,0.17c0-0.01-0.05-0.01-0.06-0.02c-0.1,0.11,0.15,0.11,0.12,0.14l0.03-0.08
			c0.23,0.1,0.23,0.35,0.58,0.39l0.08-0.05c0.25,0.04-0.02,0.13,0.15,0.22l-0.02,0c0.11-0.01,0.18,0,0.19,0.04
			c-0.13,0.01-0.15,0.14-0.29,0.15c0.27,0.04,0.18,0,0.57-0.06l-0.13,0.08c0.15-0.03,0.22-0.06,0.31-0.02
			c-0.16,0.01-0.19,0.13-0.39,0.15c-0.21,0.26,0.47,0.05,0.06,0.31c0.44-0.12,0.13-0.21,0.24-0.21c0.11-0.08,0.33-0.08,0.33-0.03
			c0.02,0.04-0.45,0.29-0.36,0.39c-0.01-0.01-0.04,0-0.04-0.01c-0.07,0.08,0.2,0.01,0.07,0.13c0.26-0.08,0.04,0.07,0.35-0.06
			l-0.15-0.06c0.12,0.02,0.52-0.09,0.42,0.07c-0.07,0.02-0.17,0.03-0.23,0.03c-0.07,0.07,0.1,0.02,0.03,0.09
			c-0.31,0.13-0.16-0.08-0.44-0.04c-0.11,0.08,0.31,0.01-0.04,0.13c0.45-0.15,0.03,0.12,0.41,0.05l-0.19,0.08
			c0.04,0,0.14-0.02,0.15,0l-0.27,0.07c0.25-0.03-0.09,0.19,0.07,0.19c-0.1-0.11,0.2-0.12,0.29-0.23c0.36,0.03-0.41,0.29-0.2,0.41
			c-0.04-0.01,0.04-0.13,0.16-0.13c-0.01,0.05-0.05,0.12-0.13,0.18c0.12,0.08,0.17-0.1,0.32-0.11c-0.19,0.13,0.13,0.01,0.24,0.02
			l-0.19,0.08c-0.02,0.17,0.41-0.14,0.36,0.03l-0.29,0.07l0.11,0.02l-0.22,0.08c0.21-0.01,0.18,0.03,0.17,0.11
			c0.12-0.07,0.34-0.14,0.39-0.09c-0.08,0.08-0.19,0.06-0.11,0.12c-0.13,0.04-0.29,0.08-0.15-0.03c-0.06,0.02-0.13,0.04-0.19,0.06
			c-0.1,0.09,0.05,0.11,0.07,0.13c0-0.01,0-0.03,0.02-0.05l0.35-0.01c-0.06,0.05-0.12,0.06-0.19,0.07c0.04,0.01,0.14-0.01,0.18,0.01
			c-0.16,0.06-0.31,0.13-0.42,0.12l0.25,0.03c-0.06,0.04-0.14,0.13-0.2,0.14c-0.04,0.1,0.41,0.01,0.35,0.13
			c0.03-0.01,0.07-0.01,0.1-0.01c0.02,0.08-0.11,0.23,0.17,0.22l-0.23,0.17c0.12,0.04,0.29-0.21,0.48-0.15
			c0.15,0.04-0.21,0.13-0.26,0.19c0.17-0.02,0.5-0.08,0.34,0.09c-0.07,0-0.05-0.04-0.08-0.05l-0.11,0.12
			c-0.3,0.05-0.25-0.04-0.42,0.1c0.53-0.22,0.23,0.18,0.76-0.04l-0.08,0.08c0-0.01-0.04,0-0.04-0.01c-0.19,0.18,0.42-0.12,0.42,0
			c-0.01,0.05-0.07,0.1-0.15,0.11l0.19,0.01c0,0,0,0,0,0.01c-0.01,0-0.01,0.01-0.02,0.02c-0.03,0.02-0.07,0.03-0.08,0.01l0.07,0.05
			c0,0.02,0.01,0.03,0.01,0.05c-0.03,0.01-0.05,0.02-0.05,0.02l0.05-0.02c0.01,0.03,0.02,0.05,0.02,0.08
			c-0.03,0.02-0.06,0.04-0.07,0.05c-0.04-0.01-0.09-0.02-0.17-0.06l-0.08,0.15l-0.06-0.03c-0.11,0.07,0,0.16,0.11,0.25
			c0,0,0,0,0,0.01c-0.05,0-0.09-0.03-0.12-0.05c-0.22,0.08-0.21,0.1,0,0.34l-0.2-0.07c0.09,0.08-0.45,0.06-0.33,0.28
			c-0.02-0.01-0.06-0.03-0.08-0.05c0.11,0.24-0.81,0.12-0.15,0.47l0.1,0.17c0.15-0.1,0.29,0.15,0.45,0.15c0,0.07-0.31,0.04-0.3-0.04
			l0.04,0.01c-0.35-0.18-0.25,0.1-0.5-0.01c-0.17,0.25-0.56,0.4-0.76,0.62l0.31,0.09l-0.08,0.07c-0.08-0.01-0.25-0.07-0.19-0.12
			c-0.19-0.04,0.06,0.15,0.12,0.18c-0.2,0.06-0.3-0.18-0.33-0.15l-0.02,0.05l0.04,0c0.09,0.09,0.21,0.14,0.14,0.2
			c-0.09,0.02-0.19-0.05-0.22-0.04c-0.02-0.01-0.03-0.01-0.03,0.02l-0.1,0.09l0.26,0.06c0.08,0.09-0.09,0.09,0.21,0.15
			c-0.45-0.1-0.44,0.31-0.59,0.3c0.12,0.13,0.06,0.19-0.02,0.26c0.06,0,0.32,0.1,0.24,0.15c-0.5-0.24-0.32,0.02-0.74-0.08
			c0.29,0.06-0.09,0.21,0.33,0.29c-0.09,0.04-0.2-0.08-0.35-0.09c0.1,0.21-0.36,0.23-0.42,0.42c0.07,0.03,0.19,0.05,0.27,0.13
			l-0.41-0.06c0.01,0.05,0.37,0.2,0.09,0.15c0.06,0.02,0.16,0.04,0.17,0.07c-0.58,0.17-0.23,0.76-1.11,0.81
			c0.17,0.01,0.16,0.05,0.14,0.08c0.05-0.01,0.17,0.07,0.27,0.11l-0.36,0.02c0.24,0.13-0.1,0.15,0.14,0.27l-0.01-0.06
			c0.25,0.18,0.71,0.19,1.08,0.36c-0.28-0.2,0.62,0.04,0.23-0.26c0.09,0.01,0.1,0.07,0.2,0.09c-0.14-0.09-0.15-0.14-0.03-0.17
			l0.03,0.02c0.09-0.18,0.31-0.18,0.56-0.32l-0.2-0.06c0.06-0.03,0.12-0.01,0.18-0.01c-0.24-0.16-0.1,0.1-0.38-0.07
			c0.42,0.11,0.23-0.28,0.68-0.13c0.05-0.06-0.23-0.07-0.18-0.13l0.13,0.03l-0.14-0.08c0.06-0.03,0.22,0.01,0.32,0.05
			c-0.02,0,0.01,0.04,0.01,0.05c0.18,0.01,0.07-0.17,0.13-0.16l-0.12,0.03c0.02-0.21,0.34-0.35,0.23-0.61l-0.1-0.02
			c-0.06-0.19,0.17-0.06,0.21-0.22l0.02,0.01c-0.07-0.06-0.08-0.12-0.04-0.15c0.08,0.08,0.25,0.02,0.33,0.11
			c-0.07-0.21-0.08-0.12-0.34-0.35l0.16,0.04c-0.11-0.09-0.17-0.12-0.16-0.2c0.08,0.11,0.25,0.05,0.37,0.18
			c0.43-0.01-0.15-0.34,0.36-0.21c-0.35-0.23-0.32,0.03-0.38-0.04c-0.16-0.02-0.26-0.18-0.18-0.21c0.04-0.04,0.57,0.14,0.66,0.02
			c-0.01,0.01,0.02,0.02,0.01,0.03c0.14,0-0.07-0.14,0.14-0.12c-0.22-0.13,0.07-0.06-0.23-0.2l-0.01,0.13
			c-0.03-0.09-0.35-0.3-0.1-0.32c0.06,0.03,0.12,0.1,0.15,0.14c0.11,0.01-0.02-0.08,0.1-0.07c0.3,0.14-0.03,0.15,0.15,0.32
			c0.15,0.02-0.13-0.21,0.18-0.04c-0.39-0.22,0.14-0.09-0.12-0.3l0.18,0.08c-0.02-0.02-0.09-0.09-0.06-0.11l0.21,0.14
			c-0.16-0.15,0.27-0.04,0.21-0.15c-0.09,0.13-0.25-0.07-0.42-0.07c-0.13-0.26,0.55,0.12,0.6-0.09c0.01,0.03-0.18,0.04-0.24-0.03
			c0.06-0.02,0.17-0.03,0.28-0.01c0.05-0.13-0.2-0.06-0.28-0.16c0.26,0.06-0.05-0.09-0.08-0.18l0.19,0.08
			c0.22-0.08-0.36-0.2-0.13-0.26l0.22,0.16l-0.02-0.09l0.2,0.1c-0.11-0.13-0.05-0.14,0.06-0.18c-0.14-0.04-0.33-0.15-0.3-0.21
			c0.14,0.01,0.16,0.1,0.2,0c0.1,0.07,0.23,0.15,0.03,0.11c0.06,0.03,0.1,0.07,0.16,0.1c0.16,0.01,0.11-0.09,0.14-0.12
			c-0.02,0.01-0.04,0.02-0.07,0.01l-0.17-0.23c0.09,0.01,0.13,0.05,0.17,0.09c0-0.03-0.07-0.09-0.06-0.13
			c0.15,0.07,0.31,0.14,0.34,0.22l-0.08-0.18c0.07,0.02,0.23,0.02,0.27,0.06c0.14-0.02-0.17-0.28,0.01-0.31
			c-0.03-0.02-0.05-0.04-0.06-0.06c0.1-0.06,0.34-0.05,0.2-0.23l0.06,0.01l-0.01,0.02c0.01-0.01,0.02-0.01,0.02-0.02L28,17.19
			c0,0-0.01,0-0.01,0c0.01,0,0.02,0,0.03,0l0.04,0.01c-0.03,0.01-0.06,0.02-0.08,0.03c-0.02,0.01,0.04,0,0.11-0.01l-0.26,0.14
			l0.11-0.04l-0.08,0.19c0.34-0.04,0.81-0.16,1.03-0.08c-0.23,0.06-0.33,0.14-0.57,0.24c0.22-0.15-0.19-0.05-0.19-0.14
			c0,0.05-0.12,0.09-0.16,0.1l0.33,0.01c-0.2,0.08-0.13,0.09-0.18,0.16c0.37-0.19,0.33-0.03,0.49-0.03
			c-0.13,0.06-0.27,0.11-0.29,0.04c-0.24,0.19,0.52-0.12,0.33,0.05c-0.02-0.01,0-0.03-0.07-0.01c0.14-0.02,0.12,0.1-0.01,0.13
			l-0.01-0.01c0.03,0.11,0.24,0.29,0.58,0.15c-0.04,0.02-0.4,0.16-0.48,0.19l1.24-0.32c-0.29,0.11-0.92,0.46-1.14,0.46
			c-0.02,0.04-0.04,0.09,0.09,0.09c0.03-0.03,0.37-0.22,0.42-0.21c-0.27,0.2-0.13,0.11-0.34,0.3c0.04-0.05,0.5-0.22,0.52-0.18
			c-0.07,0.02-0.43,0.2-0.49,0.2l0.51-0.1c-0.1,0.01-0.37,0.16-0.48,0.23c0.08-0.05,0.06,0.08,0.12,0.09l0.07-0.08
			c0.02,0.13,0.69-0.17,0.75-0.06c-0.1,0.03-0.58,0.21-0.59,0.29c0.24-0.08,1.15-0.37,1.4-0.36l-0.11,0.07l0.2,0
			c-0.37,0.11-1.17,0.3-1.5,0.35c-0.07,0.08-0.14,0.08-0.08,0.13c-0.1,0.07-0.21,0.05-0.23,0.04l0.03,0.17
			c0.25-0.12,0.34-0.01,0.56-0.12l-0.39-0.02c0.25-0.12,0.8-0.24,0.84-0.13c-0.08,0.07-0.48,0.19-0.56,0.23
			c0.1-0.03,0.24,0.01,0.19,0.05l-0.17,0.02c-0.05,0.1,0.41-0.07,0.22,0.11c0,0.03-0.28,0.21-0.12,0.15
			c0.27-0.17,1.17-0.58,1.41-0.65c-0.01,0.02-0.19,0.24-0.31,0.33c-0.2,0.14-0.6,0.19-0.77,0.31c0.07-0.03,0.18-0.05,0.21-0.05
			c-0.04,0.05-0.23,0.09-0.15,0.12c0.27-0.11,0.06,0.11,0.24-0.08c0.12,0.01-0.01,0.08,0.05,0.13c0.15-0.09,0.62-0.21,0.73-0.19
			c-0.07,0.03-0.15,0.08-0.18,0.1c0.06,0.11-0.02,0.22,0.06,0.31c-0.06,0.04-0.1,0.12-0.22,0.15c0.06-0.01,0.16-0.03,0.19-0.01
			c-0.18,0.16-0.09-0.05-0.33,0.12c0.16-0.06,0.27-0.02,0.4-0.02c0.22-0.12-0.03-0.11-0.16-0.11c0.32-0.14,0.72-0.22,0.95-0.2
			c0.14,0.04-0.18,0.13-0.12,0.12c0.06,0.17,0.67-0.13,0.54,0.09c-0.17,0.14-0.41,0.19-0.55,0.26c-0.13-0.03,0.05-0.15,0.01-0.19
			l-0.05,0.1c-0.09,0.01-0.17-0.01-0.13-0.06c-0.15,0.12,0.17,0.26,0.09,0.45c0.09-0.01,0.19-0.01,0.26-0.06l-0.06-0.02
			C31.83,20.53,31.97,20.6,32.01,20.52z M32.38,20.06c0,0-0.01,0-0.01,0C32.41,20,32.39,20.02,32.38,20.06z M29.25,14.36
			c0.05,0.04,0.01,0.05-0.08,0.04C29.16,14.38,29.18,14.36,29.25,14.36z M30.94,10.02C30.94,10.03,30.94,10.03,30.94,10.02
			C30.84,10.04,30.88,10.04,30.94,10.02z M25.86,12.54l-0.04,0.04C25.74,12.56,25.8,12.55,25.86,12.54z M24.32,18.62l0.06,0.01
			C24.41,18.69,24.37,18.66,24.32,18.62z M28.22,16C28.22,16,28.22,16,28.22,16c0.02,0,0.04,0,0.04,0l-0.02,0.02
			C28.23,16.02,28.22,16.01,28.22,16z M28.31,15.96l-0.03,0.03l-0.02-0.03c0,0,0.01-0.01,0.01-0.01
			C28.29,15.95,28.3,15.95,28.31,15.96z M28.39,16.16c-0.03-0.02-0.06-0.05-0.09-0.07c0.04-0.04,0.07-0.09,0.06-0.11
			c0.08,0.05,0.12,0.11,0.08,0.14c0.01,0,0.02,0.01,0.03,0.01L28.39,16.16z M28.62,15.99c-0.2-0.11-0.08-0.08,0-0.09
			C28.65,15.94,28.74,16.03,28.62,15.99z M27.64,14.84l0.16,0.06c0.18,0.08,0.13,0.09,0.03,0.1C27.74,14.94,27.4,14.97,27.64,14.84z
			 M27.81,17.07c0.04-0.01,0.1-0.01,0.18-0.02l-0.06,0.07C27.89,17.11,27.84,17.09,27.81,17.07z M27.97,17.13
			c0.11-0.06,0.25-0.1,0.39-0.12c0.01,0.01,0.02,0.03,0.04,0.04c-0.11,0.03-0.22,0.07-0.32,0.11
			C28.05,17.15,28.01,17.14,27.97,17.13z M28.35,17.12c0.02-0.02,0.05-0.04,0.08-0.06c0.02,0.01,0.04,0.01,0.08,0.02
			C28.46,17.09,28.41,17.11,28.35,17.12z M28.26,17.27c-0.07,0.02-0.06-0.02,0-0.07C28.29,17.21,28.3,17.23,28.26,17.27z
			 M28.66,16.97c0.03,0,0.05-0.01,0.07-0.01c-0.04,0.04-0.12,0.08-0.2,0.11c-0.02-0.01-0.05-0.02-0.07-0.03
			c0.01,0,0.01-0.01,0.02-0.01c-0.01,0-0.02,0.01-0.03,0.01c-0.01-0.01-0.03-0.02-0.04-0.03c0.04-0.01,0.08-0.01,0.11-0.01
			c0.08-0.06,0.14-0.11,0.17-0.13l0.2,0.03C28.86,16.91,28.77,16.94,28.66,16.97z"/>
		<path class="st1" d="M25.51,15.06C25.51,15.06,25.51,15.06,25.51,15.06c-0.01,0-0.02,0-0.04,0.01L25.51,15.06z"/>
		<path class="st1" d="M29.86,19.76c0.01-0.03,0.04-0.05,0.07-0.07C29.88,19.71,29.85,19.73,29.86,19.76z"/>
		<path class="st1" d="M32.99,20.4l-0.09-0.02c0.03,0.02-0.01,0.04-0.03,0.07C32.92,20.43,32.98,20.39,32.99,20.4z"/>
		<path class="st1" d="M32.18,21.31c0.03,0,0.01,0.01,0.04,0.01l0.08-0.04C32.27,21.25,32.19,21.27,32.18,21.31z"/>
		<path class="st1" d="M32.41,20.72c-0.15,0.07-0.08,0.08-0.02,0.1c0,0-0.01,0,0-0.01C32.61,20.72,32.51,20.72,32.41,20.72z"/>
		<path class="st1" d="M32.43,20.85c0.09-0.04,0.01-0.02-0.03-0.03C32.42,20.83,32.43,20.84,32.43,20.85z"/>
		<path class="st1" d="M32.54,20.21c-0.03,0.03,0.21-0.08,0.15-0.04C32.9,20.1,32.36,20.17,32.54,20.21z"/>
		<polygon class="st1" points="31.92,20.98 32.1,20.88 31.93,20.93 		"/>
		<path class="st1" d="M31.85,20.66l-0.01,0.07c0.03-0.02,0.06-0.02,0.08-0.02C31.89,20.68,31.9,20.63,31.85,20.66z"/>
		<path class="st1" d="M31.98,20.75c-0.01-0.01-0.03-0.02-0.07-0.03C31.92,20.74,31.94,20.75,31.98,20.75z"/>
		<polygon class="st1" points="31.8,20.93 31.83,20.9 31.81,20.86 		"/>
		<path class="st1" d="M31.32,20.06c-0.07,0.02-0.1,0.06-0.05,0.07c0.06-0.01,0.1,0,0.16-0.03L31.32,20.06z"/>
		<path class="st1" d="M31.04,20.5c0.03-0.03,0.07-0.05,0.13-0.09l-0.24,0.1L31.04,20.5z"/>
		<path class="st1" d="M30.66,20.43c0.07-0.02,0.17,0.01,0.18-0.07C30.77,20.38,30.59,20.36,30.66,20.43z"/>
		<polygon class="st1" points="30.44,19.38 30.46,19.4 30.85,19.22 		"/>
		<path class="st1" d="M29.07,19.08c0.11-0.03,0.05-0.09,0.15-0.11c-0.13,0-0.09-0.04-0.34,0.09
			C28.84,19.17,29.14,18.97,29.07,19.08z"/>
		<polygon class="st1" points="23.93,9.77 23.82,9.86 23.88,9.85 		"/>
		<path class="st1" d="M23.52,9.9l0.24-0.12l-0.25,0.07C23.54,9.86,23.57,9.87,23.52,9.9z"/>
		<polygon class="st1" points="26.1,15.94 26.11,15.95 26.32,15.83 		"/>
		<path class="st1" d="M25.41,15.58c0.01,0.02,0.08,0.02,0.08,0.05C25.42,15.61,25.69,15.45,25.41,15.58z"/>
		<path class="st1" d="M33.14,7.18C33.17,7.16,33,7.1,32.98,7.09C32.98,7.14,33.19,7.2,33.14,7.18z"/>
		<polygon class="st1" points="33.23,7.69 33.17,7.65 33.29,7.77 		"/>
		<path class="st1" d="M33.17,7.86l0.07,0.02l-0.2-0.12C33.01,7.84,33.09,8,32.97,8.02C33.27,8.1,33.02,7.88,33.17,7.86z"/>
		<path class="st1" d="M32.29,7.91c-0.01,0-0.02,0-0.03,0c0,0.01-0.01,0.02-0.03,0.03C32.35,7.97,32.29,8.01,32.29,7.91z"/>
		<path class="st1" d="M32.26,7.91C32.28,7.87,32.15,7.89,32.26,7.91L32.26,7.91z"/>
		<path class="st1" d="M32.2,8.09l-0.06-0.09c-0.07-0.02-0.12,0.02-0.15-0.02C32,8.06,32.07,8.07,32.2,8.09z"/>
		<path class="st1" d="M32.37,8.22l-0.02-0.04C32.31,8.17,32.3,8.18,32.37,8.22z"/>
		<path class="st1" d="M32.33,8.14c0.08,0.04,0.01,0-0.03-0.05l0.05,0.09C32.39,8.19,32.48,8.23,32.33,8.14z"/>
		<path class="st1" d="M32.57,8.15c0.03-0.1-0.18-0.17-0.21-0.07C32.44,8.08,32.51,8.07,32.57,8.15z"/>
		<path class="st1" d="M33.28,8.08c0.03,0.03-0.13,0.03-0.04,0.07l0.11,0L33.28,8.08z"/>
		<path class="st1" d="M32.03,8.33c-0.05,0-0.12,0.02-0.21-0.02C31.88,8.34,32,8.37,32.08,8.4L32.03,8.33z"/>
		<path class="st1" d="M32.08,8.4l0.06,0.09C32.19,8.45,32.14,8.42,32.08,8.4z"/>
		<polygon class="st1" points="32.66,8.38 32.67,8.36 32.52,8.19 		"/>
		<polygon class="st1" points="31.67,8.51 31.55,8.42 31.72,8.56 		"/>
		<path class="st1" d="M31.59,8.64c-0.1-0.07-0.22-0.05-0.27-0.1c-0.01,0.04,0.07,0.11,0.13,0.18C31.43,8.67,31.47,8.64,31.59,8.64z
			"/>
		<path class="st1" d="M31.46,8.72c0.01,0.03,0.04,0.06,0.09,0.1C31.53,8.79,31.49,8.75,31.46,8.72z"/>
		<path class="st1" d="M31.84,8.53l0.18,0.05c0.01-0.01,0.01-0.01,0.02-0.02C32,8.55,31.9,8.52,31.84,8.53z"/>
		<path class="st1" d="M32.03,8.58L32.03,8.58C32,8.6,31.99,8.61,31.98,8.62C31.98,8.62,32,8.6,32.03,8.58z"/>
		<path class="st1" d="M32.04,8.56C32.04,8.56,32.04,8.56,32.04,8.56C32.06,8.57,32.06,8.57,32.04,8.56z"/>
		<path class="st1" d="M32.41,8.43c0.07,0.07,0.12,0.17,0.31,0.17C32.63,8.53,32.52,8.53,32.41,8.43z"/>
		<path class="st1" d="M32.35,8.58c-0.04-0.02-0.12-0.03-0.15-0.07l0.07,0.11L32.35,8.58z"/>
		<polygon class="st1" points="32.3,8.67 32.27,8.62 32.24,8.63 		"/>
		<path class="st1" d="M31.81,8.9c0.06-0.02,0.1-0.04,0.12-0.07c-0.05-0.03-0.13-0.08-0.15-0.04C31.83,8.84,31.82,8.87,31.81,8.9z"
			/>
		<path class="st1" d="M31.91,8.7C31.92,8.7,31.92,8.7,31.91,8.7C31.94,8.71,31.94,8.71,31.91,8.7z"/>
		<path class="st1" d="M31.62,9.19c-0.01,0-0.02-0.01-0.03-0.01l-0.01,0C31.59,9.19,31.6,9.19,31.62,9.19z"/>
		<path class="st1" d="M31.96,8.84c0.05-0.01,0.02-0.04-0.02-0.08c0,0.02,0,0.05-0.01,0.07C31.95,8.85,31.97,8.85,31.96,8.84z"/>
		<path class="st1" d="M31.56,8.93c0.04,0,0.08,0,0.12,0C31.62,8.92,31.52,8.9,31.56,8.93z"/>
		<path class="st1" d="M31.87,8.69C31.86,8.69,31.86,8.69,31.87,8.69C31.82,8.68,31.84,8.69,31.87,8.69z"/>
		<path class="st1" d="M31.87,8.69c0.01,0.02,0.05,0.05,0.08,0.07c0-0.02-0.01-0.04-0.03-0.06C31.9,8.7,31.88,8.7,31.87,8.69z"/>
		<path class="st1" d="M31.79,9.34c0.1,0.02,0.29-0.03,0.4,0.07c0.02,0.1-0.1,0.03-0.21,0.03c0.22,0.05,0.21,0.21,0.5,0.31
			l-0.05-0.1c0.04,0.02,0.1,0.07,0.15,0.07c-0.15-0.07-0.25-0.19-0.04-0.17c-0.08-0.1-0.61-0.28-0.93-0.35
			C31.68,9.22,31.74,9.25,31.79,9.34z"/>
		<path class="st1" d="M31.44,9.06c0.05,0.07,0.1,0.1,0.15,0.12l0.11-0.1l0.02,0.02l0-0.03C31.66,9.08,31.59,9.08,31.44,9.06z"/>
		<path class="st1" d="M31.7,8.93L31.7,8.93C31.7,8.93,31.7,8.93,31.7,8.93c0.03,0,0.04,0.01,0.02,0.01c0,0,0,0,0,0
			c0.02,0.01,0.04,0.02,0.06,0.03c-0.06,0.02-0.05-0.01-0.06-0.03C31.72,8.94,31.71,8.93,31.7,8.93C31.7,8.93,31.7,8.93,31.7,8.93
			l0.01,0.14c0.04-0.01,0.06-0.04,0.08-0.1c0.15,0.09,0.18,0.17,0.39,0.21c0.04-0.07-0.1-0.1-0.15-0.17
			c-0.04,0.12-0.07-0.07-0.22-0.03c-0.01-0.03-0.01-0.05,0-0.07c-0.04,0.01-0.07,0.02-0.12,0.02C31.69,8.93,31.69,8.93,31.7,8.93z"
			/>
		<path class="st1" d="M33.04,8.81c-0.02,0-0.03-0.01-0.04-0.01C33.01,8.81,33.03,8.82,33.04,8.81z"/>
		<path class="st1" d="M32.46,8.69c0.16,0.05,0.28,0.09,0.45,0.12c-0.02-0.02-0.08-0.05-0.04-0.07c0.07,0,0.08,0.03,0.14,0.06
			c-0.03-0.03-0.08-0.1-0.2-0.09l0.02,0.02C32.73,8.74,32.48,8.7,32.46,8.69z"/>
		<path class="st1" d="M32.39,8.91l0.01,0.12l0.18,0.02l-0.09-0.03C32.57,8.98,32.45,8.95,32.39,8.91z"/>
		<polygon class="st1" points="31.49,9.16 31.32,9.07 31.53,9.23 		"/>
		<polygon class="st1" points="31.42,9.28 31.27,9.21 31.34,9.28 		"/>
		<path class="st1" d="M29.26,12.03c-0.17-0.02-0.43-0.08-0.25-0.01l0.18,0.06C29.18,12.05,29.21,12.04,29.26,12.03z"/>
		<path class="st1" d="M28.78,14.34c0.02,0,0.04,0.01,0.06,0.01c-0.05-0.03-0.1-0.06-0.14-0.09C28.72,14.28,28.75,14.31,28.78,14.34
			z"/>
		<path class="st1" d="M27.72,17.47l0.15,0.1C27.91,17.53,27.8,17.51,27.72,17.47z"/>
		<path class="st1" d="M30.58,10.45c-0.09,0-0.14,0.02-0.17,0.04C30.54,10.49,30.71,10.52,30.58,10.45z"/>
		<path class="st1" d="M30.41,10.49c-0.09,0-0.17,0.01-0.07,0.09c0.02,0,0.03,0,0.05,0C30.38,10.55,30.38,10.51,30.41,10.49z"/>
		<path class="st1" d="M24.7,21.04c-0.01,0-0.02,0-0.03,0C24.7,21.05,24.7,21.04,24.7,21.04z"/>
		<path class="st1" d="M22.16,21.37c0-0.01,0.01-0.03,0.02-0.05C22.16,21.33,22.15,21.34,22.16,21.37z"/>
		<path class="st1" d="M31.75,9.87c0.02,0.01,0.04,0.03,0.07,0.04C31.79,9.89,31.77,9.88,31.75,9.87z"/>
		<path class="st1" d="M31.21,11.26C31.21,11.26,31.2,11.26,31.21,11.26C31.24,11.27,31.24,11.27,31.21,11.26z"/>
		<path class="st1" d="M31.01,9.67c0.01,0,0.02-0.01,0.03-0.01C31.02,9.64,31,9.63,31.01,9.67z"/>
		<path class="st1" d="M31.02,9.71c-0.02,0-0.03,0-0.03-0.01c0,0.01-0.01,0.02-0.02,0.04C30.98,9.72,31,9.71,31.02,9.71z"/>
		<path class="st1" d="M25.79,18.9c-0.01,0-0.01,0-0.02,0C25.82,18.96,25.82,18.94,25.79,18.9z"/>
		<polygon class="st1" points="30.53,13.39 30.52,13.38 30.52,13.39 		"/>
		<path class="st1" d="M30.59,13.53c-0.18-0.12-0.14-0.13-0.07-0.14l-0.51-0.18L30.59,13.53z"/>
		<path class="st1" d="M29.27,14.59c0.03,0.02,0.06,0.04,0.11,0.04C29.35,14.61,29.31,14.6,29.27,14.59z"/>
		<path class="st1" d="M27.69,17.45C27.69,17.45,27.69,17.45,27.69,17.45c0.01,0.01,0.02,0.01,0.03,0.02L27.69,17.45z"/>
		<path class="st1" d="M31.69,11.89c-0.04,0.01-0.08,0-0.12-0.01C31.62,11.9,31.66,11.91,31.69,11.89z"/>
		<path class="st1" d="M31.21,9.47c-0.04-0.02-0.12-0.03-0.11-0.05l0.01,0.07C31.12,9.46,31.17,9.47,31.21,9.47z"/>
		<path class="st1" d="M32.62,9.46c-0.02-0.02,0.01-0.02-0.01-0.03l-0.09-0.03C32.5,9.43,32.56,9.48,32.62,9.46z"/>
		<path class="st1" d="M31.89,9.6c-0.21-0.1-0.17-0.03-0.13,0.03C31.93,9.7,31.9,9.64,31.89,9.6C31.9,9.6,31.9,9.6,31.89,9.6z"/>
		<path class="st1" d="M31.9,9.58c0-0.01,0.01-0.03,0.02-0.03C31.84,9.51,31.89,9.55,31.9,9.58z"/>
		<path class="st1" d="M31.06,9.83c0.05,0-0.19-0.1-0.12-0.08C30.75,9.65,31.09,9.97,31.06,9.83z"/>
		<polygon class="st1" points="32.1,9.76 32.25,9.84 32.31,9.82 		"/>
		<path class="st1" d="M31.94,10.05l0.1-0.03c-0.03-0.01-0.05-0.03-0.05-0.04C31.95,10,31.88,10.03,31.94,10.05z"/>
		<path class="st1" d="M31.99,9.91c-0.01,0.01-0.02,0.04,0,0.06C32,9.95,32.01,9.93,31.99,9.91z"/>
		<polygon class="st1" points="32.31,9.93 32.25,9.93 32.21,9.96 		"/>
		<path class="st1" d="M31.41,10.65l0.01,0.09c0.06,0.03,0.12,0.03,0.11,0C31.49,10.7,31.49,10.67,31.41,10.65z"/>
		<path class="st1" d="M32.1,10.69c-0.05,0-0.1-0.02-0.17-0.03l0.24,0.1L32.1,10.69z"/>
		<path class="st1" d="M32.18,10.98c-0.06-0.03-0.07-0.12-0.17-0.09C32.07,10.93,32.13,11.07,32.18,10.98z"/>
		<polygon class="st1" points="30.95,11.71 30.96,11.69 30.56,11.53 		"/>
		<path class="st1" d="M31.18,12.81c-0.08-0.06-0.14,0.01-0.21-0.04c0.06,0.09-0.01,0.09,0.27,0.18
			C31.4,12.91,31.01,12.82,31.18,12.81z"/>
		<polygon class="st1" points="21.81,21.46 21.68,21.47 21.84,21.5 		"/>
		<path class="st1" d="M21.97,21.7c0-0.02-0.01-0.05,0.06-0.03l-0.26-0.1L21.97,21.7z"/>
		<path class="st1" d="M29.07,15.97l0.17,0.02l-0.06-0.03C29.11,15.94,29.09,15.95,29.07,15.97z"/>
	</g>
</g>
</svg>
