<svg xmlns="http://www.w3.org/2000/svg" width="89.504" height="122.003" viewBox="0 0 89.504 122.003">
  <g id="Сгруппировать_2368" data-name="Сгруппировать 2368" transform="translate(-711.551 -135.008)">
    <path id="Контур_6192" data-name="Контур 6192" d="M801.045,192.913c-.093-.146-.542-.1-1.256.1a.327.327,0,0,1-.066.05l-1.54.88a.309.309,0,0,1-.146.042.3.3,0,0,1-.128.02.288.288,0,0,1-.134,0h-.008l-.073-.021-.019,0a.314.314,0,0,1-.191-.05h0l-.005-.005-.01,0-.119-.032a.307.307,0,0,1-.074,0l-.005,0,.043.011-.328.188a.288.288,0,0,1-.133.148l-.183.1a.444.444,0,0,1-.04.048l-.017.057a.332.332,0,0,1-.087.146l-.029.1c-.042.15-.163.2-.286.268a.329.329,0,0,1-.175.043A.288.288,0,0,1,795.9,195h-.007l-.03-.008-.028,0h-.008l-.052.006a.317.317,0,0,1-.1-.011h-.007a.484.484,0,0,1-.139-.059l-.083-.023a.294.294,0,0,1-.143-.082l-.032-.009a.319.319,0,0,1-.137.007.229.229,0,0,1-.076.013.315.315,0,0,1-.124.021l-.535.231a.494.494,0,0,1-.16.116l-.035.052a.358.358,0,0,1-.1.1h0l.052-.03-.009.016a.306.306,0,0,1-.084.1l-.014.019a.316.316,0,0,1-.147.186l-.019.01a.631.631,0,0,0-.023.062.319.319,0,0,1,0,.176l0,.009-.009.028a.32.32,0,0,1-.148.189h0l-.029.016a.312.312,0,0,1-.239.031h-.007l-.008,0-.028-.007-.032-.011a.312.312,0,0,1-.118-.007.379.379,0,0,1-.089,0,5.487,5.487,0,0,0-.2.032l-.049.005a1.262,1.262,0,0,1-.138.034.3.3,0,0,1-.137,0h-.02a.293.293,0,0,1-.1-.01l-.043-.011a.3.3,0,0,1-.187-.144h0l0-.007c-3.492,1.588-7.393,3.522-10.434,5.2-2.5,1.387-.606,1.746-1.42,3.266a16.174,16.174,0,0,1-3.034,4.009.067.067,0,0,1,.01.023.123.123,0,0,1-.1.143l-.178.037-.012.008-.063.092-.147.218-.02.066a.35.35,0,0,1-.092.165c-.039.043.011.123-.005.176-.032.115-.063.228-.1.342-.01.039-.047.047-.068.079a.785.785,0,0,0-.058.208c-.011.037-.074.1-.085.136l-.117.409a.123.123,0,0,1-.148.085.119.119,0,0,1-.084-.147l.12-.425a.847.847,0,0,1,.085-.137c.023-.08.046-.158.067-.238a.132.132,0,0,1,.07-.078l.077-.276a.7.7,0,0,1,0-.158c.021-.072.022-.125.093-.165a.7.7,0,0,1,.051-.158l.164-.242c.008-.8,2.4-5.532.626-4.936-1.577.53-3.917,7.829-4.758,13.689l-6.745-14.633c.34-.6,2.322-1.923,2.674-2.535,3.214-5.58,6.017-12.461,8.535-17.463,3.716-7.388,6.219-11.867,3.686-11.682.155-2.755-2.838-4.9-7.7-2.2-6.444,3.572-9.366,19.4-10.461,27.341-2.344-.619-3.915-4.5-5.606-7.89.346-1.267,2.207-2.181,1.265-3.785a1.145,1.145,0,0,0-.25-.21l-.485.277a.314.314,0,0,1-.429-.112l-.005-.007-.3-.533-.008-.014c-.911-.156-1.9-.2-2.156-.584a3.525,3.525,0,0,1,.939-2.948,35.035,35.035,0,0,0,4.122-4.046.125.125,0,0,1,.064-.075l.005-.005.022-.077a.119.119,0,0,1,.041-.061.109.109,0,0,1,.038-.057.128.128,0,0,1,.057-.071l.045-.044.017-.059c.022-.081.032-.094.08-.122a.147.147,0,0,1,.032-.051v-.033a.666.666,0,0,1,.04-.166.129.129,0,0,1,.07-.082.289.289,0,0,1,.042-.071.163.163,0,0,1,.1-.12l.01-.035a.128.128,0,0,1,.057-.073c.018-.011.03-.069.035-.087a.111.111,0,0,1,.04-.061l.024-.084a.408.408,0,0,1,.094-.122.1.1,0,0,1,.019-.017.127.127,0,0,1,.046-.1.123.123,0,0,1,.038-.058.128.128,0,0,1,.041-.058l.011-.04a.119.119,0,0,1,.041-.062.116.116,0,0,1,.055-.07c.038-.021.04-.02.05-.058l.012-.043a.145.145,0,0,1,.041-.063l.024-.082a.121.121,0,0,1,.04-.06.131.131,0,0,1,.054-.071l-.014.009.018-.062,0-.049a.479.479,0,0,1,.028-.124.435.435,0,0,1,.045-.078c.015-.05.03-.1.044-.151a.121.121,0,0,1,.04-.061l.024-.082a.121.121,0,0,1,.054-.072l-.013.007.042-.146c-.005-.1,0-.1.057-.182.014-.023.061-.05.025-.028.052-.186.1-.368.156-.55a.129.129,0,0,0,.052-.1c.019-.071.039-.142.06-.214a.273.273,0,0,1,.057-.119c.014-.05.029-.1.044-.152.018-.07-.017-.085.037-.166a.186.186,0,0,1-.008-.1l.1-.342a.133.133,0,0,1,.055-.072l-.013.01c.015-.056.032-.111.046-.165a.394.394,0,0,1,.057-.1c.015-.022.06-.048.025-.027l.047-.167a.25.25,0,0,1,.044-.075c.025-.094.053-.188.078-.281a.286.286,0,0,1,.046-.077c.009-.03.018-.061.026-.091a.388.388,0,0,1,0-.09l.1-.341a.135.135,0,0,1,.054-.072l-.013.009.011-.037a.382.382,0,0,1,.094-.123c.012-.014.045-.033.014-.015l.029-.1,0-.05a.466.466,0,0,1,.028-.123.252.252,0,0,1,.046-.079l.019-.066a.123.123,0,0,1,.054-.072h0l.028-.056.034-.118a.113.113,0,0,1,.04-.061L763,168.7a.805.805,0,0,1,.024-.166c.011-.039.04-.059.053-.1a.726.726,0,0,1,.083-.134l.02-.068a.134.134,0,0,1,.041-.063.113.113,0,0,1,.039-.057l.01-.04a.121.121,0,0,1,.058-.072h0c.017-.01.03-.069.035-.087a.113.113,0,0,1,.057-.072v0l.009-.014.029-.171a.124.124,0,0,1,.14-.1.119.119,0,0,1,.1.135l-.034.2a.3.3,0,0,1-.059.107.094.094,0,0,1-.023.025.3.3,0,0,1-.028.075.283.283,0,0,1-.064.083l-.009.037,0,.005a.14.14,0,0,1-.04.063.126.126,0,0,1-.041.057l-.011.039a.6.6,0,0,1-.085.138.268.268,0,0,1-.051.1c-.011.041,0,.1-.016.135l-.058.206h0v.006a.124.124,0,0,1-.041.063l-.023.082a.979.979,0,0,1-.06.122.143.143,0,0,1-.031.039l-.012.039a.3.3,0,0,1-.046.079l-.012.047a.262.262,0,0,1,0,.089l-.049.171a.124.124,0,0,1-.066.079l-.036.038c-.017.065-.02.09-.055.119l-.079.277v.052a.735.735,0,0,1-.041.165.3.3,0,0,1-.044.078c-.026.093-.053.186-.08.28a.288.288,0,0,1-.045.077l-.055.195a.119.119,0,0,1-.057.073c-.019.01-.038.1-.047.129-.021.075-.019.107-.063.143l-.077.272c.018.088.032.1-.022.184l0,.03a1.514,1.514,0,0,1-.053.208.319.319,0,0,1-.058.122c-.017.065-.036.129-.055.193l0,.074a.124.124,0,0,1-.063.113l-.01,0-.083.294c-.024.086-.049.171-.074.257a.121.121,0,0,1-.057.073c-.006,0,0,.053-.007.072l-.06.213a.107.107,0,0,1-.039.061l-.021.077,0,0a.117.117,0,0,1-.04.061l-.036.125c-.007.029-.037.05-.045.077l-.013.048c-.018.063,0,.07-.015.133s-.02.106-.063.143h0a.123.123,0,0,1-.04.061l-.023.076v.006h0a.119.119,0,0,1-.041.061.336.336,0,0,1-.067.135c0,.006-.056.056-.052.038a.129.129,0,0,1-.038.062l-.01.034,0,0a.112.112,0,0,1-.04.061.114.114,0,0,1-.039.059.129.129,0,0,1-.019.037v.008c0,.011,0,.02,0,.032,4.87-6.637,3.571-12.056,2.654-15.736-.93-3.731,2.088-6.02-.046-6.51.006.135.008.113-.087.252-.019.068-.019.107-.087.145-.02.07-.039.14-.058.21s-.074.082-.125.111a.142.142,0,0,1-.079.116c-.035.125-.071.253-.107.377-.014.053-.046.069-.087.092l-.053.077c-.014.054-.02.108-.075.139l.01,0,0,.065a.885.885,0,0,1,0,.178c-.04.142-.082.284-.121.426-.019.072-.021.124-.093.164-.017.059-.02.084-.079.119l-.012.037c-.016.057-.023.125-.081.158l-.494.283a.119.119,0,0,1-.164-.044c-.1-.171-.094-.13-.038-.32-.035-.059-.023-.082-.008-.14a.146.146,0,0,1-.007-.139l-.067-.12a.447.447,0,0,1-.021-.164.146.146,0,0,1-.016-.158l-.069-.119a.146.146,0,0,1,0-.129l-.007-.01a.573.573,0,0,1-.023-.191.321.321,0,0,1,.015-.076c-.034-.062-.08-.119-.031-.192l.038-.056c-.018-.04-.012-.059.011-.138l-.033-.166a.12.12,0,0,1,.024-.1.336.336,0,0,1,.027-.129l.009-.032c-1.912,1.178-3.519,4.042-5.021,6.648a42.322,42.322,0,0,0-5.122,14.981c-.226,1.587,1.457,3.381,1.265,5.019-.113.979-.447,1.542-.551,2.536l-10.387-17.131c3.4-9.742,4.051-18.073,1.675-24.857a.15.15,0,0,1-.022-.028l-.043-.044a.123.123,0,0,1-.089-.059l-.691-1.208-.017.055.07.119a.474.474,0,0,1,.02.165l.078.136a.143.143,0,0,1,0,.129l.438.767c.028.046.013.081,0,.128a.117.117,0,0,1,.018.1l-.034.122.1.174a.435.435,0,0,1,.02.162.146.146,0,0,1,.016.159c.035.058.023.08.007.14l.161.28a.141.141,0,0,1,0,.128l.1.174a.463.463,0,0,1,.021.163.148.148,0,0,1,.016.159l.039.063a.428.428,0,0,1,.019.165.137.137,0,0,1,.029.12l-.035.124.067.118c.033.056,0,.118-.013.177a.544.544,0,0,1-.068.111l.025.124.052.092a.525.525,0,0,1,.022.192.2.2,0,0,1-.016.076.137.137,0,0,1,.008.138l.067.12a.141.141,0,0,1,0,.128.148.148,0,0,1,.008.14.182.182,0,0,1,.018.046l.038.193a1.151,1.151,0,0,1,.008.157.716.716,0,0,1-.039.16c.05.088.066.093.037.194a.117.117,0,0,1,.018.1c-.012.043-.023.085-.034.124.048.088.065.092.036.194.034.057.024.081.007.14l.038.065c.041.071,0,.123-.043.181.031.056.086.121.066.189l-.042.151,0,.092.048.084a.149.149,0,0,1,0,.127.146.146,0,0,1,.006.139.145.145,0,0,1,.006.141l.16.28c.032.053.007.1-.007.157l.006.121a.33.33,0,0,1-.016.076c.051.086.067.091.038.192a.127.127,0,0,1,.017.1l-.059.21c.028.047.065.094.048.154l-.035.124.069.118c.047.083-.03.162-.074.227l-.029.1.067.119a.147.147,0,0,1,0,.128c.036.065.019.1,0,.161l.029.147.022.036a.444.444,0,0,1,.02.165c.054.09.031.107,0,.205l-.011.038c.039.066.018.1,0,.168l.007.119a.264.264,0,0,1-.015.075c.028.051.064.1.046.157l-.034.124.1.172a.145.145,0,0,1,0,.127c.05.088.066.093.037.195l.007.01c.059.1-.057.165-.079.246.028.048.065.094.048.155s-.029.1-.043.152l0,.092c.032.054.078.11.059.175l-.042.151.005.122a2.023,2.023,0,0,1-.062.244c.062.112.064.1.028.223l.006.12a.258.258,0,0,1-.016.077l.038.063a.56.56,0,0,1,.022.184l.036.186a.125.125,0,0,1-.02.09l-.037.055a.114.114,0,0,1,.006.08l-.036.124a.114.114,0,0,1,.018.1c-.027.1-.055.2-.083.295.063.11.063.1.028.222l.007.119a.238.238,0,0,1-.016.076.12.12,0,0,1,.018.1c-.039.136-.077.273-.116.408.008.171.023.137-.071.277l0,.072c.046.082.034.09.01.178l.033.165a.133.133,0,0,1,0,.056l-.121.426c-.014.056-.074.1-.09.156a.115.115,0,0,1,.017.1c-.022.074-.043.152-.064.227l.032.165a.123.123,0,0,1-.1.142.118.118,0,0,1-.142-.091l-.037-.195a.1.1,0,0,1,0-.054c.02-.07.039-.138.058-.208-.039-.07-.012-.116.007-.188a.767.767,0,0,1,.086-.135l.107-.381-.032-.165a.188.188,0,0,1,.013-.092l-.006-.012a.55.55,0,0,1-.022-.193c0-.056.046-.109.077-.156a.64.64,0,0,1,0-.138c.035-.125.072-.252.108-.379-.039-.066-.018-.1,0-.168l-.005-.12a.2.2,0,0,1,.014-.074c-.028-.05-.066-.1-.049-.158.029-.1.057-.2.084-.293a.127.127,0,0,1-.017-.1l.035-.123-.006-.012h0a.12.12,0,0,1,.006-.126l.051-.074-.029-.144c-.006-.039-.005-.089-.007-.13-.07-.119-.078-.105-.039-.24l-.007-.119a.24.24,0,0,1,.016-.076c-.028-.05-.066-.1-.049-.156.022-.078.045-.159.068-.237l-.006-.121a.776.776,0,0,1,.039-.16l-.037-.065a.605.605,0,0,1-.022-.192.787.787,0,0,1,.039-.163c-.069-.121-.061-.1-.022-.24a.367.367,0,0,1,.051-.09l.007.01a.147.147,0,0,1,0-.128c-.049-.088-.067-.091-.037-.193l-.1-.173a.12.12,0,0,1-.011-.091l.034-.123c-.063-.11-.064-.1-.028-.223l-.005-.12a.2.2,0,0,1,.014-.075.117.117,0,0,1-.017-.1c.011-.042.023-.083.034-.124a.391.391,0,0,1-.027-.175.224.224,0,0,1-.029-.065l-.038-.193a.209.209,0,0,1,.013-.093c-.034-.057-.023-.081-.006-.14l-.069-.118a.113.113,0,0,1-.01-.092l.048-.17a.37.37,0,0,1,.054-.091c-.033-.054-.086-.121-.067-.187l.035-.124c-.028-.049-.065-.094-.049-.155l.06-.209c-.034-.057-.024-.08-.007-.14-.063-.111-.064-.1-.03-.221l-.005-.12a.289.289,0,0,1,.015-.076l-.16-.28a.146.146,0,0,1,0-.129.144.144,0,0,1-.007-.139.141.141,0,0,1-.006-.139l-.038-.065a.612.612,0,0,1-.021-.193.717.717,0,0,1,.039-.162l-.067-.118c-.042-.072,0-.124.042-.181-.045-.078-.051-.083-.026-.172a.138.138,0,0,1-.006-.139c-.069-.122-.062-.1-.024-.242l.011-.037a.136.136,0,0,1-.007-.139c-.07-.121-.063-.1-.024-.241l.018-.067-.005-.112-.032-.164a.153.153,0,0,1-.021-.166.141.141,0,0,1-.007-.139l-.068-.121a.142.142,0,0,1,0-.127c-.037-.067-.018-.1,0-.17l-.005-.091a.534.534,0,0,1-.061-.119l-.037-.194c-.018-.088.071-.135.093-.21l-.069-.117a.124.124,0,0,1-.011-.092l.035-.124a.34.34,0,0,1-.026-.174l-.048-.083a.143.143,0,0,1,0-.129.377.377,0,0,1-.029-.174l-.108-.191a.147.147,0,0,1,0-.128l-.16-.282a.141.141,0,0,1,0-.128c-.034-.057-.023-.08-.007-.139a.346.346,0,0,1-.027-.175l-.109-.191a.112.112,0,0,1-.011-.091l.035-.123a.148.148,0,0,1-.008-.14l-.437-.766a.144.144,0,0,1,0-.128l-.068-.12a.437.437,0,0,1-.02-.163l-.08-.137a.124.124,0,0,1-.01-.092l.035-.121c-.05-.089-.067-.091-.038-.195-.049-.088-.066-.091-.037-.193-.069-.121-.063-.1-.024-.241a.111.111,0,0,1,.034-.056v-.033c0-.009.007-.048,0-.032l-.007-.012a.115.115,0,0,1-.011-.09l0-.006h0l.02-.074-.007-.012a.118.118,0,0,1-.01-.09v0l.023-.08v0l-.13-.227a.116.116,0,0,1-.012-.087l-.007-.01a.113.113,0,0,1-.011-.086l-.007-.01a.111.111,0,0,1-.015-.065c-.267-.506-.551-1-.856-1.487l-.008.033c.037.067.016.1,0,.169l.005.091.048.083a.144.144,0,0,1,0,.128.121.121,0,0,1,.016.1l-.034.122c.036.062.081.119.033.192l-.07.1-.052.188a.118.118,0,0,1,.016.1l-.034.122.068.119a.146.146,0,0,1,0,.129.141.141,0,0,1,.006.139.346.346,0,0,1,.027.175c.069.121.08.106.04.241l.005.091a.148.148,0,0,1,.016.159l.13.225a.146.146,0,0,1,0,.129c.04.071.013.115-.007.188l-.019.066c.009.182.022.142-.083.293-.02.074-.041.147-.062.219a.794.794,0,0,1,0,.146l-.065.395a.123.123,0,0,1-.139.1.116.116,0,0,1-.1-.135l.063-.384,0-.127a2.849,2.849,0,0,1,.077-.294c.009-.034.074-.082.073-.119l-.005-.1a.79.79,0,0,1,.039-.16c-.033-.057.022-.087-.006-.139l-.13-.227c-.027-.046.025-.088,0-.128l-.006-.012a.518.518,0,0,1-.022-.192c0-.026.026-.054.014-.075l-.036-.064c-.023-.039-.006-.123-.022-.166-.027-.076-.01-.077-.017-.157s.024-.086-.006-.139l-.068-.118a.118.118,0,0,1-.01-.092l.033-.122c.012-.037-.027-.064-.016-.1.023-.084.048-.169.073-.255.008-.029.057-.06.053-.091-.006-.051-.052-.079-.036-.135l.035-.121a.142.142,0,0,0-.007-.139l-.038-.065a.6.6,0,0,1-.022-.193c0-.025.023-.052.015-.075-.019-.063.024-.088-.005-.14l-.069-.119c-.025-.046.007-.08,0-.127-.013-.067.024-.089-.006-.141l-.1-.173a.139.139,0,0,1-.013-.08l-.149-.219c-.7,1.719-1.008,4.078-1.569,5.9-.841,2.737-2.23,6.474-2.463,9.793-.256,3.641.7,6.911,1.073,10.913l-8.293-14.2c-4.612-7.168-11.431-4.273-17.9-10.6,1.756,8.627,6.34,13.6,16.048,11.961l3.243,4.926a14.238,14.238,0,0,0-11.628,4.489l.043-.025c.073-.041.124,0,.181.041l.375-.215a.145.145,0,0,1,.13,0l.176-.1a.145.145,0,0,1,.13,0l.176-.1a.414.414,0,0,1,.165-.024l.141-.081a.477.477,0,0,1,.166-.023l.14-.08a.436.436,0,0,1,.166-.021l.085-.05a.145.145,0,0,1,.13,0c.112-.064.1-.066.225-.033l.12-.006a.218.218,0,0,1,.077.012.145.145,0,0,1,.141-.008l.011-.006a.115.115,0,0,1,.092-.013h.006l.061.016a.775.775,0,0,1,.159,0l.173.046h0l.085.023a.709.709,0,0,1,.153.091.169.169,0,0,1,.04.044l0,0a.138.138,0,0,1,.093-.012h0l0,0h0c.069.016.12.018.159.087l.122.032c.062.016.083.072.111.12.06.017.084.02.117.077l.124.032a.111.111,0,0,1,.071.056l.079.137a.367.367,0,0,1,.138.114l.036.009a.753.753,0,0,1,.153.091c.019.013.046.056.032.03l.066,0a.117.117,0,0,1,.111.06h0l.008.012a.423.423,0,0,1,.177.065l.178.183a.121.121,0,0,1-.175.168l-.156-.16-.052-.014c-.1-.026-.119-.024-.152-.07l-.069.007c-.07,0-.1-.038-.128-.091l-.076-.049c-.092-.025-.108-.018-.157-.1l-.093-.061a.506.506,0,0,1-.1-.159l-.038-.009c-.073-.018-.125-.019-.166-.088-.1-.027-.1-.044-.146-.131l-.124-.033a.116.116,0,0,1-.075-.061c-.065.032-.077.021-.173,0h-.008a.111.111,0,0,1-.074-.056l-.017-.029-.078-.05-.066-.016-.153-.042-.121.007a.3.3,0,0,1-.078-.012c-.045.025-.063.028-.14.008-.066.039-.1.019-.169,0l-.121.007a.2.2,0,0,1-.076-.013c-.09.051-.094.067-.2.042l-.065.037a.489.489,0,0,1-.167.023l-.14.08a.477.477,0,0,1-.166.023l-.139.08a.489.489,0,0,1-.167.023l-.194.111a.145.145,0,0,1-.13,0l-.177.1a.15.15,0,0,1-.129,0l-.4.227c-.072.042-.122,0-.18-.04l-.541.31a.122.122,0,0,1-.042.014,14.926,14.926,0,0,0-2.889,5.291c-.473,1.522-2.281,2.505-3.054,4.2,4.019,1.5,10.909-3.01,19.451-10.969l12.213,17.639c-11.99-8.965-18.315,2.443-24,16.157,1.785-.279,3.986-1.613,6.323-3.366a.362.362,0,0,1,.116-.155.356.356,0,0,1,.1-.123.331.331,0,0,1,.065-.073.347.347,0,0,1,.028-.036.719.719,0,0,1,.051-.08l.02-.027a.341.341,0,0,1,.027-.043.365.365,0,0,1,.108-.163l.033-.065.008-.016a.367.367,0,0,1,.186-.307h0l.009-.005.029-.044a.362.362,0,0,1,.07-.076.348.348,0,0,1,.136-.121.31.31,0,0,1,.044-.069.356.356,0,0,1,.128-.136.363.363,0,0,1,.148-.157l.007,0h0a.4.4,0,0,1,.1-.089.361.361,0,0,1,.059-.064.39.39,0,0,1,.1-.1.5.5,0,0,1,.179-.14l.008-.012.019-.031h0l.005-.006h0a.523.523,0,0,1,.143-.155.355.355,0,0,1,.093-.117.322.322,0,0,1,.069-.077.39.39,0,0,1,.136-.121.38.38,0,0,1,.044-.069.287.287,0,0,1,.025-.04l.009-.029a.465.465,0,0,1,.265-.274l.008-.011a.423.423,0,0,1,.041-.06.359.359,0,0,1,.088-.106.342.342,0,0,1,.065-.072.285.285,0,0,1,.032-.041h0l0,0,.005,0h0a.687.687,0,0,1,.158-.143.374.374,0,0,1,.167-.2l.334-.191a.121.121,0,0,1,.062-.082.207.207,0,0,1,.065-.073c.029-.017.064-.038.074-.071l0,0a.123.123,0,0,1,.057-.074l.012-.006a.122.122,0,0,1,.056-.067l.058-.033v-.023h0V183.4a.124.124,0,0,1,.062-.111l.039-.022a.126.126,0,0,1,.055-.068l.012-.006c.024-.084.031-.089.107-.133a.121.121,0,0,1,.056-.067l0,0,.012-.018.019-.067c.019-.066.1-.093.151-.127a.129.129,0,0,1,.056-.067l.03-.017.012-.018.006-.018v-.006a.123.123,0,0,1,.057-.074l.03-.017a.221.221,0,0,1,.1-.093.59.59,0,0,1,.066-.07.125.125,0,0,1,.057-.073l.141-.08.013-.02.005-.017,0-.006a.118.118,0,0,1,.046-.066.124.124,0,0,1,.063-.108l.113-.064.011-.018.006-.02v0a.12.12,0,0,1,.057-.073l.011-.006a.115.115,0,0,1,.056-.067l.1-.06a1.113,1.113,0,0,1,.084-.141.44.44,0,0,1,.134-.091c.017-.059.021-.084.078-.117l.055-.06a.492.492,0,0,1,.1-.061c.029-.1.046-.1.134-.148a.13.13,0,0,1,.056-.069l.011,0,.034-.04,0-.01v-.006a.127.127,0,0,1,.058-.072l.037-.021a.344.344,0,0,1,.123-.106.254.254,0,0,1,.027-.074.3.3,0,0,1,.083-.1l.024-.033a.921.921,0,0,1,.108-.109l.064-.069a.159.159,0,0,1,.061-.042.2.2,0,0,1,.067-.076l.023-.033.04-.059a.8.8,0,0,1,.078-.088.258.258,0,0,1,.072-.048.74.74,0,0,1,.119-.1.4.4,0,0,1,.085-.084l.024-.035a.47.47,0,0,1,.135-.093.131.131,0,0,1,.056-.067l.017-.009a1.111,1.111,0,0,1,.163-.129.2.2,0,0,1,.064-.072l.176-.1a.4.4,0,0,1,.095-.089.231.231,0,0,1,.028-.074.265.265,0,0,1,.137-.129.182.182,0,0,1,.076-.077l.048-.055a.241.241,0,0,1,.078-.09.217.217,0,0,1,.1-.1v.006l.01-.036,0-.008h0a.125.125,0,0,1,.057-.072l.015-.009.084-.079a.825.825,0,0,1,.117-.071v0l.01-.037,0-.005h0a.119.119,0,0,1,.056-.073l.067-.039a.123.123,0,0,1,.055-.067l.122-.069a.125.125,0,0,1,.056-.069l.029-.015a.193.193,0,0,1,.1-.09l.041-.061v-.028h0a.123.123,0,0,1,.061-.112l.057-.031.024-.037a.471.471,0,0,1,.135-.091l0,.006a.429.429,0,0,1,.094-.123.141.141,0,0,1,.031-.025l.14-.08a.227.227,0,0,1,.065-.073l.175-.1.048-.054a.275.275,0,0,1,.076-.09l.588-.336a.465.465,0,0,1,.084-.082l2.284-1.305a.119.119,0,1,1,.117.207l-2.266,1.295a.465.465,0,0,1-.083.083L737,177.3a.274.274,0,0,1-.035.047.58.58,0,0,1-.1.1l-.168.1a.212.212,0,0,1-.065.072l-.148.086-.034.037a.12.12,0,0,1-.061.087l-.114.066-.023.034a.17.17,0,0,1-.059.049.129.129,0,0,1-.02.068l-.08.116c-.017.03-.043.039-.071.057a.184.184,0,0,1-.077.078.118.118,0,0,1-.054.068l-.122.069a.122.122,0,0,1-.054.068l-.067.039a.164.164,0,0,1-.069.109l-.124.072a1.208,1.208,0,0,1-.091.082c-.028.1-.037.1-.127.148a.2.2,0,0,1-.066.074l-.024.035a.6.6,0,0,1-.11.114.255.255,0,0,1-.123.106l-.012.018c-.029.1-.022.108-.115.161a.436.436,0,0,1-.083.083l-.169.1a.214.214,0,0,1-.108.1c-.042.036-.076.069-.116.1a.118.118,0,0,1-.057.071l-.112.064a.19.19,0,0,1-.075.079.349.349,0,0,1-.1.092l-.083.079a.311.311,0,0,1-.063.041l-.047.053a.585.585,0,0,1-.118.149.21.21,0,0,1-.1.094c-.05.055-.091.095-.145.147a.232.232,0,0,1-.075.087l-.013.018c-.035.124-.03.114-.142.178l-.053.058a.212.212,0,0,1-.043.033.134.134,0,0,1-.024.041.787.787,0,0,1-.081.086c-.023.062-.045.065-.122.108l-.011.038c-.018.066-.094.094-.151.127l-.054.058c-.012.015-.044.034-.013.018a.16.16,0,0,1-.069.11l-.112.063c-.036.053-.065.145-.116.173l-.1.057a.121.121,0,0,1-.067.073.443.443,0,0,1-.053.087.392.392,0,0,1-.113.082.12.12,0,0,1-.061.1v0l-.012.006a.192.192,0,0,1-.013.03.306.306,0,0,1-.082.1l-.122.07a.115.115,0,0,1-.056.067h0l-.01.005a.346.346,0,0,1-.115.1.208.208,0,0,1-.075.08.113.113,0,0,1-.015.029c-.045.067-.05.077-.092.1-.022.062-.094.09-.151.122a.213.213,0,0,1-.025.071.375.375,0,0,1-.065.085c-.016.047-.031.057-.094.092l-.006.021a.131.131,0,0,1,.059,0,.117.117,0,0,1,.087.124l.161-.091.026-.015a.135.135,0,0,1,.089-.015l.009-.006.483-.274a.657.657,0,0,1,.109-.1l.231-.133a.127.127,0,0,1,.055-.067l.094-.054a.117.117,0,0,1,.055-.067l1.541-.88,0,0a.4.4,0,0,1,.1-.081l.138-.079c3.522-2.927,6.675-5.272,8.483-4.786a11.249,11.249,0,0,1,4.778,2.573l3.807,5.5c-12.9,3.644-19.651,9.2-17.634,17.494.84-.424,1.685-.888,2.529-1.375l-.118-.209,0-.007a.312.312,0,0,1,.12-.425l.485-.278a.508.508,0,0,1,.252-.214l-.012.038h0a.323.323,0,0,1,.149-.191l.1-.058.006,0a.314.314,0,0,1,.2-.041l.384-.22a.326.326,0,0,1,.277-.021.611.611,0,0,1,.261.023h.009l.006,0a.3.3,0,0,1,.189.144l.026.045c.485-.307.973-.618,1.46-.935l-.019-.015-.148-.129a.337.337,0,0,1-.053-.08v0a.117.117,0,0,1-.011-.092l.012-.037-.07-.119a.144.144,0,0,1,0-.128c-.05-.088-.067-.093-.037-.194l-.069-.119a.118.118,0,0,1-.01-.091l.043-.159.016-.177a.133.133,0,0,1-.025-.113c.039-.136.077-.272.116-.408a.452.452,0,0,1,.008-.18l.087-.174a.644.644,0,0,1,0-.146l.047-.17a.64.64,0,0,1,.085-.136c.046-.165.094-.329.139-.494a.828.828,0,0,1,.085-.136l.165-.579a.125.125,0,0,1,.069-.079l.034-.123a.121.121,0,0,1,.069-.079l.009-.036a.7.7,0,0,1,.086-.138c.015-.053.022-.108.075-.139l.148-.084.116-.127.064-.094c.035-.123.03-.114.142-.178l.034-.121a1.015,1.015,0,0,1,.095-.154.24.24,0,0,1,.087-.063.4.4,0,0,1,0-.1c.017-.057.023-.124.081-.159l.141-.079a.446.446,0,0,1,.1-.13l.176-.1.036-.123a.123.123,0,0,1,.057-.073l.121-.069,0-.013-.732.418,0,0-.01.007c-.016.057-.021.083-.079.116-.014.046-.021.084-.069.11l-.121.07c-.013.046-.02.083-.067.11l-.123.07c-.013.051-.025.121-.079.152l-.1.055a.122.122,0,0,1-.038.056.125.125,0,0,1-.058.07h0l-.011.006-.054.06a.576.576,0,0,1-.115.073.2.2,0,0,1-.077.08.122.122,0,0,1-.066.074c-.027.1-.04.094-.125.143a.21.21,0,0,1-.065.071l.005,0-.03.058-.009.031a.122.122,0,0,1-.055.072l.013-.008c-.021.077-.033.092-.079.119a.119.119,0,0,1-.039.055.432.432,0,0,1-.135.151c-.029.1-.018.117-.117.174l-.053.058c-.013.014-.047.033-.016.016l-.009.037a.13.13,0,0,1-.058.074h0l.005,0-.03.059c-.019.068-.039.135-.058.2a.118.118,0,0,1-.058.073h0l.017-.009-.07.251a.421.421,0,0,1-.088.115.486.486,0,0,1-.052.071v.035a.115.115,0,0,1-.043.1.132.132,0,0,1-.057.07h0l.016-.009c-.018.058-.022.083-.08.116a.706.706,0,0,1-.065.15l-.142.5a.373.373,0,0,1-.051.088l-.045.083a.248.248,0,0,1-.053.108.3.3,0,0,1-.062.117c-.016.023-.061.05-.026.03l-.021.079a.125.125,0,0,1-.056.073l.015-.009a.3.3,0,0,1-.056.115l-.032.108a.12.12,0,0,1-.054.073l.014-.007-.069.239-.007.1a.388.388,0,0,1-.016.065l-.034.12-.016.107a.106.106,0,0,1,.007.084v0l-.022.078a.855.855,0,0,1,.013.173c0,.01-.008.047,0,.032l.05.088.069.032a.119.119,0,0,1,.051.161.123.123,0,0,1-.163.056c-.047-.023-.125-.052-.151-.1l-.092-.161a.129.129,0,0,1,0-.115l-.006-.091h0v0a.118.118,0,0,1-.01-.092l.023-.083a.122.122,0,0,1-.007-.054l.021-.156c.008-.041.029-.1.041-.145s.007-.107.021-.155l.083-.3a.114.114,0,0,1,.043-.06l.021-.083a.537.537,0,0,1,.045-.077c.02-.068.022-.1.06-.125l.025-.086c.015-.055.044-.052.071-.091a.286.286,0,0,1,.052-.1.772.772,0,0,1,.067-.147c.009-.017.025-.038.036-.055.046-.165.092-.329.14-.494a.772.772,0,0,1,.055-.112c.02-.07.021-.115.088-.153.018-.056.023-.077.052-.1a.119.119,0,0,1,.021-.04.272.272,0,0,1,.012-.078v0l0-.005a.116.116,0,0,1,.057-.072h0a.813.813,0,0,1,.082-.1l.077-.272a.109.109,0,0,1,.041-.061l.046-.168c.012-.034.045-.088.061-.123a.114.114,0,0,1,.03-.037.167.167,0,0,1,.082-.121.383.383,0,0,1,.094-.09l.024-.08c.022-.081.109-.08.133-.143v0l0,0a.113.113,0,0,1,.041-.061.116.116,0,0,1,.055-.069l.012-.008a.165.165,0,0,1,.05-.1l.009-.018c.015-.029.03-.068.051-.1l-.172.1a.148.148,0,0,1-.068.111l-.12.07-.036.123c-.016.055-.057.072-.1.1,0,.069.015.135-.058.176l-.141.08-.052.078a.248.248,0,0,1-.051.12l-.191.181a.13.13,0,0,1-.035.025l-.034.121a.127.127,0,0,1-.058.074l-.14.081a.489.489,0,0,1-.1.13l-.178.1a.158.158,0,0,1-.067.111l-.122.068c-.017.059-.021.084-.078.117a.153.153,0,0,1-.069.11l-.139.08-.053.077-.018.067a.8.8,0,0,1-.085.135l-.02.068a.846.846,0,0,1-.1.152l-.079.116a.219.219,0,0,1-.086.064l0,.065a.507.507,0,0,1-.029.124.778.778,0,0,1-.1.152.29.29,0,0,1-.108.076l-.009.036a.752.752,0,0,1-.085.136c-.02.068-.02.109-.088.147a.192.192,0,0,1-.038.085l-.133.149a.163.163,0,0,1-.042.031c-.017.059-.021.084-.08.116l-.107.38c-.018.064-.064.063-.072.089l.032.165a.512.512,0,0,1-.037.178.139.139,0,0,1,.007.139.122.122,0,0,1,.009.125l-.1.192a.7.7,0,0,1-.073.208l-.132.148a.122.122,0,0,1-.172.009.118.118,0,0,1-.007-.168l.114-.126.017-.059.023-.085a1.817,1.817,0,0,1,.085-.165.143.143,0,0,1,0-.129c-.04-.069-.013-.117.007-.186l.017-.059-.033-.166a.363.363,0,0,1,.027-.14.125.125,0,0,1,.069-.08l.107-.38a.135.135,0,0,1,.069-.078c.023-.085.029-.088.1-.132l.1-.112c.018-.066.018-.1.085-.138l.011-.038a.682.682,0,0,1,.085-.136c.039-.135.038-.117.16-.186l.054-.078.012-.048-.006-.12c0-.09.08-.122.147-.159l.132-.195.019-.066a.71.71,0,0,1,.084-.134l.019-.068a.753.753,0,0,1,.1-.153.6.6,0,0,1,.161-.106c.017-.059.022-.085.08-.118a.148.148,0,0,1,.067-.11l.123-.069c.013-.046.019-.084.066-.11l.2-.113.063-.092a.622.622,0,0,1,.163-.107l.034-.121c.015-.056.055-.072.1-.1l.154-.146.014-.052a.93.93,0,0,1,.1-.153.49.49,0,0,1,.141-.094l0-.066c0-.086.066-.113.129-.15l.011-.037c.016-.057.023-.125.082-.158l.121-.07a.142.142,0,0,1,.068-.11l.579-.33.064-.094a.164.164,0,0,1,.07-.055.474.474,0,0,1,.105-.131l.3-.174a.2.2,0,0,1,.059-.069l.036-.07a.132.132,0,0,1,.06-.057.119.119,0,0,1,.056-.067l.01-.007.034-.037,0-.011,0,0a.113.113,0,0,1,.057-.072l.16-.094h.005l.011-.007a.122.122,0,0,1,.055-.068l.019-.01a.121.121,0,0,1,.061-.107l.011-.007a.12.12,0,0,1,.055-.065l.15-.086.047-.053a.231.231,0,0,1,.088-.1.119.119,0,0,1,.056-.069l.207-.119a.827.827,0,0,1,.108-.1l.2-.115.035-.039,0-.009,0-.005a.118.118,0,0,1,.058-.074l.147-.085a.134.134,0,0,1,.057-.068l.03-.017a.181.181,0,0,1,.076-.079.125.125,0,0,1,.055-.068l.121-.069a.6.6,0,0,1,.084-.083l.745-.426.024-.034a.393.393,0,0,1,.127-.087.183.183,0,0,1,.064-.074l.149-.085a.122.122,0,0,1,.055-.066l.085-.049a.189.189,0,0,1,.065-.072l.182-.105a.125.125,0,0,1,.062-.107l.039-.023.011-.037a.122.122,0,0,1,.148-.084.116.116,0,0,1,.085.146.57.57,0,0,1-.038.115l.065-.072a.121.121,0,0,1,.031-.025l2.432-1.389.034-.123a.128.128,0,0,1,.058-.074l2.365-1.35a.119.119,0,1,1,.119.207l-2.322,1.325-.035.124a.117.117,0,0,1-.057.072l-2.459,1.4-.121.134a.122.122,0,0,1-.172.011.117.117,0,0,1-.037-.1.124.124,0,0,1-.025.018l-.221.125-.025.034a.3.3,0,0,1-.107.079.116.116,0,0,1-.055.065l-.167.1-.025.035a.38.38,0,0,1-.125.085.189.189,0,0,1-.066.074l-.753.43-.054.06a.619.619,0,0,1-.125.079c-.013.039-.028.051-.084.083a.2.2,0,0,1-.078.08.114.114,0,0,1-.053.067l-.15.085a.1.1,0,0,1-.026.044.451.451,0,0,1-.1.1l-.207.119-.036.036a.118.118,0,0,1,.138.055.128.128,0,0,1,.015.068l.364-.208c.014-.046.021-.084.068-.11l.11-.064a.121.121,0,0,1,.164.043.119.119,0,0,1-.046.164l-.066.037c-.014.048-.02.084-.068.112l-.508.29a.148.148,0,0,1-.066.109l-.121.07-.035.123a.121.121,0,0,1-.058.072l-.2.112-.062.093a.569.569,0,0,1-.163.107l-.006.019.007.119c0,.093-.08.122-.148.16l-.051.078-.044.152c-.016.061-.073.082-.122.109l-.011.038a.8.8,0,0,1-.1.153l-.01.013-.136.148a.805.805,0,0,1-.151.1l-.011.037a.621.621,0,0,1-.083.135c-.02.07-.019.107-.087.147l-.037.123a.118.118,0,0,1-.068.078c-.052.183-.1.366-.155.55a.757.757,0,0,1-.084.136l-.141.493a.6.6,0,0,1-.085.136l-.037.135a.416.416,0,0,1-.008.179l-.088.173a.6.6,0,0,1,0,.147l-.108.378a.121.121,0,0,1,.022.078l-.018.225a.917.917,0,0,1-.04.147l.068.119a.135.135,0,0,1,0,.128c.05.088.066.09.038.193l.068.12a.15.15,0,0,1,0,.126l.129.114a.117.117,0,0,1,.039.074c4.176-2.72,8.365-5.733,12.513-7.824,1.125-.57,1.7-.822,3.282.425l4.755,9.946c-19.126,3.475-20.19,12.379-25.684,16.726-1.681,1.33,2.5.314,3.188.7l.025-.011.015-.009h0a.331.331,0,0,1,.138-.042.312.312,0,0,1,.229-.026l.043.012a.307.307,0,0,1,.216.382.345.345,0,0,1-.026.062c-.125.656-3.146,3.653-.706,2.232,2.879-1.674,14.992-5.477,20.368-9.171,4.609-3.169,2.538-6.279,5.005-7.717l4.9,8.47c-4.181-.488-19.157,10.333-19.748,14.623-.16,1.155,9.2-1.771,14.645-5.89,6.586-4.977,3.079-5.878,5.5-7.485,1.952,4.5,4.377,8.672,6.209,13.175,2.525,6.208,4.439,12.746,7.132,18.949,1.595,3.674,3.782,7.331,5.377,11l1.362-1.088c-1.569-3.845-3.888-6.754-5.457-10.6-3.225-7.9-5.776-15.984-9-23.886a6.093,6.093,0,0,1-.018-3.764c.323-1.6.539-4.011,1.093-4.663a1.718,1.718,0,0,0,2.165.679,33.02,33.02,0,0,0,4.852-3.252l.005-.02a.33.33,0,0,1,.173-.2l-.02.074a.316.316,0,0,1,.148-.183l.023-.013-.024.082h0a.294.294,0,0,1,.053-.106l.009-.032v-.018h0a.3.3,0,0,1,.053-.188l.007-.01a.32.32,0,0,1,.012-.114l.044-.159v0h0v-.006a.319.319,0,0,1,.15-.19l.3-.173a.325.325,0,0,1,.136-.043l1.9-1.086q.726-.606,1.465-1.239l.034-.122h0a.4.4,0,0,1,.052-.106.324.324,0,0,1,.092-.144l.01-.022v-.044a.312.312,0,0,1,.16-.289l.147-.085.035-.037a.5.5,0,0,1,.092-.07.488.488,0,0,1,.066-.07.31.31,0,0,1,.1-.1.4.4,0,0,1,.063-.068l.024-.032a.342.342,0,0,1,.083-.1.3.3,0,0,1,.082-.084.27.27,0,0,1,.049-.081.5.5,0,0,1,.029-.045.323.323,0,0,1,.146-.185l1.85-1.056q.81-.73,1.6-1.457l0,0,.011-.038h0a.294.294,0,0,1,.058-.114l0-.022a.319.319,0,0,1,.011-.122l.023-.084.011-.039a.288.288,0,0,1,.01-.116l.012-.043.048-.166,0,0v-.01a.32.32,0,0,1,.117-.265l.024-.032a.326.326,0,0,1,.126-.129l.624-.356a.3.3,0,0,1,.1-.1h0a.364.364,0,0,1,.048-.078.325.325,0,0,1,.126-.129l.629-.359-.023.082h0a.321.321,0,0,1,.149-.19l.018-.009a.333.333,0,0,1,.062-.068.245.245,0,0,1,.047-.055l.005-.016h0a2.837,2.837,0,0,0,.292-.452l.512-.292a.326.326,0,0,1,.1-.1l.3-.173a.31.31,0,0,1,.2-.04h0a.322.322,0,0,1,.108-.037c3.375-3.278,5.758-5.863,5.576-6.149Zm-7.634,6.082a.124.124,0,0,1,.169-.036.118.118,0,0,1,.032.167l-.08.116a.292.292,0,0,1-.106.075c-.014.047-.021.084-.069.112l-.23.131-.011.037c-.021.074-.021.125-.093.165-.03.1-.045.1-.134.149a.151.151,0,0,1-.068.11l-.122.069-.01.038c-.016.057-.025.126-.082.158l-.176.1c-.03.1-.045.1-.135.146-.017.059-.02.085-.078.119l-.035.122a.127.127,0,0,1-.057.072l-.195.113-.053.077c-.015.054-.022.108-.076.139l-.121.069a.155.155,0,0,1-.069.11l-.231.134c-.014.046-.02.082-.069.11l-.12.068a.3.3,0,0,1-.027.073.586.586,0,0,1-.121.155l-.587.336-.121.133a.277.277,0,0,1-.069.046l-.12.134a.824.824,0,0,1-.153.094.144.144,0,0,1-.068.11l-.374.215-.235.2a.118.118,0,0,1-.17-.012.116.116,0,0,1,.014-.167l.242-.211.02-.014.342-.2a.145.145,0,0,1,.067-.11l.149-.084.12-.133a.251.251,0,0,1,.069-.048l.12-.132a.144.144,0,0,1,.03-.025l.582-.331.052-.078c.015-.053.021-.107.076-.138l.121-.07c.014-.048.02-.083.068-.111l.233-.132a.144.144,0,0,1,.067-.111l.121-.067a.212.212,0,0,1,.027-.074c.028-.041.078-.132.12-.154l.176-.1.035-.123a.133.133,0,0,1,.068-.079c.029-.1.045-.1.135-.149a.151.151,0,0,1,.068-.11l.177-.1.009-.036c.016-.057.025-.127.083-.16l.12-.068c.029-.1.046-.1.135-.149a.148.148,0,0,1,.079-.118l.01-.036c.017-.056.026-.126.082-.158l.231-.133.012-.038c.017-.063.087-.09.142-.12l.062-.093Zm2.8-2.576a.123.123,0,0,1,.15-.085.119.119,0,0,1,.083.147l-.072.256a.127.127,0,0,1-.057.072l-.251.143a.388.388,0,0,1-.116.138.152.152,0,0,1-.078.117.148.148,0,0,1-.069.109l-.121.07c-.022.083.043.191-.062.251l-.231.13a.146.146,0,0,1-.067.111l-.232.132c-.029.1-.044.1-.134.149-.035.125-.073.253-.108.379a.12.12,0,0,1-.056.073l-.2.112-.063.092a.3.3,0,0,1-.108.076c-.017.059-.02.084-.078.117-.03.1-.046.1-.135.149-.017.059-.021.083-.08.116l-.01.038a2.691,2.691,0,0,1-.174.267.2.2,0,0,1-.08.061l-.121.133c-.009.012-.044.032-.019.019l0,.066c0,.085-.065.115-.127.149-.014.047-.021.084-.069.11l-.12.07c-.018.058-.021.083-.08.116-.029.1-.046.1-.135.148a.145.145,0,0,1-.068.111l-.147.084-.115.128a.586.586,0,0,1-.115.147l-.424.242-.12.134a.2.2,0,0,1-.031.024l-.2.117-.116.126-.075.11a.284.284,0,0,1-.107.075l-.034.122a.122.122,0,0,1-.07.08c-.013.047-.02.084-.067.111l-.386.219a.118.118,0,1,1-.117-.206l.341-.2c.017-.059.02-.081.08-.116l.034-.124c.018-.064.088-.089.142-.119a.978.978,0,0,1,.074-.108l.134-.148a.137.137,0,0,1,.03-.024l.2-.116.121-.133a.078.078,0,0,1,.029-.025l.416-.237a1.058,1.058,0,0,1,.073-.107l.134-.149a.917.917,0,0,1,.153-.094c.029-.1.045-.1.134-.147.016-.059.021-.084.08-.118a.149.149,0,0,1,.067-.11l.121-.07c.026-.089.035-.091.114-.135-.006-.114-.012-.138.1-.2l.12-.133a.185.185,0,0,1,.062-.042l.063-.094.067-.1c.02-.068.021-.108.088-.147.029-.1.045-.1.136-.148.015-.057.018-.083.078-.117l.011-.037c.018-.064.085-.091.142-.122a.428.428,0,0,1,.1-.13l.176-.1c.027-.1.055-.2.084-.295.037-.136.023-.126.147-.2.014-.046.02-.084.068-.11l.231-.132c.014-.046.021-.084.068-.11l.211-.121a.33.33,0,0,1,0-.1c.016-.057.024-.125.082-.156l.119-.071c.018-.06.023-.084.081-.117.022-.077.026-.087.1-.127a.465.465,0,0,1,.1-.132l.232-.132.058-.208Zm1.294-2a.121.121,0,0,1,.166.043.124.124,0,0,1-.046.164l-.882.5a.153.153,0,0,1-.129,0,.141.141,0,0,1-.14.008l-.783.447a.145.145,0,0,1-.13,0l-.561.322a.641.641,0,0,1-.194.024.26.26,0,0,1-.077-.014l-1.057.6a.151.151,0,0,1-.128,0l-.617.353a.158.158,0,0,1-.131,0l-.177.1a.081.081,0,0,1-.034.012l-.177.038-.148.084a.12.12,0,0,1-.165-.042.121.121,0,0,1,.046-.165l.165-.093a.149.149,0,0,1,.036-.014l.178-.038.2-.114a.14.14,0,0,1,.129,0l.618-.354a.151.151,0,0,1,.128,0l1.058-.6c.052-.032.1-.009.158.006l.093-.007.58-.332a.152.152,0,0,1,.13,0l.782-.447a.155.155,0,0,1,.13,0,.146.146,0,0,1,.14-.008l.836-.478Zm.546.189a.119.119,0,0,1,.164.043.121.121,0,0,1-.045.164l-.178.1-.059.207c-.018.065-.087.092-.142.122l-.062.093a.234.234,0,0,1-.079.061l-.121.133a.584.584,0,0,1-.116.072.716.716,0,0,1-.087.121l-.293.235-.128.142a.3.3,0,0,1-.067.047l-.122.133a.12.12,0,0,1-.17.01.117.117,0,0,1-.008-.169l.135-.148a.239.239,0,0,1,.067-.045l.121-.135.015-.013.285-.231c.09-.135.062-.113.2-.191l.121-.136a.225.225,0,0,1,.06-.04l.063-.094a.319.319,0,0,1,.108-.076l.059-.208a.123.123,0,0,1,.057-.072l.22-.126Zm-.692,1.756a.435.435,0,0,1,0-.106c.039-.136.024-.125.149-.2l.034-.121a.128.128,0,0,1,.07-.081c.009-.04.022-.08.033-.121a.9.9,0,0,1,.1-.152.178.178,0,0,1,.053-.046.152.152,0,0,1,.068-.11l.121-.067.012-.039a.562.562,0,0,1,.085-.136l.018-.065a.124.124,0,0,1,.149-.088.117.117,0,0,1,.082.147l-.023.087a.654.654,0,0,1-.084.134c-.016.055-.022.109-.078.14l-.12.07a.149.149,0,0,1-.1.127l-.052.077-.019.066c-.02.073-.021.125-.092.165l-.036.123c-.016.061-.073.083-.123.112l-.005.017.005.121a.125.125,0,0,1-.061.111h0l-.009.005c-.029.1-.045.1-.136.148-.021.08-.026.088-.1.128l-.052.077c-.036.125-.03.114-.143.177l-.035.122a.123.123,0,0,1-.068.081c-.017.059-.021.084-.079.116l-.06.209a.119.119,0,0,1-.057.073l-.194.111a.474.474,0,0,1-.1.132l-1.1.627a.121.121,0,0,1-.165-.042.119.119,0,0,1,.047-.164l1.075-.614a.467.467,0,0,1,.1-.132l.176-.1.059-.207a.128.128,0,0,1,.068-.079c.018-.061.022-.085.081-.118l.035-.123c.017-.061.072-.083.123-.111l.01-.036a.884.884,0,0,1,.1-.154.158.158,0,0,1,.052-.044c.029-.1.046-.1.133-.147.019-.062.03-.083.057-.1Zm-9.072,7.618,0-.066a.111.111,0,0,1,.031-.088l.133-.148c.04-.044.034,0,.053-.068a.124.124,0,0,1,.149-.086.118.118,0,0,1,.083.147l-.024.084c-.015.054-.051.07-.1.1l-.086.1,0,.09a.125.125,0,0,1-.062.112h0l-.011.006a.225.225,0,0,1-.027.072.591.591,0,0,1-.12.154l-.177.1a.144.144,0,0,1-.067.11l-.232.132a.148.148,0,0,1-.079.117c-.017.058-.02.083-.079.116-.016.059-.02.084-.079.117a.281.281,0,0,1-.026.072.6.6,0,0,1-.122.156l-.139.08-.064.094a.184.184,0,0,1-.071.055l-.051.075c-.036.125-.031.114-.144.179l-.011.038a.72.72,0,0,1-.083.134c-.035.124-.03.114-.143.178-.02.071-.023.084-.091.124l-.087.168c-.024.049-.087.075-.133.1a.461.461,0,0,1-.105.132l-.209.119-.236.2a.863.863,0,0,1-.116.068l-.179.17a.119.119,0,1,1-.165-.172l.189-.179a.788.788,0,0,1,.123-.074l.236-.2a.046.046,0,0,1,.019-.013l.2-.112c.082-.12.058-.105.182-.176l.087-.17a.14.14,0,0,1,.06-.058c.03-.1.046-.1.134-.147l.011-.038a.6.6,0,0,1,.085-.135c.034-.124.029-.113.142-.178l.011-.037a.734.734,0,0,1,.095-.152.177.177,0,0,1,.07-.055.493.493,0,0,1,.1-.132l.141-.079.051-.078c.02-.067.021-.106.088-.145a.148.148,0,0,1,.079-.118c.017-.059.02-.082.08-.116.013-.047.019-.082.068-.11l.231-.132c.013-.047.021-.084.068-.11l.2-.111.052-.079c.023-.082.028-.1.068-.131Zm-5.9,3.811a.125.125,0,0,1,.169-.034.117.117,0,0,1,.032.167l-.08.116a.112.112,0,0,1-.052.044.15.15,0,0,1-.067.111l-.121.069-.011.038a.651.651,0,0,1-.085.136c-.016.053-.022.107-.076.138l-.176.1c-.013.049-.021.084-.068.11l-.195.113a.44.44,0,0,1-.106.131l-.285.163a.154.154,0,0,1-.068.112l-.506.289a.152.152,0,0,1-.069.11l-.122.069-.034.122a.122.122,0,0,1-.058.074l-.384.22a.12.12,0,1,1-.118-.208l.34-.195c.058-.2.032-.159.215-.264.013-.047.02-.084.067-.11l.507-.289c.015-.048.021-.084.068-.112l.3-.174a.468.468,0,0,1,.1-.131l.177-.1a.149.149,0,0,1,.068-.112l.176-.1.011-.038a.625.625,0,0,1,.084-.134c.015-.055.022-.11.077-.14l.12-.07c.024-.078.027-.087.1-.127l.062-.094Zm.353-2.3a.119.119,0,1,1-.118-.207l.066-.038c.013-.047.021-.084.068-.11l.121-.07a.155.155,0,0,1,.1-.128.382.382,0,0,1,.115-.137c.013-.046.02-.084.068-.11l.177-.1c.019-.069.038-.139.058-.208a.116.116,0,0,1,.057-.073l.121-.069a.154.154,0,0,1,.08-.119c.014-.046.02-.081.068-.109l-.01.007c0-.07-.015-.136.058-.177l.177-.1.034-.122c.018-.062.075-.083.125-.113a.146.146,0,0,1,.079-.116l.035-.121a.124.124,0,0,1,.069-.081.143.143,0,0,1,.068-.11l.121-.069a.15.15,0,0,1,.1-.128.365.365,0,0,1,.116-.136c.013-.049.019-.084.068-.112l.121-.069a.153.153,0,0,1,.1-.128.384.384,0,0,1,.116-.137.14.14,0,0,1,.068-.11l1.32-.755a.122.122,0,0,1,.165.043.12.12,0,0,1-.047.164l-1.276.73a.151.151,0,0,1-.1.127.408.408,0,0,1-.116.138c-.014.046-.021.083-.068.11l-.121.07c-.023.078-.026.087-.1.128a.362.362,0,0,1-.115.137c-.014.046-.021.083-.068.11l-.121.069c-.017.059-.021.084-.079.117l-.035.123a.128.128,0,0,1-.068.079c-.03.1-.045.1-.136.148l-.035.124a.111.111,0,0,1-.057.072l-.154.089c0,.081.015.134-.07.183-.017.059-.021.083-.08.116a.146.146,0,0,1-.067.111l-.121.069c-.02.07-.04.139-.058.208a.135.135,0,0,1-.059.074l-.176.1c-.022.077-.025.086-.1.127a.431.431,0,0,1-.116.139.144.144,0,0,1-.067.108l-.121.07c-.015.047-.021.083-.069.111l-.11.063Zm-18.792,11.177a.118.118,0,0,1,.164.042.121.121,0,0,1-.046.165l-2.459,1.4-.121.133a.113.113,0,0,1-.031.025l-1,.571c-.013.047-.019.083-.068.11l-.231.133a.162.162,0,0,1-.068.112l-.122.067c-.017.059-.02.084-.079.117l-.01.037c-.019.066-.088.091-.143.122a.372.372,0,0,1-.116.138.18.18,0,0,1-.037.085l-.116.128c-.032.119-.033.108-.139.169a.2.2,0,0,1-.037.085l-.135.149a.223.223,0,0,1-.029.025l-.167.093a.12.12,0,0,1-.164-.042.122.122,0,0,1,.046-.164l.149-.084.1-.113c.034-.118.034-.108.14-.169a.177.177,0,0,1,.038-.086l.115-.126c.025-.088.02-.1.1-.15l.064-.093a.279.279,0,0,1,.108-.075c.017-.059.02-.084.078-.117a.155.155,0,0,1,.069-.111l.122-.07a.139.139,0,0,1,.066-.108l.232-.132c.013-.049.02-.084.067-.111l1.029-.587.122-.135a.086.086,0,0,1,.03-.023l2.476-1.415Zm-3.9-12.4a.119.119,0,0,1,.058-.072l.01-.007c.023-.079.027-.087.1-.128a.37.37,0,0,1,.115-.139l.011-.035c.018-.066.087-.092.142-.122l.062-.094a.223.223,0,0,1,.072-.055l.062-.093h0a.631.631,0,0,1,.121-.156l.176-.1c.017-.059.021-.084.081-.118.012-.045.018-.083.066-.109l.618-.353c.013-.047.019-.083.067-.111l.275-.156a.119.119,0,1,1,.118.206l-.231.133c-.014.046-.021.084-.068.11l-.617.352c-.016.059-.02.083-.079.118-.014.046-.02.082-.067.108l-.2.112-.063.1-.079.116a.173.173,0,0,1-.071.055l-.064.094a.317.317,0,0,1-.107.075c-.022.078-.026.087-.1.127a.391.391,0,0,1-.116.138c-.022.077-.034.091-.079.117l-.021.075c.039.07.013.116-.008.187a.624.624,0,0,1-.085.136l-.013.048a.7.7,0,0,1,0,.158l-.116.409.006.118a.708.708,0,0,1-.04.162.112.112,0,0,1,.017.1l-.034.124.068.118a.12.12,0,0,1-.046.163.119.119,0,0,1-.165-.044l-.093-.161a.119.119,0,0,1-.01-.091l.034-.122a.126.126,0,0,1-.018-.1l.044-.152a.6.6,0,0,1,0-.158l.114-.409-.005-.12a.464.464,0,0,1,.029-.124c.016-.056.072-.1.09-.154a.115.115,0,0,1-.018-.1l.047-.166v-.006Zm-14.164,5.69a.119.119,0,0,1,.164.043.121.121,0,0,1-.048.164l-.6.346a.153.153,0,0,1-.129,0l-2.268,1.3a.121.121,0,0,1-.164-.044.119.119,0,0,1,.046-.162l2.312-1.321a.143.143,0,0,1,.129,0l.563-.321Zm32.573-32.636,0-.066a.124.124,0,0,1,.021-.073l.056-.082h0a.31.31,0,0,1,.014-.328l0,0,0-.006,0-.007a.378.378,0,0,1,.1-.18l.005-.018a.306.306,0,0,1,.1-.158l.014-.02a.306.306,0,0,1,.069-.122h0c.037-.04.062-.068.087-.092a.357.357,0,0,1,.078-.119l.014-.031v0a.308.308,0,0,1,.068-.172.678.678,0,0,1,.054-.121c.029-.1.059-.209.09-.313a.581.581,0,0,1,.048-.11.4.4,0,0,1,.072-.233.476.476,0,0,1,.117-.247.525.525,0,0,1,.043-.078.46.46,0,0,1,.063-.139.387.387,0,0,1,.081-.167l-.006.007c.005-.069.047-.151.046-.208a.349.349,0,0,1,.011-.1h0v0h0l.058-.21a.71.71,0,0,1,.063-.166.277.277,0,0,1,.012-.093c.043-.156.088-.311.131-.467a.9.9,0,0,1,.07-.169.689.689,0,0,0,0-.1.227.227,0,0,1,.012-.1h0v.007a.575.575,0,0,1,.038-.216l.006-.081a.32.32,0,0,1,.338-.292.3.3,0,0,1,.29.329.887.887,0,0,1-.042.251.353.353,0,0,1-.009.113.792.792,0,0,1-.031.271h0v0h0a.464.464,0,0,1-.022.056l-.039.075,0,.013c-.04.139-.08.278-.12.42a.423.423,0,0,1-.021.159v0a.314.314,0,0,1-.044.1l-.01.015-.01.037-.046.164v.02a.838.838,0,0,1-.051.24.372.372,0,0,1-.106.288v0l.008-.024-.011.041h0a.334.334,0,0,1-.043.092l-.012.017-.01.035c-.005.02-.058.126-.052.1h0a.333.333,0,0,1-.069.126l-.018.02,0,.014a.634.634,0,0,1-.048.127v-.014a.456.456,0,0,1-.025.142h0a.316.316,0,0,1-.023.058l-.037.073-.027.1c-.021.071-.041.141-.061.212a.674.674,0,0,1-.06.131l-.016.057a.246.246,0,0,1-.025.061.3.3,0,0,1-.076.186.28.28,0,0,1-.045.065l-.017.02,0,.007,0,.007h0a.315.315,0,0,1-.149.188.243.243,0,0,1-.028.051l-.04.059-.033.049,0,.006,0,0-.011.016a.31.31,0,0,1-.069.12l0,.005.022.039a.317.317,0,0,1-.486.392v.013a.124.124,0,0,1-.061.112h0l-.011.006q-.128.444-.253.892a.719.719,0,0,1-.085.134l-.067.238c-.015.056-.057.073-.1.1l0,.065a2.238,2.238,0,0,1-.063.247.124.124,0,0,1,.017.1l-.121.427-.009.02-.1.2a.132.132,0,0,1-.061.058c-.011.042-.023.082-.034.122a.722.722,0,0,1-.085.136l-.014.049a.627.627,0,0,1,0,.156c-.019.072-.02.125-.091.166l-.036.123a.124.124,0,0,1-.068.079l-.011.037-.047.17a.144.144,0,0,1-.028.05l-.115.127-.113.4a.127.127,0,0,1-.069.079l-.035.123a.937.937,0,0,1-.091.147l-.094.185-.021.073a.669.669,0,0,1-.085.136l-.092.322a.125.125,0,0,1-.068.081c-.042.144-.083.291-.124.436l.032.165a.122.122,0,0,1-.1.142.117.117,0,0,1-.141-.091l-.037-.2a.123.123,0,0,1,0-.054c.049-.172.1-.342.145-.514a.133.133,0,0,1,.069-.078l.083-.294a.734.734,0,0,1,.085-.136.693.693,0,0,1,.027-.088l.1-.2c.022-.038.051-.078.075-.115l.043-.152a.124.124,0,0,1,.069-.078l.108-.379a.112.112,0,0,1,.027-.049l.114-.127.041-.143c.022-.073.022-.124.093-.164l.035-.124a.122.122,0,0,1,.068-.079l.006-.019-.006-.121a.585.585,0,0,1,.028-.123.792.792,0,0,1,.085-.136l.019-.066c.025-.089.018-.122.1-.17l.081-.159.1-.369a.123.123,0,0,1-.016-.1c.022-.077.045-.157.067-.236l-.005-.12c-.005-.087.065-.114.128-.15l.058-.208a.744.744,0,0,1,.085-.136c.088-.3.175-.613.261-.919a.128.128,0,0,1,.047-.067Zm-3.355,5.391a.12.12,0,0,1,.058-.072l.011-.007.01-.037c.021-.072.021-.125.093-.165l.036-.123a.761.761,0,0,1,.094-.152.131.131,0,0,1,.053-.044l.011-.037a.653.653,0,0,1,.084-.137c.031-.107.062-.216.092-.323a.131.131,0,0,1,.068-.079l.046-.159-.038-.065a.129.129,0,0,1-.011-.092l.073-.256a.615.615,0,0,1,.086-.135l.113-.4,0-.005a.118.118,0,0,1,.058-.074l.009-.006.012-.039a.749.749,0,0,1,.085-.134l.043-.152a.676.676,0,0,1,.084-.136l.014-.048a.328.328,0,0,1,.014-.192l.08-.119a.168.168,0,0,1,.052-.044l.011-.037h0c.028-.1.018-.123.111-.176.044-.063.087-.128.132-.193.026-.091.019-.107.107-.157l.05-.076.068-.238a.149.149,0,0,1,.027-.049l.116-.126.04-.143a.129.129,0,0,1,.068-.08l.011-.037c.027-.1.025-.116.072-.151l0-.068a1.29,1.29,0,0,1,.053-.21.117.117,0,0,1,.056-.071l.122-.069.035-.123c.017-.061.074-.083.124-.111l.034-.122a.123.123,0,0,1,.068-.081l.035-.122c.028-.1.018-.124.112-.175l.052-.077c.033-.116.026-.112.131-.172a.12.12,0,0,1,.165.043.119.119,0,0,1-.047.164l-.01.007-.011.037a.768.768,0,0,1-.1.151.119.119,0,0,1-.053.044L778,177.1l-.049.172a.133.133,0,0,1-.068.079l-.035.123c-.018.061-.074.083-.124.111l-.034.123a.136.136,0,0,1-.057.072l-.122.069-.029.1.006.12a.126.126,0,0,1-.063.111l-.022.044c-.02.074-.02.125-.093.164a.537.537,0,0,1-.062.174l-.114.126-.065.229a.881.881,0,0,1-.095.151.114.114,0,0,1-.053.043l-.01.039a.864.864,0,0,1-.1.152l-.079.116a.126.126,0,0,1-.052.045l-.011.037c-.027.1-.017.123-.111.176l-.042.06.006.1a.465.465,0,0,1-.028.123.648.648,0,0,1-.085.135l-.044.152a.632.632,0,0,1-.084.136c-.027.1-.027.109-.088.145l-.107.379a.617.617,0,0,1-.084.137l-.054.189.037.065a.12.12,0,0,1,.011.092v0l-.071.252a.121.121,0,0,1-.069.079c-.028.1-.055.2-.083.293a.638.638,0,0,1-.085.136c-.026.092-.02.107-.105.156l-.054.079-.041.151a.13.13,0,0,1-.069.078c-.013.042-.024.082-.035.124a.138.138,0,0,1-.069.08l0,.018a.654.654,0,0,1,0,.159l-.065.236c.007.181.018.142-.085.3a.5.5,0,0,1-.028.088l-.1.191c-.019.066-.038.132-.055.2l.067.12a.121.121,0,0,1-.21.119l-.094-.161a.113.113,0,0,1-.011-.09c.025-.085.049-.172.073-.258a.169.169,0,0,1,.009-.022l.1-.192.02-.074a.619.619,0,0,1,.074-.117.491.491,0,0,1,0-.138l.067-.238-.005-.12a.431.431,0,0,1,.025-.116v-.007Zm-4.314,7.439a.116.116,0,0,1,.061-.11l.012-.008a.507.507,0,0,1,.062-.171l.114-.126c.019-.066.02-.1.085-.138l.01-.038c.021-.071.023-.124.094-.164.016-.059.021-.084.078-.117l.108-.379a.129.129,0,0,1,.07-.08l.01-.038c.042-.148.031-.128.166-.206l.064-.094a.117.117,0,0,1,.029-.03.35.35,0,0,1,0-.1l.121-.427a.126.126,0,0,1,.068-.08,2.211,2.211,0,0,1,.075-.241c.05-.075.1-.146.148-.218.018-.069.018-.108.087-.147.027-.091.051-.183.077-.274a.765.765,0,0,1,0-.159c.019-.07.021-.12.085-.16a.119.119,0,0,1-.012-.1l.048-.17a.125.125,0,0,1,.149-.086.12.12,0,0,1,.084.148l-.035.121.006.012a.119.119,0,0,1,.011.09v0l0,0h0c-.019.069-.022.119-.092.16l-.005.017.006.121a2.566,2.566,0,0,1-.077.294c-.02.072-.022.124-.093.165l-.012.037a.754.754,0,0,1-.094.151l-.069.1c-.021.079-.045.159-.067.238a.13.13,0,0,1-.068.079l-.1.359.005.12a.124.124,0,0,1-.061.112h0l-.03.016-.064.094a.308.308,0,0,1-.107.075l-.011.038c-.019.071-.021.124-.093.164-.035.128-.071.254-.107.379a.129.129,0,0,1-.069.081.144.144,0,0,1-.079.117l-.01.035c-.02.074-.021.125-.093.167a.2.2,0,0,1-.037.085l-.116.128-.041.143a.124.124,0,0,1-.046.066l0,.067a1.194,1.194,0,0,1-.053.207.678.678,0,0,1-.085.138l-.1.359.067.118a.121.121,0,0,1-.046.165.118.118,0,0,1-.164-.044l-.093-.16a.112.112,0,0,1-.01-.092l.12-.428a.775.775,0,0,1,.085-.136c.012-.043.025-.087.038-.132l-.006-.112v-.007ZM777,169.7a.144.144,0,0,1-.122.03l-.258-.069a.114.114,0,0,1-.083-.145.122.122,0,0,1,.148-.086l.209.056.012-.006a.1.1,0,0,1,.054-.017h.01c.186-.012.147-.027.3.077.054.015.109.019.14.073l.647,1.133a.122.122,0,0,1-.212.122l-.622-1.091-.038-.01a.513.513,0,0,1-.118-.071L777,169.7Zm-1.588-.309a.136.136,0,0,1-.1.019l-.123-.033-.012.006a.119.119,0,0,1-.165-.042.121.121,0,0,1,.047-.164c.048-.028.087-.061.148-.045l.124.033.009,0a.124.124,0,0,1,.093-.013h.005l.081.023a.654.654,0,0,1,.134.079l.153.042a.109.109,0,0,1,.074.056l.678,1.186a.122.122,0,0,1-.211.121l-.654-1.145-.123-.032a.652.652,0,0,1-.136-.081l-.018-.005Zm-2.856,6a.119.119,0,0,1,.005-.127l.068-.1.02-.067c.019-.068.039-.138.058-.208-.039-.068-.014-.112.005-.18V174.7a.128.128,0,0,1,.057-.073l.012-.006.011-.038.018-.066-.005-.12a1.317,1.317,0,0,1,.052-.208.119.119,0,0,1,.069-.079l.034-.124.025-.086a.792.792,0,0,1,.1-.151.131.131,0,0,1,.053-.046l.034-.122a.124.124,0,0,1,.15-.085.118.118,0,0,1,.083.147l-.024.084c-.028.1-.019.124-.111.176l-.052.077c-.023.08-.046.159-.067.238a.138.138,0,0,1-.07.08l-.029.1.006.121a1.529,1.529,0,0,1-.053.21.13.13,0,0,1-.061.074.113.113,0,0,1,.012.1c-.031.114-.063.228-.095.343a.526.526,0,0,1-.055.092.113.113,0,0,1,.006.077c-.015.052-.029.1-.045.154l.006.12a.316.316,0,0,1-.023.105l.006.118a.725.725,0,0,1-.039.163l.13.225a.122.122,0,0,1-.211.122l-.155-.271a.117.117,0,0,1-.01-.09c.015-.051.028-.1.042-.152l-.006-.121a.427.427,0,0,1,.025-.1l-.006-.12a.791.791,0,0,1,.039-.16l0-.011Zm-1.035,5.9a.511.511,0,0,1,0-.108l.048-.172a.13.13,0,0,1,.068-.079l.131-.463a.681.681,0,0,1,.085-.136l.039-.133-.006-.121a1.194,1.194,0,0,1,.046-.189.638.638,0,0,1,0-.158c.019-.072.02-.125.091-.166l.011-.037a.126.126,0,0,1,.151-.085.118.118,0,0,1,.082.147c-.021.071-.022.124-.093.164l-.005.018.005.12a.987.987,0,0,1-.046.19.655.655,0,0,1,0,.16l-.048.17a.679.679,0,0,1-.084.136l-.14.494a.129.129,0,0,1-.069.079l-.029.1.006.12a.126.126,0,0,1-.062.111h0l-.009.006-.083.293a.683.683,0,0,1-.084.137c-.047.164-.093.329-.141.493a.113.113,0,0,1-.027.049l-.133.147a.12.12,0,0,1-.17.011.117.117,0,0,1-.01-.167l.115-.129.017-.059.121-.425a.65.65,0,0,1,.084-.136l.044-.152.022-.085c.027-.093.027-.116.071-.149Zm4.945-7.3a.123.123,0,0,1,.149-.086.119.119,0,0,1,.085.146q-.156.555-.316,1.11a.832.832,0,0,1-.094.153.153.153,0,0,1-.053.044c-.053.182-.1.366-.156.549-.018.061-.074.082-.123.112l-.011.035c-.038.136-.023.127-.147.2-.017.058-.022.083-.081.117l-.052.189a.748.748,0,0,1,0,.157c-.065.229-.131.457-.2.684-.038.136-.023.126-.148.2-.027.1-.055.2-.082.294a.7.7,0,0,1-.085.136c-.016.055-.022.11-.077.14l.011-.006a.361.361,0,0,1,0,.1c-.049.172-.1.342-.145.513a.825.825,0,0,1-.1.151.117.117,0,0,1-.052.044l-.127.453-.018.213a.122.122,0,0,1-.129.112.116.116,0,0,1-.112-.125l.018-.227a.1.1,0,0,1,0-.022l.145-.512c.014-.05.047-.067.087-.091l.053-.077c.045-.157.089-.317.134-.474l-.005-.121a.122.122,0,0,1,.073-.117l.01-.038a.846.846,0,0,1,.085-.136l.043-.152.024-.084c.037-.136.023-.125.148-.2.066-.234.132-.466.2-.7a.652.652,0,0,1,0-.159l.073-.255a.128.128,0,0,1,.067-.08c.031-.1.046-.1.136-.148l.01-.038c.039-.136.024-.127.149-.2.052-.182.1-.367.154-.549.015-.05.047-.066.089-.091l.051-.076q.157-.546.309-1.09Zm-39.128-.294h.006a.118.118,0,0,1,.111.059h0l.006.011c.1.025.1.036.142.119a.121.121,0,0,1-.046.164.126.126,0,0,1-.093.013l0,0h0a.372.372,0,0,1-.111-.035l-.017.012,0,0-.005,0-.047.026-.053.029a.149.149,0,0,1-.13,0c-.09.05-.094.067-.2.04l-.01.006a.127.127,0,0,1-.092.013h-.006l-.166-.045c-.061-.016-.082-.07-.111-.12-.058-.015-.083-.018-.116-.076-.1-.028-.1-.044-.148-.13l-.024-.007h0a.086.086,0,0,1-.043-.017h0l0,0,0,0,0,0-.107-.069a.185.185,0,0,1-.052-.063l-.169-.083a.118.118,0,0,1-.051-.161.121.121,0,0,1,.162-.054l.144.07.274-.155a.117.117,0,0,1,.092-.013l.007,0h0c.143.036.124.028.2.159l.078.051c.068.018.107.018.145.083.059.016.085.021.117.077h.006l.005,0h.005l0,0,.121-.008a.123.123,0,0,1,.119.071.2.2,0,0,1,.078.027ZM760,158.108a.122.122,0,0,1-.148.086.117.117,0,0,1-.086-.146c.02-.072.021-.124.093-.164l.036-.124a.115.115,0,0,1,.068-.078c.017-.059.021-.084.079-.119l.012-.037c.017-.063.086-.09.142-.122l.04-.059-.005-.1a.49.49,0,0,1,.028-.123c.02-.072.021-.125.092-.165.02-.07.041-.139.061-.208.037-.137.023-.126.147-.2.02-.07.039-.14.06-.209a.922.922,0,0,1,.094-.152.147.147,0,0,1,.052-.044l.012-.037.023-.086a.785.785,0,0,1,.085-.136l.037-.133a.693.693,0,0,1,0-.158l.048-.17a.1.1,0,0,1,.008-.023l.1-.2a.122.122,0,0,1,.163-.054.116.116,0,0,1,.054.158l-.1.193-.04.14a.7.7,0,0,1,0,.158l-.048.172a.83.83,0,0,1-.084.135l-.019.066h0c-.028.1-.019.122-.112.175l-.051.076-.02.068-.024.084c-.038.136-.024.127-.147.2-.028.1-.055.2-.085.295a.126.126,0,0,1-.068.079c-.009.034-.018.068-.029.1.01.192.018.145-.094.31a.343.343,0,0,1-.107.075c-.017.058-.02.084-.079.116-.017.059-.021.083-.079.116l-.036.124a.12.12,0,0,1-.068.079l-.01.037Zm.9,16.884-.093.124.093-.124Zm-2.3-13.714h0a.113.113,0,0,1,.011.092l-.012.043-.024.084-.012.043c-.01.034-.04.061-.047.082l0,.05a3.031,3.031,0,0,1-.088.338c-.011.038-.037.054-.05.1v0l0,.005a.119.119,0,0,1-.041.061l-.011.039-.011.038h0v0a.125.125,0,0,1-.058.074l-.011.006v-.005l-.019.066,0,.023h0a.122.122,0,0,1,.01.092c-.017.062-.039.057-.057.12l-.006.023c-.011.039-.04.057-.052.1a.693.693,0,0,1-.057.12,1.83,1.83,0,0,0-.074.261l0,.051a.6.6,0,0,1-.029.122c-.018.065-.033.059-.057.121a3.745,3.745,0,0,0-.115.407.177.177,0,0,0-.005.076.8.8,0,0,1-.041.165c-.007.027-.038.05-.044.078l-.056.194a.109.109,0,0,1-.04.061l-.048.168a.211.211,0,0,1-.033.061.26.26,0,0,1-.06.188l-.03.107a.1.1,0,0,1,0,.071l-.012.043c-.025.094-.052.187-.078.279v.051a.46.46,0,0,1-.071.194l-.063.226a.224.224,0,0,1,0,.089l-.009.04a.129.129,0,0,1,0,.073l-.006.023,0,.05a1.346,1.346,0,0,1-.061.231,1.228,1.228,0,0,1-.06.114.333.333,0,0,1-.063.083.249.249,0,0,0,0,.073.932.932,0,0,1-.047.191l0,.051a.777.777,0,0,1-.041.165c-.01.034-.04.061-.046.083a.306.306,0,0,1-.021.153l0,.051a.651.651,0,0,1-.037.154.836.836,0,0,1-.012.126l-.061.213a.136.136,0,0,1-.019.041.092.092,0,0,1-.006.044l-.03.11,0,.05a.651.651,0,0,1-.037.148.245.245,0,0,1,0,.083.118.118,0,0,1,0,.074l-.023.083a.124.124,0,0,1,0,.069.121.121,0,0,1,0,.073l-.08.281a.231.231,0,0,1,0,.087l-.057.207v0h0v0a.154.154,0,0,1-.021.04.169.169,0,0,1,0,.045l-.013.043c-.011.042-.024.086-.037.129a.263.263,0,0,1-.045.077l-.024.089a.363.363,0,0,1,0,.086.108.108,0,0,1,0,.073l-.009.036a.136.136,0,0,1,.017.1l-.081.28a.289.289,0,0,1,0,.088l-.048.168a.121.121,0,0,1,0,.073l-.011.039a.117.117,0,0,1,0,.074l-.022.079-.01-.016h0a.122.122,0,0,1,.011.092l-.012.043-.031.107,0,.051a.48.48,0,0,1-.029.125c-.01.037-.039.055-.05.094l-.009-.015h0a.112.112,0,0,1,.01.09c-.033.12-.069.243-.1.367l0,.05a.551.551,0,0,1-.029.123.328.328,0,0,1-.068.137.123.123,0,0,1-.169.034.117.117,0,0,1-.029-.166l.026-.042.027-.091a.28.28,0,0,1,0-.087l.1-.344c-.019-.051,0-.078.02-.153a.328.328,0,0,1,.046-.077l.014-.048,0-.051a.9.9,0,0,1,.039-.164.115.115,0,0,1,0-.072l.024-.084a.108.108,0,0,1,0-.071l0-.005h0l.011-.036a.1.1,0,0,1,0-.071h0v-.007l.053-.188a.268.268,0,0,1,0-.089l.069-.251-.005-.011a.108.108,0,0,1-.011-.091h0l0-.005.008-.034a.121.121,0,0,1,0-.073l0-.005h0l0-.019,0-.05a.793.793,0,0,1,.041-.166.3.3,0,0,1,.045-.077l.03-.107a.121.121,0,0,1,0-.073v0l.01-.038a.132.132,0,0,1,.042-.062l.041-.148a.288.288,0,0,1,0-.088l.072-.254a.12.12,0,0,1,0-.07.15.15,0,0,1,0-.073h0l0-.005h0l.022-.077a.124.124,0,0,1,0-.071v-.008l0-.018a.288.288,0,0,1,.015-.13.243.243,0,0,0,.016-.117.556.556,0,0,1,.028-.122.117.117,0,0,1,.014-.106v0l0-.005.025-.036.044-.152a.589.589,0,0,0,.014-.132c0-.026.028-.1.037-.132a.339.339,0,0,1,0-.09l.02-.066a.273.273,0,0,1,.014-.13.277.277,0,0,1,.046-.079c.007-.029.016-.059.024-.089a.286.286,0,0,1,0-.088l.044-.154,0-.049a.606.606,0,0,1,.03-.124.119.119,0,0,1,.057-.072h0a.646.646,0,0,0,.066-.113l.039-.14a.239.239,0,0,1,0-.084.121.121,0,0,1,0-.075l0,0,.017-.061a.293.293,0,0,1,0-.089l.072-.256a.788.788,0,0,1,.056-.113c.009-.032,0-.066.006-.1l.083-.295a.134.134,0,0,1,0-.074l0-.005.047-.166c.009-.031.041-.061.046-.081a.185.185,0,0,1,.047-.166c.018-.065.038-.129.055-.2a.127.127,0,0,1,.057-.073h0l-.015.008.046-.164a.387.387,0,0,1,.045-.078l.026-.091a.38.38,0,0,1,0-.089c.041-.141.081-.284.121-.425a.284.284,0,0,1,.057-.12l.027-.091a.287.287,0,0,1,0-.088c.028-.1.057-.2.085-.3a.3.3,0,0,1,.044-.076c.006-.023.013-.044.019-.068s.041-.056.052-.1a.273.273,0,0,1,.035-.065.1.1,0,0,1,0-.025v-.01l0-.059a.438.438,0,0,1,.028-.123c.023-.08.032-.1.08-.122l.025-.082a.108.108,0,0,1,.041-.062.278.278,0,0,1,.042-.072c.025-.088.048-.177.073-.262a.332.332,0,0,1,0-.089.309.309,0,0,1,.057-.12l.031-.107a.11.11,0,0,1,0-.087l.065-.145a.123.123,0,0,1,.159-.063.119.119,0,0,1,.062.158l-.04.088-.014-.026Zm-4.756,10.331a.175.175,0,0,1-.074.117l-.012.018-.019.066a.331.331,0,0,1-.1.134c-.017.007-.034.083-.044.117v0h0v.006a.133.133,0,0,1-.058.074h0l-.013.018-.006.023a.144.144,0,0,1-.041.063l-.022.076,0,.005a.092.092,0,0,1-.02.041v.007a.567.567,0,0,1-.028.123.73.73,0,0,1-.056.112c-.04.14-.079.277-.117.415a.2.2,0,0,0-.005.076.475.475,0,0,1-.029.123.267.267,0,0,1-.034.065.146.146,0,0,1,0,.062c-.008.026-.04.117-.029.135a.116.116,0,0,1,.01.092l-.01.037.006.01a.29.29,0,0,1,.018.1h0a.123.123,0,0,1,.01.091l-.011.038a.155.155,0,0,1,.007.143.13.13,0,0,1,0,.068.149.149,0,0,1,0,.073l-.025.086a.1.1,0,0,1-.017.037c.009.034.017.067.028.108s-.008.065-.006.11c.033.056.038.074.027.117a.268.268,0,0,1,.011.1.074.074,0,0,1,0,.033l.178.308a.147.147,0,0,1,0,.128c.034.061.042.078.033.122l.1.174a.117.117,0,0,1,.012.086c.028.048.029.065.005.145a.124.124,0,0,1-.149.086.116.116,0,0,1-.082-.147l0,.005-.007-.012a.119.119,0,0,1-.013-.084l-.1-.174a.117.117,0,0,1-.014-.085.153.153,0,0,1-.022-.166l-.175-.309a.11.11,0,0,1-.012-.09v-.006c0-.012.009-.032,0-.043a.392.392,0,0,0-.034-.148.317.317,0,0,1,0-.119l-.022-.077-.007-.015a.117.117,0,0,1,.006-.126v0l0,0,.024-.035.007-.023a.111.111,0,0,1,0-.07.115.115,0,0,1,0-.071l0-.006.009-.037v.005a.156.156,0,0,1-.005-.145.169.169,0,0,1-.009-.072.154.154,0,0,1-.017-.164.3.3,0,0,1-.009-.1.433.433,0,0,1,.027-.121.127.127,0,0,1,0-.072v-.006h0a.3.3,0,0,1,.056-.114l.014-.048a.252.252,0,0,1,0-.087c.041-.143.081-.286.12-.428a.73.73,0,0,1,.068-.156.246.246,0,0,0,.013-.1.119.119,0,0,1,.045-.1l.022-.081a.117.117,0,0,1,.042-.062.14.14,0,0,1,.015-.033.315.315,0,0,1,.062-.08.529.529,0,0,1,.041-.12.283.283,0,0,1,.084-.1l.013-.018a.341.341,0,0,1,.074-.16c.015-.023.061-.048.024-.028l.011-.038a.119.119,0,0,1,.057-.072v0l-.03.017a.4.4,0,0,1,.022-.114.265.265,0,0,1,.055-.119c.02-.066.038-.13.056-.195a.409.409,0,0,1,.093-.123.123.123,0,0,1,.171-.01.117.117,0,0,1,.009.168l-.047.052c-.018.063-.036.125-.053.188-.012.039-.04.057-.053.1l-.008.031-.008.1a.11.11,0,0,1-.042.083Zm-31.667-26.3a.108.108,0,0,1,.071,0l.085.023a.111.111,0,0,1,.072,0l.211.054-.017.009h0a.13.13,0,0,1,.091-.011l.026.005a.311.311,0,0,1,.132.013.415.415,0,0,1,.119.055.8.8,0,0,0,.144.037l0,0h.007v0a.126.126,0,0,1,.061.039l.168.044a.26.26,0,0,1,.078.043l.048.013a.177.177,0,0,1,.166.043c.021,0,.042.012.062.016l-.017.008v0a.128.128,0,0,1,.092-.013c.027.008.053.014.081.02l-.017.012v0a.129.129,0,0,1,.091-.011c.079.019.161.04.239.061l.051,0a.588.588,0,0,1,.125.025c.038.01.058.039.1.052l.037.009h0l0,0a.131.131,0,0,1,.063.039l.339.09a.093.093,0,0,1,.056.031.171.171,0,0,1,.151.045l.106.028a.121.121,0,0,1,.073,0l.111.028h.021l0,0a.126.126,0,0,1,.092-.012l.041.011a.414.414,0,0,1,.1-.013.482.482,0,0,1,.119.026l-.013.007a.412.412,0,0,1,.194,0l.005,0a.141.141,0,0,1,.046,0l.043.013.085.022a.118.118,0,0,1,.085.146.124.124,0,0,1-.15.085l-.083-.021a.124.124,0,0,1-.108-.012l0,0h0l-.043,0c-.079.026-.173-.043-.207-.023a.122.122,0,0,1-.093.012l0,0h0l-.036-.01a.339.339,0,0,1-.1.013.551.551,0,0,1-.124-.025.135.135,0,0,1-.072,0l0,0-.082-.021a.4.4,0,0,1-.145-.054.287.287,0,0,1-.113-.012.126.126,0,0,1-.071-.055l.009.013-.338-.088a.116.116,0,0,1-.061-.037.254.254,0,0,1-.077-.029.165.165,0,0,0-.139-.036,1.722,1.722,0,0,1-.255-.059c-.052.018-.08,0-.155-.019h0c-.053.02-.081,0-.156-.019a.227.227,0,0,1-.1-.042.235.235,0,0,1-.111-.014.268.268,0,0,1-.12-.054l-.2-.052a.105.105,0,0,1-.061-.038l-.127-.032a.3.3,0,0,1-.076-.045l-.049-.012a.32.32,0,0,1-.083,0,.138.138,0,0,1-.076,0l-.211-.057a.126.126,0,0,1-.074,0h-.007l-.037-.009-.039-.01a.133.133,0,0,1-.074,0l-.005,0h0l-.548-.145a.184.184,0,0,0-.086.012.121.121,0,0,1-.142-.094.124.124,0,0,1,.1-.142.452.452,0,0,1,.154-.018l.555.145ZM718.967,143l.374.1.1.007c.054,0,.075.04.126.054l.065.016c.063.017.07,0,.133.013a.673.673,0,0,1,.12.053,1.209,1.209,0,0,0,.2.053c.1.025.114.022.176.108.013.021.042.02.068.025h0l.006,0h.006l0,0v0a.116.116,0,0,1,.072.057h0l.019.012.005,0,.043,0h.005v0a.121.121,0,0,1,.113.06l.006.012H720.6a.236.236,0,0,1,.076.026c.055.033.107.069.161.1l.362.1.038-.023a.156.156,0,0,1,.135,0l.085.023a.248.248,0,0,1,.078.043l.231.061h0l0,0a.127.127,0,0,1,.062.039l.039.01.069.018a.277.277,0,0,1,.12.011h.007l0,0a.132.132,0,0,1,.062.039c.034.01.055.035.093.047h.005a.11.11,0,0,1,.061.041l.082.021a.263.263,0,0,0,.118.013c.053,0,.189.057.217.043h0a.114.114,0,0,1,.092-.013l.044.011a.282.282,0,0,1,.081.03.09.09,0,0,1,.046,0c.043.011.087.024.13.034a.114.114,0,0,1,.081.146.121.121,0,0,1-.148.086l-.082-.023a.12.12,0,0,1-.109-.012h0l0,0h0a.321.321,0,0,0-.055-.03.1.1,0,0,1-.036.009.441.441,0,0,1-.109,0l-.152-.039a.339.339,0,0,1-.09,0c-.071-.017-.142-.036-.213-.055a.133.133,0,0,1-.063-.039c-.036-.011-.057-.037-.1-.051a.124.124,0,0,1-.054-.03.267.267,0,0,1-.075,0c-.057-.016-.114-.032-.171-.046a.124.124,0,0,1-.062-.04l-.211-.055a.314.314,0,0,1-.078-.043l-.065-.018,0,0-.038.023a.13.13,0,0,1-.092.011h-.006l-.424-.112a1.221,1.221,0,0,1-.194-.119c-.079-.02-.1-.023-.131-.064a.293.293,0,0,1-.116-.03.4.4,0,0,1-.081-.06.3.3,0,0,1-.181-.116l-.209-.056a.255.255,0,0,1-.119-.055l-.024-.006a.19.19,0,0,0-.075,0,.563.563,0,0,1-.126-.025.284.284,0,0,1-.108-.048.718.718,0,0,1-.106-.01c-.143-.037-.286-.074-.429-.113a.117.117,0,0,1-.072-.054h0l.009.015-.039-.01c-.049-.014-.107-.086-.144-.124a.119.119,0,0,1,.005-.168.121.121,0,0,1,.172,0l.067.069c.061.016.085.02.112.053Zm16.345,15.138a.117.117,0,0,1,.085.146.123.123,0,0,1-.149.086c-.058-.015-.127-.022-.159-.078l-.8-1.4a.121.121,0,0,1,.047-.164.119.119,0,0,1,.164.044l.777,1.358.037.011Zm-3.279-2.109h0a.125.125,0,0,1,.012.091l-.012.039.037.065a.121.121,0,0,1-.211.118l-.061-.106a.163.163,0,0,1,0-.13l-.351-.614c-.047-.013-.085-.018-.11-.065l-.141-.245a.5.5,0,0,1-.131-.1l-.128-.226-.211-.054a.119.119,0,0,1-.083-.147.123.123,0,0,1,.149-.086l.257.067a.118.118,0,0,1,.074.056l.138.246a.433.433,0,0,1,.132.1l.131.227c.046.012.083.017.108.066l.4.7Zm-2.194-.172c.021-.077.025-.085.123-.142a.12.12,0,1,1,.118.208l-.011,0-.011.039a.116.116,0,0,1-.057.073h0l-2.143,1.224a.46.46,0,0,1-.167.023l-.14.08c-.072.042-.124,0-.181-.038l-.156.088a.5.5,0,0,1-.165.023l-.47.267a.111.111,0,0,1-.092.013l-.21-.054a.123.123,0,0,1-.1.018,1.409,1.409,0,0,1-.195-.054l-.2-.1a.121.121,0,0,1,.109-.215l.194.092.074.021.037.009a.136.136,0,0,1,.1-.019l.209.055.451-.258a.452.452,0,0,1,.165-.022l.2-.113c.073-.04.125,0,.181.04a.378.378,0,0,1,.266-.081l2.077-1.186Zm9.439-10.361a.122.122,0,0,1,.149-.085.116.116,0,0,1,.083.146l-.01.038c.027.05.065.094.048.155-.031.107-.062.216-.091.322l0,.122a.654.654,0,0,1-.039.16l.008.01c.047.083-.03.162-.074.228l-.03.1.007.011a.605.605,0,0,1,.022.192h0l.006.139a.208.208,0,0,1-.015.077c.029.048.066.094.049.155-.029.1-.057.2-.083.294a.117.117,0,0,1,.016.1l-.034.123c.039.07.012.116-.007.188l-.02.066.006.12c.009.2.028.152-.082.314l-.014.048a.764.764,0,0,1,0,.158c-.037.127-.073.253-.108.379.028.048.066.094.048.155s-.039.14-.058.21l.005.011a.563.563,0,0,1,.024.191.966.966,0,0,1-.041.162.122.122,0,0,1,.018.1l-.083.293a.122.122,0,0,1,.017.1l-.058.207c.039.07.012.116-.009.189l-.009.036a.368.368,0,0,1,.026.174.144.144,0,0,1,.027.122l-.058.207a.123.123,0,0,1,.017.1l-.042.151,0,.092c.031.053.076.109.058.175s-.039.138-.059.208l.068.118c.059.1-.056.163-.079.246a.126.126,0,0,1,.022.063.812.812,0,0,1,0,.178l-.046.17-.012.037c.039.066.018.1,0,.17l.013.26v.014l-.016.189a.126.126,0,0,1,.024.112c-.013.05-.028.1-.042.152l0,.12a.2.2,0,0,1-.014.076c.069.121.062.1.024.241-.016.058-.074.1-.091.156.029.048.066.094.048.155s-.026.095-.039.144l.028.146a.143.143,0,0,1,.031.128l-.042.152.005.091c.031.054.075.11.058.175-.015.05-.029.1-.043.152a.688.688,0,0,1,0,.157l-.06.209.068.119c.032.056,0,.119-.014.175l-.01.038.038.065c.045.08-.02.146-.063.21l.006.1a.688.688,0,0,1-.041.162c.039.066.019.1,0,.168l.005.091a.281.281,0,0,1,.028.067l.038.193a.178.178,0,0,1-.014.091.117.117,0,0,1,.018.1c-.011.042-.023.083-.034.124a.12.12,0,0,1,.017.1l-.059.208c.041.071.013.116-.007.188l-.011.037a.139.139,0,0,1,.007.139.132.132,0,0,1,.018.1c-.029.1-.057.2-.085.295a.119.119,0,0,1,.018.1l-.058.207a.126.126,0,0,1,.017.1l-.059.209a.147.147,0,0,1,.008.138.129.129,0,0,1,.015.1l-.039.144.031.165a.509.509,0,0,1-.038.179l.068.118a.116.116,0,0,1,.012.091c-.028.1-.055.2-.084.293.038.067.019.1,0,.168l.006.12a.251.251,0,0,1-.015.077c.027.049.065.094.047.154l-.059.209c.051.087.067.092.038.2a.141.141,0,0,1,.007.138.361.361,0,0,1,.026.176l.018.028a.468.468,0,0,1,.02.165l.017.03a.543.543,0,0,1,.022.19.255.255,0,0,1-.015.077l.068.118a.144.144,0,0,1,0,.128.148.148,0,0,1,.007.14l.746,1.306a.122.122,0,0,1-.047.165.12.12,0,0,1-.165-.045l-.772-1.347a.159.159,0,0,1,0-.13c-.032-.058-.022-.079-.006-.139l-.068-.12c-.03-.053-.007-.1.008-.156l0-.092-.017-.03a.457.457,0,0,1-.021-.163l-.017-.03a.463.463,0,0,1-.02-.163.145.145,0,0,1-.018-.158.142.142,0,0,1-.005-.14c-.029-.048-.066-.1-.049-.156l.059-.207c-.063-.111-.064-.1-.029-.223l-.006-.12a.25.25,0,0,1,.015-.075c-.04-.071-.014-.116.007-.187l.049-.172.01-.037-.068-.119a.113.113,0,0,1-.011-.09l.041-.145-.032-.165a.521.521,0,0,1,.037-.178.141.141,0,0,1-.007-.139.127.127,0,0,1-.017-.1l.059-.21a.113.113,0,0,1-.016-.1l.058-.207a.122.122,0,0,1-.017-.1c.027-.1.055-.195.084-.293-.034-.057-.023-.08-.007-.14a.115.115,0,0,1-.017-.1l.033-.122a.127.127,0,0,1-.017-.1l.061-.206c-.041-.071-.016-.115.006-.188l.01-.038c-.037-.063-.019-.093,0-.159l-.029-.146-.021-.038a.531.531,0,0,1-.022-.193.342.342,0,0,1,.014-.075c-.04-.07-.013-.116.007-.187l.02-.066-.006-.12a.209.209,0,0,1,.057-.128.163.163,0,0,1-.035-.136c.012-.041.022-.081.034-.122l-.068-.12a.122.122,0,0,1-.01-.09l.067-.238-.006-.12a.816.816,0,0,1,.039-.161l-.037-.064a.582.582,0,0,1-.021-.193.632.632,0,0,1,.039-.16.157.157,0,0,1-.02-.048l-.037-.192a.569.569,0,0,1,.036-.178c-.07-.122-.061-.107-.023-.243.016-.053.074-.1.089-.152-.063-.112-.063-.1-.03-.224l0-.119a.712.712,0,0,1,.039-.161.117.117,0,0,1-.021-.079l.017-.219-.013-.27a.266.266,0,0,1,.013-.075.13.13,0,0,1-.016-.1l.067-.238,0-.092c-.052-.091-.032-.107,0-.205a.366.366,0,0,1,.053-.091c-.081-.143-.087-.117-.041-.273l.034-.122-.038-.065a.586.586,0,0,1-.021-.193.785.785,0,0,1,.038-.161.128.128,0,0,1-.018-.1l.06-.208a.356.356,0,0,1-.027-.175.14.14,0,0,1-.027-.12l.035-.125a.121.121,0,0,1-.018-.1l.059-.207a.115.115,0,0,1-.017-.1l.083-.293c-.04-.071-.014-.115.007-.188l.019-.065-.005-.094a.138.138,0,0,1-.027-.119c.019-.068.04-.139.058-.208-.027-.049-.064-.1-.047-.156.04-.136.077-.273.115-.408l-.005-.121a.473.473,0,0,1,.029-.124.534.534,0,0,1,.073-.118c0-.08-.008-.16-.012-.238a.671.671,0,0,1,.04-.162.116.116,0,0,1-.017-.1l.034-.122a.121.121,0,0,1-.017-.1c.026-.1.055-.2.082-.294-.062-.111-.063-.1-.03-.223l0-.12-.005-.112a.133.133,0,0,1-.028-.12l.049-.171a.354.354,0,0,1,.052-.09l.006.012a.124.124,0,0,1-.011-.092l.044-.152-.006-.12a2.948,2.948,0,0,1,.087-.332c-.069-.121-.062-.1-.023-.241Zm12.066,59.592a.12.12,0,0,1,.165.044.122.122,0,0,1-.047.165l-1.515.864-.064.094a.558.558,0,0,1-.162.107c-.029.1-.044.1-.134.147a.147.147,0,0,1-.068.112l-.483.275-.178.169a.1.1,0,0,1-.023.018l-.891.509c-.015.048-.021.084-.069.112l-.265.151-.234.2a.88.88,0,0,1-.1.058l-.087.17a.122.122,0,0,1-.163.054.117.117,0,0,1-.052-.159l.1-.2c.026-.048.1-.081.148-.107l.235-.2.019-.014.232-.132a.149.149,0,0,1,.068-.11l.922-.527.179-.17a.1.1,0,0,1,.024-.017l.451-.258c.028-.1.046-.1.135-.149a.158.158,0,0,1,.066-.111l.141-.079a.467.467,0,0,1,.105-.132l1.54-.88Zm-8.783,9.026a.119.119,0,1,1,.118.207l-.329.188a.154.154,0,0,1-.131,0l-2.1,1.2A.119.119,0,1,1,740,215.5l2.146-1.225a.153.153,0,0,1,.129,0l.287-.163Zm12.4-8.8,0-.063a.126.126,0,0,1,.062-.113l1.375-.785a.119.119,0,1,1,.118.207l-1.31.749,0,.065a.121.121,0,0,1-.062.111h0l-.092.054-.122.133a.806.806,0,0,1-.151.1.156.156,0,0,1-.068.11l-.69.393a.416.416,0,0,1-.1.131l-.25.144a.456.456,0,0,1-.1.13l-3.467,1.981a.267.267,0,0,1-.036.014l-.177.035-.312.179a.13.13,0,0,1-.055.016c-.085.006-.167.012-.253.016l-.3.175a.116.116,0,0,1-.068.016l-.227-.014a.116.116,0,0,1-.111-.126.122.122,0,0,1,.129-.113l.191.012.3-.17a.54.54,0,0,1,.194-.025l.113-.008.3-.174a.205.205,0,0,1,.036-.014l.179-.037,3.422-1.955a.493.493,0,0,1,.1-.132l.251-.142a.483.483,0,0,1,.1-.132l.67-.383a.155.155,0,0,1,.069-.11l.147-.084.123-.134a.283.283,0,0,1,.074-.052Zm32.848-2.584a.121.121,0,0,1,.029-.048.384.384,0,0,0,.088-.122h0v-.006a.134.134,0,0,1,.058-.072l.1-.055.074-.07.033-.048a.539.539,0,0,1,.153-.1.207.207,0,0,1,.065-.073l.25-.143a.181.181,0,0,1,.076-.079c0,.015.008-.02.014-.029a.267.267,0,0,1,.139-.13.172.172,0,0,1,.075-.078l.046-.053h0v-.006a.116.116,0,0,1,.035-.092l-.011-.019c-.08-.138-.02-.267.02-.408a.322.322,0,0,1,.087-.143.314.314,0,0,1,.149-.2v0l-.014.009.017-.019a.338.338,0,0,1,.061-.112.375.375,0,0,1,.066-.084.306.306,0,0,1,.1-.132l0-.005a.312.312,0,0,1,.107-.1h0l-.027.016.008-.016a.3.3,0,0,1,.084-.1.337.337,0,0,1,.078-.082v-.005a.311.311,0,0,1,.149-.191h0l.019-.01a.263.263,0,0,1,.1-.1h0l-.006,0,.034-.032a.313.313,0,0,1,.146-.177h0l.045-.028a.393.393,0,0,1,.047-.053.3.3,0,0,1,.119-.148.317.317,0,0,1-.115-.115.314.314,0,0,1,.12-.426l5.09-2.908.029-.015a.313.313,0,0,1,.428.112.309.309,0,0,1-.024.341.39.39,0,0,1-.1.186l.007-.025a.32.32,0,0,1-.069.121.737.737,0,0,1-.116.116.316.316,0,0,1-.117.143.486.486,0,0,1-.126.109.452.452,0,0,1-.134.111l.024-.082a.333.333,0,0,1-.139.184.316.316,0,0,1-.106.1l-.12.068a.315.315,0,0,1-.161.273l-.047.026c-.055.082-.131.11-.25.178a.421.421,0,0,1-.112.1l-.374.215a.3.3,0,0,1-.105.1l-.111.063a.307.307,0,0,1-.092.12.3.3,0,0,1-.109.1l-.156.088a.323.323,0,0,1-.1.1h0l-.066.039c-.028.028-.047.047-.067.065a.322.322,0,0,1-.113.107h0l-.047.025a.293.293,0,0,1-.058.063.455.455,0,0,1-.154.166l-.318.182a.3.3,0,0,1-.062.066l0,.005-.039.057a.631.631,0,0,1-.238.176.316.316,0,0,1-.1.092l-.927.531a.442.442,0,0,1-.18.139.512.512,0,0,1-.192.145l-.033.036a.4.4,0,0,1-.079.065h0l.007-.005,0,0v0c-.053.19-.206.191-.239.254a.323.323,0,0,1-.127.132h0l-.02.012a.76.76,0,0,1-.148.119.615.615,0,0,1-.17.171l-.468.266a.321.321,0,0,1-.243.032.121.121,0,0,1-.059.079h0c-.034.02-.055.068-.1.091a.235.235,0,0,1-.122.106l-.012.018a.148.148,0,0,1-.094.115.214.214,0,0,1-.065.072l-.251.143-.024.035a.507.507,0,0,1-.152.1l-.025.034a.876.876,0,0,1-.11.11.436.436,0,0,1-.094.059.382.382,0,0,1-.052.084c-.019.03-.053.05-.063.084a.123.123,0,0,1-.057.073h0l-.012.008-.084.079a.119.119,0,1,1-.165-.172c.037-.035.065-.066.1-.093Zm-9.456,8.8a.124.124,0,0,1,.038-.056.174.174,0,0,1,.069-.114l.121-.069a.129.129,0,0,1,.056-.067l.094-.053a.125.125,0,0,1,.056-.069l.067-.037a.119.119,0,0,1,.056-.067l.055-.033a.12.12,0,1,1,.117.209l-.012.006a.11.11,0,0,1-.054.067l-.068.039a.12.12,0,0,1-.055.067l-.094.053a.118.118,0,0,1-.055.068l-.122.069-.011.037a.111.111,0,0,1-.04.063.115.115,0,0,1-.057.069l-.121.069a.388.388,0,0,1-.083.084l-1.925,1.1a.12.12,0,0,1-.166-.042.123.123,0,0,1,.047-.165l1.908-1.09.055-.059a.592.592,0,0,1,.124-.078Zm-9.53-32.868a.129.129,0,0,1,.017.1l-.12.428a.613.613,0,0,1-.073.118.523.523,0,0,1,0,.137l-.338,1.2a.494.494,0,0,1-.074.118.526.526,0,0,1,0,.137l-.047.166v.005a.121.121,0,0,1-.058.073l-.011.006-.069.245a.137.137,0,0,1,.017.1c-.056.2-.114.4-.17.6-.01.034-.063.083-.073.119s.011.1,0,.137c-.067.24-.136.481-.2.72a.123.123,0,0,1,.021.065.741.741,0,0,1,0,.176l-.067.238,0,.093.015.027v0a.116.116,0,0,1-.006.125l-.067.1,0,.018a.141.141,0,0,1,.005.139.125.125,0,0,1,.016.1l-.207.735.059.217a.119.119,0,0,1-.07.142l-.033.124c-.016.056-.075.1-.09.154.04.07.013.116-.008.187a.121.121,0,0,1-.149.085.118.118,0,0,1-.084-.147l.012-.037c-.04-.068-.015-.115.006-.186a.712.712,0,0,1,.085-.138l.042-.15a.131.131,0,0,1,.057-.073l-.026.015-.044-.157a.13.13,0,0,1,0-.065c.068-.24.136-.479.2-.721-.033-.057-.023-.08-.006-.139-.041-.071-.014-.114.007-.187a.36.36,0,0,1,.052-.092.106.106,0,0,1-.009-.04.885.885,0,0,1,0-.178l.068-.237-.005-.092a.133.133,0,0,1-.028-.119l.193-.685.019-.067c-.009-.181-.02-.14.083-.293l.151-.531-.005-.011a.118.118,0,0,1-.013-.091l0-.005.1-.336a.135.135,0,0,1,.068-.081l.029-.1c-.008-.183-.02-.142.084-.294l.327-1.16c-.007-.18-.019-.14.083-.291l.1-.361-.006-.011a.119.119,0,0,1-.01-.092v0l.095-.336a.132.132,0,0,1,.069-.081l.078-.273c-.008-.184-.02-.143.083-.294l.262-.921a.635.635,0,0,1,.084-.136c.039-.135.078-.273.116-.409a.79.79,0,0,1,.084-.135l.043-.151a.72.72,0,0,1,.084-.135l.092-.324a.123.123,0,0,1,.069-.08l.034-.122c.039-.136.025-.126.149-.2.017-.058.02-.084.079-.116l.029-.1a.751.751,0,0,1,0-.157l.05-.172a.591.591,0,0,1,.084-.136c.038-.136.077-.271.116-.408.014-.05.046-.067.087-.091l.052-.075c.014-.052.03-.1.043-.154a.134.134,0,0,1,.069-.079l.058-.207c.02-.064.088-.092.143-.122l.041-.061c-.005-.074-.025-.163.057-.21l.33-.189a.12.12,0,0,1,.165.044.122.122,0,0,1-.046.164l-.265.15a.211.211,0,0,1-.019.14l-.078.117c-.024.033-.1.035-.108.075l-.059.209c-.011.04-.059.041-.069.079l-.011.037-.022.085a.847.847,0,0,1-.1.152c-.015.023-.042.021-.053.044a3.483,3.483,0,0,0-.107.38c-.01.035-.074.1-.084.136l-.038.134c-.011.037.013.12,0,.157l-.047.17c-.012.039-.051.045-.07.08-.049.094-.064.072-.133.148-.05.054-.04.139-.06.207-.011.041-.058.043-.068.081l-.085.294c-.01.036-.071.1-.083.135l-.044.152c-.01.038-.07.1-.083.136-.049.133-.078.272-.117.408-.009.036-.073.1-.084.136l-.261.92c-.01.035-.063.083-.072.119s.009.1,0,.137l-.1.342c-.011.039-.058.043-.069.079l-.069.245Zm-12.034-5.537a.123.123,0,0,1-.149.086.121.121,0,0,1-.084-.147l.034-.122a.141.141,0,0,1-.007-.139.126.126,0,0,1-.015-.1l.107-.38-.069-.118a.12.12,0,0,1-.011-.091c.016-.051.028-.1.043-.152a.7.7,0,0,1,0-.158l.073-.256a.071.071,0,0,1,.008-.022l.089-.173a.656.656,0,0,1,0-.147l.044-.151-.006-.121a.819.819,0,0,1,0-.178l.059-.207a.12.12,0,0,1-.017-.1c.01-.041.023-.082.034-.123a.127.127,0,0,1-.017-.1l.073-.255a.079.079,0,0,1,.008-.023l.1-.191.009-.028c-.039-.067-.016-.106,0-.176l.014-.175a.136.136,0,0,1-.024-.116l.14-.492a.7.7,0,0,1,0-.158l.1-.342a.716.716,0,0,1,.073-.118.57.57,0,0,1,0-.137c.027-.1.055-.2.082-.294a.118.118,0,0,1-.016-.1l.058-.21a.117.117,0,0,1-.017-.1c.027-.1.056-.2.083-.294l-.037-.064a.424.424,0,0,1-.021-.164.141.141,0,0,1-.027-.122l.048-.171a.652.652,0,0,1,.085-.134l.247-.873c-.027-.049-.066-.094-.048-.155.031-.115.064-.229.1-.344a.708.708,0,0,1,.086-.134l.041-.152a.135.135,0,0,1,.069-.079c.059-.205.118-.412.175-.617l-.006-.12a.476.476,0,0,1,.044-.158c.051-.072.1-.146.149-.219l.279-.985a.708.708,0,0,1,0-.159l.049-.172a.929.929,0,0,1,.084-.136l.043-.15a.669.669,0,0,1,.085-.136c.062-.218.125-.436.184-.653l.018-.213a.066.066,0,0,1,0-.023c.075-.268.152-.538.228-.806a.119.119,0,0,1-.018-.1l.059-.207-.067-.12a.118.118,0,0,1-.01-.092l.072-.256a.125.125,0,0,1,.149-.086.119.119,0,0,1,.083.147l-.058.208.067.12a.12.12,0,0,1,.012.091l-.059.207c-.011.039.027.064.016.1-.079.281-.159.561-.238.843l-.017.213a.093.093,0,0,1,0,.022l-.193.683c-.012.037-.074.1-.085.137l-.043.151c-.011.036-.074.1-.086.136l-.036.133c-.012.039.012.121,0,.159-.1.341-.193.683-.289,1.023a.823.823,0,0,1-.1.153l-.068.1-.013.047c-.013.04.01.123,0,.158-.065.227-.129.457-.194.684-.011.039-.057.041-.069.078l-.034.124c-.012.037-.071.1-.085.136-.035.088-.052.182-.078.273.07.122.062.107.024.244l-.242.852c-.01.036-.073.1-.084.136l-.03.1a.322.322,0,0,0,.027.175c.017.058.077.111.059.175-.029.1-.056.194-.083.293a.125.125,0,0,1,.017.1l-.059.207c-.012.039.027.064.017.1-.032.109-.062.216-.091.324.008.181-.034.117-.083.293l-.088.305c-.01.038.013.12,0,.157l-.131.464c-.008.031.024.047.021.081l-.018.223c0,.02-.02.043-.013.06.008.038.028.063.015.1a.507.507,0,0,1-.032.107l-.1.193-.056.2c-.022.079.015.115-.007.186l-.01.039c-.009.037.028.063.017.1l-.068.24.007.119h0a.875.875,0,0,1,0,.177l-.043.152c-.015.05.016.137-.008.181l-.1.191-.063.226.005.12c0,.036-.06.124-.038.16l.067.121a.114.114,0,0,1,.01.089l-.107.379c-.018.065.005.079.007.14,0,.039.028.062.018.1l-.049.171Zm5.029-20.057a3.292,3.292,0,0,1,1.5-.418l.005.08a.581.581,0,0,0-.074.12l-.011.035c-.072.042-.072.094-.091.165l-.036.124c-.09.051-.106.046-.134.148-.072.041-.073.093-.093.165l-.084.293a.168.168,0,0,0-.052.044.88.88,0,0,0-.095.154l-.011.037a.121.121,0,0,0-.072.116l.006.141.005.12c-.041.147-.083.3-.126.445-.058.033-.062.058-.079.117-.071.04-.072.093-.093.165l-.01.037-.307.175.017-.063a.117.117,0,0,0-.017-.1.141.141,0,0,0-.005-.138.153.153,0,0,0,0-.129l-.077-.138a.379.379,0,0,0-.027-.174.144.144,0,0,0,0-.128l-.068-.119a.146.146,0,0,0-.017-.159l0-.091c.031-.107.038-.1-.017-.2l.025-.036.026-.011a.12.12,0,0,0,.046-.165l-.005-.011c.028-.1.011-.105-.039-.193a.141.141,0,0,0-.006-.139.473.473,0,0,0,.037-.178l-.016-.087Zm2,9.11a.112.112,0,0,1,.008.088l-.005.024.009.19c0,.031-.012.051-.011.085a.134.134,0,0,1,.028.119c-.006.02-.025.076-.017.092a.113.113,0,0,1,.011.091l-.023.08c-.019-.035.005.01.007.036a.414.414,0,0,1,0,.1l.022.04c.034.058.012.1-.022.151a.257.257,0,0,1-.009.092.559.559,0,0,1,0,.087.348.348,0,0,1,.01.1.216.216,0,0,1-.013.069l-.005.065,0-.005a.294.294,0,0,1,.018.123.961.961,0,0,1-.008.118.3.3,0,0,1,0,.094c.028.05.03.066.007.144v0h0l-.008.023-.046.09-.022.073a.249.249,0,0,0-.015.118c0,.042-.09.331-.115.423-.008.028-.043.081-.053.111a1.031,1.031,0,0,0-.032.11l.005.011h0a.116.116,0,0,1-.006.126l-.019.029a.116.116,0,0,1,0,.064l-.024.086-.006.024v.051a.785.785,0,0,1-.041.166c-.008.031-.042.08-.055.113s0,.1-.017.143c-.035.121-.07.243-.1.365v.05a.464.464,0,0,1-.029.124c-.008.035-.042.056-.046.083a.517.517,0,0,1,0,.088c-.008.026-.016.053-.022.08l-.011-.015h0a.112.112,0,0,1,.011.09l-.121.427a.155.155,0,0,1-.033.06.314.314,0,0,1,0,.064.136.136,0,0,1,0,.075l-.011.041-.009.032-.006.065v0a.113.113,0,0,1,.01.088l-.006.023v.053a.706.706,0,0,1-.04.165.1.1,0,0,1-.034.054l0,.035a.122.122,0,0,1-.115.128.117.117,0,0,1-.126-.112.328.328,0,0,1,.013-.15.119.119,0,0,1,.057-.072h0l-.016.008.017-.061a.369.369,0,0,1,0-.086.414.414,0,0,1,0-.161.312.312,0,0,1,.013-.064.132.132,0,0,1,0-.071v-.006l.006-.019a.178.178,0,0,1,.047-.167l.1-.365c-.017-.052,0-.08.021-.155.012-.043,0-.074.009-.113a.279.279,0,0,1,.056-.118l.013-.048a.331.331,0,0,1,0-.089c.035-.125.069-.249.1-.372a.485.485,0,0,1,.08-.279l.021-.075a.207.207,0,0,0,.005-.074.5.5,0,0,1,.026-.122.122.122,0,0,1,0-.071v-.007a.2.2,0,0,1,.027-.066.117.117,0,0,1-.008-.082h0l0,0h0l.047-.165a1.049,1.049,0,0,1,.053-.113l.1-.354v-.052a1.444,1.444,0,0,1,.053-.208.488.488,0,0,1,.047-.1l0-.008a.115.115,0,0,1-.011-.09l0-.006.005-.018,0-.052c0-.048.011-.1.007-.153a.333.333,0,0,1-.007-.183c0-.018.017-.057.008-.071a.132.132,0,0,1-.011-.091l0,0v0l.006-.018a.24.24,0,0,1,.008-.11.181.181,0,0,1,.018-.124l0,0-.009-.018a.106.106,0,0,1-.011-.09v0h0a.067.067,0,0,0,0-.044.113.113,0,0,1-.01-.09l.022-.085a.314.314,0,0,1-.009-.1.25.25,0,0,1,.015-.076.241.241,0,0,1-.025-.132.171.171,0,0,1,.011-.062l-.006-.121a.379.379,0,0,1,0-.1c-.028-.078.044-.18.024-.207a.272.272,0,0,1-.018-.114l-.013-.069-.036-.065a.117.117,0,0,1,.046-.162.119.119,0,0,1,.165.042.554.554,0,0,1,.059.116.951.951,0,0,1,.022.155.278.278,0,0,1,.021.125.494.494,0,0,1-.028.118l-.007-.013Zm-5.238,13.413a.123.123,0,0,1,.057-.073h0a.2.2,0,0,1,.064-.071l.074-.131a.174.174,0,0,1,.077-.063l.052-.077a.315.315,0,0,1,.063-.118.606.606,0,0,0,.057-.067.178.178,0,0,1,.018-.118l.109-.16.017-.061,0-.006h0a.116.116,0,0,1,.057-.072l.023-.014a.422.422,0,0,1,.165-.2l.06-.057v-.011a.125.125,0,0,1,.057-.072l0,0a.189.189,0,0,1,.058-.067l.031-.06a.2.2,0,0,1,.043-.09c-.005-.1.016-.1.078-.171a.3.3,0,0,1,.061-.136.788.788,0,0,1,.066-.146.127.127,0,0,1,.052-.053l.012-.018a.431.431,0,0,1,.035-.1c.035-.053.071-.106.109-.158a.269.269,0,0,1,.051-.1l.066-.236a.3.3,0,0,1,.059-.121c.016-.061.051-.1.069-.161h0l0-.005a.116.116,0,0,1,.041-.062l.042-.149,0-.042v-.008a.116.116,0,0,1,.044-.1.131.131,0,0,1,.057-.071l.011-.006a.123.123,0,0,1,.053-.065l.028-.057.117-.415a.183.183,0,0,1,.033-.06.277.277,0,0,1,.016-.111c.011-.04.04-.059.052-.1a.275.275,0,0,1,.058-.12l.039-.145a.131.131,0,0,1-.017-.1l-.006-.011a.361.361,0,0,1-.008-.18l0-.022a.36.36,0,0,1-.006-.141.308.308,0,0,1,.057-.12l.079-.275a.119.119,0,0,1-.018-.1l.06-.209a.12.12,0,0,1,0-.075.2.2,0,0,1,.046-.1l.028.048h0a.116.116,0,0,1-.011-.09c.012-.043.024-.086.037-.129a.122.122,0,0,1,.149-.085.118.118,0,0,1,.083.147l-.025.085c.025.067,0,.1-.057.155a.142.142,0,0,1,0,.058l0,0h0l-.059.208,0-.005a.121.121,0,0,1,.017.1l-.1.342c-.011.036-.062.079-.045.108a.115.115,0,0,1,.011.09l-.014.1.013.023a.114.114,0,0,1,.012.084.121.121,0,0,1,.018.1,2.008,2.008,0,0,1-.078.248.165.165,0,0,0-.034.066l-.013.043c-.009.034-.038.058-.047.082a.184.184,0,0,1-.046.167l-.117.407a.764.764,0,0,1-.059.123.139.139,0,0,1-.033.042.121.121,0,0,1-.067.075.112.112,0,0,1-.018.034.277.277,0,0,1,0,.045l-.061.213a.121.121,0,0,1-.04.063.931.931,0,0,1-.055.109.24.24,0,0,1-.053.107c-.027.1-.052.188-.079.281-.011.04-.041.057-.051.1a1.542,1.542,0,0,1-.125.194.421.421,0,0,1-.036.1.321.321,0,0,1-.079.1l0,0-.029.057a7.681,7.681,0,0,1-.133.261c0,.071-.011.08-.049.136a.627.627,0,0,1-.068.147.124.124,0,0,1-.048.051h0a.247.247,0,0,1-.048.061.107.107,0,0,1-.033.052.674.674,0,0,1-.127.113l-.045.049c-.046.092-.043.1-.1.143a.283.283,0,0,1-.027.072l-.1.142v.032a.173.173,0,0,1,0,.038h0v0h0c-.023.087-.034.085-.1.154l-.024.036a.345.345,0,0,1-.062.118c-.042.06-.043.074-.107.112l-.075.129a.138.138,0,0,1-.045.045h0a.282.282,0,0,1-.047.061.173.173,0,0,1-.017.033.279.279,0,0,1-.08.1l-.164.094a.119.119,0,1,1-.119-.207l.14-.08.013-.018,0-.02,0-.005Zm-9.444,14.7a.118.118,0,0,1,.056-.068l.085-.05a.223.223,0,0,1,.064-.073l.176-.1.034-.037,0-.011v-.006a.125.125,0,0,1,.057-.072l.011-.007a.12.12,0,0,1,.056-.066l.936-.535a.119.119,0,1,1,.118.207l-.894.511a.118.118,0,0,1-.065.072.141.141,0,0,1-.026.044.605.605,0,0,1-.1.1l-.167.094-.024.035a.362.362,0,0,1-.107.079c-.021.059-.088.083-.142.114a.222.222,0,0,1-.064.073c-.034.019-.126.061-.136.1-.051.076-.044.075-.123.12l-.083.079a.791.791,0,0,1-.129.078c-.029.056-.039.094-.1.126-.014.046-.021.084-.069.11l-.113.065a.318.318,0,0,1-.037.051l-.228.238a.148.148,0,0,1-.038.028c-.053.058-.1.1-.155.156a.971.971,0,0,1-.134.081.122.122,0,0,1-.165-.044.118.118,0,0,1,.047-.162l.1-.058.081-.075a.394.394,0,0,1,.107-.1l.209-.219.034-.05a.429.429,0,0,1,.134-.091c.021-.071.023-.084.092-.124a.253.253,0,0,1,.083-.119l.124-.071.084-.081a.217.217,0,0,1,.055-.033l.023-.035.039-.059a.537.537,0,0,1,.154-.1c.049-.073.055-.067.131-.11Zm-16.812-15.135.726-.417a.583.583,0,0,0,.094-.082.267.267,0,0,0,.076-.021v0l.022,0a.124.124,0,0,0-.027.021l-.052.059-.534.305c-.048.028-.054.064-.068.11l-.149.085c-.047.027-.053.064-.068.11-.055.033-.128.06-.149.123a.113.113,0,0,0-.065.072l-.151.087a.113.113,0,0,0-.056.067.122.122,0,0,0-.065.072.131.131,0,0,0-.068.075.125.125,0,0,0-.067.074c-.044.028-.048.036-.093.1a.093.093,0,0,0-.015.03,8.511,8.511,0,0,1-.08.119.112.112,0,0,0-.039.059l-.012.037a.17.17,0,0,0-.1.1l-.012.041v0l0,.023-.007.073c-.015.016-.033.036-.049.056a.964.964,0,0,0-.095.151l-.007.025-.054.078a.119.119,0,0,0-.058.07.463.463,0,0,0-.063.084.137.137,0,0,0-.014.03.117.117,0,0,0-.067.077.325.325,0,0,0-.066.085.072.072,0,0,0-.012.028.122.122,0,0,0-.068.075.151.151,0,0,0-.027.029c-.05.075-.06.084-.058.138a.159.159,0,0,0-.021.038.361.361,0,0,0-.063.084.749.749,0,0,0-.043.119.137.137,0,0,0-.035.054.24.24,0,0,0-.08.06l-.024.037v0l0,0a.12.12,0,0,0-.055.066.137.137,0,0,0-.076.1l-.007.011.005-.014v0h0v0l.015-.052c.061-.067.082-.072.078-.169a.289.289,0,0,0,.032-.057.108.108,0,0,0,.04-.061l.025-.085,0,.005c-.014.048.082-.043.1-.1l.024-.082a.121.121,0,0,0,.023-.027.3.3,0,0,0,.063-.119c.024-.032.047-.066.068-.1a.1.1,0,0,0,.016-.033.323.323,0,0,0,.064-.083c.025-.039.04-.152.064-.166a.27.27,0,0,0,.083-.118.122.122,0,0,0,.051-.066l.039-.022a.124.124,0,0,0,.057-.073v-.006h0l.011-.037v.006l.011-.007a.113.113,0,0,0,.055-.067l.012-.006a.119.119,0,0,0,.057-.073v-.008l.016-.051.034-.037.066-.038a.12.12,0,0,0,.057-.074h0v-.006h0l.017-.059.029-.043.023-.034c.075-.043.067-.125.071-.2l.015-.046.034-.038c.074-.042.07-.047.118-.118.006-.009.02-.045.015-.031l.012-.006a.123.123,0,0,0,.055-.067.91.91,0,0,0,.152-.094l.054-.06.149-.084a.124.124,0,0,0,.056-.071.121.121,0,0,0,.039-.054Zm.915-.763.258-.147a.2.2,0,0,1,.1-.019l.03-.016a.162.162,0,0,1,.133,0,.135.135,0,0,1,.072,0l.042.011a.145.145,0,0,1,.066-.006l.038-.02a.114.114,0,0,1,.09-.014.107.107,0,0,1,.073-.005l.041.011a.121.121,0,0,1,.073,0l.34.09a.124.124,0,0,1,.129.029.1.1,0,0,1,.024.036.124.124,0,0,1,.02.1.122.122,0,0,1-.113.088.219.219,0,0,1-.055.047l-.22.126a.121.121,0,0,1-.085.014.135.135,0,0,1-.1.019l-.038-.01-.121.07a.119.119,0,0,1-.085.012l-.067.038a3.346,3.346,0,0,0-.187.033.209.209,0,0,1-.078.01l-.422.241a.119.119,0,0,1-.016.1l-.04.059c-.025.036-.071.046-.089.093v0a.123.123,0,0,1-.058.075l-.258.146a.122.122,0,0,1-.056.069l-.066.037a.108.108,0,0,1-.039.056.115.115,0,0,1-.057.07l-.01.007c-.031.1-.045.1-.135.149a.123.123,0,0,1-.055.067l-.012.006c-.027.1-.019.118-.11.17a.2.2,0,0,1-.094.09.2.2,0,0,1-.068.075l-.024.035c0,.006-.055.057-.05.039a.117.117,0,0,1-.057.073l-.04.022a.106.106,0,0,1-.039.055l-.009.034v.006a.122.122,0,0,1-.057.073l-.06.034-.022.035c-.02.025-.052.047-.062.078v0a.12.12,0,0,1-.058.074l-.056.032-.025.036c-.019.027-.052.047-.061.077v0a.125.125,0,0,1-.058.074l-.031.016a.156.156,0,0,1-.074.078.117.117,0,0,1-.019.035v0l0,.005v0a.127.127,0,0,1-.062.111l-.03.017a.255.255,0,0,1-.046.059.136.136,0,0,1-.057.073l-.011.005a.125.125,0,0,1-.056.066l-.039.023c-.019.021-.1.112-.095.086v0h0l0,0-.019.072h0v.006a.13.13,0,0,1-.041.061.172.172,0,0,1-.014.031.331.331,0,0,1-.065.083l-.011.042a.123.123,0,0,1-.149.085l-.012,0c-.017.061-.021.1-.086.135a.1.1,0,0,1-.038.056.122.122,0,0,1-.148.082.109.109,0,0,1-.053-.028.126.126,0,0,1-.144.07.12.12,0,0,1-.083-.147c.037-.129.072-.256.11-.384a.117.117,0,0,1,.039-.061.22.22,0,0,1,.072-.127c0-.1.036-.086.055-.158a.125.125,0,0,1,.042-.062l.023-.083c.015-.053.052-.071.1-.1a.81.81,0,0,1,.023-.078.11.11,0,0,1,.057-.074c.012-.006.018-.032.022-.044.015-.056.074-.1.091-.16a.12.12,0,0,1,.057-.073h0c.024-.014.037-.128.062-.164a.3.3,0,0,1,.081-.1l-.005,0,.036-.07a.122.122,0,0,1,.031-.039.179.179,0,0,1,.1-.093c.022-.077.03-.089.081-.118a.121.121,0,0,1,.065-.072l.01-.038a.4.4,0,0,1,.095-.122.256.256,0,0,1,.069-.048.24.24,0,0,1,.026-.071.615.615,0,0,1,.121-.156l-.029.018a.432.432,0,0,1,.008-.072.318.318,0,0,1,.119-.208c.039-.043.059-.016.079-.084a.13.13,0,0,1,.07-.08.122.122,0,0,1,.054-.068l.147-.084a.512.512,0,0,1,.085-.083l.123-.071a.116.116,0,0,1,.039-.055.112.112,0,0,1,.055-.069l.758-.434.08-.075h0l0,0h0v0h0l0,0v0h0l0,0h0v0h0l0,0h.016l0,0h0v0h0l0,0h.012l.075-.016.008,0,0,0a.129.129,0,0,1,.087-.014Zm1.093.055-.031.019a.117.117,0,0,0-.086.012l-.012.008.007,0-.038-.01v0h-.005a.118.118,0,0,0-.093.013l-.122.069a.124.124,0,0,0-.086.013l-.065.038a.13.13,0,0,0-.088.015l-.012.006a.12.12,0,0,0-.086.014.357.357,0,0,0-.1.018l-.092.054a.118.118,0,0,0-.036-.064.144.144,0,0,0-.07-.03l.271-.156a.175.175,0,0,0,.108-.025H733.7l.038.01,0,0h0a.127.127,0,0,0,.072,0l.034.008h0l0,0a.132.132,0,0,0,.074,0,.115.115,0,0,0,.09-.014l.038-.021a.131.131,0,0,0,.07-.007l.033.01h0l.005,0a.134.134,0,0,0,.074,0l.1.026Zm-2.627,1.914v-.005l.009-.034a11.728,11.728,0,0,0,.121-.179v0l.006-.018.012-.018.029-.018a.114.114,0,0,0,.056-.067l.012-.006a.131.131,0,0,0,.056-.069l.011-.006a.118.118,0,0,0,.056-.067l.011-.006a.13.13,0,0,0,.056-.068l.145-.083c-.006.013-.012.033-.02.057-.076.044-.1.049-.12.107-.069.042-.064.055-.093.159a.176.176,0,0,0-.076.081,1.4,1.4,0,0,0-.162.163c-.056.032-.071.045-.083.081l-.035.02.007-.019Zm1.218-1.227,0,.012c-.028.025-.056.061-.078.085a.1.1,0,0,0-.025.044l-.253.143,0-.014.149-.085a.153.153,0,0,0,.069-.11l.13-.075Zm9.08-33.576a.116.116,0,0,1,.019.1l.036.067a.116.116,0,0,1,.014.085l.052.094a.111.111,0,0,1,.012.084l.084.146a.113.113,0,0,1,.012.086l.083.147a.15.15,0,0,1,0,.134.123.123,0,0,1-.149.085.119.119,0,0,1-.084-.147v0l-.084-.145a.113.113,0,0,1-.011-.086l-.084-.146a.126.126,0,0,1-.013-.087l-.052-.091a.121.121,0,0,1-.013-.085l-.037-.065a.116.116,0,0,1-.012-.087l-.006-.009a.128.128,0,0,1-.013-.087l-.191-.336a.513.513,0,0,1-.032-.128l-.032-.118a.121.121,0,0,1,.085-.148.118.118,0,0,1,.148.081c.021.076.037.134.051.21l.208.361a.115.115,0,0,1,.011.084Zm.607-2.961.293.495-.293-.495Zm-18.237,6.473a.162.162,0,0,1,.122.08h-.006l.025.006a.172.172,0,0,1,.167.044l.271.07,0,0h.006a.127.127,0,0,1,.062.039.116.116,0,0,1,.068.055l.007.01.038.034.052.013h.007a.109.109,0,0,1,.06.04c.038.01.055.035.1.046l0,0a.5.5,0,0,0,.162.089.119.119,0,0,1,.07.053l.015.031.02.013.025,0a.118.118,0,0,1,.082.147.123.123,0,0,1-.148.086.253.253,0,0,1-.079-.026c-.066-.045-.075-.048-.1-.091a.131.131,0,0,1-.036-.017h-.006a.116.116,0,0,1-.111-.059h0l-.005-.011c-.036-.011-.056-.036-.1-.047a.126.126,0,0,1-.061-.039c-.076-.02-.075-.025-.162-.1l-.013-.013a.1.1,0,0,1-.058-.039l-.255-.066a.194.194,0,0,1-.06-.032.244.244,0,0,1-.111-.013c-.062-.017-.089-.018-.123-.078l-.037-.011a.125.125,0,0,1-.072-.053l.008.015-.037-.011a.267.267,0,0,1-.12-.054c-.065-.016-.106-.05-.169-.067a.653.653,0,0,1-.136-.08c-.02-.007-.061.006-.094,0l-.215-.056a.117.117,0,0,1-.083-.147.125.125,0,0,1,.149-.086l.2.052a.272.272,0,0,1,.133.012.665.665,0,0,1,.136.082c.063.017.107.05.168.066.04.011.058.039.1.05.075.019.108.018.144.059Zm-3.782,13.6a.308.308,0,0,1,.217.381.32.32,0,0,1-.389.223l.083.021-.546.312a.626.626,0,0,1-.281.052.308.308,0,0,1-.329-.291.319.319,0,0,1,.3-.331l.066,0,.6-.342a.338.338,0,0,1,.283-.021Zm1.225,4.455h0a.27.27,0,0,1,.042-.091l.03-.046,0-.006a.322.322,0,0,1,.113-.107l.018-.009,0,0,.035-.05,0-.008h0a.294.294,0,0,1,.106-.1l.018-.011a.33.33,0,0,1,.063-.067l0,0,.03-.043,0-.006a.306.306,0,0,1,.112-.108l.024-.013-.021.075a.309.309,0,0,1,.146-.182l.051-.031-.011.04h0a.315.315,0,0,1,.149-.19l.547-.311-.009.031a.321.321,0,0,1,.146-.182l.129-.074a.34.34,0,0,1,.1-.1l.517-.3-.022.083a.321.321,0,0,1,.387-.225.362.362,0,0,1,.107.05.238.238,0,0,1,.063-.069l.176-.1c.017-.059.021-.083.08-.118a.151.151,0,0,1,.067-.11l.122-.069c.013-.047.019-.082.069-.11l.286-.163c.027-.1.045-.1.133-.149a.152.152,0,0,1,.08-.118.149.149,0,0,1,.067-.109l.306-.175c.044-.063.087-.129.131-.193.035-.124.029-.113.143-.178.013-.046.02-.084.067-.11l.2-.111.054-.078c.014-.055.021-.108.075-.139l.275-.157a.119.119,0,1,1,.119.207l-.231.133a.244.244,0,0,1-.028.071.631.631,0,0,1-.122.156l-.174.1c-.029.1-.046.1-.134.147l-.011.037a.826.826,0,0,1-.1.153.637.637,0,0,1-.12.154l-.287.163c-.016.059-.019.084-.079.118-.029.1-.045.1-.134.147a.149.149,0,0,1-.067.111l-.288.164a.143.143,0,0,1-.067.11l-.122.07c-.017.058-.02.083-.079.116-.013.046-.02.084-.067.11l-.2.112-.061.093-.019.021a.4.4,0,0,1-.009.083.123.123,0,0,1-.021.065.3.3,0,0,1-.144.179l-.569.324a.554.554,0,0,1-.19.148.279.279,0,0,1-.13.142l-.55.316a.445.445,0,0,1-.212.194.414.414,0,0,1-.156.125.319.319,0,0,1-.126.141.356.356,0,0,1-.118.1.447.447,0,0,1-.148.156c-.06.13-.149.157-.3.241a.311.311,0,1,1-.308-.54l.052-.028-.023.083Zm54.108,8.332.174.047a.085.085,0,0,0,.055-.008l.14-.08.06.016-.261.149-.029-.007c-.038-.067-.043-.058-.115-.076l-.024-.041Zm-.176-.18a.069.069,0,0,1,.047,0l.314.083.138-.079a.077.077,0,0,1,.056-.008l.228.062.305-.174a.07.07,0,0,1,.1.025.072.072,0,0,1-.028.1l-.329.187-.007.005-.336.191h0a.073.073,0,0,1,.05.088.075.075,0,0,1-.091.05l-.085-.022a.068.068,0,0,1-.039-.025.059.059,0,0,1-.047,0l-.086-.021-.086-.023a.069.069,0,0,1-.043-.033l-.248-.432a.073.073,0,0,1,.029-.1.071.071,0,0,1,.1.026l.057.1Zm-4.642,13.3a.328.328,0,0,1-.066.13.16.16,0,0,1-.02.034c-.02.029-.035.051-.051.072a.507.507,0,0,1-.025.052.39.39,0,0,1-.041.088l-.01.013,0,.006a.274.274,0,0,1-.027.039l-.018.029-.009.014,0,.006v0a.414.414,0,0,1-.033.058l-.012.019a.332.332,0,0,1-.039.051l-.02.038a.334.334,0,0,1-.06.094.366.366,0,0,1-.045.1l-.009.013,0,.007a.357.357,0,0,1-.027.051.457.457,0,0,1-.031.058l-.01.017a.367.367,0,0,1-.031.07.446.446,0,0,1-.022.062l-.008.039v.008l0,.007a.337.337,0,0,1-.09.152l-.01.013a.3.3,0,0,1-.029.043.311.311,0,0,1-.075.13.352.352,0,0,1-.057.085.328.328,0,0,1-.046.122.371.371,0,0,1-.029.065.312.312,0,0,1-.063.1v0a.292.292,0,0,1-.031.061l-.012.027-.014.028a.324.324,0,0,1-.077.156l-.008.025h0a.292.292,0,0,1-.031.075.515.515,0,0,1-.074.171v0h0l-.017.067v.007a.327.327,0,0,1-.034.076l0,.017a.293.293,0,0,1-.033.077l-.005.014,0,0a.278.278,0,0,1-.039.086l-.014.02-.033.12h0a.419.419,0,0,1-.034.079.387.387,0,0,1-.04.085l-.012.017.008-.029-.017.061a.277.277,0,0,1-.012.08l-.005.022c-.012.043-.025.085-.037.129h0a.32.32,0,0,1-.023.058l-.012.023,0-.011c-.008.027-.016.054-.022.079a.741.741,0,0,1-.036.166v.007h0a.29.29,0,0,1-.042.089l-.03.045-.021.072a.687.687,0,0,1-.036.172c-.014.05-.034.06-.037.11a.346.346,0,0,1-.01.056.331.331,0,0,1-.012.082.931.931,0,0,1-.067.2.409.409,0,0,0-.028.123h0a.319.319,0,0,1-.047.175.308.308,0,0,1-.032.075h0l-.006.032-.016.056c0,.019,0,.035-.006.049a.365.365,0,0,1-.012.093l-.011.041-.005.014v.006a.337.337,0,0,1-.042.093.311.311,0,0,1-.043.123l0,.017a.641.641,0,0,1-.084.211v0l0,.005h0v0l0,0v0l-.011.015-.017.063h0l-.014.038a.324.324,0,0,1-.009.045l-.012.041v0a.274.274,0,0,1-.053.1l-.028.1h0l-.01.031v.011a.32.32,0,0,1-.044.189l-.011.039a.279.279,0,0,1-.033.077.417.417,0,0,1-.032.072.319.319,0,0,1-.148.185l-.013.007a.34.34,0,0,1-.392-.5.346.346,0,0,1,.032-.071l0-.013a.28.28,0,0,1,.009-.112v-.006l0-.007h0l.01-.034a.282.282,0,0,1,.033-.075l.035-.123a.286.286,0,0,1,.038-.085l.005-.028v0l.005-.018a.378.378,0,0,1,.035-.08l.028-.1a.325.325,0,0,1,.066-.121.3.3,0,0,1,.048-.149c0-.023.01-.044.018-.073a.315.315,0,0,1,.041-.089l0-.021a.247.247,0,0,1-.049-.065l-.008-.013a.309.309,0,0,1-.029-.233v0h0l0,0v0l.016-.055a.254.254,0,0,1,.02-.053.293.293,0,0,1,.028-.1.266.266,0,0,1,.011-.1h0l0-.007h0l.034-.119a.3.3,0,0,1,.039-.087l-.005.008a.512.512,0,0,0,.022-.1.309.309,0,0,1,.033-.118v0c.021-.044.042-.084.063-.126a.863.863,0,0,1,.044-.111l0-.033a.608.608,0,0,1,.023-.1.282.282,0,0,1,.036-.084l.007-.025a.314.314,0,0,1,.012-.086v0l0-.008.006-.023a.36.36,0,0,1,.01-.073l0-.026a.243.243,0,0,1,.013-.063h0V187.7l.053-.186,0,.011,0-.026a.3.3,0,0,1,.034-.118h0l0-.007.008-.016.01-.034a.328.328,0,0,1,.054-.107.747.747,0,0,1,.044-.108.3.3,0,0,1,.053-.135h0c.011-.017.023-.035.034-.054l.018-.065a.326.326,0,0,1,.011-.082h0l0-.013,0-.025a.312.312,0,0,1,.081-.187h0l.043-.155a.3.3,0,0,1,.034-.074l.01-.038a.307.307,0,0,1,.038-.085.358.358,0,0,1,.022-.044.327.327,0,0,1,.034-.076.794.794,0,0,1,.056-.118l.007-.016a.671.671,0,0,1,.086-.2l0,0,0,0,0-.005a.214.214,0,0,1,.03-.056l0,0v0h0c.018-.029.033-.06.054-.091a.313.313,0,0,1,.086-.139l.009-.012a.335.335,0,0,1,.03-.046.312.312,0,0,1,.083-.137l.009-.013a.906.906,0,0,1,.137-.2.318.318,0,0,1,.257-.119.452.452,0,0,1,.026-.04l.009-.013,0,0,.017-.027.02-.029.015-.021a.272.272,0,0,1,.045-.077.264.264,0,0,1,.045-.081.385.385,0,0,1,.033-.06l0-.005.005-.008.006-.009a.34.34,0,0,1,.059-.094h0l.019-.02,0-.005a.346.346,0,0,1,.05-.085l-.01.011.006-.013a.294.294,0,0,1,.069-.128h0l.006-.007.026-.029a.319.319,0,0,1,.445-.028.311.311,0,0,1,.037.421Zm-2.045,13.523a.309.309,0,0,1-.01.116l-.011.042-.036.125a.317.317,0,0,1-.587.194l-.016-.027a.309.309,0,0,1-.029-.235v-.009l.045-.158a.361.361,0,0,1,.01-.118l0-.005h0v0l.069-.247a.324.324,0,0,1,.39-.223.306.306,0,0,1,.216.382l-.047.166Zm-2.953-.33a.3.3,0,0,1,.127.121l.165.29.005.006a.315.315,0,0,1-.121.427l-.028.017a.327.327,0,0,1-.192.04v.04a.311.311,0,0,1-.005.142l0,0-.017-.034-.008,0a.278.278,0,0,1,.016.122l0,.035a.479.479,0,0,1-.019.209h0v0h0a.208.208,0,0,1-.015.039.2.2,0,0,1-.008.041.3.3,0,0,1-.01.114c-.03.114-.062.224-.094.337a.384.384,0,0,1-.011.12l-.037.126h0a.287.287,0,0,1-.042.093l-.011.017,0-.007-.012.041-.017.061a.277.277,0,0,1,.01.1.267.267,0,0,1,.005.039.318.318,0,0,1,.007.191c-.054.19-.054.241-.232.346h0l-.006,0a.311.311,0,0,1-.428-.112l-.632-1.107a.376.376,0,0,1-.044-.2v0c0-.012,0-.023,0-.035a.339.339,0,0,1,.008-.134l.013-.046.049.086h0a.317.317,0,0,1-.035-.208.294.294,0,0,1,0-.169l0-.006a.313.313,0,0,1,.008-.254.288.288,0,0,1,0-.172.331.331,0,0,0,.02-.1.779.779,0,0,1,.047-.22h0l0-.007h0a.325.325,0,0,1,.148-.191l.023-.013.005,0a.322.322,0,0,1,.266-.023.33.33,0,0,1,.073-.061.324.324,0,0,1,.1-.1c.127-.072.26-.177.413-.147l.072.014a.338.338,0,0,1,.16.029,1.507,1.507,0,0,1,.151.035h0l0,0a.3.3,0,0,1,.121.062Zm-21.222,18.83a.315.315,0,0,1-.429-.114.307.307,0,0,1-.039-.184l-.3.172c-.073.042-.124,0-.183-.039l-2.024,1.157a.123.123,0,0,1-.165-.043.121.121,0,0,1,.045-.165l2.092-1.195c.073-.041.124,0,.182.04l1.64-.937a.14.14,0,0,1,.129,0l5.471-3.126.01-.038a.124.124,0,0,1,.15-.085.117.117,0,0,1,.082.147c-.015.058-.022.126-.081.158l-4.64,2.651a.327.327,0,0,1,.078.091.151.151,0,0,1,.022.044l1.433-.819a.151.151,0,0,1,.131,0l.983-.564.123-.133a.072.072,0,0,1,.028-.024l1.278-.73.009-.037a.124.124,0,0,1,.149-.086.118.118,0,0,1,.084.147c-.015.056-.023.126-.08.16l-1.3.744-.122.133a.133.133,0,0,1-.03.025l-1.044.6a.144.144,0,0,1-.131,0l-1.5.856-.022.01-.027.008a.328.328,0,0,1-.1.1l-1.9,1.085Zm11.124-7.676h0a.37.37,0,0,1-.042.091l-.025.036-.008.049a.3.3,0,0,1-.008.115.371.371,0,0,1-.009.107.328.328,0,0,1-.01.124l-.073.257a.285.285,0,0,1-.064.119.31.31,0,0,1-.125.129l-.051.03.024-.082a.315.315,0,0,1-.15.188l-.017.01,0,0a1.222,1.222,0,0,1-.1.111,1.209,1.209,0,0,1-.262.168.337.337,0,0,1-.1.1l-.02.009a.287.287,0,0,1-.1.1l-.017.012a.352.352,0,0,1-.1.094l-.11.063a.31.31,0,1,1-.308-.538l.048-.028a.343.343,0,0,1,.09-.085.313.313,0,0,1,.107-.1h0l.044-.026a.97.97,0,0,1,.308-.211l.017-.02a.384.384,0,0,1,.127-.132.441.441,0,0,1,.178-.142.3.3,0,0,1,.1-.092h0l-.086.05.022-.082V209.3a.275.275,0,0,1,.011-.1h0l0,.007,0-.019,0-.036a.269.269,0,0,1,.006-.132v0l0-.007.01-.036,0,.007v-.019a.306.306,0,0,1,.053-.19h0l.053-.078a.31.31,0,0,1,.146-.182l1.018-.581a.317.317,0,0,1,.382.052l.174-.1.052-.075c.035-.125.031-.115.143-.179l.005-.018-.006-.12a.126.126,0,0,1,.073-.118c.017-.059.022-.083.079-.117.021-.069.041-.138.061-.208a.623.623,0,0,1,.083-.135l.043-.152a.123.123,0,0,1,.068-.079l.012-.039c.02-.072.021-.122.093-.165l.082-.292c.018-.062.075-.083.125-.112.084-.3.169-.593.252-.89a.594.594,0,0,1,.085-.137l.018-.066a.764.764,0,0,1,.085-.136l.09-.322a.6.6,0,0,1,.073-.118l0-.1a.124.124,0,0,1,.115-.127.118.118,0,0,1,.127.113c.009.2.026.152-.081.313l-.093.323a.651.651,0,0,1-.084.135l-.019.066a.674.674,0,0,1-.084.136c-.087.307-.174.613-.262.921-.016.061-.073.082-.123.111l-.084.293a.12.12,0,0,1-.068.079c-.012.041-.023.082-.035.123a.12.12,0,0,1-.068.079l-.035.124a.776.776,0,0,1-.085.136l-.042.15c-.02.072-.023.124-.094.164-.013.049-.019.085-.068.112l.011,0a.384.384,0,0,1,0,.1c-.038.136-.023.125-.148.2a.223.223,0,0,1-.026.072.626.626,0,0,1-.121.155l-.23.132a.317.317,0,0,1-.162.262l-.905.518.024-.082Zm-.834,3.84a.323.323,0,0,1-.15.19l-.384.22a.311.311,0,1,1-.309-.54l.3-.169c.053-.077.125-.1.24-.173a.311.311,0,1,1,.308.54l-.024.014.024-.082Zm5.143-4.153-.009.032,0,.007v0c-.008.022-.017.043-.027.064a.465.465,0,0,1-.018.1v0h0v.01a.313.313,0,0,1-.07.125l-.067.073-.017.02.009-.028a.327.327,0,0,1-.14.183l-.031.047-.006.005v0a.313.313,0,0,1-.106.1l-.44.252a.332.332,0,0,1-.134.04l-.153.087.006-.023a.311.311,0,0,1-.03.064c0,.015.008.029.011.045l.01.047.021.037a.306.306,0,0,1,.04.172.312.312,0,0,1-.052.225l-.009.016v-.008l-.012.045a.315.315,0,0,1-.148.189l-.083.049a.325.325,0,0,1-.24.031l-.083-.022-.022.075v.008h0a.323.323,0,0,1-.149.189l-.027.016a.322.322,0,0,1-.205.038.294.294,0,0,1-.046.033l-.083.047a.321.321,0,0,1-.169.041l-.022.071a.32.32,0,0,1-.147.189l-.661.378a.3.3,0,0,1-.135.041l-.483.275.022-.075a.313.313,0,0,1-.147.182l-.138.079a.31.31,0,1,1-.308-.538l.046-.027a.3.3,0,0,1,.1-.1l.688-.392a.315.315,0,0,1,.232-.035l-.075-.02.405-.232,0-.027,0-.057a.265.265,0,0,1,0-.057.312.312,0,0,1,.122-.426l.006-.005.02-.01a.317.317,0,0,1,.217-.038.309.309,0,0,1,.123-.157l0-.051a.318.318,0,0,1,.161-.289h0l.028-.016a.321.321,0,0,1,.233-.035h.019a.293.293,0,0,1,.1.008h0a.393.393,0,0,1,.2.1.275.275,0,0,1,.011-.117v-.006h0l.01-.035.023-.085a.348.348,0,0,1,.054-.107.311.311,0,0,1,.147-.185l.33-.187a.317.317,0,0,1,.135-.042l.311-.178.038-.054a.266.266,0,0,1,.063-.07.31.31,0,0,1,.031-.039l.063-.069v-.026a.311.311,0,0,1,.057-.332.317.317,0,0,1,.444-.03l.067.06.005.005h0A.307.307,0,0,1,760.323,208.6Z" fill="#6bc06d" fill-rule="evenodd"/>
  </g>
</svg>
