<?xml version="1.0" encoding="utf-8"?>
<!-- Generator: Adobe Illustrator 25.1.0, SVG Export Plug-In . SVG Version: 6.00 Build 0)  -->
<svg version="1.1" id="Calque_1" xmlns="http://www.w3.org/2000/svg" xmlns:xlink="http://www.w3.org/1999/xlink" x="0px" y="0px"
	 viewBox="0 0 20.92 33.8" style="enable-background:new 0 0 20.92 33.8;" xml:space="preserve">
<style type="text/css">
	.st0{fill:#F39200;}
</style>
<path class="st0" d="M19.3,10.73C18.77,9.39,18.1,8,17.25,6.46c-0.81-1.45-1.86-2.87-3.13-4.2c-0.74-0.78-1.5-1.29-2.32-1.57
	c-1.62-0.55-3.19-0.19-4.54,1.04C6.33,2.58,5.52,3.56,4.71,4.55c-2.49,3.03-3.83,6.07-4.1,9.32c-0.12,1.46,0.02,2.91,0.42,4.28
	c0.4,1.36,1.02,2.62,1.86,3.75c1.24,1.67,2.6,2.77,4.17,3.36c0.61,0.23,1.21,0.4,1.85,0.57c0.17,0.05,0.35,0.1,0.53,0.15l0.13,6.14
	c0,0.14-0.01,0.36,0.13,0.56c0.11,0.16,0.25,0.26,0.36,0.34l0.55,0.33l0.31-0.41c0.1-0.11,0.26-0.27,0.29-0.52
	c0.06-0.41,0.1-0.86,0.12-1.41c0.08-1.67,0.15-3.34,0.23-5.08c1.15-0.21,2.66-0.54,4.06-1.23c1.65-0.82,2.81-1.87,3.54-3.21
	c0.63-1.16,0.99-2.44,1.12-4.02C20.49,15.17,20.15,12.9,19.3,10.73z M11.66,23.73l0.02-0.55c0.02-0.68,0.05-1.36,0.09-2.04
	c0-0.02,0.03-0.08,0.06-0.11c0.44-0.43,0.89-0.85,1.33-1.27c0.47-0.45,0.94-0.89,1.4-1.34c0.29-0.28,0.59-0.59,0.76-0.97
	c0.17-0.39,0.15-0.91-0.05-1.25c-0.13-0.23-0.34-0.38-0.59-0.42c-0.3-0.05-0.63,0.05-0.91,0.29c-0.54,0.46-0.93,0.83-1.28,1.2
	c-0.22,0.24-0.43,0.48-0.64,0.73c0.05-1.79,0.11-3.57,0.17-5.36c0-0.03,0.03-0.1,0.05-0.13c0.47-0.43,0.96-0.85,1.44-1.26l0.53-0.46
	c0.05-0.04,0.12-0.1,0.21-0.22c0.47-0.63,0.47-1.13,0.01-1.47c-0.37-0.28-1.07-0.21-1.42,0.03c-0.27,0.19-0.53,0.41-0.77,0.63
	c-0.03-0.72-0.05-1.43-0.07-2.15C12,6.74,11.39,6.54,11.13,6.5c-0.4-0.07-0.68,0.06-0.83,0.18C10.14,6.8,9.94,7.03,9.89,7.46
	L9.85,7.89C9.78,8.42,9.72,8.98,9.71,9.53c-0.02,0.8-0.02,1.6-0.01,2.43c-0.14-0.05-0.28-0.08-0.41-0.1
	c-0.06-0.01-0.12-0.02-0.18-0.03L8.61,11.7l-0.12,0.5c-0.01,0.04-0.03,0.09-0.04,0.14c-0.07,0.19-0.16,0.45-0.06,0.72
	c0.1,0.29,0.24,0.58,0.38,0.86c0.08,0.16,0.15,0.32,0.22,0.48c0.05,0.11,0.08,0.23,0.11,0.34c0.03,0.11,0.07,0.23,0.11,0.34
	c0.06,0.16,0.18,0.48,0.49,0.59c0,0,0,0.01,0,0.01l-0.01,0.14c-0.03,1.26-0.07,2.53-0.1,3.79l-0.01-0.01c-0.67-0.88-1.36-1.8-2-2.71
	c-0.25-0.35-0.43-0.76-0.63-1.19c-0.1-0.22-0.2-0.43-0.31-0.64c-0.23-0.45-0.58-0.71-0.97-0.73c-0.33-0.02-0.64,0.16-0.84,0.48
	c-0.17,0.27-0.18,0.58-0.17,0.75c0.05,1.09,0.59,1.96,1.05,2.6c0.34,0.47,0.7,0.93,1.05,1.4c0.52,0.68,1.04,1.36,1.52,2.07
	c0.35,0.52,0.63,1.08,0.93,1.68l0.16,0.31c-1.45-0.16-2.7-0.81-3.83-1.96c-1.23-1.26-2.08-2.82-2.51-4.65
	c-0.3-1.25-0.34-2.52-0.11-3.88c0.5-3.02,2.07-5.42,3.55-7.36c0.71-0.94,1.43-1.84,2.38-2.51c0.73-0.52,1.36-0.69,1.98-0.53
	c0.43,0.11,0.88,0.33,1.28,0.6c1,0.71,1.67,1.71,2.43,2.94c0.8,1.29,1.46,2.46,2.01,3.58c1.28,2.56,1.81,4.98,1.64,7.39
	c-0.16,2.26-0.92,3.81-2.4,4.89c-0.94,0.68-1.98,1.11-2.88,1.43c-0.46,0.17-0.84,0.26-1.23,0.23
	C11.66,23.77,11.66,23.75,11.66,23.73z"/>
</svg>
