<?xml version="1.0" encoding="utf-8"?>
<!-- Generator: Adobe Illustrator 25.1.0, SVG Export Plug-In . SVG Version: 6.00 Build 0)  -->
<svg version="1.1" id="Calque_1" xmlns="http://www.w3.org/2000/svg" xmlns:xlink="http://www.w3.org/1999/xlink" x="0px" y="0px"
	 viewBox="0 0 36.69 48.21" style="enable-background:new 0 0 36.69 48.21;" xml:space="preserve">
<style type="text/css">
	.st0{fill:#7B6A58;}
</style>
<g>
	<polygon class="st0" points="26.4,13.84 26.4,12.78 23.85,12.78 23.85,11.39 22.05,11.39 22.05,9.56 20.3,9.56 20.3,7.73 
		19.2,7.73 19.2,2.78 17.77,2.78 17.77,1.22 16.51,1.22 16.51,0.53 14.73,0.53 14.7,0.53 14.7,2.82 13.22,2.82 13.22,3.96 
		12.04,3.96 12.04,6.22 10.82,6.22 10.82,8.16 9.76,8.16 9.76,10.25 8.4,10.25 8.4,15.17 10.53,15.17 10.53,17.48 11.74,17.48 
		11.74,19.34 12.81,19.34 12.81,20.88 11.77,20.88 11.77,21.94 10.63,21.94 10.63,24.88 12.01,24.88 12.01,25.55 14.58,25.55 
		14.58,26.88 18.94,26.88 18.94,25.76 20.18,25.76 20.18,24.73 22.26,24.73 22.26,25.58 23.56,25.58 23.56,26.32 25.42,26.32 
		25.42,20.66 26.55,20.66 26.55,18.57 27.53,18.57 27.53,16.93 28.33,16.93 28.33,13.84 	"/>
	<path class="st0" d="M36.06,41.23c0.07-0.1,0.03-0.23-0.1-0.38c-0.58-0.04-1.17,0.06-1.6,0.12c-0.33,0.05-0.5,0.08-0.57,0.05
		c-0.01,0-0.03,0-0.04,0c-0.27,0-0.55-0.15-0.82-0.29c-0.42-0.22-0.78-0.42-1.03-0.01c0.38,1.05,0.26,2-0.33,2.56
		c-0.39,0.37-0.92,0.48-1.37,0.28c-0.59-0.26-0.93-0.97-0.93-1.95v-0.01l0.01-0.01c0.35-0.36,0.77-0.76,1.21-1.19
		c2.04-1.99,4.82-4.72,5.35-6.54c-0.07-0.42-0.25-0.67-0.53-0.73c-1.22-0.28-4.12,2.95-4.49,3.48c-1.16,1.72-1.89,3.04-2.17,3.94
		l-0.01,0.01c-1.19,1.26-3.66,2.4-5.44,2.07c-0.91-0.17-1.54-0.67-1.89-1.5l-0.01-0.03l0.04-0.01c2.12-0.31,3.22-1.15,3.37-1.85
		c0.06-0.25-0.03-0.46-0.23-0.6c-0.45-0.3-1.57-0.22-3.23,0.98c-0.85,0.87-1.28,0.8-2.2,0.64c-0.16-0.03-0.34-0.06-0.55-0.09
		l-0.01,0c-0.27-0.11-0.45-0.21-0.6-0.29c-0.34-0.19-0.44-0.24-0.79-0.03c-0.16,0.97-0.89,2.74-1.59,3.23
		c-0.17,0.12-0.33,0.16-0.47,0.13c-0.16,0.01-0.31-0.05-0.42-0.17c-0.19-0.21-0.27-0.59-0.22-1.04c0.17-0.95,0.18-1.47,0.01-1.54
		c-0.2-0.09-0.72,0.52-1.22,1.12c-0.72,0.87-1.55,1.86-2.02,1.53c-0.36-0.11-0.55-0.43-0.57-0.94c-0.03-1.06,0.69-2.52,1.1-2.67
		c0.8-0.1,2.53-0.85,2.59-1.46c0.02-0.23-0.21-0.42-0.67-0.57c-0.51-0.16-1.43,0.56-2.11,1.08c-0.24,0.19-0.45,0.35-0.61,0.45
		l-0.01,0c-0.73,0.21-1.2,0.23-1.58,0.25c-0.44,0.02-0.73,0.03-1.13,0.34c0,0.09,0.02,0.16,0.08,0.21c0.23,0.22,0.94,0.11,1.46,0.04
		c0.31-0.05,0.56-0.08,0.67-0.05l0.04,0.01l-0.02,0.03c-1.01,1.74-0.68,3.1,0.06,3.63c0.63,0.45,1.82,0.46,3.11-1.02l0.05-0.06
		l0,0.08c-0.01,0.53,0.25,0.97,0.7,1.2c0.54,0.28,1.24,0.21,1.74-0.16c0.71-0.39,1.18-1.61,1.46-2.34c0.08-0.2,0.14-0.38,0.2-0.49
		l0.01-0.02l0.02,0.01c1.17,0.29,1.8,0.29,2.69,0.18l0.02,0l0.01,0.02c0.28,1.08,0.92,1.8,1.89,2.15c1.84,0.65,4.49-0.2,6.05-1.34
		l0.04-0.03l0,0.05c0.02,1.08,0.45,1.9,1.22,2.3c0.69,0.36,1.56,0.31,2.22-0.13c0.72-0.48,1.09-1.33,1-2.33l0-0.04l0.04,0.01
		C33.47,41.66,35.76,41.71,36.06,41.23z M29.55,40.29c0.42-0.95,0.88-1.81,1.37-2.57c0.75-1.41,3.22-3.76,4.19-4l0.05-0.01
		l-0.02,0.05c-0.69,1.74-3.38,4.68-5.55,6.57l-0.1,0.08L29.55,40.29z M21.62,40.29c0.44-0.62,1.18-1.03,2.2-1.21l0.01,0l0.01,0
		c0.07,0.03,0.11,0.07,0.11,0.12c0.01,0.11-0.15,0.26-0.46,0.45c-0.54,0.33-1.46,0.69-1.77,0.69c-0.04,0-0.07-0.01-0.08-0.02
		l-0.02-0.02L21.62,40.29z M12.49,38.52c0.24-0.21,0.52-0.41,0.86-0.6l0.23-0.12l-0.19,0.17c-0.3,0.26-0.59,0.46-0.86,0.6
		l-0.18,0.09L12.49,38.52z"/>
	<path class="st0" d="M12.51,33.12c-0.46-1.44-1.87,2.74-2.26,2.74c-2.21,2.32-2.31-0.99-1.3-3.08c1.85-2.86-1.98-0.2-2.23-0.33
		c-0.58,0.23-1.55,1.64-1.96,2.07c-0.61-0.55-0.76-2.82-2-2.68c-1.47,0.18-2.45,2.43-2.06,3.79c1.1,1.96,2.67,0.44,3.03-1.49
		c0.32,0.52,0.5,0.85,0.53,1.09c-0.7,1.38-1.68,3.63-2.2,5.65c-0.94,2.91,0.06,8.41,3.33,6.36c2.22-2.7,1.55-8.33,0.09-11.13
		c-0.36-0.85-0.55-0.69-0.1-1.35c0.94-1.48,1.53-1.67,2.88-2.05C5.94,40.05,11.3,37.57,12.51,33.12z M2.92,34.51
		c-0.26,1.58-1.63,1.87-1.66,0.34c-0.06-0.76,0.85-2.64,1.57-2.31C3.16,32.39,3.12,34.41,2.92,34.51z M6.21,42.06
		c-0.13,8.41-5.47,4.79-3.39-1.5c0.26-0.97,1.34-3.99,1.8-4.59C5.69,37.98,6.22,40.18,6.21,42.06z"/>
	<path class="st0" d="M14.29,30.69c2.04,0.35-0.38,2.53-1.82,2.89c0.05,1.09,0.92,1.45,1.77,1.33c2.34,0.21,4-3.71,4.31-2.41
		c-0.78,2.14-5.24,4.78-6.6,1.8C11.14,33.11,13.19,30.7,14.29,30.69z M12.64,32.8c0-0.01-0.02-0.01-0.06-0.01
		c0.29,0.13,1.87-1.08,1.78-1.4C13.65,31.4,12.9,32.2,12.64,32.8z"/>
	<path class="st0" d="M24.5,31.74c1.08,0.48-1.72,4.73-2.82,4.33c-1.56,0.44-1.39-2.93-2.06-3.07c-0.61-0.52-2.17,4.85-2.6,3.14
		c0.35-1.15,0.41-4.45,1.24-3.65c-0.01,0.53-0.28,1.16-0.33,2c0-0.07-0.04-0.09-0.09-0.08c0.38-0.94,2.16-3.61,2.69-1.12
		c0.25,1.17,0.44,1.77,0.57,1.8C22.71,36.5,23.81,32.63,24.5,31.74z"/>
	<path class="st0" d="M26.71,33.47c0,0.01,0.01,0.02,0.01,0.03c0.81-0.89,0.87-3.23-0.6-3.11c-1.37,0.02-2.71,3.26-2.52,4.37
		C24.04,37.63,26.33,34.27,26.71,33.47z M24.66,35.09c-1.65-0.06,1.38-5.71,1.97-3.45C26.81,32.5,24.89,35.21,24.66,35.09z"/>
	<path class="st0" d="M26.7,32.68c-0.01,3-0.34,6.3-2.18,8.31c-0.11,0.12,0.01,0.13,0.08,0.26C26.35,42.5,28.58,30.25,26.7,32.68
		L26.7,32.68z"/>
	<path class="st0" d="M27.82,33.94c0.01,0.02,0.01,0.05,0.02,0.07c0.22,0.43,0.34,0.46,0.44,0.61c1.11,0.84,2.35,0.59,2.63,0.47
		c0.66-0.22,1.78-1.05,2.63-1.96c0.23-0.39,0.43-0.74,0.58-1.04c0.05-0.1,0.05-0.23-0.01-0.33h0c-0.13-0.24-0.45-0.23-0.57,0.01
		c-0.65,1.29-1.53,2.16-2.65,2.61l-0.18,0.07c-0.4,0.16-0.77,0.21-1.13,0.16c-0.35-0.06-0.69-0.31-1-0.73l-0.01-0.02
		c-0.01-0.02,0-0.04,0.01-0.06c0.75-0.62,1.18-1,1.31-1.15c0.51-0.75,0.72-1.36,0.62-1.83c-0.12-0.32-0.43-0.41-0.93-0.29
		l-0.09,0.04c-0.2,0.08-0.4,0.23-0.59,0.46c-0.31,0.21-0.64,0.71-0.99,1.5c-0.05,0.23-0.17,0.39-0.21,0.63S27.82,33.94,27.82,33.94z
		 M28.58,32.62c0.17-0.55,0.54-1.04,1.11-1.47l0.04-0.02c0.04-0.01,0.06-0.01,0.07,0.01c0.05,0.12-0.1,0.48-0.45,1.08
		c-0.38,0.42-0.67,0.68-0.86,0.78C28.49,32.96,28.51,32.83,28.58,32.62z"/>
	<path class="st0" d="M12.45,30.43c0.52-0.8,2.45-1.07,2.19-1.36C13.7,28.41,9.65,31.29,12.45,30.43z"/>
</g>
</svg>
