<?xml version="1.0" encoding="utf-8"?>
<!-- Generator: Adobe Illustrator 25.1.0, SVG Export Plug-In . SVG Version: 6.00 Build 0)  -->
<svg version="1.1" id="Calque_1" xmlns="http://www.w3.org/2000/svg" xmlns:xlink="http://www.w3.org/1999/xlink" x="0px" y="0px"
	 viewBox="0 0 69.52 12.27" style="enable-background:new 0 0 69.52 12.27;" xml:space="preserve">
<style type="text/css">
	.st0{fill:#7B6A58;}
</style>
<g>
	<g>
		<path class="st0" d="M1.89,8.49H1.87v0.72H0.74v-7.4h1.13v3.28h0.02c0.39-0.66,0.95-1,1.7-1c0.63,0,1.13,0.22,1.48,0.67
			c0.36,0.45,0.54,1.05,0.54,1.8c0,0.84-0.2,1.51-0.6,2.01c-0.4,0.5-0.95,0.75-1.64,0.75C2.71,9.33,2.22,9.05,1.89,8.49z M1.86,6.5
			v0.62c0,0.36,0.12,0.67,0.35,0.93C2.44,8.31,2.74,8.43,3.1,8.43c0.42,0,0.75-0.16,0.99-0.49c0.24-0.33,0.36-0.78,0.36-1.37
			c0-0.49-0.11-0.88-0.33-1.16C3.89,5.14,3.58,5,3.2,5C2.8,5,2.47,5.14,2.23,5.43C1.98,5.72,1.86,6.07,1.86,6.5z"/>
		<path class="st0" d="M11.09,4.21l-2.26,5.8c-0.47,1.04-1.13,1.55-1.97,1.55c-0.24,0-0.44-0.02-0.6-0.06v-0.94
			c0.18,0.06,0.34,0.09,0.49,0.09c0.42,0,0.74-0.21,0.95-0.63L8.04,9.2L6.05,4.21h1.25L8.5,7.85c0.01,0.05,0.04,0.17,0.09,0.36h0.02
			C8.63,8.13,8.66,8.02,8.7,7.86l1.25-3.64H11.09z"/>
	</g>
	<g id="Calque_2_1_">
		<g id="Calque_2-2_2_">
			<path class="st0" d="M59.82,3.04l-2.95,2.22l2.95,2.12V9.9h-1.86l-3.42-2.72V9.9h-2.96V0.6h2.97v2.74l3.46-2.74h1.84L59.82,3.04z
				"/>
			<path class="st0" d="M68.98,0.56v9.37h-8.23V0.56H68.98z M65.99,3.07h-2.28V7.4h2.28V3.07z"/>
			<path class="st0" d="M27.65,0.56v9.37h-2.97V3.07h-1.14v6.84h-2.94V3.07h-1.14v6.84h-2.95V0.56H27.65z"/>
			<path class="st0" d="M37.01,0.56v9.37h-8.23V0.56H37.01z M34.04,3.07h-2.28V7.4h2.28V3.07z"/>
			<polygon class="st0" points="42.22,0.56 42.22,6.89 45.2,6.89 45.2,3.07 47.5,3.07 47.5,7.42 41.1,7.42 41.1,0.57 38.13,0.57 
				38.13,9.93 50.47,9.93 50.47,0.56 			"/>
		</g>
	</g>
</g>
</svg>
