<?xml version="1.0" encoding="utf-8"?>
<!-- Generator: Adobe Illustrator 25.1.0, SVG Export Plug-In . SVG Version: 6.00 Build 0)  -->
<svg version="1.1" id="Calque_1" xmlns="http://www.w3.org/2000/svg" xmlns:xlink="http://www.w3.org/1999/xlink" x="0px" y="0px"
	 viewBox="0 0 33.36 16.4" style="enable-background:new 0 0 33.36 16.4;" xml:space="preserve">
<style type="text/css">
	.st0{fill:#E94E1B;}
</style>
<g>
	<path class="st0" d="M32.54,5.72c0.08-0.06,0.14,0.25,0.11,0.39c0.15-0.38,0.16,0.05,0.18-0.68c0.1-0.36,0.2,0.14,0.09,0.43
		l0.28-0.45l-0.17-0.11c0.05-0.61,0.27,0.18,0.33-0.53l-0.31,0.06l0.02-0.2C33,4.86,32.86,4.77,32.81,4.69
		c0.01-0.1,0-0.26,0.06-0.28c-0.37-0.05-0.1,1.06-0.41,1.26C32.48,5.65,32.5,5.66,32.54,5.72z"/>
	<path class="st0" d="M32.22,4.24L32.09,5l-0.22-0.2c0,0.26-0.16,0.47-0.05,0.71c0.02-0.04,0.06-0.12,0.1-0.09
		c-0.02,0.57-0.29,0.28-0.23,0.86c0.17-0.15,0.2-0.03,0.3-0.49c0.16,0.05,0.27,0.18,0.35,0.39c0.05-0.09,0.05-0.43,0.11-0.5
		c-0.01,0.01-0.03,0.02-0.04,0.02l-0.01-0.85c-0.05,0.18-0.1,0.09-0.15,0.11l0.25-1c-0.08-0.8-0.33-0.33-0.43-0.66
		C32.2,4.01,31.98,3.65,32.22,4.24z"/>
	<path class="st0" d="M32.45,5.67C32.46,5.67,32.46,5.67,32.45,5.67C32.46,5.67,32.46,5.67,32.45,5.67z"/>
	<path class="st0" d="M13.42,10.63c-0.05,0.02-0.07,0.22-0.08,0.32l0.61-0.02c-0.02-0.22-0.19-0.5-0.08-0.64
		c-0.05-0.25-0.21-0.04-0.23,0.27l0.04-0.34c-0.14,0.44-0.24-0.42-0.14-0.68l-0.01,0l-0.39,1.68
		C13.28,11.33,13.25,10.66,13.42,10.63z"/>
	<path class="st0" d="M0.89,9.78C0.97,9.7,0.98,9.62,0.97,9.54C0.94,9.6,0.92,9.67,0.89,9.78z"/>
	<path class="st0" d="M13.04,11.63l-0.12,0.53C12.97,12.02,13.01,11.83,13.04,11.63z"/>
	<path class="st0" d="M13.89,3.61c0-0.03,0-0.05,0-0.09l-0.05,0.27c0,0,0,0,0,0C13.85,3.73,13.87,3.67,13.89,3.61z"/>
	<path class="st0" d="M10.28,13.61c-0.01,0.01-0.02,0.02-0.04,0.04C10.25,13.64,10.26,13.63,10.28,13.61z"/>
	<path class="st0" d="M15.54,0.6l-0.27,0.51c0.04-0.24-0.09-0.17-0.04-0.45c-0.02,0.04-0.12,0.13-0.09,0.26L15.2,0.9
		c-0.14,0.7-0.06,0.97-0.29,1.5c0.15,0.42,0.21,0.04,0.29-0.28c0.03-0.05,0.05-0.07,0.07-0.1l0.23-0.98L15.54,0.6z"/>
	<path class="st0" d="M4.67,5.81l0-0.05C4.67,5.77,4.67,5.79,4.67,5.81z"/>
	<path class="st0" d="M4.68,5.53L4.67,5.75C4.69,5.64,4.74,5.53,4.68,5.53z"/>
	<path class="st0" d="M13.09,11.18c0,0.13-0.02,0.29-0.04,0.45l0.09-0.4C13.12,11.23,13.11,11.2,13.09,11.18z"/>
	<path class="st0" d="M13.3,9.65l0.23-0.1l0.08-0.36C13.52,9.33,13.42,9.42,13.3,9.65z"/>
	<path class="st0" d="M10.64,14.02c-0.47,0.11,0.12-0.82-0.1-1.02c-0.13,0.1-0.18,0.49-0.26,0.61c0.38-0.33-0.05,1.29,0.33,1.08
		c-0.05,0.71-0.27,0.77-0.4,0.58c-0.15-0.68,0.13-0.5,0.16-1.17c-0.15,0.11-0.13,0.23-0.19,0.61c-0.24-0.16-0.49,0.84-0.64-0.11
		c-0.17,0.15-0.16,0.48-0.26,0.84c-0.02,0.73,0.26,0.38,0.32,0.96c-0.01-0.06-0.04-0.18-0.03-0.29l0.15,0.15
		c-0.14-0.25,0.02-0.73,0.1-0.79c0.06-0.02,0.16-0.05,0.15,0.15L9.88,15.8c0.11,0.23,0.24-0.53,0.35-0.14
		c0.01,0.16-0.04,0.24-0.04,0.34c0.13-0.5,0.25-0.47,0.44-0.82l-0.11,0.72c0.15-0.8,0.49-0.57,0.73-0.15
		c-0.03-0.12-0.07-0.21-0.05-0.35c0.14-0.17,0.24,0.32,0.18,0.7c0.14-0.6,0.52,0.5,0.7-0.27l0.85-3.68c-0.03,0.09-0.07,0.17-0.1,0.2
		c-0.08-0.63-0.12-0.56,0.02-1.16c-0.13,0.34-0.08,0.85-0.28,0.87c0.08-0.32,0.1-1.05-0.09-1.12c-0.48,0.63-0.79,2.44-1.24,3.36
		c-0.02-0.49-0.37-0.35-0.54-0.47c0.06-0.52,0.19-0.67,0.32-0.78c-0.08-0.03-0.22-0.05-0.33-0.07L10.64,14.02z"/>
	<path class="st0" d="M11.75,12.38c-0.01-0.04-0.02-0.07-0.04-0.09C11.72,12.33,11.73,12.36,11.75,12.38z"/>
	<path class="st0" d="M11.05,13.08c0-0.02,0-0.03,0-0.05c-0.01,0.01-0.03,0.03-0.04,0.04C11.02,13.07,11.04,13.07,11.05,13.08z"/>
	<path class="st0" d="M12.98,10.07c0.03-0.14,0.05-0.18,0.08-0.32c-0.02,0.05-0.04,0.09-0.06,0.13
		C12.97,9.95,12.97,10.01,12.98,10.07z"/>
	<path class="st0" d="M13.07,10.93l-0.02,0.2c0.01,0.02,0.02,0.03,0.03,0.04C13.09,11.07,13.09,10.98,13.07,10.93z"/>
	<path class="st0" d="M8.83,9.6L8.78,9.71C8.81,9.7,8.82,9.65,8.83,9.6z"/>
	<path class="st0" d="M10.11,13.19c0.16-0.05,0.02-0.73,0.25-0.73l-0.07-0.04c0.17-0.31,0.46-0.17,0.66-0.19
		c-0.02,0.29,0.12,0.35,0.1,0.81c0.14-0.11,0.27-0.21,0.34-0.67c0.08,0.15,0.21-0.26,0.32-0.06c-0.05-0.27,0.15-0.92-0.11-0.59
		c0.02-0.04,0.01-0.1,0.03-0.14c-0.17-0.38-0.23,0.27-0.38,0.27c-0.09-0.27,0.14-0.43,0.06-0.54c-0.18,0.25-0.57-0.32-0.55,0.69
		c-0.13,0.07-0.15-0.15-0.19-0.34c-0.21,1.08-0.77-0.46-0.77,0.92c0.08-0.05,0.2-0.03,0.31-0.32L10.11,13.19z"/>
	<path class="st0" d="M12.7,10.14c-0.01-0.01-0.02,0-0.03-0.01C12.68,10.14,12.69,10.14,12.7,10.14z"/>
	<path class="st0" d="M14.78,14.15l-0.07,0.9c-0.39,0.22-0.53-0.04-0.88,0c-0.03-0.12,0.02-0.2,0.04-0.24
		c-0.24,0.1-0.6-0.08-0.78,0.33c-0.08-0.01-0.28-0.29-0.2-0.56c-0.04,0.08-0.08,0.16-0.12,0.13c-0.01-0.33,0.1-0.09,0.1-0.36
		c-0.03-0.02-0.05-0.08-0.06,0.02c0.06-0.28-0.06-1.1,0.21-1.08c0.1,0.76-0.19,0.09-0.12,0.92c0.09,0.01,0.08-0.32,0.09-0.42
		c0.11,0.02,0.11,0.23,0.1,0.42c0.04-0.26,0.19,0.1,0.24-0.29c0.22-0.07-0.01,0.63,0.13,0.62l0.08-0.85l0.24,0.16
		c0.34-0.3-0.05-1.46,0.34-1.94c-0.05,0.44,0.11,1.19,0.29,1.36c-0.11,0.03-0.31,0.58-0.45,0.33c0.2,0.66-0.27,0.08-0.17,0.84
		c0.1-0.36,0.26-0.41,0.39-0.21l-0.04,0.08c0.14,0.09,0.24-0.8,0.43-0.46c0.09-0.03,0.08,0.21,0.06,0.41
		C14.71,14.13,14.78,13.96,14.78,14.15z M14.57,14.33l-0.13-0.08C14.48,14.38,14.53,14.38,14.57,14.33z"/>
	<path class="st0" d="M30.47,4.35c0.01,0.02,0.03,0.04,0.04,0.07C30.5,4.38,30.48,4.36,30.47,4.35z"/>
	<path class="st0" d="M19.36,4.02l0.07,0.03C19.4,4.02,19.38,4.02,19.36,4.02z"/>
	<path class="st0" d="M20.98,1.22l0.11-0.2C21.05,1.04,21.02,1.12,20.98,1.22z"/>
	<path class="st0" d="M29.6,4.29L29.6,4.29c-0.01,0.01-0.01,0.03-0.02,0.04L29.6,4.29z"/>
	<path class="st0" d="M24.25,3.21c0.02,0.07,0.03,0.14,0.06,0.19C24.3,3.31,24.28,3.25,24.25,3.21z"/>
	<path class="st0" d="M20.96,1.26c0,0.01,0,0.01,0.01,0.02c0-0.02,0.01-0.04,0.01-0.05L20.96,1.26z"/>
	<path class="st0" d="M18.64,1.55c-0.02,0.03-0.03,0.05-0.05,0.08C18.61,1.62,18.63,1.59,18.64,1.55z"/>
	<path class="st0" d="M18.74,3.95C18.72,3.97,18.71,4,18.7,4.04L18.74,3.95z"/>
	<path class="st0" d="M16.23,2.31l-0.1,0.12C16.18,2.41,16.21,2.37,16.23,2.31z"/>
	<path class="st0" d="M18.48,3.4c-0.01,0.04-0.01,0.08-0.02,0.12C18.48,3.49,18.49,3.44,18.48,3.4z"/>
	<polygon class="st0" points="31.09,6.87 31.08,6.88 31.08,6.98 	"/>
	<path class="st0" d="M31.33,5.64c0.03-0.03,0.06-0.05,0.09-0.07C31.38,5.56,31.35,5.59,31.33,5.64z"/>
	<path class="st0" d="M25.67,4.57c0.03,0.12,0.09,0.27,0.06,0.41C25.77,4.8,25.77,4.37,25.67,4.57z"/>
	<path class="st0" d="M30.61,12.18c0.02-0.11,0.03-0.2,0.05-0.29C30.63,12.01,30.6,12.12,30.61,12.18z"/>
	<path class="st0" d="M30.67,11.89c0.02-0.06,0.04-0.12,0.05-0.19C30.7,11.75,30.68,11.82,30.67,11.89z"/>
	<path class="st0" d="M25.01,11.6c-0.01-0.06-0.02-0.11-0.03-0.12C24.98,11.6,24.99,11.62,25.01,11.6z"/>
	<path class="st0" d="M31.48,5.71c0.02-0.2,0.39-0.64,0.07-0.74c0.01-0.63,0.2-0.29,0.28-0.45c-0.06-0.15,0.03-0.4,0.01-0.63
		c-0.04,0.08-0.09,0.26-0.16,0.21c-0.03-0.29,0.07-0.48,0.15-0.38c-0.1-0.33,0.13-0.5-0.01-0.75c-0.3,0.22-0.52,0.45-0.73,1.37
		c0.17-0.15,0.37-0.34,0.51-0.09L31.55,4.8c-0.16-0.48-0.26-0.12-0.42-0.17l0.35,0.29c0.17,0.45,0.05,0.56-0.08,0.66
		C31.45,5.58,31.47,5.61,31.48,5.71z"/>
	<path class="st0" d="M31.24,10.48l0.01,0.02c0.01-0.02,0.01-0.03,0.01-0.05L31.24,10.48z"/>
	<path class="st0" d="M16.25,13.32l-0.03,0.21C16.25,13.43,16.25,13.36,16.25,13.32z"/>
	<path class="st0" d="M31.03,7.84L31.03,7.84C31.03,7.85,31.03,7.85,31.03,7.84z"/>
	<path class="st0" d="M17.01,13.36c0,0.01,0,0.03,0,0.05C17.01,13.39,17.01,13.37,17.01,13.36z"/>
	<path class="st0" d="M17.21,1.63c0-0.02,0-0.05-0.01-0.07C17.19,1.58,17.2,1.61,17.21,1.63z"/>
	<path class="st0" d="M17.01,13.31c0,0.02,0,0.03,0,0.05C17.01,13.34,17.01,13.32,17.01,13.31z"/>
	<path class="st0" d="M20.68,11.31c0,0-0.01-0.09-0.03-0.18C20.64,11.18,20.65,11.23,20.68,11.31z"/>
	<path class="st0" d="M19.96,10.5c0-0.02-0.01-0.04-0.01-0.06L19.96,10.5z"/>
	<path class="st0" d="M25.5,2.12c-0.04-0.01-0.06,0.01-0.09,0.03C25.44,2.16,25.46,2.16,25.5,2.12z"/>
	<path class="st0" d="M17,13.4c-0.01,0.06-0.02,0.12-0.04,0.19C16.99,13.52,17,13.46,17,13.4z"/>
	<path class="st0" d="M21.79,8.56c-0.01,0.02-0.01,0.04-0.02,0.06c0,0.01,0.01,0.02,0.01,0.03L21.79,8.56z"/>
	<path class="st0" d="M22.17,8.96c-0.01,0.06-0.02,0.13-0.03,0.18c0.14-0.23,0.38,0.02,0.41-0.56c-0.05,0.01-0.28-0.33-0.24-0.66
		c-0.09,0.14-0.23-0.26-0.28-0.17c0.15,0.32,0.02,0.49-0.09,0.68c-0.09-0.17,0.02-0.47-0.06-0.57l-0.22,0.06L21.85,8l-0.06,0.56
		c0.01-0.02,0.01-0.03,0.02-0.05C22.13,8.25,21.83,9.32,22.17,8.96z"/>
	<path class="st0" d="M22.14,9.14c-0.02,0.03-0.04,0.08-0.05,0.14C22.12,9.27,22.13,9.21,22.14,9.14z"/>
	<path class="st0" d="M23.46,10.06c0.02-0.02,0.03-0.05,0.06-0.09C23.51,9.99,23.48,10.02,23.46,10.06z"/>
	<path class="st0" d="M13.77,9.28c0.01,0.16,0.19,0.5,0.19,0.07c-0.06-0.04-0.11-0.09-0.17-0.13L13.77,9.28z"/>
	<path class="st0" d="M27.07,7.57C27.04,7.56,27.02,7.56,27,7.56c0,0.02-0.01,0.04-0.01,0.07C27,7.69,27.04,7.61,27.07,7.57z"/>
	<path class="st0" d="M22.37,7.72c-0.03,0.07-0.05,0.13-0.06,0.2C22.33,7.89,22.35,7.83,22.37,7.72z"/>
	<path class="st0" d="M27.08,8.59c0.03,0.12,0.07,0.31,0.07,0.47c0.05,0,0.09-0.22,0.15-0.3C27.23,8.82,27.16,8.78,27.08,8.59z"/>
	<path class="st0" d="M27.3,8.75C27.3,8.76,27.3,8.76,27.3,8.75C27.3,8.76,27.3,8.76,27.3,8.75z"/>
	<path class="st0" d="M13.66,9.1c-0.02,0.03-0.03,0.06-0.05,0.09l0.03-0.11c-0.04-0.04-0.09-0.08-0.13-0.13
		C13.49,8.97,13.47,9,13.45,9.01C13.46,9,13.47,8.95,13.47,8.9c-0.01-0.02-0.03-0.03-0.04-0.05c-0.1,0.44-0.36,0.77-0.43,1.03
		c-0.1,0.19-0.22,0.3-0.29,0.26c0.07,0.01,0.16-0.08,0.13-0.33c-0.14-0.26-0.21-0.99-0.46-0.36l0.14-0.01L12.2,10.4
		c-0.11-0.39,0.16-0.47,0.21-0.82c-0.25,0.47-0.46-0.78-0.58,0.04c-0.02-0.49-0.04-1.3-0.21-1.25c0.12,0.56-0.1,0.36,0,0.95
		c-0.06,0.28-0.18-0.18-0.19,0.19l0.02-0.2c-0.28-0.77-0.37,0.44-0.49,0.84c-0.34,0.2-0.49-0.12-0.77-0.03
		c-0.01-0.33-0.09-1.23-0.2-1.19c-0.05,0.44-0.3,0.65-0.33,1.21c0.2,0.24,0.16-0.48,0.28-0.61c0.1,0.59,0.01,0.59,0.14,0.94
		c-0.11-0.23-0.49,0.31-0.61-0.25l0.04-0.08C9.33,9.81,9.3,8.4,8.98,9.25L8.83,9.6c0.01-0.06,0.01-0.12,0.01-0.17
		c-0.25-0.06-0.18-0.7-0.45-0.2c0.02-0.04,0.01-0.1,0.03-0.14C8.27,8.77,8.11,9.41,7.99,9.55C7.92,9.07,8.01,9.08,8.05,8.74
		c-0.27-0.18-0.57,0.63-0.74,1.2L7.14,9.67c0.1-0.2,0.23-0.69,0.2-0.98c-0.1,0.09-0.08,0.32-0.21,0.23c0.02-0.3,0.08-0.58,0.14-0.96
		C6.99,7.44,7.21,9.02,7.01,8.09c-0.09-0.01-0.14,0.44-0.15,0.8L6.7,8.42C6.68,8.88,6.48,8.91,6.35,8.98
		c-0.02,0.2,0.1,0.5,0.15,0.32C6.5,9.66,6.36,9.83,6.27,9.83C6.24,8.85,5.69,9.97,5.79,8.82c-0.4,0.32-0.96,0.42-1.23,0.82
		C4.48,9.37,4.3,9.36,4.41,8.9c-0.32,0-0.49,1-0.81,0.73C3.58,9.51,3.75,9.62,3.74,9.3c-0.21,0.39-0.38-0.41-0.7-0.15
		C3.09,9.13,3.1,8.92,3.11,8.82c0.01,0.16-0.13,0.34-0.22,0.49C2.85,9.23,2.96,9.2,2.93,9.07C2.3,8.6,1.83,9.93,1.21,9.88
		c0.18,0.01,0.24-0.63,0.25-0.9L1.28,8.97C1.21,9.3,1.08,9.29,0.97,9.54C0.96,9.41,0.9,9.28,0.96,9.13C0.61,8.48,0.42,10.31,0,9.97
		l0.51-1.3L0.38,8.22l0.22-0.59C0.47,7.27,0.36,8.09,0.34,7.6c0.03-0.14,0.1-0.09,0.1-0.36C0.31,7.05,0.3,7.42,0.2,7.51
		c0.25-1,0.75-0.98,1.02-1.22c0.04-0.08-0.04,0.24-0.04,0.34C1.29,6.6,1.36,6.91,1.5,6.74c0.09-0.42-0.07-0.31-0.13-0.35
		c0.01-0.37,0.04-0.34,0.12-0.4C1.5,6.47,1.9,6.16,2,6.75C2.4,6.6,1.93,5.49,2.33,5.7l0.12,0.56c0.23-0.43,0.53-0.81,0.79-0.7
		L3.18,5.58C3.14,5.82,3.2,5.97,3.23,6.09c0.2,0.24,0.37-0.44,0.49,0.12c0.22-0.59,0.6-1.03,0.85-1.34
		c0.07,0.74-0.33,0.63-0.44,1.09l0.23,0c-0.14,0.01-0.2,0.29-0.29,0.71c0.2,0.14,0.27-0.51,0.47-0.69c-0.02,0.2,0.01,0.32,0.1,0.33
		l0.03-0.49c0,0.04,0.01,0.08,0.04,0.11l0.34-0.3C4.98,5.41,4.98,4.98,4.89,4.97c0.03,0.28-0.04,0.34-0.13,0.33
		c0.08-0.32-0.09-0.27-0.08-0.53c0.18,0.01,0.4-0.05,0.52-0.19l0.04,0.45C5.39,5.15,5.57,4.9,5.69,5.03L5.65,5.27
		c0.2,0.14,0.41-0.15,0.59,0.29C6.42,5.05,6.65,4.62,6.8,4.08C6.88,3.5,7.33,4.81,7.54,3.99C7.55,4.05,7.4,4.43,7.33,4.65
		c0.14,0.09,0.25-0.63,0.29-0.02C7.31,4.42,7.63,5.11,7.49,5.29c0.14-0.01,0.29-0.12,0.37-0.34c-0.23,0,0.08-0.85-0.15-0.58
		c0.18-0.51,0.43-0.72,0.65-0.52c0,0.26,0.02,0.39,0.11,0.5l0.07-0.38c0.1,0.07-0.2,0.45,0.01,0.59C8.74,3.9,9.17,4.92,9.26,3.71
		C9.42,4.19,8.95,4.2,9.2,4.78C9.05,5.22,8.86,4.72,8.81,5.32c0.14-0.17,0.05,0.51,0.14,0.52l0.15-0.37L9.07,5.44
		c0.26-0.57,0.67-0.3,1-0.39c0.28-0.61,0.47-1.49,0.81-1.42c-0.1,0.36,0.28,0.34,0.07,1c0.15,0.32,0.31-0.06,0.31-0.32
		c-0.14-0.09-0.05-0.09-0.16-0.21c0.08-0.32,0.26-0.31,0.33-0.1c-0.03-0.02-0.02,0.04-0.03,0.14c0.16,0.22,0.08-0.32,0.2-0.45
		c0.04,0.45,0.26,0.12,0.37,0.35l0.16-0.64c-0.09,0.42,0.15,0.15,0.17,0.54c0.11-0.3,0.21-0.82,0.38-0.7
		c-0.07,0.22,0.16,0.32,0.16,0.74c0.29,0.41,0.48-1.16,0.76-0.55c-0.01,0.1-0.06,0.38,0.02,0.49c0.06-0.12,0.17-0.07,0.24-0.12
		l0,0.01c0,0,0-0.01,0-0.01c0.03-0.02,0.05-0.08,0.05-0.18c0.12-0.42,0.18-0.84,0.4-1.2c-0.02-0.49-0.21-0.3-0.29-0.14l-0.07,0.48
		c-0.07-0.74-0.21,0.13-0.26-0.12c0.14-0.86,0.53-0.65,0.77-1.18c-0.14-0.68-0.46-0.79-0.73-0.7l0.12,0.29l-0.14,0.01l0.14,0.52
		c-0.14-0.09-0.25,0.04-0.38,0.01c0.14-0.01,0.2,0.66,0.12,0.56c-0.16-0.48-0.17,0.31-0.29,0.28c0.07,0.04,0.16,0.05,0.1,0.33
		c-0.24-0.59-0.31-0.2-0.53-0.83c0.03,0.81-0.27,0.08-0.31,0.75l0.1,0.07l-0.22,0.49c-0.2-0.66,0.18-0.68-0.13-1.14
		c-0.28-0.08-0.27,0.77-0.49,0.84c0.07-0.48,0.25-0.9,0.43-0.88l-0.11-0.23c0.06-0.28,0.3-0.22,0.43-0.19
		c-0.2,0.55,0.09,0.17,0.19,0.6c0.02-0.47-0.11-0.39,0.04-0.77c-0.14,0.01-0.17,0.05-0.35-0.13c0.4,0.21,0.36-1.62,0.7-1.23
		C12.97,0.31,13.18,0.77,13.2,1c0.08-0.06,0.23-0.17,0.29-0.28l-0.06-0.67c0.2-0.29,0.27,1.14,0.5,0.44c0.03-0.4-0.2-0.14-0.16-0.21
		c0.32-0.42,0.43,0.66,0.72,1.17c0.02-0.2,0.01-0.63,0.11-0.99c-0.03,0.4,0.04,0.61-0.07,0.91c0.09,0.17,0.21-0.13,0.29-0.28
		c-0.2-0.24,0.08-0.58,0.12-0.82c0.1,0.07-0.03,0.4-0.09,0.52c0.08,0.11,0.18,0.7,0.23,0.1c0,0.43-0.23,1.12-0.38,1.23l0.1,0.07
		c-0.07,0.22-0.08,0.16-0.18,0.09c0.1,0.33,0.09,0.69,0.07,1c-0.01-0.06,0.01-0.1-0.01-0.16c-0.08-0.11-0.14,0.01-0.13,0.23
		c-0.07,0.57,0.11,0.36,0.17,0.64c0.04-0.04,0.08-0.08,0.12-0.11l0.42-1.84c0.18-0.21,0.26,0.23,0.4,0.5l0.04-0.49
		c0.16,0.05,0.31,0.21,0.21,0.83c-0.01-0.16-0.03-0.12-0.06-0.15c0,0.07-0.01,0.11-0.02,0.15c0,0.03-0.01,0.06-0.01,0.09
		c0.17-0.16,0.27-0.26,0.28-0.28c-0.29,0.71-0.01,0.89-0.06,1.76l0.29-0.28c-0.18-0.28,0-0.43,0.06-0.54c0.02,0.49,0.23,0,0.33,0.06
		l-0.01,0.1c0.09,0.17,0.26,0.12,0.38-0.01c-0.01-0.16,0.15-0.96,0.22-1.45c-0.2-0.18-0.08-0.38-0.1-0.68
		c0.02,0.03,0.06,0.03,0.06-0.03c0.03-0.14-0.04-0.19-0.04-0.35c-0.21,0.23-0.43,0.29-0.52,0.98c0.07,0.31,0.11-0.3,0.19-0.09
		c-0.11,0.46-0.24,0.37-0.42,0.36l-0.06-0.41l-0.18,0.22c0.07-0.22,0.03-0.65,0.22-0.73c-0.02-0.39-0.19,0.09-0.3-0.04l-0.06,0.54
		c0.02-0.3-0.22-0.36-0.05-0.78l0.28-0.45l-0.08-0.37l0.24-0.1l-0.06,0.28c0.39-0.38,0.11,1.08,0.5,0.44
		c0.12-0.66,0.25-0.73,0.49-0.57C17.25,0.68,17.41,1,17.34,1.38c0.18,0.28,0.24-0.27,0.33-0.53c0.04,0.35,0.08,0.63-0.08,0.58
		c-0.02,0.73,0.21-0.13,0.22,0.62c0.52-0.02,0.42-2.43,1.03-1.49l-0.02,0.3c0.39-0.38,0.61-0.02,0.97-0.25l0.28,0.77
		C20,1.51,19.83,2.09,19.91,2.46c-0.14-0.78-0.28-0.51-0.43-0.92c-0.02,0.2,0.05,0.35,0.07,0.47C19.46,2,19.41,1.65,19.3,1.79
		c0.01,0.16,0.13,0.35,0.04,0.45l-0.16-0.48c-0.21,0.23-0.11,1.15-0.36,0.93c0.05-0.43,0.14-1.05,0.24-1.15
		c-0.11-0.09,0.15-0.26,0.05-0.51c-0.17,0.63-0.25,0.13-0.47,0.53c0.03-0.09,0.03-0.21,0.09-0.25l-0.32-0.27
		c0.08,0.37-0.26,0.41-0.23,0.96c0.34,0.23,0.24-0.1,0.63,0.21c-0.11,0.12-0.25,0.69-0.32,1.2c0-0.02-0.01-0.04-0.02-0.05
		c-0.06,0.55,0,0.69,0,1.64c0.18-0.68,0.3-0.12,0.5-0.51c0.04-0.52-0.12-0.67-0.22-0.53l0.18-0.35l-0.04,0.24l0.47,0.18
		c-0.09,0.03-0.12,0.33-0.16,0.56c0.06,0.02,0.12,0.16,0.18,0.31c-0.01-0.5,0-0.85,0.05-0.84c0.3,0.12,0.47,0.57,0.58,1.13
		c0.01-0.01,0.02-0.02,0.04-0.04c-0.05-0.51,0.21-0.92,0.31-1.44c0,0.53,0.15,0.32,0.24,0.59c0.05-0.61-0.02-1.44-0.12-1.94
		c-0.2,0.55-0.11,0.56-0.21,1.34l-0.33,0.52l0.07-0.48c-0.16-0.21-0.32,0.42-0.31-0.2c0.09-0.42,0.23-0.16,0.31-0.58L19.9,2.73
		c0.19-0.62,0.1,0.59,0.33,0.16c-0.08-0.53,0.02-0.04,0.12-0.4c-0.08-0.37-0.4,0.15-0.34-0.76c0.12-0.4,0.4,1.06,0.56,0.16L20.57,2
		c0.23,0.12,0.32-0.4,0.4-0.73c0.1,0.29,0.24-0.12,0.34-0.15l0,0.26l0.15-0.11c-0.07,0.48-0.18-0.01-0.31,0.06l0.02,0.49
		c-0.15-0.58-0.25,0.3-0.37,0.73c0.17-0.42,0.48,0.12,0.52-0.84l0.1,0.5l0.05-0.18c0.08,0.37,0,0.96-0.15,1.07
		c-0.03-0.12-0.04-0.19-0.03-0.29c-0.07,0.22-0.14,0.6-0.31,0.49l0.09-0.26C20.87,3,20.67,3.19,20.6,3.67
		c0.31,0.2,0.61,0.25,0.89,0.23c0.08-1.11,0.19-1.73,0.23-2.76c0.19-0.19,0.45-0.33,0.62,0.05l-0.02,0.2
		c0.08,0.11,0.16,0.05,0.22-0.07c0.09,0.27-0.06,0.54,0,0.69l0.28-0.35c-0.02,0.47-0.25,0.47-0.36,0.5
		c0.02-0.04,0.06-0.12,0.05-0.18c-0.13-0.19-0.37,0.6-0.42-0.07c-0.06,0.12,0.13-0.5-0.08-0.53c-0.14-0.25-0.19,0.35-0.2,0.55
		c0,0.26,0.22,0.36,0.14,0.68c0.11-0.03,0.15-0.37,0.3-0.12c-0.11,0.03-0.26,0.57-0.32,0.16c-0.22,0.49-0.19,1.73-0.08,1.8
		c-0.02-0.39,0.39-0.48,0.11-0.99c0.13-0.5,0.36-0.5,0.53-0.82l-0.01,0.1l0.21-0.12c-0.03,0.14-0.09,0.26-0.09,0.52l0.29-0.71
		c-0.16,0.48,0.1,0.33,0.17,0.54c0.03-0.4,0.14-0.7,0.04-0.93c-0.12-0.29-0.07,0.22-0.18,0.25l0.16-0.64l0.01,0.06l0.09-0.52
		c0.21,0.04-0.09,1.21,0.18,0.7l-0.04-0.71c0.31,0.1,0.72,0.9,0.94,0.58c-0.06,0.4-0.09,1.05,0,1.44c-0.1-0.12-0.29-0.1-0.43-0.03
		c-0.03-0.13,0.17-0.84,0.32-0.69c-0.07-1.16-0.38,0.7-0.39-0.48c-0.38-0.41-0.28,1.14-0.61,0.44c0,0.53-0.09,0.26-0.11,0.72
		c0.1,0.86,0.43-0.03,0.64,0.27c-0.02,0.04-0.06,0.12-0.07,0.22c0.15,0.15,0.21,0.04,0.32-0.16l-0.01-0.06
		c0.18-0.51,0.11,0.39,0.22,0.63c0.04-0.08,0.19,0.07,0.17-0.31l0.19,0.5l-0.01-0.59c0.11-0.03,0.13,0.35,0.23,0l0-0.53l-0.27-0.18
		c0.14-0.17,0.04-0.5,0.19-0.61c-0.17,0.58,0.12,0.29,0.14,0.78l0.11-0.3l-0.03,0.14c0.09,0.27,0.1-0.2,0.21-0.13
		c-0.12-0.29-0.2-0.66-0.35-0.29c0.11-0.3,0.33-0.62,0.39-0.64c0.12-0.22,0.2,0.18,0.31,0.24c-0.21,0.21,0.07,1.6-0.35,1.22
		c0.01-0.1,0.04-0.08,0.06-0.02c-0.06-0.67-0.25,0.04-0.35,0.3c0.02,0.39-0.07,0.48,0.09,0.7C24.81,4.1,25,3.48,25.15,3.8
		l-0.03,0.83l0.23,0.1l-0.02,0.04c0.08,0.53,0.24-0.1,0.4,0.21c0.11-0.3,0.54-0.06,0.36-0.93c0.14,0.52,0.26-0.14,0.41-0.25
		l-0.19-0.34c0.22-0.59,0.16-0.21,0.34-1.15c0.02,0.23,0.06,0.41,0.02,0.65c0.3,0.04,0.73,0.28,0.91-0.4
		c0.21,0.04,0.25,1.01,0.54,0.63c0.06-0.12-0.05-0.78,0.15-0.54c0.01,0.06-0.19,0.61,0.03,0.55c0.16-0.64,0.37,0.35,0.57-0.2
		c0.11,0.23,0.29,0.14,0.25,0.65c-0.17-0.11-0.41-0.01-0.45,0.23c0.02-0.3-0.12-0.29,0-0.53c-0.26-0.38-0.17,0.31-0.4,0.05
		c-0.02,0.2,0.12,0.56,0.17,0.38c0,0.69-0.45,0.33-0.25,1.16c0.25,0.06,0.32-1.38,0.53-0.65c-0.09,0.42-0.22,0.06-0.33,0.79
		l0.18,0.28l0.13-0.5l-0.01,0.1c0.31,0.63,0.29-0.71,0.56-1.06c-0.16-0.48,0.04-1.2-0.08-1.49c0.19-0.09,0.32,0,0.32,0.69
		c-0.35,0.56-0.02,0.73-0.34,1.42c0.05,0.25-0.08,1.01,0.11,1.09c0.22-0.49-0.06-0.57,0.15-0.8c0.01,0.06,0.03,0.12,0.02,0.23
		c0.1-0.36,0.12,0.13,0.23-0.27L29.65,4.9c0.15,0.42,0.16-0.47,0.29-0.02c-0.05-0.51,0.09-0.42,0.16-0.74
		c-0.13-0.19-0.2-0.93-0.45-0.89c-0.03,0.4-0.01,0.63-0.12,0.83l0.16-0.05c-0.04,0.07-0.06,0.17-0.1,0.25l-0.16-0.21
		c0.2-0.29,0.11-0.72,0.19-1.14c0.18,0.18,0.15-0.11,0.27,0.02c-0.01,0.59,0.35,1.01,0.57,1.4c-0.03-0.02-0.08-0.01-0.1-0.02
		c-0.15,0.38,0.11,0.5,0.11,0.66l0.11-0.3c-0.02,0.04-0.05,0.18,0,0.26c0.15-0.11,0.14-0.7,0.29-0.81c0.01,0.33-0.12,0.82-0.02,0.99
		C30.9,5.42,31,6.18,31.2,5.89c0.01-0.13,0.07-0.2,0.13-0.25c-0.01,0.02-0.02,0.03-0.02,0.05l0.13,0.36
		c-0.11,0.56-0.23-0.26-0.34,0.3l-0.01,0.53c-0.09,0-0.21,0.23-0.27,0.51c0.14,0.09,0.16-0.05,0.32-0.16
		c0.02,0.34-0.09,0.58-0.1,0.62l0.02-0.3c-0.18-0.44-0.27,0.51-0.5,0.41c-0.03-0.02-0.01-0.06-0.01-0.16
		c-0.18,0.51-0.36-0.19-0.54,0.49L30.07,8c-0.12,0.23-0.36,0.75-0.59,1.25l0,0.21c0.03,0.12-0.06,0.12-0.11,0.03l0,0
		c-0.12,0.25-0.23,0.48-0.32,0.66c0.03,0.13,0.07,0.23,0.11,0.26c0.04-0.24,0.25-0.04,0.22-0.59c0.1,0.33,0.26-0.14,0.33,0.06
		c-0.13-0.35,0.09-0.52,0.12-0.82c0.05,0.35,0.2-0.03,0.18,0.44c0.03,0.12-0.07-0.31-0.12-0.03c-0.14,0.44,0.26,0.38,0.08,0.8
		c0.22-0.33,0.52-0.19,0.74-0.62l-0.13-0.19c0.1,0.07,0.34-0.04,0.36,0.19c-0.08,0.05-0.16,0.05-0.26,0.14c0,0.53,0.23,0,0.24,0.32
		l0.28-0.87l-0.12-0.03c0.08-0.32,0.34,0.07,0.53,0.14c-0.11,0.72-0.29,0.02-0.49,0.31c-0.15,0.27,0.09,0.7-0.05,0.87
		c0.04,0.17,0.13,0.15,0.17-0.03l0.05,0.13c-0.12,0.66-0.4,0.51-0.58,1.07c0.02-0.07,0.03-0.14,0.04-0.22
		c-0.14-0.25-0.29-0.24-0.42-0.07c0.07,0.21,0.1,0.07,0.14-0.01c0.01,0.16-0.13,0.23-0.17,0.41c0.13,0.19,0.02,0.39,0.11,0.5
		c-0.08,0.16-0.15,0.11-0.25,0.04c-0.05-0.25,0.04-0.34,0.03-0.67c-0.1,0.19-0.15-0.58-0.31-0.21c0.2,0.14-0.05,0.71-0.12,0.93
		l0.03,0.02c-0.06,0.38-0.12,0.4-0.16,0.05c0.08-0.16,0.16-0.05,0.14-0.44c-0.06,0.02-0.11,0.03-0.17,0.15l0.06-0.28l-0.27,0.08
		c-0.04,0.34-0.12,0.82-0.15,1.33c-0.07-0.31-0.16-0.05-0.22,0.07l0.03-0.14c-0.12-0.29-0.39-0.05-0.41,0.25
		c-0.09-0.27,0.61-1.92,0-1.64c-0.23,0-0.14,0.97-0.28,1.3c0,0,0.01-0.1-0.01-0.16c-0.1-0.07-0.11,0.3-0.2,0.45
		c0.06,0.15,0.15,0.15,0.18,0.01c-0.03,0.4-0.21-0.04-0.29,0.28c0.1-0.62-0.2-0.24-0.12-0.56c-0.2-0.4-0.42,0.09-0.53,0.55
		c-0.14-0.78-0.24,0.1-0.46-0.26c0.03,0.02,0.1-0.09,0.14-0.01c0.13-0.5-0.23-0.26-0.04-0.71c-0.04,0.08,0,0.26,0.04,0.18
		c0.07-0.06,0.15-0.27,0.13-0.5L27.01,12l0.06-0.12l-0.28-0.61c-0.01,0.1,0.02,0.22,0.03,0.29c-0.32-0.27-0.69,0.07-0.97-0.01
		c-0.05,1.4-0.69,0.6-0.92,1.46c0.06-0.4,0.09-1.11,0.06-1.4c0.05-0.06,0.15-0.62,0.27-0.51c0.02,0.22,0.16,0.48,0.07,0.74
		c0.32-0.16-0.04-0.61,0.05-1.13c-0.35,0.14-0.56,0.95-0.78,1.28l-0.01-0.16l-0.17,0.31c0.14,0.09,0.13,0.88-0.05,0.61l0.02-0.04
		c-0.1-0.33-0.31,0.06-0.47,0.01l-0.11,0.46c-0.16-0.05-0.16-0.91-0.21-1.42c-0.25-0.06-0.39,0.64-0.56,1.05
		c-0.08-0.37-0.45-0.46-0.25-0.91c-0.22,0.33-0.18,2.32-0.56,1.22l0.1-0.36c-0.36,0.07-0.88,0.79-1.05,0.41
		c0.13-1.29-0.45-1.31-0.52-2.58c0.02,0.29-0.12,0.39-0.14,0.54c-0.03-0.15-0.08-0.29-0.13-0.03c0.14,0.25-0.1,1.31,0.17,0.8
		c-0.14,0.87-0.31,1.54-0.61,1.5l0-0.53l0.24,0.16c-0.02-0.39,0.1-0.36,0.15-0.54c-0.44-0.3,0.06-1.23-0.39-1.17
		c-0.04,0.34-0.02,0.2-0.13,0.34c0.06-0.02,0.07-0.38-0.02-0.39l-0.09,0.42c-0.16-0.88,0.26-0.57,0.13-1.19
		c0.17-0.41,0.48-0.64,0.42-1.31c-0.29-0.24-0.26,1.26-0.56,0.95l-0.03-0.29c-0.1,0.2-0.12,0.66-0.18,0.94
		c-0.01-0.16-0.03-0.28-0.1-0.33c-0.18,0.68-0.29,0.81-0.46,1.55c0.44-0.56,0.37,0.52,0.82,0.02c-0.07,0.22-0.39,0.38-0.41,1.11
		l0-0.53c-0.15,0.27-0.29,0.55-0.48,0.37l0.11-0.3c-0.24,0.37-0.4-0.8-0.6,0.08c0.07,0.05,0.12,0.03,0.16-0.05
		c-0.13,0.24-0.28,0.18-0.42,0.09l-0.28,0.87c0-0.26-0.18-0.28-0.09-0.7c-0.2-0.4-0.3,0.38-0.42,0.52c-0.21-0.56,0.18-0.25,0.2-0.98
		c-0.29-0.24-0.59-0.02-0.75,0.45c0.06,0.11,0.09,0.2,0.08,0.33c-0.01-0.17-0.12-0.12-0.19-0.13l-0.04,0.34
		c-0.11-0.23-0.09-0.43,0-0.69c-0.1-0.07-0.22,0.59-0.33,0.1c0.17-0.41,0.4-0.05,0.49-0.31c-0.36,0.34-0.37-1.04-0.83-0.61
		c-0.01-0.16,0.07-0.48-0.02-0.49c-0.21,0.13-0.05,0.71-0.12,1.09c0.16-0.21,0.23,0,0.33,0.43l-0.04,0.28
		c-0.01-0.14-0.11-0.15-0.14-0.29l-0.03,0.57c0.01-0.63-0.15-1.11-0.27-0.87c0.13,0.45,0.09,0.43,0.13,1.15
		c-0.18,0.68-0.2-0.66-0.4,0.05c0.01-0.2,0.19-0.35,0.04-0.51c-0.12-0.03-0.11,0.46-0.19,0.62c0.09-0.52,0.07-0.91,0.17-1.53
		c0.22-0.07,0.09,0.01,0.3-0.22l-0.18-0.44c0.19-0.08,0.14-0.6,0.15-0.8c-0.32-0.53-0.24,0.79-0.44,0.66
		c-0.1,0.36,0.19,0.08,0.04,0.45c-0.19-0.08-0.04,0.34-0.26,0.57l0.04-0.24c-0.07-0.31-0.13,0.07-0.21,0.12
		c-0.08,0.16,0.09,1.82-0.25,1.85c0.02-0.15,0.02-0.24,0.02-0.3l0.33-4.39c-0.35,0.01-0.75-0.11-1.15-0.41
		c-0.09-0.86,0.29-0.71,0.26-1.09l0.18,0.18c-0.01,0.36-0.38,0.11-0.22,0.76c0.32-0.26,0.47,0.16,0.78-0.59
		c-0.1-0.86-0.4,0.15-0.6-0.51c0.08,0.06,0.15-0.04,0.22-0.16c-0.19-0.11-0.39-0.23-0.6-0.36l-0.05,0.21
		c0.14,0.1,0.24,0.17,0.26,0.2C14,7.89,13.84,8.37,13.83,9l0.03,0.02l-0.07,0.2C13.75,9.18,13.7,9.14,13.66,9.1z M1.28,8.95
		C1.3,8.89,1.3,8.82,1.31,8.73C1.3,8.82,1.31,8.88,1.28,8.95z M17.4,6.99c-0.25-0.09-0.51-0.26-0.76-0.34
		c0.44,1.24,0.75,2.18,0.02,2.16L16.61,8.9c0.1,0.15,0.26,0.17,0.42,0.08c0.13-0.44,0.53-2.06,0.53-2.2
		c-0.04-0.35-0.11,0.03-0.19-0.07L17.4,6.99z M17.58,9.07c0.14,0.14,0.11-0.14,0.13-0.38c-0.05,0.03-0.1,0.06-0.15,0.09
		C17.58,8.84,17.59,8.93,17.58,9.07z M17.7,8.44c-0.02-0.01-0.03-0.02-0.04-0.05L17.7,8.44z M14.9,8.12
		c0.01-0.01,0.01-0.01,0.01-0.02c-0.03-0.02-0.07-0.04-0.1-0.06C14.82,8.09,14.85,8.12,14.9,8.12z M15.19,8.73l0.03-0.45
		c-0.03-0.02-0.06-0.03-0.1-0.05C15.14,8.43,15.15,8.61,15.19,8.73z M16.13,10.22c0.06-0.55,0.26-0.57,0.27-1.2
		c0.01-0.16-0.03-0.22-0.08-0.28c-0.05-0.01-0.11-0.03-0.17-0.05c0,0.09-0.01,0.18-0.03,0.26c0.06,0.08,0.1,0.23,0.07,0.62
		c-0.15-0.84-0.13,0.6-0.3,0.38C15.85,10.41,16.08,10.4,16.13,10.22z M28.64,8.59c0,0.05,0.02,0.2,0.04,0.37l-0.11,0.31
		C28.36,9.13,28.2,8.23,28.01,9c-0.09-0.2-0.13-0.61-0.18-0.95c0.04,0.03,0.08,0.06,0.11,0.11C28.47,7.03,28.22,9.37,28.64,8.59z
		 M26.29,7.48c0.02-0.04,0.03-0.14,0.03-0.14c-0.46,1.15-0.83,1.49-1.08,1.44c0.05,0.46,0.27,0.81,0.37,1l-0.09,0.52l-0.06-0.41
		l-0.16,0.47c0.05,0.35,0.18,0.28,0.26,0.55c0.01-0.1,0.29-0.71,0.36-1.03L25.7,9.52c0.06,0.15,0.36,0.03,0.47-0.11
		c0-0.26-0.2-0.66-0.23-0.1c-0.02-0.39,0.21-0.39,0.06-0.81c0.17-0.41,0.45-0.07,0.58,0.12l0.02,0.65c0.14,0.25,0.1-0.79,0.26-0.41
		c-0.21,0.13,0.03,0.71-0.13,0.76c0.05,0.25,0,0.69,0.17,0.64c0.14-0.86,0.17,0.54,0.3-0.22c0.09,0.27-0.09,0.52,0.08,0.64
		c0.2-0.45,0.18-0.78,0.2-1.41c-0.18-0.18-0.21,0.82-0.35,0.66l0.3-1.08c-0.05-0.15-0.1-0.17-0.13-0.12
		c0.06-0.06,0.11-0.22,0.15-0.44c0.02-0.12,0.05-0.23,0.07-0.32c-0.17-0.01-0.32-0.02-0.34-0.29l0.02-0.3
		c-0.06-0.28-0.16-0.06-0.2,0.16c-0.15,0.03-0.3,0.46-0.33,0.06l0.06-0.28C26.54,7.44,26.52,7.47,26.29,7.48z M20.21,6.78
		c0.11,1.12,0.24,2.1,0.76,1.91l-0.04,0.08c0.26,0.7,0.51-0.93,0.84-0.15C21.61,9.04,21.62,9,21.45,9.97l0.17-0.32
		c-0.05,0.61,0.12,0.29,0.24,0.32l-0.11,0.72c-0.07-0.21-0.26-0.28-0.26-0.12c0.04-0.08-0.25-0.91-0.41-0.7
		c0.02,0.49,0.35,0.29,0.2,1.09c0.13-0.34,0.15,0.15,0.29-0.02c-0.13,0.34-0.03,0.67-0.13,1.02l0.23-0.17
		c0.01,0.16-0.33,0.36-0.14,0.96c0.09-0.26,0.33,0.07,0.34-0.46l0.01,0.16c0.17,0.11,0.08-0.75,0.28-0.45
		c0-0.27-0.04-0.45-0.11-0.39c-0.06,0.12-0.07,0.48-0.2,0.55c-0.06-0.41,0.16,0.05,0.07-0.65c-0.05-0.35-0.34,0.3-0.25-0.48
		l0.17,0.11c0-0.53,0.13-0.5,0.12-0.92c0.1-0.19,0.2,0.4,0.31-0.06c0.04-0.34-0.03-0.98,0.14-0.7c0.14,0.78,0.54,0.63,0.69,0.52
		l0.13-0.34c-0.01-0.32-0.25,0.04-0.17-0.38l0.21-0.13l-0.02,0.2c0.07,0.04,0.14-0.17,0.2-0.29c-0.06,0.38-0.21,0.23-0.18,0.78
		c0.1,0.11,0.11,0.31,0.2,0.21c-0.02,0.04-0.04,0.09-0.03,0.17c0.2,0.24,0.19-0.62,0.24-0.79c0.2-0.72-0.2-0.66-0.17-1.23l0.58-0.3
		c-0.05,0.18-0.1,0.36-0.08,0.58c0.14,0.25,0,0.43,0.2,0.4c-0.01-0.75,0.25-0.47,0.39-0.9c0.07,0.31,0.08,0.37-0.06,0.38
		c0.02,0.49,0.21,0.3,0.28,0.35c0.04-0.12,0.11-0.19,0.15-0.3c-0.06-0.24-0.03-0.55,0.09-0.76l0.01-0.1
		c-0.2-0.13-0.52-0.67-0.65-0.17l0.04-0.24c-0.24-0.42-0.51,0.88-0.62-0.05c0.01-0.36-0.05-0.08-0.04-0.61l-0.17,0.41l0.04-0.24
		l-0.3,0.12l0.01-0.1C23.2,7.15,23.09,7.54,23,7.86c0,0.23,0.01,0.3-0.04,0.47c-0.05,0.11-0.08,0.13-0.11,0.1c0,0,0,0,0,0
		c0,0,0,0,0,0c-0.07-0.07-0.12-0.4-0.21-0.53l0.27-0.06c0.02-0.39,0-0.8-0.14-1.07c0.06-0.01,0.08-0.32,0.01-0.36
		c-0.01,0.1-0.18,0.25-0.11,0.56c-0.26,0.14-0.68-0.88-1.08-0.14c0.28-0.45-0.23-0.52,0.09-0.68c-0.22-0.63-0.19,0.61-0.41,0.52
		c-0.02-0.22,0.12,0.03,0.17-0.41C21.07,6,20.81,7.26,20.45,7.07l-0.02-0.49C20.37,6.64,20.29,6.71,20.21,6.78z M19.49,7.39
		c-0.07,0.05-0.14,0.11-0.21,0.17c0.01,0.01,0.01,0.01,0.02,0.01l-0.21,0.39c0.13,0.19,0.21,0.73,0.03,0.98
		c0.02-0.2-0.04-0.45,0.03-0.57c-0.12-0.29-0.39-0.58-0.32,0.16c0.23-0.7,0.05,0.94,0.24,0.42c-0.1,0.48-0.19,0.26-0.29,0.48
		c0.1-0.4-0.02-0.91-0.17-1.1c-0.06,0.12-0.23,0.01-0.34,0.2c0.04,0.45-0.05,0.71,0.12,0.82c-0.06,0.12-0.16,0.21-0.27-0.02
		c0.04-0.08,0.12-0.13,0.11-0.3c-0.07-0.41-0.15-0.4-0.2-0.57c-0.04,0.03-0.07,0.05-0.11,0.07c0.01,0.04,0.02,0.09,0.03,0.15
		l-0.12,0.4c0.16-0.21,0.07,0.21,0.07,0.47c0-0.53-0.1-0.07-0.16-0.05l0.12,0.56c-0.06,0.28-0.2-0.4-0.17,0.15
		c0.25,0.22,0.35,0.13,0.57-0.04l-0.09-0.43c0.26-0.31,0.16,0.74,0.45,0.72c0.12-0.4,0.43-0.03,0.44-0.82
		c-0.04,0.24,0.18,0.7,0.28,0.35c0.11-0.72,0.44-0.82,0.34-1.15c-0.09-0.01-0.21,0.39-0.28-0.08l0.17-0.15l-0.11-0.39
		C19.53,8.36,19.52,7.97,19.49,7.39z M15.63,2.95c0,0,0-0.01-0.01-0.01C15.63,2.94,15.63,2.94,15.63,2.95L15.63,2.95z"/>
	<path class="st0" d="M31.19,6.94c0.05-0.18,0.17-0.15,0.15-0.54C31.34,6.83,31.12,6.47,31.19,6.94z"/>
	<path class="st0" d="M31.34,7.36c0.01-0.1,0-0.27,0.06-0.28l-0.15,0.11L31.34,7.36z"/>
	<path class="st0" d="M31.49,10.27c0.08-0.32,0.13-0.5,0.25-0.47c0.05,1.04-0.2,0.29-0.26,1.26c0.22,0.1,0.29-0.81,0.48-0.9
		C31.87,9.73,31.5,9.48,31.49,10.27z"/>
	<polygon class="st0" points="31.39,11.59 31.52,11.35 31.5,11.29 31.38,11.53 	"/>
	<path class="st0" d="M28.68,2.56c-0.01-0.33-0.09-0.01-0.13,0.07C28.58,2.65,28.63,2.74,28.68,2.56z"/>
	<path class="st0" d="M4.1,2.22L3.14,2.53C3.42,2.45,3.67,2.41,4.1,2.22z"/>
	<path class="st0" d="M25.51,4.68c0.26-0.31,0.37-0.87,0.63-1.01c-0.34-0.65-0.45,1.02-0.74,0.35L25.51,4.68z"/>
	<path class="st0" d="M25.61,2.09c0.04,0.61-0.2,0.72-0.16,1.17c0.17-0.15,0.08-0.58,0.24-0.53L25.61,2.09z"/>
	<polygon class="st0" points="26.77,12.2 26.69,12.52 26.75,12.4 	"/>
	<polygon class="st0" points="24.44,2.63 24.47,2.49 24.34,2.3 	"/>
	<path class="st0" d="M24.49,2.35l-0.03,0.14L24.49,2.35z"/>
	<polygon class="st0" points="26.67,13.51 26.78,13.64 26.84,13.36 	"/>
	<path class="st0" d="M25.65,10.23l0.1-0.2C25.73,10.07,25.59,9.82,25.65,10.23z"/>
	<polygon class="st0" points="23.65,2.37 23.53,2.61 23.54,2.67 23.66,2.43 	"/>
	<path class="st0" d="M24.84,11.92c0.07,0.47-0.21,0.13-0.06,0.54C24.91,12.39,24.86,12.14,24.84,11.92z"/>
	<path class="st0" d="M23.32,8.73c-0.02,0-0.03,0.02-0.05,0.07C23.29,8.78,23.31,8.75,23.32,8.73z"/>
	<path class="st0" d="M23.32,8.73c0.05,0,0.11,0.18,0.15,0.04C23.4,8.56,23.38,8.64,23.32,8.73z"/>
	<path class="st0" d="M22.69,8.84l0.05,0.03c-0.05,0.23-0.03,0.2,0.02,0.01c0.05-0.02,0.05-0.16,0.06-0.27
		c0.01-0.06,0.02-0.12,0.03-0.18c-0.02,0.06-0.03,0.12-0.04,0.17C22.73,8.6,22.68,8.62,22.69,8.84z"/>
	<path class="st0" d="M20.36,0.91c0.18,0.18,0.23,0.26,0.22,0.62c0.17,0.12,0.15-0.51,0.25-0.66C20.64,0.95,20.6,0.78,20.36,0.91z"
		/>
	<path class="st0" d="M20.84,0.88c0.02-0.01,0.04-0.02,0.07-0.03C20.88,0.84,20.86,0.85,20.84,0.88z"/>
	<polygon class="st0" points="23.43,12.83 23.31,13.39 23.36,13.31 	"/>
	<path class="st0" d="M20.09,0.73c0.03,0.02,0.09,0.01,0.12,0.13C20.22,0.49,20.06,0.71,20.09,0.73z"/>
	<path class="st0" d="M20.8,7.89c0.02,0.22,0.14,0.09,0.18,0.18C20.91,8.02,20.86,7.34,20.8,7.89z"/>
	<path class="st0" d="M19.57,2.23c0.03,0.02,0.09,0.27,0.06,0.57C19.68,2.63,19.75,1.98,19.57,2.23z"/>
	<polygon class="st0" points="20.46,7.82 20.49,7.95 20.62,7.71 	"/>
	<path class="st0" d="M20.91,13.21c0.14-0.44-0.22-1.05,0.02-1.42c-0.31-0.46,0.02,0.62-0.21,0.55
		C20.86,12.49,20.93,13.04,20.91,13.21z"/>
	<path class="st0" d="M20.72,12.34c-0.02-0.02-0.04-0.04-0.06-0.04C20.69,12.32,20.71,12.33,20.72,12.34z"/>
	<path class="st0" d="M18.74,9.58c0.02-0.05,0.03-0.1,0.05-0.15C18.77,9.47,18.75,9.52,18.74,9.58z"/>
	<path class="st0" d="M19.99,12.7l0.21-0.65c-0.14,0.44-0.5,0.41-0.47,1.06c0.12,0.13,0.25-0.04,0.31-0.32L19.99,12.7z"/>
	<path class="st0" d="M17.56,0.89l0.09-0.26l-0.11-0.08C17.57,0.65,17.51,1.13,17.56,0.89z"/>
	<path class="st0" d="M17.51,0.54l0.02,0.01C17.53,0.54,17.52,0.53,17.51,0.54z"/>
	<path class="st0" d="M19.14,9.27c0.07,0.05,0.12,0.03,0.19-0.09C19.3,9.06,19.13,8.94,19.14,9.27z"/>
	<polygon class="st0" points="16.91,1.84 17.07,1.72 16.9,1.77 	"/>
	<polygon class="st0" points="16.21,0.73 16.18,0.61 16.06,0.84 16.09,0.96 	"/>
	<path class="st0" d="M17.13,13.55c0.1,0.07,0.18-0.52,0.16-0.64l-0.2,0.03c0.05,0.51,0.05-0.02,0.17,0.11L17.13,13.55z"/>
	<path class="st0" d="M10.99,1.69c0.04-0.34,0.26-0.14,0.27,0.18c-0.03,0.14-0.15,0.28-0.07,0.48l0.17-0.84
		c0.23,0.52-0.17,1.1-0.29,1.4c0.23,0.11,0.3-0.44,0.55-0.44c-0.07-0.08-0.12-0.28-0.16-0.46c-0.01-0.59,0.22-0.33,0.39-0.38
		c-0.1-0.26-0.04-0.47,0.03-0.71c0.01-0.02,0.02-0.05,0.03-0.09c0.01-0.03,0.02-0.06,0.03-0.08l-0.02,0c0-0.07,0-0.15-0.02-0.26
		c-0.14,0.17-0.24-0.32-0.33-0.33c0.09,0.96-0.3,0.22-0.41,0.52l-0.13,0.09l-0.05,0c-0.01-0.11,0-0.24,0.08-0.43
		c-0.06,0.19-0.27,0.12-0.25,0.43L10.34,0.8c-0.01-0.04-0.03-0.09-0.04-0.16c-0.02,0.06-0.02,0.11-0.02,0.16L8.24,0.86
		c0.1,0.08,0.19,0.29,0.29,0.4C8.38,1.9,8.7,1.38,8.66,1.98c-0.07,0.22-0.17,0.15-0.23,0C8.4,2.29,8.49,2.56,8.48,2.92
		c0.26,0.38,0.3-1.08,0.55-0.85C9.02,2.44,8.94,2.75,9.1,2.7L9.06,2.78c0.26-0.41,0.21,0.83,0.37-0.18l0,0.53
		c0.12-0.4,0.35-0.4,0.48-0.47L9.9,2.76c0.37-0.6,0.21-0.13,0.62-0.38L10.33,3c0.14,0.25,0.17-0.41,0.28-0.35
		c-0.01,0.1,0.02,0.49-0.08,0.58l0.5-0.94C11.15,1.9,11.01,1.91,10.99,1.69z"/>
	<path class="st0" d="M11.62,2.47c0.03,0.03,0.06,0.04,0.09,0.02C11.68,2.47,11.65,2.47,11.62,2.47z"/>
	<path class="st0" d="M8.1,0.87l0.14,0C8.2,0.83,8.15,0.82,8.1,0.87z"/>
	<path class="st0" d="M12.34,1.32c-0.09-0.27,0.07-0.38,0.08-0.58l-0.31,0.01c0,0.2-0.03,0.43-0.02,0.62L12.34,1.32z"/>
	<path class="st0" d="M12.02,0.36c-0.01,0.14-0.04,0.27-0.08,0.39l0.17-0.01C12.11,0.59,12.09,0.45,12.02,0.36z"/>
	<polygon class="st0" points="12.05,11.2 12,11.22 11.91,11.38 	"/>
	<path class="st0" d="M11.19,10.31c0.07,0.31,0.19,0.07,0.23,0C11.28,10.32,11.34,10.2,11.19,10.31z"/>
	<polygon class="st0" points="11.37,13.61 11.23,13.78 11.24,13.84 	"/>
	<path class="st0" d="M7.04,2.94C7.02,2.95,6.99,2.96,6.97,2.97C7,2.98,7.02,2.96,7.04,2.94z"/>
	<path class="st0" d="M8.23,2.44C7.9,1.85,8.45,1.95,8.34,1.19L8.16,1.44l0.02-0.2L7.96,1.3C8,1.65,8.04,1.67,8.03,2.04
		C7.73,1.89,7.93,1.6,7.72,1.14L7.39,1.21L7.42,1.1C7.39,1.11,7.38,1.15,7.37,1.21l-1.1,0.23c-0.2,0.29,0.11,0.66-0.04,1.2
		c0.23,0,0.58,0.39,0.6-0.34C6.82,2.39,6.8,2.6,6.85,2.68l0.13-0.6L6.86,1.89c0.14-0.6,0.57-0.46,0.65-0.09
		C7.26,2,7.39,2.72,7.04,2.33c0.02,0.18,0.08,0.51,0,0.61C7.45,2.73,7.81,3.06,8.23,2.44z"/>
	<path class="st0" d="M4.16,2.79l0-0.07C4.16,2.76,4.15,2.78,4.16,2.79z"/>
	<path class="st0" d="M4.3,2.88l0.2-0.71L4.19,2.22l-0.02,0.5C4.19,2.6,4.3,2.34,4.34,2.54L4.3,2.88z"/>
	<path class="st0" d="M4.72,1.73C4.56,1.95,4.57,2.54,4.66,2.8C4.51,3.08,4.58,2.17,4.48,2.79c0,0.43,0.18,0.18,0.22,0.1L4.72,1.73z
		"/>
	<polygon class="st0" points="5.9,2.04 5.85,2.29 5.96,2.35 	"/>
	<path class="st0" d="M5.85,2.29L5.74,2.22C5.75,2.4,5.76,2.58,5.78,2.7L5.85,2.29z"/>
	<path class="st0" d="M5.46,2.05C5.41,2.01,5.36,1.97,5.3,1.96L5.46,2.05z"/>
	<path class="st0" d="M5.58,2.2l0-0.08L5.46,2.05C5.5,2.1,5.54,2.15,5.58,2.2z"/>
	<path class="st0" d="M5.74,2.22c-0.02-0.41-0.04-0.85-0.2-0.73l0.03,0.64L5.74,2.22z"/>
	<polygon class="st0" points="10.36,12.99 10.23,13.22 10.25,13.28 10.37,13.05 	"/>
	<path class="st0" d="M9.64,12.61c-0.03,0.07-0.05,0.15-0.08,0.23C9.59,12.79,9.62,12.72,9.64,12.61z"/>
	<path class="st0" d="M9.1,15.43c-0.15-0.42,0.2-0.55-0.07-0.73c-0.02-0.39,0.1-0.89,0.23-0.69c-0.01,0.36-0.13,0.23-0.05,0.6
		c0.09-0.42,0.12-0.13,0.09-0.68c0.14-0.34,0.16-0.73,0.26-1.09c-0.17,0.24-0.54-0.32-0.76,0.38c-0.12,0.66-0.05,1.56-0.05,2.51
		C8.77,15.96,9.09,16.06,9.1,15.43z"/>
	<path class="st0" d="M9.33,16.38c0.07,0.05,0.09,0.01,0.13-0.07C9.45,15.99,9.39,16.37,9.33,16.38z"/>
	<path class="st0" d="M7.76,9.21c-0.01,0.14-0.14,0.3-0.11,0.54l0.19-0.17C7.8,9.55,7.78,9.39,7.76,9.21z"/>
	<path class="st0" d="M7.92,9.5L7.84,9.57C7.86,9.59,7.89,9.57,7.92,9.5z"/>
	<path class="st0" d="M7.76,9.12c0,0.03,0.01,0.06,0.01,0.08C7.77,9.18,7.77,9.15,7.76,9.12z"/>
	<path class="st0" d="M5,1.82c0-0.26-0.08-0.11-0.12-0.03C4.91,1.81,4.96,1.89,5,1.82z"/>
	<path class="st0" d="M1.87,2.84L1.79,2.64C1.82,2.76,1.83,2.82,1.87,2.84z"/>
	<path class="st0" d="M0.73,9.99c0,0.05-0.01,0.09-0.01,0.13C0.72,10.09,0.73,10.05,0.73,9.99z"/>
	<path class="st0" d="M0.72,10.12C0.67,10.34,0.51,10,0.46,10.33l0.01-0.1l-0.1,0.2C0.46,10.4,0.66,10.44,0.72,10.12z"/>
</g>
</svg>
