<?xml version="1.0" encoding="utf-8"?>
<!-- Generator: Adobe Illustrator 25.1.0, SVG Export Plug-In . SVG Version: 6.00 Build 0)  -->
<svg version="1.1" id="Calque_1" xmlns="http://www.w3.org/2000/svg" xmlns:xlink="http://www.w3.org/1999/xlink" x="0px" y="0px"
	 viewBox="0 0 23.26 55.2" style="enable-background:new 0 0 23.26 55.2;" xml:space="preserve">
<style type="text/css">
	.st0{fill:#6BC06D;}
</style>
<g>
	<path class="st0" d="M22.75,21.24c0.07-0.35,0.04-0.72-0.08-1.09c0.04-0.42-0.17-0.76-0.56-1.03c-0.47-0.59-1.17-1.08-1.94-1.3
		c-0.61-0.17-1.27-0.18-1.91,0.04c-0.99-0.31-1.97-0.25-2.87,0.07c-1.07-0.16-2.2,0.15-3.13,1.22c0.13-0.58,0.25-1.16,0.38-1.73
		c0.31-1.4,0.61-2.78,0.89-4.16c0,0,0.01,0,0.01,0c1.4-0.32,2.72-1.41,3.73-2.8c0.98-1.35,1.69-3,1.9-4.5
		c0.03-0.17,0.04-0.33,0.06-0.49c0.32-1.59,0.22-2.61-0.16-3.17c-0.31-0.46-0.77-0.66-1.33-0.65c-0.13-0.14-0.26-0.26-0.39-0.37
		c-0.04-0.04-0.07-0.07-0.11-0.11l0,0c-0.04-0.03-0.08-0.06-0.15-0.08c-0.07-0.04-0.14-0.08-0.21-0.12
		c-0.75-0.37-1.42-0.28-2.03,0.14c-0.47,0.33-0.89,0.88-1.25,1.55c-1.23,2.31-1.88,6.14-1.97,6.72c-0.01,0.08,0.04,0.15,0.13,0.2
		c0.01,0.51,0.09,1.01,0.25,1.51c-0.07,1.06,0,1.85,0.24,2.12c0,0,0.01,0.01,0.02,0.01c-0.04,0.12-0.07,0.23-0.11,0.35
		c-0.53,1.74-1.09,3.56-1.59,5.35c-0.01-0.01-0.02-0.02-0.03-0.03c-0.05-0.45-0.14-0.91-0.25-1.39c-0.56-2.32-1.82-4.76-3.65-5.24
		c-0.02-0.02-0.04-0.04-0.06-0.06c-1.23-1.11-2.03-1.2-2.5-0.65c-0.57,0.67-0.39,2.54,0.14,4.53c0.11,1.4,0.87,3.39,2.7,5.92
		c0.33,0.72,0.7,1.21,1.07,1.5c0.46,0.36,0.94,0.45,1.38,0.36c-0.26,1.34-0.45,2.61-0.49,3.74c-0.09,2.3-0.05,4.27,0.08,6
		c0,0.4,0.01,0.8,0.01,1.21c-0.1,1.15-0.19,2.05-0.26,2.76c-0.16,1.64-0.23,2.36-0.22,3c0.01,0.52,0.08,0.97,0.2,1.77
		c0.13,0.89,0.32,2.21,0.58,4.53c0.02,0.19,0.19,0.33,0.37,0.31c0.18-0.02,0.31-0.18,0.3-0.37c-0.04-0.77-0.1-2.58-0.16-4.83
		c0.05,0,0.1,0.01,0.15,0.01c0.14,3.04,0.31,5.95,0.57,8.21c-0.06,0.46-0.14,0.93-0.24,1.43c-0.03,0.19,0.09,0.38,0.27,0.41
		c0.08,0.02,0.15,0.01,0.22-0.03c0.18,1.04,0.39,1.82,0.65,2.25c0.1,0.17,0.31,0.22,0.47,0.12c0.09-0.06,0.15-0.16,0.16-0.26l0,0
		c0.03-0.25-0.11-1.95-0.31-4.14c0.07,0.04,0.15,0.06,0.24,0.05c0.17-0.03,0.3-0.19,0.28-0.37l0,0c-0.01-0.14-0.01-0.2-0.01-0.24
		c0-0.08-0.01-0.12-0.02-0.19c-0.01-0.09-0.03-0.16-0.07-0.34l0-0.01l-0.07-0.27c-0.01-0.03-0.01-0.06-0.03-0.08
		c-0.17-0.86-0.35-1.68-0.54-2.5l-0.16-0.7c-0.07-0.98-0.2-1.91-0.36-2.85c0.21,0.56,0.64,0.77,1.18,0.7
		c0.49-0.07,1.07-0.4,1.65-0.96c0.94-0.91,1.91-2.44,2.41-4.36c0.87-1.01,1.23-2.4,0.35-3.97c-0.06-0.99-0.29-1.87-0.75-2.31
		c-0.15,0.15-0.3,0.24-0.45,0.3c-0.01,0-0.02,0-0.03,0c-0.04,0-0.09,0.04-0.14,0.05c-0.64,0.14-1.37-0.16-2.35,0.89
		c-0.44,0.57-0.81,1.09-1.11,1.58l-0.03,0.02c-0.95,0.52-1.51,1.4-1.06,2.64c-0.08,0.55,0,0.99,0.17,1.35
		c-0.11,0.16-0.22,0.32-0.33,0.49c-0.03-0.78-0.06-1.56-0.09-2.33c-0.08-2.22-0.16-4.35-0.25-6.17c0.19-1.41,0.42-2.77,0.65-4.1
		c0.09-0.22,0.18-0.44,0.27-0.66l0.14-0.35c0.35-0.01,0.72-0.05,1.09-0.12c0.06,0.01,0.12,0.02,0.18,0.02l0.11,0.01
		c1.2,0.6,3.35,0.55,6.76-0.74c2.01-0.76,3.05-1.48,3.4-2.09C23.03,21.95,22.99,21.56,22.75,21.24z M10.34,25.14
		c-0.06,0.33-0.12,0.67-0.18,1c-0.08,0.2-0.17,0.42-0.26,0.63c-0.03-0.31-0.07-0.6-0.11-0.84c0-0.05-0.02-0.09-0.04-0.14
		c0.1-0.71,0.24-1.47,0.4-2.24c0.3-0.08,0.51-0.33,0.62-0.7c0.01-0.02,0.02-0.05,0.04-0.07c-0.04,0.18-0.07,0.35-0.1,0.53
		c-0.25,0.47-0.4,1-0.42,1.6C10.27,24.99,10.29,25.07,10.34,25.14z M5.48,14.73c0.01,0.45,0.08,0.94,0.18,1.44
		c0.04,0.22,0.1,0.44,0.16,0.66c0,0.03,0,0.05,0.01,0.09l0,0.05c0.01,0.15,0.03,0.3,0.04,0.45c-0.06,0.02-0.11,0.05-0.16,0.08
		c-0.05,0.04-0.09,0.1-0.12,0.16C5.42,16.75,5.41,15.73,5.48,14.73z M6.78,16.64c0.07,0.32,0.14,0.61,0.21,0.88
		c-0.1-0.03-0.2-0.06-0.29-0.08c-0.04-0.13-0.08-0.25-0.12-0.38c0.01-0.16,0.03-0.3,0.06-0.42C6.69,16.63,6.73,16.64,6.78,16.64z
		 M7.59,16.82c0.2,0.29,0.38,0.58,0.55,0.87c-0.12,0.02-0.25,0.05-0.38,0.09c-0.08-0.29-0.17-0.62-0.25-0.99
		C7.54,16.8,7.57,16.8,7.59,16.82z M7.23,18.8c0.06,0.03,0.12,0.07,0.18,0.1c0.05,0.13,0.09,0.24,0.14,0.35
		c-0.02,0.02-0.05,0.03-0.07,0.05C7.39,19.16,7.31,18.99,7.23,18.8z M7.93,19.99C7.93,19.99,7.94,19.99,7.93,19.99l0.01,0.05
		C7.91,20,7.88,19.95,7.85,19.9c0.01-0.01,0.01-0.01,0.02-0.02C7.89,19.92,7.91,19.96,7.93,19.99z M16.15,4.34c0,0.12,0,0.23,0,0.35
		c-0.01,0-0.01,0-0.02,0c-0.09-0.08-0.17-0.15-0.25-0.2l0.04-0.04l0.06-0.03C16.04,4.39,16.09,4.36,16.15,4.34z M14.2,9.81
		c0.02-0.11,0.04-0.22,0.06-0.32c0.05,0.2,0.12,0.39,0.19,0.55c-0.05,0.04-0.09,0.06-0.14,0.09C14.27,10.03,14.24,9.92,14.2,9.81z
		 M15.77,7.54c-0.06,0-0.13-0.01-0.19-0.02l0.34-0.29c-0.02,0.1-0.03,0.2-0.05,0.3C15.83,7.54,15.8,7.55,15.77,7.54z M17.01,4.77
		c0-0.02,0-0.04,0-0.07C17.01,4.73,17.01,4.75,17.01,4.77C17.01,4.77,17.01,4.77,17.01,4.77z M16.09,6.11
		C16.06,6.33,16.03,6.55,16,6.78c-0.02-0.03-0.02-0.08-0.06-0.1l-0.17-0.14l0,0c-0.05-0.05-0.08-0.07-0.12-0.1
		c-0.05-0.03-0.08-0.05-0.14-0.08l-0.13-0.07c-0.02-0.01-0.04-0.01-0.05-0.02c0.08-0.22,0.18-0.38,0.31-0.44
		C15.74,5.77,15.89,5.86,16.09,6.11z M15.67,8.22c-0.04,0.12-0.07,0.25-0.11,0.37c-0.07,0.06-0.14,0.11-0.21,0.16
		c-0.03-0.23-0.05-0.43-0.06-0.61C15.42,8.18,15.54,8.21,15.67,8.22z M13.65,12.67c0.06-0.31,0.12-0.62,0.18-0.92
		c0.23-0.09,0.45-0.19,0.65-0.33c0.09,0.04,0.18,0.07,0.27,0.09c0.2,0.05,0.41,0.07,0.62,0.05C14.83,12.07,14.25,12.45,13.65,12.67z
		 M15.66,10.93c-0.21,0.11-0.4,0.15-0.54,0.11C15.08,11.04,15.04,11.02,15,11c0.08-0.08,0.14-0.17,0.21-0.26
		c0.33,0.01,0.7-0.27,1.08-0.94c0.31-0.23,0.62-0.48,0.91-0.77C16.72,10.04,16.18,10.66,15.66,10.93z M17.23,2.24
		c0.49,0.63,0.77,1.28,0.89,1.92c-0.2-0.27-0.47-0.47-0.8-0.6c-0.11-0.12-0.25-0.18-0.39-0.22c-0.04-0.32-0.09-0.63-0.15-0.91
		C16.94,2.35,17.09,2.29,17.23,2.24z M16.01,2.93c0.03,0.15,0.04,0.33,0.06,0.49c-0.27,0.03-0.55,0.09-0.82,0.19
		c0.05-0.05,0.1-0.11,0.15-0.16C15.61,3.27,15.81,3.09,16.01,2.93z M15.66,1.67c0.03,0.07,0.06,0.15,0.09,0.23
		c-0.09,0.08-0.18,0.15-0.26,0.21c-0.15,0.12-0.29,0.22-0.42,0.34C15.26,2.11,15.46,1.84,15.66,1.67z M12.86,11
		c0.01-0.08,0.02-0.16,0.02-0.24c0.03,0.04,0.07,0.08,0.1,0.12c-0.02,0.08-0.05,0.17-0.07,0.25C12.89,11.09,12.87,11.04,12.86,11z
		 M12.51,14.79c-0.18,0.82-0.36,1.64-0.54,2.47c-0.23,1.04-0.46,2.1-0.69,3.17c-0.04-0.25-0.1-0.5-0.2-0.74
		C11.52,18.05,12.02,16.4,12.51,14.79z M9.47,17.07c-0.02-0.03-0.05-0.06-0.08-0.1c-0.01-0.09-0.01-0.18-0.03-0.28
		C9.4,16.82,9.43,16.94,9.47,17.07z M7.13,14.75c0.26,0.26,0.49,0.64,0.69,1.07c-0.04-0.01-0.08-0.04-0.12-0.05
		c-0.02-0.03-0.04-0.05-0.06-0.08c-0.2-0.28-0.39-0.54-0.54-0.77l0,0c-0.07-0.11-0.21-0.17-0.34-0.15
		c-0.18,0.04-0.31,0.22-0.27,0.41c0.03,0.18,0.07,0.34,0.1,0.51c-0.09,0.01-0.18,0-0.28,0.02c-0.01,0-0.02,0.01-0.02,0.01
		c-0.1-0.56-0.15-1.1-0.1-1.54C6.48,14.25,6.82,14.44,7.13,14.75z M5.68,12.91c0.22-0.03,0.43-0.03,0.64,0.01l0.05,0.07
		c-0.11,0-0.22,0-0.33,0.01c-0.12,0-0.23,0.07-0.29,0.19c-0.05,0.1-0.09,0.21-0.13,0.32l-0.02,0C5.63,13.31,5.65,13.11,5.68,12.91z
		 M5.3,12.27c-0.13,0.03-0.23,0.14-0.26,0.29c-0.06,0.43-0.12,0.88-0.17,1.34c-0.13,0.12-0.24,0.27-0.34,0.45
		c-0.2-1.1-0.21-1.99,0.08-2.33c0.14-0.16,0.43-0.13,0.9,0.2C5.44,12.24,5.37,12.26,5.3,12.27L5.3,12.27z M8.76,22.15
		c-0.05-0.05-0.1-0.1-0.15-0.16C8.7,22,8.8,22,8.89,22c0.01,0.01,0.03,0.02,0.04,0.02c-0.05,0.04-0.1,0.08-0.14,0.11L8.76,22.15z
		 M9.29,22.61c0.15-0.11,0.27-0.27,0.39-0.43c0.02-0.01,0.05-0.02,0.07-0.03c-0.05,0.21-0.1,0.43-0.15,0.64
		C9.5,22.75,9.4,22.69,9.29,22.61z M10.74,40.38c-0.02-0.15-0.04-0.29-0.05-0.42c0.17-0.31,0.35-0.62,0.56-0.93
		C11.07,39.51,10.9,39.96,10.74,40.38z M15.49,33.74c-0.05-0.04-0.1-0.08-0.16-0.12c-0.08-0.09-0.16-0.18-0.25-0.27
		c0.06-0.03,0.12-0.05,0.18-0.07c0.22,0.24,0.39,0.47,0.53,0.71l0,0.14C15.72,33.98,15.61,33.84,15.49,33.74z M11.7,40.63
		l-0.01,0.32l-0.07,0.03C11.64,40.87,11.67,40.76,11.7,40.63z M11.58,41.77l0.11-0.04c0,0.01,0.01,0.02,0.01,0.03
		C11.66,41.76,11.62,41.76,11.58,41.77z M12.06,42.49l0,0.03c-0.1,0.01-0.19-0.01-0.27-0.07c0.09-0.01,0.18-0.02,0.28-0.03
		L12.06,42.49L12.06,42.49z M14.93,39.06c0.05-0.06,0.11-0.1,0.15-0.17c0.04,0,0.08-0.01,0.12-0.02c-0.13,0.34-0.28,0.66-0.44,0.96
		C14.83,39.58,14.88,39.32,14.93,39.06z M14.57,32.43c-0.05,0.06-0.11,0.13-0.16,0.19c-0.04,0.02-0.07,0.03-0.11,0.05
		C14.4,32.58,14.48,32.51,14.57,32.43z M9.76,40.31c-0.01-0.3-0.01-0.59-0.02-0.89l0.12,0.67C9.83,40.16,9.79,40.23,9.76,40.31z
		 M16.77,21.86L16.77,21.86c-0.01,0.08-0.01,0.11-0.01,0.16c0,0.02,0,0.03,0,0.04c-0.05-0.02-0.11-0.03-0.16-0.04l-0.02-0.1
		c0.06-0.07,0.13-0.15,0.2-0.22c0,0,0,0,0.01,0L16.77,21.86L16.77,21.86z M20.51,21.31c0.01-0.04,0.02-0.07,0.03-0.11
		c0.01,0.01,0.03,0.01,0.04,0.02c0,0.02-0.01,0.03-0.01,0.05C20.56,21.29,20.54,21.3,20.51,21.31z M17.25,19.59
		c-0.01,0-0.01,0-0.02,0C17.23,19.59,17.24,19.59,17.25,19.59C17.24,19.59,17.24,19.59,17.25,19.59z M21.83,20.22
		c-0.01,0.02-0.02,0.04-0.03,0.06c-0.04,0.07-0.11,0.15-0.18,0.23c-0.11-0.04-0.22-0.08-0.34-0.11c-0.07-0.15-0.15-0.31-0.25-0.46
		c-0.06-0.12-0.13-0.24-0.21-0.36c0-0.04,0-0.08,0-0.11l0.06,0.02l0.07,0.03C21.43,19.71,21.76,19.97,21.83,20.22z M12.04,20.71
		c0.44-0.87,0.97-1.43,1.54-1.75c-0.66,0.54-1.22,1.21-1.61,1.9C11.99,20.81,12.01,20.76,12.04,20.71z M14.05,23.95
		c-0.62-0.1-1.29-0.25-2.01-0.45c-0.01-0.03-0.01-0.06-0.02-0.09c0.13-0.27,0.26-0.53,0.39-0.78c0.11-0.06,0.22-0.11,0.34-0.17
		c-0.05,0.09-0.06,0.2-0.02,0.3c0.07,0.18,0.27,0.27,0.44,0.2c0.08-0.03,0.22-0.08,0.38-0.13c0.04-0.01,0.08-0.03,0.11-0.04
		c0.06,0.09,0.14,0.17,0.23,0.25c0.16,0.25,0.38,0.49,0.61,0.7C14.36,23.82,14.21,23.89,14.05,23.95z"/>
	<path class="st0" d="M6.66,36.74c0.14-0.05,0.28-0.11,0.41-0.18c0.08,0.01,0.16,0.02,0.24,0.03c0.13,0.01,0.27,0.02,0.42,0.02
		c0.15,0.01,0.29-0.08,0.35-0.23c0.14-0.41,0.21-0.81,0.23-1.19c0.25-1.15-0.28-2.49-1.17-3.7c-1.62-3.21-3.05-4.77-4.14-5.24
		c-1.12-0.49-1.92,0.02-2.31,1.05c-0.21,0.54-0.29,1.25-0.23,2.02c-0.05,0.19-0.09,0.41-0.11,0.65c-0.23,3.32,1.17,5.36,2.84,6.31
		C4.09,36.81,5.09,37,5.95,36.9c0.92,1.49,1.67,2.62,1.8,2.78c0.12,0.15,0.33,0.18,0.48,0.05c0.14-0.12,0.17-0.34,0.05-0.49
		C8.16,39.09,7.5,38.08,6.66,36.74z M7.35,33.64c0.06,0.16,0.1,0.33,0.15,0.49c0.03,0.13,0.05,0.27,0.05,0.39
		c0.02,0.43-0.12,0.79-0.35,1.06l-0.07-0.01c0.06-0.09,0.09-0.2,0.05-0.31c-0.14-0.46-0.45-1.1-0.85-1.8
		c0.08-0.31,0.13-0.64,0.13-0.96c0-0.14-0.02-0.28-0.04-0.41C6.86,32.66,7.17,33.18,7.35,33.64z M4,33.7
		c-0.02-0.02-0.03-0.05-0.05-0.07c0.01,0,0.01,0,0.02,0L4,33.7C4,33.7,4,33.7,4,33.7z M2.9,29.41c-0.06-0.04-0.13-0.09-0.19-0.12
		c-0.01-0.06-0.03-0.11-0.04-0.16c-0.03-0.15-0.06-0.25-0.06-0.24c0.16,0.02,0.43,0.16,0.81,0.43C3.26,29.33,3.08,29.36,2.9,29.41z
		 M2.36,30.44c0.02,0.01,0.04,0.02,0.06,0.03c0.06,0.15,0.13,0.3,0.2,0.45c-0.03,0.03-0.06,0.06-0.09,0.09
		C2.45,30.81,2.4,30.62,2.36,30.44z M1.95,28.79c0,0.08,0,0.16,0.01,0.25l-0.04,0l0,0c-0.06-0.01-0.11,0.01-0.16,0.03
		c-0.02,0-0.05-0.02-0.07-0.02c0-0.07,0-0.13,0-0.2C1.78,28.81,1.86,28.79,1.95,28.79z M2.82,31.76c0.03-0.06,0.06-0.11,0.09-0.17
		c0.05,0.13,0.11,0.26,0.17,0.4c0,0,0,0.01,0,0.01c0.01,0.05,0.04,0.09,0.06,0.13c0.09,0.18,0.18,0.37,0.28,0.56
		c-0.04,0-0.08,0-0.12-0.01C3.13,32.38,2.96,32.07,2.82,31.76z M3.95,32.09c0.02-0.01,0.03-0.01,0.05-0.03L4.13,32
		c0.04,0.04,0.08,0.07,0.13,0.1c0.07,0.14,0.12,0.27,0.1,0.38c-0.01,0.05-0.06,0.1-0.13,0.13C4.14,32.44,4.05,32.27,3.95,32.09z
		 M4.92,33.83c-0.02-0.04-0.04-0.07-0.06-0.11c0.04-0.06,0.08-0.11,0.12-0.18c0.12-0.03,0.22-0.06,0.31-0.1l0,0.06l-0.01,0.07
		C5.26,33.8,5.22,34,5.16,34.15C5.08,34.05,4.99,33.95,4.92,33.83z M2.72,26.9c0.68,0.3,1.53,1.1,2.5,2.62
		c-0.06-0.05-0.12-0.08-0.19-0.13c-0.75-1.37-1.95-2.35-3.61-2.04l0,0c-0.01,0-0.02,0.01-0.03,0.01C1.66,26.86,2.12,26.63,2.72,26.9
		z M3.5,35.66C2.33,35,1.31,33.7,1.05,31.68c0.13,0.29,0.28,0.58,0.45,0.87c0.04,0.08,0.08,0.16,0.12,0.25
		c0.08,0.16,0.16,0.3,0.24,0.43c0.37,0.97,0.81,1.58,1.26,1.92c0.5,0.38,1.01,0.46,1.48,0.33c0.16,0.08,0.32,0.17,0.49,0.24
		c0.07,0.05,0.15,0.1,0.23,0.15l0.22,0.36C4.89,36.23,4.17,36.05,3.5,35.66z M5.73,34.8c0.06-0.1,0.11-0.2,0.14-0.32
		c0.04-0.06,0.08-0.14,0.11-0.21c0.18,0.33,0.33,0.65,0.44,0.91C6.24,35.2,6,35.04,5.73,34.8z"/>
</g>
</svg>
