<svg xmlns="http://www.w3.org/2000/svg" width="12.836" height="15.742" viewBox="0 0 12.836 15.742">
  <g id="Сгруппировать_4604" data-name="Сгруппировать 4604" transform="translate(-916.933 -914.93)">
    <g id="Сгруппировать_3658" data-name="Сгруппировать 3658">
      <path id="Контур_9126" data-name="Контур 9126" d="M929,915.412c.027-.112-.206-.161-.028-.127C929.037,915.383,929.082,915.462,929,915.412Z" fill="#7cc77d"/>
      <path id="Контур_9127" data-name="Контур 9127" d="M928.891,930.551c-.7.427-.554-.428-1.111-.24-.051,0,.26-.327.129-.3-.613.279-.8-.308-.839-.908l.089-.08c-.007-.113-.316.144-.346.053.047-.063.088-.074.138-.17-.158.176-.18,0-.313.121.031-.093.147-.24.177-.346l-.2.187c-.486.434-.216-.22-.553-.059a.462.462,0,0,0,.113-.13c-.453.144-.684-.121-1.016-.192a1.57,1.57,0,0,0,.231-.3c-.183.216-.3.217-.4.211.146-.255-.273.127-.253-.059l.046-.047c-.241.2.021-.2-.246.052l.1-.21c-.272.309.046-.231-.127-.1l-.049.069c-.1.046,0-.136-.087-.112l.025-.041c-.162.014-.08-.211-.27.046.12-.23.163-.023.335-.36a1.67,1.67,0,0,1-1.127-.512.961.961,0,0,1,.106-.281c-.07.027-.155-.044-.283.064a.372.372,0,0,0,.071-.171c.015-.141-.276.232-.253.07a.7.7,0,0,0,.211-.226c-.205.157-.254.071-.367.087a.513.513,0,0,0,.136-.131c-.241.173-.093-.145-.262-.049l.134-.13c.037-.254-.262.287-.268.116a.631.631,0,0,0,.141-.152c-.282.208-.345.022-.493.052a.423.423,0,0,0,.049-.058c-.113-.032-.14-.184-.325-.14.016-.092.284-.351.151-.367-.221.3-.249,0-.447.38-.042-.108-.083-.313-.211-.252.12-.086.235-.391.319-.367l.086-.216c.1-.116.02.079.12-.085-.042-.014-.226.032-.219-.038-.2.136-.509.432-.636.4.133-.08.22-.346.29-.373l-.566.464c-.043-.011.17-.24.064-.2a.816.816,0,0,1-.176.165c.014-.041-.192-.029.006-.336.074-.125.109-.015.148-.148-.068-.047-.151.047-.225,0l.031-.037c-.005-.072-.245.01-.336.194.027.036.141-.169.118-.053a.333.333,0,0,1-.408.037.889.889,0,0,0,.232-.15,1.365,1.365,0,0,1-.756.052c-.152.1.323-.152.26-.084.065-.253-.655-.067-.453-.355.053,0-.234.132-.187.106-.061-.074.2-.19.056-.183.15-.073-.111-.025-.214-.047-.144.026.065-.041.127-.015-.2.01-.784-.15-.7-.356a1.546,1.546,0,0,1-.6-.015l.313-.051c.139-.066-.166-.1.087-.154-.447.01.631.18.238.152.22-.073-.631-.02-.2-.086-.086-.055-.52-.06-.3-.166-.026.026.5-.021.417-.062-.162-.072-.181,0-.379-.054l-.192-.027c-.325.032-.061-.084-.38-.013.257-.036-.347-.121.222-.154l.454-.022c-.076-.03-.54-.023-.78-.043a1.029,1.029,0,0,1,.188-.025c-.526.023-.3-.044-.407-.085,0-.016-.037-.029-.155-.039.346-.1.3-.237.756-.267-.126-.07-.278-.15-.05-.221a.248.248,0,0,0,.165.056c.24-.034.086-.056.038-.11.082.017.468-.06.73-.078a2.14,2.14,0,0,0-.63-.142c.634.032-.131-.261.458-.243a.42.42,0,0,0,.353.126c.592.067-.263-.2.1-.237l-.449-.094c.309.031-.061-.225.342-.083-.106-.082.264-.069-.131-.2.5-.035.324-.52,1.019-.279-.028-.054.089-.075-.083-.167-.219-.073.064.132-.072.07.013-.026-.068-.085-.108-.114.133-.007.2-.028.4.185.3.032-.384-.466-.092-.536.107.1.163.128.193.071l-.093-.252c.157-.058.3.181.485.353.02-.075.091-.119-.009-.279a2.538,2.538,0,0,1,.264.186c-.183-.142-.067-.141-.089-.2l.022.062c.076.073.078-.014.08-.057a.407.407,0,0,0-.247-.133c-.052-.1,0-.107-.063-.227.152.193.176.078.224.071.069.009-.1-.2-.088-.2.084.1.071-.033.159.125.015.041-.107-.07-.054.031.084.052.226.221.169.058-.043-.123-.325-.357-.155-.3a1.874,1.874,0,0,0,.125.216l.147.041-.143-.17a.684.684,0,0,1,.076.074c-.134-.194.051-.139-.107-.351.018-.046.169.058.216.05l.007.02c.124.066.117-.042.051-.183l.03.038c.032-.005.058-.073,0-.2.162.083.567.621.441.36.048-.052-.183-.381-.3-.47.194.032.064-.336.378-.151-.045-.079-.091-.115-.1-.179.2-.054.121-.454.519-.219.02.106.142.171.226.267-.1-.18.176.122-.036-.147-.135-.15-.2-.227-.288-.255a.19.19,0,0,1,.308-.16.278.278,0,0,1-.127-.174c.2.248.3.232.269.107l-.122-.155.162.127c-.023-.063-.248-.328-.079-.225a1.436,1.436,0,0,0,.149.146c-.056-.163-.166-.426-.006-.346l.23.179a.336.336,0,0,0-.166-.234c.2.054.272.021.462.183-.241-.588-.034-.8.172-.919l.091.116c.137.062-.143-.216-.043-.168.076.119.235.2.309.361.169.057-.078-.269-.077-.357-.118-.152.045.124-.106-.068-.037-.059.193.031.013-.2a1.853,1.853,0,0,1,.286.342l-.05-.143c.273.214.281.561.608.831l.008-.068c.236.2.123.349.288.344a1.585,1.585,0,0,0-.413-.56c.035-.136-.413-.56-.3-.623.137.107-.049.1.126.262.2.139,0-.176.1-.148a.73.73,0,0,1-.277-.364c.138.062.149.235.236.2-.1-.137-.118-.286-.248-.327-.224-.309.139.019-.017-.237.2.184.335.529.5.566-.181-.185-.138-.345-.427-.6a.914.914,0,0,1,.3.32c.145.084-.207-.443.141-.068l-.158-.212.244.176c.04-.028-.115-.372.142-.068-.015-.041.08-.1-.132-.281-.162-.082.072.2-.2-.053.235.2.049-.094.013-.2l.106.112c-.022-.061.041-.071-.056-.207a.446.446,0,0,0,.158.168l-.134-.194c0-.151.286.3.312.185l.065.184c-.013-.04.154.1.14.02l-.367-.524c-.021-.1.176.167.071-.033l.117.239c.039.06.266.238.316.187-.015-.085-.164-.365-.294-.407.025-.025.147.041.228.177.013-.108-.158-.167-.193-.312.115.089.314.185.49.307l.179.318.038-.029c.141.258.167.145.338.4.056.015.019-.09-.009-.17-.388-.3-.351-.571-.661-.887.021-.177.764.759.416.147-.092-.073-.263-.369-.242-.219.093-.016-.248-.372-.055-.3.064.184.35.289.444.555-.09-.115-.116-.046-.1,0,.136.106.285.34.349.286.01-.066.058-.118-.1-.285-.167-.19-.041.071-.184-.144.02-.133.284.147.023-.219-.026.068-.208-.119-.321-.251l-.012-.128.1.136c.169.014-.173-.253-.056-.295l.258.216c.166.234-.21.014.109.352.07-.034-.066-.23.067-.185.014.041.005.063.02.105.031-.006.454.443.3.1-.05-.143-.1-.136-.21-.268.057-.119-.032-.277.009-.349.21.268.126-.065.288.255-.16-.125-.28,0-.1.278.3.276-.109.019.138.345.079-.057.335.246.517.433.032,0-.02-.1-.034-.145-.152-.193-.176-.167-.342-.356.125-.021.115-.193.005-.411.106.067.257.26.24.3a.373.373,0,0,1,.317-.227c-.321-.251.042-.161-.216-.376a.932.932,0,0,1-.426-.363c.047-.007.113.133.182.187-.1-.2.29.211.1-.083,0,.175.3.384.489.635-.051-.189.143.17.206.116a1.053,1.053,0,0,1-.033-.472c.283.148.23-.191.3-.269.145.084.348.376.433.383.048-.051-.289-.255-.1-.2l.038.06c-.03-.083.3.057-.007-.348l.226.312c.037.013-.006-.065-.021-.106a1.02,1.02,0,0,1,.2.247c.221.158.074-.12.12-.174l-.182-.142c-.025-.212.182-.095.217-.23l.143.17-.035-.145c.128.173.266.237.176.077l.22.528c-.123-.066-.134-.238-.3-.383-.144-.127-.186-.012-.06.161.047-.008.017-.046-.011-.128.212.225.157.257.268.433.008-.024.093.027.032-.05.067.142.05.188,0,.239-.042-.122-.144-.128-.188-.206.173.209.177.316.062.315-.252-.2.008.259-.124.26a2.144,2.144,0,0,1-.281-.56c-.138-.064-.048.051-.187-.013a2.138,2.138,0,0,1,.32.576l-.136-.151c.011.127.208.355.1.374a1.234,1.234,0,0,0-.426.2l-.135-.15c.231.373-.07.272-.014.478-.248-.044-.134.371-.423.16-.11.3-.195.575-.462.708l-.156-.255c.1.2-.137-.107-.147-.041.2.141.147.278.238.438-.247-.089-.209.208-.16.439l-.136-.151c.161.364-.161.2-.311.248-.067-.053-.211-.18-.229-.135a1.254,1.254,0,0,1,.157.538.445.445,0,0,1-.367.041c.064.554-.371.541-.437.964l-.174-.165c.093.592-.5.5-.537.871l-.247-.326c-.146-.039-.076.208.129.412-.146-.039-.031.288-.291.07-.115,0,.043.212.024.3-.232,0-.258.066-.333.231l.048-.008c-.045-.079-.157-.211-.2-.2.028.125-.242.064.122.392-.316-.1-.159.44-.536.264.1.091.082.139.127.218-.112.1-.411.005-.356.256-.062-.034-.118-.2-.175-.166.005.062.113.132.127.218-.026.35-.548.136-.677.332a1.009,1.009,0,0,1-.146.3c-.071.094-.032.072-.063.1s-.083.05-.1.089l-.091-.049c.352.188-.46-.108.114.138a2.033,2.033,0,0,1-.273-.07c.289.1-.365-.014.014.1.015,0-.009-.006-.06-.018-.313-.014.05.063-.254.067-.055-.008-.091-.018-.225-.031-.289,0,.551.07-.14.044a2.409,2.409,0,0,0,.323.015c-.126.023-.17.056-.161.083a2.988,2.988,0,0,0,.551.082c-.313.116-1.025.218-.513.166-.108.032.229-.053.108-.022.18-.029-.595.209-.274.142.333-.11.2-.048.409-.113-.174.1-.431.237-.149.174l-.164.067c.5-.16.332,0,.811-.259a4.465,4.465,0,0,1,1.649.716c.563.544,1.3.825,1.775,1.51-.094.431-.077.43.183.423-.045.047-.064.051-.09.108.2-.255.132.061.337-.177a3.869,3.869,0,0,0,.705.494c-.059,0-.24.2-.182.216l.173-.131-.047.078a.4.4,0,0,0,.222-.227c.773.229.968,1.2,1.6,1.581.058.215.333.265.525.327.187.689.38,1.277,1.023,1.379C929.769,929.907,929.2,930.538,928.891,930.551Z" fill="#7cc77d"/>
      <path id="Контур_9128" data-name="Контур 9128" d="M928.934,915.51c-.123-.111-.231-.136-.335-.336C928.705,915.286,928.843,915.4,928.934,915.51Z" fill="#7cc77d"/>
      <path id="Контур_9129" data-name="Контур 9129" d="M926.5,915.379c.03.039-.062-.034-.084-.051.008-.023-.067-.141,0-.087C926.414,915.265,926.467,915.32,926.5,915.379Z" fill="#7cc77d"/>
      <path id="Контур_9130" data-name="Контур 9130" d="M926.1,915.6a.329.329,0,0,1-.062-.315Z" fill="#7cc77d"/>
      <path id="Контур_9131" data-name="Контур 9131" d="M925.392,915.416c-.108-.07-.145-.127-.106-.156A.81.81,0,0,1,925.392,915.416Z" fill="#7cc77d"/>
      <path id="Контур_9132" data-name="Контур 9132" d="M925.586,915.687c-.024.025-.093-.029-.16-.081C925.509,915.7,925.435,915.494,925.586,915.687Z" fill="#7cc77d"/>
      <path id="Контур_9133" data-name="Контур 9133" d="M924.623,915.958c-.009.023.034.146-.087.037C924.627,916.065,924.495,915.785,924.623,915.958Z" fill="#7cc77d"/>
      <path id="Контур_9134" data-name="Контур 9134" d="M924.448,916.4c-.016,0-.038-.015-.023.026a.229.229,0,0,1-.106-.157Z" fill="#7cc77d"/>
      <path id="Контур_9135" data-name="Контур 9135" d="M918.44,922.363l-.031-.067.161.051Z" fill="#7cc77d"/>
      <path id="Контур_9136" data-name="Контур 9136" d="M919.774,925.5c.125-.021-.068.12-.075.142C919.637,925.612,919.856,925.534,919.774,925.5Z" fill="#7cc77d"/>
      <path id="Контур_9137" data-name="Контур 9137" d="M921.853,926.156l-.013-.005.184-.235Z" fill="#7cc77d"/>
    </g>
  </g>
</svg>
