<svg xmlns="http://www.w3.org/2000/svg" width="12.02" height="17.623" viewBox="0 0 12.02 17.623">
  <g id="Сгруппировать_4605" data-name="Сгруппировать 4605" transform="translate(-991.358 -914.546)">
    <g id="Сгруппировать_3657" data-name="Сгруппировать 3657">
      <path id="Контур_9114" data-name="Контур 9114" d="M991.709,914.593c-.115-.011-.129.227-.121.046C991.675,914.558,991.747,914.5,991.709,914.593Z" fill="#7cc77d"/>
      <path id="Контур_9115" data-name="Контур 9115" d="M991.56,931.148c-.219-.791.564-.415.535-1,.011-.049.243.339.252.206-.1-.666.516-.688,1.1-.559l.052.108c.111.023-.052-.343.044-.347.048.062.047.1.126.178-.126-.2.048-.173-.031-.333.08.055.191.206.285.264l-.126-.242c-.285-.586.27-.148.208-.515a.444.444,0,0,0,.094.144c-.015-.476.3-.625.462-.924a1.546,1.546,0,0,0,.222.3c-.159-.235-.126-.35-.094-.443.2.21-.047-.3.127-.228l.032.057c-.127-.286.191.076.016-.25l.175.155c-.223-.346.21.107.132-.094l-.053-.067c-.016-.113.131.034.131-.052l.033.035c.031-.159.225-.019.03-.273.188.179-.023.164.254.421.119-.5.485-.7.8-.944a.951.951,0,0,1,.241.179c-.007-.075.085-.137.016-.29-.007.013.119.115.145.115.131.053-.148-.329,0-.263a.7.7,0,0,0,.16.265c-.1-.24,0-.263.016-.377a.515.515,0,0,0,.089.166c-.1-.279.165-.049.118-.238l.089.165c.234.1-.2-.331-.038-.29a.615.615,0,0,0,.107.178c-.123-.329.074-.338.085-.489a.429.429,0,0,0,.042.063c.062-.1.216-.085.223-.274.085.039.261.369.312.245-.227-.294.065-.24-.243-.534.116-.011.324.006.3-.134.05.139.312.333.266.407l.185.142c.084.127-.082,0,.049.138.024-.036.031-.226.1-.2-.077-.227-.276-.608-.207-.72.042.151.273.307.28.381l-.291-.671c.022-.038.184.229.172.116a.829.829,0,0,1-.11-.215c.038.023.079-.176.306.11.1.1,0,.1.113.174.054-.045-.024-.143.023-.185l.034.035c.074.012-.011-.187-.188-.306-.028.006.162.153.057.1-.125-.172-.125-.246-.091-.277a1.963,1.963,0,0,0,.179.191,3.08,3.08,0,0,1-.24-.443c-.149-.105.255.2.166.156.3.077-.175-.3.221-.154a1.515,1.515,0,0,1-.2-.095c.051-.011.31.109.236.048.157.067-.019-.045-.047-.08-.106-.054.084.027.081.05-.092-.089-.261-.245.066-.222a2.689,2.689,0,0,1-.394-.139l.291.067c.19.028.02-.04.283.006-.328-.1.173.166-.059.072.261.043-.407-.148-.013-.056.025-.029-.3-.106.022-.081a1.783,1.783,0,0,0,.416.063c0-.049-.136-.034-.2-.078l-.111-.034c-.32-.037.081-.023-.3-.05.276.022-.117-.053.436-.008l.432.039a4.783,4.783,0,0,0-.614-.082l.212.006c-.518-.029-.2-.029-.232-.047a1.688,1.688,0,0,0-.221-.018c.21-.023-.052-.063.344-.088-.23-.021-.479-.024-.37-.056a2.241,2.241,0,0,0,.229,0c.165-.031-.008-.025-.125-.03a2.878,2.878,0,0,0,.5-.124,5.233,5.233,0,0,0-.71.074c.54-.114-.425.007.045-.113a1.672,1.672,0,0,0,.418-.07c.5-.15-.455.036-.246-.063l-.411.127c.241-.09-.288.03.132-.1-.158.038.082-.087-.3.056.247-.184-.29-.011.251-.385-.065.023-.038-.035-.192.074s.148-.06.034.021a.714.714,0,0,0-.151.077c.055-.06.057-.093.335-.242.125-.183-.564.311-.493.188.117-.093.156-.133.121-.132l-.217.145a2.272,2.272,0,0,1,.4-.426c-.057.008-.08-.029-.214.1a2.42,2.42,0,0,0,.17-.267c-.114.2-.13.087-.188.118l.058-.031c.062-.086-.025-.075-.068-.071a.4.4,0,0,0-.1.263c-.091.066-.105.02-.215.1.168-.178.051-.186.037-.232,0-.07-.183.132-.187.117.082-.1-.043-.065.1-.176.038-.02-.053.117.039.049.039-.091.186-.256.033-.175-.116.06-.306.373-.274.2a2.1,2.1,0,0,0,.2-.156l.019-.151-.148.166a.74.74,0,0,1,.062-.086c-.172.161-.145-.03-.332.157-.047-.011.033-.175.019-.221l.018-.01c.048-.132-.058-.11-.188-.023l.033-.036c-.009-.031-.08-.046-.192.031.058-.173.532-.652.291-.489-.057-.04-.349.237-.421.363,0-.2-.342-.014-.2-.352-.072.057-.1.107-.163.122-.082-.187-.467-.054-.292-.481.1-.036.148-.166.23-.263-.163.122.1-.191-.14.057-.128.155-.2.226-.209.322a.191.191,0,0,1-.2-.282.282.282,0,0,1-.153.152c.215-.237.186-.327.066-.282l-.135.143.1-.178c-.058.031-.287.293-.211.111a1.54,1.54,0,0,0,.123-.169c-.153.079-.4.226-.341.056l.144-.253c-.043,0-.193.1-.207.2.023-.207-.02-.273.113-.484-.547.324-.785.15-.934-.037l.1-.106c.042-.145-.192.172-.159.067.106-.092.161-.261.311-.359.032-.175-.254.116-.342.128-.132.14.116-.062-.052.115-.052.046,0-.195-.2.016a1.9,1.9,0,0,1,.3-.333l-.134.071c.171-.3.513-.359.733-.722h-.068c.162-.262.326-.172.3-.335a1.582,1.582,0,0,0-.494.49c-.14-.014-.494.49-.572.391.086-.152.1.034.24-.163.109-.216-.174.022-.16-.074a.718.718,0,0,1-.32.327c.042-.145.211-.181.163-.262-.121.117-.265.159-.288.294-.273.266,0-.141-.231.051.153-.222.474-.409.488-.574-.158.206-.322.186-.533.51a.924.924,0,0,1,.274-.34c.062-.156-.408.269-.088-.13l-.186.188.138-.268c-.034-.035-.351.168-.088-.13-.038.021-.11-.065-.258.172-.058.172.191-.1-.023.206.162-.262-.1-.035-.2.016l.1-.121c-.057.03-.077-.031-.2.085a.44.44,0,0,0,.143-.181l-.172.161c-.149.026.252-.326.137-.336l.173-.091c-.037.019.081-.167,0-.141l-.466.439c-.1.037.14-.2-.043-.066l.22-.15c.054-.047.2-.3.14-.339-.083.026-.338.214-.36.349-.029-.02.018-.151.142-.251-.109,0-.143.181-.282.236.072-.126.138-.337.233-.529l.289-.223-.035-.034c.235-.177.12-.186.344-.392.006-.058-.092-.005-.167.033-.244.429-.514.431-.781.784-.178.005.64-.867.084-.433-.058.1-.327.314-.181.272-.03-.091-.331.3-.285.1.173-.091.235-.389.485-.521-.1.107-.029.122.01.1.085-.15.3-.332.233-.386-.067,0-.125-.041-.268.14-.163.193.077.03-.115.2-.135,0,.1-.3-.221.01.071.016-.086.223-.2.354l-.125.031.121-.118c-.012-.169-.226.208-.285.1l.176-.287c.208-.2.045.207.333-.159-.044-.064-.218.1-.193-.039.038-.02.062-.014.1-.035-.01-.03.373-.514.055-.311-.134.07-.119.116-.234.247-.126-.039-.27.071-.346.041.234-.247-.083-.115.209-.322-.1.177.045.277.29.059.23-.334.035.1.321-.187-.067-.07.2-.368.354-.575-.009-.031-.1.035-.139.055-.169.178-.14.2-.3.39-.038-.121-.207-.085-.407.056.052-.115.22-.293.268-.283a.373.373,0,0,1-.272-.28c-.2.354-.165-.018-.34.268a.931.931,0,0,1-.3.475c-.014-.047.115-.132.158-.207-.182.131.167-.318-.1-.091.173-.021.335-.353.556-.576-.18.078.148-.166.085-.221a1.054,1.054,0,0,1-.462.1c.1-.3-.222-.2-.31-.26.062-.155.321-.4.316-.484-.058-.04-.21.323-.183.132l.053-.046c-.077.041.013-.307-.342.058l.275-.27c.008-.039-.063.016-.1.036a1.012,1.012,0,0,1,.215-.236c.124-.242-.129-.056-.189-.094l-.114.2c-.207.056-.12-.166-.26-.181l.148-.166-.139.055c.153-.151.2-.3.051-.185l.491-.3c-.048.132-.216.168-.336.354-.1.161.016.186.168.036-.015-.046-.048-.01-.124.03.191-.243.23-.193.388-.329-.024,0,.014-.1-.053-.025.13-.086.178-.076.236-.036-.115.06-.1.161-.177.217.182-.2.287-.222.3-.108-.158.278.255-.046.275.085a2.1,2.1,0,0,1-.513.359c-.043.146.058.04.015.187a2.114,2.114,0,0,1,.523-.4l-.13.156c.124-.029.321-.257.356-.152a1.2,1.2,0,0,0,.262.391l-.129.157c.336-.283.279.029.475-.056-.008.251.387.078.22.4a1.1,1.1,0,0,1,.767.354l-.229.192c.181-.131-.086.15-.019.15.11-.216.253-.185.4-.3-.052.257.236.176.458.094l-.129.157c.336-.213.222.13.29.271-.042.074-.147.235-.1.246a1.235,1.235,0,0,1,.509-.233.441.441,0,0,1,.094.356c.539-.143.589.289,1.017.293l-.138.2c.573-.179.565.426.94.405l-.286.291c-.018.15.216.045.389-.187-.018.149.289-.012.111.277.017.114.2-.073.294-.067.031.23.1.246.276.3l-.014-.046c-.072.056-.187.187-.173.233.12-.046.1.23.371-.178-.052.327.458.093.339.492.076-.111.125-.1.2-.158.12.1.065.407.306.316-.025.066-.177.145-.139.2.061-.014.114-.131.2-.157.35-.026.214.522.427.621a.981.981,0,0,1,.314.1,3.035,3.035,0,0,1,.4.3c.278.233.529.479.807.691l-.1.044c.548-.02,0,.5.728.391-.06.072.11.153-.131.194.445.036.071.389.674.468-.006-.018-.042-.022-.116-.03-.086.209.476.3.412.508a1.145,1.145,0,0,0-.3-.035c-.2.078.77.12.129.19.048.035.377.013.329-.01a1.126,1.126,0,0,0,.409.409c-.224.23-.325.494-.566.762-.725.2-1.051-.2-.864.1-.134-.012.21.068.085.04.054.124-.791-.061-.558.072.37.083.147.092.349.159-.426.087-.734-.008-.651.205l-.149-.078c.268.336-.171.38.111.788-1.293,1.089-1.482,1.577-2.125,2.134A10.793,10.793,0,0,1,997.073,929c-.389-.208-.393-.191-.457.061-.033-.056-.031-.076-.079-.116.189.267-.095.111.078.372a3.94,3.94,0,0,0-.668.543c.017-.056-.126-.285-.158-.233l.079.2-.062-.067a.405.405,0,0,0,.157.276c-.431.681-1.419.6-1.959,1.112-.223,0-.346.248-.458.416-.714-.009-1.333.016-1.606.607C991.94,932.169,991.489,931.447,991.56,931.148Z" fill="#7cc77d"/>
      <path id="Контур_9116" data-name="Контур 9116" d="M991.816,914.642c-.092.137-.1.248-.284.38C991.628,914.9,991.715,914.748,991.816,914.642Z" fill="#7cc77d"/>
      <path id="Контур_9117" data-name="Контур 9117" d="M992.04,917.065c.034-.036-.024.066-.038.091-.024-.005-.13.086-.087.01C991.94,917.171,991.987,917.111,992.04,917.065Z" fill="#7cc77d"/>
      <path id="Контур_9118" data-name="Контур 9118" d="M992.315,917.432a.329.329,0,0,1-.3.107Z" fill="#7cc77d"/>
      <path id="Контур_9119" data-name="Контур 9119" d="M992.238,918.16c-.053.117-.1.162-.139.127A.865.865,0,0,1,992.238,918.16Z" fill="#7cc77d"/>
      <path id="Контур_9120" data-name="Контур 9120" d="M992.478,917.928c.028.02-.015.1-.056.171C992.5,918,992.309,918.106,992.478,917.928Z" fill="#7cc77d"/>
      <path id="Контур_9121" data-name="Контур 9121" d="M992.887,918.842c.024.005.139-.056.048.08C992.992,918.822,992.734,918.993,992.887,918.842Z" fill="#7cc77d"/>
      <path id="Контур_9122" data-name="Контур 9122" d="M993.35,918.95c0,.016-.009.04.029.02a.229.229,0,0,1-.139.127Z" fill="#7cc77d"/>
      <path id="Контур_9123" data-name="Контур 9123" d="M998.953,923.016l-.1.007.171-.042Z" fill="#7cc77d"/>
      <path id="Контур_9124" data-name="Контур 9124" d="M998.524,924.051c.053.075-.117-.083-.136-.1C998.391,923.935,998.52,924.081,998.524,924.051Z" fill="#7cc77d"/>
      <path id="Контур_9125" data-name="Контур 9125" d="M997.711,925.579l.009-.011.176.241Z" fill="#7cc77d"/>
    </g>
  </g>
</svg>
