<?xml version="1.0" encoding="utf-8"?>
<!-- Generator: Adobe Illustrator 25.1.0, SVG Export Plug-In . SVG Version: 6.00 Build 0)  -->
<svg version="1.1" id="Calque_1" xmlns="http://www.w3.org/2000/svg" xmlns:xlink="http://www.w3.org/1999/xlink" x="0px" y="0px"
	 viewBox="0 0 104.03 116.14" style="enable-background:new 0 0 104.03 116.14;" xml:space="preserve">
<style type="text/css">
	.st0{fill:#6BC06D;}
	.st1{fill:#DADADA;}
</style>
<g>
	<path class="st0" d="M74.82,60.77c-0.08,1.14-0.16,2.32-0.26,3.53l0.38-0.46l0.24-1.41c0.89-5.16,1.86-10.75,3.76-16.66
		c-0.35,0.63-0.75,1.36-1.21,2.24c-0.92,1.77-1.63,3.36-2.19,4.81C75.21,55.32,75.03,57.94,74.82,60.77L74.82,60.77z M73.15,52.3
		c1.14-8.28,3.95-15.36,14.19-24.76c1.03-0.95,2.21-1.18,3.34-0.77c0.9,0.32,1.71,1.06,2.33,2.16c0.55,0.97,0.97,2.27,1.15,3.82
		c0.53,4.46-0.85,11.35-6.56,19.45c-0.26,0.63-0.53,1.27-0.8,1.93c1.88-1.55,3.72-2.9,5.39-3.92c3.93-2.39,7.15-2.99,8.6-0.54
		c5.16,8.74-0.13,15.32-8.25,20.25c-0.85,0.51-1.72,1.01-2.62,1.49c-0.48,0.49-0.98,0.97-1.49,1.43c-3.68,3.4-7.88,6.21-11.7,7.24
		c-0.77,1.73-2.54,4.83-4.76,8.32c-0.49,1.12-0.99,2.23-1.5,3.33c-1.44,3.1-2.96,6.12-4.47,8.81l-0.32,0.98
		c-2.15,6.6-4.87,10.66-6.95,12.28c-0.79,0.61-1.55,0.94-2.23,0.98c-0.92,0.06-1.65-0.33-2.12-1.14c-0.33-0.58-0.5-1.42-0.44-2.49
		c-3.07-1-4.1-3.54-3.69-7.08c0.49-4.17,3.29-9.92,7.06-16.03c-2.47,1.5-4.39,2.54-4.83,2.63c-6.76,1.37-11.19,1.39-13.59,0.52
		c-1.44-0.52-2.27-1.37-2.56-2.48c-0.27-1.06,0.01-2.24,0.81-3.49c1.57-2.46,5.4-5.48,10.97-8.36c3.93-2.03,11.73-3.56,17.67-4.72
		c0.82-0.16,1.6-0.31,2.33-0.46c0.2-1.51,0.7-3.28,1.6-5.16c0.75-1.56-0.27-2.4,0.01-4.39C70.18,58.96,72.01,55.35,73.15,52.3
		L73.15,52.3z M86.43,31.79c-3.04,3.07-5.23,5.9-6.82,8.65c0.34-0.43,0.73-0.9,1.17-1.43c0.24-0.29,0.53-0.65,1.45-1.79
		c0.17-0.21,0.39-0.35,0.63-0.42C83.94,35.02,85.23,33.25,86.43,31.79L86.43,31.79z M82.87,54.36c0.96-1.14,1.82-2.26,2.6-3.35
		c1.42-3.45,2.45-6.12,2.57-6.84c0.32-1.9,0.53-3.47,0.65-4.75c-0.61,1.14-1.29,2.39-2.06,3.75c-1.44,2.56-2.37,6.03-3.38,9.81
		L82.87,54.36L82.87,54.36z M91.11,39.65c0.67-2.53,0.82-4.71,0.62-6.48c-0.2,0.49-0.44,1.03-0.72,1.63
		C91.26,35.76,91.32,37.33,91.11,39.65L91.11,39.65z M68.55,75.95c-0.46,0.61-0.91,1.23-1.37,1.85l0.46-0.17l1.07-1.4
		C68.65,76.14,68.6,76.04,68.55,75.95L68.55,75.95z M62.12,84.97c-0.36,0.54-0.72,1.09-1.07,1.63c0.4-0.57,0.8-1.15,1.2-1.71
		L62.12,84.97L62.12,84.97z M53.13,102.12c-0.21,0.78-0.37,1.51-0.45,2.2c-0.24,2.02,0.24,3.53,1.7,4.29l0.34-1.33
		c-0.33-0.09-0.62-0.27-0.9-0.54c-0.46-0.45-0.75-1.13-0.84-2.08l0,0l0,0C52.91,103.88,52.96,103.03,53.13,102.12L53.13,102.12z
		 M62.95,79.55c0.25-0.36,0.51-0.72,0.76-1.08c-0.02-0.13-0.07-0.26-0.16-0.37c-0.22-0.31-0.62-0.59-1.2-0.78l0,0l0,0.01
		c-2.22-0.73-6.43-0.21-12.65,3.28c-1.45,0.81-2.44,1.45-3.02,1.93c0.53,0.03,1.22,0.01,2.01-0.06C53,82.14,59.77,80.61,62.95,79.55
		L62.95,79.55z M65.29,76.3l0.68-0.92c-0.56,0.02-1.11,0.06-1.66,0.12C64.7,75.73,65.03,76,65.29,76.3L65.29,76.3z M56.39,111.57
		l-0.04,0l0,0c0,0.33,0.04,0.59,0.12,0.76c0.18-0.04,0.45-0.19,0.77-0.45c0.39-0.3,0.8-0.71,1.24-1.23
		C57.73,111.21,57.03,111.53,56.39,111.57L56.39,111.57z M56.81,108.99c1.57-0.65,3.8-3.73,6.22-7.99
		c-0.35,0.43-0.69,0.84-1.03,1.23c-1.51,1.75-2.92,3.18-4.11,4.05c-0.15,0.11-0.3,0.22-0.45,0.31
		C57.23,107.35,57.02,108.15,56.81,108.99L56.81,108.99z M88.6,32.98c0.23-0.09,0.44-0.14,0.65-0.15c0.17-0.39,0.31-0.74,0.44-1.06
		C89.34,32.13,88.97,32.53,88.6,32.98L88.6,32.98z M69.59,83.02l-0.76,0.83c-5.15,5.64-7.14,7.81-10.24,18.52
		c0.5-0.51,1.02-1.09,1.56-1.72c1.86-2.16,3.9-4.86,5.85-7.64c0.76-2.15,1.52-4.25,2.27-6.33C68.71,85.46,69.15,84.24,69.59,83.02
		L69.59,83.02z M68.04,81.11c0.44-0.48,0.9-0.99,1.38-1.53l-0.16,0.06l-0.3,0.26L68.04,81.11L68.04,81.11z M55.44,104.56
		c1-3.68,1.87-6.53,2.73-8.86c-1.85,3.41-2.97,6.45-2.75,8.68l0,0L55.44,104.56L55.44,104.56z M78.83,72.09
		c-0.02,0.46-0.08,0.97-0.17,1.51c0.94-0.34,2.05-0.85,3.24-1.48c1.7-0.91,3.55-2.06,5.29-3.36c1.34-1.45,2.59-3,3.63-4.45
		c1.35-1.88,2.34-3.59,2.71-4.75c0.03-0.08,0.77-0.28,0.47-0.22l-0.08,0.02l-0.18,0.05c-1.08,0.35-3.05,1.63-6.19,4.22
		c-4.24,3.5-7.04,6.12-8.73,8C78.84,71.77,78.84,71.93,78.83,72.09L78.83,72.09z M40.89,84.55c-0.74,0.7-1.32,1.37-1.72,1.99
		c-0.41,0.64-0.59,1.17-0.49,1.52c0.08,0.32,0.43,0.59,1.07,0.83c2.01,0.73,5.98,0.66,12.28-0.62c0.51-0.1,3.39-1.76,6.74-3.94
		c-7.84,2.77-12.63,3.65-15.07,3.39C41.23,87.45,40.41,86.27,40.89,84.55L40.89,84.55z M70.15,75.46l0.56-0.48l0.02-0.02l0.05-0.05
		l0.01-0.01l0.01,0l0.07-0.07l0.26-0.22l0.66-0.57l0.24-0.21c-0.06-0.07-0.14-0.15-0.21-0.21c-0.08-0.07-0.16-0.13-0.25-0.19
		c-0.13-0.08-0.28-0.15-0.44-0.22l-0.1-0.03c-0.1-0.04-0.2-0.07-0.31-0.09c-0.09-0.02-0.18-0.04-0.28-0.06
		c-0.14-0.02-0.28-0.04-0.43-0.05l-0.04,0l-0.01,0.09l-0.07,0.75l-0.04,0.41l-0.04,0.39l0,0.03l-0.02,0.16l-0.06,0.61
		C70.02,75.45,70.15,75.46,70.15,75.46L70.15,75.46z M43.89,84.12c-0.32,0.37-0.53,0.69-0.62,0.98c-0.02,0.06,0.21,0.12,0.73,0.17
		c0.84,0.09,2.04,0.01,3.64-0.27c-0.95,0.02-1.75-0.03-2.33-0.18C44.67,84.66,44.19,84.43,43.89,84.12L43.89,84.12z M95.3,65
		c4.5-3.78,6.69-8.42,3.38-14.03c-0.57-0.96-2.59-0.27-5.24,1.35c-1.24,0.75-2.57,1.7-3.96,2.79c3.32-1.2,5.59-1.37,6.99-0.8
		c2.73,1.12,2.49,4.29,0.42,8.12C96.43,63.26,95.9,64.12,95.3,65L95.3,65z M95.94,57.05c-0.71-0.35-1.7-0.32-2.89,0.02
		c-1.19,0.34-2.68,1.02-4.32,1.93c-1.32,0.74-2.76,1.64-4.24,2.65c2.14-2.04,3.84-3.46,3.97-3.52c3.73-1.6,5.95-1.99,7.02-1.55
		C95.7,56.68,95.85,56.83,95.94,57.05z"/>
	<path class="st0" d="M35.31,23.42c0.12-0.83,0.88-1.42,1.7-1.31c0.09,0.01,2.64,4.17,2.69,4.23c2.17,2.82,5.76,6.34,6.78,8.77
		c1.58,3.75,7.2,10.25,12.28,16.72c3,3.83,5.38,7.9,7.8,10.73l0.52,0.6c-2.08-9.74-4.8-19.67-6.81-29.1
		c-0.69-3.24-0.71-8.82-1.25-12.91c-0.47-3.53-0.94-7.1-1.52-10.18c-0.16-0.82,0.38-1.62,1.2-1.79c2.74-0.57,1.31,6.45,1.6,8.6
		c0.53,4.03,1.98,12.01,2.64,15.14c0.21,0.98,1.27,5.7,2.27,10.59c1.44,7.08,3.07,11.5,4.31,16.25c0.62,2.35,1.49,7.74,1.5,7.75
		c0.04,0.06,0.07,0.12,0.11,0.18l0,0.01l0,0.01l0.03,0.05l0.01,0.02c0.02,0.04,0.03,0.07,0.05,0.11l0.01,0.01l0,0.01L71.24,68l0,0
		l0.01,0.03c0.81,3,0.21,3.78-1.65,2.29c-0.37,0.16-0.8-0.09-1.13-1.03c-0.31-0.31-0.64-0.65-0.99-1.04
		c-0.79-0.88-1.91-2.15-3.23-3.69c-2.54-2.98-4.93-7.75-8.6-12.44c-5.92-7.57-13.14-15.47-14.54-19.52
		c-0.46-1.32-2.14-3.61-4.21-6.29C35.89,24.98,35.21,24.08,35.31,23.42z"/>
	<path class="st0" d="M17.11,61.96c-0.83,0.02-1.36,0.7-1.36-0.14c0-0.84,0.67-1.53,1.5-1.55c5.11-0.12,10.18,1.29,15.98,2.91
		c0.42,0.12,2.29-0.67,5.21-0.15c3.04,0.54,7.22,2.4,11.26,3.15c3.74,0.69,7.54,1.43,10.7,2.11c3.98,0.86,7.8,2.51,7.84,2.51
		c-2.56-2.52-5.9-4.19-9.17-6.49c-3.62-2.53-7.22-5.7-10.99-8.6c-2.47-1.33-4.82-5.22-5.64-6.3c-3.3-2.9-1.65-2.52,2.3-1.68
		c0.19,1.31,14.78,7.99,17.93,11.9c4.37,5.41,7.95,7.52,9.17,8.24c0.78,0.46,1.2,0.7,1.19,1.58c0,0.03,0,0.07,0,0.1
		c-0.04,0.9-0.27,1.31-0.7,1.45c-0.01,0.31-0.12,0.62-0.33,0.88c-0.51,0.66-1.46,0.79-2.11,0.28c-0.58-0.45-1.17-0.95-1.78-1.48
		c-1.62-0.13-0.3,2.28-3.4,2.35c-4.87,0.1-10.64-2.47-15.33-3.56c-6.9-1.6-8.74-2.66-13.31-3.93c-1.87-0.57-2.87,0.53-5.25,0.18
		C26.42,65.06,20.24,61.86,17.11,61.96z"/>
	<path class="st1" d="M9.31,51.71c0.84-0.45,1.74,0.28,2.68,1.05c2.45,2.01-0.11,1.9,2.56,3.38c1.63-1.73,2.65-1.38,3.31-0.85
		c0.59,0.47,1.28,1.96,0.92,3.09c-0.28,0.86-1.96,1.67-2.7,2.53l-0.02,0.02c3.17,1.61,3.75,3.19,3.77,4.58
		c0.02,1.07-0.08,1.88-2.39,1.97c-0.35,0.01-1.68-0.89-2.79-1.79c-0.64-0.51-2.64-2.54-3.45-2.41c-0.5,0.11-0.4,2.27-1.39,3.58
		c-0.73,0.97-2.55,1.77-3.35,1.37c-0.7-0.35-1.3-1.83-1.03-3.23c0.16-0.82,1.02-1.41,1.48-2.31c-1.14-0.07-1.45-0.27-2.32-0.72
		c-1.37-0.71-2.99-1.89-3.27-2.82c-0.37-1.24-0.14-2.21,3.07-2.96c2.1-0.49,4.56,1.82,4.46,1.58C8.17,56.09,6.46,53.21,9.31,51.71
		L9.31,51.71z M15.05,64.91l-0.42-0.34c0-0.05-0.01-0.08-0.04-0.11l-2.47-1.99c0-0.02,0-0.05-0.01-0.07
		c-0.07-0.15-0.04-0.13-0.16-0.22l-0.09-0.14c-0.03-0.05-0.1-0.07-0.16-0.03c-0.05,0.04-0.07,0.1-0.04,0.16l0.1,0.15
		c0.02,0.03,0.07,0.06,0.09,0.09l0.03,0.08c0.01,0.05,0,0.1,0.05,0.14l2.47,1.99c0.01,0.04,0.01,0.08,0.05,0.11l0.45,0.37
		c0.05,0.04,0.12,0.03,0.16-0.02C15.1,65.02,15.09,64.95,15.05,64.91L15.05,64.91z M11.23,55.21l-0.02-0.17l-0.02-0.25
		c-0.01-0.07-0.08-0.1-0.12-0.14c0.01-0.03,0.02-0.07,0.02-0.1l-0.02-0.17c-0.01-0.06-0.07-0.1-0.11-0.13
		c-0.02-0.05-0.04-0.11-0.08-0.14c0-0.05,0-0.08-0.04-0.11l-0.21-0.17c-0.06-0.15-0.05-0.11-0.17-0.22
		c-0.01-0.06-0.01-0.08-0.06-0.12c-0.01-0.07-0.01-0.08-0.07-0.13c-0.02-0.04-0.04-0.11-0.07-0.14l-0.59-0.48
		c-0.05-0.04-0.12-0.03-0.16,0.02c-0.04,0.05-0.03,0.12,0.02,0.16l0.57,0.46c0.02,0.05,0.04,0.11,0.09,0.15
		c0,0.05,0.01,0.09,0.05,0.12c0,0.05,0,0.08,0.04,0.11l0.12,0.09c0.02,0.04,0.04,0.11,0.07,0.14l0.19,0.15
		c0.01,0.07,0.01,0.09,0.07,0.13c0.05,0.11,0.04,0.1,0.13,0.18l0.01,0.1c-0.05,0.21-0.05,0.18,0.12,0.31
		c0.01,0.12,0.02,0.25,0.03,0.37c0.01,0.06,0.06,0.11,0.12,0.1C11.2,55.33,11.24,55.27,11.23,55.21L11.23,55.21z M6.99,65.98
		l-0.02-0.22l0.12-0.33c0.01-0.04,0.01-0.08,0-0.11c0.02-0.08,0.03-0.11,0.03-0.19c0.06-0.07,0.08-0.08,0.07-0.18
		c0.05-0.06,0.03-0.13,0.02-0.21c0.04-0.05,0.11-0.12,0.11-0.19l-0.04-0.42c0-0.06-0.06-0.1-0.12-0.1c-0.06,0.01-0.11,0.06-0.1,0.13
		l0.04,0.37c-0.04,0.05-0.11,0.12-0.11,0.19l0.01,0.08l0.01,0.04c-0.04,0.05-0.04,0.07-0.03,0.13c-0.08,0.09-0.08,0.08-0.06,0.2
		c-0.01,0.04-0.03,0.11-0.03,0.15l0.01,0.05l-0.12,0.33c-0.01,0.02-0.01,0.03-0.01,0.05l0.02,0.25c0.01,0.06,0.06,0.11,0.12,0.1
		C6.95,66.1,7,66.04,6.99,65.98L6.99,65.98z M10.92,59.21l-0.48,0.6l-0.2,0.16l-0.02,0l-0.15-0.05c-0.06-0.02-0.12,0.01-0.15,0.07
		c-0.02,0.06,0.01,0.12,0.06,0.15c0.05,0.02,0.18,0.07,0.23,0.07c0.05-0.01,0.11-0.01,0.14-0.04l0.23-0.2
		c0.01,0,0.01-0.01,0.02-0.01l0.49-0.61c0.04-0.05,0.03-0.12-0.01-0.16C11.04,59.15,10.97,59.16,10.92,59.21L10.92,59.21z
		 M17.56,65.62c0.03-0.05,0.02-0.07,0.01-0.16l-0.01-0.15c0-0.04,0.03-0.11,0.03-0.15c-0.02-0.22-0.04-0.44-0.06-0.67
		c0-0.04-0.05-0.11-0.06-0.15l-0.06-0.19l-0.02-0.24c0-0.04-0.03-0.05-0.05-0.08c-0.02-0.05,0.03-0.11,0.02-0.16l-0.06-0.65
		l0.02-0.1l0.06-0.17c0.02-0.06-0.01-0.13-0.06-0.15c-0.06-0.02-0.12,0.01-0.15,0.07c-0.02,0.06-0.06,0.14-0.07,0.2
		c-0.01,0.04-0.04,0.12-0.03,0.16l0.07,0.65c-0.01,0.04-0.03,0.11-0.03,0.15c0.01,0.07,0,0.12,0.06,0.17l0.02,0.2
		c0,0.01,0,0.02,0.01,0.02l0.06,0.2c0.01,0.03,0.04,0.08,0.05,0.11l0.06,0.63c-0.01,0.04-0.03,0.11-0.03,0.15l0.01,0.17
		c0,0.02,0.01,0.03,0,0.05l0,0c-0.02,0.03-0.03,0.08-0.01,0.12l0.03,0.06c-0.05,0.03-0.08,0.09-0.05,0.15l0.05,0.12
		c0.03,0.06,0.09,0.08,0.15,0.05c0.05-0.02,0.07-0.07,0.07-0.12l0,0l-0.01-0.06C17.6,65.7,17.61,65.71,17.56,65.62L17.56,65.62z
		 M15.5,63.51c-0.03,0.04-0.12,0.14-0.14,0.19l-0.02,0.1c-0.06,0.07-0.05,0.08-0.04,0.17c-0.01,0.04-0.03,0.11-0.03,0.15l0.03,0.33
		c0,0.04,0.04,0.1,0.06,0.14c0.01,0.05,0,0.11,0.05,0.14l0.1,0.08c0,0.05,0.01,0.08,0.04,0.11l0.1,0.08c0.01,0.1,0.02,0.1,0.1,0.16
		c0.01,0.07,0.01,0.08,0.07,0.13c0.02,0.05,0.04,0.11,0.08,0.14c0.01,0.06,0.01,0.08,0.05,0.12c0.02,0.18-0.01,0.15,0.13,0.26
		c0.02,0.04,0.08,0.14,0.11,0.17l0.76,0.61c0.01,0.03,0.03,0.08,0.05,0.11l0.1,0.16c0.03,0.05,0.1,0.07,0.16,0.03
		c0.05-0.04,0.07-0.11,0.03-0.16l-0.09-0.15c-0.02-0.04-0.05-0.13-0.08-0.15l-0.76-0.62c-0.02-0.04-0.08-0.14-0.11-0.17l-0.05-0.04
		c-0.01-0.07,0-0.15-0.06-0.2c-0.01-0.08-0.01-0.09-0.07-0.13c-0.02-0.05-0.04-0.11-0.08-0.14c-0.01-0.1-0.02-0.1-0.1-0.16
		c-0.01-0.04,0-0.08-0.04-0.11l-0.1-0.08c0-0.05,0-0.08-0.04-0.11l-0.1-0.08c-0.01-0.08-0.03-0.1-0.06-0.17l-0.03-0.3
		c0.01-0.08,0.03-0.11,0.02-0.18c0.04-0.05,0.04-0.11,0.05-0.16l0.08-0.1l0.06-0.03c0.07,0.01,0.09,0.03,0.17,0.02
		c0.04,0.03,0.11,0.04,0.16,0.05c0.05,0.04,0.09,0.09,0.15,0.08l0.17-0.02c0.07-0.01,0.11-0.08,0.15-0.14
		c0.02-0.02,0.03-0.06,0.03-0.08l-0.02-0.16l-0.01-0.07c0.01-0.04,0.03-0.11,0.03-0.15l-0.02-0.25l0,0l0,0
		c-0.01-0.03-0.02-0.06-0.04-0.07l-0.2-0.17l-0.03-0.08l-0.02-0.15c0-0.03-0.02-0.06-0.04-0.08l-0.15-0.12l-0.1-1.04l0.12,0.04
		c0.02,0.02,0.04,0.04,0.06,0.05l0.17,0.06c0.04,0.01,0.08,0.02,0.12,0.02l1.4,1.13c0,0.02,0,0.05,0.01,0.07
		c0.03,0.06,0.04,0.13,0.09,0.17c0.01,0.05,0.01,0.08,0.05,0.12l0.02,0.21c0,0.01,0,0.02,0,0.02c0.02,0.07,0.04,0.15,0.07,0.22
		l0.05,0.1l0.02,0.23c0.01,0.06,0.05,0.09,0.1,0.12l0.02,0.2c0,0.04,0.02,0.06,0.05,0.08c0.01,0.08,0.03,0.1,0.06,0.17
		c0.01,0.05,0,0.11,0.05,0.14l0.1,0.08l0.03,0.35c-0.01,0.04-0.03,0.11-0.03,0.15l0.03,0.32c-0.01,0.04-0.03,0.11-0.03,0.15
		l0.01,0.12c-0.04,0.05-0.09,0.1-0.07,0.16l0.06,0.19l0.02,0.19l-0.04,0.05c0.02-0.06,0.01-0.07,0.01-0.17
		c-0.01-0.06-0.06-0.11-0.12-0.1c-0.06,0.01-0.11,0.06-0.1,0.13l0.01,0.06c-0.04,0.18-0.04,0.14,0.03,0.3
		c0.02,0.04,0.09,0.09,0.12,0.12c0.05,0.04,0.12,0.03,0.16-0.02c0.04-0.05,0.11-0.11,0.1-0.18l0-0.04c0.03-0.04,0.08-0.08,0.07-0.14
		l-0.02-0.25c-0.01-0.04-0.04-0.12-0.05-0.17l0.04-0.05c0.02-0.02,0.03-0.06,0.02-0.08l0,0l0,0l-0.01-0.15
		c0.01-0.04,0.03-0.11,0.03-0.15l-0.03-0.31c0.01-0.04,0.03-0.11,0.03-0.15l-0.04-0.42c-0.01-0.07-0.09-0.12-0.14-0.16
		c-0.01-0.08-0.03-0.1-0.06-0.18c-0.01-0.06,0-0.11-0.06-0.15l-0.02-0.2c-0.01-0.06-0.06-0.09-0.1-0.12c0-0.05-0.01-0.2-0.03-0.24
		l-0.05-0.12l-0.06-0.19l-0.02-0.24c0-0.04-0.02-0.06-0.05-0.08c-0.01-0.07-0.01-0.08-0.07-0.13l-0.03-0.08
		c-0.01-0.05,0-0.11-0.05-0.14l-1.46-1.17c-0.04-0.03-0.13-0.04-0.17-0.05l-0.15-0.05c-0.02-0.02-0.04-0.04-0.06-0.04L16,61
		l-0.03-0.03c-0.05-0.04-0.12-0.03-0.16,0.02l-0.08,0.09c-0.02,0.02-0.03,0.05-0.02,0.08l0,0c0.04,0.39,0.07,0.78,0.11,1.16
		c0,0.03,0.02,0.06,0.04,0.08l0.15,0.12c0,0.04,0,0.12,0.02,0.15c0.02,0.04,0.05,0.13,0.08,0.16L16.3,63l0.02,0.18
		c-0.01,0.04-0.03,0.11-0.03,0.15l0.01,0.09l0.01,0.12l-0.02,0.02l-0.07,0.01c-0.1-0.08-0.09-0.06-0.21-0.09
		c-0.07-0.06-0.08-0.05-0.17-0.04c-0.18-0.04-0.13-0.03-0.3,0.04C15.53,63.49,15.51,63.5,15.5,63.51L15.5,63.51L15.5,63.51z
		 M17.85,57.55L17.85,57.55L17.85,57.55c0-0.04,0-0.08-0.01-0.11l-0.06-0.19c-0.01-0.05,0-0.11-0.05-0.15l-0.96-0.77
		c-0.04-0.03-0.07-0.02-0.12-0.02c-0.05-0.04-0.07-0.03-0.13-0.03c-0.04-0.03-0.08-0.08-0.14-0.07l-0.16,0.02
		c-0.04,0-0.06,0.02-0.08,0.05c-0.03,0-0.05,0.01-0.07,0.02c-0.04,0.02-0.14,0.05-0.16,0.09l0,0.01l-0.29,0.03
		c-0.03,0.01-0.05,0.02-0.07,0.04l-0.1,0.12l-0.08,0.03c-0.12,0.02-0.11,0.01-0.19,0.11l-0.09,0.01l-0.15-0.05
		c-0.06-0.02-0.12,0.01-0.15,0.07c-0.02,0.06,0.01,0.12,0.07,0.15c0.05,0.02,0.18,0.08,0.23,0.07l0.17-0.02
		c0.06-0.01,0.09-0.06,0.12-0.1c0.03,0,0.05,0,0.07-0.02c0.17-0.08,0.13-0.05,0.25-0.19l0.28-0.03c0.05-0.01,0.07-0.03,0.1-0.07
		l0.08-0.03c0.07-0.01,0.1-0.01,0.15-0.06l0.07-0.01c0.07,0.06,0.08,0.08,0.17,0.06c0.05,0.04,0.07,0.03,0.13,0.03l0.88,0.71
		c0.01,0.09,0.04,0.16,0.07,0.25l0,0.03c-0.07,0.08-0.06,0.07-0.09,0.21c-0.06,0.07-0.05,0.08-0.04,0.18L17.47,58l-0.21,0.26
		c-0.03,0.03-0.04,0.11-0.05,0.15l-0.78,0.96c-0.05,0-0.08,0.01-0.11,0.05l-0.23,0.29c-0.1,0.01-0.09,0.03-0.16,0.1l-0.03,0.01
		c-0.06,0-0.11,0.06-0.1,0.13c0,0.06,0.06,0.11,0.12,0.1c0.13-0.02,0.12,0,0.2-0.11c0.05-0.01,0.08-0.01,0.11-0.05l0.23-0.29
		c0.05,0,0.08-0.01,0.12-0.05l0.82-1.02c0.03-0.03,0.04-0.11,0.05-0.15l0.21-0.26c0.03-0.04,0.04-0.13,0.05-0.18
		c0.01-0.02,0-0.05,0-0.07c0.04-0.05,0.04-0.1,0.05-0.16l0.06-0.07C17.84,57.61,17.85,57.58,17.85,57.55L17.85,57.55z M7.7,67.27
		l-0.02,0.01c-0.05,0.01-0.05,0.01-0.1,0.04c-0.09,0.01-0.08,0.01-0.16,0.04c-0.05,0.02-0.04,0-0.09,0.01l-0.07,0.01
		c-0.05,0-0.14-0.02-0.2,0.01L7.02,67.4l-0.05,0c-0.03-0.01-0.06-0.01-0.08-0.01c-0.04,0-0.08,0.01-0.13,0.01l0.01,0l-0.12-0.1
		c-0.05-0.04-0.12-0.03-0.16,0.02c-0.04,0.05-0.03,0.12,0.02,0.16l0.16,0.13c0.05,0.05,0.14,0.02,0.21,0.01
		c0.04-0.01,0.07,0.01,0.11,0.01c0.08-0.01,0.09-0.01,0.16-0.04c0.04,0,0.09,0.01,0.13,0.01l0.06-0.01c0.04,0.01,0.08,0.02,0.12,0
		c0.03-0.02,0.07-0.03,0.11-0.05c0.07-0.01,0.07-0.01,0.14-0.04c0.05-0.01,0.07-0.02,0.11-0.04l0.01,0l0,0
		c0.02-0.01,0.03-0.02,0.04-0.03l0.02-0.03c0.05-0.03,0.11,0,0.16-0.06l0.08-0.09c0.06-0.03,0.13-0.01,0.18-0.05l0.02,0.01l0.01,0
		c0.04,0.01,0.08-0.01,0.11-0.04l0.02-0.03c0.06-0.03,0.06-0.03,0.1-0.08c0.03-0.01,0.05-0.02,0.07-0.04l0.39-0.49
		c0.03-0.04,0.03-0.07,0.02-0.12l-0.01,0.01l0,0c0.02-0.03,0.03-0.05,0.02-0.09l-0.01-0.06c0.01-0.05,0.02-0.06,0.01-0.12l0.01-0.06
		l0.28,0.22c0.03,0.02,0.07,0.03,0.11,0.03l0.01,0l0,0c0.04,0.01,0.08-0.01,0.11-0.04l0.02-0.03c0.03-0.01,0.06-0.02,0.08-0.05
		l0.36-0.44c0.02-0.03,0.04-0.11,0.04-0.15c-0.01-0.06,0.01-0.04,0.03-0.09c0.01-0.03,0.02-0.07,0.02-0.1c0-0.03,0-0.05-0.01-0.08
		l-0.01,0.01l0,0c0.02-0.02,0.03-0.05,0.03-0.09l0-0.04c0.03-0.04,0.04-0.06,0.03-0.12c0.02-0.06,0.02-0.07,0-0.13
		c0.01-0.03,0.03-0.06,0.02-0.1c0-0.07,0.03-0.06,0.05-0.12c0.01-0.05,0.02-0.06,0.02-0.09c0.01-0.02,0.02-0.04,0.02-0.06
		c0.05-0.07,0.05-0.07,0.08-0.18l0,0l0,0c0.02-0.02,0.03-0.05,0.02-0.08c0-0.05,0.04-0.08,0.03-0.13c0-0.02,0.01-0.05,0.02-0.07l0,0
		c0.02-0.02,0.03-0.05,0.03-0.09l-0.01-0.08l-0.01,0.01l0,0c0.02-0.02,0.03-0.05,0.03-0.08c-0.01-0.06,0-0.09-0.02-0.12
		c0.01-0.05,0.02-0.09,0.01-0.15l-0.01,0.01l0,0c0.02-0.02,0.03-0.05,0.03-0.08c0-0.02-0.01-0.08,0-0.09
		c0.03-0.04,0.04-0.12,0.04-0.17c0.01-0.03,0.02-0.05,0.01-0.08c0-0.05-0.01-0.17-0.02-0.2c-0.02-0.05-0.03-0.08-0.07-0.11l0,0.01
		c0-0.01-0.01-0.07-0.01-0.08c0-0.02-0.01-0.05-0.03-0.06l-0.01-0.08c0-0.03-0.02-0.06-0.04-0.08l-0.01-0.01
		c0-0.05,0-0.13-0.05-0.15l-0.02-0.04c-0.02-0.06-0.09-0.08-0.15-0.05c-0.06,0.03-0.08,0.09-0.06,0.15c0.01,0.03,0.03,0.08,0.06,0.1
		l-0.01-0.01c0.01,0.1,0,0.12,0.06,0.16l0.01,0.08c0,0.02,0.01,0.04,0.03,0.06l0.01,0.08c0.01,0.07,0.05,0.07,0.07,0.11l0.01,0.13
		c0,0.03-0.02,0.06-0.01,0.09c0.01,0.06-0.01,0.04-0.03,0.09c-0.02,0.07-0.02,0.07-0.01,0.14c-0.02,0.04-0.02,0.06-0.01,0.13
		l-0.03,0.11c-0.01,0.04,0,0.07,0.02,0.1c-0.01,0.02-0.02,0.04-0.01,0.07l0.01,0.08l-0.01,0.02c-0.02,0.06-0.05,0.09-0.04,0.16
		c-0.02,0.06-0.03,0.07-0.03,0.11c-0.02,0.04-0.02,0.07-0.04,0.13l-0.04,0.05c-0.02,0.02-0.03,0.05-0.02,0.08
		C10,64.66,10,64.68,10,64.7l0,0c0.01,0.04,0,0.04-0.02,0.07c-0.03,0.04-0.05,0.12-0.04,0.17c-0.03,0.08-0.05,0.09-0.01,0.17
		c0,0.02-0.01,0.04-0.01,0.06c0-0.02-0.04,0.05-0.03,0.09l0,0.04c-0.04,0.08,0.01,0.11-0.01,0.19c-0.03,0.04-0.04,0.12-0.04,0.18
		l0,0.02l-0.32,0.4c-0.03,0.01-0.05,0.02-0.06,0.03L9.2,65.91c-0.01-0.03-0.02-0.06-0.05-0.08l-0.26-0.21c0-0.04,0-0.08-0.04-0.11
		L8.8,65.48c-0.04-0.08-0.05-0.08-0.12-0.13c-0.03-0.07-0.05-0.08-0.09-0.12l-0.01,0l-0.01,0l-0.01,0l-0.01,0
		c-0.05-0.04-0.12-0.03-0.16,0.02c-0.04,0.05-0.03,0.11,0,0.15c0,0.03,0.02,0.05,0.04,0.07l0.05,0.04c0.01,0.03,0.02,0.06,0.05,0.08
		c0.03,0.07,0.04,0.07,0.1,0.11c0.01,0.03,0.02,0.06,0.05,0.08l0,0c0.03,0.06,0.04,0.07,0.08,0.1c0,0.04,0.02,0.05,0.06,0.09
		l0.01,0.02l0,0.02c0,0.01,0,0.03,0.01,0.04l-0.01,0.02c-0.01,0.06-0.01,0.1-0.01,0.15c-0.01,0.06-0.01,0.08-0.01,0.13
		c-0.02,0.03-0.01,0.05-0.01,0.1l-0.33,0.42c-0.05,0.01-0.06,0.03-0.11,0.09c-0.04,0.02-0.06,0.02-0.07,0.04
		c-0.02,0-0.04,0-0.07,0.01c-0.03,0-0.06,0.02-0.08,0.04l0,0l0.01-0.01c-0.03,0-0.08,0.01-0.11,0.02c-0.11,0.05-0.09,0.04-0.17,0.14
		c-0.02,0-0.05,0-0.07,0.01C7.74,67.22,7.74,67.22,7.7,67.27L7.7,67.27z M11.36,53.23c0-0.02-0.01-0.03-0.01-0.04
		c-0.02-0.03-0.05-0.08-0.08-0.1l-0.52-0.42c-0.04-0.03-0.08-0.03-0.12-0.02l-0.33-0.27c-0.05-0.04-0.12-0.03-0.16,0.02
		c-0.04,0.05-0.03,0.12,0.02,0.16l0.37,0.29c0.04,0.03,0.07,0.02,0.12,0.02l0.48,0.38l0.03,0.06l0,0c0,0.03,0.02,0.06,0.04,0.08
		l0.03,0.03l0-0.01l0,0c0,0.03,0.02,0.06,0.04,0.08c0.03,0.02,0.03,0.03,0.03,0.06l0,0c0,0.03,0.02,0.06,0.04,0.07
		c0.01,0.01,0.02,0.05,0.05,0.08l0.1,0.08l0-0.01l0,0c0,0.03,0.01,0.06,0.04,0.08c0.01,0.01,0.02,0.05,0.05,0.08
		c0.03,0.06,0.03,0.06,0.08,0.1l0-0.01l0,0c0.01,0.03,0.02,0.06,0.04,0.08l0.03,0.02c0,0.05,0,0.08,0.05,0.12
		c0.01,0.03,0.02,0.05,0.03,0.06c0,0.05,0.01,0.08,0.05,0.12c0.01,0.06,0.01,0.07,0.04,0.13c0.01,0.03,0.04,0.05,0.06,0.07l0,0
		c0,0.03,0.02,0.06,0.04,0.08l0.08,0.06c0.01,0.04,0.01,0.08,0.05,0.11l0.18,0.15c0.03,0.06,0.03,0.06,0.08,0.1l0-0.01l0,0.04l0,0
		l0,0c0,0.03,0.01,0.06,0.04,0.08l0.01,0.01l0-0.01l0,0c0.01,0.03,0.02,0.06,0.04,0.08l0.03,0.02c0.03,0.06,0.03,0.06,0.08,0.1
		l0-0.01l0,0c0,0.03,0.01,0.05,0.03,0.06c0,0.03,0.02,0.05,0.04,0.07l0.15,0.12l0,0l0,0c0,0.03,0.02,0.06,0.04,0.08l0.03,0.03
		c0.03,0.04,0.05,0.07,0.09,0.11c0.03,0.07,0.03,0.07,0.09,0.12c0.02,0.04,0.02,0.05,0.06,0.08c0.01,0.08,0.01,0.09,0.07,0.13
		c0.03,0.07,0.04,0.07,0.1,0.12c0.02,0.03,0.03,0.05,0.05,0.07c0,0.03,0.02,0.06,0.04,0.08l0.05,0.04l0,0l0,0
		c0,0.03,0.02,0.06,0.04,0.07l0.1,0.08c0.01,0.03,0.02,0.05,0.05,0.08c0.03,0.08,0.04,0.07,0.1,0.12l0,0l0,0
		c0,0.03,0.02,0.05,0.04,0.08l0.03,0.03l0-0.01l0,0c0,0.03,0.02,0.06,0.04,0.08l0.03,0.03l0-0.01l0,0c0,0.02,0.01,0.05,0.03,0.06
		c0,0.03,0.02,0.05,0.04,0.07l0.07,0.05l0,0c0.03,0.03,0.08,0.03,0.12,0.01c0.06-0.03,0.08-0.09,0.06-0.15
		c-0.04-0.08-0.03-0.08-0.09-0.13c-0.01-0.05-0.03-0.06-0.08-0.1c-0.01-0.05-0.03-0.06-0.07-0.1c-0.01-0.06-0.04-0.07-0.11-0.13
		c-0.01-0.03-0.02-0.06-0.05-0.08c-0.01-0.03-0.02-0.05-0.05-0.07l-0.08-0.06c0-0.03-0.01-0.05-0.04-0.07l-0.06-0.04
		c0-0.03-0.02-0.05-0.04-0.07l0,0c-0.03-0.02-0.04-0.07-0.07-0.1l-0.05-0.04c-0.02-0.04-0.02-0.05-0.06-0.08
		c-0.01-0.08-0.01-0.08-0.07-0.13c-0.03-0.07-0.03-0.07-0.1-0.11c-0.02-0.04-0.02-0.05-0.06-0.09c-0.02-0.03-0.06-0.08-0.08-0.1
		l-0.01-0.01c0-0.03-0.01-0.05-0.04-0.07l-0.14-0.12c0-0.02-0.01-0.04-0.03-0.06c-0.01-0.06-0.03-0.06-0.09-0.11
		c-0.02-0.05-0.03-0.06-0.06-0.08c-0.01-0.04-0.02-0.05-0.05-0.08c-0.01-0.07-0.01-0.08-0.09-0.15c-0.01-0.03-0.02-0.06-0.04-0.07
		l-0.17-0.14c0-0.05-0.01-0.08-0.04-0.11l-0.08-0.06c-0.01-0.05-0.03-0.06-0.09-0.11c-0.03-0.06,0.01-0.11-0.06-0.17l-0.01-0.04
		c0-0.03-0.02-0.06-0.04-0.08l0,0c-0.01-0.01-0.02-0.05-0.05-0.08l0.01,0.01c-0.01-0.09-0.03-0.11-0.08-0.14
		c-0.01-0.05-0.03-0.06-0.09-0.11c-0.01-0.03-0.02-0.06-0.05-0.08c-0.01-0.03-0.02-0.05-0.04-0.07c-0.01-0.03-0.01-0.05-0.04-0.07
		l-0.12-0.1c-0.01-0.03-0.02-0.05-0.04-0.06c0-0.01,0-0.02-0.01-0.03c-0.03-0.07-0.03-0.08-0.07-0.11
		C11.42,53.28,11.4,53.27,11.36,53.23L11.36,53.23z M7.47,57.6L7.47,57.6l0.03-0.01l0.09,0.01c0.07,0,0.12-0.04,0.13-0.1
		c0-0.06-0.04-0.12-0.1-0.12c-0.05,0-0.08-0.01-0.12-0.01c-0.04-0.04-0.09-0.07-0.14-0.07l-0.02,0c-0.06-0.02-0.11-0.11-0.18-0.12
		c-0.05-0.01-0.06-0.02-0.1-0.01c-0.02-0.01-0.04-0.02-0.06-0.02l-0.1-0.08c-0.03-0.03-0.08-0.03-0.12-0.02
		c-0.03-0.01-0.06-0.02-0.1,0l-0.03,0.01c-0.03-0.02-0.05-0.03-0.12-0.02l0.01,0.01l0,0c-0.02-0.02-0.05-0.03-0.08-0.02l-0.08,0.01
		l0.01,0.01l0,0c-0.02-0.01-0.04-0.02-0.06-0.02c-0.07,0-0.11-0.01-0.17,0c-0.03,0.01-0.13-0.03-0.17-0.03
		C5.94,57,5.85,57.01,5.82,57.02l-0.04,0.02l-0.02,0c-0.04-0.03-0.06-0.04-0.11-0.03C5.6,57.01,5.59,57,5.56,57
		c-0.02-0.01-0.04-0.02-0.06-0.01c-0.05-0.04-0.07-0.04-0.13-0.03c-0.02-0.01-0.04-0.02-0.07-0.01c-0.06,0-0.11,0.01-0.17,0.02
		c-0.01,0-0.03,0.01-0.04,0.01c-0.01,0-0.03,0-0.04,0l-0.03,0l-0.01,0l0,0c-0.02,0-0.05,0.02-0.07,0.04c-0.04-0.01-0.09,0-0.11,0.04
		l-0.01,0.01l0.01,0l-0.04,0l0,0l0,0c-0.03,0-0.06,0.02-0.08,0.04l-0.01,0.01c-0.02,0-0.04,0.01-0.06,0.03l-0.21,0.02
		c-0.02,0-0.03,0.01-0.04,0.02c-0.01,0-0.03-0.01-0.04,0c-0.04,0-0.08,0.01-0.12,0.01c-0.03-0.02-0.05-0.03-0.09-0.03l-0.33,0.04
		c-0.02,0-0.04,0.02-0.06,0.03l0,0l0,0c-0.03-0.03-0.08-0.03-0.12-0.01c-0.04,0.02-0.08,0.03-0.11,0.07l0.01,0
		c-0.02,0.01-0.05,0-0.07-0.01c-0.02-0.01-0.05,0-0.08,0l0,0l0,0c-0.03,0-0.06,0.02-0.08,0.04l-0.04,0.06
		c-0.02,0-0.04,0.01-0.06,0.03c-0.03,0-0.05,0.02-0.07,0.04c-0.02,0.03-0.02,0.03-0.06,0.04l0,0l0,0c-0.02,0-0.04,0.01-0.06,0.03
		c-0.03,0.01-0.06,0.02-0.08,0.04l-0.05,0.06c-0.03,0-0.05,0.02-0.07,0.04l-0.02,0.03c-0.03,0.01-0.06,0.02-0.08,0.05l-0.1,0.13
		c-0.03,0-0.05,0.02-0.07,0.04l-0.52,0.65C2,58.58,1.95,58.68,1.96,58.72c0.01,0.08,0,0.09,0.04,0.16c0.01,0.07,0,0.08,0.03,0.15
		l0,0.02l0,0c0,0.02,0.01,0.04,0.03,0.06c0,0.05,0.01,0.09,0.05,0.12l0,0l0,0c0,0.03,0.02,0.05,0.04,0.08l0.21,0.17l0-0.01
		c0,0.03,0.02,0.06,0.04,0.08l0.41,0.33c0.01,0.03,0.02,0.05,0.05,0.08l1.14,0.92c0.03,0.02,0.05,0.02,0.09,0.03
		c0.04,0.03,0.16,0.14,0.21,0.15l0.04,0.01c0.03,0.03,0.06,0.05,0.11,0.04c0.07-0.01,0.07,0.05,0.14,0.06l0.04,0.01l0,0l0,0
		c0.02,0.02,0.05,0.03,0.08,0.02l0.04-0.01l0.15,0.12c0.04,0.03,0.07,0.03,0.12,0.02c0.06,0.05,0.06,0.06,0.14,0.07l0.23,0.19
		c0.05,0.04,0.09,0.03,0.14,0c0.03,0.01,0.04,0.01,0.06,0.01c0.03,0.02,0.04,0.03,0.1,0.04l0,0l0,0c0.02,0.01,0.04,0.02,0.06,0.02
		l0.07,0.01c-0.01-0.01,0.03,0.02,0.05,0.02c0.07,0.01,0.09,0.02,0.13,0.01c0.03,0.02,0.05,0.04,0.09,0.03l0.16-0.02
		c0.04,0.04,0.08,0.07,0.13,0.07c0.05,0.04,0.07,0.06,0.16,0.04l0,0c0.03,0,0.06-0.02,0.07-0.04c0.04-0.05,0.04-0.12-0.01-0.16
		l-0.02-0.02c-0.03-0.02-0.05-0.03-0.08-0.03l-0.01-0.01c-0.02-0.02-0.05-0.02-0.08-0.02l-0.06-0.05c-0.02-0.02-0.05-0.02-0.08-0.02
		l0,0c-0.04,0-0.08,0.01-0.13,0.02l-0.04,0.01L6.1,61.5c-0.02-0.02-0.05-0.03-0.08-0.02l0,0l0,0l0,0c-0.02,0-0.07,0.01-0.08,0
		c-0.03-0.02-0.09-0.03-0.14-0.03c-0.02-0.01-0.03-0.02-0.08-0.03L5.69,61.4c-0.02-0.02-0.05-0.03-0.08-0.02l0,0
		c-0.05,0.01-0.09-0.03-0.14,0l0,0l-0.19-0.16c-0.03-0.02-0.05-0.03-0.09-0.03C5.11,61.12,5.1,61.1,5,61.11l-0.15-0.12
		c-0.03-0.03-0.08-0.03-0.12-0.02c-0.02-0.01-0.03-0.01-0.07-0.02C4.59,60.9,4.6,60.9,4.5,60.88c-0.01,0-0.04,0-0.03,0
		c-0.04-0.03-0.05-0.03-0.09-0.04c-0.04-0.03-0.16-0.15-0.21-0.15l-0.04-0.01l-1.1-0.89c-0.01-0.03-0.02-0.06-0.05-0.08l-0.4-0.32
		c0-0.02-0.01-0.05-0.04-0.07l-0.21-0.17c-0.01-0.03-0.01-0.05-0.05-0.08l0-0.04c0-0.03-0.01-0.05-0.03-0.07
		c-0.01-0.02-0.01-0.04-0.03-0.07c-0.01-0.08,0-0.08-0.04-0.14l0-0.04l0.02-0.04l0.48-0.6c0.03,0,0.05-0.01,0.07-0.04l0.11-0.14
		c0.05-0.02,0.06-0.03,0.08-0.06c0.03-0.01,0.05-0.02,0.07-0.04l0.05-0.06c0.02,0,0.04-0.01,0.06-0.02c0.01,0,0.02-0.01,0.03-0.01
		c0.07-0.03,0.08-0.03,0.11-0.07c0.02,0,0.04-0.01,0.06-0.03c0.03,0,0.05-0.01,0.07-0.04l0.04-0.05c0.02,0,0.04,0.01,0.07,0.01
		c0.08-0.01,0.11,0,0.16-0.06c0.02,0.01,0.04,0.01,0.06,0.01l0,0l0,0c0.06-0.01,0.06-0.01,0.12-0.04l0.27-0.03
		c0.03,0.02,0.05,0.04,0.09,0.03l0.12-0.01c0.03,0.01,0.07,0.02,0.1,0l0,0l0.15-0.03c0.04,0,0.08-0.01,0.13-0.02
		c0.03,0,0.04-0.01,0.06-0.03c0.04-0.01,0.05-0.02,0.08-0.05l0.04,0c0.03,0,0.05-0.02,0.07-0.04c0.04,0.01,0.08,0,0.1-0.03
		c0.02,0,0.05,0,0.07-0.01l0,0l0.01,0l0.04-0.02l0.1-0.01c0.02,0.01,0.05,0.02,0.07,0.02l0,0l0,0l0.04-0.01l0,0l0.01,0.01
		c0.03,0.02,0.05,0.03,0.08,0.02c0.02,0.01,0.04,0.01,0.07,0.01l0,0l0,0c0.04-0.01,0.07,0.01,0.11,0.01c-0.02,0,0.04,0.04,0.09,0.03
		c0.03,0,0.09,0,0.12-0.02c0.07-0.03,0.11-0.04,0.18-0.02c0.02,0,0.07,0.02,0.1,0.02l0.04-0.01l0.03,0l0.06,0.01
		c0.02,0.01,0.04,0.02,0.08,0.02l0.08-0.01c0.03,0.02,0.05,0.02,0.1,0.01l0.01,0.01c0.02,0.02,0.05,0.03,0.08,0.02l0,0l0,0
		c0.04-0.01,0.06-0.01,0.08-0.02c0.01,0,0.03,0,0.04,0l0,0l0.04-0.01l-0.01,0l0.1,0.08c0.02,0.02,0.05,0.03,0.08,0.02
		C6.98,57.4,7,57.4,7.03,57.4l0,0l0,0l0.02,0c0.06,0.02,0.11,0.11,0.18,0.12c0.03,0.01,0.07,0.02,0.1,0.01l0,0l0.05,0.04
		C7.41,57.59,7.44,57.6,7.47,57.6L7.47,57.6L7.47,57.6z M5.91,57.89l0.06,0.05c0.05,0.04,0.12,0.03,0.16-0.02
		c0.04-0.05,0.03-0.12-0.02-0.16c-0.05-0.04-0.11-0.1-0.17-0.1c-0.1-0.08-0.09-0.07-0.26-0.05l0.01,0.01l0,0
		c-0.02-0.02-0.05-0.03-0.08-0.02l-0.04,0l0.01,0.01l0,0c-0.02-0.02-0.05-0.03-0.08-0.02c-0.04-0.03-0.06-0.04-0.13-0.03l0.01,0.01
		l0,0c-0.02-0.02-0.05-0.03-0.08-0.02l-0.04,0.01l0,0l-0.07,0.01c-0.02-0.01-0.05-0.01-0.08-0.01c-0.02,0-0.16,0.01-0.19,0.02
		c-0.05,0.02-0.15,0.05-0.2,0.09c-0.06,0.01-0.07,0.01-0.15,0.06c-0.06,0-0.09,0-0.12,0.03c-0.03,0-0.05,0.02-0.07,0.04l-0.01,0.01
		c0.02,0-0.02,0-0.03,0.01c-0.05,0.02-0.07,0.03-0.11,0.07c-0.04,0.01-0.08,0.01-0.11,0.05l-0.17,0.21
		c-0.03,0.04-0.03,0.08-0.02,0.12c0.01,0.02-0.03,0.09-0.03,0.13c0,0.04-0.02,0.06-0.01,0.11c0,0.04-0.02,0.06-0.01,0.11
		c0.02,0.17,0.03,0.33,0.05,0.5l0,0c0,0.02,0.01,0.05,0.03,0.06c0,0.03,0.02,0.05,0.04,0.07c0.01,0.05,0.03,0.1,0.06,0.12
		c0.03,0.03,0.04,0.07,0.07,0.1l0.1,0.08c0.01,0.05,0.01,0.08,0.05,0.11c0.01,0.03,0.02,0.05,0.05,0.08l0.1,0.08l0,0l0,0
		c0,0.03,0.02,0.06,0.04,0.08l0.05,0.04l0,0c0,0.03,0.02,0.06,0.04,0.08l0.71,0.57c0.03,0.02,0.05,0.02,0.09,0.03L5.5,60.7
		c0.05,0.04,0.1,0.02,0.16,0.02c0.03,0.02,0.06,0.06,0.1,0.07c0.04,0.01,0.12,0.03,0.16,0.03C6,60.88,6.01,60.88,6.1,60.87
		c0.03,0.02,0.07,0.02,0.1,0.01c0.04,0.03,0.06,0.04,0.14,0.03l0,0c0.03,0,0.06-0.02,0.07-0.04c0.04-0.05,0.03-0.12-0.01-0.16
		l-0.48-0.38C5.9,60.3,5.87,60.3,5.85,60.3l-0.16-0.13l-0.01-0.01l-0.13-0.1l-0.01-0.03c-0.01-0.03-0.05-0.1-0.05-0.13
		c-0.01-0.08-0.01-0.09-0.04-0.16l-0.02-0.23l0,0l0,0c0-0.02-0.01-0.04-0.03-0.06c0-0.05-0.01-0.07-0.04-0.1
		c0-0.04,0-0.05-0.03-0.11c0-0.05-0.01-0.06-0.03-0.1L5.3,58.99c0.02-0.03,0.03-0.05,0.03-0.09c0.02-0.03,0.04-0.06,0.03-0.09
		l0-0.04c0.03-0.03,0.03-0.05,0.03-0.08c0.03-0.04,0.04-0.06,0.03-0.13c0.04-0.05,0.05-0.06,0.05-0.11
		c0.04-0.05,0.06-0.07,0.05-0.16l0.31-0.39c0.01,0,0.02,0,0.03-0.01C5.89,57.89,5.9,57.89,5.91,57.89L5.91,57.89z M5.25,58.42
		c0-0.03,0-0.06,0.02-0.08L5.3,58.3c-0.01-0.04-0.01-0.08,0.02-0.12l0.18-0.23l-0.1,0.01l0.01-0.01l0,0
		c-0.02,0.02-0.05,0.04-0.08,0.04l-0.08,0.01c-0.06,0.07-0.06,0.09-0.16,0.1L4.79,58.5l0.02,0.2c0.01,0.07,0,0.09,0,0.16
		c0,0.01,0.05,0.06,0.05,0.1c0.01,0.07,0.04,0.05,0.07,0.11c0.02,0.04,0.03,0.06,0.03,0.09c0.01,0.01,0.02,0.04,0.03,0.06l0.03,0.03
		c0.04,0.03,0.06,0.08,0.09,0.11l0,0l0.02,0.02l0-0.02l0-0.03c-0.01-0.03-0.02-0.04-0.02-0.08c-0.01-0.02-0.03-0.05-0.03-0.08
		c-0.01-0.07-0.01-0.14-0.02-0.21l0,0c0-0.03,0.01-0.06,0.02-0.08l0.01-0.01l0,0.01l0,0c0-0.03,0.01-0.06,0.03-0.09l0.01-0.01
		l0,0.01l0-0.04l0,0c0-0.03,0.01-0.06,0.02-0.08l0.01-0.01l0,0c0-0.03,0-0.06,0.02-0.08l0.01-0.01C5.19,58.48,5.2,58.48,5.25,58.42
		L5.25,58.42L5.25,58.42L5.25,58.42z M4.17,59.03l-0.01-0.06l-0.01-0.04l0,0c0-0.03,0-0.05,0.01-0.07c0-0.02,0-0.04,0.01-0.06
		c-0.02-0.04-0.02-0.05-0.03-0.1l0,0c0-0.03,0.01-0.06,0.03-0.09l0.04-0.06l0,0.01l0,0c0-0.03,0-0.06,0.02-0.08l0.02-0.03
		c0.01-0.03,0.01-0.06,0.03-0.09l0.31-0.38l0,0.01c0-0.02,0-0.04,0.01-0.05l-0.02,0l0.01-0.02l0,0c-0.02,0.02-0.04,0.04-0.07,0.04
		l-0.01,0.01c-0.04,0.05-0.07,0.04-0.12,0.06c-0.05,0.06-0.06,0.06-0.13,0.07l-0.11,0.14l0-0.01c0.01,0.08,0,0.08-0.03,0.16
		c0.01,0.04,0,0.06-0.01,0.1c0,0.05,0,0.06-0.01,0.11L4.17,59.03L4.17,59.03L4.17,59.03z M4.78,57.87c0.03,0.02,0.06,0.05,0.06,0.09
		c0,0.05,0.01,0.09-0.02,0.12l-0.32,0.4c-0.01,0.06-0.02,0.07-0.04,0.1c0,0.05-0.03,0.09-0.06,0.13c0.02,0.04,0.02,0.05,0.02,0.1
		c0,0.02,0,0.04-0.01,0.07c0,0.02,0,0.05-0.01,0.06l0.01,0.08c0.02,0.02,0.02,0.04,0.03,0.06c0,0.04,0.01,0.04,0.04,0.06
		c0.02,0.02,0.04,0.04,0.04,0.07l0-0.01c0.05,0.04,0.06,0.1,0.08,0.16l0,0.02c0.01,0.02,0.02,0.04,0.03,0.06
		c0.08,0.07,0.07,0.08,0.08,0.18l0.53,0.43c-0.02-0.04-0.03-0.1-0.04-0.13l-0.03-0.04l-0.03-0.03c-0.02-0.02-0.04-0.05-0.04-0.07
		c-0.02-0.03-0.02-0.05-0.03-0.1L5,59.64c-0.03-0.02-0.04-0.04-0.04-0.07c-0.02-0.02-0.02-0.04-0.03-0.06
		c-0.02-0.03-0.04-0.05-0.07-0.09l-0.06-0.05c-0.02-0.02-0.04-0.04-0.04-0.07c-0.01-0.02-0.02-0.04-0.03-0.06l0,0l0,0
		c0-0.04,0-0.04-0.04-0.06c-0.03-0.03-0.06-0.1-0.07-0.15L4.6,58.97c-0.03-0.06-0.02-0.15-0.01-0.21c-0.01-0.09-0.02-0.18-0.03-0.28
		c0-0.03,0.01-0.06,0.02-0.08l0,0l0.38-0.46c0.03-0.04,0.07-0.04,0.11-0.04l0.04-0.06c0.04-0.04,0.1-0.05,0.16-0.05l0,0
		c-0.06,0.01-0.08,0.01-0.15,0l-0.06,0.01c-0.03-0.01-0.18,0.03-0.19,0.05l0,0c-0.02,0.02-0.04,0.04-0.08,0.04L4.78,57.87z"/>
	<path class="st1" d="M66.76,7.29c-0.01-0.95-1.07-1.39-2.2-1.85c-2.94-1.19-1.63,1-4.21-0.65c0.76-2.25-0.03-2.97-0.82-3.3
		c-0.7-0.29-2.35-0.19-3.17,0.66c-0.63,0.66-0.55,2.51-0.96,3.56L55.4,5.74c-2.92-2.01-4.6-1.77-5.84-1.13
		c-0.96,0.49-1.63,0.96-0.61,3.02c0.15,0.31,1.58,1.05,2.9,1.6c0.75,0.31,3.5,1.11,3.77,1.87c0.13,0.49-1.82,1.42-2.52,2.91
		c-0.51,1.09-0.36,3.07,0.37,3.58c0.64,0.44,2.24,0.27,3.35-0.62c0.65-0.53,0.76-1.56,1.34-2.4c0.6,0.97,0.93,1.14,1.74,1.69
		c1.28,0.87,3.09,1.73,4.05,1.53c1.27-0.27,2.02-0.93,1.17-4.09c-0.55-2.07-3.77-3.12-3.51-3.15C63.42,10.35,66.78,10.48,66.76,7.29
		L66.76,7.29z M52.35,8.52l0.5,0.21c0.04-0.02,0.07-0.04,0.12-0.02l2.94,1.22c0.02-0.01,0.05-0.02,0.07-0.02
		c0.16-0.01,0.13-0.02,0.28,0.04l0.17,0.01c0.06,0.01,0.11,0.06,0.1,0.12c-0.01,0.06-0.06,0.11-0.12,0.11l-0.19-0.01
		c-0.03,0-0.09-0.03-0.12-0.04L56,10.13c-0.05,0.02-0.09,0.05-0.15,0.02l-2.94-1.22c-0.04,0.02-0.07,0.04-0.12,0.02l-0.54-0.23
		C52.2,8.7,52.17,8.64,52.2,8.58C52.22,8.52,52.29,8.5,52.35,8.52L52.35,8.52z M62.75,7.26l0.15-0.06l0.23-0.1
		c0.06-0.02,0.13,0.02,0.18,0.04c0.02-0.02,0.05-0.05,0.08-0.06l0.15-0.06c0.06-0.03,0.12,0.01,0.17,0.03
		c0.06-0.01,0.11-0.02,0.17,0.01c0.04-0.02,0.07-0.04,0.12-0.02l0.25,0.1c0.16-0.01,0.13-0.02,0.28,0.05
		c0.05-0.02,0.07-0.03,0.13-0.01c0.07-0.03,0.08-0.03,0.15,0c0.05,0,0.12-0.02,0.16,0l0.7,0.3c0.06,0.02,0.08,0.09,0.06,0.15
		c-0.02,0.06-0.09,0.08-0.15,0.06L64.91,7.4c-0.05,0-0.11,0.02-0.17-0.01c-0.05,0.02-0.08,0.04-0.13,0.01
		c-0.04,0.02-0.08,0.03-0.12,0.01l-0.14-0.06c-0.04,0-0.12,0.02-0.16,0l-0.23-0.1c-0.07,0.03-0.08,0.03-0.15,0
		c-0.13,0.01-0.11,0.02-0.22-0.03L63.5,7.28c-0.16,0.14-0.14,0.12-0.33,0.04c-0.11,0.05-0.23,0.1-0.34,0.14
		c-0.06,0.02-0.13,0-0.15-0.06C62.67,7.35,62.69,7.28,62.75,7.26L62.75,7.26z M55.22,16.07l0.21-0.09l0.23-0.27
		c0.03-0.03,0.07-0.04,0.11-0.06c0.06-0.05,0.08-0.08,0.15-0.11c0.04-0.09,0.03-0.1,0.12-0.14c0.03-0.08,0.11-0.09,0.18-0.12
		c0.03-0.06,0.05-0.16,0.11-0.18l0.39-0.16c0.06-0.02,0.13,0,0.15,0.06c0.02,0.06,0,0.13-0.06,0.15l-0.34,0.15
		c-0.03,0.06-0.05,0.16-0.11,0.18l-0.08,0.03l-0.04,0.01c-0.02,0.06-0.05,0.06-0.1,0.09c-0.05,0.11-0.04,0.1-0.15,0.15
		c-0.03,0.03-0.08,0.08-0.12,0.09l-0.05,0.02l-0.23,0.26c-0.01,0.01-0.03,0.02-0.05,0.03l-0.23,0.1c-0.06,0.02-0.12,0-0.15-0.06
		C55.13,16.17,55.16,16.1,55.22,16.07L55.22,16.07z M59.35,9.42l-0.3,0.7L59,10.37l0.01,0.02l0.12,0.1
		c0.05,0.04,0.05,0.11,0.01,0.16c-0.04,0.05-0.11,0.05-0.16,0.01c-0.04-0.03-0.15-0.12-0.17-0.16c-0.02-0.05-0.05-0.09-0.04-0.14
		l0.06-0.3c0-0.01,0-0.01,0.01-0.02l0.31-0.71c0.02-0.06,0.09-0.09,0.15-0.06C59.35,9.3,59.38,9.36,59.35,9.42L59.35,9.42z
		 M50.54,6.65c0.03-0.05,0.05-0.05,0.13-0.08l0.14-0.06c0.03-0.01,0.09-0.08,0.12-0.09c0.2-0.09,0.41-0.17,0.62-0.26
		c0.04-0.01,0.12-0.01,0.16-0.02L51.9,6.1l0.22-0.1c0.04-0.01,0.06,0.01,0.1,0.01c0.05,0,0.09-0.08,0.14-0.1l0.6-0.25l0.08-0.07
		l0.12-0.14c0.04-0.05,0.11-0.05,0.16-0.01c0.05,0.04,0.05,0.11,0.01,0.16c-0.04,0.04-0.09,0.11-0.14,0.15
		c-0.03,0.03-0.1,0.09-0.13,0.1l-0.61,0.25c-0.03,0.03-0.08,0.08-0.12,0.1c-0.07,0.03-0.11,0.06-0.18,0.03l-0.19,0.08
		c-0.01,0-0.02,0-0.03,0l-0.21,0.04c-0.03,0.01-0.09,0.01-0.13,0.01l-0.58,0.25C51,6.64,50.94,6.7,50.91,6.71l-0.15,0.06
		c-0.02,0.01-0.03,0.01-0.04,0.02l0,0c-0.02,0.04-0.05,0.07-0.1,0.07l-0.07,0c0,0.06-0.05,0.11-0.11,0.11L50.31,7
		c-0.06,0-0.11-0.04-0.12-0.11c0-0.05,0.03-0.1,0.07-0.11l0,0l0.06-0.02C50.44,6.66,50.43,6.66,50.54,6.65L50.54,6.65z M53.37,7.46
		c-0.02,0.05-0.06,0.18-0.1,0.21l-0.08,0.07c-0.04,0.09-0.05,0.08-0.14,0.12c-0.03,0.03-0.08,0.08-0.12,0.09l-0.31,0.13
		c-0.03,0.01-0.11,0.01-0.15,0.02c-0.05,0.02-0.1,0.05-0.15,0.03l-0.12-0.05c-0.04,0.02-0.07,0.04-0.12,0.02l-0.12-0.05
		c-0.09,0.04-0.1,0.02-0.19-0.01c-0.07,0.03-0.08,0.03-0.15,0c-0.06,0-0.11,0.02-0.17-0.01c-0.05,0.02-0.08,0.03-0.13,0.01
		c-0.16,0.07-0.13,0.07-0.29,0.01c-0.05,0-0.16,0-0.2-0.02l-0.9-0.37c-0.04,0-0.09,0.01-0.12,0.01l-0.18-0.01
		c-0.06-0.01-0.11-0.06-0.1-0.12c0-0.06,0.06-0.11,0.12-0.11l0.18,0.01c0.05,0,0.14-0.02,0.18,0l0.9,0.37c0.05,0,0.17,0,0.2,0.02
		l0.07,0.03c0.07-0.03,0.14-0.08,0.21-0.05c0.07-0.03,0.08-0.03,0.15,0c0.05,0,0.11-0.02,0.17,0c0.09-0.04,0.1-0.02,0.19,0.01
		c0.04-0.02,0.08-0.03,0.12-0.01l0.12,0.05c0.04-0.02,0.08-0.03,0.12-0.02l0.12,0.05c0.07-0.03,0.1-0.03,0.18-0.03l0.28-0.12
		c0.06-0.05,0.08-0.08,0.15-0.11c0.02-0.05,0.07-0.08,0.12-0.12l0.05-0.11l0-0.07c-0.05-0.06-0.07-0.07-0.09-0.14
		C53,7.17,52.97,7.12,52.94,7.07c-0.05-0.02-0.12-0.04-0.15-0.1l-0.06-0.15c-0.02-0.06,0.02-0.14,0.05-0.2
		c0.01-0.03,0.03-0.05,0.06-0.06l0.15-0.07l0.06-0.02c0.03-0.03,0.09-0.08,0.12-0.09l0.23-0.09l0,0l0,0c0.03-0.01,0.06-0.01,0.09,0
		l0.24,0.1l0.09-0.01l0.14-0.06c0.03-0.01,0.06-0.01,0.09,0l0.17,0.07l0.97-0.41L55.1,5.91c-0.02-0.01-0.05-0.02-0.07-0.04
		l-0.14-0.12c-0.03-0.02-0.06-0.06-0.08-0.09l-1.67-0.69c-0.02,0.01-0.04,0.02-0.07,0.02c-0.06,0.01-0.13,0.02-0.19,0
		C52.83,5.01,52.81,5.02,52.76,5l-0.19,0.08c-0.01,0-0.01,0.01-0.02,0.01c-0.07,0.01-0.15,0.03-0.22,0.04l-0.11,0.01l-0.22,0.09
		c-0.06,0.02-0.1-0.01-0.15-0.03l-0.19,0.08c-0.04,0.01-0.06,0.01-0.1,0c-0.07,0.03-0.1,0.03-0.18,0.03
		c-0.05,0.02-0.09,0.05-0.15,0.03L51.1,5.28l-0.33,0.14c-0.03,0.03-0.08,0.08-0.12,0.1l-0.29,0.12c-0.03,0.03-0.08,0.08-0.12,0.09
		l-0.11,0.05c-0.02,0.06-0.05,0.12-0.11,0.13l-0.2,0.04l-0.18,0.07l-0.02,0.06c0.05-0.04,0.06-0.04,0.15-0.08
		c0.06-0.02,0.12,0,0.14,0.06c0.02,0.06-0.01,0.12-0.06,0.15l-0.06,0.02c-0.14,0.12-0.1,0.1-0.29,0.11c-0.05,0-0.12-0.03-0.16-0.05
		c-0.06-0.02-0.08-0.09-0.06-0.15c0.02-0.06,0.05-0.14,0.11-0.17l0.04-0.01c0.02-0.05,0.03-0.11,0.09-0.13l0.23-0.1
		c0.04-0.02,0.13-0.03,0.17-0.04l0.02-0.05c0.01-0.03,0.03-0.05,0.06-0.06l0,0l0,0l0.13-0.06c0.03-0.02,0.08-0.08,0.12-0.09
		l0.29-0.12c0.03-0.03,0.08-0.08,0.12-0.09l0.39-0.16c0.06-0.03,0.14,0.02,0.21,0.05c0.07-0.03,0.1-0.03,0.18-0.03
		c0.06-0.03,0.09-0.05,0.16-0.02l0.19-0.08c0.06-0.03,0.1,0,0.15,0.03c0.05-0.02,0.18-0.09,0.23-0.09L52.3,4.9l0.19-0.04l0.22-0.09
		c0.04-0.01,0.07-0.01,0.1,0.01c0.07-0.03,0.08-0.03,0.15,0l0.09-0.01c0.05-0.02,0.09-0.05,0.15-0.02l1.73,0.72
		c0.04,0.02,0.09,0.09,0.12,0.12l0.12,0.1c0.02,0.01,0.05,0.02,0.07,0.04l0.13,0.11l0.04,0.02c0.06,0.02,0.08,0.09,0.06,0.15
		l-0.05,0.11c-0.01,0.03-0.03,0.05-0.06,0.06l0,0c-0.36,0.15-0.73,0.3-1.09,0.45c-0.03,0.01-0.06,0.01-0.09,0L54,6.55
		c-0.04,0.02-0.11,0.06-0.15,0.06c-0.05,0.01-0.14,0.02-0.18,0l-0.23-0.09l-0.17,0.07c-0.03,0.03-0.08,0.08-0.12,0.1l-0.08,0.03
		l-0.11,0.05l-0.01,0.02l0.03,0.07c0.11,0.05,0.1,0.04,0.18,0.14c0.08,0.04,0.08,0.05,0.11,0.14c0.12,0.14,0.1,0.1,0.11,0.29
		C53.38,7.42,53.38,7.44,53.37,7.46L53.37,7.46L53.37,7.46z M57.54,2.58L57.54,2.58L57.54,2.58c0.03-0.01,0.07-0.04,0.1-0.04
		l0.2-0.04c0.05-0.02,0.1-0.05,0.15-0.03l1.14,0.47c0.05,0.02,0.06,0.06,0.07,0.09c0.06,0.02,0.06,0.05,0.08,0.1
		c0.05,0.02,0.1,0.03,0.13,0.09l0.06,0.15c0.01,0.03,0.01,0.06,0,0.1c0.01,0.02,0.02,0.04,0.02,0.07c0,0.05,0.02,0.14,0,0.19l0,0.01
		l0.11,0.27c0.01,0.03,0.01,0.06,0,0.09l-0.06,0.14l0.01,0.09c0.04,0.11,0.04,0.1-0.01,0.21l0.03,0.08l0.12,0.11
		c0.05,0.04,0.05,0.11,0.01,0.16c-0.04,0.05-0.11,0.05-0.16,0.01c-0.04-0.04-0.15-0.12-0.17-0.17L59.3,4.58
		c-0.02-0.05,0.01-0.1,0.03-0.15c-0.01-0.02-0.02-0.04-0.02-0.07c-0.01-0.18-0.02-0.14,0.05-0.31l-0.11-0.27
		c-0.02-0.05,0-0.08,0.01-0.12l-0.01-0.09c-0.02-0.06-0.05-0.09-0.02-0.16l-0.03-0.07c-0.09-0.04-0.1-0.03-0.14-0.12
		c-0.06-0.03-0.06-0.05-0.08-0.1L57.95,2.7c-0.08,0.04-0.17,0.04-0.25,0.06l-0.02,0.01c-0.04,0.1-0.04,0.09-0.14,0.18
		c-0.04,0.09-0.05,0.08-0.14,0.12l-0.07,0.06L57.2,3.43c-0.02,0.04-0.08,0.08-0.11,0.11L56.6,4.68c0.02,0.04,0.03,0.07,0.01,0.12
		l-0.14,0.34c0.04,0.09,0.02,0.1-0.02,0.19l0.01,0.03c0.02,0.06,0,0.13-0.06,0.15c-0.06,0.03-0.12,0-0.15-0.06
		c-0.05-0.12-0.05-0.11,0-0.23c-0.02-0.04-0.03-0.08-0.01-0.12l0.15-0.34c-0.02-0.04-0.03-0.07-0.01-0.12l0.51-1.21
		c0.02-0.04,0.08-0.08,0.11-0.11l0.13-0.31c0.02-0.04,0.1-0.1,0.13-0.13c0.02-0.02,0.04-0.02,0.07-0.03
		c0.02-0.06,0.07-0.08,0.11-0.12l0.04-0.09C57.49,2.61,57.51,2.59,57.54,2.58L57.54,2.58z M53.74,16.07l0,0.02
		c0.02,0.05,0.02,0.06,0.02,0.11c0.03,0.08,0.03,0.07,0.04,0.16c0,0.05,0.02,0.04,0.04,0.08l0.03,0.07
		c0.03,0.04,0.08,0.11,0.09,0.17l0,0.05l0.02,0.04c0.02,0.02,0.04,0.04,0.05,0.07c0.02,0.04,0.03,0.08,0.05,0.12l0,0l0.14,0.06
		c0.06,0.02,0.08,0.09,0.06,0.15c-0.02,0.06-0.09,0.09-0.15,0.06l-0.19-0.08c-0.06-0.03-0.08-0.12-0.11-0.18
		c-0.02-0.04-0.04-0.05-0.06-0.09c-0.03-0.08-0.04-0.08-0.04-0.16c-0.01-0.04-0.05-0.07-0.06-0.11l-0.02-0.06
		c-0.02-0.03-0.05-0.06-0.05-0.1c0-0.04-0.01-0.08-0.01-0.11c-0.03-0.07-0.03-0.07-0.03-0.15c-0.02-0.04-0.02-0.06-0.02-0.11l0,0
		l0-0.01c0-0.02,0-0.03,0.01-0.05l0.01-0.03c0-0.06-0.05-0.1-0.02-0.17l0.05-0.11c-0.01-0.06-0.06-0.12-0.05-0.18l-0.02-0.02
		l-0.01,0c-0.02-0.03-0.03-0.08-0.02-0.12l0.01-0.03c0-0.07,0-0.07,0.02-0.13c-0.01-0.03-0.01-0.06,0-0.08l0.25-0.58
		c0.02-0.05,0.05-0.06,0.1-0.07l-0.01,0.01l0,0c0.01-0.03,0.03-0.05,0.06-0.06l0.06-0.03c0.04-0.03,0.05-0.04,0.1-0.06l0.05-0.04
		l-0.33-0.14c-0.04-0.01-0.06-0.05-0.08-0.08l-0.01,0l0,0c-0.03-0.03-0.04-0.08-0.02-0.12l0.01-0.03c0-0.03-0.01-0.06,0.01-0.09
		l0.22-0.52c0.01-0.03,0.08-0.09,0.11-0.11c0.06-0.02,0.03-0.03,0.07-0.07c0.02-0.02,0.05-0.05,0.08-0.07
		c0.03-0.01,0.05-0.02,0.07-0.03l-0.01,0.02l0,0c0.01-0.03,0.03-0.05,0.06-0.06l0.03-0.01c0.02-0.05,0.04-0.06,0.09-0.08
		c0.05-0.04,0.06-0.06,0.12-0.06c0.02-0.03,0.04-0.05,0.07-0.07c0.06-0.02,0.03-0.05,0.08-0.1c0.04-0.03,0.05-0.04,0.08-0.06
		c0.01-0.02,0.03-0.03,0.05-0.04c0.03-0.08,0.04-0.07,0.13-0.15l0,0l0,0c0.01-0.03,0.03-0.05,0.06-0.06
		c0.04-0.02,0.06-0.07,0.1-0.09c0.02-0.01,0.04-0.03,0.05-0.06l0,0c0.01-0.03,0.03-0.05,0.06-0.06l0.07-0.03l-0.01,0.02l0,0
		c0.01-0.03,0.03-0.05,0.06-0.06c0.06-0.02,0.08-0.04,0.12-0.04c0.04-0.03,0.07-0.06,0.12-0.08L55.62,12l0,0
		c0.01-0.03,0.03-0.05,0.06-0.06c0.01-0.01,0.07-0.03,0.08-0.04c0.02-0.05,0.09-0.1,0.13-0.12c0.02-0.02,0.04-0.04,0.07-0.05
		c0.04-0.02,0.15-0.07,0.19-0.07c0.05,0,0.08-0.01,0.13,0.01l-0.01,0c0.01,0,0.07-0.03,0.08-0.03c0.02-0.01,0.04-0.01,0.07-0.01
		l0.07-0.03c0.03-0.01,0.06-0.01,0.09,0l0.01,0.01c0.04-0.02,0.12-0.06,0.16-0.03l0.04,0c0.06,0,0.12,0.04,0.12,0.11
		c0,0.06-0.04,0.12-0.11,0.12c-0.04,0-0.08,0.01-0.12-0.01l0.02,0.01c-0.1,0.04-0.1,0.05-0.17,0.03l-0.07,0.03
		c-0.02,0.01-0.04,0.01-0.07,0.01l-0.08,0.03c-0.07,0.03-0.09-0.02-0.14-0.01l-0.12,0.05c-0.02,0.02-0.04,0.04-0.07,0.05
		c-0.06,0.02-0.03,0.03-0.07,0.07c-0.05,0.05-0.06,0.05-0.12,0.08c-0.02,0.04-0.05,0.04-0.11,0.07l-0.08,0.07
		c-0.03,0.03-0.06,0.03-0.1,0.03c-0.01,0.01-0.03,0.03-0.05,0.04l-0.08,0.03l-0.01,0.01c-0.04,0.04-0.06,0.08-0.12,0.11
		c-0.05,0.05-0.05,0.06-0.09,0.08c-0.02,0.04-0.05,0.05-0.1,0.09l-0.02,0.06c-0.01,0.03-0.03,0.05-0.06,0.06
		c-0.01,0.02-0.03,0.04-0.06,0.05l0,0c-0.03,0.01-0.03,0.01-0.05,0.05c-0.02,0.04-0.09,0.09-0.13,0.11
		c-0.06,0.07-0.06,0.08-0.15,0.09c-0.02,0.01-0.03,0.03-0.05,0.04c0.02-0.01-0.03,0.06-0.06,0.07l-0.04,0.02
		c-0.05,0.07-0.1,0.04-0.17,0.1c-0.02,0.05-0.09,0.1-0.13,0.12l-0.02,0.01l-0.2,0.47c0,0.03,0,0.05,0,0.07l0.31,0.13
		c0.03,0,0.06-0.01,0.09,0l0.31,0.13c0.04-0.02,0.07-0.04,0.12-0.02l0.06,0.03c0.09-0.01,0.09,0,0.17,0.04
		c0.07-0.01,0.09,0,0.15,0.03l0.01,0l0.01,0l0.01,0l0.01,0c0.06,0.02,0.08,0.09,0.06,0.15c-0.02,0.05-0.08,0.08-0.13,0.07
		c-0.03,0.01-0.06,0.01-0.08,0l-0.06-0.02c-0.03,0-0.06,0.01-0.09-0.01c-0.08,0-0.08,0-0.15-0.03c-0.03,0-0.06,0.01-0.09-0.01l0,0
		c-0.07,0-0.08,0-0.13-0.02c-0.04,0.01-0.06,0.01-0.11-0.01l-0.02,0l-0.02,0.01c-0.01,0.01-0.03,0.01-0.04,0.01l-0.02,0.01
		c-0.05,0.03-0.08,0.06-0.13,0.08c-0.05,0.04-0.06,0.05-0.1,0.07c-0.02,0.03-0.04,0.04-0.09,0.06l-0.21,0.49
		c0.02,0.05,0,0.07-0.03,0.14c0,0.04,0,0.06,0,0.08c0.01,0.01,0.02,0.03,0.03,0.07c0.01,0.03,0.01,0.06,0,0.09l0,0l0.01-0.02
		c0.01,0.03,0.04,0.08,0.04,0.11c0.01,0.11,0,0.1-0.05,0.21c0.01,0.02,0.02,0.04,0.02,0.07C53.76,16.01,53.77,16.01,53.74,16.07
		L53.74,16.07z M64.44,6.21c0.02,0,0.03-0.01,0.05-0.01c0.04,0,0.1,0,0.13,0.02l0.62,0.26c0.05,0.02,0.06,0.05,0.07,0.1l0.39,0.16
		c0.06,0.02,0.08,0.09,0.06,0.15c-0.03,0.06-0.09,0.08-0.15,0.06l-0.43-0.18c-0.05-0.02-0.06-0.05-0.07-0.09l-0.56-0.23l-0.06,0l0,0
		c-0.03,0.01-0.06,0.02-0.09,0l-0.04-0.02l0.01,0l0,0c-0.03,0.01-0.06,0.01-0.09,0c-0.03-0.02-0.03-0.02-0.07,0l0,0
		c-0.03,0.01-0.06,0.01-0.09,0c-0.01-0.01-0.06,0.01-0.09-0.01L63.9,6.37l0.01,0l0,0c-0.03,0.01-0.06,0.01-0.09,0
		c-0.01,0-0.06,0.01-0.09-0.01c-0.07,0.01-0.07,0.01-0.13-0.02l0,0l0,0c-0.03,0.01-0.06,0.01-0.09,0l-0.04-0.01
		c-0.05,0.02-0.07,0.03-0.12,0.01c-0.03,0.01-0.05,0.01-0.07,0c-0.05,0.02-0.08,0.03-0.14,0.01c-0.06,0.03-0.07,0.02-0.14,0.03
		c-0.03,0-0.06-0.01-0.09-0.02l0,0c-0.03,0.01-0.06,0.01-0.09,0l-0.09-0.04c-0.04,0.02-0.08,0.03-0.12,0.02l-0.22-0.09
		c-0.07,0-0.07,0-0.13-0.02l0.01,0l-0.04,0.02l0,0l0,0c-0.03,0.01-0.06,0.01-0.09,0l-0.01,0l0.01,0l0,0c-0.03,0.01-0.06,0.02-0.09,0
		L62.04,6.2c-0.07,0.01-0.07,0.01-0.13-0.02l0.01,0l0,0c-0.02,0.01-0.05,0.01-0.07,0c-0.03,0.01-0.06,0.01-0.08,0l-0.17-0.07l0,0
		l0,0c-0.03,0.01-0.06,0.01-0.09,0L61.47,6.1c-0.05-0.01-0.09-0.01-0.13-0.02c-0.08,0-0.08,0-0.15-0.03c-0.04,0-0.06,0.01-0.1-0.01
		c-0.07,0.03-0.08,0.03-0.15,0c-0.08,0.01-0.08,0-0.16-0.03C60.74,6,60.71,6,60.69,6c-0.03,0.01-0.06,0.01-0.08,0l-0.07-0.03l0.01,0
		l0,0c-0.03,0.01-0.06,0.01-0.09,0l-0.11-0.04c-0.04,0-0.06,0.01-0.09-0.01c-0.08,0.01-0.08,0-0.16-0.03l0,0l0,0
		c-0.03,0.01-0.06,0.01-0.09,0l-0.04-0.02l0.01,0l0,0c-0.03,0.01-0.06,0.01-0.09,0l-0.04-0.02l0.01,0l0,0
		c-0.02,0.01-0.04,0.01-0.07,0.01c-0.03,0.01-0.06,0.01-0.09,0l-0.08-0.03l0,0c-0.04-0.02-0.07-0.05-0.07-0.1
		c0-0.06,0.05-0.11,0.11-0.12c0.09-0.01,0.09-0.01,0.16,0.02c0.05-0.02,0.07,0,0.12,0.02c0.05-0.02,0.07,0,0.12,0.02
		c0.06-0.02,0.08,0,0.16,0.04c0.03,0,0.06-0.01,0.09,0.01c0.03,0,0.06-0.01,0.09,0.01l0.09,0.04c0.03-0.01,0.05-0.01,0.08,0
		l0.06,0.02c0.03-0.01,0.06-0.01,0.08,0l0,0c0.03,0.01,0.08,0,0.12,0.02l0.06,0.02c0.04,0,0.06-0.01,0.1,0.01
		c0.07-0.03,0.08-0.03,0.15-0.01c0.08-0.01,0.08,0,0.15,0.03c0.05,0,0.06-0.01,0.1,0.01c0.04,0,0.1,0.01,0.13,0.02l0.01,0
		c0.02-0.01,0.05-0.01,0.08,0l0.17,0.07c0.02-0.01,0.04-0.01,0.06-0.01c0.05-0.02,0.07-0.01,0.14,0.03c0.06-0.01,0.07,0,0.1,0.01
		c0.04-0.01,0.05-0.01,0.09,0.01c0.07-0.03,0.08-0.03,0.18,0.01c0.03,0,0.06-0.01,0.09,0l0.2,0.08c0.04-0.02,0.07-0.03,0.12-0.01
		l0.09,0.04c0.05-0.02,0.06,0,0.14,0.02c0.07-0.01,0.1-0.06,0.18-0.02l0.04-0.01c0.03-0.01,0.06-0.01,0.09,0l0,0
		c0.01,0.01,0.06-0.01,0.09,0.01L63.4,6.11c0.08-0.03,0.1-0.03,0.16,0c0.05-0.02,0.07-0.01,0.14,0.02c0.03,0,0.06-0.01,0.09,0.01
		c0.04,0,0.05,0,0.07,0c0.03-0.01,0.05-0.01,0.08,0l0.14,0.06c0.04,0,0.05-0.01,0.07,0c0.01,0,0.02-0.01,0.03-0.01
		c0.08-0.01,0.09-0.01,0.13,0.01C64.38,6.18,64.4,6.19,64.44,6.21L64.44,6.21z M62.42,11.68L62.42,11.68l-0.01-0.03l-0.05-0.08
		c-0.04-0.05-0.02-0.12,0.03-0.16c0.05-0.03,0.12-0.02,0.16,0.03c0.02,0.04,0.04,0.07,0.06,0.1c0.05,0.02,0.11,0.04,0.13,0.09
		l0.01,0.02c0.04,0.05,0.15,0.05,0.19,0.11c0.03,0.04,0.04,0.05,0.06,0.07c0.02,0.01,0.03,0.03,0.04,0.05l0.12,0.05
		c0.04,0.02,0.06,0.06,0.08,0.1c0.03,0.02,0.05,0.05,0.05,0.09l0,0.03c0.04,0.02,0.05,0.03,0.08,0.1l-0.02-0.01l0,0
		c0.03,0.01,0.05,0.03,0.06,0.06l0.03,0.07l-0.01-0.01l0,0c0.02,0.01,0.04,0.02,0.05,0.04c0.04,0.06,0.06,0.08,0.08,0.15
		c0,0.03,0.08,0.1,0.1,0.14c0.01,0.04,0.05,0.12,0.05,0.15l0,0.05l0.01,0.02c0.05,0.02,0.06,0.04,0.08,0.09
		c0.03,0.03,0.04,0.04,0.05,0.07c0.02,0.01,0.03,0.03,0.04,0.05c0.06,0.03,0.07,0.04,0.09,0.1c0.02,0.01,0.03,0.03,0.04,0.05
		c0.02,0.05,0.04,0.1,0.06,0.15c0.01,0.01,0.01,0.03,0.01,0.05c0.01,0.01,0.02,0.02,0.02,0.03l0.01,0.03l0.01,0.01l0,0
		c0.01,0.02,0.01,0.05,0,0.08c0.03,0.03,0.03,0.07,0.02,0.11l0,0.01l0-0.01l0.01,0.04l0,0l0,0c0.01,0.03,0.01,0.06,0,0.08l0,0.01
		c0.01,0.02,0.01,0.04,0,0.06l0.08,0.19c0.01,0.01,0.01,0.03,0.01,0.04c0.01,0.01,0.02,0.02,0.02,0.03
		c0.02,0.04,0.03,0.07,0.04,0.11c0.03,0.02,0.06,0.03,0.07,0.07l0.12,0.31c0.01,0.03,0.01,0.05,0.01,0.07l0,0l0,0
		c0.04,0.02,0.07,0.06,0.07,0.1c0,0.05,0.01,0.08-0.01,0.13l0-0.01c0,0.02,0.03,0.04,0.04,0.06c0.02,0.02,0.02,0.05,0.03,0.07l0,0
		l0,0c0.01,0.03,0.01,0.06,0,0.09l-0.03,0.07c0.01,0.02,0.01,0.04,0,0.06c0.01,0.03,0.01,0.06,0,0.08c-0.01,0.04-0.02,0.04,0,0.07
		l0,0l0,0c0.01,0.02,0.01,0.05,0.01,0.07c0.01,0.03,0.01,0.06,0,0.08l-0.03,0.07c0.01,0.03,0.01,0.05,0,0.08l-0.01,0.03
		c0,0.03,0.01,0.06-0.01,0.09l-0.06,0.15c0.01,0.02,0.01,0.05,0,0.08l-0.33,0.77c-0.01,0.03-0.09,0.12-0.12,0.13
		c-0.08,0.03-0.08,0.04-0.16,0.04c-0.07,0.03-0.07,0.03-0.14,0.04l-0.02,0.01l0,0c-0.02,0.01-0.05,0.01-0.07,0.01
		c-0.05,0.02-0.09,0.03-0.13,0.01l0,0l0,0c-0.03,0.01-0.06,0.01-0.09,0l-0.25-0.1l0.01,0c-0.03,0.01-0.06,0.01-0.09,0l-0.49-0.2
		c-0.03,0-0.06,0.01-0.09,0l-1.35-0.56c-0.03-0.01-0.05-0.04-0.07-0.06c-0.05-0.02-0.21-0.07-0.24-0.11l-0.02-0.03
		c-0.04-0.02-0.07-0.03-0.09-0.08c-0.03-0.07-0.07-0.03-0.12-0.09l-0.03-0.03l0,0l0,0c-0.03-0.01-0.05-0.04-0.06-0.06l-0.01-0.03
		l-0.17-0.07c-0.05-0.02-0.06-0.05-0.07-0.09c-0.07-0.03-0.08-0.03-0.13-0.09l-0.27-0.12c-0.06-0.02-0.07-0.07-0.07-0.12
		c-0.02-0.02-0.02-0.03-0.03-0.05c-0.03-0.01-0.04-0.02-0.08-0.06l0,0l0,0c-0.02-0.01-0.04-0.02-0.05-0.04l-0.04-0.06
		c0.01,0-0.03-0.01-0.04-0.03c-0.05-0.06-0.05-0.07-0.07-0.11c-0.03-0.01-0.06-0.03-0.07-0.07l-0.06-0.15
		c-0.05-0.02-0.1-0.04-0.12-0.08c-0.06-0.02-0.08-0.03-0.12-0.12l0,0c-0.01-0.03-0.01-0.06,0-0.09c0.02-0.06,0.09-0.08,0.15-0.06
		l0.03,0.01c0.03,0.01,0.05,0.03,0.06,0.05l0.01,0.01c0.03,0.01,0.05,0.03,0.06,0.05l0.07,0.03c0.03,0.01,0.05,0.04,0.06,0.06l0,0
		c0.01,0.04,0.03,0.08,0.05,0.12l0.01,0.03l0.01,0.01c0.03,0.01,0.05,0.03,0.06,0.06l0,0l0,0l0,0c0.01,0.02,0.03,0.07,0.04,0.07
		c0.04,0.02,0.07,0.06,0.09,0.1c0.03,0.01,0.03,0.02,0.06,0.06l0.03,0.01c0.03,0.01,0.05,0.03,0.06,0.06l0,0
		c0.02,0.05,0.06,0.06,0.06,0.12l0,0l0.23,0.1c0.03,0.01,0.05,0.04,0.07,0.06c0.09,0.04,0.12,0.03,0.16,0.13l0.17,0.07
		c0.04,0.02,0.06,0.06,0.08,0.1c0.01,0.01,0.03,0.02,0.05,0.05c0.09,0.04,0.08,0.03,0.14,0.1c0.01,0,0.02,0.04,0.02,0.03
		c0.04,0.02,0.05,0.03,0.08,0.06c0.05,0.02,0.21,0.08,0.24,0.11l0.02,0.03l1.3,0.54c0.03,0,0.06-0.01,0.09,0l0.47,0.2
		c0.03-0.01,0.05-0.01,0.08,0l0.26,0.11c0.03-0.01,0.05-0.01,0.09,0.01l0.03-0.02c0.02-0.01,0.05-0.01,0.07-0.01
		c0.02-0.01,0.04,0,0.08-0.01c0.07-0.03,0.07-0.03,0.14-0.03l0.04-0.02l0.03-0.04l0.3-0.71c-0.01-0.03-0.01-0.05,0-0.08l0.07-0.17
		c-0.01-0.06,0-0.07,0.01-0.1c-0.01-0.03-0.01-0.05,0-0.08l0.03-0.07c-0.01-0.02-0.01-0.04-0.01-0.06c0-0.01-0.01-0.02,0-0.03
		c0-0.07-0.01-0.08,0.01-0.13c-0.01-0.02-0.01-0.04,0-0.06c-0.01-0.03-0.01-0.05,0-0.09l0.02-0.06c-0.01-0.02-0.03-0.03-0.04-0.05
		c-0.03-0.08-0.05-0.09-0.02-0.17c-0.02-0.01-0.03-0.03-0.04-0.05l0,0l0,0c-0.02-0.06-0.02-0.06-0.03-0.12l-0.1-0.25
		c-0.03-0.01-0.06-0.03-0.07-0.07l-0.05-0.11c-0.03-0.02-0.05-0.05-0.05-0.09l0,0l-0.04-0.15c-0.02-0.04-0.03-0.08-0.05-0.12
		c-0.01-0.02-0.01-0.05,0-0.07c-0.01-0.04-0.01-0.06,0-0.1l-0.01-0.04c-0.01-0.03-0.01-0.05,0-0.07c-0.03-0.03-0.03-0.07-0.02-0.11
		c-0.02-0.02-0.02-0.04-0.02-0.06l0,0l0-0.01l0-0.04l-0.04-0.1c-0.02-0.01-0.04-0.03-0.05-0.05l0,0l0,0l-0.01-0.04l0,0.01
		l-0.01-0.01c-0.03-0.01-0.05-0.03-0.06-0.06c-0.02-0.01-0.04-0.03-0.05-0.05l0,0l0,0c-0.01-0.04-0.04-0.05-0.05-0.09
		c0.01,0.01-0.06-0.03-0.07-0.06c-0.01-0.03-0.04-0.08-0.04-0.11c0-0.07-0.02-0.11-0.06-0.16c-0.01-0.02-0.05-0.05-0.06-0.09
		l-0.01-0.04l-0.01-0.03l-0.03-0.05c-0.02-0.01-0.04-0.03-0.06-0.06l-0.03-0.08c-0.03-0.02-0.04-0.04-0.06-0.08l-0.01-0.01
		c-0.03-0.01-0.05-0.04-0.06-0.06l0,0l0,0c-0.02-0.04-0.02-0.05-0.02-0.08c-0.01-0.01-0.02-0.02-0.02-0.04l0,0l-0.01-0.04l0,0.01
		l-0.12-0.05c-0.03-0.01-0.05-0.03-0.06-0.06c-0.02-0.01-0.04-0.03-0.04-0.05l0,0l0,0l-0.01-0.02c-0.04-0.05-0.15-0.05-0.19-0.1
		c-0.02-0.02-0.05-0.05-0.06-0.08l0,0.01l-0.06-0.03C62.45,11.73,62.43,11.71,62.42,11.68L62.42,11.68L62.42,11.68z M62.9,13.18
		l-0.06-0.03c-0.06-0.02-0.08-0.09-0.06-0.15c0.02-0.06,0.09-0.09,0.15-0.06c0.06,0.02,0.14,0.04,0.17,0.1
		c0.13,0.05,0.11,0.04,0.17,0.2l-0.02-0.01l0,0c0.03,0.01,0.05,0.03,0.06,0.06l0.01,0.03l-0.01-0.01l0,0
		c0.03,0.01,0.05,0.03,0.06,0.05c0.05,0.02,0.06,0.03,0.09,0.1l-0.02-0.01l0,0c0.03,0.01,0.05,0.03,0.06,0.06l0.01,0.04l0,0
		l0.03,0.06c0.02,0.02,0.04,0.04,0.05,0.07c0.01,0.02,0.07,0.15,0.07,0.18c0.01,0.05,0.03,0.15,0.02,0.22
		c0.02,0.05,0.02,0.06,0.01,0.16c0.02,0.06,0.04,0.08,0.02,0.12c0.01,0.03,0.01,0.06,0,0.09l0,0.01c0-0.02,0.01,0.02,0.01,0.03
		c0,0.05,0.01,0.08-0.01,0.13c0.02,0.04,0.03,0.08,0.01,0.12L63.61,15c-0.02,0.05-0.06,0.06-0.1,0.08c-0.02,0-0.06,0.07-0.1,0.09
		c-0.04,0.02-0.05,0.04-0.09,0.06c-0.04,0.02-0.05,0.05-0.09,0.06c-0.15,0.06-0.31,0.13-0.47,0.19l0,0
		c-0.02,0.01-0.05,0.01-0.07,0.01c-0.03,0.01-0.05,0.01-0.08,0c-0.05,0.01-0.1,0.02-0.14,0.01c-0.04-0.01-0.08,0-0.12-0.02
		l-0.12-0.05c-0.05,0.02-0.08,0.03-0.12,0.01c-0.03,0-0.06,0.01-0.09,0l-0.12-0.05l0.01,0l0,0c-0.03,0.01-0.06,0.01-0.09,0
		l-0.06-0.03l0,0c-0.03,0.01-0.06,0.01-0.09,0L60.83,15c-0.03-0.01-0.05-0.04-0.07-0.06l-0.16-0.07c-0.06-0.02-0.07-0.08-0.09-0.13
		c-0.03-0.02-0.08-0.03-0.11-0.06c-0.03-0.03-0.08-0.09-0.1-0.12c-0.1-0.04-0.11-0.04-0.14-0.13c-0.03-0.01-0.05-0.05-0.05-0.08
		c-0.05-0.02-0.06-0.03-0.09-0.11l0,0c-0.01-0.03-0.01-0.06,0-0.08c0.02-0.06,0.09-0.09,0.15-0.06l0.57,0.24
		c0.03,0.01,0.05,0.03,0.06,0.05l0.19,0.08l0.01,0l0.15,0.06l0.03-0.01c0.02,0,0.12,0,0.13-0.02c0.08-0.03,0.08-0.04,0.16-0.04
		l0.21-0.09l0,0l0,0c0.02-0.01,0.05-0.01,0.07-0.01c0.05-0.02,0.07-0.03,0.11-0.02c0.03-0.02,0.05-0.02,0.12-0.03
		c0.04-0.02,0.06-0.02,0.1-0.02l0.13-0.06c0.02-0.04,0.03-0.05,0.06-0.07c0.02-0.03,0.03-0.06,0.07-0.07l0.03-0.01
		c0.02-0.04,0.03-0.05,0.06-0.07c0.02-0.05,0.03-0.06,0.1-0.09c0.02-0.06,0.03-0.08,0.07-0.1c0.02-0.06,0.03-0.08,0.11-0.11
		l0.2-0.46c0-0.01-0.01-0.02-0.01-0.04C62.91,13.2,62.91,13.19,62.9,13.18L62.9,13.18z M62.74,14.02c0.03-0.01,0.05-0.03,0.06-0.06
		l0.02-0.04c0.04-0.02,0.08-0.03,0.1-0.08l0.11-0.26l0.04,0.09l0.01-0.02l0,0c-0.01,0.03-0.01,0.06,0,0.08l0.03,0.07
		c-0.04,0.09-0.05,0.09-0.02,0.19l-0.19,0.46l-0.19,0.08c-0.06,0.03-0.08,0.04-0.14,0.08c-0.01,0.01-0.08-0.01-0.12,0.01
		c-0.07,0.03-0.06-0.02-0.12-0.01c-0.05,0-0.07,0-0.1,0.01c-0.02-0.01-0.04-0.01-0.07,0l-0.04-0.02c-0.04-0.02-0.1-0.01-0.15-0.03
		l0,0l-0.02-0.01l0.02-0.01l0.02-0.02c0.04,0,0.05,0,0.08-0.02c0.03,0,0.06,0,0.08-0.01c0.07-0.03,0.13-0.05,0.19-0.08l0,0
		c0.03-0.01,0.05-0.03,0.06-0.06l0-0.01l-0.01,0l0,0c0.03-0.01,0.05-0.03,0.06-0.06l0-0.01l0,0l0.04-0.02l0,0
		c0.03-0.01,0.05-0.03,0.06-0.06l0.01-0.01l0,0c0.03-0.01,0.05-0.03,0.06-0.06l0.01-0.01C62.72,14.1,62.72,14.09,62.74,14.02
		L62.74,14.02L62.74,14.02L62.74,14.02z M62.71,15.25l0.06-0.02l0.04-0.02l0,0c0.02-0.01,0.04-0.03,0.06-0.05
		c0.02-0.01,0.03-0.02,0.04-0.04c0.05,0,0.06,0,0.11-0.02l0,0c0.03-0.01,0.05-0.03,0.06-0.06l0.03-0.07l0,0l0,0
		c0.03-0.01,0.05-0.03,0.06-0.06l0.01-0.03c0.03-0.02,0.05-0.04,0.06-0.07l0.19-0.45l0,0c0.02-0.01,0.03-0.02,0.05-0.03l0.01,0.02
		l0.01-0.02l0,0c-0.01,0.02-0.01,0.05-0.01,0.08l0,0.01c-0.02,0.06,0.01,0.08,0.01,0.13c-0.03,0.07-0.03,0.08,0,0.15l-0.07,0.16l0,0
		c-0.08,0.03-0.07,0.03-0.13,0.1c-0.04,0.02-0.05,0.03-0.08,0.06c-0.05,0.02-0.05,0.03-0.09,0.06L62.71,15.25L62.71,15.25
		L62.71,15.25z M63.45,14.16c-0.03-0.02-0.07-0.03-0.11-0.01c-0.05,0.02-0.08,0.03-0.1,0.08l-0.2,0.47
		c-0.04,0.04-0.05,0.05-0.07,0.08c-0.04,0.02-0.07,0.07-0.08,0.12c-0.04,0.01-0.05,0.01-0.1,0.03c-0.02,0.01-0.04,0.02-0.05,0.05
		c-0.02,0.01-0.04,0.02-0.05,0.04l-0.07,0.03c-0.02,0-0.05,0-0.07,0.01c-0.03,0.02-0.04,0.01-0.07,0c-0.03-0.01-0.06-0.01-0.09,0
		l0.01,0c-0.06-0.03-0.12,0-0.18,0.01l-0.02,0c-0.02-0.01-0.05,0-0.07,0c-0.1-0.04-0.1-0.02-0.2,0.02l-0.63-0.26
		c0.05,0,0.11-0.02,0.14-0.03l0.05,0l0.04,0.01c0.03,0.01,0.06,0.01,0.08,0c0.03,0.01,0.06,0,0.1-0.02l0.06,0.03
		c0.03,0.01,0.06,0.01,0.08,0c0.03,0.01,0.05,0,0.07-0.01c0.03,0.01,0.07,0.01,0.11,0.02l0.07,0.03c0.03,0.01,0.06,0.01,0.08,0
		c0.02,0,0.05,0,0.07-0.01l0,0l0,0c0.04-0.01,0.04-0.01,0.07,0c0.04,0.02,0.12,0.01,0.17-0.01l0.07,0c0.07,0,0.14-0.05,0.19-0.09
		c0.09-0.03,0.18-0.07,0.26-0.11c0.03-0.01,0.05-0.04,0.06-0.06l0,0l0.23-0.55c0.02-0.05,0.01-0.08-0.01-0.12l0.03-0.07
		c0.02-0.05-0.01-0.11-0.03-0.16l0,0c0.02,0.06,0.03,0.07,0.07,0.13l0.02,0.06c0.02,0.02,0.05,0.17,0.04,0.19l0,0
		c-0.01,0.03-0.01,0.06,0,0.09L63.45,14.16z"/>
	<path class="st1" d="M19.07,82.13c-0.53-0.59-1.06-1.07-1.51-1.28c-0.08-0.04-0.14-0.04-0.17,0.03
		C17.36,80.92,18.06,81.43,19.07,82.13L19.07,82.13z M18.37,79.14c1.36,0.63,3,2.72,4.1,4.28c0.5-0.31,1.01-0.51,1.46-0.55
		c0.66-0.9,1.11-1.98,1.49-2.89c0.51-1.23,0.92-2.22,1.75-2.6c0.92-0.43,1.7-0.32,2.27,0.18c0.4,0.35,0.65,0.88,0.73,1.52l-0.01,0
		l0,0c0.06,0.53,0.01,1.15-0.16,1.82c-0.41,1.54-1.52,3.43-3.5,4.97c0.41,0.1,0.74,0.19,0.98,0.28c2.12,0.79,3.25,1.54,3.69,2.11
		c0.52,0.67,0.47,1.29-0.02,1.78c-0.31,0.31-0.8,0.49-1.41,0.48c-1.1-0.01-2.98-0.59-4.74-2l-0.05-0.04
		c-0.27,0.29-0.6,0.51-0.98,0.65c-0.11,0.84-0.29,1.68-0.76,2.43c-1.11,1.8-2.2,2.56-3.12,2.66c-0.84,0.09-1.51-0.29-1.96-0.96
		c-0.37-0.53-0.58-1.26-0.62-2.02c-0.05-1.02,0.22-2.16,0.88-3.04c-0.14-0.02-0.3-0.03-0.49-0.04c-2.38-0.09-3.66-0.46-4.23-0.9
		c-0.43-0.33-0.61-0.74-0.6-1.17c0.02-0.41,0.21-0.78,0.54-1.07c0.49-0.44,1.44-0.77,2.29-0.75c0.69,0.01,2.04,0.16,3.57,0.36
		c-2.29-1.71-4.26-3.52-3.77-4.55C16.3,78.79,17.26,78.62,18.37,79.14L18.37,79.14z M25.42,84.32c1.56-1.23,2.43-2.68,2.74-3.87
		c0.11-0.44,0.15-0.81,0.12-1.11l-0.01,0c-0.02-0.19-0.06-0.31-0.11-0.35c-0.01-0.01-0.09,0.02-0.26,0.09
		c-0.14,0.06-0.42,0.75-0.76,1.59c-0.44,1.07-0.97,2.34-1.83,3.46C25.35,84.19,25.39,84.26,25.42,84.32L25.42,84.32z M20.94,88.54
		c-0.14,0.08-0.29,0.16-0.45,0.24c-0.83,0.42-1.16,1.44-1.12,2.33c0.02,0.42,0.12,0.8,0.29,1.05c0.08,0.11,0.17,0.19,0.25,0.18
		c0.38-0.04,0.94-0.54,1.69-1.76c0.25-0.4,0.38-0.94,0.46-1.51C21.72,88.96,21.35,88.79,20.94,88.54z"/>
	<path class="st1" d="M27.32,19.64c-0.8-0.06-1.52-0.04-1.99,0.11c-0.09,0.03-0.13,0.08-0.12,0.14
		C25.23,19.93,26.09,19.82,27.32,19.64L27.32,19.64z M24.77,17.96c1.44-0.48,4.08-0.09,5.95,0.28c0.17-0.57,0.41-1.06,0.72-1.39
		c-0.12-1.1-0.52-2.18-0.86-3.1c-0.45-1.23-0.82-2.22-0.46-3.06c0.4-0.94,1.06-1.39,1.82-1.42c0.54-0.02,1.08,0.19,1.57,0.6l0,0l0,0
		c0.41,0.34,0.79,0.82,1.11,1.42c0.74,1.39,1.19,3.51,0.76,5.97c0.37-0.21,0.69-0.37,0.92-0.46c2.12-0.88,3.47-1.12,4.18-1.01
		c0.84,0.13,1.22,0.61,1.19,1.3c-0.02,0.44-0.27,0.9-0.73,1.31c-0.83,0.75-2.62,1.62-4.89,1.8L36,20.2c0,0.39-0.1,0.78-0.29,1.13
		c0.49,0.68,0.92,1.41,1.08,2.27c0.39,2.05,0.09,3.34-0.53,4.04c-0.57,0.64-1.32,0.82-2.11,0.65c-0.63-0.13-1.28-0.51-1.83-1.03
		c-0.73-0.7-1.3-1.7-1.41-2.79c-0.11,0.09-0.24,0.19-0.39,0.31c-1.83,1.56-3.04,2.17-3.76,2.24c-0.55,0.06-0.96-0.11-1.24-0.43
		c-0.27-0.31-0.37-0.71-0.32-1.14c0.07-0.65,0.55-1.53,1.2-2.1c0.53-0.47,1.62-1.28,2.91-2.18c-2.87,0.33-5.56,0.38-5.9-0.7
		C22.99,19.12,23.59,18.35,24.77,17.96L24.77,17.96z M33.54,16.87c0.33-1.95,0-3.59-0.58-4.66c-0.21-0.39-0.44-0.69-0.67-0.88l0,0
		c-0.14-0.12-0.26-0.18-0.32-0.18c-0.01,0-0.06,0.08-0.13,0.24c-0.06,0.14,0.19,0.82,0.5,1.66c0.4,1.07,0.87,2.35,0.98,3.74
		C33.4,16.82,33.48,16.84,33.54,16.87L33.54,16.87z M33.07,22.97c-0.05,0.15-0.11,0.32-0.17,0.48c-0.33,0.87,0.11,1.83,0.75,2.44
		c0.3,0.29,0.64,0.5,0.93,0.56c0.14,0.03,0.25,0.02,0.3-0.04c0.26-0.29,0.34-1.03,0.08-2.42c-0.09-0.47-0.36-0.94-0.68-1.41
		C33.93,22.74,33.53,22.87,33.07,22.97z"/>
	<path class="st1" d="M70.1,28.45c-1.29-0.43-2.49-1.05-3.43-1.72c-0.71-0.51-1.28-1.07-1.64-1.63c-0.46-0.72-0.6-1.46-0.31-2.17
		l0,0c0.33-0.79,1.18-1.41,2.7-1.72c2.33-0.47,3.63,1.48,4.94,3.91c0.58-0.42,1.32-0.53,2.22-0.14c1.67-3.74,3.48-7.57,5.3-8.01
		c1.31-0.32,2.38,0.62,3.02,3.52c0.21,0.94-0.08,2.21-0.75,3.39c-0.43,0.76-1.02,1.52-1.74,2.13c-0.74,0.64-1.6,1.14-2.57,1.37
		c-0.29,0.07-0.59,0.12-0.9,0.14c1.41,0.71,2.91,1.99,4.41,4.08c0.6,0.83,0.81,1.53,0.72,2.08l0,0l0,0
		c-0.1,0.61-0.46,1.02-1.05,1.21c-0.38,0.13-0.85,0.14-1.38,0.05c-1.42-0.26-3.59-1.41-5.49-3.38c-0.14-0.14-0.27-0.29-0.4-0.45
		c-0.69,1.22-1.37,2.07-2.03,2.21c-1.24,0.27-2.09-0.01-2.59-0.6c-0.73-0.85-0.56-2.28,0.32-3.53C69.64,28.95,69.85,28.7,70.1,28.45
		L70.1,28.45z M67.79,25.2c0.77,0.55,1.74,1.06,2.78,1.43c0.07-0.13,0.16-0.24,0.26-0.35c-1.01-1.89-1.94-3.42-3.06-3.2
		c-0.82,0.17-1.22,0.36-1.3,0.56l0,0l0,0c-0.03,0.07,0.03,0.22,0.16,0.42C66.85,24.43,67.26,24.82,67.79,25.2L67.79,25.2z
		 M75.11,29.76c0.14,0.17,0.28,0.33,0.42,0.48c1.62,1.68,3.39,2.64,4.5,2.85l0.03,0c-0.06-0.09-0.14-0.21-0.24-0.35
		c-1.49-2.07-2.91-3.2-4.17-3.71C75.47,29.3,75.29,29.55,75.11,29.76L75.11,29.76z M71.24,29.97c-0.09,0.11-0.18,0.21-0.25,0.32
		c-0.38,0.53-0.55,1.03-0.41,1.2c0.07,0.08,0.32,0.1,0.78,0c0.11-0.02,0.28-0.26,0.51-0.66C71.6,30.62,71.39,30.32,71.24,29.97
		L71.24,29.97z M80.29,18.82c-0.93,0.23-2.47,3.53-3.94,6.81c0.38,0.04,0.74,0.01,1.08-0.07c0.65-0.16,1.24-0.5,1.76-0.95
		c0.54-0.47,0.98-1.04,1.32-1.62c0.45-0.79,0.66-1.56,0.55-2.04C80.71,19.37,80.47,18.78,80.29,18.82z"/>
	<path class="st1" d="M35.2,47.17c-0.85-0.52-1.66-0.96-2.22-0.99l0,0c-0.5-0.03-0.88,0.55-1.01,2.4c-0.01,0.1,0,0.17,0.01,0.2
		l0.2,0.02c0.37,0.03,0.88-0.07,1.43-0.24c0.52-0.15,1.06-0.36,1.56-0.58c-0.01-0.06-0.03-0.12-0.03-0.18
		C35.11,47.6,35.13,47.39,35.2,47.17L35.2,47.17z M33.11,44.3c1.02,0.05,2.1,0.64,3.19,1.31c0.36-0.35,0.76-0.68,1.14-0.94
		c-0.01-0.21,0-0.41,0.01-0.63c0.09-1.49,0.61-2.44,1.2-2.88c0.6-0.44,1.27-0.46,1.84-0.1c0.44,0.27,0.79,0.8,0.92,1.52
		c0.11,0.63,0.05,1.48-0.31,2.48c0.14,0.23,0.22,0.47,0.26,0.73c0.61-0.08,1.24-0.13,1.82-0.13c0.89,0,1.73,0.1,2.4,0.36
		c0.03,0.01,0.06,0.02,0.08,0.04c0.8,0.33,1.36,0.87,1.54,1.69c0.12,0.53,0.05,1.15-0.25,1.86c-0.44,1.04-1.21,1.64-2.14,1.87
		c-0.76,0.19-1.61,0.12-2.45-0.17c-0.79-0.27-1.59-0.73-2.3-1.34c-0.12-0.11-0.25-0.22-0.37-0.34c-0.08,0.07-0.16,0.13-0.25,0.19
		c-0.09,0.06-0.18,0.12-0.27,0.17c-0.01,0.37-0.03,0.76-0.06,1.15c-0.23,2.52-1.19,5.19-2.87,5.41c-0.53,0.07-0.97,0.03-1.33-0.11
		c-0.83-0.32-1.15-1.01-1.09-1.92c0.03-0.62,0.26-1.34,0.6-2.09c0.35-0.78,0.82-1.61,1.31-2.39c-0.06-0.05-0.12-0.11-0.18-0.17
		c-0.47,0.19-0.96,0.37-1.43,0.51c-0.75,0.23-1.49,0.36-2.1,0.32c-0.87-0.06-1.53-0.43-1.81-1.26c-0.09-0.28-0.13-0.59-0.11-0.95
		C30.32,45.21,31.49,44.21,33.11,44.3L33.11,44.3L33.11,44.3L33.11,44.3z M43.14,47.55c-0.76,0-1.56,0.09-2.31,0.21
		c-0.04,0.06-0.08,0.13-0.12,0.19c0.18,0.2,0.37,0.39,0.57,0.56c0.54,0.46,1.12,0.8,1.69,1c0.51,0.18,1,0.22,1.4,0.12
		c0.36-0.09,0.66-0.33,0.84-0.75c0.13-0.32,0.17-0.55,0.14-0.71c-0.03-0.15-0.19-0.27-0.43-0.37l-0.06-0.02
		C44.42,47.62,43.81,47.55,43.14,47.55L43.14,47.55z M39.33,44.13l0,0.03l0.11,0.01c0.14-0.49,0.17-0.89,0.12-1.21
		C39.44,43.2,39.36,43.58,39.33,44.13L39.33,44.13z M37.21,51.17c-0.4,0.66-0.79,1.35-1.08,2c-0.25,0.56-0.42,1.06-0.45,1.41
		c0,0.06-0.12,0.06-0.07,0.08c0.07,0.03,0.2,0.03,0.4,0C36.61,54.58,37.03,52.88,37.21,51.17z"/>
</g>
</svg>
