<?xml version="1.0" encoding="utf-8"?>
<!-- Generator: Adobe Illustrator 25.1.0, SVG Export Plug-In . SVG Version: 6.00 Build 0)  -->
<svg version="1.1" id="Calque_1" xmlns="http://www.w3.org/2000/svg" xmlns:xlink="http://www.w3.org/1999/xlink" x="0px" y="0px"
	 viewBox="0 0 109.44 143.53" style="enable-background:new 0 0 109.44 143.53;" xml:space="preserve">
<style type="text/css">
	.st0{fill-rule:evenodd;clip-rule:evenodd;fill:#DAD76D;}
	.st1{fill-rule:evenodd;clip-rule:evenodd;fill:#C0AE45;}
	.st2{fill:#7B6A58;}
	.st3{fill:#FFFFFF;}
	.st4{fill-rule:evenodd;clip-rule:evenodd;fill:#7B6A58;}
</style>
<g>
	<g>
		<g>
			<path class="st0" d="M47.65,15.76c-18.05-9.38-41.99,12.6-44.78,35C1.22,63.92-3.94,86.39,13.14,92.96
				c25.21,9.7,10.77,21.79,29.22,29.96c7.98,3.54,31.44-6.93,42.45-10.13c19.38-5.64,31.92-54.64,17.65-83.97
				C95.63,14.79,90.39,10.94,84.25,6.81C70.63-2.35,60.91-1.26,47.65,15.76z"/>
		</g>
		<g>
			<g>
				<path class="st1" d="M47.65,15.76c-0.99-0.51-2-0.93-3.02-1.26c0.66,0.48,1.28,1.16,1.85,1.98c-0.29,0.38-0.57,0.79-0.81,1.23
					c-1.46,2.68-1.84,6.73,0.05,12.07c0.26,0.72,0.57,1.51,1.06,2.14c0.01,2.02,0.28,4.99,0.83,8.01c-0.02,0.88-0.05,1.73-0.08,2.49
					l-0.04,1.28c-1.2-1.1-3.51-4.59-5.18-7.11c-0.87-1.31-1.56-2.36-1.87-2.69l0,0c-0.06-0.06-0.17-0.07-0.32-0.02
					c-0.28,0.1-0.57,0.38-0.66,0.63c-0.67,1.84-1.07,4.96-1.47,8.12c-0.2,1.59-0.41,3.19-0.65,4.63c-0.18-0.73-0.41-1.59-0.65-2.49
					c-0.74-2.81-1.58-6.05-1.69-6.85l0,0l0,0l-0.2-1.55l0,0c-0.02-0.12-0.14-0.17-0.33-0.12c-0.27,0.09-0.57,0.36-0.68,0.61
					c-0.86,2.04-0.85,3.38-0.85,4.8c0.01,2.45,0.02,5.15-4.72,12.29c-1.54-1.37-2.69-5.11-3.8-8.73c-0.8-2.6-1.57-5.13-2.48-6.72
					l0,0c-0.08-0.14-0.36-0.09-0.64,0.13c-0.28,0.22-0.44,0.52-0.37,0.67l0,0.01l0,0l0.01,0.01c0.14,0.4-0.14,3.2-0.53,6.18
					c-0.34,2.58-0.75,5.27-1.03,6.63c-2.18-1.43-2.3-6.11-2.4-10.12c-0.04-1.74-0.08-3.36-0.29-4.56h0
					c-0.02-0.11-0.13-0.16-0.29-0.12c-0.26,0.07-0.57,0.33-0.7,0.59c-0.35,0.72-0.66,1.38-1.02,2.16
					c-2.06,4.37-5.62,11.95-7.78,14.81c-1.44-0.84-2.26-3.76-2.74-7c-0.11-0.75-0.21-1.52-0.28-2.28c-0.29,1.08-0.53,2.16-0.72,3.26
					c0.54,3.46,1.5,6.53,3.22,7.12c0.17,0.06,0.5-0.1,0.73-0.36h0c2.3-2.59,6.28-11.05,8.52-15.8l0.17-0.37
					c0.07,0.94,0.1,2.04,0.13,3.19c0.11,4.48,0.25,9.79,3.27,10.74c0.18,0.05,0.51-0.11,0.74-0.37c0.09-0.11,0.15-0.22,0.18-0.31
					c0.31-0.84,0.91-4.42,1.34-7.75c0.17-1.28,0.31-2.53,0.41-3.59c0.52,1.36,1.01,2.97,1.51,4.61c1.21,3.95,2.46,8.04,4.29,9.17
					c0.15,0.09,0.47-0.04,0.72-0.3c0.06-0.06,0.12-0.13,0.16-0.19C34,46.64,34,43.7,33.99,41.05c0-0.62,0-1.22,0.07-1.87
					c0.27,1.27,0.97,3.95,1.6,6.33c0.61,2.33,1.14,4.37,1.13,4.42c-0.05,0.23,0.13,0.32,0.42,0.19c0.28-0.13,0.55-0.41,0.61-0.65
					l0,0c0.52-1.96,0.87-4.68,1.21-7.38c0.31-2.4,0.61-4.78,1.02-6.54c0.34,0.49,0.77,1.14,1.26,1.88c2.13,3.22,5.28,7.99,6.53,7.5
					c0.28-0.11,0.57-0.4,0.65-0.64c0.01-0.04,0.02-0.08,0.02-0.11h0l0-0.21c0.21,0.78,0.45,1.53,0.7,2.24
					c1.23,3.42,2.95,5.86,5.22,5.45c0.25-0.05,0.57-0.3,0.72-0.56c0.05-0.1,0.08-0.18,0.07-0.25c0.09-2.34-0.75-5.42-1.58-8.47
					c-0.76-2.81-1.52-5.59-1.53-7.69c0.92,1.59,1.9,6.55,2.78,11.05c0.64,3.24,1.23,6.24,1.76,7.59c0.06,0.16,0.35,0.12,0.63-0.1
					c0.14-0.11,0.26-0.24,0.33-0.36l0.01-0.02l0.01-0.01c1.21-2.17,1.33-7.66,1.43-12.81c0.07-3.39,0.13-6.64,0.48-8.56
					c0.38,1.3,0.72,3.99,1.08,6.91c0.67,5.35,1.43,11.48,3.04,11.72c0.18,0.03,0.47-0.12,0.68-0.35l0.05-0.05l0.03-0.04
					c0.6-0.65,1.34-1.77,2.1-3.16c-0.13-0.27-0.25-0.55-0.37-0.82c-0.72,1.4-1.42,2.58-2,3.33c-1.19-0.9-1.88-6.44-2.49-11.32
					c-0.51-4.08-0.96-7.71-1.73-7.98l-0.03-0.01c-0.04-0.01-0.08-0.01-0.13,0c-0.25,0.05-0.57,0.3-0.72,0.56
					c-0.85,1.54-0.94,5.83-1.03,10.37c-0.08,3.98-0.17,8.17-0.72,10.7c-0.42-1.55-0.87-3.86-1.36-6.32
					c-1.11-5.64-2.36-12.01-3.94-11.8c-0.07,0.01-0.14,0.03-0.22,0.07c-0.29,0.14-0.55,0.44-0.6,0.67c-0.44,2.27,0.5,5.69,1.43,9.14
					c0.73,2.7,1.47,5.43,1.56,7.59c-1.61-0.3-2.92-2.43-3.93-5.25c-0.67-1.86-1.2-4.02-1.59-6.16c0.05-2.1,0.07-4.38-0.09-6.15
					c0.13,0.03,0.27,0.06,0.42,0.07c0.21,0.02,0.54-0.18,0.74-0.45l0.03-0.04h0c0.14-0.2,0.27-0.43,0.39-0.68
					c1.24-2.56,0.93-7.4-0.41-11.57c-0.52-1.64-1.21-3.17-2.02-4.44c0.6-0.58,1.28-1.01,2-1.27c1.39-0.49,2.92-0.45,4.3,0.14
					c0.43,0.19,0.85,0.42,1.24,0.71c-1.66,2.77-2.19,5.88-1.97,8.56c0.26,3.26,1.65,5.91,3.46,6.48c0.18,0.06,0.51-0.11,0.74-0.37
					c0.08-0.09,0.14-0.18,0.17-0.27l0,0c2.59-6.65,1.92-11.27-0.07-13.91c0.23,0.13,0.47,0.29,0.72,0.47l-0.45-1.65
					c-0.6-0.26-1.17-0.35-1.67-0.22c-0.41-0.3-0.84-0.54-1.29-0.73c-1.52-0.65-3.24-0.68-4.83-0.11c-0.5,0.18-0.99,0.42-1.46,0.71
					C48.28,14.96,47.97,15.35,47.65,15.76L47.65,15.76z M41.9,13.83c-1.98,2.41-3.27,4.48-4.04,6.29c1.76,4.43,2.84,9.96,2.58,12.17
					c0,0.15-0.13,0.38-0.35,0.56c-0.27,0.23-0.57,0.31-0.67,0.18l-0.37-0.51l0,0c-2.3-3.17-4.58-6.33-2.31-11.84l-0.12-0.3
					c-1.26-3-2.82-5.4-4.44-5.68c-2.07,2.54-3.06,5.78-3.17,8.62c0.79,1.46,1.46,2.86,1.76,3.59l1.2,2.93c0.06,0.1,0,0.29-0.16,0.49
					c-0.22,0.26-0.55,0.44-0.74,0.39c-0.09-0.02-0.18-0.05-0.26-0.08c-1.86-0.64-2.89-3.23-2.85-6.37l0-0.24
					c-0.43-0.79-0.91-1.6-1.38-2.32c-0.64-0.98-1.27-1.79-1.79-2.17c-0.47,1.22-0.98,3.28-1.43,5.53c-0.83,4.06-1.47,8.65-1.48,9.93
					c0,0.21-0.24,0.51-0.53,0.68c-0.12,0.07-0.24,0.11-0.33,0.11h0c-2.61,0-2.8-3.72-3-7.69c-0.09-1.73-0.18-3.52-0.47-5.03
					c0.33-0.31,0.67-0.61,1-0.91c0.33,1.59,0.42,3.47,0.52,5.29c0.17,3.3,0.32,6.41,1.83,7.18c0.18-1.95,0.74-5.69,1.43-9.07
					c0.6-2.92,1.3-5.59,1.96-6.68l0,0c0.02-0.04,0.05-0.08,0.08-0.12c0.21-0.26,0.55-0.45,0.74-0.42c0.69,0.12,1.59,1.18,2.48,2.53
					c0.21,0.31,0.41,0.64,0.61,0.98c0.43-2.45,1.47-5.02,3.21-7.21c0.79-0.24,1.58-0.45,2.37-0.62c1.37,0.76,2.63,2.72,3.68,5.12
					c0.84-1.61,2.05-3.41,3.72-5.44C41.42,13.75,41.66,13.79,41.9,13.83L41.9,13.83z M37.97,13.54c-0.75,0.23-1.4,0.27-1.97,0.14
					C36.66,13.61,37.31,13.56,37.97,13.54L37.97,13.54z M17.12,23.5c-0.22,1.76-0.37,3.86-0.38,5.72c0,0.48,0,0.95,0.02,1.38
					c0.1,0.53,0.23,1.06,0.4,1.59l0.56,1.74c0.04,0.09,0.01,0.24-0.11,0.4c-0.19,0.27-0.52,0.49-0.74,0.49
					c-0.72,0-1.06-1.48-1.16-3.51c-0.17-0.87-0.26-1.72-0.36-2.56c-0.11-1.02-0.23-2.01-0.46-2.98c0.31-0.34,0.64-0.69,0.96-1.02
					c0.03,0.12,0.07,0.25,0.09,0.37c0.02-0.18,0.04-0.35,0.06-0.53C16.38,24.23,16.74,23.86,17.12,23.5L17.12,23.5z M12.54,28.56
					c0.05,0.62,0.09,1.22,0.13,1.77l0.07,1.04c0.1,0.45,0.16,0.97,0.15,1.6c0,0.21-0.24,0.51-0.53,0.68
					c-0.27,0.16-0.5,0.14-0.52-0.03h0c-0.04-0.34-0.09-0.88-0.14-1.53c-0.13-0.61-0.34-1.09-0.54-1.56l-0.03-0.08
					C11.59,29.8,12.05,29.17,12.54,28.56L12.54,28.56z M10.54,31.29c0.02,0.45,0.03,0.87,0.02,1.27h0c0,0.12-0.09,0.3-0.25,0.46
					c-0.25,0.25-0.57,0.39-0.72,0.3c-0.08-0.05-0.16-0.11-0.25-0.19C9.72,32.51,10.13,31.89,10.54,31.29L10.54,31.29z M1.61,67.33
					l1.03-0.01c0.04-2.7,0.49-5.6,1.8-8.43c1.89,0.08,1.98,3.97,1.96,8.42l1.04-0.01c0.03-5.26,0.02-10-2.97-9.31
					c-0.26,0.06-0.58,0.32-0.71,0.58l-0.01,0.02C2.28,61.54,1.72,64.54,1.61,67.33L1.61,67.33z M9.43,67.29l0.97-0.01l0.01-0.05
					c0.42-3.42,1.2-6.72,2.5-8.69c3.53-0.11,4.17,3.95,4.22,8.71l1.05-0.01c0-5.38-0.62-10.11-5.05-9.65
					c-0.21,0.02-0.49,0.21-0.66,0.43l0,0C10.86,60.09,9.92,63.63,9.43,67.29L9.43,67.29z M21.22,67.22l0.99-0.01
					c0.18-1.9,0.54-4.01,1.19-6.38c0.15,1.42,0.19,3.07,0.24,4.78c0.01,0.53,0.03,1.06,0.05,1.59l1.07-0.01
					c-0.03-0.74-0.05-1.49-0.07-2.23c-0.07-2.52-0.13-4.93-0.54-6.69c-0.04-0.18-0.31-0.16-0.59,0.04
					c-0.21,0.15-0.37,0.35-0.43,0.52C22.05,62.02,21.49,64.79,21.22,67.22L21.22,67.22z M28.6,67.18c0.45-4.56,1.67-9.45,4.87-12.6
					l0.02-0.02l0.01-0.01c0.07-0.06,0.14-0.13,0.22-0.18c0.29-0.18,0.54-0.17,0.55,0.02c0.38,4.43,0.4,7.54,0.41,10.24
					c0,0.87,0.01,1.7,0.03,2.51l-1.06,0.01c-0.01-0.61-0.01-1.24-0.01-1.9c-0.01-2.55-0.03-5.49-0.35-9.56
					c-2.43,2.95-3.36,7.35-3.69,11.48L28.6,67.18L28.6,67.18z M37.92,67.13l0.96-0.01c0.42-2.7,1.05-5.35,2.06-7.46
					c0.88,0.93,1.29,3.93,1.73,7.44l1.13-0.01l-0.02-0.16c-0.54-4.37-1.01-8.11-2.45-8.5c-0.18-0.05-0.51,0.13-0.74,0.39
					c-0.05,0.06-0.08,0.11-0.11,0.16h0C39.18,61.23,38.42,64.14,37.92,67.13L37.92,67.13z M45.74,67.09l0.99-0.01
					c0.19-1.98,0.66-4.27,1.66-7.16c0.18,0.6,0.46,1.8,1.09,3.22c0.51,1.15,1.11,2.49,1.76,3.91l1.37-0.01
					c-0.78-1.71-1.51-3.34-2.11-4.69c-1.03-2.32-1.73-3.88-2.15-3.68c-0.26,0.12-0.51,0.38-0.6,0.6
					C46.58,62.45,45.99,64.95,45.74,67.09L45.74,67.09z M56.51,67.03c-0.23-3.99,0.58-8.25,3.73-12.34c0.07-0.1,0.16-0.19,0.27-0.28
					c0.28-0.22,0.57-0.26,0.63-0.1c0.39,0.93,0.96,2.57,1.65,4.56c0.83,2.4,1.85,5.33,2.93,8.11l-1.31,0.01
					c-0.98-2.56-1.89-5.17-2.65-7.36c-0.57-1.64-1.05-3.03-1.42-3.98c-2.53,3.73-3.07,7.67-2.75,11.38L56.51,67.03L56.51,67.03z
					 M68.71,66.96l1.12-0.01c-0.56-4.09-0.58-8.48,1.31-11.76c0.16,0.58,0.32,1.16,0.5,1.72c1.22,3.98,2.87,7.51,4.98,10l1.46-0.01
					c-0.08-0.18-0.16-0.37-0.24-0.55c-1.97-2.2-3.54-5.33-4.75-8.89c-0.78-1.3-1.57-2.57-2.32-3.78l0.16,0.63
					C68.39,57.86,68.19,62.57,68.71,66.96L68.71,66.96z M55.81,16.08c2.39,2.21,3.57,6.65,1.19,13.36c-1.4-0.87-2.44-3.16-2.67-5.93
					C54.14,21.16,54.54,18.48,55.81,16.08L55.81,16.08z M46.86,17.07c0.73,1.2,1.35,2.63,1.84,4.15c1.28,3.99,1.63,8.52,0.56,10.93
					c-0.34-0.09-0.63-0.25-0.89-0.44c-0.13-0.69-0.32-1.22-0.57-1.5c-0.09-0.1-0.31-0.06-0.53,0.09c-0.21-0.42-0.38-0.85-0.53-1.27
					c-1.83-5.18-1.51-9.01-0.16-11.48C46.67,17.38,46.76,17.22,46.86,17.07L46.86,17.07z M37.23,21.93c1.1,3.05,1.88,6.42,2.12,8.79
					C37.65,28.29,36.22,25.72,37.23,21.93L37.23,21.93z M29.46,26.99c0.12,0.27,0.23,0.51,0.31,0.7l0.18,0.44
					C29.75,27.79,29.59,27.41,29.46,26.99z"/>
			</g>
			<g>
				<path class="st1" d="M107.89,47.74c-0.47-3.52-1.17-6.96-2.13-10.27c-0.2-0.47-0.41-0.9-0.62-1.28l0,0.01
					c-0.08-0.14-0.36-0.09-0.64,0.13c-0.28,0.22-0.45,0.52-0.37,0.67l0,0.01l0,0l0,0.01c0.15,0.4-0.14,3.2-0.53,6.18
					c-0.34,2.59-0.75,5.27-1.03,6.63c-2.18-1.43-2.3-6.11-2.41-10.12c-0.04-1.74-0.08-3.36-0.29-4.56l0,0
					c-0.02-0.11-0.12-0.16-0.29-0.12c-0.26,0.07-0.57,0.33-0.7,0.59c-0.35,0.72-0.66,1.38-1.02,2.16
					c-2.06,4.38-5.62,11.95-7.78,14.82c-1.43-0.84-2.26-3.76-2.74-7c-0.52-3.47-0.63-7.29-0.68-9.37l0-0.09
					c-0.01-0.2-0.25-0.22-0.54-0.04c-0.29,0.18-0.51,0.49-0.51,0.68c0.04,0.76-0.73,4.43-1.65,8.35c-0.77,3.27-1.65,6.71-2.26,8.8
					c-0.97-2.26-0.96-5.49-0.96-8.61c0.01-2.99,0.01-5.87-0.83-7.75c-0.02-0.06-0.04-0.11-0.07-0.15c-0.11-0.12-0.42-0.03-0.68,0.2
					c-0.25,0.22-0.38,0.5-0.3,0.63c0.03,0.07,0.07,0.15,0.1,0.23c0.23,1.07-0.5,5.52-1.77,9.56c-0.44,1.39-0.93,2.73-1.48,3.85
					c-0.51,1.04-1.03,1.86-1.54,2.32c-0.03,0.03-0.06,0.05-0.09,0.07c-0.27-1.09-0.82-2.27-1.41-3.59
					c-0.62-1.37-1.31-2.88-1.82-4.55l0.05-0.79c0.31-4.87,0.31-9.4,0.22-9.48l-0.01-0.01l0,0h0c-0.14-0.1-0.45,0.02-0.71,0.27
					c-0.12,0.11-0.2,0.24-0.25,0.35h0c-1.55,3.99-1.24,7.4-0.36,10.34c-0.29,4.15-0.79,8.37-1.57,9.98
					c-1.89-0.57-2.97-3.08-3.41-6.22c-0.11-0.79-0.19-1.63-0.22-2.48c1.31-4.44,1.91-8.42,1.41-10.44c-0.04-0.17-0.31-0.15-0.6,0.05
					c-0.2,0.14-0.35,0.33-0.42,0.49c-1.01,2.72-1.58,6.74-1.45,10.43c-0.27,0.93-0.58,1.88-0.92,2.83c-1.08,3.1-2.46,6.25-3.98,8.94
					l0.05,1.27c1.92-3.08,3.63-6.88,4.93-10.58l0.09-0.25l0.06,0.42c0.49,3.48,1.77,6.22,4.08,6.58c0.17,0.02,0.43-0.11,0.63-0.31
					c0.13-0.12,0.25-0.26,0.35-0.41c0.85-1.21,1.4-4.46,1.76-8.06c0.34,0.84,0.71,1.64,1.05,2.4c0.64,1.42,1.22,2.68,1.45,3.79
					c0.03,0.14,0.18,0.16,0.38,0.08v0c0.37-0.15,0.73-0.39,1.07-0.69c0.78-0.68,1.48-1.74,2.09-3.01c0.58-1.18,1.1-2.57,1.55-4.02
					c0.62-1.98,1.1-4.06,1.42-5.83c0.09,1.28,0.09,2.7,0.09,4.14c-0.01,3.64-0.02,7.44,1.51,9.76c0.09,0.14,0.39,0.07,0.66-0.16
					c0.17-0.14,0.29-0.31,0.34-0.45c0.56-1.49,1.77-6.12,2.78-10.44c0.29-1.22,0.56-2.42,0.8-3.52c0.1,1.64,0.26,3.44,0.51,5.15
					c0.53,3.58,1.5,6.79,3.27,7.4c0.17,0.06,0.5-0.1,0.74-0.36l0,0c2.3-2.59,6.28-11.05,8.52-15.8L99,37.15
					c0.07,0.94,0.1,2.04,0.13,3.19c0.12,4.48,0.25,9.79,3.27,10.74c0.18,0.06,0.51-0.11,0.74-0.37c0.09-0.11,0.15-0.21,0.18-0.31
					c0.31-0.84,0.9-4.41,1.34-7.75c0.17-1.28,0.31-2.53,0.41-3.59c0.52,1.36,1.01,2.97,1.51,4.6
					C107,45.05,107.43,46.45,107.89,47.74L107.89,47.74z M104.42,33.44c-0.15-0.4-0.3-0.79-0.46-1.18c-0.78-0.5-1.16-1.67-1.38-3.16
					c-0.04-0.08-0.08-0.17-0.12-0.26c-0.41-0.84-0.81-1.64-1.21-2.41c0.19,3.72,0.49,7.06,2.97,7.06l0,0
					C104.28,33.48,104.35,33.47,104.42,33.44L104.42,33.44z M100.03,24.14c-0.06,0.93-0.09,1.87-0.1,2.76c0,0.48,0,0.94,0.02,1.38
					c0.1,0.53,0.23,1.06,0.4,1.59l0.56,1.74c0.04,0.09,0.01,0.23-0.11,0.4c-0.18,0.27-0.52,0.48-0.74,0.48
					c-0.72,0-1.07-1.48-1.16-3.51c-0.17-0.87-0.26-1.72-0.36-2.56c-0.27-2.42-0.53-4.72-2.49-6.79l-0.63,1.22
					c-0.07,0.23-0.13,0.44-0.19,0.65c0.31,2.27,0.48,4.65,0.61,6.48l0.07,1.04c0.1,0.45,0.15,0.97,0.15,1.6
					c0,0.21-0.24,0.51-0.53,0.68c-0.27,0.16-0.49,0.14-0.52-0.03h0c-0.04-0.35-0.09-0.88-0.14-1.53c-0.13-0.61-0.33-1.09-0.54-1.56
					c-0.56-1.31-1.1-2.57-0.15-6.14c-0.5-3.72-1.35-7.07-2.96-7.02c-0.42,0.69-0.69,1.52-0.83,2.44c0.67,1.05,1.25,2.34,1.74,3.74
					c1.07,3.05,1.67,6.59,1.6,9.03l0,0c0,0.12-0.09,0.3-0.25,0.46c-0.25,0.25-0.57,0.39-0.72,0.3c-1.15-0.68-2.86-4.58-3.39-8.58
					c-0.19-1.43-0.23-2.88-0.03-4.22c-0.4-0.61-0.82-1.12-1.26-1.52c-2.26,4.88-0.09,9.62,0.72,11.38c0.24,0.51,0.38,0.82,0.17,1.12
					c-0.18,0.27-0.52,0.49-0.74,0.49c-0.08,0-0.13-0.03-0.16-0.07c-0.31-0.38-0.86-1.3-1.54-2.47c-1.98-3.38-5.2-8.87-7.26-8.92
					c-1.78,2.9-1.61,6.31-1.46,9.24c0.06,1.27,0.12,2.46,0.02,3.51c-0.02,0.22-0.28,0.52-0.56,0.67c-0.17,0.09-0.32,0.11-0.4,0.07
					l0,0c-1.95-1.01-2.39-3.22-2.89-5.67c-0.35-1.76-0.73-3.65-1.73-5.29c-0.44,1.38-0.75,2.51-0.95,3.46
					c0.48,1.91,0.87,4.03,1.19,5.81l0.16,0.9c0.24,0.57,0.43,1.29,0.48,2.31c0.01,0.2-0.22,0.51-0.51,0.69
					c-0.28,0.17-0.51,0.16-0.54-0.01c-0.14-0.52-0.29-1.3-0.46-2.24c-0.21-0.48-0.46-0.85-0.7-1.2c-0.76-1.1-1.43-2.08-0.67-5.68
					c-0.57-2.32-1.26-4.25-2.07-4.63c-2.87,6.17-1.52,10.99-0.7,13.91c0.36,1.29,0.63,2.23,0.38,2.87c-0.1,0.25-0.4,0.53-0.67,0.63
					c-0.19,0.07-0.32,0.03-0.35-0.09l-0.18-0.52c-0.96-2.85-4.22-12.51-5.76-13.59c-1.75,2.53-2.84,5.64-3.45,8.82l-0.12-3.06
					c0.74-2.29,1.78-4.47,3.2-6.35c0.17-0.25,0.48-0.45,0.7-0.47c1.03-0.1,2.77,3.79,4.22,7.59c-0.24-2.78,0.1-6.19,2.1-10.16h0
					l0.01-0.02c0.14-0.26,0.46-0.52,0.71-0.57c1.05-0.2,1.88,1.28,2.54,3.37c0.24-0.82,0.53-1.73,0.88-2.76
					c0.04-0.14,0.16-0.3,0.32-0.45c0.27-0.23,0.57-0.32,0.68-0.19c1.45,1.86,1.9,4.12,2.32,6.2c0.38,1.91,0.74,3.67,1.82,4.78
					c-0.01-0.63-0.04-1.3-0.07-2c-0.16-3.2-0.35-6.96,1.98-10.31h0c0.14-0.21,0.39-0.4,0.6-0.46c2.04-0.61,4.79,3.34,6.9,6.81
					c-0.4-2.36-0.28-5.24,1.41-8.18l0,0c0.05-0.08,0.11-0.16,0.19-0.24c0.25-0.25,0.57-0.38,0.71-0.29
					c0.42,0.28,0.82,0.66,1.19,1.12c0.24-0.72,0.57-1.38,1.01-1.95h0c0.14-0.19,0.37-0.37,0.58-0.43c2-0.59,3.07,2.33,3.7,5.91
					l0.62-1.19l0,0c0.05-0.1,0.13-0.2,0.24-0.3c0.18-0.16,0.38-0.27,0.53-0.28c0.86,1.23,1.74,2.59,2.64,4.13
					c0.03,0.13,0.07,0.26,0.1,0.38l0.02-0.18C99.45,23.11,99.74,23.62,100.03,24.14L100.03,24.14z M93.02,14.02
					c-0.74-0.81-1.46-1.53-2.19-2.2C91.26,13.13,91.96,13.96,93.02,14.02L93.02,14.02z M84.27,6.83l-0.02-0.02
					c-0.17-0.11-0.34-0.23-0.51-0.34c-0.11,0.17-0.23,0.33-0.34,0.47C82.4,6.67,81.82,6,81.5,5.08c-0.45-0.26-0.89-0.51-1.33-0.75
					c0.16,1.89,0.87,3.31,2.75,3.65c0.18,0.03,0.48-0.13,0.69-0.36C83.84,7.39,84.06,7.12,84.27,6.83L84.27,6.83z M76.29,2.51
					c-0.24-0.09-0.48-0.18-0.72-0.26L75.24,3c-1.45,3.31-2.97,6.78-4.69,9.38c-0.74-0.51-1.22-2.58-1.53-5.21
					c-0.22-1.87-0.35-4-0.43-6.06c-0.34,0.02-0.68,0.04-1.02,0.08c0.05,2.26,0.16,4.63,0.4,6.66c0.37,3.16,1.04,5.56,2.21,5.62
					c0.21,0.01,0.55-0.2,0.74-0.47l0.02-0.03c2-2.81,3.67-6.63,5.26-10.26L76.29,2.51L76.29,2.51z M64.54,1.8
					c-0.33,0.1-0.66,0.21-0.98,0.33c-0.15,0.47-0.29,0.94-0.44,1.41c-1.43,4.65-2.86,9.32-5.26,11.94c-0.4,0.11-0.76,0.15-1.1,0.13
					l0.04,0.93c0.29-0.04,0.6-0.11,0.92-0.22c0.16-0.05,0.32-0.17,0.46-0.3c2.89-2.95,4.42-7.93,5.95-12.9L64.54,1.8L64.54,1.8z
					 M58.91,67.02l-0.21-5.15c0.12,0.8,0.23,1.7,0.34,2.65c0.13-2.08,0.71-4.07,2.1-5.83h0c0.04-0.04,0.07-0.09,0.12-0.13
					c0.26-0.25,0.57-0.36,0.7-0.26c1.44,1.16,2.02,4.78,2.51,8.69l-1.13,0.01c-0.43-3.25-0.94-6.2-2-7.47
					c-1.34,2.16-1.47,4.79-1.18,7.49L58.91,67.02L58.91,67.02z M68.04,66.97c-0.1-3.88,0.21-7.6,2.19-9.87
					c0.02-0.02,0.03-0.04,0.06-0.07c0.24-0.26,0.57-0.41,0.73-0.34c0.72,0.32,0.99,3.14,1.15,6.56c0.63-1.88,1.6-3.62,3-5v0
					c0.15-0.15,0.34-0.27,0.5-0.3c2.25-0.48,3.11,1.88,3.41,5.16c0.66-2.26,1.64-4.35,3.08-5.97c0.08-0.09,0.16-0.17,0.23-0.26l0,0
					c0.03-0.04,0.07-0.07,0.11-0.11c0.27-0.23,0.57-0.31,0.67-0.17c1.79,2.51,1.11,5.49,0.42,8.54c-0.13,0.57-0.26,1.15-0.38,1.73
					l-0.93,0c0.09-0.42,0.19-0.84,0.28-1.26c0.64-2.78,1.26-5.52-0.14-7.82c-1.83,2.34-2.77,5.75-3.18,9.1l-1.05,0.01
					c-0.06-4.39-0.52-8.25-2.77-8.04c-1.79,1.93-2.69,4.76-3.05,7.65c-0.02,0.14-0.03,0.28-0.05,0.42l-1.09,0.01
					c-0.13-3.99-0.28-7.88-0.82-9.01c-1.29,2.1-1.43,5.49-1.3,9.02L68.04,66.97L68.04,66.97z M84.8,66.87
					c-0.1-3.29,0.33-7,2.16-10.61l0.01-0.02c0.13-0.26,0.45-0.52,0.71-0.58c3.03-0.7,3,4.18,2.97,9.53c0,0.55-0.01,1.1-0.01,1.65
					l-1.05,0.01l0-1.04c0.03-4.78,0.05-9.17-1.95-9.24c-1.63,3.49-1.93,7.11-1.77,10.3L84.8,66.87L84.8,66.87z M92.42,66.83
					c0.04-0.46,0.09-0.92,0.15-1.38c0.47-3.83,1.42-7.59,3.1-9.75h0c0.17-0.23,0.45-0.41,0.66-0.43c4.94-0.52,5.13,5.42,5.03,11.52
					l-1.04,0c0.07-5.51-0.22-10.7-4.22-10.58c-1.3,1.97-2.08,5.27-2.5,8.69c-0.08,0.64-0.14,1.29-0.2,1.93L92.42,66.83L92.42,66.83z
					 M104.26,66.77c0.17-2.86,0.7-6.22,2.07-10.26c0.06-0.17,0.22-0.37,0.43-0.52c0.28-0.2,0.55-0.22,0.59-0.04
					c0.4,1.77,0.47,4.17,0.54,6.69c0.04,1.36,0.07,2.75,0.17,4.1l-1.09,0.01c-0.07-1.15-0.1-2.32-0.13-3.47
					c-0.05-1.71-0.09-3.36-0.24-4.78c-0.87,3.17-1.22,5.88-1.32,8.25L104.26,66.77L104.26,66.77z M58.17,49.31l-0.08-1.82
					c0.16,0.42,0.32,0.79,0.5,1.1c0.08,0.15-0.08,0.45-0.35,0.67C58.22,49.27,58.19,49.29,58.17,49.31L58.17,49.31z M90.28,19.86
					c0.02,0.61,0.07,1.24,0.15,1.86c0.37,2.78,1.3,5.49,2.2,7.06c-0.19-2.11-0.72-4.6-1.5-6.83C90.87,21.22,90.59,20.52,90.28,19.86
					L90.28,19.86z M64.7,43.88c0.09-0.91,0.21-1.81,0.37-2.66C65.01,42.03,64.88,42.92,64.7,43.88z"/>
			</g>
			<g>
				<path class="st1" d="M1.13,75.86c0.04,0.35,0.09,0.69,0.14,1.03c1.88-2.76,3.47-6.4,4.99-9.87c0.71-1.61,1.39-3.19,2.08-4.59
					l-0.82-0.01c-0.75,1.51-1.48,3.18-2.23,4.89C4,70.28,2.64,73.37,1.13,75.86L1.13,75.86z M6.74,88.89
					c0.08-2.26,0.54-4.61,2.05-6.79h0c0.14-0.21,0.39-0.4,0.61-0.46c2.04-0.61,4.79,3.35,6.9,6.81c-0.4-2.36-0.28-5.24,1.41-8.19h0
					c0.04-0.08,0.11-0.16,0.18-0.24c0.25-0.25,0.57-0.38,0.71-0.29c0.42,0.27,0.82,0.65,1.2,1.11c0.24-0.72,0.57-1.37,1.01-1.95h0
					c0.14-0.19,0.37-0.37,0.58-0.43c2-0.59,3.07,2.33,3.7,5.91l0.62-1.19l0,0c0.05-0.1,0.13-0.21,0.24-0.31
					c0.26-0.24,0.57-0.35,0.7-0.24c1.51,1.4,2.2,2.9,2.57,4.47c0.2-1.97,0.5-3.71,0.82-4.59c0.05-0.15,0.18-0.33,0.36-0.48
					c0.28-0.23,0.57-0.28,0.65-0.14c1,1.82,1.14,4.75,1.28,7.55c0.17,3.29,0.32,6.41,1.83,7.18c0.18-1.95,0.74-5.69,1.43-9.07
					c0.6-2.92,1.3-5.59,1.95-6.68l0,0c0.02-0.04,0.05-0.08,0.08-0.11c0.21-0.26,0.54-0.45,0.74-0.42c0.69,0.12,1.59,1.18,2.48,2.53
					c0.21,0.31,0.41,0.64,0.61,0.98c0.45-2.54,1.55-5.24,3.43-7.48l0,0c0.08-0.1,0.16-0.2,0.25-0.29c0.19-0.23,0.48-0.4,0.68-0.4
					c1.84,0,3.55,2.37,4.91,5.46c0.91-1.73,2.23-3.68,4.09-5.9l0,0c0.15-0.18,0.37-0.34,0.57-0.39c0.34-0.09,0.67-0.13,0.98-0.13
					c1.61,0,3.06,1.09,4.26,2.77c0.81-0.75,1.72-1.3,2.69-1.65c1.59-0.57,3.32-0.54,4.83,0.11c0.45,0.19,0.88,0.44,1.29,0.74
					c0.5-0.13,1.07-0.04,1.67,0.22l0.46,1.65c-0.25-0.18-0.49-0.34-0.72-0.47c2,2.64,2.67,7.26,0.07,13.91l0,0
					c-0.03,0.08-0.09,0.17-0.17,0.27c-0.23,0.26-0.56,0.43-0.74,0.38c-1.81-0.57-3.19-3.22-3.46-6.48
					c-0.22-2.67,0.32-5.79,1.98-8.56c-0.39-0.29-0.81-0.52-1.24-0.71c-1.39-0.59-2.92-0.64-4.31-0.14c-0.72,0.26-1.41,0.68-2,1.26
					c0.81,1.27,1.49,2.8,2.02,4.44c1.34,4.17,1.65,9.01,0.41,11.57c-0.12,0.24-0.25,0.47-0.39,0.68l0,0l-0.03,0.04
					c-0.2,0.27-0.54,0.47-0.74,0.45c-0.14-0.01-0.28-0.04-0.42-0.07c0.16,1.77,0.14,4.05,0.09,6.15c0.39,2.14,0.92,4.29,1.59,6.16
					c1.01,2.82,2.32,4.95,3.93,5.25c-0.09-2.16-0.83-4.89-1.56-7.59c-0.94-3.46-1.87-6.88-1.43-9.14c0.04-0.23,0.31-0.53,0.6-0.67
					c0.08-0.04,0.16-0.06,0.22-0.07c1.59-0.21,2.84,6.16,3.94,11.8c0.48,2.45,0.94,4.76,1.36,6.31c0.55-2.53,0.64-6.72,0.72-10.7
					c0.09-4.55,0.18-8.84,1.03-10.38c0.15-0.26,0.47-0.51,0.72-0.56c0.05-0.01,0.1-0.01,0.13,0l0.03,0.01
					c0.77,0.27,1.23,3.91,1.74,7.99c0.61,4.88,1.3,10.42,2.49,11.32c0.58-0.75,1.29-1.93,2-3.33c0.12,0.27,0.24,0.54,0.37,0.82
					c-0.76,1.39-1.51,2.51-2.1,3.16l-0.04,0.04l-0.05,0.05c-0.21,0.23-0.5,0.38-0.68,0.35c-1.61-0.25-2.37-6.37-3.04-11.73
					c-0.37-2.92-0.7-5.61-1.08-6.91c-0.34,1.92-0.41,5.16-0.48,8.55c-0.1,5.15-0.22,10.63-1.43,12.81l-0.01,0.01l-0.01,0.02
					c-0.07,0.12-0.19,0.26-0.33,0.36c-0.28,0.21-0.56,0.26-0.63,0.1c-0.54-1.35-1.12-4.35-1.76-7.59
					c-0.88-4.49-1.86-9.46-2.78-11.05c0.01,2.09,0.77,4.88,1.53,7.68c0.83,3.05,1.66,6.14,1.58,8.47c0.01,0.07-0.02,0.15-0.07,0.25
					c-0.15,0.27-0.47,0.52-0.72,0.56c-2.27,0.41-3.99-2.03-5.22-5.44c-0.25-0.71-0.49-1.47-0.7-2.24l0,0.21l0,0
					c0,0.03-0.01,0.07-0.02,0.11c-0.08,0.24-0.37,0.53-0.65,0.64c-1.24,0.49-4.4-4.28-6.53-7.5c-0.49-0.74-0.92-1.4-1.26-1.88
					c-0.41,1.76-0.71,4.14-1.02,6.54c-0.34,2.7-0.69,5.43-1.21,7.38h0c-0.06,0.23-0.33,0.52-0.61,0.64
					c-0.29,0.13-0.47,0.05-0.42-0.19c0.01-0.05-0.52-2.09-1.13-4.42c-0.62-2.38-1.32-5.06-1.6-6.33c-0.07,0.65-0.07,1.25-0.07,1.87
					c0.01,2.65,0.02,5.59-5.44,13.61c-0.04,0.07-0.1,0.13-0.16,0.2c-0.25,0.25-0.57,0.39-0.72,0.3c-1.83-1.12-3.08-5.22-4.29-9.17
					c-0.5-1.64-0.99-3.25-1.51-4.6c-0.1,1.06-0.25,2.31-0.41,3.59c-0.44,3.34-1.03,6.91-1.34,7.75c-0.03,0.09-0.09,0.2-0.18,0.3
					c-0.07,0.08-0.14,0.14-0.22,0.2c-0.26-0.46-0.5-0.92-0.71-1.38c0.12,0.11,0.25,0.22,0.38,0.3c0.28-1.36,0.69-4.05,1.03-6.63
					c0.39-2.98,0.67-5.78,0.53-6.18l0-0.01l0,0l0-0.01c-0.07-0.15,0.09-0.45,0.37-0.67c0.27-0.21,0.55-0.27,0.63-0.13h0
					c0.9,1.59,1.68,4.12,2.47,6.72c1.11,3.62,2.25,7.36,3.8,8.73c4.74-7.13,4.73-9.84,4.72-12.29c0-1.42-0.01-2.76,0.85-4.8
					c0.11-0.25,0.41-0.53,0.68-0.61c0.19-0.06,0.31-0.01,0.33,0.12v0l0.21,1.55v0l0,0c0.11,0.81,0.95,4.04,1.69,6.85
					c0.24,0.9,0.46,1.76,0.65,2.49c0.24-1.44,0.44-3.04,0.65-4.63c0.4-3.16,0.8-6.28,1.47-8.12c0.09-0.25,0.39-0.53,0.66-0.63
					c0.15-0.05,0.26-0.04,0.32,0.02l0,0c0.31,0.33,1,1.38,1.87,2.7c1.67,2.51,3.98,6.01,5.18,7.11l0.04-1.28
					c0.03-0.76,0.06-1.61,0.08-2.49c-0.55-3.02-0.82-5.99-0.82-8.01c-0.48-0.63-0.8-1.42-1.06-2.14c-1.89-5.35-1.51-9.39-0.05-12.07
					c0.24-0.45,0.51-0.86,0.81-1.24c-1.15-1.67-2.53-2.76-4.05-2.76c-0.16,0-0.31,0.01-0.46,0.04c-2.01,2.45-3.32,4.54-4.1,6.37
					c1.76,4.43,2.84,9.96,2.58,12.17c0,0.15-0.14,0.37-0.35,0.55c-0.27,0.23-0.57,0.31-0.67,0.18l-0.37-0.51h0
					c-2.3-3.17-4.58-6.33-2.31-11.84l-0.12-0.29c-1.26-3.01-2.82-5.4-4.44-5.68c-2.07,2.54-3.06,5.79-3.16,8.62
					c0.79,1.46,1.46,2.86,1.76,3.59l1.2,2.92c0.06,0.1,0,0.29-0.16,0.49c-0.22,0.26-0.55,0.44-0.74,0.4
					c-0.09-0.02-0.18-0.05-0.26-0.08c-1.86-0.64-2.89-3.23-2.85-6.37l0-0.24c-0.43-0.79-0.91-1.6-1.38-2.32
					c-0.64-0.98-1.27-1.79-1.79-2.17c-0.47,1.22-0.98,3.28-1.43,5.53c-0.83,4.06-1.47,8.65-1.48,9.93c0,0.2-0.24,0.51-0.53,0.68
					c-0.13,0.07-0.24,0.11-0.33,0.11l0,0c-2.61,0-2.8-3.72-3-7.69c-0.1-2.12-0.22-4.32-0.7-6.03c-0.33,1.96-0.57,4.74-0.58,7.13
					c0,0.48,0,0.94,0.02,1.38c0.1,0.53,0.23,1.06,0.4,1.59l0.56,1.74c0.05,0.09,0.01,0.23-0.1,0.4c-0.19,0.27-0.52,0.49-0.74,0.49
					c-0.72,0-1.06-1.48-1.16-3.51c-0.17-0.86-0.26-1.72-0.36-2.56c-0.27-2.42-0.53-4.72-2.48-6.79l-0.63,1.22
					c-0.07,0.22-0.13,0.44-0.18,0.65c0.31,2.27,0.48,4.65,0.61,6.48l0.07,1.04c0.1,0.45,0.15,0.97,0.15,1.6
					c0,0.21-0.24,0.51-0.53,0.68c-0.27,0.16-0.49,0.14-0.52-0.03v0c-0.05-0.34-0.09-0.88-0.14-1.54c-0.13-0.6-0.34-1.09-0.54-1.56
					c-0.56-1.3-1.1-2.57-0.15-6.14c-0.5-3.72-1.35-7.07-2.96-7.02c-0.42,0.69-0.69,1.52-0.84,2.44c0.67,1.05,1.25,2.34,1.74,3.74
					c1.07,3.05,1.67,6.59,1.6,9.03h0c0,0.13-0.09,0.3-0.25,0.46c-0.25,0.26-0.57,0.39-0.72,0.3c-1.15-0.68-2.86-4.58-3.39-8.58
					c-0.19-1.43-0.23-2.88-0.03-4.22c-0.39-0.61-0.82-1.12-1.27-1.52c-2.26,4.88-0.09,9.62,0.72,11.38
					c0.23,0.51,0.38,0.82,0.17,1.12c-0.18,0.27-0.52,0.48-0.74,0.48c-0.08,0-0.13-0.03-0.16-0.07c-0.31-0.38-0.86-1.31-1.54-2.47
					c-1.99-3.39-5.2-8.87-7.27-8.92c-1.41,2.29-1.6,4.89-1.54,7.33C7.42,89.54,7.07,89.22,6.74,88.89L6.74,88.89z M27.57,102.85
					c0.17,0.25,0.33,0.49,0.48,0.74c0.29-0.63,0.57-1.22,0.83-1.76l0.17-0.37c0.07,0.94,0.1,2.04,0.13,3.19
					c0.01,0.38,0.02,0.77,0.03,1.16c0.52,1.15,0.93,2.31,1.32,3.45c-0.21-1.66-0.26-3.52-0.31-5.24c-0.04-1.74-0.08-3.36-0.29-4.56
					l0,0c-0.02-0.11-0.12-0.16-0.29-0.12c-0.26,0.06-0.57,0.33-0.7,0.59c-0.35,0.72-0.66,1.38-1.03,2.16L27.57,102.85L27.57,102.85z
					 M42.99,123.17c0.26,0.08,0.52,0.16,0.8,0.22c0.58-2.14,1.45-4.12,2.74-5.7c0.19,2.31,0.27,4.25,0.31,5.96
					c0.35-0.01,0.7-0.02,1.06-0.04c-0.04-2.02-0.13-4.34-0.38-7.22c-0.02-0.19-0.26-0.2-0.55-0.02c-0.08,0.05-0.15,0.11-0.22,0.18
					l-0.01,0.01l-0.02,0.02C44.93,118.34,43.75,120.66,42.99,123.17L42.99,123.17z M52.79,122.94c0.3-0.06,0.61-0.12,0.93-0.19
					c0.15-0.38,0.3-0.75,0.47-1.1c0.19,0.2,0.36,0.5,0.51,0.88c0.39-0.09,0.78-0.18,1.18-0.28c-0.33-1.01-0.74-1.67-1.3-1.82
					c-0.18-0.05-0.51,0.12-0.74,0.39c-0.05,0.06-0.08,0.11-0.11,0.16h0C53.37,121.59,53.06,122.25,52.79,122.94L52.79,122.94z
					 M73.52,116.63l0.89-0.31l-0.01-0.03c-0.07-0.16-0.35-0.11-0.63,0.1C73.67,116.47,73.59,116.55,73.52,116.63L73.52,116.63z
					 M11.71,62.46l-0.96-0.01l-0.06,0.39c-0.62,4.17-1.3,8.8,2.3,9.44c0.18,0.03,0.48-0.12,0.69-0.35c1.31-1.36,2.5-3.88,3.46-6.62
					c0.04,0.34,0.08,0.68,0.13,1.01c0.4,2.41,1.35,4.38,3.02,5.51c0.13,4.5,1.21,7.71,4.49,6.09c0.19-0.09,0.36-0.25,0.48-0.41l0,0
					c1.37-1.98,3.22-7.94,4.41-13.39c0.11-0.48,0.21-0.96,0.3-1.43l-0.93-0.02c-0.12,0.63-0.26,1.27-0.4,1.93
					c-1.11,5.08-2.76,10.55-4,12.62c-2.26,0.89-3.14-1.41-3.34-4.85l0.12,0.05c0.17,0.06,0.5-0.09,0.73-0.35
					c0.03-0.04,0.06-0.07,0.09-0.11c2.7-3.6,3.05-6.69,2.65-9.34l-1.17-0.02c0.51,2.51,0.44,5.42-1.82,8.71
					c-0.23-0.11-0.44-0.23-0.65-0.36c-0.02-2.6,0.26-5.62,0.61-8.37l-0.96-0.01c-0.31,2.42-0.57,5.1-0.62,7.56
					c-1.03-1.11-1.66-2.67-1.97-4.5c-0.16-0.96-0.23-2-0.22-3.09l-1.03-0.01l-0.01,0.26c-0.15,0.52-0.3,1.04-0.46,1.55
					c-0.88,2.79-1.98,5.48-3.13,6.92C10.57,70.47,11.14,66.29,11.71,62.46L11.71,62.46z M31.14,62.71l-1.13-0.02
					c0.6,5.05,1.87,11.19,4.59,14.68c0.1,0.13,0.4,0.05,0.68-0.18c0.08-0.07,0.15-0.15,0.21-0.23c1.2-1.55,1.88-3.43,2.26-5.44
					c0.24,2.84,0.74,4.93,1.69,5.06c0.2,0.03,0.53-0.17,0.74-0.43l0.01-0.01l0,0c0.61-0.81,1.07-3.3,1.66-6.52
					c0.37-2.04,0.8-4.38,1.33-6.72l-0.91-0.01c-0.59,2.53-1.05,5.06-1.45,7.24c-0.42,2.28-0.77,4.18-1.07,5.21
					c-1.11-1.37-1.23-7.28-1.15-12.51l-1.6-0.02c0.2,4.51,0.41,9.79-1.72,13.31C32.92,72.78,31.74,67.37,31.14,62.71L31.14,62.71z
					 M63.51,63.23l-1.73-0.03c0.11,0.14,0.22,0.28,0.34,0.42c-0.69,3.19-1.55,6.25-2.29,8c-1.55-0.73-2.66-3.44-3.25-6.65
					c0.17-0.62,0.33-1.23,0.48-1.85l-1.87-0.03c0.04,0.51,0.11,1.01,0.18,1.5c0.05,0.33,0.1,0.65,0.16,0.97
					c-0.93,3.34-2.16,6.56-3.55,8.56c-0.12,0.17-0.24,0.33-0.36,0.48c-4.37,1.36-5.01-5.19-4.78-11.65l-1.01-0.02
					c-0.3,7.02,0.37,14.48,5.74,12.48c0.17-0.06,0.34-0.19,0.47-0.34l0,0c0.26-0.29,0.51-0.61,0.75-0.95
					c1.18-1.7,2.24-4.17,3.12-6.85c0.75,2.92,1.99,5.17,3.67,5.47c0.19,0.03,0.53-0.15,0.74-0.42c0.04-0.05,0.08-0.11,0.11-0.15l0,0
					c0.75-1.41,1.67-4.44,2.45-7.75c1.55,1.52,3.5,2.65,5.04,3.55l0.21,0.12c-0.25-0.55-0.59-1.25-0.96-2.02
					C65.91,65.29,64.59,64.37,63.51,63.23L63.51,63.23z M69.07,78.07c-1.27,2.4-1.67,5.08-1.48,7.43c0.23,2.77,1.27,5.07,2.67,5.93
					C72.63,84.72,71.45,80.28,69.07,78.07L69.07,78.07z M60.11,79.06c-0.1,0.15-0.19,0.31-0.28,0.47c-1.35,2.48-1.66,6.3,0.16,11.48
					c0.15,0.42,0.32,0.86,0.53,1.27c0.23-0.15,0.44-0.19,0.54-0.09c0.25,0.28,0.43,0.8,0.56,1.49c0.26,0.2,0.55,0.35,0.89,0.45
					c1.07-2.4,0.72-6.94-0.56-10.93C61.46,81.69,60.84,80.26,60.11,79.06L60.11,79.06z M50.48,83.92c-1.01,3.79,0.42,6.36,2.13,8.79
					C52.36,90.34,51.59,86.96,50.48,83.92L50.48,83.92z M42.71,88.98c0.13,0.42,0.3,0.8,0.48,1.14l-0.18-0.44
					C42.94,89.49,42.83,89.25,42.71,88.98L42.71,88.98z M20.34,84.18c0.02,0.61,0.07,1.24,0.15,1.86c0.37,2.77,1.3,5.49,2.2,7.06
					c-0.19-2.11-0.72-4.6-1.5-6.83C20.93,85.54,20.64,84.83,20.34,84.18z"/>
			</g>
			<g>
				<path class="st1" d="M71.1,84c0.34,0.02,0.7-0.02,1.1-0.13c2.39-2.62,3.83-7.29,5.26-11.95c0.91-2.96,1.82-5.92,3.01-8.44
					l0.82,0.01c-1.09,2.37-1.95,5.19-2.82,8.02c-1.52,4.97-3.06,9.95-5.95,12.9c-0.13,0.14-0.3,0.25-0.46,0.3
					c-0.32,0.11-0.63,0.18-0.92,0.22L71.1,84L71.1,84z M72.48,117l0.39-0.14c-0.15-0.29-0.3-0.62-0.44-1L72.48,117L72.48,117z
					 M77.86,115.1c0.54-0.19,1.07-0.38,1.59-0.56c0.93-3.63,1.3-6.78,0.87-8.49c-0.04-0.18-0.31-0.16-0.6,0.05
					c-0.2,0.14-0.35,0.33-0.41,0.49C78.47,108.84,77.94,111.98,77.86,115.1L77.86,115.1z M83.63,113.15
					c0.41-0.13,0.8-0.24,1.18-0.36c0.16-0.05,0.32-0.11,0.48-0.16c0.25-4.43,0.24-8.32,0.16-8.39l-0.01-0.01l0,0l0,0
					c-0.13-0.1-0.45,0.02-0.71,0.27c-0.12,0.11-0.2,0.24-0.25,0.35v0C83.27,107.95,83.19,110.7,83.63,113.15L83.63,113.15z
					 M93.32,107.21c0.33-0.35,0.66-0.73,0.99-1.1l-0.07-0.16c-0.02-0.07-0.04-0.12-0.07-0.15c-0.11-0.12-0.42-0.03-0.68,0.2
					c-0.25,0.22-0.38,0.49-0.31,0.63c0.03,0.07,0.07,0.15,0.1,0.22C93.3,106.95,93.31,107.07,93.32,107.21L93.32,107.21z
					 M100.92,95.58c0.35-0.75,0.69-1.53,1.03-2.31c-0.62-2.24-0.92-5.2,0.48-8.21c0.45,0.39,0.87,0.91,1.27,1.52
					c-0.12,0.8-0.15,1.63-0.12,2.48c0.73-2.08,1.39-4.24,1.98-6.47c-0.17,0.08-0.34,0.22-0.46,0.38l0,0
					c-0.44,0.58-0.77,1.24-1.01,1.95c-0.38-0.46-0.78-0.84-1.19-1.11c-0.14-0.1-0.46,0.03-0.71,0.28c-0.08,0.08-0.14,0.16-0.19,0.24
					l0,0c-1.69,2.94-1.81,5.83-1.41,8.19c-2.11-3.46-4.86-7.42-6.9-6.81c-0.22,0.06-0.46,0.26-0.6,0.46h0
					c-2.33,3.36-2.14,7.11-1.98,10.32c0.04,0.7,0.07,1.37,0.08,2c-1.08-1.11-1.43-2.86-1.82-4.78c-0.42-2.08-0.87-4.34-2.32-6.19
					c-0.1-0.13-0.4-0.05-0.68,0.19c-0.17,0.14-0.28,0.31-0.32,0.45c-0.35,1.02-0.64,1.94-0.87,2.75c-0.67-2.09-1.5-3.58-2.55-3.37
					c-0.25,0.05-0.57,0.3-0.71,0.57l-0.01,0.02h0c-2,3.97-2.34,7.39-2.1,10.16c-1.45-3.8-3.19-7.69-4.22-7.59
					c-0.22,0.02-0.52,0.23-0.7,0.47c-1.41,1.88-2.46,4.06-3.2,6.35l0.13,3.06c0.6-3.18,1.7-6.29,3.45-8.82
					c1.54,1.09,4.8,10.74,5.76,13.59l0.17,0.52c0.03,0.12,0.15,0.16,0.35,0.09c0.28-0.09,0.58-0.38,0.67-0.62
					c0.25-0.65-0.02-1.59-0.38-2.88c-0.82-2.92-2.17-7.74,0.7-13.91c0.81,0.38,1.5,2.31,2.07,4.63c-0.77,3.6-0.08,4.59,0.67,5.68
					c0.24,0.36,0.5,0.72,0.7,1.2c0.17,0.94,0.33,1.73,0.47,2.24c0.03,0.17,0.26,0.18,0.54,0.01c0.29-0.18,0.52-0.49,0.51-0.69
					c-0.05-1.03-0.23-1.75-0.48-2.32l-0.17-0.9c-0.32-1.78-0.71-3.91-1.19-5.81c0.2-0.95,0.51-2.08,0.95-3.46
					c0.99,1.64,1.37,3.53,1.73,5.29c0.49,2.45,0.94,4.65,2.89,5.66l0,0c0.09,0.05,0.23,0.03,0.4-0.07c0.29-0.16,0.54-0.46,0.56-0.68
					c0.11-1.05,0.05-2.24-0.02-3.51c-0.15-2.93-0.32-6.34,1.46-9.24c2.07,0.05,5.28,5.53,7.27,8.92L100.92,95.58L100.92,95.58z
					 M105.82,81.52c0.13-0.53,0.26-1.05,0.38-1.59c-0.36-0.88-0.55-2.09-0.63-3.49l0.12,0.05c0.17,0.07,0.5-0.09,0.74-0.35
					c0.03-0.04,0.06-0.08,0.09-0.11c0.24-0.32,0.46-0.63,0.66-0.94c0.13-0.75,0.25-1.5,0.37-2.26c-0.32,0.82-0.77,1.68-1.37,2.55
					c-0.23-0.11-0.44-0.23-0.65-0.36c-0.02-3.56,0.51-7.91,1.01-11.27l-0.96-0.01c-0.45,3.02-0.95,6.96-1.02,10.45
					c-1.03-1.11-1.66-2.67-1.97-4.5c-0.17-1.05-0.24-2.18-0.22-3.37c0.25-0.88,0.47-1.76,0.66-2.59l-1.44-0.01
					c-0.15,1.07-0.23,2.12-0.26,3.14c-0.14,0.52-0.3,1.04-0.46,1.55c-0.88,2.8-1.98,5.48-3.13,6.92c-2.92-0.8-2.29-5.08-1.72-8.95
					c0.14-0.95,0.28-1.86,0.36-2.71l-1-0.01c-0.06,0.98-0.23,2.1-0.4,3.25c-0.61,4.17-1.3,8.81,2.3,9.44
					c0.18,0.03,0.48-0.13,0.69-0.36c1.31-1.35,2.5-3.88,3.46-6.62c0.04,0.34,0.08,0.68,0.14,1.01c0.4,2.41,1.35,4.38,3.01,5.51
					C104.63,78.34,104.98,80.41,105.82,81.52L105.82,81.52z M108.16,67.75c-0.18-1.46-0.61-2.79-1.02-4l1.28,0.01l0.03,0.1
					C108.39,65.16,108.29,66.46,108.16,67.75L108.16,67.75z M82.82,63.52c-0.01,3.1,0.07,8.13,0.53,12.03
					c0.31,2.62,0.79,4.69,1.53,5.21c1.72-2.6,3.24-6.07,4.69-9.38c1.26-2.88,2.48-5.65,3.79-7.74l0.78,0.01
					c-1.18,1.92-2.37,4.62-3.61,7.44c-1.59,3.64-3.27,7.46-5.27,10.27l-0.02,0.03c-0.2,0.27-0.52,0.48-0.74,0.46
					c-1.17-0.07-1.83-2.46-2.21-5.62c-0.48-4.08-0.47-9.51-0.39-12.73L82.82,63.52L82.82,63.52z M79.04,112.26
					c0.09-0.91,0.21-1.81,0.37-2.66C79.34,110.4,79.22,111.3,79.04,112.26z"/>
			</g>
		</g>
		<g>
			<g>
				<path class="st2" d="M39.04,43.68c0.1,0.08,0.19,0.17,0.27,0.29c0.14,0.18,0.24,0.37,0.3,0.58c0.25-0.21,0.56-0.34,0.89-0.37
					c0.02-0.65,0.02-1.26,0.01-1.81C39.93,42.61,39.44,43.07,39.04,43.68L39.04,43.68z M38.72,46.84c-0.51,0.54-0.88,1.14-1.15,1.76
					c-0.02,0.22-0.04,0.45-0.06,0.67c-0.09,1.13-0.09,2.24-0.02,3.27c0.18-0.16,0.36-0.33,0.53-0.51c0.02-0.35,0.05-0.71,0.09-1.07
					C38.27,49.5,38.5,47.97,38.72,46.84L38.72,46.84z M34.68,58.23l-0.08-0.39c-1.69,0.18-3.04-0.59-3.64-2.58
					c-0.54-1.82-0.11-4.93,2.02-9.65c3.58-7.95,6.44-10.02,8.48-8.94c0.83,0.44,1.42,1.44,1.8,2.8c2.42,3.89,1.67,8.16-0.29,11.6
					c-0.36,1.69-0.82,3.28-1.39,4.61l-0.03,0.07c0.04,0.32-0.01,0.66-0.15,0.98c-0.15,0.34-0.39,0.61-0.67,0.78
					c-0.36,0.81-0.82,1.58-1.41,2.29c-0.33,0.44-0.85,0.71-1.41,0.66c-0.45-0.04-0.88-0.25-1.27-0.59
					c-0.34-0.06-0.69-0.18-1.06-0.36v0C35.15,59.26,34.79,58.81,34.68,58.23z"/>
			</g>
			<g>
				<path class="st2" d="M68.53,28.94c-0.08,0-0.16,0.01-0.24,0.04c-0.13,0.04-0.24,0.12-0.33,0.21c-0.1-0.25-0.27-0.48-0.46-0.65
					c0.15-0.41,0.29-0.79,0.43-1.11C68.23,27.86,68.42,28.38,68.53,28.94L68.53,28.94z M67.96,31.03c0.18,0.58,0.27,1.12,0.28,1.63
					c-0.04,0.15-0.08,0.29-0.13,0.44c-0.22,0.73-0.49,1.42-0.79,2.01c-0.07-0.19-0.14-0.37-0.21-0.57c0.07-0.23,0.14-0.46,0.21-0.7
					C67.59,32.88,67.82,31.83,67.96,31.03L67.96,31.03z M67.71,39.94l0.14-0.2c1.01,0.92,2.05,1.09,2.9,0.16
					c0.78-0.86,1.27-2.97,1.09-6.88c-0.3-6.59-1.59-9.23-3.13-9.54c-0.63-0.13-1.24,0.2-1.81,0.85c-2.46,1.22-3.03,4.2-2.65,7.24
					c-0.19,1.2-0.29,2.4-0.26,3.48l0,0.06c-0.1,0.18-0.16,0.41-0.14,0.67c0.01,0.28,0.09,0.56,0.23,0.8
					c0.03,0.67,0.13,1.36,0.32,2.08c0.1,0.43,0.36,0.84,0.72,1.08c0.29,0.19,0.61,0.27,0.94,0.25c0.23,0.13,0.48,0.22,0.75,0.28v0
					C67.17,40.35,67.5,40.24,67.71,39.94z"/>
			</g>
			<g>
				<path class="st2" d="M59.8,66.98c-0.05,0.02-0.09,0.04-0.13,0.07c-0.07,0.05-0.12,0.11-0.15,0.19c-0.1-0.12-0.23-0.22-0.37-0.28
					c0.02-0.27,0.04-0.51,0.06-0.72C59.45,66.41,59.64,66.67,59.8,66.98L59.8,66.98z M59.82,68.28c0.2,0.29,0.34,0.58,0.44,0.87
					c0,0.09,0,0.18,0,0.27c0,0.46-0.05,0.9-0.11,1.3c-0.07-0.09-0.15-0.18-0.22-0.28c0-0.14,0-0.29,0-0.44
					C59.92,69.4,59.88,68.76,59.82,68.28L59.82,68.28z M61.17,73.41l0.05-0.14c0.73,0.32,1.35,0.23,1.68-0.48
					c0.3-0.64,0.23-1.94-0.53-4.13c-1.27-3.7-2.45-4.95-3.38-4.82c-0.38,0.05-0.68,0.36-0.89,0.84c-1.2,1.18-1.03,2.99-0.3,4.65
					c0.09,0.72,0.24,1.43,0.44,2.03l0.01,0.03c-0.03,0.12-0.02,0.26,0.03,0.41c0.05,0.16,0.15,0.3,0.27,0.41
					c0.13,0.38,0.3,0.75,0.53,1.12c0.13,0.23,0.35,0.41,0.59,0.47c0.2,0.05,0.39,0.03,0.58-0.04c0.15,0.02,0.31,0.03,0.47,0.01l0,0
					C60.93,73.75,61.1,73.62,61.17,73.41z"/>
			</g>
			<g>
				<path class="st2" d="M85.51,57.98c0.05,0,0.1-0.02,0.14-0.04c0.08-0.03,0.14-0.08,0.19-0.14c0.07,0.14,0.18,0.27,0.3,0.36
					c-0.07,0.25-0.14,0.48-0.21,0.69C85.73,58.62,85.59,58.32,85.51,57.98L85.51,57.98z M85.76,56.71
					c-0.13-0.34-0.21-0.65-0.24-0.96c0.02-0.09,0.04-0.18,0.06-0.27c0.1-0.45,0.24-0.87,0.39-1.23c0.05,0.11,0.1,0.21,0.15,0.33
					c-0.03,0.14-0.06,0.28-0.09,0.43C85.91,55.59,85.81,56.23,85.76,56.71L85.76,56.71z M85.55,51.38l-0.08,0.13
					c-0.64-0.5-1.27-0.56-1.74,0.04c-0.43,0.55-0.64,1.83-0.37,4.15c0.45,3.92,1.32,5.43,2.25,5.54c0.38,0.05,0.73-0.18,1.04-0.59
					c1.42-0.85,1.64-2.65,1.28-4.45c0.06-0.73,0.07-1.45,0.01-2.09l-0.01-0.04c0.05-0.11,0.08-0.25,0.06-0.4
					c-0.02-0.17-0.08-0.33-0.17-0.47c-0.04-0.4-0.13-0.81-0.28-1.22c-0.08-0.25-0.25-0.49-0.47-0.61c-0.18-0.1-0.38-0.13-0.57-0.1
					c-0.14-0.06-0.29-0.11-0.46-0.13l0,0C85.86,51.11,85.66,51.19,85.55,51.38z"/>
			</g>
			<g>
				<path class="st3" d="M57.86,39.47c-0.07-0.03-0.15-0.06-0.23-0.06c-0.13-0.01-0.25,0-0.36,0.05c0-0.26-0.06-0.53-0.18-0.76
					c0.27-0.3,0.54-0.57,0.78-0.79C57.99,38.41,57.97,38.94,57.86,39.47L57.86,39.47z M56.63,41.06c-0.04,0.58-0.15,1.09-0.32,1.53
					c-0.09,0.11-0.18,0.23-0.27,0.33c-0.45,0.54-0.93,1.03-1.4,1.43c0-0.19,0.01-0.38,0.02-0.58c0.14-0.17,0.29-0.34,0.43-0.52
					C55.66,42.51,56.23,41.7,56.63,41.06L56.63,41.06z M53.27,48.72l0.19-0.11c0.56,1.22,1.4,1.8,2.47,1.34
					c0.99-0.42,2.15-2.06,3.38-5.54c2.06-5.86,1.86-8.7,0.64-9.61c-0.5-0.37-1.15-0.34-1.88-0.01c-2.58,0.05-4.12,2.41-4.86,5.22
					c-0.59,0.98-1.1,1.98-1.45,2.93l-0.02,0.06c-0.15,0.11-0.28,0.29-0.36,0.52c-0.09,0.25-0.11,0.53-0.08,0.79
					c-0.21,0.59-0.37,1.23-0.45,1.94c-0.06,0.41,0.02,0.88,0.25,1.24c0.19,0.29,0.44,0.49,0.73,0.6c0.16,0.2,0.34,0.39,0.55,0.56v0
					C52.66,48.85,52.98,48.9,53.27,48.72z"/>
			</g>
			<g>
				<path class="st3" d="M74.49,65.46c-0.04,0.01-0.07,0.03-0.11,0.06c-0.05,0.04-0.09,0.11-0.13,0.18
					c-0.06-0.15-0.15-0.28-0.25-0.37c0.04-0.29,0.08-0.55,0.12-0.79C74.28,64.79,74.4,65.11,74.49,65.46L74.49,65.46z M74.39,66.9
					c0.12,0.36,0.2,0.7,0.24,1.03c-0.01,0.1-0.01,0.2-0.03,0.3c-0.04,0.51-0.12,0.99-0.2,1.41c-0.05-0.11-0.09-0.23-0.13-0.34
					c0.02-0.16,0.03-0.32,0.04-0.48C74.36,68.16,74.38,67.44,74.39,66.9L74.39,66.9z M74.91,72.76l0.05-0.15
					c0.52,0.47,0.99,0.46,1.3-0.25c0.29-0.65,0.35-2.1-0.01-4.63c-0.6-4.27-1.36-5.84-2.07-5.85c-0.29-0.01-0.54,0.28-0.74,0.78
					c-1,1.11-1.04,3.12-0.66,5.06c0,0.81,0.04,1.61,0.14,2.31l0,0.04c-0.03,0.13-0.04,0.29-0.02,0.45c0.03,0.18,0.08,0.35,0.16,0.49
					c0.06,0.43,0.15,0.87,0.29,1.32c0.08,0.27,0.22,0.51,0.4,0.62c0.14,0.09,0.29,0.1,0.43,0.05c0.11,0.05,0.23,0.08,0.35,0.09l0,0
					C74.7,73.1,74.84,72.98,74.91,72.76z"/>
			</g>
			<g>
				<path class="st3" d="M45.55,76.66c-0.04,0.01-0.08,0.01-0.11,0.03c-0.06,0.02-0.11,0.06-0.16,0.12
					c-0.04-0.12-0.11-0.23-0.19-0.32c0.08-0.21,0.16-0.41,0.23-0.58C45.45,76.12,45.52,76.38,45.55,76.66L45.55,76.66z M45.22,77.74
					c0.07,0.29,0.09,0.56,0.08,0.82c-0.02,0.08-0.04,0.15-0.07,0.23c-0.12,0.38-0.27,0.73-0.42,1.05c-0.03-0.09-0.06-0.18-0.08-0.28
					c0.04-0.12,0.08-0.24,0.12-0.36C44.99,78.69,45.13,78.15,45.22,77.74L45.22,77.74z M44.82,82.27l0.07-0.11
					c0.43,0.43,0.9,0.49,1.32-0.01c0.39-0.46,0.68-1.55,0.72-3.52C47,75.3,46.5,74,45.81,73.89c-0.28-0.04-0.57,0.14-0.85,0.49
					c-1.16,0.7-1.52,2.23-1.44,3.76c-0.12,0.62-0.21,1.23-0.23,1.78l0,0.03c-0.05,0.1-0.08,0.21-0.09,0.34
					c0,0.14,0.03,0.28,0.08,0.4c-0.01,0.34,0.02,0.69,0.08,1.04c0.03,0.22,0.14,0.42,0.3,0.53c0.13,0.09,0.27,0.12,0.42,0.1
					c0.1,0.05,0.21,0.09,0.33,0.12v0C44.56,82.5,44.72,82.43,44.82,82.27z"/>
			</g>
			<g>
				<path class="st3" d="M84.14,88.34c-0.02-0.01-0.04-0.02-0.07-0.03c-0.04-0.01-0.08-0.01-0.12,0c0.02-0.08,0.02-0.16,0-0.24
					c0.11-0.08,0.22-0.15,0.31-0.22C84.26,88.01,84.22,88.18,84.14,88.34L84.14,88.34z M83.62,88.78c-0.06,0.18-0.13,0.33-0.22,0.46
					c-0.04,0.03-0.07,0.06-0.11,0.09c-0.19,0.15-0.38,0.29-0.56,0.4c0.02-0.06,0.03-0.12,0.05-0.18c0.06-0.04,0.12-0.09,0.18-0.14
					C83.2,89.2,83.45,88.97,83.62,88.78L83.62,88.78z M81.96,91.03L82.03,91c0.09,0.39,0.32,0.6,0.7,0.49
					c0.35-0.1,0.85-0.56,1.51-1.59c1.11-1.73,1.26-2.61,0.93-2.93c-0.13-0.13-0.35-0.14-0.61-0.06c-0.84-0.07-1.52,0.6-1.97,1.44
					c-0.26,0.28-0.5,0.57-0.69,0.85l-0.01,0.02c-0.06,0.03-0.11,0.08-0.16,0.15c-0.05,0.07-0.07,0.16-0.08,0.24
					c-0.11,0.17-0.21,0.37-0.29,0.58c-0.05,0.13-0.06,0.27-0.01,0.39c0.04,0.09,0.11,0.16,0.19,0.21c0.03,0.07,0.08,0.13,0.14,0.19
					v0C81.75,91.05,81.85,91.07,81.96,91.03z"/>
			</g>
			<g>
				<path class="st3" d="M26.41,41.2c-0.02-0.01-0.04-0.02-0.07-0.03c-0.04-0.01-0.08,0-0.12,0.01c0.02-0.08,0.02-0.17,0-0.24
					c0.11-0.08,0.21-0.16,0.31-0.22C26.54,40.88,26.49,41.04,26.41,41.2L26.41,41.2z M25.9,41.65c-0.06,0.18-0.13,0.33-0.22,0.46
					c-0.04,0.03-0.07,0.07-0.11,0.1c-0.19,0.15-0.38,0.29-0.56,0.39c0.01-0.06,0.03-0.12,0.05-0.18c0.06-0.05,0.12-0.1,0.18-0.15
					C25.47,42.07,25.72,41.83,25.9,41.65L25.9,41.65z M24.23,43.89l0.07-0.03c0.09,0.39,0.32,0.6,0.7,0.49
					c0.35-0.1,0.85-0.56,1.51-1.59c1.11-1.74,1.25-2.61,0.93-2.93c-0.14-0.13-0.35-0.14-0.61-0.06c-0.84-0.07-1.52,0.61-1.96,1.45
					c-0.27,0.28-0.51,0.57-0.69,0.85l-0.01,0.01c-0.06,0.03-0.11,0.08-0.16,0.15c-0.05,0.07-0.08,0.16-0.09,0.24
					c-0.11,0.17-0.21,0.37-0.29,0.58c-0.05,0.13-0.06,0.27-0.01,0.39c0.04,0.1,0.11,0.17,0.19,0.21c0.03,0.06,0.08,0.13,0.14,0.19
					l0,0C24.02,43.91,24.13,43.94,24.23,43.89z"/>
			</g>
			<g>
				<path class="st3" d="M68.79,86.28c-0.02,0.01-0.04,0.03-0.05,0.05c-0.03,0.03-0.04,0.07-0.06,0.11
					c-0.06-0.05-0.12-0.09-0.19-0.11c-0.01-0.14-0.02-0.28-0.03-0.4C68.59,86.02,68.7,86.13,68.79,86.28L68.79,86.28z M68.91,86.99
					c0.12,0.14,0.2,0.28,0.27,0.43c0.01,0.05,0.02,0.1,0.02,0.15c0.03,0.25,0.05,0.5,0.05,0.72c-0.04-0.04-0.08-0.08-0.12-0.13
					c-0.01-0.08-0.02-0.16-0.03-0.24C69.04,87.59,68.97,87.25,68.91,86.99L68.91,86.99z M69.92,89.65l0.01-0.08
					c0.36,0.1,0.64-0.02,0.74-0.43c0.09-0.38-0.04-1.08-0.56-2.2c-0.87-1.88-1.51-2.45-1.92-2.29c-0.17,0.06-0.28,0.26-0.35,0.55
					c-0.45,0.77-0.24,1.73,0.23,2.56c0.1,0.39,0.22,0.75,0.36,1.06l0.01,0.02c0,0.07,0.01,0.14,0.04,0.22
					c0.04,0.08,0.09,0.15,0.15,0.2c0.09,0.19,0.2,0.38,0.33,0.56c0.08,0.11,0.19,0.19,0.31,0.2c0.1,0.01,0.18-0.02,0.26-0.08
					c0.07,0,0.15-0.01,0.22-0.04l0,0C69.84,89.86,69.9,89.78,69.92,89.65z"/>
			</g>
			<g>
				<path class="st2" d="M31.23,77.49c-0.05,0.02-0.1,0.04-0.14,0.07c-0.07,0.05-0.12,0.1-0.16,0.16c-0.11-0.08-0.25-0.14-0.4-0.16
					c0.01-0.2,0.03-0.39,0.06-0.55C30.85,77.12,31.06,77.29,31.23,77.49L31.23,77.49z M31.26,78.47c0.22,0.19,0.37,0.39,0.46,0.6
					c0.01,0.07,0.01,0.14,0.01,0.21c0,0.34-0.04,0.69-0.11,0.99c-0.08-0.06-0.15-0.12-0.23-0.18c0-0.11,0-0.22,0-0.33
					C31.38,79.3,31.33,78.82,31.26,78.47L31.26,78.47z M32.73,82.15l0.05-0.11c0.77,0.14,1.42-0.02,1.77-0.59
					c0.32-0.53,0.22-1.49-0.59-3.04c-1.38-2.61-2.63-3.39-3.6-3.17c-0.4,0.09-0.71,0.36-0.93,0.76c-1.25,1.05-1.06,2.39-0.27,3.54
					c0.11,0.53,0.27,1.04,0.48,1.47l0.01,0.03c-0.03,0.1-0.02,0.2,0.03,0.3c0.06,0.11,0.16,0.2,0.28,0.27
					c0.14,0.27,0.32,0.52,0.57,0.77c0.13,0.15,0.37,0.26,0.63,0.27c0.21,0.01,0.41-0.03,0.6-0.11c0.16,0,0.33-0.02,0.5-0.05l0,0
					C32.48,82.43,32.66,82.31,32.73,82.15z"/>
			</g>
		</g>
	</g>
	<g>
		<path class="st4" d="M63.78,96.99c1.98-13.81-8.28-26.95-12.77-7.37c-0.31,1.36-1.86,14.97-1.84,15.19
			c-13.05-0.8-14.36-16.44-21.55-11.33c-9.18,13.52,18.01,17.9,19.71,25.27c0.76,3.32,1.19,18.68,6.72,22.64
			c4.18,2.99,10.24-1.13,11.72-4.37c2.56-5.59-1.59-12.9-0.12-18.63c0.59-2.33,3.04-4.07,7.82-5.15
			c4.75-1.08,12.26-6.62,14.78-11.94c3.24-6.85,0.91-14.7-6.05-5.23L81,97.68C75.44,105.24,61.86,110.41,63.78,96.99z"/>
	</g>
</g>
</svg>
