<?xml version="1.0" encoding="utf-8"?>
<!-- Generator: Adobe Illustrator 25.1.0, SVG Export Plug-In . SVG Version: 6.00 Build 0)  -->
<svg version="1.1" id="Calque_1" xmlns="http://www.w3.org/2000/svg" xmlns:xlink="http://www.w3.org/1999/xlink" x="0px" y="0px"
	 viewBox="0 0 135.68 122.97" style="enable-background:new 0 0 135.68 122.97;" xml:space="preserve">
<style type="text/css">
	.st0{fill:#546E45;}
</style>
<g>
	<path class="st0" d="M63.56,4.64c-0.01,0.01-0.02,0.02-0.03,0.03c0.06,0.03,0.13,0.07,0.19,0.1c0.03-0.03,0.06-0.06,0.09-0.09
		C63.73,4.67,63.64,4.66,63.56,4.64z M68.6,61.53c-0.08,0.14-0.17,0.29-0.25,0.43c0.22,0,0.44,0,0.89,0
		C68.89,61.73,68.75,61.63,68.6,61.53z M122.72,83.34c-0.09-0.13-0.26-0.24-0.41-0.28c-0.11-0.03-0.25,0.07-0.5,0.15
		c0.14,0.19,0.2,0.34,0.3,0.4c0.14,0.07,0.33,0.11,0.48,0.08C122.67,83.67,122.77,83.41,122.72,83.34z M120.85,82.87
		c-0.09,0.19-0.14,0.31-0.2,0.44c-0.08,0.15-0.26,0.32,0.05,0.4c0.09,0.02,0.25-0.08,0.32-0.17
		C121.17,83.35,121.26,83.13,120.85,82.87z M73.96,59.3c-0.1-0.07-0.34-0.11-0.37-0.06c-0.08,0.13-0.15,0.32-0.12,0.46
		c0.04,0.17,0.18,0.31,0.33,0.55C74.28,59.71,74.3,59.53,73.96,59.3z M68.08,37.19c-0.4,0.38-0.74,0.69-1.02,0.96
		c-0.01,0.71,0.19,1.26,0.48,1.76c0.36,0.62,0.68,0.7,1.79,0.43C68.66,39.34,68.61,38.23,68.08,37.19z M71.07,13
		c-0.36-1.28-1.09-2.22-2.74-2.43c0.2,0.68,0.38,1.22,0.5,1.76c0.17,0.73,0.77,1.06,1.32,1.42c0.16,0.11,0.55,0.11,0.67,0
		C70.98,13.57,71.13,13.22,71.07,13z M54.52,9.21c-0.3-0.28-0.8-0.36-1.06-0.2c-0.33,0.21-0.7,1.12-0.53,1.41
		c0.33,0.53,0.69,1.03,1.06,1.53c0.17,0.22,0.6,0.19,0.75-0.06c0.15-0.24,0.28-0.5,0.33-0.77c0.07-0.37,0.06-0.75,0.08-1.2
		C54.98,9.7,54.76,9.44,54.52,9.21z M108.81,28.86c-0.12-0.13-0.31-0.31-0.29-0.44c0.1-0.66-0.41-0.89-0.8-1.2
		c-0.11-0.09-0.36-0.01-0.57-0.01c-0.09,0.57,0.05,1.06,0.11,1.57c0.07,0.51,0.31,0.75,0.61,1.02c0.75,0.68,0.85,0.68,1.85-0.05
		C109.42,29.44,109.11,29.16,108.81,28.86z M76.91,72.98c0-1.05-0.44-1.96-0.75-2.91c-0.15-0.48-0.51-0.77-1.02-0.89
		c-0.11,0.18-0.25,0.3-0.25,0.42c0.01,1.39,0.03,2.77,0.89,3.98c0.31,0.43,0.81,0.77,0.83,1.41c0.01,0.14,0.29,0.39,0.63,0.18
		C77.13,74.46,76.91,73.72,76.91,72.98z M17.46,56.77c-0.61,0.09-1.05-0.64-1.74-0.22c-0.07,0.38,0.14,0.8-0.23,1.17
		c-0.22,0.22-0.25,0.6,0.11,0.88c0.16,0.13,0.06,0.31-0.07,0.49c-0.13,0.17-0.2,0.4-0.23,0.62c-0.04,0.31-0.01,0.64-0.01,0.95
		c0.57,0.05,0.24,0.66,0.54,0.87c0.1,0.07,0.32,0.12,0.4,0.07c0.34-0.26,0.75-0.51,0.86-0.95c0.16-0.59,0.3-1.19,0.36-1.8
		C17.51,58.2,17.46,57.54,17.46,56.77z M36.32,33.56c-0.82-0.45-0.55-1.07-0.24-1.65c-0.21-0.33-0.39-0.61-0.53-0.83
		c-0.51-0.2-0.96-0.37-1.4-0.55c0,0,0,0,0-0.01c-0.4,0.43-0.51,0.96-0.45,1.52c0.07,0.62,0.23,1.23,0.36,1.92
		c0.68,0.48,1.4,1,2.15,1.53C36.65,34.81,36.41,34.18,36.32,33.56z M34.19,30.42c-0.01,0.03-0.03,0.08-0.03,0.1
		c0.02-0.02,0.03-0.04,0.05-0.06C34.22,30.45,34.2,30.43,34.19,30.42z M91.35,31.01c-0.29-0.88-0.02-1.89-0.63-2.71
		c-0.13-0.17-0.02-0.53-0.02-0.88c-0.6-0.42-0.84-1.3-1.67-1.66c-0.26,0.17-0.49,0.33-0.86,0.57c0.54,0.96,0.84,1.85,1.04,2.8
		c0.11,0.54,0.42,1.07,0.74,1.53c0.2,0.29,0.57,0.49,0.9,0.68C91.05,31.47,91.42,31.22,91.35,31.01z M100.72,29.68
		c-0.6-0.52-1.17-1.18-2.25-0.99c0.59,0.75,1.08,1.44,1.64,2.05c0.37,0.41,0.63,0.86,0.66,1.38c0.04,0.79,0.32,1.34,1.07,1.65
		c0.25,0.1,0.46,0.32,0.68,0.49c0.21-0.07,0.39-0.12,0.57-0.19c0.04-0.01,0.06-0.06,0.09-0.1C102.63,31.5,102.51,31.23,100.72,29.68
		z M88.27,63.89c-0.04-0.42-0.09-0.72-0.49-0.91c-0.29-0.14,0-0.44-0.08-0.61c-0.21-0.42-0.65-0.53-1.07-0.64
		c-0.4-0.1-0.76-0.06-0.99,0.29c0.09,0.29,0.16,0.57,0.27,0.82c0.12,0.29,0,0.68,0.37,0.89c0.38,0.21-0.05,0.57,0.08,0.73
		c0.46,0.58,0.45,1.46,1.25,1.82c0.25,0.11,0.36,0.52,0.59,0.74c0.11,0.11,0.32,0.11,0.62,0.19C88.61,66.03,88.38,64.97,88.27,63.89
		z M82.12,19.85c-0.37-0.3-0.74-0.6-1.13-0.88c-0.31-0.21-0.64-0.38-1.1-0.65c-0.21,0.53-0.16,0.81,0.07,1.12
		c0.7,0.94,1.08,1.98,1.01,3.19c-0.04,0.65,0.41,1.15,0.88,1.6c0.37,0.03,0.74,0.07,1.17,0.11c0-0.93-0.05-1.79,0.01-2.64
		C83.09,20.87,82.7,20.32,82.12,19.85z M39.99,58.24c-0.08-0.42-0.2-0.84-0.38-1.22c-0.08-0.17-0.37-0.34-0.57-0.34
		c-0.29,0-0.33,0.34-0.28,0.54c0.04,0.18,0.25,0.37-0.06,0.41c-0.7,0.1-0.82,0.59-0.8,1.15c0.01,0.38,0.12,0.75,0.19,1.12
		c0.06,0.28,0.17,0.56,0.18,0.84c0.01,0.27-0.09,0.55-0.16,0.92c0.52,0.18,1.22-0.09,1.52,0.72c0.35-0.51,0.58-0.85,0.83-1.21
		C40.31,60.22,40.17,59.23,39.99,58.24z M93.79,19.6c-0.48-0.46-0.97-0.9-1.39-1.43c-0.41-0.51-1.03-0.86-1.59-1.22
		c-0.14-0.09-0.42,0.03-0.78,0.06c0.19,0.4,0.24,0.83,0.46,0.95c0.63,0.35,0.87,1.01,1.34,1.48c0.33,0.33,0.65,0.66,1,1.02
		c-0.11,0.83,0.35,1.53,0.85,2.14c0.26,0.32,0.73,0.63,1.34,0.4C95.36,21.52,94.72,20.5,93.79,19.6z M22.96,66.52
		c-0.28-0.19-0.27-0.43-0.23-0.75c0.06-0.57-0.06-1.13-0.69-1.45c-0.39,0.46-0.72,0.8-0.98,1.19c-0.32,0.46-0.68,0.92-0.86,1.44
		c-0.14,0.38-0.3,0.91,0.22,1.24c-0.01,0.47-0.18,0.95,0.16,1.37c0.05,0.07,0.15,0.1,0.29,0.19c0.23-0.2,0.47-0.41,0.7-0.61
		c0.38,0.05,0.75,0.09,1.18,0.14c0.11-0.71,0.04-1.39,0.41-1.99C23.28,67.08,23.26,66.72,22.96,66.52z M20.93,67.64
		c-0.13,0.02-0.3,0.04-0.39-0.03c-0.26-0.18-0.31-0.62-0.13-0.88c0.06-0.09,0.49-0.07,0.52,0.03c0.07,0.22,0.12,0.45,0.17,0.65
		C21.02,67.51,20.98,67.63,20.93,67.64z M53.74,24.04c-0.03-0.57-0.13-1.14-0.18-1.71c-0.05-0.52-0.05-1.04-0.13-1.55
		c-0.08-0.46-0.12-1.02-0.4-1.35c-0.37-0.45-0.16-1.04-0.53-1.43c-0.09-0.1-0.22-0.15-0.41-0.28c-0.13,0.23-0.34,0.43-0.34,0.62
		c0,0.71-0.08,1.47,0.15,2.11c0.24,0.68,0.25,1.29,0.15,1.95c-0.07,0.42-0.1,0.85-0.12,1.28c-0.04,1.21,0.02,1.28,1.21,1.78
		c0.13,0.05,0.26,0.11,0.62,0.27C53.74,25.07,53.77,24.55,53.74,24.04z M76.04,22.93c-0.87-1.25-1.88-2.41-3.09-3.36
		c-0.11-0.09-0.25-0.17-0.38-0.19c-0.12-0.02-0.3,0.01-0.38,0.1c-0.08,0.08-0.13,0.29-0.08,0.38c0.28,0.45,0.58,0.88,0.89,1.3
		c0.4,0.54,0.77,1.07,0.95,1.74c0.21,0.78,0.6,1.5,0.85,2.28c0.16,0.51,0.52,0.78,0.95,1c0.43,0.22,0.67,0.06,0.86-0.52
		c0.06-0.17,0.17-0.32,0.26-0.49C76.58,24.33,76.46,23.53,76.04,22.93z M114.18,59.43l0.13-0.13
		C114.25,59.33,114.21,59.38,114.18,59.43z M116.8,61.77c-0.51-0.78-0.97-1.61-1.46-2.42c-0.16-0.26-0.43-0.46-0.7-0.74
		c0.04,0.16,0.08,0.24,0.07,0.31c-0.02,0.17-0.1,0.29-0.25,0.33c0.03,0,0.07-0.01,0.11-0.01c0.19,0.01,0.4,0.39,0.29,0.54
		c-0.23,0.29-0.49,0.19-0.74,0c-0.01-0.14,0.01-0.26,0.06-0.35l-0.48,0.51c-0.05,0.77-0.05,1.55,0.49,2.16
		c0.26,0.29,0.49,0.53,0.64,0.91c0.13,0.32,0.57,0.5,0.78,0.8c0.45,0.63,0.98,0.7,1.6,0.37C117.42,63.3,117.31,62.56,116.8,61.77z
		 M115.02,59.35c-0.03-0.06-0.08-0.13-0.09-0.2c-0.01-0.02,0.06-0.06,0.09-0.09c0.03,0.06,0.07,0.13,0.1,0.19
		C115.09,59.29,115.05,59.32,115.02,59.35z M114.34,59.26l-0.03,0.03c0.03-0.02,0.06-0.03,0.1-0.04
		C114.39,59.26,114.36,59.26,114.34,59.26z M50.45,72.99c-0.14-0.41-0.28-0.82-0.46-1.22c-0.32-0.71-0.77-1.35-1.41-1.79
		c-0.17-0.12-0.49-0.15-0.67-0.07c-0.17,0.08-0.33,0.37-0.33,0.56c0.02,1.44,0.18,2.86,1,4.11c-0.05,0.52,0.42,0.78,0.7,0.75
		c0.77-0.09,1.11,0.41,1.54,0.85c0.16,0.17,0.4,0.25,0.85,0.51C51.21,75.25,50.84,74.12,50.45,72.99z M40.56,17.91
		c-0.47,0.14-0.61,0.41-0.63,0.78c-0.02,0.37-0.05,0.75-0.09,1.12c-0.12,1.04-0.24,2.09-0.37,3.13c-0.02,0.19-0.02,0.39-0.09,0.57
		c-0.39,1.03-0.5,2.11-0.68,3.18c-0.02,0.14-0.16,0.31-0.11,0.4c0.21,0.41,0.17,0.95,0.65,1.22c0.35,0.2,0.64,0.05,0.94-0.16
		c0.05-0.7,0.09-1.42,0.16-2.13c0.04-0.38,0.26-0.79,0.17-1.12c-0.25-0.94,0.19-1.77,0.27-2.66c0.02-0.19,0.09-0.38,0.11-0.57
		C41.03,20.43,41.13,19.19,40.56,17.91z M44.98,27.64c0.34-2.07,0.53-4.16,0.52-6.25c0-0.71-0.03-1.43-0.1-2.14
		c-0.04-0.38-0.15-0.76-0.55-0.95c-0.47,0.15-0.48,0.55-0.49,0.94c-0.01,0.75,0.19,1.52-0.2,2.24c0.1,0.96-0.23,1.88-0.23,2.83
		c0,0.7,0.01,1.42-0.15,2.09c-0.14,0.59-0.12,1.12,0.03,1.72c0.19,0.11,0.39,0.23,0.59,0.35c0.19,0.1,0.28,0.42,0.65,0.25
		C45.03,28.37,44.92,27.99,44.98,27.64z M64.68,23.46c-0.2-0.32-0.24-0.6-0.27-0.93c-0.05-0.53-0.1-1.05-0.18-1.58
		c-0.11-0.7-0.13-1.46-0.42-2.09c-0.24-0.51-0.43-1.03-0.65-1.54c-0.16-0.39-0.66-0.55-0.97-0.36c-0.25,0.15-0.32,0.5-0.2,0.86
		c0.29,0.93,0.57,1.83,0.49,2.87c-0.08,0.97,0.25,1.98,0.44,2.97c0.07,0.37,0.2,0.75,0.39,1.07c0.36,0.61,0.83,1.1,1.69,0.76
		C65.19,24.8,65.06,24.07,64.68,23.46z M82.03,13.03c-0.3-0.67-0.86-1.26-1.4-1.79c-0.42-0.42-0.97-0.72-1.48-1.05
		c-0.11-0.07-0.3-0.1-0.41-0.05c-0.32,0.13-0.6,0.13-0.95,0.02c-0.32-0.1-0.76,0.22-0.74,0.51c0.06,0.79,0.04,1.62,0.82,2.17
		c0.81,0.58,1.65,1.11,2.32,1.87c0.14,0.16,0.41,0.25,0.63,0.28c0.42,0.04,0.85,0.01,1.31,0.01C82.48,14.2,82.26,13.54,82.03,13.03z
		 M74.41,33.14c-0.12-0.6-0.06-1.27-0.32-1.8c-0.47-0.97-0.87-2.01-1.71-2.76c-0.26-0.23-0.51-0.4-0.83-0.31
		c-0.41,0.82-0.42,1.69-0.5,2.54c-0.04,0.4,0.01,0.79,0.29,1.08c0.3,0.31,0.31,0.63,0.23,1.03c-0.04,0.2,0.12,0.45,0.2,0.71
		c0.2,0.04,0.39,0.06,0.55,0.13c0.16,0.07,0.43,0.24,0.42,0.31c-0.14,0.51,0.43,0.58,0.53,0.9c0.16,0.52,0.45,0.79,1.03,0.78
		c0.13-0.53-0.09-1.18,0.52-1.51C74.63,33.76,74.48,33.46,74.41,33.14z M61.12,41.43c-0.03-0.12-0.11-0.29-0.06-0.37
		c0.26-0.4,0.06-0.73-0.11-1.08c-0.27-0.58-0.38-1.2-0.31-1.83c0.07-0.57,0.17-1.08-0.09-1.68c-0.21-0.49-0.05-1.13-0.15-1.69
		c-0.13-0.65-0.44-1.26-0.4-1.96c0.01-0.15-0.19-0.31-0.29-0.47c-0.68,0.25-0.96,0.82-1.37,1.31c0.17,0.51,0.36,1,0.51,1.51
		c0.08,0.27,0.14,0.56,0.18,0.84c0.06,0.47,0.1,0.95,0.13,1.42c0.03,0.58,0.1,1.16,0.03,1.73c-0.13,1.09,0.14,2.1,0.51,3.09
		c0.09,0.25,0.31,0.46,0.45,0.66C61.38,42.55,61.4,42.51,61.12,41.43z M35.34,20.83v-1.16c-0.87-0.4-1.25-1.49-2.3-1.58
		c-0.07,0.04-0.14,0.06-0.15,0.09c-0.42,0.83-0.98,1.62-0.92,2.63c0.01,0.13-0.03,0.32-0.12,0.39c-0.7,0.58-0.56,1.49-0.86,2.22
		c-0.27,0.66,0.06,1.31,0.48,1.87c0.29,0.38,0.79,0.61,1.13,0.45c0.69-0.31,1.45-0.32,2.06-0.52c0.02-0.42-0.05-0.77,0.08-1.03
		c0.18-0.39,0.12-0.71,0.05-1.1c-0.05-0.29,0.14-0.62,0.21-0.92c-0.28-0.21-0.69-0.38-0.44-0.76
		C34.71,21.16,35.06,21.03,35.34,20.83z M2,65.45L2,65.45c0,0,0.01,0.04,0.01,0.04l0.01-0.05L2,65.45z M9.85,103.74
		C9.85,103.74,9.85,103.74,9.85,103.74c0,0.01-0.01,0.03-0.01,0.04l0.03-0.04C9.87,103.74,9.85,103.74,9.85,103.74z M111.49,87.45
		c-0.04-0.13-0.22-0.26-0.36-0.3c-0.11-0.03-0.19-0.01-0.25,0.05c-0.08,0.12-0.05,0.27-0.05,0.41c0.07,0.1,0.19,0.13,0.33,0.13
		C111.35,87.75,111.56,87.69,111.49,87.45z M123.86,42.77c-0.02-0.25-0.14-0.44-0.53-0.45c-0.05,0.2-0.08,0.33-0.11,0.47
		c-0.04,0.2-0.01,0.38,0.22,0.43C123.65,43.26,123.88,43.02,123.86,42.77z M101.48,108.16c-0.09-0.01-0.17-0.04-0.25-0.08
		c-1.28,0.46-1.65,1.54-1.8,2.7c-0.2,0.05-0.33,0.09-0.54,0.15c0.21,0.75-0.31,1.37-0.5,2.29c0.41-0.45,0.63-0.77,0.92-0.98
		c0.42-0.31,0.31-0.75,0.43-1.14c0.03-0.12,0.17-0.22,0.28-0.31c0.36-0.28,0.73-0.55,1.1-0.83c-0.33-0.24-0.38-0.55-0.14-0.86
		c0.14-0.18,0.42-0.26,0.55-0.44C101.6,108.55,101.5,108.33,101.48,108.16z M26.63,49.27C26.63,49.27,26.63,49.27,26.63,49.27
		c-0.01,0.1,0.02,0.16,0.07,0.2C26.68,49.4,26.66,49.33,26.63,49.27z M89.73,83.49c-0.14-0.06-0.28-0.07-0.4-0.01
		c0.18,0.07,0.33,0.11,0.49,0.14C89.8,83.56,89.77,83.51,89.73,83.49z M122.72,83.34c-0.09-0.13-0.26-0.24-0.41-0.28
		c-0.11-0.03-0.25,0.07-0.5,0.15c0.14,0.19,0.2,0.34,0.3,0.4c0.14,0.07,0.33,0.11,0.48,0.08C122.67,83.67,122.77,83.41,122.72,83.34
		z M120.85,82.87c-0.09,0.19-0.14,0.31-0.2,0.44c-0.08,0.15-0.26,0.32,0.05,0.4c0.09,0.02,0.25-0.08,0.32-0.17
		C121.17,83.35,121.26,83.13,120.85,82.87z M115.34,59.35c-0.16-0.26-0.43-0.46-0.7-0.74c0.04,0.16,0.08,0.24,0.07,0.31
		c-0.02,0.17-0.1,0.29-0.25,0.33c0.03,0,0.07-0.01,0.11-0.01c0.19,0.01,0.4,0.39,0.29,0.54c-0.23,0.29-0.49,0.19-0.74,0
		c-0.01-0.14,0.01-0.26,0.06-0.35l-0.48,0.51c-0.05,0.77-0.05,1.55,0.49,2.16c0.26,0.29,0.49,0.53,0.64,0.91
		c0.13,0.32,0.57,0.5,0.78,0.8c0.45,0.63,0.98,0.7,1.6,0.37c0.21-0.87,0.1-1.62-0.41-2.4C116.29,60.99,115.83,60.16,115.34,59.35z
		 M115.02,59.35c-0.03-0.06-0.08-0.13-0.09-0.2c-0.01-0.02,0.06-0.06,0.09-0.09c0.03,0.06,0.07,0.13,0.1,0.19
		C115.09,59.29,115.05,59.32,115.02,59.35z M114.34,59.26l-0.03,0.03c0.03-0.02,0.06-0.03,0.1-0.04
		C114.39,59.26,114.36,59.26,114.34,59.26z M114.18,59.43l0.13-0.13C114.25,59.33,114.21,59.38,114.18,59.43z M108.81,28.86
		c-0.12-0.13-0.31-0.31-0.29-0.44c0.1-0.66-0.41-0.89-0.8-1.2c-0.11-0.09-0.36-0.01-0.57-0.01c-0.09,0.57,0.05,1.06,0.11,1.57
		c0.07,0.51,0.31,0.75,0.61,1.02c0.75,0.68,0.85,0.68,1.85-0.05C109.42,29.44,109.11,29.16,108.81,28.86z M100.72,29.68
		c-0.6-0.52-1.17-1.18-2.25-0.99c0.59,0.75,1.08,1.44,1.64,2.05c0.37,0.41,0.63,0.86,0.66,1.38c0.04,0.79,0.32,1.34,1.07,1.65
		c0.25,0.1,0.46,0.32,0.68,0.49c0.21-0.07,0.39-0.12,0.57-0.19c0.04-0.01,0.06-0.06,0.09-0.1C102.63,31.5,102.51,31.23,100.72,29.68
		z M93.79,19.6c-0.48-0.46-0.97-0.9-1.39-1.43c-0.41-0.51-1.03-0.86-1.59-1.22c-0.14-0.09-0.42,0.03-0.78,0.06
		c0.19,0.4,0.24,0.83,0.46,0.95c0.63,0.35,0.87,1.01,1.34,1.48c0.33,0.33,0.65,0.66,1,1.02c-0.11,0.83,0.35,1.53,0.85,2.14
		c0.26,0.32,0.73,0.63,1.34,0.4C95.36,21.52,94.72,20.5,93.79,19.6z M90.72,28.3c-0.13-0.17-0.02-0.53-0.02-0.88
		c-0.6-0.42-0.84-1.3-1.67-1.66c-0.26,0.17-0.49,0.33-0.86,0.57c0.54,0.96,0.84,1.85,1.04,2.8c0.11,0.54,0.42,1.07,0.74,1.53
		c0.2,0.29,0.57,0.49,0.9,0.68c0.21,0.12,0.58-0.12,0.51-0.33C91.07,30.13,91.34,29.13,90.72,28.3z M89.73,83.49
		c-0.14-0.06-0.28-0.07-0.4-0.01c0.18,0.07,0.33,0.11,0.49,0.14C89.8,83.56,89.77,83.51,89.73,83.49z M87.78,62.98
		c-0.29-0.14,0-0.44-0.08-0.61c-0.21-0.42-0.65-0.53-1.07-0.64c-0.4-0.1-0.76-0.06-0.99,0.29c0.09,0.29,0.16,0.57,0.27,0.82
		c0.12,0.29,0,0.68,0.37,0.89c0.38,0.21-0.05,0.57,0.08,0.73c0.46,0.58,0.45,1.46,1.25,1.82c0.25,0.11,0.36,0.52,0.59,0.74
		c0.11,0.11,0.32,0.11,0.62,0.19c-0.2-1.19-0.43-2.26-0.55-3.33C88.23,63.47,88.19,63.17,87.78,62.98z M82.12,19.85
		c-0.37-0.3-0.74-0.6-1.13-0.88c-0.31-0.21-0.64-0.38-1.1-0.65c-0.21,0.53-0.16,0.81,0.07,1.12c0.7,0.94,1.08,1.98,1.01,3.19
		c-0.04,0.65,0.41,1.15,0.88,1.6c0.37,0.03,0.74,0.07,1.17,0.11c0-0.93-0.05-1.79,0.01-2.64C83.09,20.87,82.7,20.32,82.12,19.85z
		 M80.2,14.71c0.14,0.16,0.41,0.25,0.63,0.28c0.42,0.04,0.85,0.01,1.31,0.01c0.33-0.8,0.11-1.45-0.12-1.97
		c-0.3-0.67-0.86-1.26-1.4-1.79c-0.42-0.42-0.97-0.72-1.48-1.05c-0.11-0.07-0.3-0.1-0.41-0.05c-0.32,0.13-0.6,0.13-0.95,0.02
		c-0.32-0.1-0.76,0.22-0.74,0.51c0.06,0.79,0.04,1.62,0.82,2.17C78.68,13.41,79.53,13.95,80.2,14.71z M76.16,70.07
		c-0.15-0.48-0.51-0.77-1.02-0.89c-0.11,0.18-0.25,0.3-0.25,0.42c0.01,1.39,0.03,2.77,0.89,3.98c0.31,0.43,0.81,0.77,0.83,1.41
		c0.01,0.14,0.29,0.39,0.63,0.18c-0.12-0.72-0.34-1.45-0.34-2.19C76.91,71.93,76.47,71.02,76.16,70.07z M73.01,21.15
		c0.4,0.54,0.77,1.07,0.95,1.74c0.21,0.78,0.6,1.5,0.85,2.28c0.16,0.51,0.52,0.78,0.95,1c0.43,0.22,0.67,0.06,0.86-0.52
		c0.06-0.17,0.17-0.32,0.26-0.49c-0.3-0.83-0.42-1.64-0.84-2.24c-0.87-1.25-1.88-2.41-3.09-3.36c-0.11-0.09-0.25-0.17-0.38-0.19
		c-0.12-0.02-0.3,0.01-0.38,0.1c-0.08,0.08-0.13,0.29-0.08,0.38C72.4,20.3,72.7,20.73,73.01,21.15z M74.09,31.34
		c-0.47-0.97-0.87-2.01-1.71-2.76c-0.26-0.23-0.51-0.4-0.83-0.31c-0.41,0.82-0.42,1.69-0.5,2.54c-0.04,0.4,0.01,0.79,0.29,1.08
		c0.3,0.31,0.31,0.63,0.23,1.03c-0.04,0.2,0.12,0.45,0.2,0.71c0.2,0.04,0.39,0.06,0.55,0.13c0.16,0.07,0.43,0.24,0.42,0.31
		c-0.14,0.51,0.43,0.58,0.53,0.9c0.16,0.52,0.45,0.79,1.03,0.78c0.13-0.53-0.09-1.18,0.52-1.51c-0.18-0.48-0.33-0.78-0.4-1.1
		C74.29,32.54,74.35,31.86,74.09,31.34z M73.96,59.3c-0.1-0.07-0.34-0.11-0.37-0.06c-0.08,0.13-0.15,0.32-0.12,0.46
		c0.04,0.17,0.18,0.31,0.33,0.55C74.28,59.71,74.3,59.53,73.96,59.3z M71.07,13c-0.36-1.28-1.09-2.22-2.74-2.43
		c0.2,0.68,0.38,1.22,0.5,1.76c0.17,0.73,0.77,1.06,1.32,1.42c0.16,0.11,0.55,0.11,0.67,0C70.98,13.57,71.13,13.22,71.07,13z
		 M68.35,61.96c0.22,0,0.44,0,0.89,0c-0.34-0.23-0.49-0.33-0.64-0.43C68.51,61.68,68.43,61.82,68.35,61.96z M67.06,38.15
		c-0.01,0.71,0.19,1.26,0.48,1.76c0.36,0.62,0.68,0.7,1.79,0.43c-0.67-1.01-0.73-2.12-1.25-3.16
		C67.68,37.57,67.35,37.88,67.06,38.15z M64.41,22.53c-0.05-0.53-0.1-1.05-0.18-1.58c-0.11-0.7-0.13-1.46-0.42-2.09
		c-0.24-0.51-0.43-1.03-0.65-1.54c-0.16-0.39-0.66-0.55-0.97-0.36c-0.25,0.15-0.32,0.5-0.2,0.86c0.29,0.93,0.57,1.83,0.49,2.87
		c-0.08,0.97,0.25,1.98,0.44,2.97c0.07,0.37,0.2,0.75,0.39,1.07c0.36,0.61,0.83,1.1,1.69,0.76c0.2-0.7,0.08-1.43-0.31-2.04
		C64.48,23.14,64.44,22.85,64.41,22.53z M63.81,4.69c-0.08-0.01-0.17-0.03-0.25-0.05c-0.01,0.01-0.02,0.02-0.03,0.03
		c0.06,0.03,0.13,0.07,0.19,0.1C63.75,4.74,63.78,4.71,63.81,4.69z M61.06,41.06c0.26-0.4,0.06-0.73-0.11-1.08
		c-0.27-0.58-0.38-1.2-0.31-1.83c0.07-0.57,0.17-1.08-0.09-1.68c-0.21-0.49-0.05-1.13-0.15-1.69c-0.13-0.65-0.44-1.26-0.4-1.96
		c0.01-0.15-0.19-0.31-0.29-0.47c-0.68,0.25-0.96,0.82-1.37,1.31c0.17,0.51,0.36,1,0.51,1.51c0.08,0.27,0.14,0.56,0.18,0.84
		c0.06,0.47,0.1,0.95,0.13,1.42c0.03,0.58,0.1,1.16,0.03,1.73c-0.13,1.09,0.14,2.1,0.51,3.09c0.09,0.25,0.31,0.46,0.45,0.66
		c1.22-0.37,1.24-0.41,0.96-1.49C61.09,41.31,61.01,41.14,61.06,41.06z M54.52,9.21c-0.3-0.28-0.8-0.36-1.06-0.2
		c-0.33,0.21-0.7,1.12-0.53,1.41c0.33,0.53,0.69,1.03,1.06,1.53c0.17,0.22,0.6,0.19,0.75-0.06c0.15-0.24,0.28-0.5,0.33-0.77
		c0.07-0.37,0.06-0.75,0.08-1.2C54.98,9.7,54.76,9.44,54.52,9.21z M53.55,22.33c-0.05-0.52-0.05-1.04-0.13-1.55
		c-0.08-0.46-0.12-1.02-0.4-1.35c-0.37-0.45-0.16-1.04-0.53-1.43c-0.09-0.1-0.22-0.15-0.41-0.28c-0.13,0.23-0.34,0.43-0.34,0.62
		c0,0.71-0.08,1.47,0.15,2.11c0.24,0.68,0.25,1.29,0.15,1.95c-0.07,0.42-0.1,0.85-0.12,1.28c-0.04,1.21,0.02,1.28,1.21,1.78
		c0.13,0.05,0.26,0.11,0.62,0.27c0-0.67,0.03-1.19-0.01-1.7C53.7,23.47,53.61,22.9,53.55,22.33z M49.99,71.77
		c-0.32-0.71-0.77-1.35-1.41-1.79c-0.17-0.12-0.49-0.15-0.67-0.07c-0.17,0.08-0.33,0.37-0.33,0.56c0.02,1.44,0.18,2.86,1,4.11
		c-0.05,0.52,0.42,0.78,0.7,0.75c0.77-0.09,1.11,0.41,1.54,0.85c0.16,0.17,0.4,0.25,0.85,0.51c-0.48-1.44-0.85-2.58-1.23-3.7
		C50.31,72.58,50.17,72.16,49.99,71.77z M45.5,21.38c0-0.71-0.03-1.43-0.1-2.14c-0.04-0.38-0.15-0.76-0.55-0.95
		c-0.47,0.15-0.48,0.55-0.49,0.94c-0.01,0.75,0.19,1.52-0.2,2.24c0.1,0.96-0.23,1.88-0.23,2.83c0,0.7,0.01,1.42-0.15,2.09
		c-0.14,0.59-0.12,1.12,0.03,1.72c0.19,0.11,0.39,0.23,0.59,0.35c0.19,0.1,0.28,0.42,0.65,0.25c-0.03-0.35-0.14-0.73-0.08-1.08
		C45.32,25.57,45.5,23.48,45.5,21.38z M39.94,18.69c-0.02,0.37-0.05,0.75-0.09,1.12c-0.12,1.04-0.24,2.09-0.37,3.13
		c-0.02,0.19-0.02,0.39-0.09,0.57c-0.39,1.03-0.5,2.11-0.68,3.18c-0.02,0.14-0.16,0.31-0.11,0.4c0.21,0.41,0.17,0.95,0.65,1.22
		c0.35,0.2,0.64,0.05,0.94-0.16c0.05-0.7,0.09-1.42,0.16-2.13c0.04-0.38,0.26-0.79,0.17-1.12c-0.25-0.94,0.19-1.77,0.27-2.66
		c0.02-0.19,0.09-0.38,0.11-0.57c0.12-1.24,0.22-2.49-0.34-3.76C40.09,18.05,39.95,18.32,39.94,18.69z M39.61,57.02
		c-0.08-0.17-0.37-0.34-0.57-0.34c-0.29,0-0.33,0.34-0.28,0.54c0.04,0.18,0.25,0.37-0.06,0.41c-0.7,0.1-0.82,0.59-0.8,1.15
		c0.01,0.38,0.12,0.75,0.19,1.12c0.06,0.28,0.17,0.56,0.18,0.84c0.01,0.27-0.09,0.55-0.16,0.92c0.52,0.18,1.22-0.09,1.52,0.72
		c0.35-0.51,0.58-0.85,0.83-1.21c-0.15-0.94-0.29-1.93-0.47-2.92C39.91,57.82,39.79,57.4,39.61,57.02z M36.09,31.91
		c-0.21-0.33-0.39-0.61-0.53-0.83c-0.51-0.2-0.96-0.37-1.4-0.55c0,0,0,0,0-0.01c-0.4,0.43-0.51,0.96-0.45,1.52
		c0.07,0.62,0.23,1.23,0.36,1.92c0.68,0.48,1.4,1,2.15,1.53c0.42-0.66,0.18-1.3,0.1-1.92C35.5,33.11,35.78,32.48,36.09,31.91z
		 M34.74,24.2c0.18-0.39,0.12-0.71,0.05-1.1c-0.05-0.29,0.14-0.62,0.21-0.92c-0.28-0.21-0.69-0.38-0.44-0.76
		c0.16-0.25,0.51-0.38,0.79-0.58v-1.16c-0.87-0.4-1.25-1.49-2.3-1.58c-0.07,0.04-0.14,0.06-0.15,0.09
		c-0.42,0.83-0.98,1.62-0.92,2.63c0.01,0.13-0.03,0.32-0.12,0.39c-0.7,0.58-0.56,1.49-0.86,2.22c-0.27,0.66,0.06,1.31,0.48,1.87
		c0.29,0.38,0.79,0.61,1.13,0.45c0.69-0.31,1.45-0.32,2.06-0.52C34.68,24.81,34.62,24.46,34.74,24.2z M34.19,30.42
		c-0.01,0.03-0.03,0.08-0.03,0.1c0.02-0.02,0.03-0.04,0.05-0.06C34.22,30.45,34.2,30.43,34.19,30.42z M26.63,49.28
		c-0.01,0.1,0.02,0.16,0.07,0.2C26.68,49.4,26.66,49.33,26.63,49.28C26.63,49.27,26.63,49.27,26.63,49.28z M22.96,66.52
		c-0.28-0.19-0.27-0.43-0.23-0.75c0.06-0.57-0.06-1.13-0.69-1.45c-0.39,0.46-0.72,0.8-0.98,1.19c-0.32,0.46-0.68,0.92-0.86,1.44
		c-0.14,0.38-0.3,0.91,0.22,1.24c-0.01,0.47-0.18,0.95,0.16,1.37c0.05,0.07,0.15,0.1,0.29,0.19c0.23-0.2,0.47-0.41,0.7-0.61
		c0.38,0.05,0.75,0.09,1.18,0.14c0.11-0.71,0.04-1.39,0.41-1.99C23.28,67.08,23.26,66.72,22.96,66.52z M20.93,67.64
		c-0.13,0.02-0.3,0.04-0.39-0.03c-0.26-0.18-0.31-0.62-0.13-0.88c0.06-0.09,0.49-0.07,0.52,0.03c0.07,0.22,0.12,0.45,0.17,0.65
		C21.02,67.51,20.98,67.63,20.93,67.64z M15.72,56.55c-0.07,0.38,0.14,0.8-0.23,1.17c-0.22,0.22-0.25,0.6,0.11,0.88
		c0.16,0.13,0.06,0.31-0.07,0.49c-0.13,0.17-0.2,0.4-0.23,0.62c-0.04,0.31-0.01,0.64-0.01,0.95c0.57,0.05,0.24,0.66,0.54,0.87
		c0.1,0.07,0.32,0.12,0.4,0.07c0.34-0.26,0.75-0.51,0.86-0.95c0.16-0.59,0.3-1.19,0.36-1.8c0.06-0.65,0.01-1.31,0.01-2.08
		C16.85,56.86,16.41,56.13,15.72,56.55z M134.47,84.38c-0.31,0.05-0.59,0.1-0.87,0.15c-0.09-0.76-0.09-0.76,0.65-0.89
		c0.07-0.01,0.13-0.09,0.23-0.17c-0.08-0.11-0.17-0.21-0.24-0.32c-0.09-0.12-0.16-0.25-0.25-0.37c-0.13,0.16-0.22,0.27-0.32,0.4
		c-0.25-0.3-0.54-0.55-0.24-0.99c0.09-0.14,0.19-0.41,0.13-0.5c-0.33-0.46-0.1-0.9-0.06-1.33c0.19-0.28,0.72-0.11,0.72-0.68
		c-0.33-0.09-0.67-0.18-1.01-0.28c0.23-0.68,0.48-1.34,0.26-1.98c-0.15-0.43-0.19-0.83-0.14-1.26c0.06-0.49-0.11-0.94-0.19-1.41
		c-0.11-0.67-0.79-1.13-0.61-1.88c-0.36-1.19-0.69-2.4-1.1-3.57c-0.18-0.5-0.35-0.99-0.38-1.51c-0.05-0.73-0.28-1.35-0.93-1.77
		c-0.03-0.02,0-0.14,0.01-0.22c0.17-0.06,0.35-0.12,0.66-0.24c-0.35-0.18-0.58-0.3-0.84-0.44c0.06-0.25,0.12-0.52,0.18-0.78
		c-0.54-0.15-0.13-0.71-0.41-0.97c-0.15-0.13-0.28-0.28-0.1-0.48c0.31-0.35,0.22-0.65-0.02-1.03c-0.28-0.44-0.51-0.9-0.85-1.32
		c-0.26-0.32-0.19-0.69,0.17-1.01c0.18,0.22,0.32,0.4,0.46,0.57c0.02-0.22,0-0.45-0.12-0.52c-0.44-0.27-0.62-0.72-0.84-1.14
		c-0.21-0.4-0.03-0.92-0.41-1.27c0.3-0.45-0.21-0.89,0-1.35c0.29-0.65-0.41-1.11-0.35-1.72c0-0.01-0.15-0.03-0.23-0.05
		c-0.19,0.18,0.23,0.62-0.34,0.67c-0.16-0.31-0.34-0.65-0.49-0.94c0.14-0.23,0.24-0.39,0.31-0.51c-0.29-0.78-0.56-1.52-0.85-2.29
		h-0.86c0-0.29-0.09-0.57,0.02-0.74c0.27-0.44,0.17-0.91,0-1.25c-0.41-0.77-0.56-1.58-0.6-2.38c-0.39-0.2-0.71-0.37-1.03-0.53
		c0.17-0.35,0.31-0.58-0.13-0.75c-0.35-0.14-0.38-0.49-0.25-0.84c0.23-0.03,0.46-0.06,0.68-0.08c0.14-0.52,0.09-0.9-0.36-1.13
		c-0.29-0.1-0.46,0.43-0.76,0.09c0.01-0.27,0.54-0.36,0.25-0.71c-0.2-0.24-0.45-0.45-0.76-0.75v-1.49c-0.44-0.17-0.86-0.34-1.3-0.51
		c0.05-0.48,0.1-0.94,0.15-1.44c-0.19-0.23-0.39-0.57-0.68-0.79c-0.36-0.27-0.52-0.71-0.43-1c0.21-0.67-0.29-0.93-0.63-1.11
		c-0.34-0.18-0.51-0.36-0.61-0.69c-0.11-0.35-0.24-0.7-0.37-1.05c-0.04-0.12-0.08-0.34-0.11-0.34c-0.68,0.01-0.76-0.59-1.08-0.99
		c0.48-0.02,0.58-0.05,0.54-0.21c-0.04-0.16-0.14-0.38-0.27-0.43c-0.3-0.1-0.64-0.11-0.97-0.16v-1.72
		c-0.24,0.26-0.38,0.42-0.53,0.59c-0.4-0.28-0.53-0.74-0.78-1.12c-0.21-0.33,0.09-0.93-0.53-1.01c-0.18-0.44-0.35-0.88-0.53-1.31
		c-0.35-0.13-0.71-0.26-1.01-0.37c-0.28-1.28-1.07-2-2.15-2.5c0.08-0.62-0.12-1.22-0.61-1.52c-0.6-0.37-0.94-0.95-1.38-1.42
		c-0.47-0.51-1.07-1.07-1-1.93c0.01-0.15-0.19-0.31-0.29-0.48c-0.42,0.03-0.8,0.06-1.18,0.07c-0.08,0-0.17-0.08-0.26-0.12
		c0.05-0.28,0.11-0.55,0.18-0.91c-0.33-0.31-0.64-0.67-1.02-0.95c-0.26-0.19-0.61-0.25-0.89-0.42c-0.27-0.16-0.45-0.53-0.86-0.34
		c-0.18-0.23-0.32-0.51-0.54-0.69c-0.24-0.2-0.55-0.32-0.83-0.48c0.05-0.14,0.11-0.31,0.18-0.48c0.08-0.2,0.18-0.41,0.25-0.57
		c-0.11-0.11-0.14-0.17-0.17-0.17c-0.28-0.04-0.58-0.04-0.85-0.12c-0.63-0.18-1.14-0.56-1.65-0.96c0.09-0.54-0.38-0.58-0.69-0.78
		c-0.9-0.6-1.9-1.07-2.61-1.92c-0.18-0.21-0.4-0.21-0.65-0.22c-0.23,0-0.46-0.07-0.68-0.14c-0.03-0.01,0.01-0.22,0.02-0.35
		c-0.67-0.14-1.46-0.12-1.88-0.85c-0.23,0.1-0.41,0.18-0.56,0.24c-0.54-0.33-1.07-0.65-1.59-0.98c-0.44-0.28-0.88-0.56-1.32-0.84
		c-0.18-0.11-0.04-0.41-0.24-0.45c-0.3-0.07-0.66-0.19-0.91-0.09c-0.43,0.18-0.71,0.08-1.05-0.18c-0.26-0.19-0.59-0.3-0.89-0.42
		c-0.49-0.2-1.04-0.31-1.46-0.61c-0.58-0.41-1.23-0.44-1.85-0.51c-0.39-0.04-0.76-0.05-1.07-0.3c-0.49-0.38-1.12-0.43-1.66-0.7
		c-0.28-0.14-0.65-0.13-0.98-0.18c-0.51-0.09-1.07-0.05-1.39-0.6c-0.05-0.09-0.31-0.16-0.37-0.11c-0.37,0.31-0.7,0.08-1.08,0
		C76.2,2.6,75.24,2.37,74.3,2.41c-0.86,0.03-1.68-0.46-2.54-0.11c-0.1,0.04-0.29-0.05-0.4-0.13c-0.56-0.39-1.14-0.4-1.78-0.25
		c-0.24,0.06-0.55-0.09-0.81-0.19c-0.57-0.22-2.58-0.64-3.19-0.59c-1.15,0.09-2.3,0.05-3.44-0.08c-0.78-0.09-1.47-0.06-2.15,0.36
		c-0.27,0.16-0.64,0.17-0.97,0.22c-0.32,0.04-0.65,0.04-0.97,0.07c-0.12-0.15-0.23-0.31-0.36-0.47c-0.51,0.15-1.01,0.29-1.57,0.45
		c-0.39-0.31-0.84-0.6-1.4-0.32c-0.04,0.02-0.09,0.02-0.14,0.02c-1.04-0.04-2.07-0.13-3.03,0.46c-0.26,0.16-0.65,0.09-0.97,0.13
		C50.23,2,49.88,2.02,49.57,2.13c-1.84,0.65-3.67,1.33-5.48,1.98c-0.02,0.46-0.04,0.83-0.07,1.38c-0.4-0.3-0.68-0.52-1-0.75
		c-0.57,0.16-1.17,0.32-1.77,0.5c-0.13,0.04-0.29,0.12-0.36,0.23c-0.45,0.72-1.25,0.84-1.93,1.17C38.01,7.11,37,7.48,36.1,8.1
		c-0.59,0.41-1.22,0.8-1.89,1.03c-0.45,0.15-0.68,0.49-1.04,0.69c-0.47,0.26-0.16,0.77-0.39,1.13c-0.25-0.18-0.44-0.31-0.59-0.42
		c-0.53,0.3-1.04,0.55-1.51,0.86c-0.55,0.37-1.19,0.64-1.57,1.24c-0.12,0.18-0.32,0.35-0.52,0.44c-0.7,0.3-1.2,0.83-1.58,1.44
		c-0.26,0.43-0.64,0.76-1.03,0.91c-0.42,0.17-0.58,0.43-0.77,0.76c-0.21,0.36-0.43,0.81-0.77,0.97c-0.47,0.23-0.71,0.59-0.97,0.97
		c-0.1,0.15-0.21,0.38-0.34,0.4c-0.35,0.05-0.44,0.23-0.54,0.54c-0.09,0.3-0.36,0.54-0.53,0.78c-0.3-0.04-0.52-0.08-0.7-0.1
		c-0.11,0.33-0.2,0.58-0.29,0.84c-0.53-0.09-0.72,0.42-1.07,0.63c-0.49,0.3-0.13,0.91-0.33,1.28c-1.13,0.43-1.25,0.55-1.7,1.55
		c-0.07,0.16-0.21,0.32-0.34,0.43c-0.22,0.18-0.47,0.34-0.69,0.49c0.03,0.26,0.05,0.47,0.07,0.67c-0.33,0.16-0.62,0.31-0.91,0.45
		c-0.11,0.71-0.28,1.34-1.08,1.55c-0.12,0.03-0.27,0.16-0.31,0.28c-0.38,0.96-1.43,1.53-1.57,2.64c-0.02,0.14-0.25,0.26-0.37,0.39
		c-0.61,0.67-1.19,1.36-0.79,2.36c-0.2,0.11-0.4,0.22-0.59,0.32c0.41,0.67-0.23,0.88-0.53,1.26c-0.43,0.56-0.86,1.13-1.26,1.71
		c-0.15,0.22-0.37,0.53-0.31,0.74c0.1,0.38-0.08,0.47-0.32,0.65c-0.25,0.19-0.42,0.5-0.6,0.71c0.05,0.17,0.06,0.27,0.1,0.36
		c0.16,0.38,0.27,0.72-0.25,0.94C8.08,40.07,8,40.32,7.96,40.49c-0.07,0.37-0.1,0.75-0.12,0.93C7.46,41.83,7.01,42.1,7,42.38
		c-0.02,0.65-0.36,1.13-0.72,1.73c0.28-0.01,0.42-0.01,0.55-0.03c0.31-0.06,0.49,0.11,0.46,0.38c-0.06,0.45-0.16,0.9-0.26,1.35
		c-0.03,0.13-0.15,0.23-0.23,0.36c-0.38-0.03-0.75-0.06-1.11-0.09c0,0.27,0.07,0.5-0.01,0.65c-0.42,0.79-0.4,1.68-0.6,2.51
		c-0.06,0.23,0,0.57-0.14,0.69c-0.63,0.53-0.48,1.33-0.76,1.98C4.13,52,4.18,52.11,4.19,52.2c0.16,0.17,0.31,0.35,0.52,0.58
		c-0.31,0.11-0.56,0.2-0.8,0.29c0.02,0.15,0.01,0.31,0.07,0.43c0.14,0.29,0.33,0.57,0.48,0.86c0.04,0.07,0,0.18-0.01,0.27
		c-0.22,0.07-0.43,0.15-0.64,0.22c0.04,0.79,0.4,1.62-0.41,2.2c0.12,0.26,0.21,0.47,0.31,0.69c-0.25,0.29-0.51,0.56-0.73,0.86
		c-0.06,0.08-0.07,0.29-0.01,0.37c0.3,0.41-0.27,0.55-0.25,0.83c0.19,0.16,0.5,0.3,0.51,0.45c0.01,0.31-0.07,0.69-0.56,0.59
		c-0.04-0.01-0.06-0.08-0.09-0.12c-0.01,0.09-0.03,0.18-0.04,0.27c-0.04,0.65-0.09,1.29,0.34,1.88c0.15,0.21,0.15,0.54,0.22,0.78
		c-0.2,0.17-0.35,0.29-0.49,0.4c0.14,0.13,0.27,0.25,0.5,0.46C2.71,64.84,2.36,65.14,2,65.45l0.02-0.02
		c0.15,0.08,0.42,0.14,0.44,0.25c0.09,0.46,0.12,0.93,0.17,1.38c-0.27,0.3-0.52,0.57-0.77,0.85c0.31,0.32,0.62,0.65,0.61,1.14
		c-0.19,0.12-0.37,0.23-0.55,0.35c0.26,0.42-0.35,0.76-0.11,1.18c0.21-0.09,0.43-0.17,0.65-0.27c0.39,0.17,0.16,0.44,0.13,0.78
		c-0.38-0.08-0.68-0.15-0.98-0.21c-0.13,0.2-0.36,0.38-0.18,0.64c0.33,0.49,0.42,1.15,1.1,1.41c0.29,0.11,0.15,0.48-0.23,0.59
		c-0.13,0.04-0.26,0.04-0.43,0.06c0.23,0.25,0.44,0.47,0.71,0.76c-0.42,0.21-0.74,0.37-1.07,0.54c0.27,0.5,0.08,1.16,0.82,1.29
		c0.25,0.04,0.33,0.41,0.12,0.59c-0.36,0.3-0.31,0.67-0.33,1.05c-0.01,0.23-0.03,0.46-0.05,0.68c0.87,0.41,0.83,0.79-0.12,1.63
		c0.18,0.43,0.36,0.86,0.55,1.29c-0.28,0.13-0.65,0.21-0.65,0.31c-0.02,0.55-0.6,0.74-0.76,1.29c0.33,0.57,0.5,1.24,0.29,1.86
		c0.64,0.4,1.19,0.75,1.74,1.09c0.74-0.63,1.55-0.49,2.42-0.26c0.02,0.71-0.23,1.47,0.42,2.01c0.27-0.05,0.52-0.06,0.74-0.14
		c0.56-0.21,1.21-0.1,1.67-0.65c0.23-0.28,0.68-0.29,1.08-0.11c0.51,0.23,1.01,0.25,1.51-0.07c0.89-0.58,1.88-0.63,2.9-0.43
		c0.44,0.08,0.84,0.12,1.24-0.18c0.15-0.12,0.55-0.17,0.64-0.07c0.3,0.34,0.54,0.17,0.88,0.09c0.88-0.2,1.78-0.29,2.68-0.42
		c0.09-0.01,0.23-0.03,0.27,0.02c0.53,0.53,1.28,0.28,1.89,0.52c0.2,0.08,0.49,0.06,0.7-0.03c0.28-0.11,0.38-0.33,0.06-0.58
		c0.38-0.14,0.72-0.24,1.06,0.1c0.37,0.36,0.84,0.39,1.35,0.33c0.62-0.07,1.26-0.18,1.85-0.05c0.59,0.13,1.18-0.11,1.71,0.05
		c0.61,0.19,1.13-0.05,1.7-0.06c0.06,0,0.11,0.02,0.17,0.03v0.48c-0.52,0.1-0.99,0.19-1.46,0.28c-0.48,0.68-1.41,0.44-1.98,0.97
		c-0.15,0.14-0.44,0.17-0.67,0.2c-1.07,0.11-1.79,0.77-2.55,1.43c-0.28,0.24-0.92,0.01-1.26,0.2c-0.4,0.23-0.74,0.3-1.18,0.32
		c-0.57,0.03-0.22,0.84-0.6,1c-0.54,0.24-0.74,0.72-1.07,1.11c-0.21,0.24-0.53,0.52-0.82,0.55c-0.79,0.06-1.25,0.65-1.83,1.03
		c-0.63,0.4-1.32,0.82-1.59,1.58c-0.17,0.48-0.6,0.06-0.81,0.31c0.25,1.05-0.49,1.43-1.25,1.89c-0.6-0.81-1.41-1.13-2.34-1.26
		c-0.71-0.1-1.4-0.3-2.1-0.45c-0.14-0.03-0.28-0.05-0.46-0.08c-0.29,0.28-0.59,0.57-0.9,0.88c0.15,0.17,0.23,0.33,0.34,0.37
		c0.59,0.2,1.18,0.51,1.77,0.5c0.67,0,1.18,0.21,1.71,0.54c0.1,0.06,0.28-0.03,0.42-0.04c0.17-0.01,0.35,0,0.53,0
		c-0.14,0.89-0.25,1.37-0.48,1.42c-0.65,0.16-0.68,0.76-0.95,1.18c-0.15,0.24-0.17,0.6-0.37,0.76c-0.29,0.23-0.67,0.32-0.76,0.78
		c-0.07,0.35-0.27,0.67-0.45,1.07c0.31,0.11,0.58,0.19,0.82,0.31c0.06,0.03,0.03,0.23,0.04,0.35h0c0,0,0,0,0,0
		c0,0,0.02-0.01,0.02-0.01c0.18-0.15,0.34-0.32,0.53-0.43c0.47-0.27,0.47-0.25,0.48-0.78c0.01-0.27-0.06-0.62,0.3-0.74
		c0.47-0.15,0.56,0.22,0.7,0.53c0.03,0.07,0.14,0.1,0.21,0.14c0.28-1,0.92-2.1,1.72-2.95c0.29-0.31,0.56-0.63,0.69-1.07
		c0.21-0.7,0.93-0.92,1.44-1.34c0.03-0.02,0.09,0.01,0.14,0.01c0.63,0.17,0.37,0.65,0.37,1.05c0.06,0.07,0.13,0.15,0.19,0.21
		c1.14,1.17,1.24,1.84,0.43,3.19c-0.52,0.87-1.07,1.72-1.58,2.59c-0.19,0.33-0.37,0.67-0.49,1.03c-0.04,0.13,0.09,0.46,0.18,0.47
		c0.42,0.06,0.86,0.1,1.27,0.03c0.35-0.06,0.3-0.42,0.32-0.71c0.01-0.12,0.1-0.29,0.2-0.35c0.59-0.35,0.67-1,0.94-1.62
		c0.31-0.03,0.64-0.12,0.96-0.1c0.38,0.02,0.64,0.5,0.51,0.86c-0.09,0.25-0.24,0.49-0.39,0.79c0.83,0.33,1.3-0.25,1.87-0.4
		c0.02-1.5-0.27-2.8-1.21-3.88c0.21-0.19,0.38-0.34,0.61-0.54c-0.27-0.26-0.46-0.6-0.68-0.62c-0.63-0.06-0.82-0.56-0.95-0.96
		c-0.29-0.93-0.86-1.58-1.66-2.06c0.13-0.41,0.25-0.76,0.38-1.16c1.29-0.18,1.99-1.27,2.98-1.93c0.17-0.82,0.84-0.74,1.51-0.91
		c0.15,0.96,0.61,1.76,0.64,2.52c-0.15,0.47-0.75,0.37-0.63,0.96c0.32,0.16,0.71,0.34,1.08,0.54c0.16,0.09,0.39,0.21,0.42,0.35
		c0.17,0.74,0.77,1.32,0.76,2.16c-0.01,0.5,0.25,1.02,0.45,1.51c0.07,0.18,0.34,0.27,0.52,0.41c0.27-0.25,0.49-0.44,0.75-0.69
		c-0.19-0.86-0.39-1.75-0.58-2.63c-0.1-0.45,0.1-0.74,0.59-0.79c0.34-0.04,0.67-0.04,1.01-0.05c0.53-0.01,1.02-0.13,1.5-0.34
		c-0.32-0.93-0.75-1.26-1.58-1.22c-0.28,0.01-0.56,0.12-0.84,0.15c-1.85,0.23-2.05-0.28-2.24-1.61c-0.1-0.68-0.31-1.3-1.02-1.61
		c-0.1-0.05-0.15-0.22-0.26-0.38c0.15-0.14,0.26-0.35,0.41-0.39c0.87-0.2,1.51-0.96,2.47-0.95c0.23,0,0.47-0.1,0.69-0.19
		c0.78-0.35,1.51-0.8,2.4-0.93c0.42-0.06,0.76-0.5,1.31-0.27c0.15,0.06,0.46-0.1,0.63-0.24c0.46-0.36,0.91-0.68,1.54-0.66
		c0.16,0,0.34-0.14,0.49-0.23c0.4-0.24,0.8-0.49,1.2-0.72c0.21-0.12,0.55,0,0.56,0.24c0.03,0.63,0.26,1.2,0.41,1.8
		c0.15,0.61,0.44,0.99,0.98,1.29c0.94,0.53,1.76,1.26,2.76,1.74c1.09,0.52,1.71,1.62,2.63,2.28c-0.02,0.2,0,0.31-0.04,0.38
		c-0.68,1.04-1.38,2.07-2.04,3.12c-0.3,0.47-0.9,0.76-0.87,1.44c-0.39,0.2-0.7,0.48-0.88,0.89c-0.62,1.37-1.68,2.52-2,4.04
		c0.41,0.68,0.99,0.38,1.61,0.28c0.35-0.51,0.9-1.01,1.07-1.62c0.19-0.68,0.5-1.08,1.07-1.35c0.48,0.22,0.77,0.53,1,0.99
		c0.3,0.59,0.77,1.11,1.23,1.59c0.14,0.14,0.5,0.06,0.81,0.09c0.04-0.53,0.07-0.95,0.08-1.2c-0.94-0.91-1.77-1.71-2.58-2.49
		c0.07-0.54,0.02-1.02,0.58-1.28c0.19-0.09,0.42-0.37,0.41-0.56c-0.02-0.56,0.46-0.82,0.64-1.25c0.18-0.43,0.5-0.8,0.73-1.16
		c0.69-0.15,1.08,0.19,1.38,0.51c-0.03,0.45-0.16,0.86-0.06,1.19c0.31,1.05,0.73,2.07,1.08,3.11c0.15,0.44,0.5,0.82,0.34,1.36
		c-0.04,0.13,0.12,0.35,0.21,0.51c0.39,0.66,1.09,0.65,1.76,0.87c0.13-0.36,0.24-0.65,0.35-0.95c-0.58-0.35,0.12-0.65,0.03-0.99
		c-0.23-0.12-0.57-0.19-0.67-0.38c-0.42-0.79-0.84-1.59-0.74-2.58c0.64,0.07,1.33-0.02,1.83,0.25c0.84,0.46,1.82,0.58,2.61,1.13
		c0.28,0.19,0.63,0.22,0.95-0.11c-0.07-0.2-0.09-0.51-0.24-0.61c-0.76-0.5-1.54-0.96-2.46-1.13c-0.42-0.08-0.87-0.12-1.26-0.3
		c-0.63-0.29-1.28-0.34-1.9-0.27c-0.79-1.29-1.12-2.78-2.46-3.57c-0.04-0.02-0.06-0.08-0.09-0.11c-0.52-0.49-1.01-1.04-1.58-1.47
		c-0.69-0.52-1.46-0.94-2.18-1.43c-0.48-0.32-1-0.62-1.37-1.04c-0.22-0.24-0.18-0.71-0.28-1.07c-0.02-0.09-0.12-0.15-0.15-0.24
		c-0.06-0.17-0.15-0.36-0.13-0.53c0.09-0.61,0.23-1.21,0.34-1.77c1-0.4,0.99-0.38,1.94-0.12c0.41,0.11,0.85,0.15,1.27,0.15
		c1.11-0.01,2.21-0.06,3.31-0.08c1.09-0.02,2.18,0.01,3.26,0.21c0.09,0.02,0.19,0.04,0.29,0.03c0.94-0.13,1.87-0.34,2.8,0.04
		c0.12,0.05,0.29,0,0.43-0.02c0.48-0.06,0.95-0.16,1.42-0.19c0.52-0.04,1.08,0.07,1.56-0.07c0.55-0.16,0.92,0.25,1.38,0.24
		c0.41,0,0.82-0.08,1.35-0.14c-0.06,0.43-0.02,0.79-0.17,1.04c-0.57,0.93-1.17,1.84-1.82,2.72c-0.17,0.23-0.28,0.47-0.42,0.72
		c-0.51,0.94-0.97,1.87-1.06,2.96c-0.02,0.26-0.28,0.49-0.36,0.76c-0.05,0.16-0.02,0.44,0.09,0.53c0.39,0.34,0.77,0.76,1.39,0.58
		c0.19-0.39,0.37-0.78,0.56-1.16c0.17-0.33,0.33-0.62,0.26-1.05c-0.07-0.43,0.36-0.69,0.78-0.55c0.27,0.09,0.52,0.24,0.77,0.39
		c1.07,0.62,2.1,1.28,2.83,2.32c0.08,0.12,0.19,0.23,0.31,0.3c0.14,0.08,0.31,0.11,0.64,0.23c-0.2-0.7-0.37-1.23-0.5-1.77
		c-0.14-0.58-0.75-0.74-1.02-1.18c-0.27-0.43-0.59-0.77-1.09-0.87c-0.62-0.13-0.98-0.56-1.3-1.04c0.06-0.2,0.12-0.39,0.15-0.57
		c0.05-0.23,0.05-0.47,0.12-0.7c0.26-0.8,0.64-1.15,1.42-1.35c0.64,1.33,0.66,1.35,2.1,1.66c-0.02-0.38-0.04-0.74-0.06-1.1
		c-0.29-0.17-0.52-0.34-0.79-0.45c-0.3-0.12-0.62-0.17-1.04-0.28c0.18-0.54,0.28-1,0.49-1.42c0.17-0.36,0.51-0.57,0.94-0.57
		c0.29,0.01,0.58,0.01,0.87,0.01c0.62,0,1.33,0.2,1.85-0.03c0.69-0.31,1.19-0.17,1.77,0.15c0.25,0.54,0.39,1.21,0.79,1.63
		c0.54,0.56,0.56,1.33,1,1.9c0.44,0.58,0.43,1.31,0.63,1.98c0.09,0.32,0.14,0.66,0.21,0.99c0.09,0.41,0.29,0.7,0.76,0.73
		c0.13,0.01,0.26,0.11,0.35,0.15c-0.12,0.43-0.33,0.83-0.3,1.21c0.04,0.38,0.33,0.74,0.55,1.18c-1.01,0.55-1.41,1.48-1.79,2.42
		c-0.15,0.36-0.23,0.8-0.5,1.03c-0.41,0.36-0.36,0.74-0.33,1.18c0.03,0.48,0.07,0.93,0.42,1.18c0.2-0.55,0.52-1.03,0.8-1.55
		c0.25-0.45,0.09-1.22,0.56-1.48c0.63-0.35,0.38-1.21,1.1-1.48c0.11,0.11,0.28,0.21,0.34,0.37c0.15,0.35,0.18,0.78,0.4,1.08
		c0.32,0.42,0.75,0.75,0.52,1.37c0.22,0.3,0.42,0.63,0.68,0.89c0.09,0.1,0.33,0.06,0.55,0.09c-0.12-0.75-0.1-1.45-0.35-2.03
		c-0.27-0.6,0.05-1.39-0.6-1.84c0.06-0.44,0.09-0.88-0.47-1.05c-0.25-0.7-0.55-1.38-0.62-2.23c0.71,0.05,1.31-0.03,1.79,0.55
		c0.23,0.27,0.65,0.52,0.98,0.53c0.77,0.02,1.37,0.39,2.04,0.66c0.81,0.33,1.61,0.82,2.64,0.52c-0.57-0.28-1.12-0.46-1.54-0.8
		c-0.47-0.38-0.81-0.92-1.13-1.31c-0.57-0.26-1.18,0.28-1.56-0.35c-0.03-0.06-0.2-0.09-0.27-0.05c-0.52,0.26-0.89,0.06-1.23-0.33
		c-0.81-0.08-1.38-0.63-2.05-1c-0.24-0.13-0.46-0.37-0.58-0.61c-0.23-0.42-0.37-0.88-0.56-1.32c-0.47-1.08-0.73-2.27-1.62-3.14
		c-0.16-0.16-0.12-0.51-0.18-0.76c1.14-0.42,1.14-0.41,2.16-0.21c0.61,0.12,1.2,0.16,1.84-0.02c0.57-0.15,1.22-0.07,1.83-0.06
		c1.18,0,2.36,0.25,3.56-0.03c0.73-0.17,1.54-0.23,2.24,0.26c0.11,0.08,0.28,0.11,0.42,0.11c0.95-0.01,1.92,0.04,2.86-0.07
		c0.53-0.06,1.04-0.14,1.57-0.06c0.22,0.03,0.51,0,0.69-0.11c0.33-0.22,0.66-0.13,0.97-0.07c0.47,0.08,0.93,0.23,1.43,0.37
		c0.47-0.31,0.98-0.44,1.59-0.31c1.04,0.23,2.05,0.03,2.99-0.53c0.33,0.27,0.66,0.53,0.94,0.76c0.58-0.23,1.11-0.44,1.64-0.66
		c0.31-0.13,0.59-0.06,0.78,0.18c0.16,0.21,0.47,0.31,0.47,0.68c0,0.15,0.28,0.31,0.48,0.5c0.14-0.25,0.24-0.4,0.33-0.56
		c0.31,0.11,0.61,0.22,0.92,0.31c0.02,0.01,0.1-0.21,0.15-0.32c0,0,0,0,0,0c-0.01,0.01-0.02,0.01-0.03,0.02
		c0.01-0.01,0.01-0.02,0.02-0.02c-0.13-0.05-0.26-0.1-0.39-0.16c-0.2-0.06-0.32-0.18-0.26-0.4c0.03-0.09,0.07-0.21,0.14-0.23
		c0.3-0.11,0.39,0.11,0.47,0.34c0.1,0.09,0.17,0.18,0.17,0.27c0.09-0.11,0.17-0.22,0.25-0.34c0.27-0.42,0.35-0.46,0.86-0.35
		c0.48,0.1,0,0.52,0.3,0.76c0.26-0.27,0.52-0.14,0.85,0.02c0.31,0.15,0.71,0.09,1.14,0.13c-0.17,0.19-0.28,0.32-0.42,0.47
		c0.29,0.05,0.57,0.09,0.73,0.11c0.34-0.22,0.6-0.39,0.87-0.55c0,0,0,0,0,0c-0.02-0.17-0.03-0.34-0.04-0.54h1.02
		c0.6,0.46,1.01,0.79,1.41,1.1h2.15c-0.22-0.26-0.35-0.42-0.49-0.58c0.31-0.31,0.56-0.48,0.82-0.01c0.06,0.12,0.19,0.2,0.28,0.3
		c0.41,0,0.82,0.07,1.17-0.02c0.4-0.1,0.75-0.15,0.99,0.21c0.21,0.31,0.33,0.68,0.49,1.02c-0.46,0.87,0.11,1.52,0.5,2.26
		c-0.14,0.21-0.35,0.43-0.45,0.69c-0.11,0.31-0.13,0.65-0.18,0.97c-0.36,0.28-0.67,0.6-1.05,0.8c-1.44,0.76-2.9,1.49-4.37,2.22
		c-0.2,0.1-0.52,0.22-0.67,0.13c-0.88-0.49-1.93-0.62-2.75-1.25c-0.76-0.57-1.56-1.1-2.71-0.98c0.1,0.26,0.15,0.48,0.27,0.65
		c0.13,0.18,0.39,0.24,0.32,0.57c-0.04,0.21,0.07,0.45,0.12,0.68c0.01,0.04,0.07,0.07,0.11,0.08c0.64,0.24,1.1,0.99,1.95,0.69
		c0.1-0.03,0.36,0.17,0.42,0.31c0.06,0.13,0.01,0.39-0.09,0.49c-0.18,0.2-0.42,0.43-0.67,0.47c-1.41,0.26-2.53,1.11-3.72,1.79
		c-0.08,0.05-0.21,0.05-0.26,0.12c-0.3,0.36-0.64,0.73-0.35,1.16c0.57-0.12,1.07-0.23,1.58-0.34c0.43-0.09,0.88-0.12,1.05-0.63
		c0.74-0.36,1.35-1.11,2.4-0.7c-0.17,0.53-0.3,1.08-0.51,1.58c-0.27,0.65-0.7,1.26-0.9,1.93c-0.29,1.02-0.52,2.07-0.62,3.12
		c-0.08,0.84-0.14,1.77,0.62,2.44c0-0.23-0.01-0.47,0-0.7c0.11-1.48,0.01-3,0.92-4.32c0.18-0.26,0.22-0.64,0.28-0.97
		c0.07-0.39,0.23-0.7,0.47-1.03c0.49-0.66,0.82-1.42,0.73-2.28c-0.03-0.32-0.07-0.63-0.11-0.93c0.52-0.24,0.96-0.51,1.48-0.33
		c0.08-0.23,0.14-0.41,0.2-0.58c0.48-0.1,0.94-0.18,1.4-0.3c0.17-0.04,0.42-0.15,0.45-0.27c0.14-0.59,0.57-0.37,0.93-0.38
		c0.06,0,0.13-0.08,0.18-0.12c-0.1-0.17-0.19-0.33-0.32-0.57c0.34-0.15,0.63-0.28,0.89-0.41c0.23,0.18,0.41,0.32,0.62,0.48
		c0.45-0.29,0.88-0.59,1.34-0.84c0.46-0.25,0.87-0.05,0.94,0.49c0.07,0.54,0.28,1.06-0.05,1.65c-0.2,0.35-0.22,0.91,0.05,1.37
		c0.08,0.14,0.11,0.43,0.02,0.52c-0.37,0.37-0.26,0.81-0.27,1.23c-0.02,0.64-0.01,1.28-0.01,1.88c-0.95,1.07-2.38,1.52-3.15,2.75
		c-0.07,0.11-0.24,0.15-0.37,0.21c-0.46,0.2-0.81,0.51-1.06,0.95c-0.3,0.53-1.08,0.66-1.17,1.39c-0.01,0.07-0.33,0.1-0.5,0.16
		c-0.54,0.17-0.54,0.17-0.38,0.98c0.08,0.04,0.16,0.07,0.25,0.08c0.2,0.19,0.54-0.05,0.73,0.3c0.09,0.16,0.44-0.02,0.4-0.19
		c-0.16-0.72,0.49-0.8,0.81-1.15c0.27,0.34,0.51,0.7,0.81,1c0.56,0.56,0.7,0.71,0.63,1.28c-0.04,0.38,0.03,0.71,0.3,0.91
		c0.49,0.36,0.81,0.76,0.9,1.39c0.05,0.36,0.26,0.72,0.49,1.02c0.3,0.4,0.61,0.83,1.21,0.88c0.11-1.05-0.48-1.79-0.97-2.5
		c-0.85-1.23-1.4-2.61-2.07-3.92c-0.25-0.5-0.43-1.07-0.21-1.75c0.37-0.09,0.78-0.19,1.24-0.31c0.21-1.14,1.17-1.19,2.08-1.34
		c0.29,0.43,0.58,0.84,0.83,1.22c-0.26,0.61-0.24,1.18-0.11,1.76c0.04,0.17,0.1,0.37,0.06,0.52c-0.21,0.71-0.23,1.39,0.23,2.03
		c0.07,0.09,0.1,0.32,0.04,0.38c-0.38,0.43,0.18,1.14-0.45,1.51c-0.08,0.05-0.05,0.35-0.02,0.52c0.05,0.22,0.22,0.44,0.22,0.65
		c-0.01,1.13,0.34,2.15,0.92,3.2c-0.71,0.37-0.41,0.98-0.43,1.52c0.2,0.13,0.4,0.25,0.68,0.43c-0.35,0.17-0.6,0.28-0.85,0.4
		c0.47,0.48,0.44,1.33,1.28,1.59c-0.6,0.71-0.21,1.19,0.22,1.68c0.43,0.01,0.85,0.07,1.31,0.78c-0.54-1.81-0.98-3.29-1.43-4.81
		c0.25-0.29,0.52-0.62,0.77-0.91c-0.1-0.72-0.13-1.4-0.59-1.95c-0.06-0.07-0.04-0.3,0.04-0.37c0.21-0.2,0.27-0.38,0.06-0.6
		c-0.17-0.18-0.33-0.37-0.19-0.64c0.15-0.3-0.09-0.42-0.24-0.6c-0.08-0.1-0.11-0.24-0.16-0.35c0.28-0.16,0.51-0.3,0.75-0.44
		c-0.11-0.58-0.17-1.1,0.44-1.51c0.35,0.48,1,0.26,1.48,0.66c0.42,0.35,1.04,0.46,1.4,0.61c0.33,0.43,0.53,0.75,0.8,1.01
		c0.44,0.42,0.92,0.82,1.41,1.19c0.13,0.1,0.35,0.08,0.65,0.14c-0.07-0.26-0.07-0.46-0.16-0.6c-0.45-0.67-0.92-1.33-1.41-1.97
		c-0.14-0.18-0.36-0.3-0.56-0.43c-0.55-0.37-1.14-0.69-1.76-0.95c-0.74-0.31-1.45-0.71-2.19-1.07c-0.02-2.04-0.42-3.95-1.02-5.84
		c-0.06-0.17-0.06-0.37-0.05-0.55c0.03-0.8-0.05-1.62,0.13-2.39c0.19-0.81-0.03-1.61,0.17-2.4c0.04-0.17,0.09-0.33,0.17-0.6
		c0.26,0.12,0.42,0.19,0.58,0.27c0.52,0.24,1.03,0.49,1.55,0.73c0.26,0.12,0.58,0.18,0.74,0.38c0.15,0.18,0.12,0.51,0.17,0.76
		c0.58,0.1,1.09,0.19,1.6,0.28c0.11,0.44,0.26,0.81,0.71,1c0.44,0.19,0.97,0.35,1.25,0.7c0.3,0.37,0.59,0.66,1,0.91
		c0.37,0.23,0.59,0.72,0.91,1.13c-0.09,0.69-0.3,1.43-0.13,2.2c-0.51,1.11,0,2.26-0.13,3.38c-0.04,0.35,0.1,0.63,0.43,0.84
		c0.11,0.07,0.08,0.37,0.12,0.64c0.15-0.16,0.37-0.29,0.37-0.42c-0.03-0.75-0.07-1.5,0.32-2.19c-0.27-0.39,0.14-0.66,0.16-0.98
		c0.01-0.35-0.06-0.77-0.25-1.05c-0.41-0.59,0.01-1.19-0.13-1.79c-0.1-0.39,0.43-0.67,0.8-0.5c0.43,0.2,0.86,0.65,1.26,0.62
		c0.74-0.06,0.5,0.89,1.13,0.89c0.26,0,0.12,0.42,0.21,0.61c0.09,0.18,0.41,0.23,0.52,0.41c0.61,1.01,1.53,1.57,2.74,1.98
		c-0.12-0.28-0.15-0.54-0.27-0.59c-1.05-0.45-1.37-1.54-2.06-2.29c-0.64-1.64-1.97-2.54-3.45-3.29c-0.25-0.13-0.56-0.23-0.71-0.44
		c-0.33-0.49-0.77-0.7-1.33-0.76c-0.19-0.02-0.42-0.06-0.54-0.18c-0.26-0.28-0.52-0.48-0.87-0.65c-0.32-0.16-0.71-0.56-0.84-0.88
		c-0.33-0.82-0.96-0.61-1.56-0.64c-0.48-0.59-0.96-1.18-1.4-1.72c-0.47,0.1-0.83,0.18-1.22,0.26c-0.17-0.4-0.31-0.74-0.45-1.06
		c-0.4-0.06-0.73-0.11-1.06-0.16c-0.09-0.35-0.23-0.67-0.25-0.99c-0.14-1.87-0.25-3.74-0.36-5.61c0-0.08,0.08-0.17,0.14-0.28
		c0.26-0.05,0.53-0.11,0.75-0.15c0.12-0.1,0.13-0.22,0.13-0.35c-0.03-0.04-0.04-0.09-0.05-0.16c0.01-0.11,0.04-0.2,0.1-0.25
		c0.03-0.06,0.09-0.11,0.19-0.15c0.3-0.13,0.53-0.45,1.03-0.91c0.15,0.36,0.29,0.68,0.41,0.95c1.19-0.32,2.28-0.42,3.38-0.42
		c0.43,0,0.87,0.14,1.29,0.08c0.4-0.06,0.78-0.31,1.17-0.48c0.05,0.14,0.06,0.26,0.11,0.29c0.95,0.57,2.03,0.31,3.04,0.48
		c0.06,0.01,0.19-0.09,0.22-0.16c0.24-0.58,0.68,0.04,0.96-0.14c0.2-0.24,0.39-0.45,0.48-0.56c0.57,0.04,1,0.03,1.4,0.12
		c0.37,0.08,0.7,0.28,1.06,0.4c0.4,0.14,0.82,0.25,1.23,0.36c0.28,0.07,0.56,0.1,0.84,0.16c0.26,0.05,0.44-0.04,0.64-0.21
		c0.36-0.31,0.61-0.07,0.81,0.25c0.05,0.07,0.14,0.11,0.21,0.15c0.39-0.03,0.76-0.05,1.14-0.08c0-0.09-0.02-0.2,0-0.28
		c0.04-0.13,0.12-0.25,0.18-0.37c0.93,0.3,0.93,0.3,1.52,0.96c0.03,0.04,0.06,0.08,0.09,0.11c0.27,0.29,0.62,0.31,0.93,0.15
		c0.17-0.09,0.31-0.36,0.35-0.57c0.14-0.69,0.23-1.4,0.34-2.09c0.25-0.11,0.46-0.2,0.69-0.3C134.54,84.76,134.5,84.57,134.47,84.38z
		 M2.49,75.25c-0.13,0.09-0.28,0.16-0.42,0.24c-0.01,0-0.08-0.09-0.08-0.1c0.1-0.13,0.21-0.27,0.33-0.38
		c0.02-0.02,0.14,0.08,0.22,0.12C2.53,75.16,2.53,75.23,2.49,75.25z M18.79,101.44c0.13-0.1,0.44,0.2,0.45,0.43
		c0.02,0.22-0.21,0.51-0.4,0.46c-0.15-0.04-0.28-0.17-0.49-0.32C18.53,101.76,18.63,101.56,18.79,101.44z M119.87,102.31
		c0.27-0.3,0.44-0.07,0.6,0.15c-0.16,0.21-0.32,0.46-0.6,0.19C119.81,102.6,119.81,102.38,119.87,102.31z M119.02,102.62
		c0.16-0.01,0.32-0.01,0.47-0.01c0,0.06,0,0.12,0,0.19c-0.16,0.01-0.32,0.02-0.48,0.03C119.01,102.75,119.01,102.62,119.02,102.62z
		 M96.71,10.35c0.03,0,0.06,0,0.1,0.01c-0.02,0.06-0.04,0.12-0.06,0.18c-0.03-0.03-0.07-0.06-0.08-0.1
		C96.65,10.41,96.69,10.38,96.71,10.35z M60.51,3.23c0.01,0.04,0.02,0.08,0.02,0.12c-0.02,0.04-0.04,0.07-0.06,0.11
		c-0.02-0.05-0.05-0.09-0.05-0.14C60.44,3.29,60.49,3.26,60.51,3.23z M49.22,3.12c0.06,0.04,0.1,0.17,0.08,0.24
		c-0.02,0.07-0.13,0.16-0.19,0.16c-0.26-0.04-0.51-0.11-1-0.22C48.62,2.94,48.92,2.89,49.22,3.12z M36.12,9.21
		c0.01,0.24,0.03,0.49,0.04,0.66c-0.17-0.18-0.38-0.39-0.64-0.66H36.12z M31.8,11.89c0.01,0.5,0.01,0.5-0.79,0.35
		C31.2,12.16,31.49,12.03,31.8,11.89z M28.42,14.14c0.01-0.02,0.02-0.03,0.02-0.05c0.01-0.01,0.03-0.01,0.04-0.02
		c0.14-0.46,0.16-0.47,0.86-0.53c0.12-0.24,0.24-0.49,0.37-0.75c0.07,0.02,0.19,0.02,0.24,0.07c0.17,0.17,0.12,0.4-0.04,0.49
		c-0.46,0.26-0.94,0.48-1.42,0.71c-0.01,0.02-0.01,0.03-0.02,0.05C28.46,14.12,28.44,14.13,28.42,14.14
		c-0.12,0.26-0.24,0.53-0.4,0.86c-0.19-0.18-0.31-0.29-0.5-0.46C27.87,14.38,28.15,14.25,28.42,14.14z M8.32,84.14
		c-0.02-0.04-0.05-0.07-0.05-0.11c0-0.04,0.02-0.07,0.03-0.11c0.06,0.03,0.11,0.07,0.17,0.1C8.42,84.06,8.37,84.1,8.32,84.14z
		 M28.47,83.83c-0.06,0.06-0.14,0.13-0.22,0.13c-0.16,0.01-0.33-0.01-0.65-0.02c0.27-0.15,0.38-0.24,0.5-0.27
		c0.11-0.03,0.24,0.01,0.36,0.03C28.47,83.71,28.49,83.81,28.47,83.83z M39.76,83.71c-0.12-0.02-0.23-0.1-0.36-0.15
		c0.28-0.26,0.54-0.1,1.05,0.11C40.02,83.69,39.89,83.73,39.76,83.71z M44.98,83.73c-0.13-0.08-0.18-0.2-0.01-0.3
		c0.08,0.08,0.15,0.15,0.23,0.23C45.13,83.69,45.02,83.76,44.98,83.73z M50.14,84.23c-0.08,0.06-0.24-0.01-0.37-0.02
		c0.04-0.12,0.05-0.25,0.12-0.34c0.04-0.06,0.16-0.08,0.24-0.12c0.02,0.04,0.07,0.08,0.06,0.12C50.2,84,50.21,84.18,50.14,84.23z
		 M55.9,84.22c-0.03,0-0.07-0.08-0.1-0.12c0.09-0.01,0.18-0.03,0.27-0.03c0.03,0,0.06,0.05,0.08,0.08
		C56.07,84.18,55.98,84.22,55.9,84.22z M61.1,59.48c-0.2-0.05-0.42-0.18-0.57-0.12c-1.24,0.48-2.22-0.06-3.19-0.74
		c-1.67-1.17-3.2-2.55-5.02-3.52c-0.59-0.32-1.33-1.13-1.95-2.03c0.95-0.41,1.93-0.36,2.92-0.24c0.57,0.07,1.14,0.18,1.71,0.14
		c1.34-0.09,2.46,0.5,3.46,1.2c0.83,0.58,1.69,1.27,2.06,2.34c0.11,0.32,0.23,0.6,0.25,0.95c0.02,0.32,0.15,0.64,0.24,0.95
		c0.05,0.18,0.15,0.35,0.16,0.53C61.18,59.13,61.12,59.32,61.1,59.48z M62.89,82.38c-0.15,0.06-0.3,0.12-0.45,0.17
		c-0.03,0.01-0.08-0.03-0.2-0.08c0.07-0.11,0.09-0.17,0.11-0.17c0.17-0.02,0.33-0.02,0.5-0.02C62.87,82.27,62.9,82.38,62.89,82.38z
		 M63.37,83.81c-0.07-0.04-0.16-0.06-0.21-0.12c-0.02-0.02,0.06-0.12,0.09-0.18c0.08,0.03,0.15,0.05,0.22,0.08
		C63.44,83.66,63.41,83.74,63.37,83.81z M64.62,84.08c-0.04,0-0.07,0-0.11,0c-0.02-0.2-0.04-0.4-0.06-0.59
		c0.06,0,0.11-0.01,0.17-0.01V84.08z M65.45,85.18c-0.04-0.12-0.06-0.24-0.09-0.35c0.03-0.01,0.07-0.02,0.1-0.03
		c0.03,0.14,0.06,0.28,0.09,0.41C65.52,85.21,65.45,85.2,65.45,85.18z M67.32,85.54c-0.03-0.06-0.05-0.11-0.08-0.17
		c0.03,0.01,0.07,0.01,0.1,0.02c0.02,0.03,0.05,0.06,0.05,0.1C67.4,85.51,67.35,85.53,67.32,85.54z M68.3,84.71
		c-0.04,0.02-0.08,0.07-0.11,0.07c-0.39-0.09-0.77-0.19-1.17-0.29c0.09-0.14,0.11-0.26,0.18-0.29c0.36-0.17,0.73-0.32,1.09-0.48
		C68.59,84.1,68.34,84.4,68.3,84.71z M66.64,83.24c0.37-0.07,0.54-0.14,0.7-0.11c0.09,0.01,0.15,0.18,0.22,0.28
		c-0.1,0.06-0.22,0.2-0.31,0.18C67.1,83.55,66.97,83.43,66.64,83.24z M69.08,84.7c-0.13-0.25-0.22-0.4-0.29-0.56
		c-0.05-0.12-0.07-0.26-0.17-0.6c0.62,0.01,1.13-0.23,1.68,0.25C69.88,84.1,69.52,84.37,69.08,84.7z M71.2,83.43
		c0-0.06-0.01-0.13-0.01-0.2c0.19-0.01,0.37-0.02,0.55-0.04c0,0.06,0.01,0.13,0.01,0.19C71.57,83.4,71.39,83.41,71.2,83.43z
		 M72.62,84.3c-0.08-0.03-0.16-0.07-0.24-0.11c0.1-0.04,0.19-0.12,0.29-0.12c0.06,0,0.14,0.08,0.2,0.13
		C72.78,84.24,72.7,84.27,72.62,84.3z M73.6,83.41c0.01-0.16-0.03-0.38,0.06-0.48c0.14-0.16,0.39-0.35,0.57-0.33
		c0.78,0.08,1.56,0.23,2.33,0.37c0.04,0.01,0.06,0.17,0.09,0.29C75.7,83.87,74.71,83.82,73.6,83.41z M81.4,85.38
		c-0.01,0-0.04-0.17-0.01-0.2c0.06-0.06,0.17-0.11,0.24-0.08c0.06,0.02,0.08,0.14,0.14,0.27C81.63,85.37,81.52,85.39,81.4,85.38z
		 M102.72,87.4c-0.21-0.01-0.42-0.14-0.72-0.24c0.35-0.63,0.73-0.64,1.17-0.48C102.89,87.35,102.89,87.41,102.72,87.4z
		 M104.99,84.26c-0.14-0.06-0.27-0.18-0.34-0.31c-0.03-0.07,0.09-0.21,0.2-0.42c0.17,0.23,0.3,0.39,0.42,0.55
		C105.18,84.14,105.05,84.28,104.99,84.26z M106.05,86.63c-0.1-0.01-0.22-0.02-0.32-0.04c-0.01,0,0-0.11,0-0.11
		c0.12-0.01,0.24-0.01,0.37-0.01C106.08,86.5,106.07,86.54,106.05,86.63z M108.64,83.96c-0.17,0.04-0.33-0.21-0.23-0.37
		c0.04-0.06,0.18-0.13,0.21-0.11c0.1,0.07,0.16,0.18,0.22,0.26C108.76,83.84,108.71,83.94,108.64,83.96z M115.38,86.3
		c-0.03,0-0.08-0.05-0.11-0.08c0.07-0.04,0.14-0.08,0.2-0.12c0.06,0.05,0.11,0.09,0.17,0.14C115.55,86.25,115.46,86.29,115.38,86.3z
		 M117.27,84.7c-0.06-0.06-0.12-0.12-0.17-0.19c0-0.01,0.06-0.09,0.08-0.08c0.08,0.01,0.15,0.05,0.22,0.08
		C117.36,84.57,117.32,84.63,117.27,84.7z M131.38,84.44c0.07,0.31-0.27,0.56-0.56,0.42c-0.21-0.1-0.38-0.28-0.59-0.36
		c-0.89-0.31-1.79-0.72-2.7-0.04c-0.85,0.08-1.71,0.12-2.43-0.42c-0.49-0.37-1.14-0.1-1.57-0.69c-0.55,0.87-1.31,0.96-2.06,1.05
		c-0.13,0.02-0.32,0.05-0.4-0.02c-0.5-0.41-1.11-0.14-1.63-0.26c0.08-0.31,0.15-0.57,0.23-0.9h-0.98c-0.04,0.3-0.08,0.57-0.12,0.83
		c-0.1,0.04-0.2,0.11-0.26,0.09c-0.37-0.11-0.77-0.19-1.08-0.39c-0.39-0.25-0.78,0.06-1.1-0.06c-0.4-0.16-0.66-0.16-1.05,0.06
		c-0.32,0.18-0.8,0.16-1.22-0.06c-0.46-0.23-0.96-0.38-1.45-0.57c-0.39,0.53-0.72,0.98-1.11,1.52c-0.33-0.23-0.6-0.51-0.81-0.87
		c-0.01-0.02,0.03-0.09,0.06-0.12c0.01-0.01,0.04-0.02,0.07-0.02c-0.36-0.17-0.72-0.33-1.05-0.48c-0.11-0.9-0.59-1.58-0.9-2.34
		c-0.3-0.75-0.36-1.6-0.69-2.33c-0.27-0.59-0.6-1.15-0.81-1.78c-0.21-0.63-0.56-1.21-0.82-1.82c-0.11-0.26-0.25-0.56-0.22-0.82
		c0.04-0.43-0.09-0.72-0.33-1.05c-0.18-0.25-0.14-0.65-0.26-0.95c-0.21-0.56-0.07-1.24-0.64-1.68c-0.16-0.12-0.27-0.45-0.24-0.66
		c0.13-1.02-0.49-1.83-0.71-2.74c-0.16-0.7-0.4-1.38-0.61-2.07c-0.07-0.23-0.18-0.44-0.28-0.66c-0.18-0.39-0.44-0.76-0.52-1.16
		c-0.08-0.44-0.19-0.84-0.45-1.2c-0.23-0.3-0.22-0.61-0.1-0.96c0.07-0.22,0.21-0.54,0.11-0.66c-0.54-0.72-0.13-1.37,0.08-2.13
		c1.17-0.18,2.19-0.73,3.17-1.42c0.35-0.24,0.77-0.47,1.25-0.59c1.12-0.27,2.07-0.85,2.5-2.05c0.13-0.36,0.26-0.85,0.85-0.7
		c0.49-0.44,0.99-0.88,1.48-1.32c-0.07-0.73,0.92-0.37,0.99-0.96c1.06-1.06,1.49-2.56,2.53-3.64c0.09-0.1,0.14-0.25,0.19-0.38
		c0.41-1.04,0.81-2.09,1.2-3.1c-0.29-0.81-0.82-1.38-1.4-1.94c-0.48-0.47-0.76-1.11-1.29-1.66c-1.11,0.48-2.37,0.65-3.21,1.71
		c-0.19,0.23-0.56,0.34-0.86,0.46c-0.49,0.19-0.71,0.7-1.13,0.93c-0.42,0.23-0.89,0.34-1.1,0.83c-1.28,0.24-1.6,1.77-2.82,2.11
		c-0.15,0.04-0.29,0.26-0.36,0.43c-0.22,0.48-0.47,0.93-0.98,1.18c-0.1,0.05-0.22,0.23-0.2,0.32c0.11,0.6-0.39,0.8-0.69,1.14
		c-0.4,0.46-0.79,0.93-1.24,1.46c-0.26-0.6-0.44-1.22-0.77-1.73c-0.98-1.48-1.57-3.18-2.67-4.58c-0.73-0.93-1.4-1.91-2.39-2.62
		c-0.81-0.59-1.5-1.34-2.25-2.01c-0.25-0.22-0.54-0.4-0.81-0.6c-0.56-0.41-1.32-0.22-1.88-0.67c-0.52-0.42-1.09-0.77-1.8-0.85
		c-0.31-0.04-0.63-0.23-0.89-0.42c-0.49-0.34-1.09-0.35-1.61-0.55c-0.5-0.2-0.94-0.45-1.5-0.38c-0.15,0.02-0.31-0.17-0.47-0.25
		c-0.38-0.19-0.77-0.38-1.22-0.59c-0.2,0.18-0.39,0.4-0.62,0.56c-0.18,0.13-0.4,0.2-0.75,0.36c0.51,0.24,0.89,0.43,1.34,0.65
		c0.24,0.54,0.42,1.13,0.45,1.84c0.04,0.94,0.32,1.88,0.59,2.79c0.35,1.19,0.47,2.42,0.89,3.59c0.37,1.04,0.7,2.08,1.59,2.82
		c0.11,0.85,1.07,0.85,1.44,1.48c0.37,0.62,1,1.01,1.61,1.42c1.65,1.08,3.27,2.21,4.89,3.32c0.36,0.24,0.68,0.6,1.07,0.7
		c0.91,0.23,1.06,1.17,1.69,1.65c0.08,0.06,0.07,0.26,0.08,0.4c0.06,0.63,0.3,1.18,0.57,1.76c0.38,0.81,0.63,1.72,0.73,2.62
		c0.06,0.54,0.11,1.03,0.35,1.51c0.17,0.34,0.52,0.71,0.47,1.01c-0.06,0.38,0.04,0.63,0.18,0.94c0.07,0.15,0.02,0.36,0.03,0.54
		c0.01,0.24-0.05,0.52,0.06,0.7c0.53,0.83,0.46,1.85,0.89,2.71c-0.16,0.57,0.64,0.75,0.5,1.41c-0.1,0.44,0.34,0.98,0.38,1.49
		c0.04,0.55,0.27,1.02,0.43,1.51c0.44,1.46,0.82,2.96,1.41,4.36c0.65,1.55,1.12,3.15,1.64,4.73c0.03,0.08,0,0.18,0,0.37
		c-0.33,0.12-0.68,0.26-1.03,0.38c-0.43,0.15-0.86,0.26-1.1,0.75c-0.13,0.26-0.43,0.37-0.73,0.1c-0.06-0.05-0.25-0.01-0.35,0.04
		c-0.24,0.12-0.42,0.02-0.34-0.19c0.19-0.51-0.14-0.57-0.48-0.67c-0.52-0.15-0.49,0.31-0.64,0.57c-0.6,0.31-1.21-0.31-1.82,0.02
		c-0.31,0.17-0.67,0.28-0.99,0.44c-0.06,0.03-0.07,0.17-0.12,0.3c-0.31-0.28-0.58-0.62-0.93-0.8c-0.27-0.14-0.69-0.23-0.95-0.12
		c-0.83,0.36-1.7,0.51-2.65,0.7c0.01-0.23,0.02-0.45,0.04-0.73c-0.17-0.03-0.43-0.15-0.52-0.07c-0.39,0.34-1.04,0.28-1.27,0.86
		c-0.02,0.05-0.26,0.05-0.38,0c-0.15-0.06-0.1-0.36,0.11-0.44c0.26-0.1,0.53-0.16,0.69-0.49c-0.73,0.06-1.09,0.09-1.42,0.04
		c0.03,0.08,0.05,0.17,0.05,0.25c0.02,0.3-0.16,0.43-0.44,0.43c-0.13,0-0.26-0.05-0.54-0.11c0.11-0.24,0.16-0.38,0.23-0.5
		c0.06-0.1,0.13-0.17,0.21-0.21c-0.19-0.07-0.42-0.17-0.73-0.31c-1.55,0.78-3.15,0.74-4.9,0.2c0.18-0.29,0.35-0.5,0.58-0.61
		c-0.32-0.1-0.64-0.22-0.98-0.33c-1.12,0.65-2.19,1.37-3.48,1.53c-0.37-0.54-0.7-1.04-1.05-1.57c-0.41,0-0.86,0.07-1.27-0.02
		c-0.35-0.07-0.51,0.06-0.73,0.27c-0.33,0.32-0.65,0.24-1.02-0.03c-0.65-0.47-1.27-0.53-2-0.33c-1.15,0.32-1.96,0.34-2.9,0.19
		c-1.28-0.2-2.56-0.38-3.85-0.49c-1.28-0.11-1.4-0.01-2.39,1.1c-0.12,0.14-0.48,0.11-0.47-0.03c0.03-0.36-0.27-0.61-0.3-0.9
		c-0.09-1.05-0.19-2.11-0.14-3.16c0.06-1.16,0.14-2.29-0.27-3.4c-0.06-0.16,0.06-0.37,0.04-0.54c-0.07-0.45,0.33-0.94-0.09-1.37
		c-0.02-0.03-0.03-0.1-0.01-0.14c0.55-1.17,0.09-2.34,0-3.52c-0.04-0.51,0.01-1.04,0.11-1.55c0.23-1.26,0.31-2.54,0.47-3.81
		c0.11-0.84,0.38-1.72,1.39-2.01c0.27-0.08,0.57-0.25,0.82-0.21c0.81,0.14,1.49-0.19,2.19-0.48c0,0,0,0,0,0c0,0,0,0,0,0
		c0.09-0.14,0.17-0.29,0.25-0.43c0.42-0.48,0.42-0.48,0.79,0.22c1.01,0,1.74-1.02,2.74-0.64c0.38-0.64-0.37-0.49-0.35-0.83
		c1.04-0.52,1.04-0.52,1.2-1.45c0.55-0.01,1.11-0.22,1.65,0.18c0.14,0.1,0.57-0.05,0.79-0.2c0.51-0.34,1.04-0.63,1.65-0.76
		c0.12-0.03,0.21-0.18,0.3-0.27c-0.3-0.54-0.59-1.06-0.88-1.57c0.48-0.3,0.85-0.6,1.28-0.78c0.38-0.16,0.82-0.18,1.28-0.27
		c0.04-0.15,0.09-0.32,0.13-0.49c-0.1-0.08-0.17-0.16-0.25-0.18c-0.23-0.05-0.48-0.05-0.71-0.12c-0.31-0.09-0.42-0.51-0.14-0.67
		c0.39-0.22,0.53-0.4,0.46-0.89c-0.06-0.39,0.09-0.84,0.48-1.15c0.17-0.13,0.25-0.39,0.34-0.55c-0.25-0.24-0.47-0.46-0.77-0.75
		c0.23-0.15,0.37-0.29,0.53-0.32c0.36-0.05,0.73-0.05,1.09-0.07c0.05-0.47,0.51-0.36,0.77-0.53c0.28-0.18,0.63-0.24,0.92-0.4
		c0.16-0.08,0.27-0.26,0.43-0.42c-0.34-0.6-1.05-0.9-1.11-1.63c-0.36-0.22-0.71-0.49-1.09-0.65c-0.7-0.29-1.42-0.51-2.28-0.82
		c-0.43,0.14-0.74,0.66-1.06,1.1c-0.24,0.34-0.47,0.58-0.88,0.67c-0.78,0.18-1.36,0.92-2.26,0.82c-0.11-0.01-0.32,0.1-0.36,0.21
		c-0.37,0.85-1.19,0.78-1.88,1c0.06,0.3,0.22,0.61-0.14,0.88c-0.35,0.26-0.62,0.12-0.84-0.13c-0.45,0.33-0.8,0.71-1.22,0.86
		c-0.55,0.19-0.67,0.62-0.87,1.06c-0.51,0.21-1.2,0.04-1.49,0.71c-0.05,0.11-0.21,0.22-0.33,0.22c-1.01,0.05-1.52,0.8-1.88,1.52
		c-0.31,0.62-0.71,0.95-1.32,1.14c-0.13,0.04-0.26,0.11-0.44,0.18c-0.39-0.23-0.77-0.41-0.92-0.95c-0.2-0.71-1.03-1.09-1.12-1.9
		c-0.01-0.09-0.23-0.15-0.35-0.22c-0.24-0.15-0.63-0.25-0.7-0.46c-0.25-0.79-0.9-0.93-1.55-1.05c-0.92-0.17-1.79-0.66-2.77-0.47
		c-0.05,0.01-0.11,0.01-0.14-0.01c-0.65-0.48-1.31-0.84-2.07-0.2c-0.05,0.04-0.19,0.01-0.27-0.02c-0.67-0.23-1.34-0.51-2.06-0.13
		c-0.81-0.23-1.62,0.02-2.43-0.01c-0.58-0.02-1.15-0.02-1.73,0.01c-0.23,0.01-0.47,0.1-0.67,0.22c-0.23,0.13-0.34,0.42-0.19,0.62
		c0.47,0.68,0.69,1.43,0.87,2.22c0.05,0.21,0.21,0.42,0.37,0.57c0.84,0.79,1.66,1.59,2.28,2.57c1.49,1.17,2.74,2.64,4.67,3.22
		c1.32,0.4,2.6,0.96,4.03,1.33c0.34,0.74,0.7,1.52,1.06,2.3c0.29,0.63,0.38,1.26,0.21,1.95c-0.07,0.27,0.01,0.54-0.27,0.76
		c-0.37,0.29,0.2,0.44,0.17,0.7c-0.02,0.14-0.04,0.29-0.09,0.42c-0.48,1.23-0.52,2.06-0.17,3.28c0.06,0.22,0.12,0.49,0.05,0.68
		c-0.13,0.34-0.02,0.63,0,0.96c0.05,0.7-0.06,1.41-0.13,2.11c-0.06,0.59-0.09,1.15,0.35,1.63c0.09,0.09,0.17,0.25,0.16,0.37
		c-0.09,1.5,0.5,3.01-0.07,4.5c-0.18,0.48,0.16,0.82,0.32,1.3c-0.32,0.17-0.63,0.28-0.87,0.48c-0.23,0.19-0.38,0.48-0.63,0.8
		c-0.22-0.4-0.37-0.68-0.54-1c-0.37,0.2-0.63,0.66-1.1,0.44c-0.32-0.15-0.61-0.37-1.02-0.63c0.02,0.31,0.02,0.45,0.03,0.61
		c-0.28,0.03-0.56,0.07-0.88,0.11c0.01,0.15,0.03,0.27,0.05,0.47c-0.28,0.03-0.59,0.05-0.98,0.09c0.19-0.29,0.32-0.49,0.44-0.69
		c-0.71,0.08-0.76,0.18-0.68,1.31c-0.47-0.04-0.94-0.08-1.54-0.13c0.3-0.15,0.47-0.24,0.76-0.38c-0.4-0.21-0.72-0.06-1.02-0.06
		c-0.27-0.01-0.53-0.06-0.84-0.09c0.23-0.25,0.48-0.36,0.72-0.4c-0.31-0.14-0.59-0.52-1.03-0.51c-0.29,0.19-0.06,0.64-0.27,0.94
		c-0.3,0.17-0.54,0.07-0.77-0.18c0.02-0.22,0.04-0.45,0.07-0.73c-0.37,0.08-0.73,0.15-1.02-0.15c-0.63,0.35-1.19-0.11-1.84-0.2
		c-0.08,0.11-0.18,0.21-0.25,0.33c-0.22,0.39-0.49,0.68-0.98,0.71c-0.17,0.01-0.33,0.15-0.49,0.23c-0.47,0.19-0.93-0.07-1.38-0.11
		c-0.98-0.1-1.96-0.23-2.95-0.22c-0.08,0-0.16-0.08-0.31-0.15c0.06-0.15,0.13-0.31,0.22-0.54c-0.23-0.1-0.47-0.21-0.76-0.34
		c-0.04,0.36-0.07,0.68-0.11,1.06c-0.29,0.06-0.57,0.11-0.9,0.17c-0.16-0.18-0.35-0.38-0.49-0.53c-0.47,0-0.9,0.02-1.32,0
		c-0.43-0.02-0.85-0.09-1.34-0.14c-0.11-0.65-0.13-1.29-0.33-1.86c-0.31-0.91-0.46-1.85-0.75-2.77c-0.31-0.99-0.27-2.09-0.41-3.14
		c-0.2-1.51-0.23-3.05-0.77-4.51c-0.19-0.5-0.33-1.03,0.11-1.49c-0.05-1.13,0.34-2.31-0.13-3.39c-0.23-0.53-0.24-1.02-0.23-1.53
		c0.02-0.68-0.02-1.45-0.16-1.9c-0.27-0.86-0.56-1.71-0.18-2.64c0.14-0.33,0.1-0.78,0-1.14c-0.11-0.37-0.31-0.68,0.09-1
		c0.05-0.04,0.07-0.21,0.04-0.27c-0.43-0.69-0.02-1.41-0.08-2.11c-0.06-0.59-0.04-1.18,0.67-1.43c0.09-0.34,0.29-0.43,0.65-0.54
		c0.94-0.28,2-0.34,2.77-1.07c0.6,0.09,0.92-0.38,1.36-0.65c0.59-0.36,1.3-0.53,1.96-0.78c0.13-0.05,0.28-0.05,0.42-0.08
		c0.48-0.09,0.72-0.41,0.79-0.78c0.81-0.25,1.58-0.46,2.34-0.72c0.43-0.15,0.73-0.49,0.84-0.94c0.27-1.08,0.91-1.7,2.04-1.86
		c0.55-0.08,0.94-0.42,1.03-1.02c0.02-0.13,0.07-0.33,0.15-0.36c0.24-0.09,0.56-0.23,0.47-0.45c-0.22-0.53,0.49-0.73,0.35-1.2
		c-0.06-0.18-0.07-0.37-0.09-0.47c0.34-0.43,0.65-0.79,0.92-1.18c0.09-0.13,0.11-0.35,0.09-0.51c-0.02-0.11-0.17-0.2-0.3-0.33
		c1.28-0.41,1.51-1.56,1.78-2.58c0.14-0.53,0.29-1.1,0.33-1.67c0.03-0.52,0.08-1.04,0.06-1.56c-0.01-0.19-0.18-0.49-0.34-0.54
		c-0.45-0.15-0.92-0.2-1.38-0.28c-0.18,0.22-0.33,0.4-0.48,0.58c-0.18-0.08-0.35-0.16-0.53-0.24c-0.36,0.12-0.23,0.77-0.77,0.71
		c-0.57-0.06-0.53,0.44-0.67,0.78c-1.27,0.53-2.48,1.24-3.85,1.57c-0.43,0.1-0.97,0.19-1.13,0.76c-1.02,0.41-1.78,1.27-2.84,1.62
		c-0.17,0.06-0.32,0.2-0.46,0.31c-0.26,0.21-0.49,0.46-0.78,0.62c-0.97,0.56-1.77,1.33-2.61,2.04c-0.56,0.47-0.97,1.05-1.4,1.63
		c-0.32,0.43-0.54,0.4-1.21-0.03c0.29-1.01,0.4-2.01-0.19-2.98c-0.19-0.3,0.15-0.67-0.15-1.07c-0.26-0.34-0.39-0.83-0.61-1.24
		c-0.19-0.36-0.51-0.67-0.41-1.19c0.06-0.32-0.18-0.69-0.28-1.04c-0.07-0.23-0.06-0.55-0.21-0.67c-0.82-0.65-1.2-1.62-1.76-2.44
		c-0.91-1.34-2.3-1.81-3.72-2.28c-0.43,0.12-0.01,0.55-0.25,0.81c-0.17,0.04-0.35,0.12-0.52,0.11c-0.44-0.04-0.71,0.12-0.93,0.52
		c-0.38,0.71-0.9,1.37-0.9,2.23c-0.52,0.68-0.55,1.48-0.58,2.28c-0.01,0.38-0.1,0.78-0.01,1.14c0.08,0.34,0.35,0.63,0.52,0.92
		c-0.58,1.08-0.57,1.08-0.34,2.2c0.1,0.47,0.21,0.94,0.21,1.41c0.01,0.98,0.34,1.75,1.22,2.25c0.12,0.07,0.23,0.18,0.34,0.27
		c-0.11,0.25-0.21,0.46-0.34,0.76c0.27,0.27,0.56,0.59,0.88,0.86c0.17,0.14,0.24,0.29,0.19,0.48c-0.12,0.47,0.21,0.72,0.49,0.97
		c0.3,0.26,0.77,0.35,0.96,0.72c0.01-0.11,0.21-0.28,0.34-0.31c0.2-0.05,0.35,0.08,0.37,0.38c-0.05,0.07-0.12,0.18-0.2,0.29
		c-0.12-0.09-0.34-0.06-0.45-0.15c0.01,0.04,0.01,0.09,0.02,0.13c0,0.03,0.06,0.09,0.1,0.1c1.32,0.22,1.38,1.58,2.11,2.32
		c-0.02,0.48,0.48,0.54,0.69,0.88c-0.35,0.68,0.04,1.6-0.56,2.26c0.05-0.05,0.1-0.11,0.15-0.15c0.28-0.24,0.61-0.22,0.66,0.07
		c0.05,0.26,0.14,0.52,0.02,0.82c-0.23,0.56-0.39,1.16-0.58,1.76c0.25,0.16,0.48,0.32,0.69,0.45c0.18,1.25-0.02,2.42-0.5,3.58
		c0.26,0.07,0.43,0.12,0.61,0.17c-0.16,0.33,0.21,0.69-0.06,1.02c-0.08,0.1-0.24,0.24-0.22,0.32c0.09,0.35,0.32,0.7-0.08,1.01
		c0.33,0.2,0.48,0.38,0.39,0.86c-0.07,0.36,0.05,0.82,0.07,1.24c0.02,0.37,0.23,0.73,0.36,1.12c-0.12,0.42-0.26,0.88-0.39,1.34
		c0.09,0.33,0.18,0.66,0.27,0.98c0.03,0.13,0.11,0.32,0.06,0.39c-0.47,0.57,0.26,1.3-0.26,1.86c0.1,0.39-0.11,0.88,0.4,1.15
		c0.23,0.12,0.23,0.37,0.23,0.63c-0.01,0.85,0.08,1.69,0.39,2.51c0.16,0.44,0.17,0.93,0.25,1.4c0.05,0.33,0.07,0.68,0.17,0.99
		c0.14,0.43,0.54,0.77,0.27,1.33c-0.08,0.17,0.16,0.53,0.29,0.78c0.27,0.51,0.52,1.01,0.58,1.66c-0.77,0.18-1.47,0.19-2.19,0.14
		c-0.09-0.01-0.17-0.08-0.26-0.11c-0.39-0.12-0.64,0.55-1.03,0.23c-0.23-0.19-0.35-0.52-0.57-0.73c-0.12-0.12-0.43-0.25-0.52-0.19
		c-0.59,0.41-1.35-0.14-1.93,0.37c-0.08,0.07-0.39,0.01-0.51-0.09c-0.74-0.63-1.57-0.39-2.31-0.13c-0.38,0.13-0.69,0.21-1.08,0.13
		c-0.55-0.11-1.1-0.46-1.66-0.01c-0.85-0.23-1.68,0.15-2.53,0.06c-0.6-0.06-1.21-0.2-1.84,0.15c-0.29,0.16-0.81-0.1-1.27-0.18
		c-0.11,0.15-0.25,0.33-0.43,0.57c-0.54-0.05-1.13-0.2-1.68-0.12c-0.63,0.1-1.32-0.47-1.9,0.15c-1.66,0.18-3.32,0.57-5.01,0.34
		c-0.14-0.02-0.27-0.09-0.4-0.14c-0.19-0.34-0.38-0.67-0.57-1c-0.01-0.25,0.45-0.29,0.18-0.71c-0.31-0.49-0.39-1.12-0.58-1.7
		c0.09-0.07,0.2-0.17,0.31-0.26c0.02-0.09,0.06-0.19,0.04-0.27c-0.11-0.42-0.23-0.83-0.34-1.25c-0.13-0.51-0.35-1.03-0.35-1.55
		c0-0.74,0.17-1.48,0.27-2.22c0.02-0.14,0.06-0.28,0.07-0.41c0.03-0.71-0.44-1.44-0.03-2.11c0.37-0.61,0.02-1.35,0.45-1.92
		c-0.18-0.79,0.29-1.56,0.1-2.35c-0.06-0.26-0.04-0.46,0.25-0.58c0.06-0.03,0.1-0.25,0.06-0.37c-0.09-0.32-0.25-0.62-0.34-0.94
		c-0.05-0.17-0.08-0.5-0.01-0.53c0.57-0.26-0.03-0.83,0.35-1.15c0.34-0.28,0.13-0.73,0.19-1.1c0.04-0.23,0.12-0.47,0.25-0.65
		c0.24-0.32,0.18-0.57,0.06-0.92c-0.09-0.23,0.04-0.56,0.1-0.83c0.29-1.26,0.77-2.47,0.86-3.78c0.38-0.57,0.46-1.22,0.55-1.88
		c0.06-0.47,0.21-0.91,0-1.39c-0.07-0.16-0.06-0.49,0.03-0.55c0.7-0.41,0.29-1.27,0.76-1.77c0.12-0.12,0.19-0.38,0.15-0.54
		c-0.19-0.69,0.28-1.21,0.48-1.78c0.37-1.07,0.46-1.04,0.37-1.97c0.81-0.54,0.81-0.54,0.42-1.36c0.97-0.77,1.34-1.85,1.29-3.07
		c-0.01-0.32-0.03-0.52,0.3-0.7c0.17-0.09,0.26-0.39,0.31-0.62c0.13-0.56,0.22-1.13,0.32-1.7c0.13-0.05,0.39-0.13,0.38-0.15
		c-0.09-0.5,0.39-0.66,0.54-0.97c0.2-0.41,0.51-0.67,0.73-1.02c0.36-0.55,0.59-1.18,0.88-1.78c-0.27-0.65,0.37-0.91,0.63-1.25
		c0.7-0.91,0.76-0.86,0.63-1.78c0.42-0.24,0.83-0.48,1.24-0.71v-0.96c0.08-0.06,0.19-0.15,0.3-0.21c0.7-0.39,0.98-1.16,1.56-1.67
		c0.29-0.26,0.35-0.76,0.58-1.29c0.14-0.04,0.41-0.12,0.68-0.2c0.05-0.07,0.11-0.15,0.14-0.24c0.4-0.93,0.86-1.8,1.77-2.35
		c0.17-0.11,0.22-0.41,0.36-0.59c0.22-0.31,0.41-0.72,0.72-0.87c0.51-0.24,0.72-0.55,0.77-1.09c0.01-0.15,0.2-0.36,0.35-0.42
		c0.6-0.24,1.03-0.57,1.33-1.21c0.17-0.37,0.74-0.57,1.14-0.84c0.24-0.16,0.64-0.25,0.71-0.45c0.29-0.86,1.18-1.06,1.71-1.64
		c0.15-0.17,0.4-0.27,0.62-0.36c0.34-0.13,0.82-0.11,1-0.34c0.28-0.35,0.58-0.44,0.96-0.53c0.15-0.03,0.38-0.26,0.37-0.39
		c-0.02-0.44,0.41-0.64,0.49-0.94c0.14-0.5,0.71-0.33,0.88-0.79c0.1-0.27,0.59-0.41,0.9-0.6c-0.05-0.2-0.09-0.38-0.14-0.59
		c0.71-0.13,1.41-0.26,2.13-0.4c0.26-0.4,0.53-0.82,0.78-1.2c0.34,0,0.73,0.05,1.1-0.02c0.26-0.05,0.62-0.18,0.72-0.39
		c0.54-1.12,1.61-1.25,2.61-1.42c0.77-0.12,1.36-0.34,1.74-1.06c0.1-0.18,0.37-0.27,0.59-0.41c0.12,0.19,0.23,0.37,0.35,0.56
		c0.63-0.08,1.23-0.14,1.6-0.78c0.08-0.14,0.44-0.21,0.65-0.19c0.69,0.05,1.35,0.12,1.78-0.6c0.06-0.1,0.25-0.14,0.38-0.17
		c0.83-0.22,1.66-0.42,2.49-0.65c0.21-0.06,0.39-0.24,0.57-0.35c0.23,0.12,0.44,0.23,0.63,0.32c0.35-0.23,0.31-0.99,0.98-0.59
		c0.07,0.04,0.26-0.09,0.37-0.16c0.67-0.47,1.34-0.35,2.03-0.02c0.2,0.1,0.56,0.23,0.64,0.14c0.57-0.59,1.49-0.17,2-0.86
		c0.27,0.81,0.28,0.8,0.83,0.58c0.35-0.14,0.71-0.26,1.08-0.33c0.37-0.07,0.75-0.05,1.12-0.11c0.35-0.05,0.7-0.16,1.05-0.23
		c0.14-0.03,0.32-0.07,0.42-0.01c0.21,0.14,0.44,0.22,0.67,0.28c0.03-0.03,0.05-0.06,0.07-0.06c0.07,0.01,0.13,0.06,0.2,0.09
		l-0.02,0.02c0.2,0.03,0.4,0.05,0.6,0.07c0.46,0.04,0.92,0.08,1.48,0.13c-0.07-0.27-0.14-0.51-0.2-0.74
		c0.37-0.29,0.97,0.18,1.02,0.77c0.01,0.13,0,0.26,0,0.47c0.44-0.07,0.81-0.14,1.18-0.19c0.28-0.03,0.57-0.05,0.85-0.05
		c0.14,0,0.32,0.11,0.42,0.06c0.85-0.49,1.66-0.11,2.47,0.07c0.74,0.17,1.32-0.07,1.81-0.65c0.42,1.38,1.42,0.58,2.24,0.55
		c0.02,0.28,0.03,0.46,0.05,0.67c0.01,0.01,0.03,0.08,0.07,0.09c0.5,0.1,1.01,0.34,1.47-0.08c0.17-0.15,0.32-0.2,0.51-0.07
		c1.27,0.86,2.71,1,4.19,1.05c0.5,0.02,1,0.3,1.49,0.49c0.31,0.12,0.63,0.41,0.91,0.39c0.8-0.08,1.36,0.46,2.04,0.68
		c0.23,0.07,0.44,0.22,0.67,0.26c1,0.16,1.89,0.52,2.75,1.08c0.66,0.43,1.49,0.65,2.25,0.85c0.75,0.19,1.37,0.67,2.15,0.77
		c0.28,0.04,0.58,0.26,0.7,0.65c0.09,0.29,0.34,0.58,0.6,0.77c1.03,0.76,2.24,1.25,3.19,2.13c0.79,0.09,1.16,0.79,1.74,1.15
		c0.86,0.53,1.47,1.34,2.35,1.83c0.27,0.15,0.43,0.49,0.67,0.72c0.76,0.72,1.54,1.42,2.29,2.16c1.91,1.89,3.68,3.91,5.31,6.06
		c1.53,2.02,2.98,4.11,4.45,6.18c0.24,0.34,0.4,0.74,0.59,1.11c0.4,0.77,0.74,1.56,1.19,2.3c0.52,0.85,1.16,1.62,1.69,2.46
		c0.22,0.35,0.36,0.79,0.44,1.2c0.12,0.68,0.38,1.3,0.78,1.84c0.69,0.91,0.78,2.05,1.19,3.07c0.64,1.59,1.07,3.25,1.86,4.79
		c0.34,0.67,0.54,1.43,0.71,2.16c0.26,1.15,0.67,2.25,1.08,3.35c0.15,0.4,0.34,0.82,0.36,1.24c0.04,0.68,0.6,1.16,0.59,1.89
		c-0.01,0.6,0.24,1.21,0.36,1.82c0.12,0.66,0.19,1.33,0.35,1.98c0.23,0.96,0.29,1.99,0.94,2.82c0.08,0.1,0.07,0.28,0.09,0.42
		c0.09,0.52,0.31,1.07,0.21,1.55c-0.11,0.59,0.66,0.84,0.38,1.4c0.46,0.88,0.15,1.88,0.49,2.78c0.11,0.3,0.07,0.64,0.3,0.93
		c0.13,0.16,0.04,0.47,0.14,0.67c0.24,0.48-0.24,0.93-0.01,1.39c0.2,0.4,0.27,0.81,0.16,1.26c-0.04,0.16,0.02,0.39,0.12,0.53
		c0.2,0.26,0.24,0.51,0.11,0.8c-0.1,0.25-0.08,0.52,0.16,0.63c0.41,0.19,0.45,0.61,0.63,0.93c0.23,0.42,0.44,0.81,0.8,1.17
		c0.29,0.29,0.31,0.87,0.49,1.47c-0.15,0.74-0.34,1.65-0.58,2.81C131.18,83.82,131.31,84.13,131.38,84.44z M110.15,47.31
		c0.4-0.22,0.9-0.38,1.08-0.9c0.01-0.03,0.24,0.02,0.42,0.03c-0.25,0.57-0.87,0.83-0.92,1.47c-0.01,0.16-0.33,0.32-0.52,0.45
		c-0.61,0.4-1.14,0.86-1.31,1.61c-0.06,0.27-0.28,0.33-0.48,0.46c-0.67,0.43-1.35,0.86-1.73,1.62c-0.13,0.25-1.84,1.2-2.15,1.24
		c-0.08,0.01-0.18-0.06-0.34-0.12c0.29-0.34,0.55-0.67,0.83-0.98c0.8-0.89,1.61-1.77,2.4-2.66
		C108.21,48.64,109.1,47.89,110.15,47.31z M108.35,45.32c0.04-0.05,0.09-0.1,0.13-0.15c0.05,0.05,0.09,0.1,0.14,0.15
		c-0.05,0.01-0.09,0.02-0.14,0.03C108.43,45.34,108.39,45.33,108.35,45.32z M110.34,45.16c0.08,0,0.16-0.03,0.21,0.01
		c0.06,0.04,0.09,0.13,0.13,0.2c-0.08,0.02-0.19,0.08-0.23,0.05C110.39,45.37,110.38,45.26,110.34,45.16z M86.76,42.17
		c-0.01-0.23-0.09-0.46-0.16-0.68c-0.05-0.18-0.23-0.41-0.18-0.54c0.43-0.95-0.27-1.61-0.68-2.6c1.03,0.22,1.82,0.34,2.55,0.71
		c0.81,0.41,1.62,0.83,2.47,1.14c1.08,0.4,1.85,1.19,2.67,1.92c0.57,0.51,1.1,1.07,1.65,1.6c0.03,0.03,0.09,0.06,0.1,0.1
		c0.27,1.05,1.2,1.67,1.7,2.57c0.11,0.2,0.21,0.43,0.27,0.65c0.26,1.02,0.48,2.05,0.77,3.06c0.08,0.29,0.35,0.53,0.55,0.81
		c-0.1,0.24-0.27,0.48-0.29,0.75c-0.03,0.28-0.01,0.69,0.16,0.83c0.45,0.35,0.06,0.94,0.47,1.27c0.06,0.05,0.02,0.35-0.03,0.36
		c-0.16,0.06-0.41,0.11-0.52,0.03c-0.17-0.13-0.23-0.4-0.37-0.57c-0.29-0.36-0.59-0.43-0.97-0.09c-0.4,0.36-0.69,0.32-1.12,0.05
		c-0.97-0.62-2.05-1.09-2.94-1.79c-1.05-0.83-2.25-1.46-3.27-2.33c-0.15-0.12-0.34-0.23-0.41-0.39c-0.25-0.6-0.79-0.94-1.16-1.42
		c-0.62-0.78-0.95-1.76-1.14-2.73C86.69,44,86.8,43.07,86.76,42.17z M65.67,58.31c-0.13-0.4,0.4-0.79,0.13-1.27
		c0.29,0.15,0.57,0.3,0.86,0.46c-0.04,0.22-0.08,0.4-0.14,0.66c0.18,0.01,0.42,0.1,0.52,0.03c0.45-0.36,0.97-0.69,1.25-1.17
		c0.36-0.6,0.81-1.01,1.39-1.34c0.08-0.05,0.15-0.27,0.11-0.36c-0.04-0.09-0.25-0.17-0.35-0.14c-0.25,0.07-0.47,0.22-0.79,0.37
		c0.14-0.4,0.23-0.68,0.33-0.99c0.32,0.13,0.64,0.34,0.97,0.36c0.46,0.03,0.84-0.26,0.99-0.7c0.11-0.32,0.9-0.32,0.32-0.88
		c0.68-0.17,1.3-0.1,2-0.55c-0.83-0.34-1.57,0-2.24-0.34c0.11-0.1,0.22-0.25,0.31-0.25c0.42,0.02,0.88,0,1.26,0.16
		c0.44,0.18,0.77-0.07,1.08-0.18c0.66-0.24,0.85-0.29,1.65,0.09c-0.04,0.62-0.5,1.01-0.8,1.5c-0.53,0.86-1.16,1.63-1.95,2.28
		c-0.66,0.54-1.54,0.72-2.16,1.35c-0.16,0.16-0.55,0.08-0.83,0.14c-0.37,0.08-0.75,0.17-1.11,0.3c-0.3,0.11-0.21,0.38-0.17,0.6
		c-0.92,0.35-1.84,0.69-2.78,1.04c-0.25-0.14-0.26-0.31-0.1-0.57C65.55,58.74,65.72,58.48,65.67,58.31z M72.17,50.08
		c-0.01-0.01,0.11-0.15,0.12-0.14c0.11,0.07,0.22,0.15,0.34,0.23c-0.08,0.07-0.18,0.18-0.19,0.17
		C72.33,50.27,72.25,50.18,72.17,50.08z M71.16,60.31c-0.1-0.07-0.24-0.11-0.29-0.2c-0.05-0.1-0.01-0.25-0.01-0.45
		c0.15,0.14,0.28,0.21,0.32,0.32C71.22,60.06,71.17,60.19,71.16,60.31z M68.55,60.68c-0.46,0.19-0.51-0.12-0.71-0.55
		c0.27,0.12,0.39,0.15,0.47,0.22C68.41,60.44,68.47,60.57,68.55,60.68z M38.81,48.55c-0.33,0.05-0.64,0.03-0.87,0.38
		c-0.1,0.16-0.4,0.22-0.61,0.28c-0.51,0.14-1.01,0.28-1.5,0.47c-0.33,0.13-0.66,0.65-0.92,0.4c-0.36-0.33-0.71-0.19-1.06-0.28
		c-0.43-0.11-0.45-0.43-0.39-0.79c0.16,0.03,0.3,0.06,0.52,0.11c0.26-0.69,0.71-1.3,1.06-1.95c0.74-1.39,1.92-2.31,3.04-3.32
		c0.2-0.18,0.4-0.33,0.74-0.33c0.27,0,0.58-0.29,0.8-0.51c0.29-0.29,0.51-0.64,0.75-0.96c0.2,0.12,0.32,0.2,0.43,0.26
		c0.33-0.34,0.62-0.72,1-0.99c0.35-0.25,0.88-0.24,1.1-0.71c0.84,0.25,1.33-0.38,1.89-0.8c0.14-0.1,0.13-0.4,0.22-0.72
		c0.18-0.01,0.44-0.01,0.71-0.02c0.25-0.02,0.41-0.13,0.55-0.37c0.43-0.7,0.47-0.68,1.06,0.05c-0.23,0.49-0.51,0.85-0.57,1.25
		c-0.11,0.78-0.55,1.41-0.84,2.11c-0.07,0.18-0.13,0.4-0.27,0.51c-0.65,0.53-0.97,1.32-1.68,1.84c-0.62,0.45-1.25,0.96-1.78,1.57
		c-0.39,0.44-0.95,0.75-1.47,1.06c-0.61,0.36-1.27,0.65-1.82,0.94C38.79,48.29,39.17,48.5,38.81,48.55z M30.65,48.7
		c0.01,0.01-0.29,0.19-0.32,0.16c-0.59-0.61-1.43-0.97-1.79-1.81c-0.07-0.17-0.16-0.37-0.29-0.48c-0.25-0.19-0.74-0.31-0.77-0.49
		c-0.04-0.4-0.29-0.58-0.49-0.84c-0.11-0.14-0.26-0.32-0.26-0.49c-0.01-0.99-0.68-1.46-1.61-1.97c0.43-0.17,0.64-0.26,0.86-0.34
		c0.02-0.29,0.06-0.57,0.05-0.85c-0.01-0.27,0.02-0.63-0.14-0.8c-0.7-0.75-0.53-1.71-0.72-2.58c-0.02-0.08,0-0.21,0.05-0.25
		c0.68-0.5,0.41-1.2,0.43-1.85c0-0.19-0.01-0.4,0.05-0.57c0.21-0.62,0.46-1.23,0.7-1.88c0.54,0.66,1.04,1.27,1.54,1.88
		c0.06,0.07,0.12,0.15,0.17,0.23c0.21,0.4-0.21,0.91,0.33,1.3c0.36,0.26,0.5,0.77,0.36,1.27c0.69,0.95,0.43,2.25,1.16,3.16
		c0.45,0.56,0.1,1.2,0.28,1.79c0.18,0.58,0.09,1.18-0.05,1.72c-0.03,0.12-0.03,0.26,0.01,0.38c0.18,0.54,0.44,1.05,0.56,1.6
		C30.9,47.58,30.43,48.12,30.65,48.7z M122.31,83.06c-0.11-0.03-0.25,0.07-0.5,0.15c0.14,0.19,0.2,0.34,0.3,0.4
		c0.14,0.07,0.33,0.11,0.48,0.08c0.07-0.01,0.17-0.28,0.12-0.34C122.63,83.21,122.47,83.1,122.31,83.06z M120.85,82.87
		c-0.09,0.19-0.14,0.31-0.2,0.44c-0.08,0.15-0.26,0.32,0.05,0.4c0.09,0.02,0.25-0.08,0.32-0.17
		C121.17,83.35,121.26,83.13,120.85,82.87z M115.34,59.35c-0.16-0.26-0.43-0.46-0.7-0.74c0.04,0.16,0.08,0.24,0.07,0.31
		c-0.02,0.17-0.1,0.29-0.25,0.33c0.03,0,0.07-0.01,0.11-0.01c0.19,0.01,0.4,0.39,0.29,0.54c-0.23,0.29-0.49,0.19-0.74,0
		c-0.01-0.14,0.01-0.26,0.06-0.35l-0.48,0.51c-0.05,0.77-0.05,1.55,0.49,2.16c0.26,0.29,0.49,0.53,0.64,0.91
		c0.13,0.32,0.57,0.5,0.78,0.8c0.45,0.63,0.98,0.7,1.6,0.37c0.21-0.87,0.1-1.62-0.41-2.4C116.29,60.99,115.83,60.16,115.34,59.35z
		 M115.02,59.35c-0.03-0.06-0.08-0.13-0.09-0.2c-0.01-0.02,0.06-0.06,0.09-0.09c0.03,0.06,0.07,0.13,0.1,0.19
		C115.09,59.29,115.05,59.32,115.02,59.35z M114.34,59.26l-0.03,0.03c0.03-0.02,0.06-0.03,0.1-0.04
		C114.39,59.26,114.36,59.26,114.34,59.26z M114.18,59.43l0.13-0.13C114.25,59.33,114.21,59.38,114.18,59.43z M108.81,28.86
		c-0.12-0.13-0.31-0.31-0.29-0.44c0.1-0.66-0.41-0.89-0.8-1.2c-0.11-0.09-0.36-0.01-0.57-0.01c-0.09,0.57,0.05,1.06,0.11,1.57
		c0.07,0.51,0.31,0.75,0.61,1.02c0.75,0.68,0.85,0.68,1.85-0.05C109.42,29.44,109.11,29.16,108.81,28.86z M100.72,29.68
		c-0.6-0.52-1.17-1.18-2.25-0.99c0.59,0.75,1.08,1.44,1.64,2.05c0.37,0.41,0.63,0.86,0.66,1.38c0.04,0.79,0.32,1.34,1.07,1.65
		c0.25,0.1,0.46,0.32,0.68,0.49c0.21-0.07,0.39-0.12,0.57-0.19c0.04-0.01,0.06-0.06,0.09-0.1C102.63,31.5,102.51,31.23,100.72,29.68
		z M99.94,87.36c-0.03-0.03-0.08-0.09-0.1-0.09c0,0.01,0,0.03,0,0.04C99.85,87.32,99.91,87.34,99.94,87.36z M95.13,87.21
		c0.09-0.06,0.13-0.13,0.13-0.19c-0.05,0.06-0.1,0.12-0.14,0.18C95.13,87.21,95.13,87.21,95.13,87.21z M93.79,19.6
		c-0.48-0.46-0.97-0.9-1.39-1.43c-0.41-0.51-1.03-0.86-1.59-1.22c-0.14-0.09-0.42,0.03-0.78,0.06c0.19,0.4,0.24,0.83,0.46,0.95
		c0.63,0.35,0.87,1.01,1.34,1.48c0.33,0.33,0.65,0.66,1,1.02c-0.11,0.83,0.35,1.53,0.85,2.14c0.26,0.32,0.73,0.63,1.34,0.4
		C95.36,21.52,94.72,20.5,93.79,19.6z M90.72,28.3c-0.13-0.17-0.02-0.53-0.02-0.88c-0.6-0.42-0.84-1.3-1.67-1.66
		c-0.26,0.17-0.49,0.33-0.86,0.57c0.54,0.96,0.84,1.85,1.04,2.8c0.11,0.54,0.42,1.07,0.74,1.53c0.2,0.29,0.57,0.49,0.9,0.68
		c0.21,0.12,0.58-0.12,0.51-0.33C91.07,30.13,91.34,29.13,90.72,28.3z M89.73,83.49c-0.14-0.06-0.28-0.07-0.4-0.01
		c0.18,0.07,0.33,0.11,0.49,0.14C89.8,83.56,89.77,83.51,89.73,83.49z M86.28,63.73c0.38,0.21-0.05,0.57,0.08,0.73
		c0.46,0.58,0.45,1.46,1.25,1.82c0.25,0.11,0.36,0.52,0.59,0.74c0.11,0.11,0.32,0.11,0.62,0.19c-0.2-1.19-0.43-2.26-0.55-3.33
		c-0.04-0.42-0.09-0.72-0.49-0.91c-0.29-0.14,0-0.44-0.08-0.61c-0.21-0.42-0.65-0.53-1.07-0.64c-0.4-0.1-0.76-0.06-0.99,0.29
		c0.09,0.29,0.16,0.57,0.27,0.82C86.03,63.14,85.91,63.53,86.28,63.73z M82.12,19.85c-0.37-0.3-0.74-0.6-1.13-0.88
		c-0.31-0.21-0.64-0.38-1.1-0.65c-0.21,0.53-0.16,0.81,0.07,1.12c0.7,0.94,1.08,1.98,1.01,3.19c-0.04,0.65,0.41,1.15,0.88,1.6
		c0.37,0.03,0.74,0.07,1.17,0.11c0-0.93-0.05-1.79,0.01-2.64C83.09,20.87,82.7,20.32,82.12,19.85z M80.2,14.71
		c0.14,0.16,0.41,0.25,0.63,0.28c0.42,0.04,0.85,0.01,1.31,0.01c0.33-0.8,0.11-1.45-0.12-1.97c-0.3-0.67-0.86-1.26-1.4-1.79
		c-0.42-0.42-0.97-0.72-1.48-1.05c-0.11-0.07-0.3-0.1-0.41-0.05c-0.32,0.13-0.6,0.13-0.95,0.02c-0.32-0.1-0.76,0.22-0.74,0.51
		c0.06,0.79,0.04,1.62,0.82,2.17C78.68,13.41,79.53,13.95,80.2,14.71z M76.16,70.07c-0.15-0.48-0.51-0.77-1.02-0.89
		c-0.11,0.18-0.25,0.3-0.25,0.42c0.01,1.39,0.03,2.77,0.89,3.98c0.31,0.43,0.81,0.77,0.83,1.41c0.01,0.14,0.29,0.39,0.63,0.18
		c-0.12-0.72-0.34-1.45-0.34-2.19C76.91,71.93,76.47,71.02,76.16,70.07z M72.96,19.57c-0.11-0.09-0.25-0.17-0.38-0.19
		c-0.12-0.02-0.3,0.01-0.38,0.1c-0.08,0.08-0.13,0.29-0.08,0.38c0.28,0.45,0.58,0.88,0.89,1.3c0.4,0.54,0.77,1.07,0.95,1.74
		c0.21,0.78,0.6,1.5,0.85,2.28c0.16,0.51,0.52,0.78,0.95,1c0.43,0.22,0.67,0.06,0.86-0.52c0.06-0.17,0.17-0.32,0.26-0.49
		c-0.3-0.83-0.42-1.64-0.84-2.24C75.18,21.68,74.17,20.52,72.96,19.57z M74.09,31.34c-0.47-0.97-0.87-2.01-1.71-2.76
		c-0.26-0.23-0.51-0.4-0.83-0.31c-0.41,0.82-0.42,1.69-0.5,2.54c-0.04,0.4,0.01,0.79,0.29,1.08c0.3,0.31,0.31,0.63,0.23,1.03
		c-0.04,0.2,0.12,0.45,0.2,0.71c0.2,0.04,0.39,0.06,0.55,0.13c0.16,0.07,0.43,0.24,0.42,0.31c-0.14,0.51,0.43,0.58,0.53,0.9
		c0.16,0.52,0.45,0.79,1.03,0.78c0.13-0.53-0.09-1.18,0.52-1.51c-0.18-0.48-0.33-0.78-0.4-1.1C74.29,32.54,74.35,31.86,74.09,31.34z
		 M73.96,59.3c-0.1-0.07-0.34-0.11-0.37-0.06c-0.08,0.13-0.15,0.32-0.12,0.46c0.04,0.17,0.18,0.31,0.33,0.55
		C74.28,59.71,74.3,59.53,73.96,59.3z M71.07,13c-0.36-1.28-1.09-2.22-2.74-2.43c0.2,0.68,0.38,1.22,0.5,1.76
		c0.17,0.73,0.77,1.06,1.32,1.42c0.16,0.11,0.55,0.11,0.67,0C70.98,13.57,71.13,13.22,71.07,13z M68.6,61.53
		c-0.08,0.14-0.17,0.29-0.25,0.43c0.22,0,0.44,0,0.89,0C68.89,61.73,68.75,61.63,68.6,61.53z M67.06,38.15
		c-0.01,0.71,0.19,1.26,0.48,1.76c0.36,0.62,0.68,0.7,1.79,0.43c-0.67-1.01-0.73-2.12-1.25-3.16
		C67.68,37.57,67.35,37.88,67.06,38.15z M64.41,22.53c-0.05-0.53-0.1-1.05-0.18-1.58c-0.11-0.7-0.13-1.46-0.42-2.09
		c-0.24-0.51-0.43-1.03-0.65-1.54c-0.16-0.39-0.66-0.55-0.97-0.36c-0.25,0.15-0.32,0.5-0.2,0.86c0.29,0.93,0.57,1.83,0.49,2.87
		c-0.08,0.97,0.25,1.98,0.44,2.97c0.07,0.37,0.2,0.75,0.39,1.07c0.36,0.61,0.83,1.1,1.69,0.76c0.2-0.7,0.08-1.43-0.31-2.04
		C64.48,23.14,64.44,22.85,64.41,22.53z M63.72,4.77c0.03-0.03,0.06-0.06,0.09-0.09c-0.08-0.01-0.17-0.03-0.25-0.05
		c-0.01,0.01-0.02,0.02-0.03,0.03C63.6,4.7,63.66,4.74,63.72,4.77z M61.06,41.06c0.26-0.4,0.06-0.73-0.11-1.08
		c-0.27-0.58-0.38-1.2-0.31-1.83c0.07-0.57,0.17-1.08-0.09-1.68c-0.21-0.49-0.05-1.13-0.15-1.69c-0.13-0.65-0.44-1.26-0.4-1.96
		c0.01-0.15-0.19-0.31-0.29-0.47c-0.68,0.25-0.96,0.82-1.37,1.31c0.17,0.51,0.36,1,0.51,1.51c0.08,0.27,0.14,0.56,0.18,0.84
		c0.06,0.47,0.1,0.95,0.13,1.42c0.03,0.58,0.1,1.16,0.03,1.73c-0.13,1.09,0.14,2.1,0.51,3.09c0.09,0.25,0.31,0.46,0.45,0.66
		c1.22-0.37,1.24-0.41,0.96-1.49C61.09,41.31,61.01,41.14,61.06,41.06z M54.52,9.21c-0.3-0.28-0.8-0.36-1.06-0.2
		c-0.33,0.21-0.7,1.12-0.53,1.41c0.33,0.53,0.69,1.03,1.06,1.53c0.17,0.22,0.6,0.19,0.75-0.06c0.15-0.24,0.28-0.5,0.33-0.77
		c0.07-0.37,0.06-0.75,0.08-1.2C54.98,9.7,54.76,9.44,54.52,9.21z M53.55,22.33c-0.05-0.52-0.05-1.04-0.13-1.55
		c-0.08-0.46-0.12-1.02-0.4-1.35c-0.37-0.45-0.16-1.04-0.53-1.43c-0.09-0.1-0.22-0.15-0.41-0.28c-0.13,0.23-0.34,0.43-0.34,0.62
		c0,0.71-0.08,1.47,0.15,2.11c0.24,0.68,0.25,1.29,0.15,1.95c-0.07,0.42-0.1,0.85-0.12,1.28c-0.04,1.21,0.02,1.28,1.21,1.78
		c0.13,0.05,0.26,0.11,0.62,0.27c0-0.67,0.03-1.19-0.01-1.7C53.7,23.47,53.61,22.9,53.55,22.33z M49.29,75.32
		c0.77-0.09,1.11,0.41,1.54,0.85c0.16,0.17,0.4,0.25,0.85,0.51c-0.48-1.44-0.85-2.58-1.23-3.7c-0.14-0.41-0.28-0.82-0.46-1.22
		c-0.32-0.71-0.77-1.35-1.41-1.79c-0.17-0.12-0.49-0.15-0.67-0.07c-0.17,0.08-0.33,0.37-0.33,0.56c0.02,1.44,0.18,2.86,1,4.11
		C48.54,75.1,49.01,75.36,49.29,75.32z M45.5,21.38c0-0.71-0.03-1.43-0.1-2.14c-0.04-0.38-0.15-0.76-0.55-0.95
		c-0.47,0.15-0.48,0.55-0.49,0.94c-0.01,0.75,0.19,1.52-0.2,2.24c0.1,0.96-0.23,1.88-0.23,2.83c0,0.7,0.01,1.42-0.15,2.09
		c-0.14,0.59-0.12,1.12,0.03,1.72c0.19,0.11,0.39,0.23,0.59,0.35c0.19,0.1,0.28,0.42,0.65,0.25c-0.03-0.35-0.14-0.73-0.08-1.08
		C45.32,25.57,45.5,23.48,45.5,21.38z M39.94,18.69c-0.02,0.37-0.05,0.75-0.09,1.12c-0.12,1.04-0.24,2.09-0.37,3.13
		c-0.02,0.19-0.02,0.39-0.09,0.57c-0.39,1.03-0.5,2.11-0.68,3.18c-0.02,0.14-0.16,0.31-0.11,0.4c0.21,0.41,0.17,0.95,0.65,1.22
		c0.35,0.2,0.64,0.05,0.94-0.16c0.05-0.7,0.09-1.42,0.16-2.13c0.04-0.38,0.26-0.79,0.17-1.12c-0.25-0.94,0.19-1.77,0.27-2.66
		c0.02-0.19,0.09-0.38,0.11-0.57c0.12-1.24,0.22-2.49-0.34-3.76C40.09,18.05,39.95,18.32,39.94,18.69z M39.61,57.02
		c-0.08-0.17-0.37-0.34-0.57-0.34c-0.29,0-0.33,0.34-0.28,0.54c0.04,0.18,0.25,0.37-0.06,0.41c-0.7,0.1-0.82,0.59-0.8,1.15
		c0.01,0.38,0.12,0.75,0.19,1.12c0.06,0.28,0.17,0.56,0.18,0.84c0.01,0.27-0.09,0.55-0.16,0.92c0.52,0.18,1.22-0.09,1.52,0.72
		c0.35-0.51,0.58-0.85,0.83-1.21c-0.15-0.94-0.29-1.93-0.47-2.92C39.91,57.82,39.79,57.4,39.61,57.02z M36.09,31.91
		c-0.21-0.33-0.39-0.61-0.53-0.83c-0.51-0.2-0.96-0.37-1.4-0.55c0,0,0,0,0-0.01c-0.4,0.43-0.51,0.96-0.45,1.52
		c0.07,0.62,0.23,1.23,0.36,1.92c0.68,0.48,1.4,1,2.15,1.53c0.42-0.66,0.18-1.3,0.1-1.92C35.5,33.11,35.78,32.48,36.09,31.91z
		 M34.74,24.2c0.18-0.39,0.12-0.71,0.05-1.1c-0.05-0.29,0.14-0.62,0.21-0.92c-0.28-0.21-0.69-0.38-0.44-0.76
		c0.16-0.25,0.51-0.38,0.79-0.58v-1.16c-0.87-0.4-1.25-1.49-2.3-1.58c-0.07,0.04-0.14,0.06-0.15,0.09
		c-0.42,0.83-0.98,1.62-0.92,2.63c0.01,0.13-0.03,0.32-0.12,0.39c-0.7,0.58-0.56,1.49-0.86,2.22c-0.27,0.66,0.06,1.31,0.48,1.87
		c0.29,0.38,0.79,0.61,1.13,0.45c0.69-0.31,1.45-0.32,2.06-0.52C34.68,24.81,34.62,24.46,34.74,24.2z M34.19,30.42
		c-0.01,0.03-0.03,0.08-0.03,0.1c0.02-0.02,0.03-0.04,0.05-0.06C34.22,30.45,34.2,30.43,34.19,30.42z M26.7,49.47
		c-0.01-0.08-0.04-0.14-0.07-0.2c0,0,0,0,0,0C26.62,49.37,26.65,49.43,26.7,49.47z M22.04,64.32c-0.39,0.46-0.72,0.8-0.98,1.19
		c-0.32,0.46-0.68,0.92-0.86,1.44c-0.14,0.38-0.3,0.91,0.22,1.24c-0.01,0.47-0.18,0.95,0.16,1.37c0.05,0.07,0.15,0.1,0.29,0.19
		c0.23-0.2,0.47-0.41,0.7-0.61c0.38,0.05,0.75,0.09,1.18,0.14c0.11-0.71,0.04-1.39,0.41-1.99c0.13-0.21,0.12-0.57-0.18-0.77
		c-0.28-0.19-0.27-0.43-0.23-0.75C22.79,65.2,22.67,64.65,22.04,64.32z M20.93,67.64c-0.13,0.02-0.3,0.04-0.39-0.03
		c-0.26-0.18-0.31-0.62-0.13-0.88c0.06-0.09,0.49-0.07,0.52,0.03c0.07,0.22,0.12,0.45,0.17,0.65
		C21.02,67.51,20.98,67.63,20.93,67.64z M15.72,56.55c-0.07,0.38,0.14,0.8-0.23,1.17c-0.22,0.22-0.25,0.6,0.11,0.88
		c0.16,0.13,0.06,0.31-0.07,0.49c-0.13,0.17-0.2,0.4-0.23,0.62c-0.04,0.31-0.01,0.64-0.01,0.95c0.57,0.05,0.24,0.66,0.54,0.87
		c0.1,0.07,0.32,0.12,0.4,0.07c0.34-0.26,0.75-0.51,0.86-0.95c0.16-0.59,0.3-1.19,0.36-1.8c0.06-0.65,0.01-1.31,0.01-2.08
		C16.85,56.86,16.41,56.13,15.72,56.55z"/>
</g>
</svg>
