<?xml version="1.0" encoding="utf-8"?>
<!-- Generator: Adobe Illustrator 25.1.0, SVG Export Plug-In . SVG Version: 6.00 Build 0)  -->
<svg version="1.1" id="Calque_1" xmlns="http://www.w3.org/2000/svg" xmlns:xlink="http://www.w3.org/1999/xlink" x="0px" y="0px"
	 viewBox="0 0 107.1 110.44" style="enable-background:new 0 0 107.1 110.44;" xml:space="preserve">
<style type="text/css">
	.st0{fill:#6BC06D;}
	.st1{fill:#7B6A58;}
</style>
<g>
	<g>
		<g>
			<path class="st0" d="M37.28,77.65c0.91,0.92,1.84,1.87,2.78,2.82c4.84,4.9,9.67,9.75,10.19,10.16c0.25,0.21,0.27,0.58,0.04,0.83
				c-0.23,0.24-0.61,0.28-0.86,0.08c-0.4-0.32-2.96-2.86-6.14-6.07c-0.04,0.06-0.09,0.12-0.15,0.16c-0.27,0.21-0.65,0.19-0.86-0.06
				c-0.19-0.22-1.06-1.21-1.8-2.05c-0.48-0.55-0.91-1.02-1.03-1.16c-2.35-2.45-4.29-4.66-6.02-6.74c-1.5-1.18-2.96-2.59-4.33-4.15
				c0.18,0.31,0.3,0.49,0.33,0.52c0.23,0.22,0.22,0.59-0.03,0.82c-0.11,0.1-0.24,0.16-0.38,0.18c-1.53,0.22-3.54-2.44-5.2-5.58
				c-1.59-3.02-2.93-6.53-3.17-8.17c0-0.04,0-0.08,0-0.12l0,0l0,0c0-0.06,0.01-0.11,0.04-0.16c-0.68-1.27-1.29-2.5-1.84-3.65
				c-0.06-0.14-0.07-0.3,0-0.45l0-0.02l0,0c0.06-0.13,0.17-0.25,0.32-0.32c0.31-0.14,0.67-0.02,0.8,0.26
				c0.7,1.48,1.52,3.1,2.44,4.76c2.38,2.86,4.33,5.44,6.25,7.99c1.41,1.86,2.8,3.71,4.35,5.64c0.63,0.66,1.3,1.37,2,2.12
				c0.19,0.14,0.39,0.27,0.58,0.39l1.61,1.06c0.28,0.18,0.34,0.54,0.13,0.81C37.32,77.61,37.31,77.63,37.28,77.65L37.28,77.65z
				 M24.92,66.86c0.67,1.27,1.38,2.46,2.02,3.35c-0.82-1.43-1.87-3.3-2.95-5.22C24.29,65.62,24.6,66.25,24.92,66.86z"/>
		</g>
		<g>
			<path class="st0" d="M44.05,85.59c-3.64-3.41,3.79,2.17,4.69,2.75c2.9,2.92,5.61,5.34,7.2,6.12c0.15,0.08,0.33,0.1,0.5,0.04
				c0.12-0.04,0.22-0.1,0.3-0.19c1.46,1.5,2.39,2.63,2.41,3.16c0.01,0.32,0.3,0.55,0.64,0.53c0.34-0.03,0.6-0.31,0.59-0.63
				C60.03,90.2,40.5,82.33,35.72,76.18c-0.19-0.25-0.58-0.29-0.86-0.1c-0.21,0.15-0.3,0.4-0.23,0.64l0,0
				c0.18,0.63,3.44,0.19,4.93,1.68c13.59,15.79-10.38-6.88-12.4-8.77l-2-1.88L25.1,67.7c-0.23-0.23-0.62-0.22-0.87,0.01
				c-0.24,0.23-0.26,0.6-0.03,0.82l2,1.94c2.2,2.13,3.07,2.98,4.1,3.96l0.03,0.02c0.5,0.47,1.19,1.12,2.33,2.17
				C33.6,77.5,47.65,88.97,44.05,85.59z"/>
		</g>
		<g>
			<path class="st0" d="M25.57,70.27c0.33,0.08,0.67-0.1,0.77-0.41c0.1-0.31-0.08-0.63-0.4-0.72c-0.49-0.12-2.3-0.47-4.5-0.87
				c-2.05-0.37-4.46-0.79-6.45-1.13c-1.55-0.62-2.96-0.96-4.01-0.68l0,0l-0.01,0c-0.33,0.09-0.53,0.41-0.45,0.72
				c0.08,0.31,0.41,0.48,0.73,0.39l0,0l0.01,0l3.08,0.58c1.57,0.63,3.78,0.31,5.48,1.24c2.76,1.52,5.83,1.68,7.03,1.18
				c0.32-0.13,0.47-0.48,0.35-0.77c-0.12-0.29-0.48-0.42-0.79-0.29c-0.62,0.26-3.45,0.23-5.93-1.13c-0.44-0.24-1.27,0.83-1.72,0.59
				l2.39,0.44C23.31,69.81,25.09,70.15,25.57,70.27z"/>
		</g>
		<g>
			<path class="st0" d="M29.86,75.23c0.33,0.04,0.65-0.19,0.71-0.51c0.06-0.32-0.17-0.61-0.5-0.65c-0.8-0.1-1.58-0.14-2.34-0.16
				l-0.06-0.4l-1.86,0.32c-0.09-0.24-0.33-0.39-0.6-0.37l0,0l-0.01,0l-0.04,0c-0.83,0.14-1.9,0.38-3.02,0.64l-2.24,0.48
				c-0.13-0.11-0.31-0.17-0.51-0.14c-0.58,0.1-1.13,0.19-1.61,0.26c-1.89,0.3-2.83,0.45-5.32,1.41l0,0
				c-0.26,0.11-0.43,0.37-0.4,0.64c0.04,0.32,0.35,0.53,0.68,0.47c0.47-0.08,1.63-0.31,3.06-0.61l0.01,0.09l0.38-0.07
				c0.21-0.03,0.48-0.07,0.8-0.14l7.57-1.29C26.27,75.05,28,75.01,29.86,75.23z"/>
		</g>
		<g>
			<path class="st0" d="M31.92,74.15c0.04,0.32,0.35,0.53,0.69,0.47c0.34-0.05,0.57-0.36,0.53-0.67c-0.2-1.47-0.05-7.48-0.77-9.86
				l-0.15-0.51c0.02-3.23-0.19-7.05-1.88-9.03l0,0c-0.08-0.09-0.19-0.16-0.33-0.19c-0.33-0.07-0.67,0.13-0.75,0.45
				c-0.3,1.08,0.07,3.09,0.68,5.37c-0.05,0.1-0.07,0.22-0.06,0.33l0.23,11.46c0.02,0.22,0.04,0.41,0.08,0.56
				c0.08,0.31,1.25-3.26,1.58-3.35c0.32-0.08-0.32,3.37-0.37,3.07l-0.07-0.49c-0.01-0.08-0.01-0.17-0.01-0.26
				C31.6,72.54,31.82,73.46,31.92,74.15z"/>
		</g>
		<g>
			<path class="st0" d="M30.91,76.47c-0.37,0.18-0.89,0.36-1.5,0.55c0.43-0.08,0.82-0.17,1.13-0.25c0.21-0.07,0.46-0.03,0.62,0.13
				c0.23,0.22,0.22,0.59-0.04,0.82c-0.48,0.44-1.85,0.88-3.4,1.24l-0.06,0.02c-2.01,0.46-4.39,0.81-5.35,0.83l0,0
				c-0.29,0.01-0.55-0.19-0.59-0.47c-0.19-1.27,2.77-2.11,5.45-2.86l0,0c1.33-0.37,2.58-0.73,3.2-1.03c0.3-0.15,0.67-0.04,0.82,0.24
				C31.35,75.97,31.22,76.32,30.91,76.47L30.91,76.47z M24.83,78.35L24.83,78.35l-0.02,0L24.83,78.35z"/>
		</g>
		<g>
			<path class="st0" d="M16.58,80.98c-0.66,0.57-1.12,1.19-1.27,1.86c-0.02,0.09-0.03,0.17-0.04,0.26c0.07,0.14,0.15,0.26,0.24,0.37
				c0.33,0.02,0.77-0.01,1.26-0.09c0.5-0.11,0.96-0.21,1.4-0.31c0.05-0.3,0.14-0.65,0.29-1.04l0.01-0.04l0-0.01l0.01,0l0.03-0.07
				l0,0c0.16-0.36,0.67-1.16,1.27-1.82c0.24-0.25,0.49-0.49,0.75-0.69C19.56,79.71,18.26,80.22,16.58,80.98L16.58,80.98z M24.2,78.7
				c0.08,0.17,0.11,0.36,0.1,0.58l0.13-0.17c0-0.32-0.05-0.67-0.15-1.04c-0.1,0-0.21,0-0.33,0.01c0.04,0.14,0.09,0.28,0.12,0.42
				C24.13,78.56,24.17,78.62,24.2,78.7L24.2,78.7z M22.81,80.1c-0.31,0.47-0.84,1.04-1.47,1.6c-0.14,0.12-0.28,0.24-0.42,0.35
				c-0.41,0.23-0.86,0.43-1.32,0.61l-0.08,0.03l0.12-0.33l0.01-0.01l0.01-0.02l0,0l0.01,0c0.12-0.26,0.47-0.82,0.91-1.33l0.05,0.03
				c0.27,0.17,0.66,0.09,0.86-0.17c0.11-0.15,0.13-0.16,0.16-0.17c0.12-0.06,0.26-0.12,0.47-0.32l0.08-0.01
				c0.23-0.02,0.42-0.15,0.52-0.34C22.73,80.04,22.77,80.07,22.81,80.1L22.81,80.1z M17.19,85.14c-0.96,0.13-1.82-0.03-2.43-0.6
				c-0.12-0.02-0.22-0.06-0.31-0.09c-0.04-0.02-0.09-0.04-0.13-0.07c-0.67-0.25-1.15-0.63-1.37-1.12c-0.27-0.65-0.05-1.47,0.91-2.44
				c0.08-0.29,0.19-0.55,0.34-0.79c1.06-0.66,2.03-1.27,2.88-1.8c0.25-0.06,0.51-0.11,0.78-0.14l0.06-0.01
				c0.9-0.47,1.93-0.95,3.12-1.45c3.24-1.15,3.64,0.36,5.6-0.33c0.3,0.7-0.15,1.83-0.97,3.03c-0.1,2.24-1.97,3.76-4.25,4.62
				c-0.35,0.12-0.69,0.24-1.05,0.33c-0.61,0.31-1.14,0.45-1.51,0.35C18.31,84.89,17.74,85.06,17.19,85.14L17.19,85.14z M23.36,76.98
				c1.39-0.47,2.03-0.47,2.15-0.18c0.07,0.17,0.04,0.44-0.1,0.75c-0.02-0.08-0.05-0.16-0.08-0.25l0,0
				c-0.07-0.18-0.24-0.33-0.46-0.36C24.49,76.89,23.98,76.9,23.36,76.98z"/>
		</g>
		<g>
			<path class="st0" d="M2.5,78.06c-0.16-0.66,0.58-1.48,0.75-2.36c0.43-0.3,1.01-0.6,1.77-0.93c2.68-1.56,5.05-2.14,6.97-2.11
				c2.89-0.62,4.15-0.34,4.34,0.36c0.08,0.29-0.04,0.63-0.3,1.01c0.46,0.39,0.8,0.84,1.03,1.33c0.22,0.47,0.33,0.97,0.32,1.47
				c-0.49,0.04-0.9,0.1-1.24,0.19c0.04-0.39-0.03-0.78-0.2-1.15c-0.07-0.16-0.17-0.31-0.28-0.46c-0.2,0.17-0.5,0.33-0.9,0.47
				c-1.33,2.21-4.92,3.15-7.86,3.2c-0.78,0.02-1.52-0.03-2.18-0.14c0.02,0.05,0.04,0.1,0.07,0.15c0.03,0.04,0.06,0.08,0.09,0.12
				c-0.61-0.1-1.08-0.21-1.43-0.34c0-0.08,0-0.16,0.01-0.24c-0.05-0.02-0.11-0.04-0.16-0.06C2.97,78.42,2.7,78.25,2.5,78.06
				L2.5,78.06z M12.53,81.04c1.68-1,3.2-1.98,4.46-2.75c-0.15,0.28-0.34,0.55-0.58,0.82C15.64,79.95,14.36,80.66,12.53,81.04
				L12.53,81.04z M3.47,77.2c0.04,0.1,0.18,0.2,0.38,0.29l0.03,0.01c0.08-0.15,0.19-0.29,0.3-0.43c0.13-0.16,0.28-0.32,0.44-0.47
				l0-0.05c0-0.06,0-0.12,0.02-0.18C4.25,76.63,3.86,76.9,3.47,77.2L3.47,77.2z M15.14,73.42c0.01-0.02,0.01-0.04,0-0.06
				c-0.02-0.06-0.12-0.1-0.32-0.1C14.94,73.32,15.04,73.37,15.14,73.42L15.14,73.42z M6.01,76.93c0.26,0.31,0.77,0.4,1.42,0.33
				c0.38-0.04,0.8-0.12,1.24-0.23l-0.01-0.01c-0.45,0.04-0.82,0.05-1.03,0c-0.33-0.08-0.51-0.4-0.41-0.71
				c0.03-0.1,0.08-0.17,0.15-0.24l0.01-0.01C6.88,76.32,6.41,76.62,6.01,76.93L6.01,76.93z M9.67,75.29
				c0.22,0.03,0.4,0.17,0.47,0.35c0.71-0.13,1.48-0.28,2.12-0.4c0.27-0.06,0.52-0.11,0.74-0.14l0.09-0.06
				c-1.08-0.36-2.49-0.22-3.85,0.22C9.37,75.27,9.52,75.28,9.67,75.29z"/>
		</g>
		<g>
			<g>
				<path class="st0" d="M10.02,63.91c0.57,0.21,1.02,0.54,1.33,0.94c0.44,0.07,0.84,0.16,1.19,0.27c-0.48-0.6-1.32-1.19-2.6-1.74
					C7.62,62.4,6.26,63,5.7,64.11c-0.03,0.07-0.07,0.14-0.1,0.21C7.55,63.59,9,63.55,10.02,63.91L10.02,63.91z M4.47,64.8
					l-3.12,1.74c1.11-0.85,2.13-1.4,3.05-1.71L4.47,64.8L4.47,64.8z M10.74,65.7c0.09,0.17,0.16,0.34,0.21,0.53
					c-0.45-0.06-0.94-0.08-1.44-0.08l-0.24,0c-0.1-0.19-0.22-0.38-0.37-0.55c0.62,0,1.23,0.01,1.77,0.06L10.74,65.7L10.74,65.7z
					 M10.26,69.14c-1.22,0.81-2.3,1-3.19,0.78c-0.48,0.09-1.05,0.11-1.69,0.04C6,70.3,6.57,70.49,7.1,70.55
					c0.8-0.09,1.61-0.3,2.36-0.6C9.77,69.73,10.04,69.45,10.26,69.14L10.26,69.14z M9.22,71.13L4.47,64.8
					c0.07-0.37,0.19-0.72,0.36-1.05c0.8-1.56,2.59-2.45,5.55-1.2c3.58,1.52,4.21,3.47,3.32,5.2c-0.52,1.02-1.6,1.93-2.91,2.61
					c-0.28,0.14-0.57,0.27-0.87,0.39C9.7,70.9,9.46,71.02,9.22,71.13L9.22,71.13z M11.53,68.82c0.24-0.18,0.45-0.37,0.64-0.56
					c-0.14,0.04-0.29,0.08-0.45,0.11C11.66,68.53,11.6,68.68,11.53,68.82L11.53,68.82z M9.19,71.14l0.03-0.01L9.19,71.14L9.19,71.14
					z M3.58,69.9C3.36,69.73,3.17,69.55,3,69.39l-0.08-0.03c0.25,0.3,0.56,0.54,0.9,0.72C3.73,70.03,3.65,69.96,3.58,69.9L3.58,69.9
					z M7.05,71.47c0.79,0.08,1.51-0.05,2.14-0.33L7.05,71.47L7.05,71.47z M3.58,68.61c0.29,0.1,0.57,0.18,0.84,0.25
					c-0.33-0.38-0.43-0.88-0.32-1.41c-0.31,0.09-0.59,0.18-0.83,0.3c-0.07,0.03-0.14,0.07-0.21,0.1
					C3.14,68.07,3.31,68.33,3.58,68.61L3.58,68.61z M3.62,66.64c0.25-0.08,0.52-0.15,0.79-0.21l-0.02-0.16
					C4.09,66.38,3.84,66.5,3.62,66.64L3.62,66.64z M6.55,65.76c0.29-0.04,0.58-0.07,0.89-0.1c0.21,0.1,0.39,0.22,0.54,0.36
					c-0.54,0.01-1.26,0.05-2,0.14C6.14,66.02,6.34,65.89,6.55,65.76L6.55,65.76z M6.66,68.66l-0.07,0l0.01,0.01L6.66,68.66
					L6.66,68.66z M10.5,67.63c-0.21-0.15-0.54-0.23-0.95-0.26c-0.01,0.13-0.02,0.26-0.04,0.4c0.09-0.01,0.19-0.02,0.29-0.03
					C10.04,67.71,10.28,67.67,10.5,67.63L10.5,67.63z M8.51,67.81c-0.75,0.01-1.45-0.06-1.95-0.2l0.34-0.06
					c0.55-0.09,1.13-0.17,1.68-0.19C8.57,67.5,8.55,67.66,8.51,67.81L8.51,67.81z M6.54,71.51l0.52-0.04
					C6.88,71.5,6.71,71.51,6.54,71.51L6.54,71.51z M6.54,71.51c-2.84,0.15-5.38-1.07-5.4-4.59L6.54,71.51z"/>
			</g>
		</g>
		<g>
			<g>
				<path class="st0" d="M16.18,54.72c-0.13-0.08-0.26-0.17-0.38-0.26l0.08,0.14C15.98,54.65,16.08,54.69,16.18,54.72L16.18,54.72z
					 M12.3,51.64c-0.01-1.03,0.4-2.05,1.06-2.84c0.22-0.58,0.62-0.96,1.24-1.04c1.09-0.6,2.41-0.69,3.67,0.1
					c0.79,0.5,1.56,1.39,2.2,2.78c0.14,0.19,0.28,0.39,0.43,0.62c0.74,1.16,1.14,2.07,1.27,2.76c0.8,1.36,0.7,2.15,0.08,2.52
					c-0.08,0.05-0.18,0.09-0.28,0.12c0.02,0.21,0.05,0.43,0.07,0.65l0.01,0.08l0,0c0.03,0.35,0.05,0.51,0,0.7
					c-0.05,0.16-0.12,0.28-0.25,0.47c-0.05,0.08-0.12,0.18-0.17,0.26c-0.1,0.15-0.27,0.25-0.46,0.28l0,0
					c-3.46,0.51-5.78-1.53-7.01-4c-0.05-0.1-0.09-0.2-0.14-0.3C12.81,53.92,12.31,52.77,12.3,51.64L12.3,51.64z M14.39,50.2l0,0.08
					c0.16-0.05,0.34-0.1,0.54-0.14c0.28-0.41,0.63-0.74,1.03-0.99c-0.31-0.18-0.57-0.3-0.81-0.35c-0.04-0.01-0.07-0.02-0.1-0.02
					c-0.34,0.17-0.57,0.67-0.66,1.33L14.39,50.2L14.39,50.2z M18.55,51.48c-0.09-0.03-0.2-0.05-0.32-0.06
					c-1.55-0.13-2.17,0.01-2.22,0.27c-0.04,0.2,0.08,0.46,0.31,0.74c0.03-0.02,0.06-0.03,0.09-0.05l0.22-0.1l0,0
					c0.11-0.04,0.16-0.07,0.25-0.1c0.07-0.02,0.14-0.04,0.26-0.06l0.01,0l-0.01-0.01l0.38-0.08c0.33-0.07,0.66,0.08,0.74,0.35
					c0.01,0.02,0.02,0.05,0.02,0.08l0,0l0.06,0.73c0.08-0.06,0.16-0.13,0.23-0.21c0.22-0.24,0.38-0.53,0.43-0.81l0.01-0.06
					C18.85,51.89,18.7,51.68,18.55,51.48L18.55,51.48z M20.7,56.67c-0.58-0.1-1.25-0.3-1.94-0.58c-0.6,0.14-1.14,0.2-1.61,0.19
					c0.97,1.01,2.15,1.64,3.41,1.5C20.68,57.47,20.72,57.09,20.7,56.67L20.7,56.67z M16.9,49.82l-0.05,0.02
					c-0.11,0.05-0.21,0.11-0.31,0.19c0.2,0,0.42,0.01,0.65,0.02C17.08,49.97,16.99,49.9,16.9,49.82L16.9,49.82z M19.7,53.38
					c-0.05,0.06-0.1,0.11-0.15,0.17c-0.25,0.28-0.56,0.51-0.9,0.68c0.36,0.2,0.73,0.37,1.06,0.5l0.13-0.06
					C19.87,54.32,19.83,53.85,19.7,53.38L19.7,53.38z M16.41,52.38L16.41,52.38L16.41,52.38z"/>
			</g>
		</g>
		<g>
			<g>
				<path class="st0" d="M30.09,55l-1.44-3.07c0.15,1.13,0.42,2.32,0.77,3.42c0.15,0.48,0.31,0.95,0.49,1.39
					c0.26-0.14,0.55-0.38,0.83-0.7L30.09,55L30.09,55z M30.57,53.32c-0.1-1.81-0.42-2.78-0.82-3.18c-0.1-0.1-0.19-0.14-0.27-0.14
					C29.58,50.94,29.91,52.05,30.57,53.32L30.57,53.32z M29.47,48.84c0.04-0.38,0.13-0.72,0.27-1.01c0.32-0.72,0.88-1.12,1.48-1.15
					c0.65-0.03,1.37,0.33,1.95,1.13c0.4,1.13,0.2,2.77-0.32,4.34c-0.27,0.82-0.63,1.63-1.03,2.34l0-0.01c0-2.93-0.5-4.5-1.17-5.16
					C30.3,48.96,29.89,48.82,29.47,48.84L29.47,48.84z M34.29,51.53c0.11,1.9-0.22,4.39-1.24,7.53c-0.28,0.86-0.56,1.19-0.81,1.12
					c-0.59-0.15-1.27-1.07-1.89-2.38c0.63-0.32,1.26-0.92,1.83-1.69c0.74-1,1.4-2.32,1.84-3.67C34.12,52.14,34.22,51.83,34.29,51.53
					L34.29,51.53z M31.88,61.31c-0.93-0.23-1.93-1.51-2.75-3.26c-1.18-0.14-2.12-1.5-2.38-4.78c-0.07-0.89,0.17-1.83,0.56-2.61
					c-0.03-1.12,0.06-2.16,0.34-3.02c0.61-1.87,1.98-2.93,4.44-2.31c1.14,0.28,1.83,0.99,2.19,1.93c1.36,2,1.96,5.92-0.06,12.09
					C33.69,61.01,32.85,61.55,31.88,61.31z"/>
			</g>
		</g>
		<g>
			<path class="st0" d="M29.13,58.55l0.16-0.75c-0.46-0.73-0.79-2.06-0.78-3.18c0-0.43,0.05-0.84,0.15-1.19
				c0.13-0.42,0.34-0.77,0.66-0.99c0.33-0.22,0.73-0.3,1.19-0.17l0.29-1.29c0.07-0.32,0.39-0.54,0.72-0.49
				c0.29,0.05,0.5,0.29,0.49,0.56l0,0c-0.02,0.56,0.03,1.16,0.09,1.78c0.18,2.07,0.35,4.18-1.66,5.38l-0.12,0.53
				c-0.07,0.32-0.39,0.53-0.72,0.48C29.28,59.17,29.06,58.87,29.13,58.55L29.13,58.55z M30.18,53.4c-0.1-0.04-0.15-0.05-0.16-0.04
				c-0.06,0.04-0.12,0.16-0.16,0.33c-0.07,0.24-0.11,0.54-0.11,0.88c0,0.31,0.02,0.62,0.06,0.93l0.46-2.08
				C30.24,53.41,30.21,53.41,30.18,53.4z"/>
		</g>
		<g>
			<path class="st0" d="M29.7,75.48c0.21,0.36,5.31,5.89,9.53,10.28c2.79,2.9,5.26,5.36,5.8,5.63c3.51,1.73,8.06,5.58,11.51,8.49
				c2.55,2.15,4.53,3.82,5.4,3.94c0.51,0.07,0.99-0.27,1.08-0.74c0.07-0.32-0.06-0.63-0.31-0.82c-0.08-0.06-0.21-0.19-0.39-0.37
				c0.23-0.16,0.38-0.42,0.39-0.71c0-0.01,0-0.03,0-0.04l0,0c-0.01-0.46-0.66-2.15-1.39-3.82c-0.74-1.7-1.59-3.44-1.92-3.84
				c-0.31-0.37-0.88-0.41-1.29-0.1c-0.36,0.28-0.47,0.75-0.26,1.11l0,0c0.84,1.47,0.85,1.52,0.9,2.21l0.02,0.28l-0.88-0.82
				c-2.8-2.6-6.32-5.85-8.6-8.13c-1.41-1.59-2.35-2.71-2.38-2.89c-0.06-0.47-0.53-0.79-1.03-0.71c-0.51,0.08-0.86,0.54-0.8,1.01
				c0.01,0.06,0.04,0.15,0.09,0.25c0.22,0.51,0.81,1.29,1.63,2.22c0.95,1.15,2.21,2.58,3.61,4.11c0.58,0.63,1.18,1.29,1.79,1.95
				c-2.15-1.66-4.34-3.19-6.26-4.14c-0.35-0.17-2.65-2.5-5.33-5.29c-4.16-4.32-9.13-9.67-9.3-9.96L29.7,75.48z"/>
		</g>
		<g>
			<path class="st0" d="M8.92,68.6l-0.76-0.15c-0.81,1.41-2.23,2.7-3.4,3.08c-0.44,0.14-0.86,0.17-1.21,0.03
				c-0.43-0.16-0.77-0.58-0.95-1.3c-0.2-0.75-0.22-1.71-0.03-2.91l-1.3-0.25c-0.32-0.06-0.5-0.8-0.41-1.65
				c0.08-0.75,0.36-1.34,0.64-1.41l0,0c0.58-0.16,1.21-0.51,1.85-0.86c2.16-1.17,4.37-2.37,5.37,2.24l0.53,0.11
				c0.31,0.06,0.5,0.8,0.41,1.65C9.57,68.02,9.23,68.66,8.92,68.6L8.92,68.6z M3.71,67.79c-0.05,0.26-0.06,0.39-0.05,0.42
				c0.03,0.14,0.15,0.24,0.31,0.3c0.24,0.09,0.56,0.07,0.91-0.04c0.31-0.1,0.65-0.27,0.97-0.47l-2.1-0.41
				C3.73,67.65,3.72,67.72,3.71,67.79z"/>
		</g>
		<g>
			<path class="st0" d="M22.11,81.37c0.59-0.32,1.05-0.71,1.28-1.2c0.03-0.06,0.05-0.13,0.07-0.19c-0.03-0.12-0.07-0.23-0.12-0.32
				c-0.25-0.06-0.58-0.11-0.97-0.14c-0.4,0-0.77,0-1.11,0.01c-0.09,0.22-0.22,0.47-0.4,0.74l-0.02,0.02l0,0l0,0.01l-0.04,0.05l0,0
				c-0.19,0.25-0.71,0.77-1.28,1.17c-0.22,0.16-0.45,0.3-0.68,0.4C19.64,81.85,20.71,81.68,22.11,81.37L22.11,81.37z M15.95,81.87
				c-0.04-0.15-0.02-0.3,0.03-0.46l-0.13,0.11c-0.06,0.25-0.08,0.52-0.06,0.81c0.08,0.02,0.16,0.04,0.25,0.04
				c-0.01-0.11-0.02-0.22-0.02-0.33C15.99,81.99,15.96,81.93,15.95,81.87L15.95,81.87z M17.25,81.04c0.02,0.03,0.05,0.05,0.07,0.09
				c0.11-0.12,0.27-0.19,0.45-0.17l0.06,0c0.19-0.11,0.31-0.13,0.41-0.16c0.02-0.01,0.04-0.01,0.15-0.11
				c0.2-0.17,0.5-0.17,0.68,0.01l0.03,0.03c0.42-0.32,0.78-0.68,0.91-0.87l0.01,0.01l0-0.01l0.01-0.01l0.01-0.01l0.15-0.24
				l-0.07,0.01c-0.38,0.06-0.75,0.14-1.11,0.25c-0.13,0.06-0.26,0.13-0.38,0.2C18.06,80.39,17.56,80.74,17.25,81.04L17.25,81.04z
				 M22.37,78.14c0.75,0.06,1.36,0.32,1.74,0.85c0.09,0.04,0.16,0.08,0.22,0.12c0.03,0.02,0.06,0.05,0.08,0.07
				c0.46,0.3,0.77,0.66,0.84,1.07c0.1,0.53-0.22,1.11-1.11,1.69c-0.62,1.17-2.02,1.53-3.49,1.41l-0.05,0
				c-0.75,0.21-1.62,0.4-2.6,0.59c-2.65,0.35-2.7-0.86-4.3-0.66c-0.11-0.58,0.43-1.36,1.25-2.13c0.46-1.67,2.13-2.52,4.01-2.8
				c0.28-0.04,0.56-0.07,0.85-0.09c0.51-0.13,0.94-0.15,1.2-0.02C21.48,78.14,21.94,78.11,22.37,78.14L22.37,78.14z M14.86,82.75
				L14.86,82.75c-0.01-0.07-0.02-0.13-0.02-0.2c-0.15,0.22-0.23,0.41-0.2,0.56c0.04,0.23,0.52,0.33,1.65,0.2
				c-0.48-0.04-0.87-0.11-1.15-0.22C14.98,83.03,14.88,82.89,14.86,82.75z"/>
		</g>
		<g>
			<path class="st0" d="M15.47,76.93c-0.37,0.25-0.73,0.49-1.1,0.7c-0.06,0.07-0.13,0.15-0.21,0.22c-0.33,0.31-0.95,0.62-1.94,0.9
				c-0.85,0.37-1.65,0.63-2.39,0.8c-3.2-0.07-5.07-0.29-6.13-0.61c0.02-0.18,0.13-0.37,0.31-0.57c-0.3-0.33-0.52-0.7-0.64-1.07
				c-0.31-0.94-0.06-1.95,0.82-2.71c1.09-0.95,3.19-1.49,6.44-0.89c1.75,0.32,2.66,0.87,2.97,1.49c0.14,0.28,0.17,0.57,0.11,0.85
				c0.04,0.02,0.08,0.04,0.11,0.06c0.25,0.14,0.46,0.31,0.59,0.48c0.17-0.12,0.34-0.23,0.53-0.35c0.21-0.15,0.49-0.1,0.64,0.09
				C15.73,76.52,15.68,76.79,15.47,76.93L15.47,76.93z M13.59,77.1c-0.02-0.08-0.11-0.17-0.25-0.25l-0.02-0.01
				c-0.08,0.1-0.17,0.19-0.27,0.29c-0.11,0.1-0.23,0.2-0.36,0.31l-0.01,0.04c0,0.05-0.01,0.09-0.03,0.14
				C12.96,77.46,13.28,77.29,13.59,77.1L13.59,77.1z M4.42,77.39c0.16-0.11,0.4-0.2,0.71-0.27c1.18-1.52,3.92-1.9,6.1-1.69
				c0.58,0.05,1.12,0.15,1.59,0.28c-0.01-0.04-0.02-0.08-0.04-0.12c-0.2-0.4-0.91-0.78-2.35-1.04c-2.91-0.53-4.73-0.11-5.62,0.66
				c-0.59,0.51-0.75,1.18-0.55,1.81C4.3,77.15,4.35,77.27,4.42,77.39L4.42,77.39z M4.62,78.89c0,0.02,0,0.03,0,0.04
				c0,0.05,0.08,0.08,0.22,0.1C4.76,78.99,4.69,78.94,4.62,78.89L4.62,78.89z M11.69,77.09c-0.16-0.25-0.54-0.36-1.02-0.36
				c-0.28-0.01-0.6,0.02-0.93,0.07l0,0.01c0.34,0,0.61,0.04,0.76,0.09c0.23,0.09,0.33,0.33,0.23,0.56
				c-0.03,0.07-0.08,0.12-0.13,0.17l-0.01,0C10.99,77.46,11.36,77.28,11.69,77.09L11.69,77.09z M8.84,77.98
				c-0.16-0.04-0.28-0.15-0.32-0.29c-0.54,0.03-1.12,0.08-1.6,0.11c-0.21,0.02-0.4,0.03-0.56,0.04l-0.07,0.04
				c0.77,0.36,1.82,0.37,2.87,0.16C9.05,78.02,8.95,78.01,8.84,77.98z"/>
		</g>
		<g>
			<path class="st0" d="M30.31,54.52c0.22,0.65,0.61,1.23,1.2,1.64c0.07,0.05,0.16,0.1,0.24,0.15c0.18,0.02,0.34,0.04,0.49,0.03
				c0.19-0.19,0.39-0.46,0.58-0.78c0.15-0.35,0.29-0.67,0.41-0.98c-0.27-0.18-0.57-0.4-0.89-0.67l-0.03-0.03l0,0l0,0l-0.06-0.06l0,0
				c-0.27-0.27-0.81-0.95-1.16-1.62c-0.13-0.26-0.23-0.52-0.29-0.77C30.6,52.15,30.43,53.16,30.31,54.52L30.31,54.52z M32.02,48.91
				c0.22,0.04,0.43,0.11,0.64,0.22l-0.1-0.16c-0.33-0.15-0.7-0.29-1.12-0.41c-0.06,0.07-0.11,0.13-0.16,0.21
				c0.16,0.04,0.32,0.07,0.47,0.12C31.84,48.89,31.93,48.9,32.02,48.91L32.02,48.91z M32.69,50.41c-0.05,0.01-0.1,0.02-0.15,0.03
				c0.13,0.14,0.17,0.32,0.07,0.46l-0.04,0.05c0.09,0.22,0.08,0.33,0.07,0.43c0,0.02,0,0.05,0.09,0.18
				c0.17,0.24,0.05,0.51-0.27,0.59l-0.05,0.01c0.28,0.51,0.65,0.98,0.85,1.17l0,0l0,0.01l0.01,0.01l0.01,0.01l0.27,0.23l0.01-0.06
				c0.07-0.36,0.1-0.72,0.09-1.08c-0.04-0.14-0.09-0.28-0.14-0.42C33.28,51.4,32.99,50.82,32.69,50.41L32.69,50.41z M34.78,56.14
				c-0.38,0.63-0.98,1.06-1.87,1.15c-0.08,0.06-0.17,0.11-0.25,0.14c-0.04,0.02-0.09,0.03-0.14,0.04c-0.61,0.28-1.23,0.38-1.84,0.28
				c-0.79-0.15-1.49-0.68-1.96-1.7c-1.41-1.05-1.37-2.42-0.62-3.67l0.02-0.04c0.01-0.75,0.07-1.59,0.19-2.54
				c0.55-2.47,2.27-1.99,2.61-3.47c0.85,0.15,1.74,0.96,2.51,2.01c2.18,1.13,2.72,2.96,2.39,4.72c-0.05,0.26-0.12,0.52-0.21,0.78
				c-0.01,0.5-0.14,0.89-0.44,1.06C35.12,55.36,34.99,55.79,34.78,56.14L34.78,56.14z M31.21,47.58L31.21,47.58
				c0.1,0.02,0.2,0.05,0.29,0.07c-0.25-0.23-0.49-0.37-0.71-0.41c-0.34-0.06-0.67,0.31-0.93,1.36c0.24-0.4,0.5-0.71,0.75-0.91
				C30.77,47.57,31,47.54,31.21,47.58z"/>
		</g>
		<g>
			<g>
				<path class="st0" d="M18.96,51.83c0.12,0.09,0.24,0.19,0.36,0.28l-0.08-0.15C19.15,51.92,19.05,51.87,18.96,51.83L18.96,51.83z
					 M22.62,55.15c-0.06,1.03-0.54,2.02-1.24,2.77c-0.26,0.56-0.69,0.91-1.31,0.96c-1.13,0.54-2.45,0.54-3.65-0.34
					c-0.76-0.55-1.47-1.48-2.01-2.91c-0.13-0.2-0.26-0.41-0.38-0.64c-0.66-1.21-1-2.15-1.08-2.84c-0.7-1.41-0.56-2.19,0.08-2.51
					c0.09-0.04,0.18-0.08,0.3-0.1c-0.02-0.21-0.02-0.43-0.03-0.65l0-0.07l0,0c-0.01-0.36-0.02-0.52,0.05-0.71
					c0.05-0.16,0.14-0.26,0.28-0.46c0.06-0.08,0.13-0.17,0.18-0.25c0.11-0.15,0.29-0.23,0.49-0.25l0-0.01
					c3.48-0.29,5.66,1.89,6.72,4.44c0.05,0.1,0.09,0.2,0.12,0.3C22.26,52.84,22.69,54.02,22.62,55.15L22.62,55.15z M20.44,56.45
					l0-0.08c-0.17,0.04-0.35,0.08-0.56,0.1c-0.31,0.39-0.68,0.71-1.09,0.93c0.29,0.2,0.55,0.33,0.78,0.4
					c0.03,0.02,0.07,0.02,0.1,0.03c0.35-0.15,0.61-0.63,0.74-1.29L20.44,56.45L20.44,56.45z M16.37,54.92
					c0.09,0.03,0.19,0.06,0.31,0.08c1.54,0.23,2.17,0.13,2.23-0.13c0.06-0.2-0.05-0.46-0.25-0.76c-0.03,0.02-0.07,0.03-0.1,0.04
					l-0.23,0.08l0,0c-0.11,0.04-0.17,0.06-0.26,0.08c-0.07,0.02-0.14,0.03-0.26,0.05l0,0l0,0l-0.38,0.06
					c-0.33,0.06-0.65-0.12-0.71-0.39c0-0.03-0.01-0.06-0.01-0.09l0,0l-0.01-0.73c-0.08,0.06-0.17,0.12-0.24,0.2
					c-0.23,0.22-0.42,0.5-0.48,0.78l-0.01,0.06C16.09,54.49,16.23,54.71,16.37,54.92L16.37,54.92z M14.57,49.6
					c0.57,0.13,1.23,0.38,1.89,0.71c0.61-0.11,1.14-0.13,1.62-0.09c-0.91-1.06-2.03-1.77-3.3-1.71
					C14.65,48.8,14.59,49.18,14.57,49.6L14.57,49.6z M17.9,56.68l0.06-0.02c0.11-0.04,0.22-0.1,0.32-0.16
					c-0.2-0.02-0.41-0.04-0.64-0.06C17.73,56.51,17.82,56.6,17.9,56.68L17.9,56.68z M15.36,52.95c0.05-0.06,0.11-0.11,0.16-0.16
					c0.27-0.26,0.59-0.48,0.94-0.61c-0.35-0.23-0.7-0.43-1.03-0.57l-0.14,0.05C15.24,51.99,15.26,52.46,15.36,52.95L15.36,52.95z
					 M18.57,54.15L18.57,54.15L18.57,54.15z"/>
			</g>
		</g>
	</g>
	<g>
		<g>
			<path class="st0" d="M84.79,100.93c-0.34-1.01-0.7-1.96-1.06-2.87c-3.43-4.67-7.63-11.21-11.78-17.85l-0.98-1.16
				c3.68,6.15,6.97,11.52,8.17,13.37l0,0c0.21,0.33,0.14,0.76-0.17,0.99c-0.32,0.23-0.78,0.15-1.01-0.18
				c-2.91-3.99-4.65-6.22-5.81-7.7c-1.05-1.35-1.64-2.1-2.21-3.03c-0.7-1.17-1.33-2.57-2.75-5.74c-0.63-1.39-1.4-3.12-2.42-5.34
				c-0.44-0.74-0.87-1.48-1.29-2.2c-2.05-3.05-4.2-6.61-6.44-10.93c-3.74-7.23-6.37-18.88-8.71-29.18
				c-1.07-4.73-2.08-9.18-3.09-12.74c-0.93-2.46-1.92-4.91-3-7.36c-0.16-0.31-0.1-0.69,0.18-0.91c0.31-0.25,0.77-0.19,1.02,0.13
				c1.12,1.41,2.15,4.13,3.15,7.64c2.46,6.5,4.51,13.05,6.62,19.8c2.63,8.4,5.35,17.12,9.1,26.45c2.09,3.25,4.45,7.06,6.93,11.06
				c0.87,1.4,1.76,2.82,2.64,4.25c0.09,0.04,0.16,0.09,0.23,0.17c0.4,0.41,2.03,2.62,4.18,5.57c1.36,1.65,2.65,3.3,3.87,5.11
				l1.02,1.11c1.19,1.3,2.4,2.62,3.61,4.01c0.05,0.03,0.1,0.08,0.14,0.12l0.4,0.42l0.02,0.02c0.26,0.27,0.37,0.39,0.49,0.54
				c0.09,0.12,0.15,0.19,0.23,0.34c0.05,0.08,0.12,0.2,0.27,0.44l0,0c0.21,0.31,0.16,0.74-0.13,0.97c-0.14,0.12-0.32,0.17-0.49,0.16
				c2.65,3.79,4.7,6.78,4.91,7.26l-0.01,0c0.09,0.2,0.09,0.44-0.01,0.65c-0.19,0.36-0.63,0.48-0.99,0.28
				c-0.92-0.52-2.12-1.73-3.54-3.44c-0.08,0.13-0.21,0.23-0.37,0.28C85.35,101.53,84.93,101.32,84.79,100.93L84.79,100.93z
				 M56.92,54.26c0.51,0.63,1.09,1.41,1.73,2.33c-2.63-7.14-4.75-13.93-6.82-20.52c-0.53-1.71-1.06-3.41-1.6-5.09
				c1.82,8.04,3.86,16.63,6.46,23.08C56.78,54.11,56.86,54.17,56.92,54.26z"/>
		</g>
		<g>
			<path class="st0" d="M42.97,21.99c-0.46-1.17-3.28-8.87-3.44-14.39c-0.05-1.62,0.13-3.06,0.66-4.15c0.68-1.41,1.82-2.3,3.58-2.39
				c0.16,0,0.32-0.01,0.5,0c0.14-0.03,0.26-0.03,0.36-0.01l0,0c0.11,0.03,0.22,0.05,0.32,0.08c0.35,0.05,0.72,0.14,1.11,0.26
				c1.01-0.59,2.07-0.71,3.11-0.2c1.27,0.64,2.54,2.39,3.61,5.66c0.14,0.31,0.29,0.63,0.41,0.97c1.17,2.97,1.6,6.73,1.23,10.24
				c-0.39,3.6-1.66,6.98-3.9,9.04c-0.49,0.45-1.02,0.84-1.6,1.16c-0.3,0.17-0.6,0.2-0.8,0.12c-0.72-0.25-1.68-1.63-2.67-3.64
				c-0.81-0.75-1.48-1.6-2.04-2.51C43.19,22.21,43.03,22.14,42.97,21.99L42.97,21.99z M52.1,22.06c-0.37,0.26-0.77,0.44-1.19,0.56
				c-0.19,0.06-0.39,0.09-0.59,0.11c-0.37,0.74-0.87,1.42-1.51,2.02c-0.29,0.28-0.62,0.53-0.97,0.77c0.43,0.75,0.8,1.26,1.1,1.47
				c0.21-0.14,0.41-0.3,0.6-0.48C50.69,25.45,51.54,23.88,52.1,22.06L52.1,22.06z M46.91,23.67c0.24,0.22,0.5,0.44,0.76,0.64
				c0.05-0.04,0.09-0.08,0.14-0.12c0.48-0.45,0.86-0.99,1.14-1.59c-0.22-0.06-0.44-0.15-0.66-0.26c-0.58,0.32-1.17,0.49-1.75,0.5
				C46.66,23.13,46.79,23.4,46.91,23.67L46.91,23.67z M45.68,20.77c0.29,0.3,0.6,0.49,0.9,0.62c0.15,0.06,0.3,0.09,0.45,0.1
				c-0.68-0.61-1.37-1.43-2.01-2.48C45.23,19.61,45.46,20.2,45.68,20.77L45.68,20.77z M41.99,5.68c0.11-0.35,0.26-0.69,0.41-1.07
				c0.08-0.21,0.17-0.43,0.26-0.67c-0.14-0.11-0.27-0.22-0.41-0.32C42.07,4.13,41.99,4.83,41.99,5.68L41.99,5.68z M44.23,5.56
				c-0.2,0.5-0.39,1.04-0.56,1.61c-0.09,0.31-0.18,0.63-0.26,0.95c0.05,0.45,0.13,0.96,0.24,1.55c0.06,0.35,0.13,0.69,0.2,1.03
				c2.45,1.84,3.08,2.86,3.92,4.22c0.36,0.58,0.76,1.22,1.36,2.02l0.03,0.05l0,0l0,0c0.18,0.23-0.01,0.65-0.43,0.93
				c-0.41,0.28-0.89,0.32-1.06,0.09l0,0c-0.33-0.41-0.7-0.8-1.13-1.14c-0.25-0.2-0.53-0.38-0.84-0.54l-0.05,0.06
				c0.94,2.03,2.02,3.44,3.1,4.25c0.08-0.07,0.15-0.16,0.23-0.24c0.22-0.26,0.43-0.54,0.64-0.85c0.03-0.91-0.05-1.89-0.22-2.88
				c-0.54-3.17-2.02-6.5-3.72-9.13C45.21,6.82,44.72,6.15,44.23,5.56L44.23,5.56z M47.21,6.57c1.74,2.68,3.25,6.11,3.81,9.36
				c0.02,0.15,0.04,0.28,0.06,0.41c0.09-0.3,0.18-0.62,0.25-0.93c1.04-4.51,0.06-10.03-5.58-12.39c-0.22,0.24-0.43,0.51-0.63,0.83
				C45.83,4.61,46.53,5.53,47.21,6.57L47.21,6.57z M50.84,21.42c0.09-0.01,0.18-0.02,0.27-0.05c0.31-0.08,0.61-0.35,0.88-0.77
				c0.65-1.05,0.99-2.75,0.83-5.09c-0.37,1.41-0.93,2.71-1.6,3.82C51.16,20.05,51.04,20.76,50.84,21.42L50.84,21.42z M45.33,15.17
				l0.19-0.11l0,0l0,0c0.04-0.03,0.08-0.06,0.13-0.08c-0.28-0.41-0.59-0.82-1.02-1.27c0.17,0.55,0.36,1.07,0.55,1.56L45.33,15.17z"
				/>
		</g>
		<g>
			<path class="st0" d="M49.57,50.95c-7.27-2.98-11.29-6.19-13.14-8.91c-3.06-3.1-5.34-6.34-5-8.16c0.27-1.5,1.83-2.17,5.26-1.42
				c0.05,0.02,0.11,0.03,0.17,0.04c3.87-1.03,8.74,2.12,12.19,5.79c1.47,1.57,2.7,3.24,3.46,4.7c0.85,1.61,1.15,3.05,0.69,3.99
				c-0.39,0.78-1.23,1.17-2.65,1c0.05,0.72-0.1,1.25-0.42,1.61c0.36,0.17,0.53,0.59,0.39,0.95C50.37,50.92,49.95,51.1,49.57,50.95
				L49.57,50.95z M47.86,48.62c0.43,0.12,0.79,0.13,1.04,0.04c0.22-0.09,0.29-0.41,0.16-1.02l-0.25-0.08
				c-0.75,0.27-1.48,0.43-2.17,0.48C47.04,48.23,47.44,48.43,47.86,48.62L47.86,48.62z M35.3,37.36c-0.4-0.9-0.76-1.79-1.09-2.64
				c-0.11-0.29-0.04-0.6,0.17-0.8l0-0.01c0.11-0.11,0.23-0.21,0.34-0.31c-1.21-0.1-1.77,0.13-1.86,0.58
				c-0.17,0.93,0.78,2.54,2.3,4.36C35.14,38.12,35.19,37.72,35.3,37.36L35.3,37.36z M37.99,36.52c0.45,1.01,1.24,2.12,2.19,3.21
				c1.97,2.25,4.54,4.31,6.12,5.13c0.83,0.44,1.57,0.79,2.2,1.06l-0.11-0.29c-0.3-0.03-0.67-0.14-1.1-0.33
				c-1.38-0.61-3.84-2.73-7.7-7.29c-0.27-0.31-0.23-0.77,0.07-1.03c0.22-0.19,0.54-0.22,0.78-0.09l0,0.01
				c0.52,0.25,1.15,0.54,1.8,0.84c0.38,0.17,0.78,0.35,1.18,0.54c-1.07-0.9-2.13-1.46-3.1-1.73C39.42,36.3,38.62,36.31,37.99,36.52
				L37.99,36.52z M36.26,35.84c-0.06-0.25-0.09-0.48-0.1-0.72c-0.01-0.27,0.13-0.52,0.34-0.65c0.19-0.14,0.39-0.26,0.59-0.36
				l-0.17-0.07c-0.41,0.15-0.8,0.37-1.17,0.66c0.15,0.39,0.32,0.78,0.49,1.18L36.26,35.84L36.26,35.84z M46.19,41.44
				c-0.93-0.66-2.1-1.25-3.25-1.79c2.17,2.36,3.67,3.65,4.63,4.18C47.13,42.95,46.67,42.16,46.19,41.44L46.19,41.44z M50.72,46.37
				c-0.01,0.09-0.04,0.17-0.08,0.24c0.7,0.11,1.1-0.02,1.25-0.32c0.24-0.48-0.04-1.44-0.66-2.64c-0.7-1.35-1.84-2.89-3.22-4.36
				c-0.48-0.52-1-1.03-1.54-1.51c0.99,1.2,1.8,2.51,2.34,3.65C50.16,43.17,50.97,44.91,50.72,46.37L50.72,46.37z M45.67,46.17
				c-1.71-0.9-4.48-3.1-6.56-5.48c-0.7-0.8-1.33-1.64-1.83-2.45c1,2.09,2.19,4.15,3.61,5.7c1.52,1.66,3.34,2.74,5.53,2.62
				C46.17,46.43,45.92,46.3,45.67,46.17z"/>
		</g>
		<g>
			<path class="st0" d="M58.07,56.25c-0.16-1.36-0.33-2.54-0.49-3.66l-0.04-0.29c-0.32,0.06-0.66-0.11-0.81-0.42
				c-0.72-1.34-1-2.71-0.92-4.08c-0.95-1.15-1.56-2.91-1.69-5.43c-0.25-4.88,1.86-7.56,4.68-8.65c1.79-2.06,4.32-3.43,7.59-3.37
				c0.84-0.5,1.74-1,2.73-1.51c0.35-0.18,0.79-0.04,0.99,0.33c0.05,0.09,0.07,0.18,0.08,0.28c0.08,0.46,0.12,0.96,0.12,1.48
				c0.33,0.15,0.65,0.33,0.94,0.54c0.35,0.18,0.66,0.38,0.95,0.59c2.82-0.7,4.81-0.17,4.83,2.1c0.01,1.5-1.16,3.91-4.04,7.4
				c-4.9,5.93-8.79,8.28-11.63,8.43l-0.22,0.1c-0.12,0.06-0.24,0.11-0.36,0.15c-0.62,0.52-1.24,0.98-1.88,1.37l0.11,0.79
				c0.17,1.21,0.35,2.48,0.5,3.69c0.05,0.41-0.24,0.77-0.64,0.8C58.49,56.95,58.12,56.65,58.07,56.25L58.07,56.25z M58.4,47.3
				c0.04,0.05,0.08,0.1,0.12,0.15c1.53-0.38,2.91-0.81,4.15-1.28c0.83-1.04,1.61-2.17,2.32-3.38c-1.1,0.36-2.32,0.61-3.45,0.77
				c-0.3,0.37-0.64,0.76-0.93,1.08c-0.23,0.26-0.44,0.49-0.56,0.64c-0.25,0.31-0.71,0.35-1.02,0.09c-0.18-0.14-0.27-0.36-0.28-0.57
				c-0.16,0.22-0.31,0.44-0.45,0.66C58.32,46.06,58.35,46.68,58.4,47.3L58.4,47.3z M58.75,41.12c0.94-1.18,2.04-2.3,3.24-3.33
				c1.09-0.93,2.26-1.8,3.44-2.56c-0.78-0.29-1.62-0.49-2.47-0.57C60.6,36.74,59.34,38.84,58.75,41.12L58.75,41.12z M64.47,33.43
				c0.86,0.2,1.7,0.5,2.46,0.89c0.58-0.33,1.16-0.63,1.73-0.91c0.07-0.43,0.13-0.85,0.16-1.26l-0.13-0.03
				c-0.6-0.14-1.18-0.23-1.74-0.26l-0.19,0.03C65.93,32.41,65.17,32.91,64.47,33.43L64.47,33.43z M67.84,36.61
				c-0.26-0.22-0.55-0.42-0.84-0.62c-1.19,0.73-2.4,1.57-3.53,2.49c1.09-0.67,2.17-1.17,3.12-1.39l0.03-0.01
				c0.13-0.03,0.24-0.05,0.34-0.07c0.26-0.04,0.5,0.05,0.67,0.23C67.69,37.04,67.77,36.83,67.84,36.61L67.84,36.61z M66.98,38.88
				c-0.04-0.11-0.1-0.2-0.17-0.3c-1.43,0.37-3.17,1.43-4.78,2.78c0.19,0.11,0.32,0.3,0.36,0.53l0,0.03
				c1.41-0.26,2.82-0.67,3.76-1.24C66.44,40.08,66.72,39.48,66.98,38.88L66.98,38.88z M66.84,42.53c-0.46,0.83-0.96,1.66-1.48,2.45
				c1.34-0.68,2.45-1.42,3.37-2.18c1.07-1.64,1.12-3.15,0.53-4.4c-0.09-0.19-0.19-0.37-0.31-0.55c-0.12,0.35-0.26,0.69-0.39,1.04
				c0.26,1.01-0.15,1.85-0.97,2.57c-0.11,0.08-0.21,0.18-0.33,0.26C67.12,41.99,66.98,42.26,66.84,42.53L66.84,42.53z M69.49,36.21
				c0.44,0.49,0.81,1.02,1.08,1.59c0.35,0.75,0.55,1.56,0.53,2.41c0.29-0.45,0.52-0.89,0.7-1.33c0.74-1.77,0.63-3.44-0.05-4.72
				c-0.06-0.12-0.13-0.23-0.2-0.34c-0.51,0.18-1.05,0.38-1.61,0.64C69.81,35.03,69.66,35.62,69.49,36.21L69.49,36.21z M70.23,32.73
				l0.12-0.05l-0.12-0.05L70.23,32.73L70.23,32.73z M73.37,33.34c0.7,1.12,0.84,2.47,0.56,3.92c-0.06,0.34-0.15,0.67-0.26,1.01
				c1.35-1.91,1.92-3.26,1.91-4.13C75.58,33.33,74.7,33.12,73.37,33.34L73.37,33.34z M55.58,42.34c0.01,0.12,0.02,0.23,0.02,0.34
				c0-1.69,0.32-3.49,0.97-5.17C55.87,38.7,55.48,40.28,55.58,42.34z"/>
		</g>
		<g>
			<path class="st0" d="M67.59,81.62c-0.4-0.16-2.96-1.46-6.21-3.22c-1.48,1.09-3.52,1.78-5.75,1.79c-4.05,0-8.76-2.27-11.81-8.6
				c-0.22-0.46-0.38-0.9-0.49-1.31c-0.92-1.35-1.51-2.73-1.7-3.94c-0.36-2.3,0.58-4.08,3.14-4.35c2.5-0.27,6.74,1.09,13.09,5.28
				c2.9,1.3,5.28,3.2,6.02,5.57c0.38,0.72,0.66,1.53,0.83,2.43c0.07,0.33-0.1,0.65-0.39,0.79c-0.27,0.14-0.53,0.28-0.79,0.39
				c-0.16,0.06-0.31,0.12-0.47,0.19c-0.16,0.26-0.35,0.51-0.56,0.75c2.94,1.58,5.22,2.73,5.59,2.89c0.38,0.15,0.57,0.59,0.43,0.95
				C68.39,81.59,67.97,81.77,67.59,81.62L67.59,81.62z M56.27,73.87c0.8,0.37,1.58,0.69,2.29,0.87c0.85,0.21,1.53,0.27,1.9,0.02
				c-1.12-0.9-2.95-2.01-4.97-2.99c-0.45-0.08-1-0.17-1.6-0.27c-0.69-0.11-1.41-0.24-2.06-0.35C53.19,72.03,54.71,72.96,56.27,73.87
				L56.27,73.87z M49.55,71.35c-0.72-0.5-1.36-0.98-1.92-1.42c1.21,1.4,3.31,3.01,5.74,4.19c0.4,0.18,0.81,0.37,1.22,0.53l-0.38-0.2
				c-1.59-0.88-3.13-1.92-4.18-2.76L49.55,71.35L49.55,71.35z M59.14,77.17c-0.19-0.01-0.39-0.02-0.58-0.04
				c-4.64,0.55-8.67-0.94-11.64-3.16c2.59,3.43,5.81,4.74,8.66,4.73c1.64,0,3.14-0.42,4.32-1.11L59.14,77.17L59.14,77.17z
				 M47.45,67.84c1.09-0.02,2.41,0.24,3.82,0.67c0.04-0.19,0.15-0.37,0.32-0.48c0.18-0.11,0.4-0.13,0.59-0.07l0-0.01
				c2.03,0.63,2.65,1.05,3.54,1.64c0.3,0.2,0.63,0.41,1.04,0.65c0.21,0.13,0.35,0.35,0.37,0.58c0.04,0.06,0.07,0.13,0.1,0.2
				c2,1.07,3.74,2.2,4.67,3.09c0.18,0.17,0.25,0.41,0.23,0.63l0.14-0.06c0.15-0.75,0.02-1.54-0.46-2.32
				c-0.14-0.22-0.31-0.45-0.5-0.66c-0.25-0.26-0.51-0.5-0.78-0.75c-1.85-1.51-5.19-2.86-10.56-3.67c-1.68-0.26-2.67-0.27-3.11-0.09
				c-0.01,0,0.15,0.14,0.36,0.39C47.28,67.67,47.36,67.75,47.45,67.84L47.45,67.84z M45.55,67.71c-0.17,0.12-0.32,0.25-0.44,0.39
				c-0.36,0.38-0.51,0.92-0.4,1.61c0.51,0.71,1.14,1.42,1.87,2.09c1.42,1.3,3.22,2.45,5.3,3.16c-2.95-1.59-5.34-3.76-6.26-5.39
				c-0.09-0.15-0.16-0.3-0.22-0.42c-0.17-0.38,0-0.81,0.36-0.97l0,0l0.07-0.03C45.72,68,45.62,67.85,45.55,67.71L45.55,67.71z
				 M49.89,65.39c0.78,0.03,1.59,0.1,2.41,0.23c-3.37-1.76-5.77-2.35-7.33-2.18c-1.56,0.17-2.13,1.26-1.91,2.7
				c0.08,0.5,0.24,1.04,0.49,1.6c0.12-0.23,0.28-0.45,0.46-0.65C45.12,65.84,47.34,65.31,49.89,65.39z"/>
		</g>
		<g>
			<path class="st0" d="M74.46,83.4c-0.28,0.16-0.57,0.31-0.88,0.45c-0.37,0.16-0.8-0.02-0.96-0.4c-0.07-0.15-0.14-0.33-0.2-0.51
				c-0.86-2.47-0.72-6.46-0.01-9.97c0.09-0.41,0.18-0.82,0.28-1.22c-0.64-5.64-0.85-11.27,0.73-12.35c1.09-0.74,2.63,0.05,4.75,3.17
				c4.24,6.23,4.5,13.24,3.28,17.39c-0.48,1.63-1.2,2.86-2.02,3.49c-0.93,0.71-1.94,0.76-2.92-0.05c-0.29,0.23-0.47,0.47-0.44,0.77
				c0.05,0.4-0.24,0.76-0.64,0.8c-0.4,0.03-0.76-0.27-0.8-0.68l0-0.02C74.59,84.17,74.54,83.87,74.46,83.4L74.46,83.4z M73.48,64.21
				c0.2-0.33,0.44-0.67,0.73-1c0.26-0.3,0.72-0.33,1.03-0.06c0.07,0.07,0.13,0.14,0.17,0.23c0.26,0.43,0.56,0.94,0.89,1.52
				c0.17-0.06,0.37-0.06,0.55,0.02c0.13,0.06,0.23,0.14,0.3,0.25l0,0c0.4,0.57,0.76,1.19,1.06,1.88c0.5,1.12,0.86,2.38,1.06,3.71
				c0.28,0.67,0.55,1.34,0.79,2.01c0.21,0.59,0.41,1.18,0.57,1.76c-0.1-3.41-1.12-7.42-3.65-11.15c-1.53-2.25-2.36-2.99-2.72-2.75
				C73.7,61,73.49,62.34,73.48,64.21L73.48,64.21z M73.34,76.75c-0.16,2.03-0.07,3.96,0.33,5.38c0.17-0.09,0.34-0.2,0.49-0.31
				C73.93,80.49,73.64,78.71,73.34,76.75L73.34,76.75z M78.46,82.31l-0.03-0.06l0,0l-0.05-0.13c-0.16,0.12-0.32,0.24-0.48,0.35
				C78.09,82.49,78.28,82.44,78.46,82.31L78.46,82.31z M76.06,79.95l0.09-0.13l-0.31-0.6C75.91,79.49,75.98,79.72,76.06,79.95
				L76.06,79.95z M74.13,67.73c0.36-0.68,0.76-1.26,1.18-1.67c-0.2-0.36-0.4-0.71-0.59-1.02C74.25,65.88,74.11,66.76,74.13,67.73
				L74.13,67.73z M76.38,68.08c-0.14,0.44-0.27,0.88-0.38,1.32c0.57,0.66,1.3,1.72,1.96,2.97c-0.02-0.23-0.04-0.47-0.06-0.7
				c-0.17-0.54-0.37-1.11-0.59-1.71C77.01,69.31,76.7,68.68,76.38,68.08L76.38,68.08z M76.81,81.43c0.07-0.06,0.14-0.1,0.2-0.15
				c-0.01-0.01-0.03-0.03-0.05-0.04L76.81,81.43z"/>
		</g>
		<g>
			<g>
				<path class="st0" d="M51.41,68.21c0.19,0.03,0.39,0.06,0.58,0.1l-0.19-0.13C51.67,68.18,51.54,68.2,51.41,68.21L51.41,68.21z
					 M57.68,69.81c0.77,1.3,1.11,2.84,1.02,4.23c0.2,0.86,0.07,1.58-0.5,2.05c-0.67,1.42-1.95,2.32-3.84,2.07
					c-1.18-0.17-2.63-0.83-4.32-2.21c-0.29-0.16-0.58-0.33-0.89-0.53c-1.63-1.03-2.7-1.95-3.36-2.74c-1.83-1.25-2.31-2.3-1.95-3.14
					c0.05-0.11,0.12-0.22,0.2-0.32c-0.19-0.26-0.37-0.51-0.55-0.78l-0.06-0.09l0,0c-0.3-0.43-0.43-0.62-0.52-0.89
					c-0.08-0.23-0.08-0.42-0.1-0.75c0-0.13-0.01-0.3-0.01-0.42c-0.02-0.26,0.09-0.48,0.27-0.64l0,0c3.17-2.72,7.06-1.51,10.15,0.89
					c0.12,0.09,0.24,0.19,0.37,0.29C55.46,67.21,56.83,68.37,57.68,69.81L57.68,69.81z M56.6,72.88l-0.06-0.11
					c-0.12,0.17-0.27,0.33-0.46,0.51c0.01,0.68-0.09,1.33-0.32,1.87c0.45,0.05,0.81,0.03,1.09-0.03c0.05-0.01,0.08-0.02,0.12-0.04
					c0.23-0.42,0.08-1.19-0.31-2.07L56.6,72.88L56.6,72.88z M51.39,73.75c0.12-0.02,0.23-0.06,0.36-0.11
					c1.69-0.76,2.22-1.31,2.08-1.66c-0.11-0.28-0.42-0.54-0.87-0.76c-0.01,0.05-0.03,0.08-0.06,0.11l-0.16,0.26l0,0
					c-0.08,0.12-0.11,0.18-0.19,0.28c-0.05,0.06-0.11,0.12-0.22,0.23l0,0l0,0l-0.32,0.34c-0.28,0.29-0.73,0.29-1.01,0
					c-0.03-0.03-0.05-0.06-0.07-0.1l0,0l-0.61-0.89c-0.04,0.13-0.06,0.26-0.08,0.41c-0.05,0.43,0.01,0.9,0.16,1.28l0.03,0.09
					C50.77,73.41,51.09,73.58,51.39,73.75L51.39,73.75z M45.33,68.44c0.67-0.22,1.5-0.37,2.41-0.42c0.51-0.54,1.01-0.94,1.51-1.21
					c-1.75-0.68-3.42-0.8-4.61,0.14C44.76,67.41,45.01,67.92,45.33,68.44L45.33,68.44z M54.31,74.86l0.04-0.07
					c0.07-0.12,0.14-0.26,0.18-0.42c-0.21,0.12-0.43,0.24-0.67,0.36C54.02,74.78,54.17,74.82,54.31,74.86L54.31,74.86z M48.82,72.02
					c0-0.1,0.01-0.2,0.02-0.3c0.05-0.51,0.19-0.99,0.41-1.39c-0.52-0.04-1.03-0.04-1.45,0l-0.1,0.15
					C47.93,70.93,48.32,71.49,48.82,72.02L48.82,72.02z M52.91,71.32L52.91,71.32L52.91,71.32z"/>
			</g>
		</g>
		<g>
			<g>
				<path class="st0" d="M48.17,41.76c0.2,0.03,0.39,0.06,0.58,0.09l-0.18-0.12C48.43,41.74,48.3,41.75,48.17,41.76L48.17,41.76z
					 M54.44,43.36c0.77,1.3,1.11,2.84,1.02,4.23c0.21,0.87,0.07,1.59-0.5,2.06c-0.66,1.41-1.95,2.32-3.84,2.06
					c-1.18-0.17-2.62-0.83-4.32-2.21c-0.29-0.16-0.59-0.33-0.89-0.53c-1.63-1.04-2.71-1.95-3.36-2.75c-1.83-1.25-2.31-2.3-1.95-3.14
					c0.05-0.11,0.12-0.22,0.2-0.32c-0.18-0.26-0.37-0.52-0.55-0.78l-0.06-0.09l0,0c-0.31-0.43-0.44-0.62-0.52-0.89
					c-0.07-0.23-0.08-0.42-0.09-0.75c0-0.13-0.01-0.3-0.02-0.43c-0.01-0.25,0.09-0.48,0.27-0.64l0,0c3.17-2.71,7.06-1.51,10.14,0.89
					c0.13,0.09,0.25,0.19,0.37,0.29C52.22,40.76,53.59,41.93,54.44,43.36L54.44,43.36z M53.37,46.42l-0.07-0.1
					c-0.13,0.17-0.28,0.34-0.45,0.5c0.01,0.68-0.1,1.33-0.32,1.87c0.45,0.04,0.81,0.03,1.09-0.03c0.04-0.01,0.08-0.02,0.11-0.04
					c0.23-0.43,0.09-1.19-0.31-2.08L53.37,46.42L53.37,46.42z M48.15,47.29c0.12-0.02,0.24-0.06,0.37-0.11
					c1.69-0.76,2.22-1.31,2.08-1.67c-0.11-0.27-0.42-0.53-0.87-0.75c-0.01,0.03-0.03,0.07-0.06,0.11l-0.16,0.25l0,0
					c-0.08,0.12-0.12,0.18-0.19,0.28c-0.05,0.06-0.11,0.12-0.21,0.23l0,0l0,0l-0.33,0.33c-0.28,0.3-0.73,0.3-1.01,0.01
					c-0.03-0.03-0.05-0.06-0.07-0.09l0,0L47.09,45c-0.03,0.12-0.06,0.26-0.07,0.41c-0.04,0.43,0,0.89,0.16,1.27l0.04,0.08
					C47.54,46.95,47.85,47.13,48.15,47.29L48.15,47.29z M42.09,42c0.67-0.23,1.5-0.36,2.42-0.42c0.51-0.54,1.01-0.94,1.5-1.2
					c-1.74-0.69-3.42-0.8-4.61,0.14C41.52,40.96,41.77,41.47,42.09,42L42.09,42z M51.07,48.41l0.04-0.06
					c0.07-0.13,0.13-0.27,0.18-0.42c-0.21,0.12-0.43,0.24-0.67,0.36C50.77,48.33,50.93,48.37,51.07,48.41L51.07,48.41z M45.57,45.58
					c0.01-0.11,0.01-0.21,0.02-0.31c0.05-0.5,0.19-0.99,0.42-1.39c-0.52-0.03-1.03-0.04-1.46,0l-0.09,0.15
					C44.69,44.48,45.08,45.03,45.57,45.58L45.57,45.58z M49.67,44.87L49.67,44.87L49.67,44.87z"/>
			</g>
		</g>
		<g>
			<g>
				<path class="st0" d="M69.33,40.16c-0.1,0.17-0.19,0.34-0.29,0.51l0.18-0.13C69.26,40.42,69.29,40.29,69.33,40.16L69.33,40.16z
					 M65.67,45.41c-1.46,0.2-2.99-0.11-4.22-0.75c-0.86-0.16-1.48-0.58-1.71-1.31c-1.06-1.19-1.44-2.77-0.55-4.43
					c0.56-1.05,1.68-2.13,3.53-3.16c0.24-0.21,0.51-0.42,0.79-0.63c1.52-1.11,2.74-1.75,3.69-2.04c1.78-1.21,2.92-1.24,3.55-0.57
					c0.08,0.09,0.16,0.2,0.22,0.32c0.3-0.07,0.6-0.14,0.91-0.21L72,32.62l0,0c0.49-0.1,0.72-0.15,1-0.13
					c0.24,0.03,0.41,0.1,0.72,0.22c0.12,0.05,0.28,0.11,0.39,0.15c0.24,0.09,0.41,0.29,0.49,0.5l0,0c1.37,4.07-1.08,7.24-4.36,9.16
					c-0.13,0.08-0.26,0.16-0.39,0.23C68.82,44.37,67.28,45.18,65.67,45.41L65.67,45.41z M63.24,43.15l0.11-0.02
					c-0.1-0.19-0.21-0.4-0.3-0.63c-0.63-0.27-1.18-0.62-1.6-1.06c-0.2,0.4-0.32,0.75-0.35,1.04c-0.01,0.04-0.01,0.09-0.01,0.12
					c0.31,0.38,1.06,0.56,2.01,0.55L63.24,43.15L63.24,43.15z M64.26,37.92c-0.02,0.11-0.03,0.24-0.02,0.38
					c0.11,1.9,0.42,2.61,0.8,2.63c0.3,0.01,0.64-0.18,1-0.5c-0.03-0.04-0.06-0.06-0.09-0.1l-0.17-0.25l0-0.01
					c-0.08-0.12-0.13-0.18-0.18-0.29c-0.05-0.08-0.08-0.15-0.14-0.3l0,0l0,0l-0.19-0.44c-0.17-0.39-0.02-0.81,0.34-0.95
					c0.04-0.02,0.08-0.03,0.12-0.04l0,0l1.02-0.2c-0.1-0.09-0.22-0.16-0.34-0.24c-0.38-0.22-0.83-0.36-1.22-0.37l-0.09,0
					C64.79,37.47,64.52,37.69,64.26,37.92L64.26,37.92z M71.24,34.37c-0.03,0.72-0.2,1.56-0.47,2.44c0.32,0.69,0.51,1.32,0.58,1.9
					c1.24-1.36,1.93-2.89,1.48-4.38C72.38,34.25,71.83,34.27,71.24,34.37L71.24,34.37z M62.22,40.2l0.05,0.07
					c0.09,0.12,0.2,0.23,0.33,0.34c-0.04-0.25-0.07-0.5-0.09-0.78C62.4,39.95,62.31,40.08,62.22,40.2L62.22,40.2z M66.74,36.19
					c0.1,0.05,0.19,0.09,0.27,0.15c0.45,0.26,0.84,0.58,1.13,0.95c0.22-0.48,0.4-0.94,0.51-1.37l-0.11-0.15
					C68.06,35.8,67.41,35.94,66.74,36.19L66.74,36.19z M65.95,40.32L65.95,40.32L65.95,40.32z"/>
			</g>
		</g>
		<g>
			<path class="st0" d="M72.73,71.48c0.31,1.07,0.88,2.03,1.78,2.72c0.12,0.09,0.24,0.18,0.37,0.26c0.27,0.05,0.52,0.08,0.76,0.1
				c0.3-0.29,0.62-0.71,0.92-1.23c0.25-0.54,0.47-1.06,0.67-1.54c-0.42-0.31-0.87-0.68-1.35-1.15l-0.04-0.04l-0.01,0l0-0.01
				l-0.08-0.1l-0.01,0c-0.41-0.45-1.21-1.6-1.71-2.7c-0.2-0.43-0.35-0.85-0.42-1.26C73.27,67.69,72.97,69.3,72.73,71.48L72.73,71.48
				z M75.56,62.6c0.33,0.07,0.66,0.21,0.97,0.41l-0.14-0.27c-0.5-0.28-1.07-0.53-1.72-0.74c-0.09,0.09-0.17,0.19-0.26,0.31
				c0.25,0.07,0.5,0.15,0.73,0.23C75.29,62.55,75.43,62.57,75.56,62.6L75.56,62.6z M76.55,65.06c0.45,0.68,0.88,1.64,1.21,2.7
				c0.07,0.23,0.13,0.45,0.19,0.69c0.01,0.56-0.05,1.15-0.17,1.72l-0.02,0.1l-0.41-0.4l-0.02-0.02l-0.02-0.02l-0.01,0l0.01,0
				c-0.3-0.33-0.86-1.12-1.28-1.96l0.09-0.01c0.5-0.11,0.69-0.52,0.45-0.93c-0.13-0.22-0.13-0.25-0.13-0.29
				c0.01-0.16,0.03-0.34-0.09-0.7l0.05-0.09c0.16-0.21,0.12-0.51-0.08-0.75C76.39,65.08,76.47,65.07,76.55,65.06L76.55,65.06z
				 M79.55,74.44c-0.6,0.98-1.55,1.62-2.93,1.71c-0.14,0.1-0.27,0.16-0.39,0.21c-0.07,0.02-0.14,0.05-0.22,0.06
				c-0.94,0.39-1.92,0.52-2.84,0.29c-1.21-0.3-2.27-1.2-2.95-2.89c-2.13-1.8-2.02-4.01-0.82-5.95l0.04-0.07
				c0.04-1.21,0.17-2.56,0.39-4.06c0.94-3.94,3.57-3.02,4.15-5.38c1.31,0.32,2.65,1.68,3.8,3.44c3.32,1.98,4.09,4.97,3.5,7.78
				c-0.09,0.42-0.21,0.84-0.35,1.24c-0.04,0.82-0.26,1.42-0.71,1.66C80.11,73.22,79.89,73.89,79.55,74.44L79.55,74.44z M74.38,60.39
				L74.38,60.39c0.15,0.04,0.3,0.08,0.45,0.13c-0.37-0.39-0.73-0.64-1.06-0.72c-0.53-0.13-1.05,0.45-1.5,2.11
				c0.39-0.62,0.8-1.11,1.2-1.41C73.69,60.33,74.05,60.3,74.38,60.39z"/>
		</g>
		<g>
			<g>
				<path class="st0" d="M63.9,34.98c0.09-0.21,0.18-0.41,0.28-0.61l-0.19,0.16C63.96,34.68,63.93,34.83,63.9,34.98L63.9,34.98z
					 M67.47,28.52c1.65-0.41,3.43-0.24,4.92,0.35c1.01,0.08,1.75,0.48,2.11,1.29c1.36,1.26,1.97,3.02,1.15,5.04
					c-0.52,1.27-1.67,2.66-3.67,4.07c-0.25,0.26-0.53,0.53-0.83,0.81c-1.6,1.46-2.92,2.35-3.98,2.8c-1.89,1.61-3.18,1.78-4,1.07
					c-0.11-0.09-0.21-0.21-0.29-0.34c-0.33,0.12-0.67,0.22-1.01,0.34l-0.12,0.04l0,0c-0.55,0.18-0.8,0.26-1.12,0.26
					c-0.28,0-0.48-0.06-0.85-0.16c-0.15-0.04-0.32-0.09-0.47-0.13c-0.28-0.07-0.5-0.28-0.61-0.53l0,0
					c-2.05-4.51,0.38-8.45,3.91-11.07c0.14-0.1,0.28-0.2,0.42-0.31C63.99,30.08,65.65,28.96,67.47,28.52L67.47,28.52z M70.51,30.81
					l-0.13,0.03c0.14,0.21,0.29,0.43,0.42,0.69c0.75,0.23,1.43,0.57,1.96,1.01c0.18-0.48,0.27-0.89,0.28-1.24c0-0.05,0-0.1,0-0.14
					c-0.4-0.4-1.28-0.52-2.37-0.38L70.51,30.81L70.51,30.81z M69.95,36.96c0.02-0.13,0.01-0.28-0.02-0.45
					c-0.34-2.16-0.78-2.95-1.21-2.92c-0.34,0.03-0.71,0.29-1.08,0.7c0.03,0.03,0.07,0.07,0.1,0.11l0.24,0.27l0,0
					c0.11,0.13,0.16,0.19,0.24,0.31c0.05,0.08,0.1,0.16,0.19,0.33l0,0l0,0l0.27,0.49c0.24,0.41,0.11,0.93-0.29,1.13
					c-0.04,0.02-0.08,0.04-0.12,0.05l0,0l-1.15,0.36c0.13,0.08,0.27,0.17,0.42,0.23c0.47,0.2,0.98,0.31,1.45,0.27l0.1-0.01
					C69.41,37.53,69.69,37.25,69.95,36.96L69.95,36.96z M62.4,41.88c-0.05-0.83,0.04-1.81,0.25-2.86c-0.45-0.75-0.73-1.45-0.88-2.11
					c-1.26,1.72-1.87,3.56-1.17,5.22C61.11,42.16,61.74,42.06,62.4,41.88L62.4,41.88z M72.02,34.09l-0.06-0.07
					c-0.12-0.13-0.26-0.24-0.41-0.35c0.07,0.27,0.13,0.57,0.2,0.89C71.85,34.38,71.94,34.24,72.02,34.09L72.02,34.09z M67.33,39.25
					c-0.11-0.05-0.22-0.08-0.33-0.14c-0.54-0.23-1.03-0.56-1.4-0.96c-0.2,0.58-0.34,1.14-0.43,1.64l0.14,0.16
					C65.87,39.85,66.6,39.6,67.33,39.25L67.33,39.25z M67.74,34.4L67.74,34.4L67.74,34.4z"/>
			</g>
		</g>
		<g>
			<g>
				<path class="st0" d="M44.98,15.32c-0.09-0.17-0.18-0.36-0.27-0.54l0.01,0.23C44.81,15.11,44.89,15.22,44.98,15.32L44.98,15.32z
					 M42.53,9.24c0.59-1.36,1.63-2.48,2.81-3.17c0.58-0.65,1.24-0.93,1.97-0.72c1.54-0.22,3.04,0.35,3.96,2.05
					c0.57,1.07,0.89,2.64,0.79,4.8c0.05,0.32,0.08,0.66,0.11,1.02c0.13,1.92,0.04,3.32-0.22,4.3c0.08,2.2-0.48,3.19-1.37,3.34
					c-0.12,0.03-0.25,0.03-0.38,0.01c-0.1,0.29-0.2,0.58-0.3,0.89l-0.04,0.1l0,0c-0.17,0.48-0.24,0.7-0.41,0.92
					c-0.14,0.2-0.29,0.3-0.55,0.49c-0.11,0.08-0.23,0.17-0.33,0.25c-0.19,0.15-0.45,0.19-0.67,0.13l0,0
					c-4.09-1.13-5.45-5.03-5.35-8.91c0.01-0.15,0.01-0.31,0.02-0.46C41.75,12.5,41.88,10.74,42.53,9.24L42.53,9.24z M45.66,8.44
					l-0.04,0.11c0.21,0.01,0.44,0.04,0.67,0.1c0.55-0.38,1.13-0.65,1.71-0.77C47.77,7.5,47.54,7.2,47.32,7
					c-0.03-0.03-0.07-0.06-0.1-0.07c-0.48,0.04-1.01,0.58-1.49,1.4L45.66,8.44L45.66,8.44z M49.47,12.29
					c-0.08-0.08-0.18-0.16-0.31-0.24c-1.63-0.99-2.39-1.12-2.59-0.81c-0.16,0.24-0.18,0.64-0.1,1.13c0.04,0,0.08-0.01,0.12-0.01
					l0.3-0.01l0,0c0.15,0,0.22,0,0.34,0.01c0.09,0.01,0.17,0.02,0.32,0.05l0,0l0,0l0.46,0.08c0.41,0.07,0.68,0.45,0.61,0.83
					c-0.01,0.04-0.02,0.08-0.03,0.11l0,0l-0.36,1c0.12-0.05,0.25-0.1,0.37-0.17c0.38-0.2,0.73-0.5,0.95-0.83l0.05-0.07
					C49.57,12.99,49.52,12.63,49.47,12.29L49.47,12.29z M48.81,20.23c-0.59-0.43-1.19-1.05-1.78-1.78
					c-0.74-0.12-1.36-0.31-1.88-0.58c0.48,1.83,1.4,3.28,2.86,3.75C48.31,21.27,48.58,20.79,48.81,20.23L48.81,20.23z M48.64,9.26
					l-0.08,0c-0.15,0.01-0.29,0.04-0.45,0.08c0.22,0.11,0.45,0.23,0.69,0.37C48.74,9.55,48.69,9.4,48.64,9.26L48.64,9.26z
					 M49.62,15.38c-0.08,0.05-0.17,0.11-0.26,0.15c-0.44,0.24-0.91,0.39-1.37,0.42c0.29,0.46,0.58,0.87,0.87,1.21l0.18,0
					C49.26,16.72,49.48,16.08,49.62,15.38L49.62,15.38z M46.6,12.36L46.6,12.36L46.6,12.36z"/>
			</g>
		</g>
	</g>
	<g>
		<path class="st1" d="M82.34,93.04c-1.06,0.07-2.11,0.17-3.12,0.29l0.33,0.02c1.71-0.08,3.37-0.1,4.99-0.07
			C83.81,93.2,83.08,93.11,82.34,93.04L82.34,93.04z M79.5,92.04c-2.01-0.01-4.02,0.21-6.07,0.92c-0.81,0.15-1.58,0.31-2.29,0.48
			c0.27-0.61,1.33-1.06,2.88-1.38c1.93-0.41,4.58-0.58,7.42-0.6c1.31-0.01,2.67,0.01,4.02,0.05l0.12,0.01
			c-1.25,0.07-2.53,0.16-3.81,0.29C81.01,91.88,80.25,91.96,79.5,92.04L79.5,92.04z M89.1,93.26c0.01,0.08,0.01,0.16,0,0.24
			c1.74,0.14,3.38,0.34,4.92,0.57c0.52-0.1,1-0.2,1.44-0.32c-1.79-0.43-4.01-0.69-6.4-0.79L89.1,93.26L89.1,93.26z M87.09,94.21
			c-0.92-0.05-1.86-0.08-2.81-0.09c0.46,0.14,0.88,0.28,1.25,0.43C86.13,94.46,86.67,94.34,87.09,94.21L87.09,94.21z M87.77,94.8
			c0.35-0.15,0.63-0.31,0.85-0.49c0.8,0.06,1.57,0.13,2.33,0.21C89.93,94.63,88.86,94.72,87.77,94.8L87.77,94.8z M83.65,94.8
			c-1.3,0.14-2.75,0.22-4.24,0.27c-0.93-0.17-1.85-0.35-2.73-0.53l-0.58-0.11c1.2-0.11,2.39-0.2,3.56-0.25
			C81.23,94.31,82.56,94.52,83.65,94.8L83.65,94.8z M74.86,95.15l-0.07-0.1c-0.7-0.14-1.38-0.26-2.02-0.36
			c-0.38,0.13-0.73,0.28-1.04,0.43C72.7,95.13,73.76,95.14,74.86,95.15L74.86,95.15z M70.19,95.08c0.19-0.16,0.41-0.31,0.66-0.46
			c0.09-0.05,0.19-0.1,0.29-0.16c-0.16-0.02-0.32-0.03-0.47-0.05l-0.08-0.01c-0.82,0.2-1.53,0.41-2.11,0.62
			C68.97,95.05,69.55,95.07,70.19,95.08L70.19,95.08z M68.28,95.87c-0.76-0.03-1.29-0.04-1.46-0.03l-1.18,0.03l0.9-0.78
			c0.12-0.1,0.28-0.22,0.47-0.32c-4.93,0.64-7.76,1.52-9,2.43c-0.51,0.38-0.7,0.74-0.63,1.09c0.59-0.21,1.35-0.4,2.32-0.54
			c1.66-0.24,7.05-0.99,12.06-1c1.5-0.01,2.97,0.06,4.31,0.24c0.33-0.04,0.66-0.08,1-0.11l-0.07-0.04c-1.3-0.18-2.47-0.35-3.46-0.5
			l-0.54-0.09c-1.5-0.01-2.46-0.01-2.6,0l-0.04-0.32l0,0.01l-1.12,0.04l0.1-0.09L68.28,95.87L68.28,95.87z M96.52,92.6
			c0.35,0.1,0.68,0.21,1,0.32c0.21-0.15,0.36-0.3,0.47-0.47c-0.55-0.07-1.36-0.17-2.37-0.27C95.97,92.3,96.27,92.44,96.52,92.6
			L96.52,92.6z M97.19,94.29c-0.14,0.1-0.28,0.19-0.43,0.28c0.61,0.12,1.19,0.25,1.74,0.38C98.14,94.71,97.7,94.48,97.19,94.29
			L97.19,94.29L97.19,94.29z M94.11,94.94c-1.09,0.41-2.24,0.69-3.42,0.85c-0.54-0.11-1.07-0.21-1.61-0.29
			c1.68-0.15,3.27-0.36,4.67-0.62L94.11,94.94L94.11,94.94z M82.98,96.49c1.41,0.19,2.84,0.31,4.26,0.33
			c0.03,0.05,0.06,0.11,0.08,0.16c-2.33-0.09-4.64-0.29-6.76-0.52l0.1-0.03C81.41,96.44,82.19,96.46,82.98,96.49L82.98,96.49z
			 M88.15,96.81c0.03,0.06,0.04,0.12,0.06,0.19c1.34,0.04,2.68,0.03,4-0.03l-0.31-0.07c-0.79-0.05-1.6-0.09-2.42-0.14
			C89.04,96.79,88.59,96.81,88.15,96.81L88.15,96.81z M93.18,96.14c0.85-0.24,1.67-0.55,2.46-0.94c0.99,0.18,1.91,0.38,2.77,0.59
			c-0.54,0.16-1.32,0.35-2.28,0.58l-0.38-0.03C94.94,96.26,94.08,96.2,93.18,96.14L93.18,96.14z M73.85,91.24
			c0.63-0.13,1.33-0.24,2.08-0.32c-13.6,0.07-23.93,5.19-28.98,9.66c-1.73,1.53-2.81,2.97-3.19,4.08c-0.12,0.37-0.15,0.69-0.09,0.96
			l3.46-0.39l0.17-0.02c0.33-0.11,1.2-0.65,2.22-1.3c1.21-0.76,2.62-1.65,3.82-2.16l-0.09-0.06l0.43-0.7
			c0.08,0.06,0.19,0.13,0.3,0.2c0.15,0.11,0.25,0.18,0.37,0.22c0.28-0.07,0.53-0.09,0.75-0.06l1.96,0.21l-0.05-0.04
			c-1.15-0.8-1.54-1.64-0.9-2.42c0.12-0.15,0.29-0.29,0.51-0.42c-0.29-0.73-0.03-1.46,0.91-2.16c1.61-1.18,5.54-2.27,12.74-2.95
			C70.39,92.41,71.75,91.68,73.85,91.24L73.85,91.24z M98.6,91.7l0.39,0.07l-0.04,0.4c-0.04,0.39-0.25,0.74-0.61,1.06
			c1.55,0.61,2.74,1.34,3.32,2.21l0.28,0.43l-0.13,0.05c0.3,0.11,0.6,0.21,0.86,0.32c1.71,0.68,2.87,1.42,3.32,2.12
			c0.58,0.9,0.26,1.7-1.14,2.27c-0.38,0.15-0.84,0.29-1.41,0.41c0.47,0.53,0.73,1.05,0.73,1.55c-0.01,1.05-1.2,1.99-4.07,2.66
			l0.01,0l0.59,0.37l-0.59,0.36c-5.51,3.32-14.1,2.63-21.55,1.39c-1.94,0.34-4.01,0.37-6.09,0.21c-0.22,0.13-0.45,0.25-0.71,0.37
			c-4.03,1.94-11.92,2.81-22.02-1.15c-0.14-0.06-0.26-0.11-0.36-0.15c-2.31,0.73-3.96,0.89-5,0.62c-0.93-0.24-1.44-0.76-1.56-1.48
			l-0.35-0.03l0.34-0.04c-0.05-0.39,0.01-0.85,0.18-1.34c0.42-1.25,1.58-2.81,3.41-4.43c5.68-5.04,17.89-10.86,33.85-9.72
			c1.17,0.08,3.06,0.22,5.25,0.46C91.41,90.85,97.16,91.45,98.6,91.7L98.6,91.7z M97.03,97.3c1.5,0.15,2.71,0.33,3.5,0.52
			c0.39,0.09,0.72,0.08,0.68,0.11c-0.3,0.17-0.88,0.35-1.76,0.54c-0.57-0.25-1.17-0.51-1.81-0.75c-0.34-0.12-0.68-0.24-1.02-0.36
			L97.03,97.3L97.03,97.3z M100.71,97.01c1.71,0.42,2.18,0.97,0.89,1.68c-0.22,0.12-0.54,0.24-0.98,0.36
			c0.79,0.42,1.48,0.85,2.03,1.29c0.8-0.13,1.41-0.3,1.88-0.49c0.77-0.31,1-0.67,0.77-1.03c-0.36-0.55-1.37-1.17-2.92-1.79
			c-0.54-0.22-1.14-0.42-1.8-0.63c-0.38,0.13-0.76,0.25-1.16,0.37C99.92,96.84,100.35,96.92,100.71,97.01L100.71,97.01z
			 M97.98,98.75c-0.33,0.06-0.69,0.12-1.07,0.19l-3.34,0.53l-0.63,0.09c-0.81-0.1-1.62-0.19-2.42-0.26c-0.8-0.1-1.67-0.23-2.58-0.36
			c2.11-0.43,4.05-0.83,5.72-1.22c0.34-0.03,0.67-0.06,1.01-0.09c0.94,0.28,1.84,0.58,2.69,0.9C97.58,98.6,97.78,98.68,97.98,98.75
			L97.98,98.75z M97.05,99.77l-1.38,0.22c1,0.19,1.95,0.41,2.8,0.67c1.16-0.02,2.17-0.09,3.04-0.18c-0.6-0.38-1.32-0.76-2.14-1.13
			C98.74,99.48,97.97,99.62,97.05,99.77L97.05,99.77z M82.62,98.83l0.25,0.02c-0.98-0.23-1.94-0.47-2.85-0.76
			c0.35,0.18,0.65,0.39,0.91,0.62L82.62,98.83L82.62,98.83z M98.47,101.5c1.3,0.42,2.32,0.94,2.88,1.61
			c-1.14,0.68-3.42,0.94-6.23,0.95c-1.88-0.29-4.11-0.56-6.44-0.79c-1.31-0.13-2.65-0.25-3.97-0.37l-0.02-0.02
			c0.82-0.37,1.6-0.79,2.32-1.28l0.19-0.13l-0.01-0.15c0.83-0.05,1.65-0.09,2.43-0.12c0.25,0.02,0.5,0.05,0.75,0.06
			C93.62,101.48,96.3,101.56,98.47,101.5L98.47,101.5z M102.29,103.01l0.18,0.31l-0.27,0.23c-0.7,0.59-2,0.96-3.68,1.15l0.29,0.07
			c3.22-0.52,4.53-1.3,4.54-2.21c0.01-0.43-0.3-0.89-0.85-1.36c-0.62,0.1-1.32,0.17-2.11,0.22
			C101.25,101.85,101.92,102.38,102.29,103.01L102.29,103.01z M81.58,103.98c-1.92,0.52-3.97,0.82-6.04,0.95
			c1.87,0.17,4.05,0.29,6.59,0.37c0.58-0.31,1.14-0.68,1.65-1.1C83.04,104.13,82.3,104.05,81.58,103.98L81.58,103.98z M84.92,104.31
			c-0.39,0.39-0.8,0.72-1.24,1.03c5.44,0.13,9.55,0.02,12.57-0.26c-0.4-0.07-0.82-0.13-1.26-0.2
			C91.93,104.9,88.34,104.63,84.92,104.31L84.92,104.31z M75.6,103.37c-0.35,0.01-0.7,0.02-1.07,0.02c0.18,0.23,0.29,0.48,0.35,0.75
			c1.38-0.07,2.75-0.2,4.08-0.43C77.71,103.57,76.56,103.46,75.6,103.37L75.6,103.37z M82.75,102.75c0.16-0.05,0.3-0.11,0.46-0.17
			c-0.15-0.11-0.31-0.22-0.48-0.33c-0.45,0.14-0.92,0.27-1.42,0.39C81.79,102.68,82.27,102.71,82.75,102.75L82.75,102.75z
			 M77.41,102.43c1.56-0.14,2.96-0.39,4.2-0.72c-0.43,0.04-0.86,0.07-1.29,0.11c-0.8,0.07-1.6,0.15-2.39,0.23
			c-0.61,0.13-1.23,0.23-1.85,0.32C76.49,102.39,76.94,102.4,77.41,102.43L77.41,102.43z M98.51,105.54
			c-3.38,0.55-8.46,0.81-15.71,0.62l-0.47-0.01c-0.54,0.27-1.1,0.5-1.68,0.69c6.46,0.95,13.46,1.27,18.28-1.18
			C98.8,105.62,98.66,105.59,98.51,105.54L98.51,105.54z M78.54,106.51c0.6-0.11,1.18-0.25,1.75-0.44c-2.17-0.1-4.06-0.25-5.7-0.43
			c-0.03,0.05-0.06,0.09-0.08,0.13C75.79,106.02,77.14,106.27,78.54,106.51L78.54,106.51z M73.61,105.6l0.05-0.07
			c-0.59-0.07-1.14-0.16-1.67-0.25l0.57,0.12L73.61,105.6L73.61,105.6z M72.43,106.22l0.43,0.09c-0.18,0.14-0.38,0.27-0.59,0.4
			c-3.86-0.32-7.75-1.29-10.7-2.02c-0.62-0.15-1.2-0.3-1.73-0.42l1.54-0.38c0.33-0.08,0.65-0.16,0.97-0.23
			c1.08,0.28,2.25,0.54,3.49,0.74c-0.05,0.09-0.08,0.19-0.09,0.29l0,0l-0.05,0.44l0.44,0.04C67.64,105.28,69.83,105.71,72.43,106.22
			L72.43,106.22z M73.89,106.51c-0.1,0.09-0.2,0.18-0.31,0.28c0.64,0.03,1.28,0.04,1.91,0.02
			C74.95,106.71,74.41,106.61,73.89,106.51L73.89,106.51z M70.25,104.94l-0.32-0.06l0.08,0L70.25,104.94L70.25,104.94z
			 M68.29,103.68c0.55-0.18,1.22-0.35,1.97-0.51c1.02,0.1,2,0.17,2.95,0.2c0.42,0.23,0.68,0.5,0.8,0.79
			c-1.56,0.03-3.12-0.03-4.62-0.16C68.98,103.9,68.61,103.79,68.29,103.68L68.29,103.68z M77.74,101.23
			c-1.51,0.17-2.98,0.37-4.34,0.58c-0.31,0.02-0.64,0.04-0.95,0.05c2.2-0.4,4.4-0.8,6.55-1.2c0.16,0.05,0.32,0.1,0.48,0.15
			C78.91,100.98,78.33,101.11,77.74,101.23L77.74,101.23z M68.34,102.93c-0.37,0.13-0.7,0.25-0.99,0.37
			c-0.27-0.13-0.49-0.27-0.66-0.41l0.07-0.01c0.25-0.03,0.5-0.05,0.75-0.08C67.78,102.84,68.06,102.88,68.34,102.93L68.34,102.93z
			 M66.62,103.67l-0.01,0c-0.75-0.12-1.48-0.24-2.18-0.39l1.39-0.24C66.02,103.25,66.28,103.46,66.62,103.67L66.62,103.67z
			 M84.76,101.46l-0.26,0.12c-0.25,0.11-0.52,0.22-0.81,0.33c0.14,0.1,0.27,0.21,0.39,0.31c0.57-0.24,1.12-0.52,1.64-0.82
			L84.76,101.46L84.76,101.46z M84.54,100.64c0.09-0.04,0.18-0.08,0.27-0.13c-0.82-0.16-1.58-0.34-2.28-0.51l-0.73,0.14
			c0.04,0.16,0.06,0.32,0.07,0.49l0.01,0.21C82.76,100.77,83.66,100.7,84.54,100.64L84.54,100.64z M83.03,98.03
			c-0.18-0.05-0.38-0.09-0.58-0.13L83.03,98.03L83.03,98.03z M100.55,95.5l0.07-0.02c-0.31-0.32-0.74-0.62-1.26-0.9
			c0.12,0.11,0.24,0.21,0.34,0.33c0.14,0.14,0.25,0.29,0.34,0.46C100.21,95.4,100.38,95.46,100.55,95.5L100.55,95.5z M78.25,99
			l-0.4-0.03l0.01-0.41c0-0.13,0.02-0.27,0.04-0.4c-0.54-0.13-1.13-0.23-1.76-0.31c-1.12,0.14-2.23,0.34-3.29,0.6
			c2.18,0.33,4.31,0.79,6.17,1.36l1.57-0.29C79.56,99.24,78.77,99.04,78.25,99L78.25,99z M66.27,101.63
			c0.38-0.81,1.86-1.67,3.87-2.4c0.21-0.07,0.43-0.15,0.65-0.22c0.59,0.06,1.18,0.14,1.77,0.23c1.58,0.23,3.15,0.54,4.6,0.91
			c-3.03,0.55-6.12,1.11-9.14,1.65C67.43,101.75,66.84,101.7,66.27,101.63L66.27,101.63z M68.86,98.84
			c-1.8,0.78-3.09,1.72-3.42,2.69l-0.44-0.06c-1.89-0.42-3.87-0.98-5.92-1.7c0.3-0.18,0.69-0.33,1.15-0.47
			C62.24,98.7,65.43,98.58,68.86,98.84L68.86,98.84z M72.68,97.6c-0.69,0.17-1.35,0.36-1.98,0.56c-1.59-0.17-3.16-0.27-4.64-0.29
			c1.8-0.15,3.79-0.26,5.71-0.27C72.08,97.6,72.38,97.6,72.68,97.6L72.68,97.6z M85.86,98.49l1.48-0.29l0,0l0.01-0.01
			c0.05-0.12,0.08-0.25,0.1-0.37c-0.99-0.04-1.99-0.09-2.95-0.16C85.01,97.89,85.47,98.17,85.86,98.49L85.86,98.49z M62.34,102.79
			c-0.26-0.07-0.51-0.14-0.75-0.21c-1.81-0.54-3.25-1.15-4.12-1.76c-0.67-0.47-0.96-0.89-0.72-1.18c0.08-0.09,0.18-0.18,0.32-0.27
			c0.17,0.19,0.38,0.37,0.62,0.56l-0.13,0.16l0.57,0.21l0.39,0.14c0.54,0.29,1.18,0.56,1.9,0.8c1.25,0.42,2.76,0.78,4.43,1.04
			l0.06,0.02c-0.76,0.12-1.57,0.28-2.41,0.47L62.34,102.79L62.34,102.79z M57.12,101.59c0.79,0.53,1.95,1.05,3.36,1.52
			c-2.63,0.44-5.04,0.85-7.09,1.18l-0.01-0.01c-0.56-0.23-1.32-0.21-2.08-0.05l0,0c-0.45,0.09-0.92,0.23-1.33,0.38
			c1.44-0.9,3.16-1.99,4.31-2.33c0.22,0.04,0.49,0,0.9-0.12L57.12,101.59L57.12,101.59z M57.86,99.02c0.43-0.14,0.97-0.27,1.64-0.37
			c-0.51,0.18-0.92,0.41-1.25,0.67C58.11,99.22,57.98,99.12,57.86,99.02L57.86,99.02z M80.99,100.29l-0.35,0.07l0.16,0.06l0.2-0.07
			L80.99,100.29L80.99,100.29z M88.25,98.02l0.83-0.17c-0.27,0-0.54-0.01-0.8-0.01C88.27,97.9,88.25,97.96,88.25,98.02L88.25,98.02z
			 M61.38,105.5c2.66,0.66,6.03,1.5,9.5,1.9c-3.95,1.67-11.13,2.27-20.29-1.18c0.78-0.29,1.61-0.63,2.52-1.03
			c1.18-0.19,2.48-0.41,3.89-0.64l0.9,0.16C58.8,104.86,59.99,105.16,61.38,105.5L61.38,105.5z M48.71,105.97
			c-1.92,0.57-3.28,0.7-4.15,0.47c-0.41-0.11-0.69-0.31-0.82-0.6l3.41,0.23c0.05,0,0.1,0,0.16-0.01c0.33-0.04,0.78-0.1,1.33-0.18
			L48.71,105.97z"/>
	</g>
</g>
</svg>
