<?xml version="1.0" encoding="utf-8"?>
<!-- Generator: Adobe Illustrator 25.1.0, SVG Export Plug-In . SVG Version: 6.00 Build 0)  -->
<svg version="1.1" id="Calque_1" xmlns="http://www.w3.org/2000/svg" xmlns:xlink="http://www.w3.org/1999/xlink" x="0px" y="0px"
	 viewBox="0 0 102.72 110.69" style="enable-background:new 0 0 102.72 110.69;" xml:space="preserve">
<style type="text/css">
	.st0{fill:#C9694B;}
</style>
<path class="st0" d="M6.92,96.17c0.11-0.02,0.23-0.04,0.34-0.06c-0.35-0.83-0.35-0.83,0.29-1.67c-0.29-0.23-0.54-0.56-0.89-0.68
	C6,93.55,5.55,93.28,5.41,92.64c-0.04-0.18-0.38-0.36-0.63-0.45c-0.46-0.16-0.56-0.47-0.68-0.88c0.53-0.13,1.06-0.27,1.61-0.4
	c-0.13-0.33-0.24-0.6-0.39-0.97c0.44-0.07,0.79-0.13,1.16-0.19c-0.09-0.09-0.16-0.22-0.21-0.22c-0.6,0.07-1.06-0.06-1.3-0.61
	c0.07,0.45,0.14,0.89,0.21,1.32c-0.65,0.24-0.71-0.18-0.96-0.44c-0.21-0.21-0.57-0.32-0.93-0.5c0.16-0.56,0.32-1.08,0.49-1.66
	c0.48,0.02,0.92,0.04,1.43,0.07c0.13-0.35,0.25-0.66,0.4-1.05c-0.37-0.06-0.63-0.1-0.91-0.15c-0.34-0.33,0.03-0.66,0-1.01
	c-0.36-0.58-1.09-1.1-0.55-1.95c-0.39-0.02-0.7-0.03-1.15-0.06c0.02-0.36,0.03-0.68,0.05-1c0.02-0.33,0.03-0.67,0.05-1.01
	c0.21-0.09,0.42-0.17,0.64-0.26c-0.03-0.07-0.03-0.17-0.09-0.21c-0.44-0.31-0.89-0.61-1.37-0.95c0.07-0.4,0.14-0.84,0.22-1.31
	c-0.23-0.13-0.5-0.24-0.69-0.4c-0.36-0.3-0.45-0.83-0.07-1.05c0.4-0.23,0.52-0.45,0.57-0.83c0.04-0.33,0.24-0.65,0.36-0.97
	c0.09-0.23,0.23-0.47,0.24-0.7c0.01-0.22-0.13-0.44-0.2-0.66c0.34-0.05,0.46-0.25,0.55-0.58c-0.38-0.1-0.7-0.18-1.02-0.26
	c-0.01-0.05-0.04-0.11-0.02-0.13c0.31-0.34,0.62-0.68,0.95-1.04c-0.18-0.15-0.38-0.31-0.57-0.46c0.46-1.58,0.37-1.77-1.41-2.57
	c0.04-0.43,0.51-0.6,0.82-0.97c-0.16-0.2-0.43-0.41-0.5-0.66c-0.09-0.33-0.01-0.69-0.03-1.03c-0.02-0.29-0.06-0.58-0.1-0.9
	c0.14-0.11,0.4-0.23,0.49-0.42c0.05-0.11-0.13-0.44-0.25-0.46c-0.83-0.15-0.84-0.75-0.68-1.15c0.17-0.43,0.13-0.75-0.07-1.12
	c-0.51-0.97-0.25-2.01-0.38-3.02c-0.01-0.09,0-0.25,0.05-0.27c0.83-0.29,0.27-1.08,0.76-1.55c0.27-0.25,0.41-0.34,0.78-0.32
	c0.15,0.01,0.32-0.21,0.51-0.35c-0.19-0.09-0.27-0.16-0.36-0.18c-0.29-0.06-0.71,0.3-0.87-0.16c-0.12-0.33,0.35-0.32,0.5-0.48
	c0.54-0.62,1.04-1.27,1.48-1.95c0.2-0.31-0.19-0.58-0.46-0.73c-0.27-0.15-0.65-0.16-0.96-0.27c-0.12-0.04-0.26-0.29-0.24-0.31
	c0.56-0.46-0.16-1.16,0.44-1.67c0.24-0.2,0.06-0.76,0.11-1.14c0.04-0.27,0.15-0.54,0.27-0.94c-0.05-0.08-0.17-0.3-0.36-0.48
	c-0.19-0.18-0.43-0.32-0.68-0.5c0.12-0.57,0.39-1.13-0.12-1.71c-0.25-0.28-0.01-0.67,0.34-0.91c0.35-0.24,0.71-0.34,1.08-0.01
	c0.02,0.01,0.16-0.07,0.34-0.16c-0.48-0.21-0.9-0.39-1.37-0.6c0.11-0.33,0.27-0.6,0.27-0.87c0.01-0.23-0.17-0.46-0.29-0.75
	c0.29-0.14,0.54-0.26,0.7-0.34c-0.03-0.43-0.99-0.5-0.29-1c0.15-0.11,0.14-0.48,0.06-0.7c-0.34-0.89-0.28-1.77,0.01-2.64
	c0.09-0.27-0.04-0.46-0.2-0.68c-0.42-0.6-0.73-1.19-0.2-1.89c0.32-0.42-0.13-0.83-0.38-1.22c0.26-0.42,0.52-0.85,0.82-1.32
	c-0.34-0.11-0.6-0.2-0.88-0.29C1.3,32.88,1.2,32.77,1.23,32.7c0.27-0.65,0.03-1.23-0.29-1.82c-0.15-0.28-0.68-0.52-0.26-0.91
	c0.33-0.32-0.09-0.55-0.18-0.79c-0.19-0.51,0.67-0.75,0.35-1.23c-0.33-0.49,0.13-0.73,0.4-1.03c0.65-0.74,0.96-1.54,0.64-2.49
	c-0.18-0.54-0.09-1.06,0.38-1.53c0.22-0.23,0.2-0.65,0.26-0.98c0.11-0.63,0.13-1.28,0.31-1.89c0.11-0.36,0.46-0.67,0.67-0.97
	c-0.1-0.64-0.86-0.71-1.22-1.18c0.64-0.51,0.07-1.41,0.78-1.95c-0.21-0.62-0.18-1.25-0.2-1.89c-0.01-0.33,0.03-0.53,0.22-0.77
	c0.08-0.1,0.13-0.31,0.06-0.4c-0.5-0.66-0.09-1.11,0.36-1.6c0.11-0.12-0.05-0.43-0.09-0.68c0.12-0.07,0.3-0.18,0.64-0.38
	c-0.41-0.09-0.66-0.15-0.83-0.19c-0.03-0.38-0.06-0.72-0.1-1.11C3.55,8.52,4,8.09,4.58,7.55C3.93,7.45,3.5,7.39,3.04,7.32
	C2.8,6.87,2.56,6.42,2.3,5.94c0.5-0.33,0.87-0.67,0.61-1.35C2.75,4.18,2.92,3.65,3.06,3.2c0.06-0.17,0.47-0.38,0.7-0.36
	c0.85,0.08,1.58-0.19,2.37-0.38C6.47,2.37,6.95,2.7,7.52,2.89c0.46-0.13,1.07-0.27,1.65-0.47c1.3-0.44,2.78-0.57,4.05-0.21
	c0.42,0.12,0.75,0.23,1.14,0.01c0.69-0.39,1.53-0.34,2.2-0.16c0.61,0.17,1.3-0.11,1.88,0.37c0.23,0.19,0.85-0.03,1.33,0.06
	c0.38,0.07,0.96-0.14,1.24-0.39c0.48-0.42,1.13-0.49,1.7-0.81c0.53,0.45,1.24,0.29,1.89,0.4c1.28,0.22,2.57,0.16,3.81,0.02
	c0.85-0.1,1.7-0.26,2.57-0.27c0.53-0.01,0.96,0.08,1.48,0.27c0.88,0.33,1.9,0.22,2.73-0.2c0.41-0.21,0.78-0.1,1.15-0.19
	c-0.03,0.16-0.05,0.31-0.08,0.47c0.14-0.02,0.28-0.05,0.42-0.07c0.62,0.03,1.25,0.06,1.93,0.09c-0.04-0.22-0.06-0.36-0.09-0.49
	c-0.01-0.04-0.05-0.1-0.1-0.12c-0.04-0.02-0.1,0-0.15,0c0.03,0.01,0.06,0.04,0.09,0.04c0.32-0.05,0.6-0.27,0.97-0.03
	c0.35,0.23,0.77,0.39,1.14,0.58c0.31-0.16,0.55-0.29,0.8-0.42c0.48,0.2,0.92,0.72,1.46,0.03c0.17-0.22,0.65-0.26,0.91-0.36
	c0.03-0.04,0,0.01-0.04,0.05c-0.03,0.04-0.1,0.08-0.09,0.12c0.01,0.36,0.26,0.59,0.66,0.54c0.39-0.05,0.75-0.21,1.19-0.35
	c0.24,0.31,0.48,0.62,0.7,0.92c0.2-0.05,0.36-0.04,0.4-0.1c0.29-0.41,0.56-0.83,0.8-1.22c0.12,0.02,0.29,0.1,0.43,0.07
	c0.34-0.06,0.68-0.12,0.99-0.24c0.76-0.32,1.45-0.15,2.08,0.24c0.29-0.21,0.52-0.46,0.81-0.55c0.22-0.07,0.72,0.03,0.77,0.15
	c0.35,0.88,1.17,1.03,2.08,1.08c0.22,0.01,0.43,0.13,0.69,0.22c0.28-0.25,0.55-0.49,0.85-0.75c0.34,0.03,0.68,0.1,1.01,0.1
	c0.34-0.01,0.66-0.12,1-0.14c1.16-0.05,2.31,0.04,3.45,0.2c0.44,0.06,0.78,0.01,1.12-0.24c1.22-0.87,2.51-0.87,3.82-0.1
	c0.59,0.34,1.23,0.47,1.93,0.48c0.39,0.01,0.79,0.02,1.19,0.08c1.09,0.16,2.22,0.18,3.1-0.57c1.4,0.14,2.79,0.35,4.17,0.39
	c0.78,0.02,1.56-0.25,2.33-0.4c0.78-0.15,1.57-0.29,2.4-0.45c0.07,0.33,0.03,0.65,0.2,0.82c0.15,0.15,0.52,0.15,0.8,0.21
	c0.35-0.32,0.66-0.6,0.99-0.9c0.71-0.02,1.38-0.07,2.02,0.34c0.49,0.3,1.4,0.19,2.24,0.04c0.48-0.08,1.07,0.15,1.51,0.01
	c0.42-0.13,0.74-0.4,1.27-0.33c0.9,0.11,1.81,0.16,2.69,0.23c0.09,0.19,0.15,0.32,0.21,0.46c0.11,0.03,0.21,0.09,0.32,0.09
	c0.58-0.03,1.17-0.13,1.75-0.11c0.32,0.01,0.67,0.17,0.92,0.35c0.12,0.09,0.06,0.37,0.08,0.66c0.36,0.21,0.77,0.44,1.21,0.7
	c-0.13,0.19-0.21,0.31-0.32,0.47c0.16,0.12,0.36,0.25,0.55,0.39c0.07,0.36-0.27,0.91-0.73,1.1c-0.62,0.25-0.97-0.13-1.38-0.52
	c-0.34,0.58-0.9,0.71-1.6,0.56c-0.45-0.1-0.94-0.11-1.38-0.24c-0.46-0.13-0.8,0.02-1.14,0.19c-0.4,0.2-0.45,0.51-0.16,0.87
	c0.15,0.2,0.31,0.4,0.46,0.6l0.02,0.03c-0.22,0.01-0.54-0.05-0.64,0.05c-0.25,0.25-0.41,0.57-0.65,0.94
	c0.84,0.43,1.5,0.92,1.06,1.84c0.37,0.18,0.67,0.33,0.97,0.47c0.02,0.51,0.03,1.02,0.05,1.56c-0.68,0.18-1.39,0.33-2.06,0.56
	c-0.2,0.07-0.3,0.36-0.43,0.53c0.48,0.46,0.8-0.06,1.19,0c0.33,0.05,0.66,0.24,1,0.01c0.06-0.04,0.35,0.05,0.41,0.15
	c0.16,0.26-0.09,0.33-0.32,0.38c-0.06,0.01-0.14,0.01-0.16,0.04c-0.08,0.11-0.2,0.24-0.18,0.36c0.03,0.22,0.2,0.33,0.49,0.26
	c0.09-0.02,0.21,0.02,0.28,0.03c0.57,0.73,0.8,1.55,0.9,2.37c0.09,0.71,0.2,1.36,0.88,1.89c0.37,0.29,0.38,0.86,0.02,1.08
	c-0.63,0.38-0.27,1.03-0.74,1.45c-0.25,0.23,0.18,0.68,0.69,0.82c0.16,0.04,0.32,0.06,0.49,0.09c-0.09,0.34-0.32,0.19-0.54,0.18
	c-0.13-0.01-0.36,0.06-0.39,0.14c-0.04,0.12,0.01,0.35,0.1,0.4c0.28,0.14,0.6,0.21,1.06,0.36c-0.36,0.21-0.58,0.34-0.87,0.51
	c0.05,0.5,0.17,1.05,0.13,1.58c-0.05,0.56,0.02,1.08,0.27,1.59c0.04,0.09,0.03,0.2,0.01,0.3c-0.07,0.34-0.18,0.67-0.22,1.01
	c-0.04,0.29,0,0.56,0.3,0.82c0.17,0.15,0.57,0.31,0.39,0.68c-0.02,0.05,0.42,0.26,0.7,0.43c0.09,0.46,0.03,0.9-0.47,1.29
	c-0.41,0.32-0.31,0.49,0.26,0.67c0.11,0.04,0.22,0.07,0.33,0.11c0.05,0.02,0.09,0.06,0.19,0.12c-0.14,0.93-0.29,1.88-0.41,2.83
	c-0.02,0.12,0.11,0.34,0.23,0.37c0.57,0.16,0.53,0.53,0.59,0.93c0.17,1.12,0.29,2.24,0.85,3.3c0.16,0.3-0.2,0.78-0.07,1.11
	c0.14,0.37,0.58,0.73,0.41,1.1c-0.32,0.69,0.06,1.3,0.16,1.94c0.06,0.39,0.13,0.79,0.08,1.18c-0.04,0.39-0.09,0.7,0.11,1.12
	c0.3,0.62,0.12,0.83-0.64,1.73c0.19,0.1,0.38,0.19,0.68,0.34c-0.12,0.14-0.25,0.27-0.33,0.42c-0.26,0.47-0.2,0.85,0.42,1.09
	c0.71,0.28,0.75,0.73,0.67,1.22c-0.03,0.18-0.36,0.42-0.58,0.44c-0.38,0.04-0.42-0.26-0.39-0.52c0.01-0.09,0-0.18-0.01-0.4
	c-0.21,0.3-0.36,0.51-0.53,0.75c0.37,0.14,0.73,0.21,0.99,0.39c0.19,0.13,0.31,0.4,0.36,0.62c0.06,0.26,0.2,0.61-0.33,0.69
	c-0.01,0,0.03,0.24,0.05,0.37c-0.16,0.12-0.33,0.23-0.49,0.35c-0.1-0.01-0.2-0.02-0.3-0.02c0.04,0.22-0.19,0.53,0.18,0.63
	c0.55,0.14,0.22,1.04,1.08,0.87c0.04-0.01,0.13,0.03,0.15,0.07c0.14,0.32,0.4,0.66,0.38,0.98c-0.05,0.62,0.65,1.23,0.03,1.85
	c-0.1,0.1-0.19,0.32-0.14,0.38c0.43,0.44,0.24,0.95,0.3,1.44c0.06,0.48,0.18,0.96,0.24,1.44c0.09,0.71,0.56,1.36,0.37,2.1
	c-0.19,0.71,0.18,1.38,0.32,2.06c0.02,0.1,0.01,0.2,0.01,0.3c-0.02,0.88-0.02,1.75,0.12,2.62c0.08,0.5,0.27,1.08-0.42,1.5
	c-0.18,0.11-0.18,0.57-0.1,0.83c0.08,0.25,0.38,0.44,0.62,0.7c-0.09,0.17-0.21,0.38-0.33,0.6c0.18,0.19,0.36,0.37,0.52,0.54
	c-0.09,0.52-0.12,1.02-0.29,1.48c-0.17,0.46,0.31,0.78,0.17,1.29c-0.16,0.56,0.05,1.29,0.35,1.84c0.31,0.58-0.41,1.17,0.19,1.68
	c-0.1,0.38-0.15,0.77-0.31,1.13c-0.19,0.42-0.27,0.84-0.01,1.22c0.69,1,0.76,2.11,0.6,3.16c-0.11,0.74,0.19,1.47-0.11,2.2
	c-0.27,0.65,0.09,1.35,0.05,2.04c-0.53,0.51-0.43,0.48-0.18,1.09c0.21,0.52,0.37,1.11,0.18,1.69c-0.07,0.23-0.13,0.49-0.1,0.72
	c0.05,0.34,0.27,0.67,0.27,1c0.01,1.59-0.04,3.17-0.07,4.76c0,0.2-0.16,0.41-0.11,0.59c0.54,1.69,0.04,3.37,0.13,5.06
	c0.06,1.04,0.11,2.09-0.07,3.14c-0.08,0.48,0.11,0.99,0.13,1.49c0.04,0.67-0.21,1.23-0.99,1.71c-0.2-0.38-0.37-0.68-0.52-0.99
	c-0.22-0.45-0.28-0.99-0.99-1.14c-0.08-0.02-0.18-0.16-0.17-0.23c0.02-0.26,0.06-0.53-0.38-0.49c-0.3,0.03-0.6,0.52-0.38,0.71
	c0.39,0.34-0.01,0.66,0.12,0.93c0.25,0.51-0.23,0.58-0.61,0.83c0.21,0.1,0.38,0.18,0.55,0.26c-0.05,0.08-0.1,0.15-0.15,0.23
	c-0.18,0.12-0.36,0.23-0.54,0.36c-0.26,0.19-0.51,0.17-0.8,0.03c-0.4-0.19-0.07-0.43-0.1-0.68c-0.47-0.19-1.16,0.33-1.51-0.31
	c-0.46-0.01-0.91-0.02-1.42-0.04c-0.14,0.33-0.2,0.62-0.37,0.86c-0.16,0.23-0.45,0.35-0.69,0.06c-0.19-0.23-0.4-0.37-0.72-0.32
	c-1.04,0.16-1.97-0.11-2.86-0.55c-0.05-0.03-0.1-0.07-0.15-0.08c-0.45-0.12-0.89-0.22-1.35,0.02c-0.54,0.28-0.99-0.11-1.48-0.19
	c-0.43-0.07-1-0.01-1.33,0.19c-0.56,0.34-1.16,0.33-1.78,0.37c-0.63,0.04-1.27,0.05-1.91,0.08c-0.46-0.52-1.1-0.15-1.64-0.25
	c-0.67-0.13-1.32-0.37-1.99-0.42c-0.61-0.05-1.21,0.17-1.88,0.03c-0.59-0.13-1.29,0.13-1.72-0.47c-0.04-0.05-0.35-0.03-0.45,0.04
	c-0.61,0.4-1.23,0.34-1.94,0.19c-0.94-0.2-1.93-0.25-2.89-0.37c-1.44,0.48-2.95-0.22-4.43,0.12c-0.55,0.13-1.24-0.17-1.87-0.27
	c-0.85-0.13-1.68-0.37-2.55-0.1c-0.21,0.06-0.51,0.13-0.67,0.04c-0.9-0.47-1.82-0.17-2.73-0.13c-0.47,0.02-0.94-0.01-1.41-0.02
	c-1.28-0.01-2.54-0.26-3.82-0.21c-1.22,0.05-2.45,0.21-3.66,0.1c-1.73-0.16-3.47-0.06-5.2-0.34c-1.17-0.19-2.42-0.04-3.64-0.02
	c-1.99,0.03-3.97,0.06-5.95,0.12c-0.8,0.03-1.6,0.16-2.41,0.2c-0.69,0.04-1.39,0.01-2.09,0.01c-1.75,0-3.49,0.01-5.24,0.01
	c-0.29,0-0.58-0.02-0.88-0.04c-4.38-0.3-8.75-0.6-13.13-0.91c-0.35-0.02-0.71-0.05-1.04-0.13c-0.46-0.11-0.82-0.35-1.05-0.75
	c-0.77-1.34-1.56-2.67-2.36-4.02c0.69,0.09,1.41,0.19,2.22,0.29c0.1-0.32,0.23-0.59,0.25-0.87c0.01-0.16-0.11-0.44-0.23-0.47
	c-0.43-0.1-0.44-0.38-0.61-0.63c-0.09-0.14-0.56-0.06-0.77-0.19c-0.26-0.16-0.43-0.44-0.68-0.71c0.55-0.25,1.01-0.47,1.5-0.7
	c0.16,0.16,0.31,0.31,0.48,0.48c0.44-0.02,0.93-0.03,1.42-0.09c0.1-0.01,0.19-0.22,0.23-0.34c0.02-0.07-0.08-0.22-0.16-0.23
	C8.37,98,8.02,97.91,7.68,97.92c-0.45,0.01-0.9,0.09-1.28,0.13c-0.31-0.29-0.01-0.41,0.02-0.58c0.03-0.19-0.05-0.4,0-0.59
	c0.05-0.18,0.2-0.35,0.31-0.52C6.8,96.3,6.86,96.24,6.92,96.17z M6.73,26.8c-0.28,0.11-0.74-0.02-0.79,0.41
	c0.62,0.16,0.62,0.16,0.82-0.42l0.01-0.04L6.73,26.8z M95.59,70.37c-0.74,0.34-1.46,0.75-2.09,1.18c-0.95,0.66-1.58,1.63-2.44,2.41
	c-0.22,0.2-0.03,0.65-0.41,0.91c-0.83,0.56-1.34,1.35-1.82,2.13c-0.59,0.95-1.48,1.62-2.61,2.11c-0.09,1.13-0.91,1.81-2.11,2.24
	c0.07,0.23,0.13,0.47,0.18,0.65c-0.79,1.44-2.31,2.34-3.12,3.74c-0.69,1.18-1.74,2.21-2.61,3.32c-0.52,0.66-0.62,1.36-0.08,2.06
	c0.16,0.01,0.31,0.06,0.38,0.01c0.65-0.39,1.31-0.65,2.17-0.63c0.56,0.01,1.03-0.27,1.16-0.9c0.11-0.52,0.63-0.67,1.23-0.51
	c0.31,0.08,0.6,0.23,0.97,0.38c0.6-1.22,1.58-1.97,3.01-2.39c0.23,0.18,0.48,0.38,0.88,0.71c-0.13-0.44-0.2-0.66-0.25-0.83
	c-0.38-0.25-0.89,0.12-1.15-0.3c0.13-0.19,0.13-0.19,1.69-0.38c0.2-0.37,0.41-0.76,0.62-1.14c0.5-0.07,0.98-0.07,1.41-0.2
	c0.68-0.2,1.42-0.26,1.93-0.83c0.33-0.38,0.86-0.77,1.37-0.85c0.64-0.1,0.63-0.63,0.93-0.79c0.3,0.11,0.5,0.18,0.69,0.26
	c0.17-0.39,0.62-0.35,0.96-0.48c0.17-0.06,0.4-0.35,0.35-0.44c-0.4-0.7,0.4-0.82,0.73-1.16c-0.87-0.64-0.94-0.64-0.99-1.44
	c-0.02-0.45-0.18-0.81-0.56-1.18c0.42-0.15,0.73-0.26,0.96-0.34c0.29-0.76-0.33-1.22-0.72-1.77c-0.42-0.59-0.89-1.19-0.33-1.94
	c0.29-0.01,0.61-0.01,0.91-0.02c0.14-0.38-0.13-0.5-0.42-0.55c-0.59-0.09-1.2-0.13-1.41,0.53c-0.5-0.32-0.99-0.64-1.45-0.94
	c0.14-0.4,0.24-0.72,0.38-1.03c0.17-0.38,0.42-0.46,0.98-0.32c0.21,0.05,0.4,0.16,0.59,0.24c0.28-0.26,0.5-0.47,0.72-0.68
	c-0.5-0.37-0.5-0.37-0.67-0.84c0.19,0.1,0.37,0.2,0.56,0.29c0.21,0.1,0.44,0.13,0.48-0.12c0.01-0.08-0.18-0.28-0.28-0.28
	C96.08,70.23,95.84,70.31,95.59,70.37z M13.69,42.11c-0.4-0.02-0.81-0.04-1.12-0.05c-0.47-0.41-0.82-0.82-1.28-1.09
	c-0.67-0.38-0.94-0.87-0.91-1.52c0.01-0.24,0.02-0.48,0.03-0.7c-0.12-0.05-0.17-0.1-0.22-0.09c-0.23,0.01-0.46,0.03-0.68,0.06
	c-0.65,0.08-0.78,0.05-0.92-0.44c-0.17-0.61-0.66-0.75-1.36-0.82c-0.07,0.38-0.18,0.76-0.21,1.14c-0.04,0.49,0.19,1.09-0.06,1.45
	c-0.41,0.61,0.26,1.05,0.09,1.58c-0.04,0.14,0.07,0.36-0.02,0.43c-0.68,0.57-0.09,1.32-0.36,1.97c-0.15,0.35,0.08,0.85,0.24,1.25
	c0.39,1.01,0.37,2.07,0.18,3.05c-0.18,0.95,0.24,1.84,0.09,2.76c-0.03,0.17,0.1,0.41,0.24,0.55c0.62,0.59,1.22,1.22,1.94,1.72
	c0.64,0.46,1.1,1,1.42,1.55c1.31,0.39,2.63,0.49,3.64,1.34c0.05,0.33,0.11,0.71,0.17,1.12c1.35,0.6,2.44,1.4,3.3,2.43
	c0.32,0.38,0.69,0.71,1.3,0.65c0.33-0.03,0.36,0.17,0.44,0.36c0.05,0.13,0.14,0.28,0.27,0.34c1.69,0.75,2.9,1.99,4.26,3.08
	c0.31,0.24,0.6,0.37,0.95,0.54c0.95,0.43,1.92,0.92,2.26,1.92c0.06,0.16,0.26,0.37,0.44,0.41c0.49,0.12,0.7,0.46,1.04,0.72
	c0.7,0.54,1.21,1.25,1.94,1.7c0.84,0.52,1.28,1.22,1.78,1.86c0.48,0.15,0.9,0.31,1.34,0.42c0.43,0.11,0.88,0.18,1.33,0.27
	c0.33,0.38,0.67,0.78,1.02,1.17c0.86-0.03,1.13,0.59,1.59,1.02c0.3,0.28,0.72,0.53,1.14,0.64c0.76,0.2,1.57,0.3,2.32,0.43
	c0.41-0.34,0.8-0.66,1.24-1.01c-0.44-0.37-1.01-0.68-0.97-1.3c0.01-0.07-0.13-0.17-0.21-0.23c-0.56-0.43-0.73-1.11-1.36-1.52
	c-0.17-0.11-0.2-0.44-0.2-0.67c0-0.22,0.11-0.45,0.18-0.67c-0.3-0.21-0.55-0.51-0.76-0.49c-0.96,0.07-1.17-0.67-1.71-1.05
	c0.01-0.83-0.74-0.99-1.44-1.25c-0.39-0.14-0.95-0.27-0.84-0.84c0.25-0.16,0.51-0.32,0.81-0.51c-0.26-0.21-0.57-0.35-0.63-0.54
	c-0.09-0.31-0.12-0.62-0.57-0.63c-0.31-0.01-0.63,0.1-0.93,0.15c-0.37-0.38-0.73-0.74-1.14-1.16c0.47-0.06,0.95-0.01,1.19-0.18
	c0.5-0.36,0.83,0.26,1.34,0.03c-0.04-0.19-0.08-0.39-0.13-0.64c-0.38,0.2-0.66,0.35-0.92,0.48c-0.28-0.19-0.51-0.34-0.73-0.48
	c-0.25,0.16-0.46,0.29-0.67,0.42c-0.3-0.49-0.55-0.9-0.82-1.34c-0.58,0.07-1.1,0.07-1.49-0.45c-0.15-0.2-0.53-0.24-0.63-0.61
	c-0.07-0.25-0.57-0.41-0.92-0.64c0.48-0.14,0.89-0.27,1.52-0.46c-0.9-0.34-1.54-0.65-2.34-0.61c-0.48,0.03-0.7-0.29-0.74-0.69
	c0.39,0.02,0.79,0.04,1.22,0.06c-0.14-0.36-0.1-0.73-0.55-0.87c-0.18,0.32-0.7,0.41-0.63,0.84c-0.2-0.23-0.74-0.04-0.79-0.46
	c-1.42-0.91-1.92-2.38-2.94-3.54c-0.25-0.28-0.31-0.69-0.67-0.99c-0.29-0.25-0.41-0.64-0.59-0.95c-0.42,0.02-0.75,0.04-0.99,0.05
	c-0.56-0.68-0.34-1.33-0.33-1.96c-0.49-0.26-0.93-0.48-1.37-0.72c-0.25-0.13-0.58-0.25-0.69-0.44c-0.35-0.65-0.92-1.1-1.68-1.4
	c0.1-0.23,0.17-0.35,0.22-0.49c0.19-0.55,0.1-0.75-0.45-0.93c-0.31-0.1-0.64-0.15-1-0.23c0.19-0.28,0.33-0.47,0.46-0.66
	c-1.11-0.74-2.34-1.29-2.86-2.44c0.19-0.13,0.37-0.24,0.57-0.37c-0.24-0.28-0.48-0.54-0.7-0.8c0.09-0.03,0.17-0.08,0.26-0.1
	c0.04-0.01,0.1,0.01,0.15,0.01c0.02,0,0.04-0.05,0.06-0.07c-0.06,0.04-0.11,0.11-0.17,0.13C13.88,42.1,13.78,42.1,13.69,42.11z
	 M48.99,103.38c0.78-0.01,1.59-0.65,2.36,0.11c0.07,0.06,0.34-0.01,0.51-0.04c0.46-0.08,0.91-0.16,1.36-0.25
	c0.07-0.02,0.12-0.12,0.24-0.26c-0.2-0.09-0.38-0.17-0.41-0.19c0.24-0.05,0.61-0.22,1.12,0.03c0.57,0.28,1.29,0.44,1.94,0.46
	c0.45,0.02,0.76,0.07,1.07,0.34c0.15,0.13,0.41,0.16,0.6,0.22c0.48-0.32,0.92-0.62,1.5-1.01c-0.14,0.65,0.01,0.92,0.6,1.15
	c0.86,0.34,0.93,0.39,1.44-0.31c0.08-0.11,0.19-0.2,0.24-0.26c0.42-0.05,0.27,0.85,0.86,0.28c0.7,0.05,1.39,0.13,2.09,0.14
	c0.34,0.01,0.89-0.02,0.98-0.19c0.34-0.6,0.76-0.38,1.28-0.26c0.83,0.21,1.72,0.48,2.54,0.26c0.7-0.19,1.34-0.17,2.04-0.12
	c1.33,0.09,2.66,0.14,3.96,0.2c0.31-0.96,0.3-0.96,0.06-1.91c-0.02-0.09-0.06-0.21-0.02-0.28c0.3-0.59-0.03-1.19-0.02-1.78
	c0-0.49-0.06-0.98-0.09-1.47c-0.02-0.44,0.12-0.95-0.1-1.3c-0.36-0.55,0.46-0.87,0.16-1.4c-0.22-0.38-0.25-0.87-0.23-1.31
	c0.03-0.52-0.47-1.04-0.03-1.57c0.06-0.08-0.13-0.33-0.25-0.48c-0.15-0.21-0.51-0.42-0.48-0.58c0.1-0.53,0.04-0.97-0.41-1.36
	c0.36-0.9-0.41-1.69-0.3-2.55c-0.31-0.12-0.55-0.17-0.72-0.29c-0.16-0.12-0.39-0.4-0.33-0.47c0.33-0.45,0.02-0.7-0.28-1.04
	c-0.57-0.63-1.16-1.27-1.56-1.97c-0.41-0.72-1.48-1.14-1.37-2.1c0.01-0.08-0.23-0.22-0.38-0.27c-0.36-0.11-0.58-0.24-0.58-0.64
	c0-0.16-0.34-0.38-0.57-0.47c-0.56-0.21-0.98-0.52-1.22-1c-0.21-0.44-0.55-0.73-1.07-0.94c-0.22-0.09-0.26-0.5-0.34-0.67
	c-0.58-0.26-1.23-0.39-1.55-0.74c-0.28-0.31-0.58-0.44-0.93-0.61c-1.6-0.75-3.28-1.33-5.15-1.64c-0.41,0.25-0.92,0.33-1.55,0.26
	c-1.43-0.17-2.86-0.34-4.24,0.28c-0.75,0.34-1.64,0.46-2.46,0.7c-0.08,0.02-0.11,0.15-0.23,0.32c0.31,0.22,0.63,0.45,0.95,0.68
	c-0.66,0.69-1.57,0.74-2.45,0.73c-0.22-0.21-0.36-0.35-0.52-0.52c-0.74,0.33-1.44,0.65-2.17,0.98c0.15,0.11,0.22,0.19,0.32,0.25
	c0.32,0.19,0.34,0.42,0.03,0.58c-0.23,0.13-0.54,0.21-0.81,0.22c-0.52,0.02-1.05-0.05-1.58-0.04c-0.34,0.01-0.82-0.01-0.99,0.16
	c-0.6,0.59-1.61,0.7-2.12,1.25c-0.54,0.59-1.53,0.67-1.86,1.4c-1.3,0.72-2.13,1.81-3.07,2.82c-0.39,0.42-0.78,0.85-0.81,1.57
	c0.66-0.09,1.18,0.17,1.71,0.52c0.6,0.4,1.06,0.79,0.89,1.52c-0.35,0.35-0.98,0.44-1.21,0.98c-0.1,0.23-0.65,0.36-1.02,0.46
	c-0.37,0.1-0.59-0.14-0.86-0.36c-0.32-0.26-0.79-0.46-1.36-0.24c-0.19,0.47-0.32,1.01-0.61,1.48c-0.49,0.82-0.33,1.88-1.29,2.53
	c-0.14,0.09-0.13,0.36-0.16,0.55c-0.04,0.24-0.03,0.48-0.08,0.71c-0.33,1.72-1.05,3.34-1.62,5c-0.19,0.57-0.43,1.11-0.16,1.68
	c0.75,0.47,1.53,0.46,2.43,0.22c-0.69,0.62-0.01,0.98,0.22,1.49c0.25-0.17,0.64-0.32,0.64-0.47c0-0.45,0.26-0.62,0.68-0.72
	c0.38-0.09,0.77-0.17,1.22-0.27c0.15,0.2,0.29,0.4,0.43,0.6c0.32-0.05,0.64-0.11,0.97-0.16c0.15,0.59,0.3,1.13,0.5,1.64
	c1.03-0.07,1.39-0.53,1.31-1.32c0.69-0.04,1.32-0.08,1.88-0.12c0.47,0.47,0.86,0.86,1.24,1.25c0.1-0.02,0.23-0.02,0.32-0.07
	c0.68-0.34,1.34-0.59,1.96,0.1c0.8-0.07,1.3,0.54,2.07,0.8c0.06-0.39,0.1-0.67,0.15-0.99c-0.57-0.12-1.07-0.22-1.65-0.34
	c0.17-0.3,0.29-0.51,0.43-0.77c0.72,0.13,1.41,0.37,2.07,0.34c0.75-0.03,1.45,0.29,2.19,0.16c0.63,0.42,1.19-0.69,1.85-0.03
	c-0.03,0.23-0.05,0.48-0.09,0.73c-0.22-0.03-0.44-0.07-0.66-0.1c-0.04,0-0.09,0.05-0.14,0.07c0.06,0.06,0.13,0.18,0.17,0.17
	C48.59,103.5,48.79,103.43,48.99,103.38z M59.62,72.9c0.17,0.11,0.34,0.25,0.53,0.3c0.12,0.03,0.36-0.05,0.41-0.14
	c0.05-0.11,0.01-0.31-0.09-0.4c-0.1-0.1-0.3-0.11-0.46-0.17c-0.24-1.32,0.49-2.63,0.03-3.96c-0.02-0.07,0.06-0.19,0.14-0.26
	c0.44-0.43,0.31-0.95,0.26-1.43c-0.06-0.54-0.27-1.06-0.38-1.6c-0.05-0.23-0.1-0.49-0.04-0.71c0.16-0.56,0.38-1.12,0.58-1.69
	c-0.38-0.32-0.65-0.67-0.6-1.18c0.05-0.49-0.01-0.98-0.02-1.57c0.22-0.27,0.51-0.63,0.82-1.01c-0.05-0.35-0.26-0.76-0.11-1.03
	c0.32-0.59,0.11-1.14,0.09-1.71c-0.02-0.41-0.54-0.85,0.02-1.24c-0.11-0.48-0.23-0.95-0.33-1.43c-0.02-0.09,0.07-0.18,0.11-0.3
	c0.41-0.09,0.83-0.17,1.27-0.27c-0.34-0.59-0.89-1.1-0.3-1.73c0.17-0.18,0.13-0.39-0.07-0.52c-0.66-0.44-0.23-1.01-0.3-1.52
	c0.66-0.32-0.02-0.79,0.18-1.23c0.35-0.03,0.73-0.06,1.16-0.09c-0.08-0.86-1.1-0.1-1.33-0.74c0.17-0.22,0.44-0.48,0.6-0.79
	c0.18-0.34,0.44-0.7-0.06-1.06c-0.1-0.07-0.01-0.34-0.02-0.52c-0.01-0.19,0.04-0.44-0.08-0.56c-0.47-0.51-0.74-1-0.33-1.63
	c0.06-0.09-0.07-0.28-0.1-0.43c-0.24-0.94-0.02-1.85,0.21-2.75c0.18-0.73,0.47-1.43,0.68-2.16c0.43-1.5,0.42-1.5-0.46-2.95
	c-0.05-0.08-0.02-0.19-0.04-0.42c0.31-0.34,0.68-0.76,1.06-1.17c-0.17-0.21-0.4-0.4-0.47-0.62c-0.21-0.67-0.04-1.41,0.44-2.35
	c0.04-0.09,0.1-0.19,0.08-0.27c-0.17-0.96-0.34-1.92-0.52-2.9c0.36-0.12,0.97,0.17,1.19-0.39c-0.25-0.32-0.69-0.64-0.7-0.96
	c-0.01-0.34,0.19-0.63-0.34-0.78c-0.02-0.01-0.02-0.04,0.01-0.06c0.63-0.43,0.55-1.03,0.45-1.61c-0.04-0.23-0.56-0.35-0.18-0.73
	c0.1-0.11-0.2-0.5-0.33-0.8c0.47-0.18,0.88-0.32,1.27-0.51c0.1-0.05,0.1-0.24,0.15-0.38c-0.41-0.02-0.75-0.04-1.09-0.05
	c-0.21-0.25-0.41-0.49-0.59-0.71c0.2-0.65,0.64-1.23,0.16-1.85c0.32-0.16,0.58-0.3,0.93-0.47c-0.45-0.28-0.77-0.49-1.09-0.69
	c0.2-0.08,0.41-0.16,0.61-0.24c-0.03-0.73-0.17-1.45-0.05-2.14c0.13-0.73,0.09-1.44,0.16-2.16c0.12-1.34,0.27-2.67,0.16-4.05
	c-0.16-0.02-0.32-0.05-0.49-0.06c-0.81-0.03-1.7,0.11-2.42-0.13c-0.9-0.3-1.63,0.2-2.45,0.07c-0.4-0.06-0.8-0.14-1.19-0.24
	c-0.49-0.13-0.98-0.29-1.46-0.43c-0.68,0.67-1.67,0.42-2.52,0.6c-0.11,0.02-0.32-0.22-0.47-0.36c-0.14-0.13-0.12-0.39-0.44-0.37
	c-0.02,0.23-0.05,0.46-0.08,0.79C51,7.81,50.71,7.64,50.4,7.58c-0.62-0.11-1.22-0.1-1.87,0.08c-0.51,0.14-1.19-0.15-1.8-0.23
	c-0.1-0.01-0.21,0.09-0.32,0.1c-0.29,0.03-0.58,0.06-0.87,0.07c-1.91,0.03-3.83,0.05-5.74,0.07c-0.17,0-0.37-0.02-0.51,0.05
	c-0.66,0.33-1.37,0.18-2.07,0.15c-0.58-0.03-1.17-0.07-1.74-0.16c-0.51-0.08-1.08-0.43-1.49-0.32c-0.66,0.17-1.09-0.26-1.66-0.27
	c-0.06,0.3-0.1,0.55-0.18,0.96c-0.48-0.33-0.82-0.57-1.1-0.76c-0.98-0.05-1.91-0.09-2.93-0.14c-0.1,0.23-0.12,0.59-0.34,0.74
	c-0.46,0.31-0.3,0.53-0.16,0.94c0.14,0.38,0.57,0.52,0.64,0.82c0.07,0.31-0.14,0.66-0.12,0.99c0.01,0.23,0.29,0.45,0.31,0.68
	c0.02,0.26-0.11,0.52-0.2,0.85c0.72,0.29,1.46,0.62,1.37,1.49c-0.01,0.09,0.07,0.18,0.12,0.27c0.83,1.4,1.08,2.14,1.19,3.47
	c0.01,0.07,0.13,0.13,0.21,0.21c0.19-0.06,0.39-0.12,0.59-0.19c0.22,0.55,0.26,0.57,0.03,0.92c-0.23,0.35-0.29,0.69,0.11,0.93
	c0.64,0.37,0.88,0.88,1.01,1.48c0.07,0.29,0.08,0.63,0.26,0.85c0.22,0.26,0.61,0.43,0.9,0.62c0.02,0.48-0.05,0.93,0.1,1.33
	c0.14,0.39,0.5,0.73,0.76,1.09c-0.22,0.19-0.41,0.36-0.68,0.59c0.51,0.47,1,0.92,1.48,1.36c-0.16,0.29-0.36,0.54-0.43,0.81
	c-0.12,0.47,0.5,0.46,0.74,0.72c0.25,0.27,0.55,0.5,0.86,0.77c0.04,0.4,0.09,0.84,0.13,1.24c0.37,0.2,0.66,0.35,0.89,0.47
	c0.05,0.12,0.09,0.17,0.09,0.21c-0.14,0.79-0.33,1.56,0.72,2.09c0.18,0.09,0.23,0.44,0.28,0.67c0.1,0.43,0.16,0.87,0.23,1.31
	c0.86,0.4,0.28,0.95,0.23,1.4c0.36,0.37,0.87,0.68,0.98,1.06c0.17,0.63,0.24,1.26,0.67,1.83c0.38,0.51,0.24,1.32,1.22,1.49
	c0.03,0.01,0.06,0.08,0.07,0.13c0.15,0.69,0.51,1.31,0.98,1.88c-0.3,0.69,0.65,0.96,0.72,1.59c0.12,1.06,0.32,2.15,1.35,2.97
	c0.22,0.18,0.25,0.55,0.33,0.84c0.28,0.95,0.46,1.92,1.27,2.7c0.21,0.2,0.27,0.56,0.29,0.84c0.03,0.43,0.61,0.81,0.16,1.26
	c0.22,0.39,0.44,0.77,0.66,1.15c-0.24,0.17-0.45,0.32-0.66,0.47c0.11,0.08,0.19,0.18,0.27,0.19c0.89,0.08,0.88,0.08,1.1,0.74
	c0.06,0.18,0.12,0.4,0.26,0.53c0.26,0.23,0.4,0.43,0.36,0.78c-0.04,0.27,0.19,0.56,0.3,0.85c-0.28,0.07-0.44,0.11-0.6,0.16
	c-0.03,0.01-0.02,0.09-0.03,0.15c0.4,0.13,0.95-0.01,1.15,0.48c0.29,0.7,0.59,1.4,0.88,2.07c-0.23,0.16-0.41,0.29-0.64,0.45
	c0.43,0.29,0.95,0.5,1.19,0.84c0.29,0.4,0.34,0.93,0.5,1.4c0.03,0.09,0.1,0.17,0.16,0.26c0.45,0.7,0.95,1.42,0.96,2.2
	c0.01,0.9,0.81,1.41,1.13,2.14c0.04,0.09,0.06,0.2,0.04,0.29c-0.09,0.34,0.11,0.52,0.4,0.75c0.23,0.18,0.33,0.52,0.42,0.8
	c0.15,0.43,0.26,0.87,0.37,1.31c0.23,0.97,1.02,1.57,1.95,2.02C58.26,73.23,58.98,73.31,59.62,72.9z M66.48,16.16
	c0.36,0.24,0.63,0.36,0.79,0.54c0.12,0.13,0.19,0.48,0.11,0.53c-0.85,0.53-0.65,1.32-0.71,2.04c-0.05,0.64-0.1,1.29-0.13,1.93
	c-0.02,0.42-0.12,0.89,0.06,1.27c0.15,0.32,0.25,0.5-0.08,0.75c-0.24,0.18-0.14,0.35,0.04,0.61c0.43,0.64,0.38,1.7,0.01,2.48
	c-0.16,0.34-0.26,0.66,0.01,0.98c0.33,0.39,0.52,0.79,0.14,1.23c0.52,0.68-0.3,1.35,0.02,2.08c0.15,0.34-0.19,0.81,0.05,1.27
	c0.15,0.28,0.1,0.72-0.06,1.01c-0.25,0.45-0.24,0.9-0.33,1.36c-0.19,1-0.65,1.95-0.32,3c0.02,0.06-0.08,0.17-0.15,0.21
	c-0.27,0.14-0.45,0.3-0.24,0.59c0.49,0.67-0.2,1.37,0.11,2.05c-0.33,0.46,0.19,1.1-0.42,1.52c-0.08,0.05-0.08,0.3-0.01,0.39
	c0.62,0.82,0.15,1.51-0.29,2.21c0.25,0.16,0.48,0.31,0.67,0.43c-0.15,0.88-0.32,1.7-0.42,2.53c-0.08,0.68-0.03,1.38-0.11,2.07
	c-0.08,0.69,0.43,1.44-0.32,2.07c-0.11,0.09,0.11,0.45,0.14,0.69c0.05,0.34,0.12,0.69-0.24,0.97c-0.63,0.48-0.53,1.06-0.22,1.64
	c0.36,0.68,0.53,1.32-0.2,1.9c-0.29,0.23-0.34,0.6-0.13,0.82c0.33,0.34,0.23,0.63,0.11,0.97c-0.23,0.64-0.04,1.32-0.3,1.97
	c-0.14,0.36,0,0.79-0.1,1.17c-0.1,0.37-0.34,0.71-0.51,1.05c0.53,1.03,0.72,2.03,0.14,3.04c-0.06,0.11-0.07,0.3,0,0.4
	c0.56,0.76,0.29,1.51,0.01,2.24c-0.25,0.66-0.5,1.32-0.45,2.01c0.09,1.14,0.03,2.26-0.17,3.39c-0.08,0.45,0.29,0.84,0.82,1.03
	c0.31,0.11,0.64,0.19,0.95,0.32c0.57,0.24,0.7,0.85,1.41,1.07c0.6,0.18,1.05,0.75,1.56,1.15c1.03-0.07,0.73-1.01,1.26-1.41
	c-0.13-0.49,0-0.88,0.54-1.13c0.71-1.45,1.65-2.83,2.01-4.39c0.13-0.57,0.53-0.95,1.03-1.28c-0.28-1.14,0.7-2.01,0.69-3.06
	c-0.01-0.46,0.58-0.46,0.7-0.79c0.08-0.23,0.2-0.46,0.21-0.69c0.03-0.54,0-1.08-0.01-1.66c0.34-0.22,0.65-0.43,0.96-0.63
	c-0.05-0.06-0.09-0.1-0.12-0.15c-0.53-0.64-0.54-0.66,0.31-0.93c0.3-0.1,0.38-0.32,0.26-0.43c-0.39-0.35,0.43-0.69-0.05-1
	c0.11-0.33,0.18-0.68,0.33-1c0.13-0.26,0.36-0.47,0.54-0.7c-0.07-0.24-0.65-0.45-0.05-0.7c0.36-0.15,0.56-0.42,0.46-0.72
	c-0.21-0.69,0.14-1.26,0.4-1.85c0.08-0.18,0.26-0.31,0.11-0.51c-0.37-0.48-0.16-0.8,0.31-1.14c0.56-0.4,1.02-0.89,1.52-1.33
	c-0.34-0.56-0.75-1.06-0.25-1.65c0.27-0.07,0.53-0.15,0.83-0.22c-0.64-0.63-0.45-1.25,0-1.74c0.96-1.05,1.2-1.5,1.35-2.71
	c0.05-0.37-0.12-0.82,0.32-1.11c0.7-0.48,0.88-1.11,0.6-1.81c0.43-0.18,0.76-0.32,0.99-0.42c-0.11-0.78-0.21-1.44-0.28-2.1
	c-0.03-0.31,0.19-0.49,0.48-0.71c0.61-0.45,0.97-1.13,0.97-1.8c0-0.52,0.14-0.93,0.36-1.35c0.35-0.12,0.67-0.22,1-0.34
	c-0.38-0.4-0.71-0.78-0.56-1.3c0.14-0.24,0.97-0.06,0.54-0.65c0.49-0.43-0.07-0.84-0.06-1.26c0-0.16,0.3-1.65,0.36-1.78
	c0.24-0.5,0.8-0.64,1.31-0.76c0.05-0.49-0.21-1.02,0.54-1.17c0.22-0.44,0.54-0.86,0.63-1.32c0.15-0.79,0.13-0.81,0.81-1.21
	c0.26-0.15,0.6-0.34,0.4-0.72c-0.06,0-0.12,0.01-0.17-0.01c-0.48-0.15-1.24,0.42-1.42-0.13c-0.23-0.72,0.88-0.38,1.21-0.74
	c-0.8-0.63-0.57-1.42-0.4-2.15c0.09-0.41,0.61-0.77-0.1-1.12c-0.04-0.02,0-0.17,0.01-0.26c0.07-0.47,0.3-0.98,0.18-1.42
	c-0.13-0.48,0.26-1.11-0.47-1.47c-0.05-0.03-0.01-0.31,0.08-0.4c0.52-0.58,0.42-1.3,0.14-1.83c-0.28-0.54-0.3-1.29-1.13-1.59
	c-0.13-0.05-0.3-0.24-0.28-0.33c0.18-0.7-0.61-1.2-0.53-1.86c0.06-0.45-0.23-0.74-0.49-1.08c-0.11-0.14-0.26-0.34-0.05-0.55
	c0.26-0.04,0.53-0.08,0.8-0.12c0.07-0.5-0.1-0.88-0.65-1.13c-0.2,0.19-0.38,0.36-0.62,0.58c-0.14-0.52,0.1-0.93,0.14-1.35
	c0.05-0.53,0.92-0.6,0.82-1.24c-0.73,0.04-1.41,0.11-2.09,0.1c-1.56-0.02-3.13-0.12-4.69-0.13c-1.4-0.01-2.8,0-4.19,0.14
	c-0.87,0.09-1.61-0.06-2.35-0.39C73.17,6.98,73.04,7,72.93,7c-0.18,0.19-0.34,0.38-0.5,0.55c-0.56-0.21-1.02-0.42-1.56-0.14
	c-0.23,0.12-0.59,0.2-0.84,0.14c-1.09-0.26-2.03,0.28-3.15,0.27c-0.07,0.72-0.04,1.36,0.27,1.96c0.33,0.63,0.34,1.22,0.06,1.88
	c-0.24,0.58-0.36,1.23-0.33,1.84c0.03,0.61,0.33,1.21,0.51,1.85C67.14,15.57,66.87,15.82,66.48,16.16z M38.91,64.37
	c0.31,0.05,0.69,0.03,0.74,0.12c0.38,0.73,1.35,1.16,1.46,2.01c0.04,0.35,0.25,0.42,0.57,0.39c0.55-0.05,0.9,0.15,1.1,0.58
	c0.05,0.1,1.08,1.09,1.2,1.15c0.34,0.19,0.69,0.33,0.83,0.73c0.3,0.86,1.01,1.72,1.82,2.41c0.2,0.17,0.37,0.39,0.5,0.6
	c0.2,0.34,0.37,0.69,0.58,0.94c1.13-0.3,2.11-0.56,3.18-0.85c-0.08-0.55-0.08-1.05-0.22-1.52c-0.48-1.62-0.74-3.31-2.06-4.67
	c-0.07-0.07-0.03-0.2-0.08-0.28c-0.17-0.3-0.48-0.59-0.49-0.88c0-0.31,0.29-0.61,0.44-0.92c0.02-0.04-0.03-0.1-0.05-0.17
	c-0.06-0.06-0.15-0.19-0.22-0.19c-0.79,0.02-1.12-0.36-1.35-0.95c-0.21-0.55-0.33-1.15-0.94-1.56c-0.17-0.11-0.31-0.34-0.31-0.52
	c-0.04-0.91-0.76-1.67-0.74-2.5c-0.32-0.19-0.68-0.29-0.76-0.47c-0.49-1.1-0.56-2.3-0.99-3.42c-0.1-0.25,0.07-0.57,0.07-0.86
	c0-0.12-0.1-0.31-0.21-0.35c-0.58-0.21-0.48-0.68-0.52-1.04c-0.05-0.48,0.09-0.97,0.11-1.46c0.01-0.16-0.09-0.33-0.12-0.46
	c-0.65-0.09-0.74,0.59-1.38,0.43c-0.35-0.74-0.72-1.51-1.09-2.3c0.44-0.38,0.82-0.71,1.19-1.02c-0.27-0.46-1.32-0.16-1.12-0.96
	c0.07-0.27-0.18-0.29-0.39-0.38c-0.19-0.09-0.42-0.26-0.46-0.42c-0.18-0.81-1-1.24-1.5-1.88c0.19-0.37,0.39-0.75,0.6-1.15
	c-0.4-0.15-0.72-0.27-1.03-0.38c-0.3-0.96-0.79-1.84-1.22-2.73c-0.21-0.43,0.29-0.61,0.12-0.96c-0.13-0.06-0.27-0.16-0.43-0.21
	c-0.83-0.28-1.26-0.71-0.86-1.49c0.13-0.25-0.07-0.39-0.28-0.46c-0.3-0.09-0.48-0.22-0.58-0.49c-0.12-0.33-0.32-0.65-0.48-0.97
	c-0.25-0.49-0.65-0.9-0.38-1.54c0.14-0.33-0.25-0.82-0.4-1.24c-1.26-0.44-0.93-1.34-0.86-2.1c-0.31-0.38-0.58-0.71-0.84-1.05
	c-0.12-0.16-0.36-0.37-0.32-0.49c0.25-0.67-0.19-0.99-0.77-1.29c-0.1-0.05-0.15-0.28-0.11-0.39c0.05-0.11,0.25-0.27,0.37-0.26
	c0.38,0.03,0.76,0.13,1.15,0.2c0.13-0.14,0.26-0.28,0.46-0.51c-0.99,0.22-0.68-0.52-1.16-0.9c-0.28,0.3-0.56,0.6-0.93,0.98
	c-0.15-0.25-0.38-0.46-0.33-0.56c0.19-0.39,0.17-0.78,0.07-1.16c-0.16-0.62-0.46-1.2-0.42-1.87c0.03-0.6-0.49-0.75-1.22-0.47
	c-0.03,0.01-0.04,0.07-0.05,0.1c-0.08-0.23-0.1-0.51-0.27-0.69c-0.62-0.66-0.78-1.5-1.43-2.31c0.72,0.02,1.24,0.06,1.75,0.04
	c0.24-0.01,0.48-0.15,0.85-0.27c-0.44-0.38-0.76-0.66-1.08-0.94c-0.31-0.27-0.63-0.53-0.97-0.82c-0.07,0.34-0.1,0.63-0.21,0.89
	c-0.04,0.11-0.26,0.23-0.4,0.23c-0.14,0-0.35-0.12-0.4-0.23c-0.12-0.27-0.16-0.56-0.24-0.85c0.18-0.18,0.36-0.35,0.62-0.62
	c-0.25-0.17-0.48-0.31-0.72-0.48c0.29-0.2,0.54-0.38,0.78-0.55c-0.42-0.5-0.99-0.49-1.43-0.54c-0.46-0.86-0.4-1.83-1.25-2.53
	c-0.08-0.07,0.08-0.35,0.15-0.63c-0.41-0.41-0.89-0.9-1.34-1.36c0.12-0.42,0.22-0.79,0.34-1.2c-0.47-0.14-0.83-0.25-1.15-0.34
	c-0.16-0.44-0.29-0.8-0.45-1.23c-0.57,0.09-1.06,0.08-1.47,0.24c-0.78,0.29-1.58,0.32-2.4,0.28c-0.63-0.03-1.34-0.29-1.88-0.13
	c-1.14,0.34-2.18-0.02-3.27-0.11c-0.67-0.06-1.45-0.7-1.95,0.24C9.99,8.49,9.8,8.5,9.69,8.5C9.11,8.52,8.42,8.25,8,8.63
	C7.48,9.09,6.76,8.65,6.09,9.04c0.58,0.37,0.73,0.74,0.27,1.14c-0.01,0.01,0.03,0.1,0.06,0.11c0.1,0.03,0.24,0.09,0.3,0.06
	c0.08-0.05,0.1-0.17,0.15-0.26c0.17-0.32,0.54-0.45,0.85-0.31c0.31,0.14,0.46,0.48,0.15,0.76c-0.3,0.28,0.07,0.6-0.08,0.84
	c-0.18,0.29-0.47,0.5-0.39,0.91c0.23,1.11,0.07,2.21-0.04,3.31c-0.01,0.14-0.05,0.32,0.03,0.42c0.69,0.82,0.41,1.66,0.24,2.53
	c-0.16,0.82-0.17,1.66-0.25,2.49c0.51,0.54,0.26,1.13,0.2,1.71c-0.02,0.2-0.1,0.43,0,0.58c0.47,0.75,0.05,1.44-0.04,2.12
	c-0.12,0.06-0.18,0.08-0.23,0.1c-0.18,0.09-0.46,0.14-0.53,0.27c-0.12,0.23,0.12,0.33,0.37,0.39c0.11,0.02,0.19,0.1,0.33,0.17
	c0.03,0.28-0.05,0.62,0.11,0.86c0.18,0.27,0.58,0.44,0.85,0.64c-0.02,0.32-0.03,0.62-0.04,0.8c0.6,0.59,1.13,1.12,1.66,1.65
	c-0.07,0.76,0.79,1.05,1.13,1.6c1.39,0.44,1.07,1.77,1.85,2.52c0.03,0.03,0.01,0.11-0.02,0.14c-0.54,0.68,0.27,0.8,0.69,1.14
	c-0.37,0.07-0.71,0.1-1.02,0.21c-0.13,0.05-0.16,0.27-0.27,0.46c0.46-0.06,0.85-0.12,1.23-0.17c0.54,0.76,0.54,0.76,1.58,0.59
	c0.16-0.03,0.34,0.03,0.4,0.03c0.7,0.72,1.29,1.4,1.97,2.01c0.48,0.43,0.57,0.84,0.31,1.35c-0.04,0.07,0.04,0.18,0.07,0.29
	c0.41,0.17,0.83,0.33,1.2,0.48c0.19,0.37,0.35,0.69,0.52,1c0.09,0.16,0.21,0.43,0.33,0.44c0.7,0.07,0.94,0.6,1.3,0.95
	c0.82,0.82,1.66,1.63,2.44,2.49c0.67,0.75,1.26,1.56,2.03,2.21c0.58,0.49,0.99,0.95,0.97,1.66c-0.01,0.42,0.31,0.61,0.81,0.59
	c0.13,0,0.26,0.04,0.45,0.07c-0.64,0.57-0.64,0.56-0.02,0.94c0.22,0.14,0.51,0.32,0.55,0.51c0.08,0.41,0.36,0.57,0.75,0.72
	c0.31,0.12,0.57,0.34,0.84,0.51c-0.06,0.84-0.06,0.84,0.78,1c0.11,0.02,0.25,0.01,0.34,0.06c0.08,0.04,0.12,0.15,0.18,0.24
	c-0.2,0.2-0.41,0.41-0.63,0.63c0.57,0.34,0.81,0.93,1.58,0.93c0.18,0,0.47,0.19,0.52,0.34c0.23,0.66,0.86,1.23,0.61,2.04
	c0.73,0.13,1.28,0.49,1.71,0.99c0.11,0.12,0.18,0.27,0.3,0.37c0.43,0.33,0.87,0.65,1.31,0.97c0.54,0.39-0.14,0.99,0.36,1.4
	c0.28-0.04,0.58-0.09,0.99-0.15c-0.17,0.24-0.26,0.36-0.37,0.52C38.2,63.04,38.54,63.67,38.91,64.37z M16.14,61.45
	c-1.1-0.09-1.95-0.41-2.57-1.02c-0.39-0.38-0.74-0.75-1.34-0.89c-0.13-0.03-0.3-0.21-0.3-0.32c-0.01-0.42-0.33-0.46-0.7-0.52
	c-0.22-0.04-0.44-0.13-0.62-0.25c-0.68-0.48-1.34-0.97-2-1.46c-0.22-0.16-0.42-0.35-0.67-0.47c-0.12-0.06-0.36-0.01-0.48,0.06
	c-0.12,0.07-0.25,0.26-0.21,0.35c0.16,0.32,0.35,0.61,0.14,0.98c-0.08,0.14-0.02,0.42,0.1,0.55c0.4,0.43,0.35,0.94,0.41,1.42
	C7.96,60.31,7.81,60.8,8,61.19c0.42,0.85-0.1,1.61-0.15,2.41c-0.02,0.28-0.14,0.48,0.07,0.8c0.36,0.55,0.7,1.17-0.13,1.7
	c-0.13,0.08-0.18,0.4-0.11,0.55c0.21,0.46,0.66,0.88,0.72,1.33c0.06,0.45-0.46,0.98-0.32,1.39c0.18,0.53-0.5,0.65-0.39,1.11
	c0.2,0.23,0.44,0.51,0.69,0.8c-0.14,0.51-0.62,0.99-0.26,1.56c0.2,0.33-0.09,0.8,0.45,1.02c-0.07,0.43-0.18,0.86-0.21,1.3
	c-0.01,0.29,0.06,0.59,0.16,0.87c0.28,0.85,0.04,1.63-0.31,2.38c0.15,0.29,0.29,0.56,0.44,0.84c0.33,0.61,0.88,0.91,1.68,0.86
	c0.23-0.02,0.46-0.01,0.69-0.04c0.93-0.1,0.98-0.1,1.35,0.52c0.18,0.3,0.3,0.61,0.44,0.9c-0.17,0.12-0.25,0.19-0.34,0.23
	c-0.26,0.11-0.29,0.29-0.17,0.49c0.04,0.07,0.17,0.1,0.26,0.15c0.1-0.16,0.29-0.32,0.27-0.47c-0.09-0.94-0.11-0.94,0.59-1.77
	c0.34,0.27,0.62,0.63,1,0.77c0.43,0.15,0.77,0.41,1.14,0.57c0.53,0.22,1.03,0.58,1.72,0.56c0.28-0.01,0.86-0.02,0.91,0.5
	c0.01,0.07,0.35,0.21,0.41,0.17c0.39-0.24,0.73,0.02,1.08,0.06c0.45,0.05,1.04-0.03,1.31,0.18c0.38,0.3,0.8,0.39,1.23,0.52
	c0.69,0.21,1.46,0.25,2.02,0.77c0.13,0.12,0.41,0.18,0.62,0.18c1.29-0.02,2.56,0.1,3.79,0.48c0.41,0.12,0.84,0.15,1.18-0.08
	c0.57-0.38,1.13-0.79,1.64-1.23c0.17-0.15,0.27-0.46,0.22-0.67c-0.1-0.41,0.1-0.67,0.42-0.9c0.37-0.27,0.67-0.63,1.23-0.65
	c0.85-0.76,1.4-1.76,2.59-2.23c0.38-0.8,1.17-1.28,2.04-1.72c-0.16-0.18-0.24-0.33-0.37-0.4c-1.37-0.7-2.68-1.45-3.91-2.33
	c-0.63-0.45-1.38-0.77-2.04-1.19c-0.71-0.44-1.37-0.95-2.09-1.38c-0.63-0.38-0.95-1.1-1.82-1.21c-0.16-0.6-0.98-0.43-1.35-0.86
	c-0.37-0.42-0.98-0.69-1.48-1.04c-0.5-0.35-0.99-0.71-1.48-1.08c-0.27-0.2-0.51-0.41-0.79-0.59c-0.6-0.4-1.2-0.82-1.83-1.18
	c-0.67-0.38-0.83-1.22-1.74-1.39c-0.1-0.02-0.13-0.27-0.23-0.38c-0.46-0.52-0.74-1.21-1.74-1.16c-0.19,0.01-0.52-0.16-0.56-0.3
	c-0.15-0.43-0.34-0.81-0.81-1.06C15.8,61.75,15.9,61.66,16.14,61.45z M90.21,34.2c-0.69,0.3-0.66,0.92-1.1,1.23
	c-0.05,0.03-0.03,0.2,0.03,0.27c0.21,0.22,0.25,0.43,0.07,0.67c-0.32,0.43-0.35,0.94-0.52,1.4c-0.27,0.75-0.27,1.58-0.89,2.23
	c-0.17,0.18-0.27,0.46-0.28,0.69c-0.06,1.13-0.68,2.08-1.18,3.08c-0.26,0.51-1.13,0.94-0.54,1.69c0.09,0.11-0.03,0.42-0.16,0.55
	c-0.32,0.31-0.42,0.63-0.49,1.04c-0.12,0.62-0.48,1.2-0.76,1.8c-0.23,0.49-0.38,1.05-0.77,1.43c-0.53,0.51-0.28,1.13-0.51,1.68
	c-0.17,0.42-0.35,0.79-0.64,1.18c-0.43,0.58-0.86,1.21-0.85,1.96c0,0.24-0.05,0.52-0.2,0.71c-0.18,0.22-0.49,0.36-0.73,0.52
	c0.22,0.48,0.42,0.85,0.07,1.32c-0.61,0.81-0.84,1.76-1.07,2.7c-0.08,0.34-0.13,0.69-0.6,0.85c-0.08,0.03-0.14,0.2-0.12,0.3
	c0.04,0.18,0.24,0.38,0.19,0.52c-0.28,0.8-0.6,1.58-0.94,2.36c-0.44,1.02-1.06,2-1.32,3.05c-0.25,0.98-0.77,1.85-1.14,2.78
	c-0.35,0.89-0.79,1.74-1.27,2.59c-0.64,1.15-1.12,2.36-1.39,3.75c0.39-0.03,0.89-0.33,1.04,0.17c0.05,0.17-0.03,0.43-0.16,0.55
	c-0.43,0.4-0.65-0.27-1.09-0.18c-0.12,0.12-0.26,0.27-0.47,0.48c1.09,0.63,1.5,1.39,0.56,2.33c0.26,0.7-0.77,0.65-0.9,1.09
	c-0.02,1.38,1.33,1.97,2.1,2.87c0.91-0.44,1.82-0.78,2.08-1.71c0.05-0.17,0.3-0.29,0.44-0.45c0.5-0.55,1.09-1.05,1.44-1.66
	c0.31-0.52,0.67-0.98,1.07-1.45c0.42-0.49,1.16-0.79,1.36-1.28c0.27-0.64,0.92-0.25,1.3-0.62c-0.09-0.13-0.23-0.28-0.29-0.45
	c-0.08-0.22-0.21-0.53-0.1-0.66c0.42-0.51,0.86-1.05,1.43-1.41c0.35-0.23,0.4-0.51,0.6-0.75c0.39-0.44,0.16-1.09,0.79-1.44
	c0.56-0.31,0.62-0.93,0.94-1.39c0.11-0.16,0.36-0.37,0.53-0.36c0.75,0.05,0.9-0.68,1.57-0.78c0.86-0.13,0.68-0.96,1.08-1.41
	c0.2-0.22,0.5-0.38,0.73-0.55c0.05-1.15-0.03-1.21,0.39-1.56c0.45-0.38,0.19-1.08,0.96-1.32c0.24-0.07,0.39-0.48,0.46-0.76
	c0.09-0.33,0.05-0.68,0.07-1.04c0.61-0.16,1.15-0.3,1.77-0.46c0.09-0.91,0.17-1.79,0.26-2.74c0.43,0.04,0.8,0.07,1.23,0.11
	c-0.06-0.5-0.47-0.6-0.8-0.75c-0.56-0.25-0.58-0.44-0.07-0.78c0.12-0.08,0.25-0.16,0.44-0.29c-0.23-0.16-0.4-0.28-0.57-0.39
	c0.02-0.38-0.04-0.79,0.08-1.15c0.11-0.33-0.27-0.54-0.17-0.82c0.14-0.39,0.6-0.42,0.94-0.6c0.13-0.07,0.2-0.23,0.26-0.37
	c0.05-0.13,0.12-0.3,0.07-0.41c-0.11-0.22-0.31-0.16-0.57-0.1c-1.04,0.24-1.04-0.01-1.11-0.59c-0.06-0.49,0.19-0.92,0.65-1.3
	c-0.55-0.7-1.58-1.28-0.66-2.22c0.09-0.09-0.08-0.38-0.13-0.57c-0.07-0.28-0.13-0.57-0.21-0.88c0.28-0.1,0.49-0.17,0.69-0.24
	c-0.65-0.73-0.67-0.73-0.67-1.54c-0.01-0.88-0.41-1.78,0.09-2.64c-0.58-0.71-0.16-1.45-0.08-2.17c0.05-0.39-0.01-0.68-0.34-0.94
	c-0.55-0.43-0.88-0.92-0.62-1.58c0.06-0.15-0.05-0.38-0.17-0.53c-0.67-0.83-0.52-1.66-0.02-2.48c-0.29-0.37-0.62-0.68-0.8-1.04
	C90.34,35.03,90.32,34.65,90.21,34.2z M28.82,88.62c-0.31-0.18-0.54-0.43-0.76-0.43c-0.73,0.01-1.38-0.16-2-0.46
	c-0.15-0.07-0.33-0.14-0.48-0.13c-1.25,0.13-2.4-0.38-3.63-0.45c-0.92-0.05-1.74-0.49-2.45-1.08c-0.45,0.33-0.94,0.41-1.49,0.26
	c-1.44-0.41-3.02-0.28-4.42-0.85c-0.15-0.06-0.34-0.04-0.51-0.05c-0.72-0.06-1.49,0.02-1.98-0.61c-0.05-0.07-0.2-0.1-0.31-0.11
	c-0.51-0.03-1.01-0.05-1.54-0.08c-0.02,0.17-0.06,0.31-0.06,0.46c-0.03,1.33-0.09,2.66,0.33,3.98c0.22,0.7,0.17,1.45,0.24,2.18
	c0.07,0.78,0.14,1.56,0.2,2.35c0.69,0.6,0.44,1.42,0.69,2.12c0.17,0.47,0.45,1,0.35,1.44c-0.15,0.67,0.12,1.28,0.13,1.91
	c0.01,0.54-0.09,1.12,0.13,1.59c0.23,0.48,0.8,0.85,1.19,1.28c0.18,0.19,0.29,0.43,0.37,0.55c1.26,0.51,2.28,0.23,3.21-0.37
	c0.71,0.14,1.38,0.42,2.09,0.16c0.08-0.03,0.3,0.01,0.31,0.04c0.2,0.79,1.34,0.21,1.68,0.87c0.09,0.17,0.53,0.05,0.66-0.24
	c0.08-0.17,0.17-0.33,0.25-0.49c0.4,0.1,0.72,0.26,1.03,0.25c0.69-0.02,0.92,0.33,1.09,0.79c0.02,0.07,0.16,0.11,0.27,0.18
	c0.19-0.07,0.4-0.15,0.61-0.23c0.3,0.2,0.59,0.4,0.89,0.6c0.42-0.38,0.64-0.7,0.33-1.12c-0.38-0.06-0.75-0.11-1.21-0.18
	c0.15-0.44,0.24-0.77,0.37-1.08c0.39-0.98,0.68-1.95,0.47-3.02c-0.08-0.4,0.18-0.86,0.35-1.28c0.16-0.42,0.58-0.82,0.56-1.22
	c-0.03-0.69,0.28-1.23,0.6-1.8c0.26-0.45,0.17-0.98,0.29-1.44c0.13-0.5,0.78-0.92,0.86-1.41C27.65,90.48,28.31,89.67,28.82,88.62z
	 M97.3,95.92c0.29-0.56-0.69-0.49-0.62-0.94c0.18-0.11,0.36-0.22,0.57-0.35c-0.14-0.26-0.28-0.52-0.44-0.81
	c-0.17,0.14-0.29,0.24-0.52,0.43c0.16-0.54,0.24-0.93,0.94-0.97c0.32-0.02,0.63-0.19,1.06-0.32c-0.58-0.41-1.14-0.71-1.18-1.31
	c-0.01-0.08,0.09-0.16,0.16-0.26c0.16,0,0.33,0.01,0.5-0.01c0.15-0.02,0.3-0.07,0.43-0.1c-0.01-0.7-0.8-0.44-1.13-0.77
	c0.11-0.11,0.21-0.21,0.35-0.35c-0.29-0.27-0.6-0.53-0.88-0.83c-0.28-0.29,0.31-0.2,0.23-0.49c-0.09-0.13-0.23-0.33-0.37-0.54
	c0.29-0.13,0.77-0.2,0.83-0.38c0.2-0.67,0.84-0.54,1.38-0.63c-0.18-0.31-0.66-0.32-0.68-0.78c-0.01-0.41-0.61-0.48-0.87-0.11
	c-0.22,0.32-0.34,0.69-0.46,0.93c-0.44,0.07-0.86,0.04-1.06,0.19c-1.31,1.01-2.77,1.73-4.54,1.92c0.01,0.2,0.03,0.34,0.04,0.48
	c-0.11,0.05-0.21,0.12-0.32,0.13c-0.44,0.04-0.89,0.02-1.33,0.08c-0.58,0.08-0.35,0.71-0.78,0.91c-0.25,0.12-0.5,0.26-0.73,0.41
	c-0.75,0.48-1.75,0.62-2.43,1.08c-0.78,0.53-1.64,0.89-2.48,1.29c-0.87,0.41-1.58,1.09-2.73,1.09c-0.43,0-1,0.94-0.83,1.31
	c0.21,0.45,0.25,0.8-0.08,1.23c-0.23,0.29,0.36,0.31,0.44,0.5c0.28,0.63,0.05,1.15-0.75,1.93c0.36,0.23,0.71,0.47,1.07,0.7
	c-0.11,1.22,0.33,2.47-0.41,3.63c-0.09,0.15,0.05,0.36,0.45,0.41c0.38,0.04,0.65,0.1,1.07,0.01c0.44-0.1,1.11-0.46,1.6,0.12
	c0.05,0.06,0.38-0.04,0.58-0.09c0.26-0.07,0.52-0.27,0.75-0.24c0.9,0.11,1.83-0.03,2.73,0.31c0.36,0.14,0.92,0.32,1.31-0.05
	c0.45-0.42,0.62-0.19,0.87,0.19c0.23,0.35,0.42,0.3,0.7-0.1c0.06-0.08,0.1-0.18,0.19-0.33c0.92,0.49,1.88,0.08,2.84,0.08
	c0.24,0,0.22-0.37,0.64-0.33c1.66,0.17,3.33,0.27,4.74,1.18c0.04,0.03,0.11,0.03,0.25,0.06c0.26-0.19,0.59-0.39,0.87-0.63
	c0.23-0.2,0.07-0.42-0.39-0.62c-0.08-0.04-0.13-0.13-0.19-0.2c0.1-0.22,0.19-0.43,0.3-0.68c-0.39-0.08-0.65-0.13-0.91-0.19
	c-0.07-0.07-0.14-0.14-0.22-0.22c0.35-0.08,0.71-0.16,1.06-0.24c-0.04-0.08-0.08-0.15-0.12-0.23c-0.26-0.07-0.52-0.14-0.83-0.23
	c0.41-0.48,0.8-0.94,1.12-1.31c-0.32-0.59-0.59-1.1-0.85-1.59c-0.49,0.03-0.68,0.2-0.69,0.57c-0.02,0.41-0.31,0.6-0.78,0.59
	c-0.21-0.49,0.04-0.79,0.51-1.01c-0.25-0.11-0.49-0.21-0.75-0.32c0.85-0.99,0.53-1.96,0.1-2.9C96.91,96.09,97.12,96,97.3,95.92z
	 M20.3,47.06c-0.53,0.61-0.53,0.61,0.43,1.41c-0.21-0.57,0.5-0.58,0.83-0.83C21.08,47.41,20.7,47.23,20.3,47.06z M97.25,68.38
	c-0.28-0.01-0.57,0.01-0.83-0.05c-0.25-0.05-0.48-0.19-0.8-0.32c-0.07,0.24-0.14,0.42-0.18,0.6c-0.03,0.18-0.02,0.37-0.03,0.59
	c0.5-0.05,0.89-0.01,1.04,0.42c0.02,0.07,0.22,0.16,0.24,0.14c0.12-0.08,0.26-0.18,0.28-0.29C97.04,69.17,96.71,68.78,97.25,68.38z
	 M3.2,67.31c0.45,0,0.88-0.01,1.42-0.01c0.03-0.24,0.07-0.59,0.11-0.94C4.24,66.73,3.41,66.65,3.2,67.31z M5.66,83.19
	c-0.56,0.13-0.56,0.13-1.06,0.9c-0.02,0.03-0.02,0.09,0,0.12c0.02,0.04,0.07,0.07,0.13,0.12c0.28,0.01,0.59,0.03,0.95,0.05
	C5.42,83.94,5.04,83.57,5.66,83.19z M97.51,57.99c-0.27,0.38-0.43,0.58-0.55,0.8c-0.13,0.25-0.09,0.46,0.33,0.48
	C97.21,58.86,97.99,58.64,97.51,57.99z M94.83,107.26c0.16,0.26,0.25,0.68,0.87,0.68C95.56,107.46,95.19,107.32,94.83,107.26z
	 M93.11,88.34c0.44-0.27,0.85-0.5,0.52-0.96c-0.08-0.11-0.35-0.12-0.63-0.2C93.04,87.63,93.07,87.95,93.11,88.34z M76.15,86.66
	c0.11-0.03,0.23-0.06,0.34-0.08c-0.06-0.27-0.1-0.54-0.18-0.8c-0.02-0.05-0.21-0.1-0.29-0.08c-0.08,0.02-0.2,0.15-0.18,0.2
	C75.92,86.16,76.04,86.4,76.15,86.66z M27.05,54.8c-0.46-0.38-0.67-0.71-0.92-0.74c-0.51-0.07-0.69,0.33-0.97,0.65
	C25.77,54.73,26.25,54.76,27.05,54.8z M16.45,43.44c-0.47-0.36-0.67-0.54-0.9-0.68c-0.05-0.03-0.23,0.02-0.28,0.07
	c-0.05,0.06-0.04,0.24,0,0.25C15.55,43.19,15.84,43.26,16.45,43.44z M75.97,107.19c0.44,0.39,0.44,0.39,1.03,0.17
	C76.65,107.3,76.33,107.25,75.97,107.19z M95.11,34.85c-0.16-0.06-0.32-0.17-0.47-0.16c-0.13,0.01-0.26,0.13-0.38,0.22
	c-0.03,0.02-0.04,0.1-0.02,0.14c0.02,0.04,0.11,0.1,0.12,0.09c0.19-0.09,0.38-0.2,0.57-0.29C94.97,34.83,95.04,34.85,95.11,34.85z
	 M12.91,40.52c0.76,0.35,0.76,0.34,1.22-0.04C13.66,40.5,13.29,40.51,12.91,40.52z M25.28,53.38c0.74,0.04,1.07,0.05,1.5,0.07
	C26.35,53.1,26.02,53.15,25.28,53.38z M96.32,44.36c-0.12,0.12-0.18,0.15-0.19,0.18c0,0.18-0.01,0.35,0.03,0.53
	c0.01,0.03,0.22,0.08,0.28,0.04c0.32-0.17,0.15-0.39,0.05-0.6C96.47,44.47,96.41,44.44,96.32,44.36z M68.99,79.93
	c0.41,0.3,0.52,0.41,0.66,0.46c0.14,0.05,0.32,0.04,0.48,0.05c0.01-0.06,0.02-0.12,0.03-0.18C69.88,80.19,69.61,80.11,68.99,79.93z
	 M93.87,4.02c0.23,0.47,0.23,0.47,1.06,0.17C94.55,4.13,94.24,4.08,93.87,4.02z M37.16,7.26c0.16-0.15,0.29-0.26,0.41-0.38
	c-0.09-0.05-0.19-0.14-0.27-0.13c-0.18,0.04-0.35,0.13-0.53,0.19C36.88,7.03,36.98,7.11,37.16,7.26z M98.42,74.31
	c-0.18-0.01-0.35-0.04-0.52-0.02c-0.09,0.01-0.21,0.09-0.22,0.16c-0.01,0.06,0.09,0.19,0.16,0.21
	C98.19,74.75,98.41,74.65,98.42,74.31z M26.92,56.1c0-0.06-0.01-0.13-0.01-0.19c-0.16-0.01-0.34-0.06-0.47-0.01
	c-0.11,0.05-0.16,0.2-0.24,0.31c0.14,0,0.29,0.02,0.43,0.01C26.72,56.2,26.82,56.14,26.92,56.1z M34.52,34.68
	c0.58-0.08,0.88-0.12,1.3-0.18C35.36,34.05,35.08,34.36,34.52,34.68z M95.02,56.03c-0.02,0.05-0.05,0.1-0.07,0.15
	c0.18,0.1,0.35,0.21,0.55,0.28c0.08,0.03,0.2-0.05,0.31-0.08c-0.04-0.08-0.07-0.22-0.14-0.24C95.46,56.08,95.24,56.06,95.02,56.03z
	 M8.96,32.62c0.33-0.02,0.49-0.03,0.71-0.04C9.46,32.3,9.27,32.06,9,31.72C8.99,32.07,8.98,32.29,8.96,32.62z M91.62,32.78
	c0.05,0.07,0.09,0.17,0.16,0.19c0.07,0.03,0.18-0.01,0.27-0.02c-0.06-0.09-0.11-0.2-0.19-0.27C91.85,32.66,91.7,32.74,91.62,32.78z
	 M29.65,103.9c0.03-0.09,0.05-0.18,0.08-0.27c-0.19-0.03-0.38-0.1-0.57-0.09c-0.15,0.01-0.3,0.11-0.46,0.18
	C29.03,103.78,29.34,103.84,29.65,103.9z M4.18,82.71c0.11-0.12,0.22-0.21,0.29-0.32c0.02-0.03-0.13-0.18-0.18-0.17
	c-0.15,0.02-0.29,0.1-0.43,0.15C3.96,82.47,4.05,82.57,4.18,82.71z M16.58,83.1c-0.28,0.19-0.49,0.34-0.76,0.52
	c0.37,0.03,0.69,0.06,1.11,0.1C16.78,83.45,16.68,83.28,16.58,83.1z M91.65,10.3c-0.2-0.07-0.38-0.19-0.49-0.15
	c-0.18,0.06-0.32,0.22-0.47,0.33c0.14,0.13,0.28,0.26,0.43,0.39C91.24,10.74,91.36,10.61,91.65,10.3z M64.54,25.34
	c-0.53-0.32-0.7-0.5-0.88-0.51c-0.25-0.02-0.54,0.04-0.76,0.14c-0.16,0.07,0.15,0.34,0.54,0.38C63.65,25.36,63.87,25.34,64.54,25.34
	z M96.66,72.9c0.7-0.62,0.73-0.67,0.47-0.85c-0.13-0.09-0.38-0.06-0.62-0.09C96.56,72.3,96.6,72.53,96.66,72.9z M27.55,104.1
	c-0.1-0.09-0.17-0.19-0.22-0.19c-0.1,0.01-0.21,0.07-0.27,0.14c-0.03,0.04,0.04,0.14,0.06,0.21
	C27.26,104.21,27.4,104.16,27.55,104.1z M79.76,107.74c0.15-0.12,0.3-0.24,0.45-0.37c-0.15-0.05-0.3-0.13-0.45-0.14
	c-0.16-0.01-0.38,0.02-0.29,0.24C79.5,107.56,79.61,107.61,79.76,107.74z M1.25,62.24c0.2-0.21,0.44-0.41,0.61-0.64
	c0.16-0.21-0.04-0.49-0.33-0.5c-0.22-0.01-0.46-0.01-0.67,0.05c-0.47,0.13-0.54,0.58-0.13,0.9C0.85,62.13,1.03,62.16,1.25,62.24z
	 M48.24,1.79c0.59,0.25,0.59,0.25,1.24,0.12c-0.02-0.37-0.13-0.72-0.64-0.72C48.42,1.18,48.26,1.46,48.24,1.79z M6.2,37.04
	c-0.15-0.03-0.29-0.09-0.32-0.06c-0.1,0.1-0.17,0.22-0.25,0.34c0.09,0.02,0.22,0.07,0.27,0.04C6.02,37.28,6.09,37.16,6.2,37.04z
	 M52.51,1.84c-0.02-0.12-0.02-0.17-0.03-0.21c-0.09-0.33-0.31-0.55-0.7-0.37c-0.21,0.09-0.5,0.36-0.47,0.51
	c0.08,0.41,0.51,0.22,0.81,0.22C52.22,1.97,52.32,1.9,52.51,1.84z M84.88,6.61c-0.05,0-0.14,0-0.14,0c-0.01,0.08,0,0.17,0,0.25
	c0.05-0.01,0.15-0.01,0.15-0.02C84.9,6.76,84.89,6.68,84.88,6.61z M50.06,1.06c-0.4-0.61-0.99-0.19-1.63-0.41
	c0.13,0.39,0.14,0.65,0.29,0.79c0.11,0.1,0.44,0.1,0.62,0.04C49.6,1.4,49.81,1.22,50.06,1.06z M10.04,33.52
	c-0.64-0.37-0.96-0.35-1.23,0.01C9.12,33.53,9.43,33.53,10.04,33.52z M95.53,38.08c0.04,0.03,0.08,0.1,0.13,0.1
	c0.21,0.02,0.43,0.04,0.64,0.01c0.06-0.01,0.15-0.19,0.11-0.25c-0.07-0.12-0.19-0.26-0.32-0.3c-0.28-0.09-0.4,0.11-0.49,0.29
	C95.57,37.98,95.55,38.03,95.53,38.08z M2.63,46.66c-0.35-0.04-0.51-0.09-0.65-0.06c-0.15,0.03-0.3,0.12-0.41,0.22
	c-0.07,0.06-0.1,0.18-0.1,0.27c0.02,0.36,0.24,0.52,0.73,0.46C2.31,47.32,2.43,47.06,2.63,46.66z M1.9,60.14
	c0.19-0.57,0.44-0.9,0.11-1.26c-0.48,0.05-0.97,0.13-0.89,0.62C1.14,59.71,1.54,59.87,1.9,60.14z M48.64,61.31
	c-0.04,0.07-0.09,0.13-0.12,0.2c-0.01,0.03,0.04,0.07,0.07,0.11c0.08-0.05,0.15-0.09,0.23-0.14C48.76,61.42,48.7,61.36,48.64,61.31z
	 M39.44,67.17c0.07,0,0.14,0,0.22,0c0-0.26-0.01-0.53-0.01-0.79c-0.08,0-0.15,0-0.23,0C39.43,66.65,39.43,66.91,39.44,67.17z
	 M99.88,84.83c-0.06,0-0.17-0.02-0.28-0.01c-0.06,0-0.12,0.05-0.17,0.07c0.05,0,0.11,0.01,0.16,0
	C99.7,84.88,99.82,84.85,99.88,84.83z M7.3,92.84c-0.11-0.15-0.16-0.28-0.21-0.28c-0.15-0.01-0.31,0.02-0.46,0.05
	c-0.01,0,0.01,0.19,0.03,0.19C6.85,92.83,7.04,92.83,7.3,92.84z M8.39,99.68c-0.33,0.4-0.57,0.69-0.83,1
	c0.82,0.25,1.02,0.18,1.02-0.29C8.58,100.21,8.48,100.02,8.39,99.68z M85.22,105.79c0.01-0.04,0.03-0.08,0.04-0.13
	c-0.09-0.02-0.19-0.04-0.29-0.04c-0.01,0-0.03,0.08-0.05,0.12C85.02,105.76,85.12,105.78,85.22,105.79z M62.52,7.08
	c0.03-0.04,0.06-0.08,0.09-0.12c0.02-0.03,0.02-0.06,0.03-0.09c-0.04,0.03-0.1,0.05-0.13,0.09C62.49,6.99,62.52,7.04,62.52,7.08z
	 M15.67,7.03c-0.01-0.04,0-0.11-0.02-0.11c-0.1-0.02-0.21-0.02-0.32-0.02c0.02,0.04,0.03,0.11,0.06,0.12
	C15.48,7.03,15.57,7.02,15.67,7.03z M92.43,14.28c-0.14-0.12-0.24-0.24-0.29-0.23c-0.25,0.06-0.62-0.02-0.66,0.31
	c-0.01,0.09,0.22,0.29,0.25,0.28C91.97,14.55,92.19,14.42,92.43,14.28z M24.36,13.72c0.18-0.33,0.28-0.48,0.35-0.64
	c0.08-0.18,0.09-0.4-0.2-0.4c-0.15,0-0.41,0.18-0.43,0.3C24.06,13.16,24.21,13.36,24.36,13.72z M20.85,103.23
	c0.39,0.15,0.57,0.25,0.76,0.27c0.05,0.01,0.19-0.24,0.18-0.37c0-0.09-0.21-0.25-0.29-0.24C21.33,102.93,21.19,103.05,20.85,103.23z
	 M57.1,105.36c0.02,0.02,0.05,0.08,0.08,0.08c0.19,0.01,0.39,0.01,0.58,0.01c0.01,0,0.02-0.06,0.03-0.09
	c-0.19-0.03-0.39-0.07-0.58-0.1C57.18,105.26,57.13,105.33,57.1,105.36z M9.62,80.9c0.05-0.01,0.1-0.02,0.14-0.03
	c-0.02-0.04-0.03-0.08-0.05-0.12c-0.06,0.02-0.12,0.04-0.18,0.06C9.56,80.85,9.59,80.88,9.62,80.9z M3.61,76.33
	c-0.05-0.09-0.1-0.17-0.15-0.26c-0.07,0.08-0.19,0.15-0.2,0.23c-0.01,0.08,0.09,0.17,0.14,0.25C3.48,76.48,3.54,76.41,3.61,76.33z
	 M3.58,73.67c0.14,0.17,0.22,0.27,0.3,0.37c0.09-0.1,0.25-0.19,0.27-0.3c0.02-0.11-0.09-0.25-0.15-0.37
	C3.87,73.45,3.74,73.54,3.58,73.67z M41.41,70.49c-0.07,0.07-0.14,0.13-0.21,0.19c0.05,0.02,0.1,0.07,0.15,0.07
	c0.09-0.02,0.17-0.06,0.25-0.09C41.53,70.6,41.47,70.54,41.41,70.49z M92.82,37.71c-0.03-0.04-0.07-0.1-0.11-0.11
	c-0.2-0.01-0.41,0-0.62,0.01c-0.01,0-0.01,0.08-0.01,0.08c0.2,0.03,0.4,0.07,0.61,0.09C92.74,37.79,92.79,37.74,92.82,37.71z
	 M62.42,66.01c0.05,0,0.1,0.01,0.15,0.01c0.01-0.16,0.02-0.32,0.02-0.48c-0.04,0-0.07-0.01-0.11-0.01
	C62.46,65.69,62.44,65.85,62.42,66.01z M2.69,57.88C2.68,57.92,2.67,57.96,2.65,58c0.16,0.03,0.32,0.07,0.48,0.08
	c0.04,0.01,0.1-0.05,0.15-0.07C3.08,57.97,2.89,57.92,2.69,57.88z M39.56,44.08c-0.51-0.14-0.71-0.23-0.9-0.23
	c-0.13,0-0.37,0.14-0.37,0.21c0.01,0.23,0.22,0.29,0.47,0.23C38.91,44.27,39.06,44.22,39.56,44.08z M82.06,52.23
	c-0.01-0.03-0.01-0.07-0.03-0.07c-0.11-0.02-0.22-0.03-0.33-0.04c0.01,0.04,0.01,0.12,0.02,0.12
	C81.84,52.24,81.95,52.23,82.06,52.23z M30,2.63c0.05-0.02,0.15-0.06,0.15-0.06c-0.03-0.09-0.08-0.18-0.13-0.26
	c-0.07,0.05-0.14,0.1-0.21,0.15C29.87,2.5,29.94,2.57,30,2.63z M91.14,7.89c-0.15-0.12-0.26-0.2-0.37-0.29
	c-0.1,0.1-0.27,0.2-0.27,0.29c0,0.11,0.16,0.22,0.26,0.34C90.87,8.14,90.97,8.04,91.14,7.89z M39.63,68.99
	c-0.19-0.09-0.33-0.16-0.46-0.22c-0.08,0.13-0.16,0.26-0.24,0.39c0.12,0.04,0.27,0.13,0.37,0.11C39.42,69.24,39.5,69.11,39.63,68.99
	z M3.32,85.45c0.14-0.28,0.09-0.59-0.29-0.75c-0.25-0.1-0.38,0.22-0.32,0.81c0.03,0.28,0.05,0.57,0.08,0.9
	c0.35-0.01,0.63-0.01,0.83-0.01C3.96,85.94,3.12,85.86,3.32,85.45z M2.49,54.19c-0.53-0.09-0.97-0.21-1.17,0.19
	c-0.15,0.31,0.09,0.56,0.62,0.65C2.1,54.8,2.27,54.53,2.49,54.19z M98.68,109.32c0.01,0.27-0.28,0.53,0.04,0.88
	c0.57-0.16,0.83-0.52,0.99-1.12c-0.37,0-0.62,0-0.88,0.01C98.79,109.17,98.74,109.25,98.68,109.32z M6.92,96.17
	c-0.28-0.39-0.65-0.34-1.21-0.2c0.44,0.17,0.73,0.28,1.02,0.39C6.8,96.3,6.86,96.24,6.92,96.17z M6.09,93.76
	c-0.11,0.01-0.31,0.38-0.24,0.46c0.22,0.27,0.55,0.31,0.86,0.07C6.69,93.96,6.48,93.74,6.09,93.76z M98.33,53.05
	c-0.06,0.32,0.22,0.42,0.48,0.45c0.17,0.02,0.39-0.08,0.53-0.19c0.05-0.04-0.03-0.26-0.12-0.36c-0.09-0.11-0.26-0.17-0.4-0.25
	C98.66,52.82,98.49,52.93,98.33,53.05z M99.58,53.84c-0.19-0.02-0.38-0.05-0.57-0.07c0,0.07-0.01,0.2,0,0.2
	c0.18,0.02,0.37,0.03,0.55,0.04C99.57,53.95,99.57,53.9,99.58,53.84z M0.72,54.03C0.66,54.23,0.77,54.4,1,54.46
	c0.08,0.02,0.28-0.09,0.28-0.1c-0.06-0.17-0.15-0.33-0.24-0.49C0.9,53.94,0.74,53.97,0.72,54.03z M92.01,6.6
	c0,0,0.04-0.01,0.04-0.01l-0.06-0.02C91.98,6.57,92.01,6.6,92.01,6.6z M7.49,9.34C7.32,9.36,7.12,9.33,7,9.4
	C6.91,9.45,6.88,9.63,6.89,9.75c0,0.05,0.15,0.14,0.25,0.15C7.45,9.95,7.7,9.88,7.72,9.55C7.64,9.48,7.56,9.41,7.49,9.34z
	 M7.72,9.55c0-0.15,0-0.3,0-0.45C7.65,9.18,7.57,9.26,7.49,9.34C7.56,9.41,7.64,9.48,7.72,9.55z M96.2,90.01
	c-0.12,0.09-0.25,0.17-0.35,0.28c-0.02,0.03,0.08,0.13,0.13,0.21c0.13-0.08,0.26-0.16,0.39-0.24C96.29,90.15,96.24,90.08,96.2,90.01
	z M96.24,76.25c-1.09,0.03-0.99-0.43-0.96-0.87c0-0.07-0.11-0.17-0.19-0.23c-0.08-0.05-0.2-0.11-0.28-0.1
	c-0.09,0.01-0.24,0.13-0.23,0.16c0.12,0.36-0.05,0.61-0.26,0.92c-0.13,0.19,0.02,0.52,0.04,0.81c0.27-0.02,0.45-0.01,0.6-0.05
	c0.31-0.09,0.61-0.21,0.91-0.31C96,76.47,96.12,76.36,96.24,76.25z"/>
</svg>
