<svg xmlns="http://www.w3.org/2000/svg" width="149" height="83.133" viewBox="0 0 149 83.133">
  <g id="Сгруппировать_4604" data-name="Сгруппировать 4604" transform="translate(-4856.376 6742.6)">
    <g id="Сгруппировать_1332" data-name="Сгруппировать 1332">
      <path id="Контур_1991" data-name="Контур 1991" d="M4900.114-6727.465a40.123,40.123,0,0,1,8.057-6.2c-.006.065-.014.134-.019.2a9.426,9.426,0,0,0,.943,4.508,28.042,28.042,0,0,0-7.584,1.162,25.177,25.177,0,0,0-4.628,1.892,26.419,26.419,0,0,0-10.239.011l-1.1-.254c-9.913-2.289-14.181,1.331-14.823,7.3-.018.174-.035.348-.045.526a17.614,17.614,0,0,0-5.26,7.666,6.429,6.429,0,0,0-.943.786c-1.757,1.792-2.5,4.6-1.615,8.6a57.376,57.376,0,0,0-5.85-.365h-.637v.936c0,9.608,4.44,13.088,9.656,13.926a18.42,18.42,0,0,0,3.566.2,34.876,34.876,0,0,0,3.416,4.54c-1.275,1.943-.945,3.763,1.453,5.34,2.592,1.705,8.243,2.957,17.85,3.48a19.231,19.231,0,0,0,5.9,9.989c.112.1.228.2.345.289a10.507,10.507,0,0,0,3.985,2.575,11.246,11.246,0,0,0,2.512.586,12.4,12.4,0,0,0,5.923-.1,7.937,7.937,0,0,0,3.413-1.912c.62-.324,1.238-.685,1.846-1.079a4.683,4.683,0,0,0,3.343-2.589,29.733,29.733,0,0,0,5.541-6.866l-.408-1.452a29.093,29.093,0,0,1-4.537,5.859c.006-.062.009-.123.011-.189a12.677,12.677,0,0,0-.242-2.986,15.3,15.3,0,0,0,3.309-2.064c.226-.093.45-.2.673-.309a12.08,12.08,0,0,0,2.564-1.749l.109-.015a8.508,8.508,0,0,0,4.161.324c4.759,6.274,11.671,6.769,18.384,3.95a30.179,30.179,0,0,0,5.874-3.335c4.361.236,8.043.312,10.679.243,14.854-.388,23.222-1.984,26.761-4.3,3.124-2.042,3.261-4.437,1.153-6.986a11.3,11.3,0,0,0,3.719-4.351l.015-.032,0,0a12.92,12.92,0,0,0,1.275-4.208,17.918,17.918,0,0,0,3.064-2.362,11.76,11.76,0,0,0,3.535-5.878,4.864,4.864,0,0,0-1.737-5.252c-2.087-1.473-6.181-1.6-12.594.943-3.677-9.616-10.4-11.85-16.407-10.7a8.981,8.981,0,0,0-4.094-1,26.5,26.5,0,0,0-3.935-.873c-2.648-.405-5.063-.683-7.258-.848.115-9.091-5.11-15.166-12.037-18.736-.2-.1-.406-.205-.614-.307a22.866,22.866,0,0,0-7.075-2.721,31.793,31.793,0,0,0-4.459-.619,36.6,36.6,0,0,0-10.517.11,18.292,18.292,0,0,0-6.06,2.024q-1.652.513-3.277,1.139c-2.931.416-4.854,1.381-5.935,2.738a42.2,42.2,0,0,0-9.839,7.263l.723,1.536Zm-6.878,54.3,1.032.046a24.975,24.975,0,0,0,.713,3.586q.119.424.249.831a19.253,19.253,0,0,1-1.994-4.463Zm1.794.074q1.063.043,2.184.07l.058,0a18.512,18.512,0,0,0,11.563,9.438,22.6,22.6,0,0,0,3.779.821,15.129,15.129,0,0,1-7.541,1.216c-.1-.022-.2-.046-.3-.07a15.039,15.039,0,0,1-5.976-2.991,13.627,13.627,0,0,1-3.227-5.932,21.528,21.528,0,0,1-.54-2.555Zm3.474.09c.951.007,2.016-.007,3.18-.038a32.225,32.225,0,0,0,2.923,1.4,23.45,23.45,0,0,0,8.211,1.912,17.769,17.769,0,0,1,2.966,2.84,4.846,4.846,0,0,1-.8,2.527,19.057,19.057,0,0,1-6.069-.979A17.957,17.957,0,0,1,4898.5-6673Zm16.4,3.219a15.387,15.387,0,0,0,4.329-1.006,9.545,9.545,0,0,1,.245,2.472,5.071,5.071,0,0,1-.215,1.267,25.161,25.161,0,0,1-3.12,2.416,8.308,8.308,0,0,0,.351-2.9l-.022-.469-.171-.216a17.765,17.765,0,0,0-1.4-1.562Zm17.345-5.467.056-.017.617.24c2.848,1.1,4.87.752,6.214-.6,4.8.536,9.381.93,13.469,1.193a27.293,27.293,0,0,1-3.752,1.941c-6,2.517-12.162,2.255-16.6-2.753Zm8.679-4.121a17.3,17.3,0,0,0,.344-2.559c.01-.165.019-.33.024-.5.17-.254.334-.514.492-.776q.727-.274,1.443-.592c2.116.1,4.045.125,5.8.078a13.735,13.735,0,0,0,1.93.538q-1.3,1.088-2.544,1.946c-2.241.635-4.6,1.221-7.02,1.759l-.471.1Zm2.118-6.3c.046-.108.089-.215.133-.323l1.1-.341c-.294.171-.594.341-.9.5l-.336.159Zm1.193-3.893.021-.117a4.708,4.708,0,0,0,.53-.74,8.28,8.28,0,0,0,.981-3.04q.779,1.581,1.827,3.333c.13.323.264.635.4.937-.979.336-1.955.66-2.913.968a8.121,8.121,0,0,1-.845-1.341Zm2.321-8.844c.314.047.61.082.881.109a5.865,5.865,0,0,1-.362.719c-.09.153-.189.308-.293.464q-.13-.657-.226-1.292Zm2.288.2.146,0h.251a25.828,25.828,0,0,1,.047,3.343q-.777-.532-1.51-1.082c.095-.14.182-.283.264-.423a7.7,7.7,0,0,0,.8-1.84Zm-10.318-20.872a10.122,10.122,0,0,0-2.188-2.273,24.847,24.847,0,0,0,3.924-2.4l.259-.2.032-.423a4.907,4.907,0,0,0,0-.776c1.347.117,2.678.194,3.977.229l.2.106a3.055,3.055,0,0,1,.325,1.147,6.975,6.975,0,0,1-1.024,3.685,22.271,22.271,0,0,0-5.507.9Zm-3.962-3.113a4.066,4.066,0,0,0-2.762.345l-.113.059a60.562,60.562,0,0,0-7.713-3.323l-.024-.026a45.846,45.846,0,0,1,5.164-1.224q.932-.165,1.8-.3c.594.139,1.194.269,1.8.389,2.234.451,4.5.791,6.732,1.019.016.1.026.2.033.293a26.3,26.3,0,0,1-4.915,2.769Zm-12.027-4.125c-.118-.088-.234-.172-.352-.254a8.763,8.763,0,0,0-5-1.815,31.888,31.888,0,0,1,4.629-1.173,51.268,51.268,0,0,0,5.471,1.945,42.892,42.892,0,0,0-4.743,1.3Zm-12.108,3.231q-.431.834-.829,1.823l-.723-.187c.03-.07.063-.139.1-.206a11.864,11.864,0,0,1,.721-1.325c.243-.037.488-.073.736-.1Zm-2.7,1.353-.585-.137c.219-.275.45-.542.689-.8l.331-.059-.079.166q-.189.405-.356.83Zm-2.006-.459-.063-.012.09-.022-.027.034Zm-6.817-1.246c-.543-.083-1.081-.159-1.605-.225l.456-.142c.389.11.774.231,1.149.367Zm-5.612-.664c-.319-.029-.633-.052-.935-.074-.284-.126-.575-.245-.873-.36a23.978,23.978,0,0,1,2.641.084c-.282.114-.561.231-.833.35Zm-15.945,1.309a10.242,10.242,0,0,0-4.645,2.567,6.173,6.173,0,0,0-.521.65l-.045.033c.8-3.769,3.891-6.072,10.262-5.3q-1.34.428-2.642.958c-.818.332-1.624.7-2.409,1.088Zm-6.118,10.317c-.075.124-.149.251-.221.384a11.6,11.6,0,0,0-3.775.544,16.6,16.6,0,0,1,3.445-4.606,23.272,23.272,0,0,0,.551,3.678Zm-1.043,2.249c-.083.234-.158.472-.227.719l-.009.029v.005a19.852,19.852,0,0,0-.583,2.675,6.916,6.916,0,0,0-3.21-.066,9.016,9.016,0,0,1,.2-2.175v0c.015-.072.032-.142.049-.21a8.549,8.549,0,0,1,3.779-.979Zm-1.382,5.2a13.006,13.006,0,0,0-1.3,1.766c-.1.156-.191.315-.282.475a10.194,10.194,0,0,1-.829-2.263,5.523,5.523,0,0,1,2.411.022Zm-3.063,6.032q-.133.578-.209,1.143c-.164-.426-.31-.843-.435-1.249.215.033.427.068.644.106Zm4.755,6.945a13.019,13.019,0,0,0,3.088-1.578,30.119,30.119,0,0,0,1.285,4.283,17.71,17.71,0,0,1-4.535-1.738,4.722,4.722,0,0,1,.162-.967Zm5.614,5.262a10.784,10.784,0,0,0,.807,1.168c-.42.286-.816.567-1.186.85a20.447,20.447,0,0,1-2.147-1.639,5.526,5.526,0,0,0,2.526-.379Zm1.834,2.242a4.935,4.935,0,0,0,5.515.8l.081-.035a4.83,4.83,0,0,0,.844.759,9.142,9.142,0,0,1-7.3-.943q.409-.285.862-.578Zm8.48,2.531q.3.1.629.194c-.388.042-.773.075-1.155.1.175-.093.351-.193.526-.3Zm5.011,1.117v.382a13.873,13.873,0,0,1-4.151,2.047c-3.511,1.01-7.336.335-11.136-2.792,4.1,1.583,9.578,1.529,15.287.363Zm.066,2.4a29.7,29.7,0,0,0,.453,3.668c-9.206-.523-14.6-1.716-17.05-3.325a1.971,1.971,0,0,1-.869-2.807c4.554,4.506,9.231,5.558,13.493,4.328a14.608,14.608,0,0,0,3.973-1.864Zm21.246,6.876a22.434,22.434,0,0,0-2.949-1.828c1.461-.1,2.988-.23,4.562-.371a9.84,9.84,0,0,0,3.947,1.39,15.248,15.248,0,0,1-5.56.809Zm-6.185-3.22-.209-.071a24.488,24.488,0,0,0-6.585-1.276,40.482,40.482,0,0,1-3.648-2.659,19.478,19.478,0,0,1-.339-2.012,7.359,7.359,0,0,0,4.956-2.328c.281.094.565.185.852.277a18.178,18.178,0,0,0,2.1.676,33.973,33.973,0,0,0,8.557,6.756c.076.075.154.149.232.222-2.085.174-4.07.311-5.914.415Zm-13.76.057a26.152,26.152,0,0,1-.582-4.212c.227-.165.451-.339.676-.518.916.873,1.863,1.7,2.832,2.483.092.343.2.685.305,1.025a12.782,12.782,0,0,0-1.61.358l-.382.114.063.812c-.443-.019-.876-.04-1.3-.062Zm1.513-5.981c.25,0,.492-.013.725-.028.041.387.088.775.146,1.162-.36-.31-.714-.628-1.064-.95l.193-.184Zm11.778,7.547.166.057a24.509,24.509,0,0,1,2.417.963,25.468,25.468,0,0,1-3.11-.99l.527-.03Zm-13.793-10.6c.047-.549.107-1.106.178-1.675a12.037,12.037,0,0,0,2.51.525c-.023.286-.037.57-.05.857a20.828,20.828,0,0,1-2.638.293Zm2.826-3.789c.078-.054.153-.11.23-.168l-.02.1-.018.092-.192-.024Zm-3.367,1.866c-.08.662-.146,1.3-.2,1.94-.205,0-.413,0-.614-.012-.4-.446-.79-.906-1.17-1.367l.1-.133c.225-.306.435-.61.632-.914l.09,0c.388.181.774.341,1.161.488Zm-6.223.65a11.653,11.653,0,0,0,1.345-1.38q.442.624.9,1.235a9.72,9.72,0,0,1-.805.738,11.487,11.487,0,0,1-1.443-.593ZM4893-6688.3a12.292,12.292,0,0,1,.62-1.806,6.51,6.51,0,0,0,2.231.057A6.465,6.465,0,0,1,4893-6688.3Zm8.078-2.787a12.342,12.342,0,0,1,.373,1.523c.027.148.047.3.066.444-.24.221-.483.42-.728.607q-.252-.393-.493-.81l.032-.07q.4-.832.75-1.694Zm-1.6.2c-.133-.283-.263-.573-.386-.872l1.194-1.061c-.25.654-.52,1.3-.808,1.933Zm5.563-.139q.107,1.182.264,2.319a14.149,14.149,0,0,1-2.715.885,15.57,15.57,0,0,0,2.4-3.239l.047.035Zm.763,5.076q.3,1.357.7,2.589l-1.044-.289c-.4-.272-.8-.56-1.2-.86-.17-.146-.341-.3-.508-.45.7-.319,1.383-.649,2.057-.99Zm-3.623-3.842c-.021-.155-.047-.311-.074-.467a14.589,14.589,0,0,0-.535-2.112l.075-.2c.678.257,1.366.506,2.055.752a14.051,14.051,0,0,1-1.521,2.024Zm3.658-.649.356.283c.039.319.082.631.126.94-.1.057-.2.112-.3.166-.068-.457-.126-.919-.179-1.389Zm.975,3.968a31.538,31.538,0,0,0,.919,3.358l-.182-.019a22.179,22.179,0,0,1-1.009-3.194l.272-.145Zm4.356-5.353c.364.073.726.148,1.089.217-.218.162-.44.323-.666.485l-.454-.141c0-.164-.009-.327-.009-.49l.04-.071Zm3.691.645c1.052.145,2.08.251,3.076.317q.531.624,1.071,1.31.256.325.476.637c-.932-.231-2.012-.515-3.2-.842a14.45,14.45,0,0,1-1.5-1.247l.076-.175Zm4.966,5c.043.3.087.593.137.881a49.093,49.093,0,0,1-6.656-2.712c.113-.205.221-.4.326-.6,1.052.306,2.055.59,2.985.842a16.512,16.512,0,0,0,3.208,1.592Zm.524,2.9-.026.037q-2.049.194-3.866.286a19.85,19.85,0,0,1-2.653-1.474c-.3-.2-.58-.392-.852-.584q-.435-.567-.885-1.118l.127.023.188-.312.042-.064a50.132,50.132,0,0,0,7.925,3.206Zm-3.437,2.186c-.126.037-.257.068-.386.1l-.9-.185-.087-.143c.251-.011.509-.021.769-.031.2.088.4.175.606.259Zm-25.422-11.514a9.5,9.5,0,0,1-1.448-.867c.5-.277,1.007-.534,1.506-.765a10.305,10.305,0,0,1-.058,1.632Zm1.1,2.641c-.139.442-.264.917-.378,1.421l-.372-.189c.163-.381.3-.764.428-1.146l.322-.086Zm-2.041.534.068-.016-.018.045-.05-.029Zm22.015,5.915c.169.221.337.439.5.661-1.579.007-3.009-.048-4.3-.156a27.208,27.208,0,0,1-1.2-3.87q.507-.281,1-.568a14.827,14.827,0,0,0,3.994,3.933Zm3.768,5.679.175.317c-.583.07-1.188.121-1.819.155a5.907,5.907,0,0,1-2.983-.6c-.221-.261-.441-.536-.652-.826a16.915,16.915,0,0,0,5.279.959Zm1.028,1.967.072.152-.649.068c-.142-.026-.284-.055-.424-.086.342-.039.676-.083,1-.134Zm1.084.047-.094-.219a16.691,16.691,0,0,0,4.746-1.655,9.311,9.311,0,0,0,.977,1c.072.062.144.122.217.182-1.981.259-3.937.491-5.846.7Zm-.852-1.846-.1-.2a13.961,13.961,0,0,0,2.872-.493l.079.016a20.416,20.416,0,0,1-2.852.674Zm2.922-3.9.078-.1.289-.028.086.23c-.152-.031-.3-.066-.453-.1Zm-24.832-3.048.021-.3.213,0-.234.3Zm.408-2.88c.066-.3.139-.6.217-.889a5.912,5.912,0,0,0,.244.925c-.152-.011-.307-.023-.461-.036Zm6.907-9.762c.139-.06.281-.117.425-.169l-.481.418.056-.249Zm10.5,2.14q.6.449,1.213.978c-.067.234-.142.47-.226.715-.189.172-.384.34-.583.51l-.82-.149-.046-.079a3.65,3.65,0,0,1-.476-1.176,4.767,4.767,0,0,0,.938-.8Zm2.5,2.168c.134.132.265.265.4.4-.238-.029-.476-.06-.717-.093.109-.1.213-.206.319-.309Zm2.32.586c-.468-.553-.932-1.069-1.393-1.555a6.224,6.224,0,0,0,.458-.566c.094-.126.2-.277.509-.63l.468-.542a20.913,20.913,0,0,0,1.145,3.305v.05q-.585-.022-1.187-.062Zm-4.172-9.866v0a18.431,18.431,0,0,1,2.1-2.564q.737.411,1.466.776a10.476,10.476,0,0,1-1.949,3.169c-.135.019-.269.038-.4.054a5.644,5.644,0,0,0-.354-.525,5.368,5.368,0,0,0-.863-.907Zm-.578-1.448-.092-.2.556-.426c-.158.206-.312.413-.464.626Zm-.747-1.5a17.441,17.441,0,0,0-1.74-2.638l.371.015q1.3.913,2.575,1.7-.6.456-1.206.919Zm-4.828-5.112-.165-.065.087-.252.078.08,0,.046,0,.191Zm10.038,4.453v0l-.425-.218c.122-.1.243-.2.366-.3a3.5,3.5,0,0,1,.059.517Zm.132,9.36.023.106-.522-.156c-.495-.149-.956-.266-1.386-.358,0-.143.006-.281,0-.42a17.3,17.3,0,0,0,1.88.828Zm-8.652-2.626c-.4-.135-.781-.246-1.163-.336a3.439,3.439,0,0,0,.132-.44l.183-.154a10.258,10.258,0,0,0,2.5.745,6.607,6.607,0,0,1-1.653.185Zm-2.86-1.085c.02-.35.041-.7.064-1.059.132.106.264.213.4.314l-.1.439-.366.306Zm.306-3.833c.03-.288.063-.579.1-.875l.02-.176c.248.082.488.171.726.266q-.05.372-.1.754c-.245.005-.492.016-.739.031Zm.292-2.569.137-1.168c.146.159.287.319.426.483l.2.232c-.013.232-.03.466-.048.7-.231-.089-.468-.173-.71-.25Zm2.4-.8a12.316,12.316,0,0,1,2.312,2.882l-.5.39a17.287,17.287,0,0,0-1.813-3.272Zm3.009,4.144.056.111-.124-.057.068-.054Zm1.043,2.478,0,.007-.254-.219c.086.067.171.137.252.212Zm-7.8,1.1-.154.008c.06-.767.138-1.527.231-2.284l.056.059c-.056.756-.1,1.492-.133,2.217Zm-3.962,1.154a10.068,10.068,0,0,0-1.529,1.082c0-.153,0-.308,0-.47a7.5,7.5,0,0,0,.918-.39l.628-.315-.017.093Zm-.889-2.24c-.034-.075-.074-.155-.123-.254.464-.192.955-.374,1.463-.532-.037.384-.084.768-.138,1.157-.4-.119-.8-.241-1.2-.371Zm-.863-1.554q-.209-.341-.43-.677l-.046-.2c.813.045,1.55.1,2.222.18-.609.21-1.2.446-1.746.7Zm-.559-2.411a12.673,12.673,0,0,1,.884-1.175q1.017-.024,2,.026.036.74.033,1.488-1.3-.22-2.917-.339Zm2.46-2.71c.091-.074.183-.143.277-.209l.025.221-.3-.012Zm4.168-.445c-.076.314-.146.631-.215.95-.493-.114-1-.208-1.518-.284-.031-.125-.065-.251-.1-.378l-.054-.234c.615-.025,1.242-.044,1.883-.054Zm-.509,2.437c-.052.28-.1.563-.145.846a9.364,9.364,0,0,1-.5-.98c.219.043.437.086.65.134Zm-.483,3.211q-.153,1.264-.248,2.552-.744-.163-1.514-.365c.085-.622.155-1.245.205-1.869.34-.085.686-.159,1.036-.226.172-.031.346-.062.521-.092Zm15.666,16.412a3.475,3.475,0,0,1,.047.838l-.117-.034c-.064-.285-.122-.576-.175-.877l.245.073Zm.765,1.043a7.127,7.127,0,0,0,0-.854,13.629,13.629,0,0,0,2.2.313c.113.4.235.789.364,1.17q-1.285-.27-2.56-.629Zm-.774-3.794a11.711,11.711,0,0,0-.65-1.22c-.014-.326-.025-.659-.03-1h.057a14.663,14.663,0,0,0,1.74,2.46c-.31-.06-.686-.141-1.117-.239Zm1.232,7.318q-.135-.266-.26-.55,1.082-.117,2.225-.261a14.8,14.8,0,0,1-1.49.884c-.159-.024-.318-.047-.475-.073Zm-25.142-21.014c-.009-.33-.014-.664-.014-1.006.253,0,.5,0,.746.009l-.026.076c-.129.368-.236.73-.321,1.082l-.385-.161Zm1.15-3.488c.1.309.188.611.276.907l0,0c-.226-.292-.457-.583-.7-.867l.422-.043Zm-1.8-2.587a13.736,13.736,0,0,1,1.072-1.694q2.349-.344,4.394-.53c.1.375.179.753.256,1.136l.025.127-.125.091q-2.052.189-3.877.512c-.089-.254-.183-.512-.276-.772l-.125-.342-.184.053a1.25,1.25,0,0,0-.7.743,3.655,3.655,0,0,0-.215.619l-.249.057Zm2.573-3.506c.265-.28.532-.542.8-.789.487.164.961.344,1.418.537q-1.073.11-2.222.252Zm4.912-1.009c.74.13,1.513.286,2.32.464-.551,0-1.125.024-1.718.049-.2-.124-.4-.248-.6-.368l0-.145Zm3.18,2.045-.027.187,0,.018c-.1-.021-.192-.039-.29-.052l-.175-.153Zm-2.778.377c-.1.033-.2.067-.3.1-.012-.109-.022-.215-.033-.322.113.072.222.145.331.217Zm-4.049,2.942-.043.051c-.168.006-.335.014-.5.019l.546-.07Zm-3.922,4.73,0,.174-.175-.082.075-.039.1-.053Zm2.056,11.679c.184.471.381.93.585,1.374h0c-.29-.366-.58-.742-.873-1.118l.291-.256Zm.6-8.318a1.316,1.316,0,0,1-.582-.187c.14-.108.287-.213.445-.317l.284.107a2.247,2.247,0,0,1-.147.4Zm-.757-2.385c.025-.083.054-.166.083-.252.064-.179.132-.361.209-.543a5.694,5.694,0,0,1,.451.938l-.146.088c-.2-.077-.4-.153-.6-.231Zm-9.354,7.219c-.106-.116-.205-.237-.3-.356l.464.094c.01.049.018.1.026.146l-.189.116Zm-1.627-.656a6.222,6.222,0,0,0,.661,1.306,19.787,19.787,0,0,0-1.727,1.372,14.306,14.306,0,0,1-1.062-1.059,2.53,2.53,0,0,0-.628-.384l-.4-.209q-.345-.741-.649-1.494a8.5,8.5,0,0,0,.794-.345c1.063.317,2.062.583,3.013.813Zm-3.379,4.189a7.485,7.485,0,0,1-3.489-1.631,8.717,8.717,0,0,1,.061-1.593c.279.171.55.335.814.489.844.969,1.719,1.885,2.614,2.735Zm-5.387-3.866-.075-.125.034,0,.041.122Zm3.617-.383.03-.01.012.032-.042-.022Zm4.1-2.209.021-.023.162.047-.183-.024Zm2.658,4.75.1.1a9.072,9.072,0,0,1-.4,1.3l-.594.237q-.365-.264-.707-.529c.509-.387,1.048-.757,1.6-1.1Zm.8.729c.068.054.138.106.207.163l-.267.1c.02-.086.04-.174.06-.262Zm-.521-5.145-.074-.127a4.526,4.526,0,0,0-.255-.375c.636.083,1.246.182,1.817.3l.183.3c-.529-.018-1.086-.054-1.671-.1Zm-1.423-2.536c-.068.1-.132.206-.192.311l-.346-.032c.012-.059.021-.119.03-.178l.508-.1Zm4.343-.635a7.145,7.145,0,0,1,4.011,1.732c-.014.045-.026.092-.039.138-1.3-.553-2.583-1.133-3.843-1.731l-.129-.139Zm3.247-.632a8.188,8.188,0,0,0-1.277-.66c.171-.077.343-.154.52-.238l.277.151c.155.246.314.5.48.747Zm-11.982,14.348a3.3,3.3,0,0,1,.237-.922c.2-.031.4-.064.6-.1.494.215,1,.41,1.517.584a8.94,8.94,0,0,1-1.478,1.139c-.077-.055-.152-.111-.227-.164-.228-.173-.444-.352-.651-.536Zm-.564,1.366a4.461,4.461,0,0,1-3.312-.178c.652-.373,1.349-.751,2.089-1.128a10.358,10.358,0,0,0,1.223,1.306Zm-4.664-1.094a7.705,7.705,0,0,1-.916-1.01,21.855,21.855,0,0,0,2.409.137c-.463.258-.9.515-1.327.772l-.166.1Zm-2.145-3.054a22.273,22.273,0,0,1-1.43-4.017c.188.119.378.236.574.356a5.735,5.735,0,0,0,1.923,2.663h0c-.083.259-.185.524-.307.805-.25.062-.5.13-.763.192Zm5.551-7.52c-.1.012-.192.028-.291.041v0l.057-.12.233.081Zm-7.077.9h.008l-.382.264-.065-.045c.143-.075.29-.149.439-.22Zm-.779-2.577c-.02-.4-.024-.772-.012-1.129a18.175,18.175,0,0,0,1.423,1.475c-.026.113-.051.223-.074.331l-.065.028a13.54,13.54,0,0,0-1.272-.705Zm.262-3.143c.043-.166.093-.324.146-.476.339.354.675.739,1,1.15-.292-.109-.579-.212-.862-.306-.1-.122-.193-.246-.285-.368Zm1.847-2.736c.108-.071.217-.139.328-.2-.028.224-.054.449-.076.674-.084-.158-.169-.315-.252-.473Zm-1.657-.159-.085.14a10.884,10.884,0,0,0-1.359-1.059,3.427,3.427,0,0,1,.179-.62c.157-.068.317-.129.479-.187q.372.864.786,1.726Zm-.764,1.718c-.022.065-.04.134-.061.2-.083-.152-.161-.3-.23-.457.1.082.192.165.291.254Zm-.437,2.763c-.018.386-.021.786-.009,1.209-.177-.075-.354-.149-.537-.223a7.249,7.249,0,0,1-1.224-1.435q.83.17,1.77.449Zm-2.565-2.183a8.073,8.073,0,0,1-.319-1.992c.115-.108.229-.211.349-.309.234.075.479.158.731.254.091.034.183.07.276.113.014.12.032.24.051.357a7.041,7.041,0,0,0,.663,1.92q-.932-.225-1.751-.343Zm4.333-4.377a8.593,8.593,0,0,1,1.844-.12l-.055.205a4.887,4.887,0,0,0-1.366.822c-.145-.3-.285-.606-.423-.907Zm-2.125,11.942c-.118.07-.235.135-.349.2.1-.08.19-.163.288-.241l.061.044Zm-2.693,1.151c-.089.021-.177.038-.264.054a3.39,3.39,0,0,0-.381-.779,1.9,1.9,0,0,0-2.369-.763q-.338-.639-.629-1.272a5.807,5.807,0,0,1,.044-.828,9.787,9.787,0,0,1,.355-1.648c.622.12,1.249.252,1.87.4a23.159,23.159,0,0,0,2.882,2.769c-.066.065-.134.131-.2.2a7.082,7.082,0,0,0-1.311,1.87Zm-1.458-8.845a12.567,12.567,0,0,1,.9-1.132,10.658,10.658,0,0,0,.154,1.164,10.331,10.331,0,0,0-1.056-.032Zm1.508,1.661a8.172,8.172,0,0,0,.412.937c-.447-.132-.9-.252-1.36-.366-.18-.221-.348-.437-.508-.657a10.824,10.824,0,0,1,1.456.086Zm2.669,3.668c.113.086.227.172.342.253l-.229.147c-.325-.24-.631-.485-.928-.729.278.1.55.216.815.329Zm4.35-7.9a5.848,5.848,0,0,1,1.313-.258,17.482,17.482,0,0,0-1.525,2.541l-.055-.1c.024-.47.069-.939.134-1.4q.056-.4.133-.788Zm3-.221.164.021c0,.513.028,1.034.067,1.554a26.349,26.349,0,0,0,.49,3.393,2.546,2.546,0,0,0-.294.9c-.14.059-.279.122-.42.189l-.115.017c-.369-.139-.748-.284-1.134-.435-.427-.623-.835-1.256-1.231-1.9a14.852,14.852,0,0,1,2.473-3.738Zm1.46.759q1.1.747,2.288,1.481a12.255,12.255,0,0,0-1.777,1.247c-.062.055-.123.109-.182.164a22.747,22.747,0,0,1-.29-2.281c-.014-.205-.027-.406-.039-.611Zm4.627,2.871.118.07a3.479,3.479,0,0,1,.194.353c-.538.107-1.081.222-1.638.353a12.216,12.216,0,0,1,1.326-.776Zm-2.819-4.588-.289-.1-.109-.073q-.456-.3-.9-.547l.048-.032c.423.237.842.49,1.25.753Zm-2.989-1.548a11.93,11.93,0,0,0-1.467-.5c-.171-.135-.342-.269-.506-.4l.032-.054c.654.253,1.308.533,1.953.841l-.012.112Zm-.864-2.455a6.729,6.729,0,0,1,1.652-1.357,18.681,18.681,0,0,0-.488,1.875c-.386-.182-.775-.358-1.164-.518Zm3.55-2.054a7.682,7.682,0,0,1,3.957.4q-.089.847-.1,1.728a10.609,10.609,0,0,0-4.585,1.3c-.148-.084-.295-.164-.444-.242a16.1,16.1,0,0,1,.972-3.127l.2-.06Zm5.211.919c.141.068.283.138.428.212a7.688,7.688,0,0,0-.483.878c.006-.369.025-.732.055-1.09Zm-.911,5.461c0,.111.008.217.014.318.006.127.017.248.03.364a26.005,26.005,0,0,0-3.49-2.683,10.033,10.033,0,0,1,3.062-.652,20.491,20.491,0,0,0,.384,2.653Zm3.063,3.828c-.107-.09-.214-.179-.323-.267l-.346-.512a19.345,19.345,0,0,1,2.821-.362c.137.1.276.194.416.289a26.042,26.042,0,0,1-2.568.852ZM4888.11-6708c.049-.169.107-.34.173-.514a12.892,12.892,0,0,1,1.306.178,2.507,2.507,0,0,0-.252,1.3,3.138,3.138,0,0,0,.5,1.392c-.4.127-.8.257-1.189.389a19.68,19.68,0,0,1-.535-2.741Zm1.008-2.02a6.319,6.319,0,0,1,.418-.5q.618.385,1.27.854l-.1-.027a13.551,13.551,0,0,0-1.583-.322Zm5.5,4.783c-.006.082-.01.164-.015.244l-.1-.221.118-.023Zm-19.662-6.372a16.64,16.64,0,0,1-1.349-1.635c2.219-1.649,5.229-1.88,8.471-1.1-.083.16-.163.323-.241.484q-1.088.352-2.209.78a25.332,25.332,0,0,0-3.674,1.719c-.333-.091-.668-.172-1-.248Zm20.47,6.224a2.491,2.491,0,0,1,.154.525h-.256c.007-.169.022-.34.044-.515l.058-.01Zm-19.356-3.21a8.828,8.828,0,0,0-1.43.123c.267-.213.562-.429.886-.639.178.171.357.343.544.516Zm-4.159,1.054a10.37,10.37,0,0,0-1.541,1.015l-.251-.076a15.72,15.72,0,0,1,.418-1.851h0l.007-.025a11.335,11.335,0,0,1,.659-1.754c.21.006.424.015.639.031q.275.891.609,1.8a6.476,6.476,0,0,0-.54.861Zm.69-4.793.116-.122c.109.171.226.341.348.514l-.371-.044c-.033-.117-.064-.234-.093-.348Zm10.371-3.552c-3.889-1.111-7.543-.849-10.11,1.437a3.964,3.964,0,0,1-.455-3.21,30.419,30.419,0,0,1,5.93-3.644,46.351,46.351,0,0,1,9.451-1.219c.677-.029,1.478-.029,2.381,0a20.932,20.932,0,0,0-7.2,6.639Zm13.05-6.167c.939.111,1.919.242,2.928.393-.508.27-.99.547-1.441.838a17.686,17.686,0,0,0-1.487-1.231Zm6.092.918q.6.111,1.216.227a13.262,13.262,0,0,1,1.038,1.013,16.022,16.022,0,0,0-1.168,3.294,10.782,10.782,0,0,0-1.841.9,18.494,18.494,0,0,0-2.625-3.875,21.485,21.485,0,0,1,3.38-1.561Zm3.942.8c.377.085.757.171,1.135.259-.091.348-.174.706-.243,1.071a14.123,14.123,0,0,0-.892-1.33Zm2.233.525.113.025-.146.088.033-.113Zm-2.448,2.6a10.381,10.381,0,0,0-1.315.212,14.129,14.129,0,0,1,.71-1.827,12.8,12.8,0,0,1,.8,1.247c-.07.121-.133.244-.192.368Zm-5.781,2.116a26.256,26.256,0,0,0-2.661-.058,24.836,24.836,0,0,0-3.035-.419c.058-.094.121-.188.182-.281a11.5,11.5,0,0,1,2.836-2.846,16.436,16.436,0,0,1,2.678,3.6Zm-8.679,1.326a8.311,8.311,0,0,0-1.569,1.076q-.67-.432-1.353-.819c1-.138,1.978-.221,2.922-.257Zm-5.687-1.133c-.415-.178-.826-.344-1.238-.5a19.77,19.77,0,0,1,5.978-5.279,16.918,16.918,0,0,0-2.149,3.432,16.97,16.97,0,0,0-.786,2c-.593.1-1.195.21-1.805.342Zm9.619,6.572c-.39-.378-.787-.748-1.192-1.106q.828-.193,1.868-.373a12.47,12.47,0,0,0-.676,1.479Zm-3.541-3.011q-.324-.242-.653-.473c.223-.136.459-.264.711-.386-.03.285-.049.57-.058.859Zm1.472-1.417a15.108,15.108,0,0,1,3.66-.617c.474.088.936.192,1.389.309-.439.5-.831.985-1.185,1.474l-.54.08a22.171,22.171,0,0,0-3.5.8,9.337,9.337,0,0,1,.173-2.043Zm10.832-2.362a10.029,10.029,0,0,1,1.377-.295,4.677,4.677,0,0,0,.14,1.126c-.548-.115-1.083-.219-1.6-.31.025-.175.052-.349.082-.521Zm2.662-.391h.243a15.837,15.837,0,0,1,.5,1.653l-.312-.075a2.874,2.874,0,0,1-.435-1.578Zm1.945.143.216.038q-.12.231-.239.473l-.054-.195.077-.316Zm1.5.334a21.45,21.45,0,0,1,8.758,5.445l-.006,0a47.377,47.377,0,0,0-6.743-3.023l-2.653-.712a11.938,11.938,0,0,1,.564-1.533l.08-.18Zm11.993,9.093.016.018-.022.01.006-.028Zm1.094,1.5.1.153q-.057.335-.107.672c-.4-.135-.806-.283-1.213-.437a11.218,11.218,0,0,1,1.216-.388Zm-.31,3.13-.044.415c-.635.115-1.271.236-1.908.357l.006-.036q.968-.335,1.946-.736Zm-.2,2.213c-.052.693-.086,1.392-.106,2.085a19.285,19.285,0,0,1-2.009-.35l-.052-.069c.047-.426.1-.858.158-1.3q.78-.163,1.571-.3l.438-.07Zm-.133,3.676,0,.343c-.127-.129-.255-.258-.379-.393.123.02.25.036.375.05Zm.076,2.644.026.4q-.984.09-2.042.093c-.107-.189-.212-.382-.312-.579l-.11-.22c.023-.685.065-1.4.119-2.136a23.02,23.02,0,0,0,2.319,2.446Zm-1.386-9.54.018-.087.1.04-.123.047Zm.252-6.363-.03-.036c.25-.136.5-.265.756-.394-.062.16-.123.322-.184.489l-.542-.059Zm-1.595-1.778a23.491,23.491,0,0,0-8.936-6.07l.054-.063a51.39,51.39,0,0,0,7.145-.108c.981.386,1.944.793,2.879,1.221.326.249.656.5.991.748.421.507.846,1.064,1.281,1.676a6.891,6.891,0,0,0-3.414,2.6Zm-7.159-7.663a5.893,5.893,0,0,1,.516-.293q.472.146.944.3c-.495,0-.98,0-1.46-.008Zm-3.3-.2.053-.161a13.072,13.072,0,0,1,1.549-.589l.115.033c-.216.268-.42.538-.615.811-.373-.027-.741-.058-1.1-.094Zm16.607,18.837q.59,1.25,1.056,2.513c-.542.051-1.072.082-1.6.092-.028-.885-.022-1.738.02-2.568l.519-.037Zm1.575,4.053q.229.749.409,1.49a9.653,9.653,0,0,1-2.191.957c-.106-.789-.188-1.56-.246-2.307q1-.023,2.028-.14Zm-4.345,1.046v-.032l.006.036-.006,0Zm5.4-.323q-.1-.414-.212-.834.8-.116,1.617-.29a6.322,6.322,0,0,1-1.342,1.405c-.021-.1-.042-.189-.063-.281Zm-.67-2.367q-.405-1.236-.926-2.465c.9-.035,1.773-.03,2.6.014.1.291.2.578.3.86.145.389.3.77.47,1.144q-1.25.292-2.451.447Zm-3.118-6.8c-.109-.182-.218-.363-.33-.545l0-.015c.144.093.288.189.43.287l-.052.247-.052.026Zm1.678.846c.229.173.455.345.673.518-.388-.079-.777-.168-1.171-.263.151-.076.3-.154.456-.234l.042-.021Zm1.735,10.4c.091.5.16,1,.211,1.5a14.146,14.146,0,0,1-1.7-.756,9.713,9.713,0,0,0,1.49-.739Zm.3,3.454a14.038,14.038,0,0,1-.113,1.606c-.2.07-.4.135-.593.192l-1.077-.173-.031-.158-.472-2.451a15.25,15.25,0,0,0,2.286.984Zm-3.91,1.287a9.419,9.419,0,0,1-.789-.525c-.158-.786-.283-1.595-.381-2.42l-.023-.2c.156-.023.313-.047.466-.074a29.907,29.907,0,0,0,1.07,3.27l-.343-.054Zm.548,3.95c-.188-.441-.357-.893-.516-1.36a12.367,12.367,0,0,0,1.418-.1l.008.015c.1.442.214.874.325,1.295l-.1.1-.792.112-.348-.062Zm5.294-1.138.044-.01.283.045c-.031.122-.06.245-.092.367l-.387.061c.052-.153.1-.306.152-.463Zm-3.648,4.1-.015-.018c.135-.184.265-.366.387-.556.05.148.1.3.157.44l-.061.116-.468.018Zm2.392-6.907c.027-.354.047-.711.054-1.07.224.062.447.119.67.171-.149.266-.3.525-.463.784l-.261.115Zm0-3c-.055-.734-.147-1.479-.277-2.23a7.179,7.179,0,0,0,1.987-2.284q.144.8.243,1.578l-.5,2.6c-.044.225-.091.449-.136.673-.439-.089-.876-.2-1.314-.332Zm1.988,3.659-.031.236-.15.034.053-.19.128-.08Zm-5.873,7.851.015-.014c.343.006.683.006,1.027,0l-.1.163-.938-.149Zm-.768-30.818-.117.405c-.128.462-.254.933-.371,1.408-.374-.046-.744-.093-1.113-.136a11.484,11.484,0,0,1,.672-1.295c.306-.132.617-.26.929-.382Zm-4.39-8.324a11.008,11.008,0,0,0-1.968-1.394l-.242-.215a39.623,39.623,0,0,1,8.039.623c-.345.076-.692.147-1.04.219-1.589.322-3.2.579-4.789.767Zm-9.372-2.39-.37-.1a16.062,16.062,0,0,1,1.276-2.257c.292-.033.587-.062.884-.091q.628.752,1.327,1.508-.163.132-.323.264a20.626,20.626,0,0,0-2.794.678Zm2.777-4.407c.088-.068.178-.137.269-.2.312.035.624.073.934.111-.406.029-.809.059-1.2.091Zm14.234,6.994.133.2a25.216,25.216,0,0,0-1.846,3.579,40.6,40.6,0,0,0-4.083-2.252l-.4-.306c1.164-.167,2.333-.366,3.491-.6q1.365-.278,2.706-.62Zm-1.838,9.671.225.411-.052.129-.407-.057c.076-.161.154-.325.234-.483Zm2.289,4.653c.123.284.242.568.357.849q-.351-.32-.729-.639l.372-.21Zm-1.645-.8-.252-.187c.228-.02.458-.036.69-.052l-.438.239Zm4.952,19.971.025-.118.374.053-.4.065Zm.883,1.466-.007.008-.071,0,.078-.011Zm-1.282,1.866-.04.049c-.174.031-.349.06-.524.09l-.061-.059.038-.094c.2.006.392.012.587.014Zm.786-5.71c.022-.186.041-.371.059-.558.289-.206.577-.424.865-.657a15.694,15.694,0,0,0,1.593-.042l-.058.233a14.593,14.593,0,0,1-2.459,1.024Zm1.335-5.708c.347.41.706.8,1.071,1.162a17.475,17.475,0,0,1-1.456,1.459c-.205,0-.416-.015-.623-.031q.555-1.261,1.008-2.59Zm-3.293-9.174c-.14-.4-.288-.806-.441-1.211q-.1-.677-.143-1.378c.217-.129.432-.26.649-.394.683.022,1.382.061,2.088.119.041.833.056,1.689.035,2.572q-1.083.139-2.176.293Zm-.493-5.539a16.239,16.239,0,0,1,.391-2.06l.28.15a18.034,18.034,0,0,1,1.5,1.669c-.235.155-.47.315-.707.471-.49-.077-.98-.156-1.469-.23Zm4.239,2.836c.067.253.134.51.2.766-.008.478-.026.96-.055,1.442l-.4.047c.016-.784.009-1.544-.019-2.288l.28.033Zm1.3,7.391c.035.438.063.869.083,1.3a30.971,30.971,0,0,1-.015,3.174,16.9,16.9,0,0,1-1.374-1.41q.252-.849.46-1.713.133-.557.251-1.12c.2-.075.4-.153.595-.234Zm-3.279-.5.061-.343-.078-.371a4.868,4.868,0,0,0-.226-.747c.164.023.322.049.476.078-.042.447-.093.9-.15,1.36l-.083.023Zm-4.239-10.026-.064-.128a18.183,18.183,0,0,1,1.271-2.28l.408.23a19.472,19.472,0,0,0-.4,2.356c-.406-.062-.808-.122-1.212-.178Zm-.782-1.514-.166-.309a13.648,13.648,0,0,1,.917-1.306l.113.066c-.306.5-.6,1.011-.864,1.549Zm1.86-7.624q.45.747.877,1.533c-.788.338-1.576.7-2.358,1.08a20.722,20.722,0,0,1,1.481-2.613Zm1.032-1.339.1-.116a15.984,15.984,0,0,1,1.514,2.265l-.372.148a23.2,23.2,0,0,0-1.247-2.3Zm4.595-2.06a5.591,5.591,0,0,1,2.864,1.793c-.988-.608-1.975-1.19-2.971-1.749l.107-.044Zm-1.04,2.945a4.421,4.421,0,0,0-.7.54q-.263-.511-.554-1,.633.223,1.258.46Zm2.649,21.222c-.022-.466-.05-.934-.088-1.4l.081-.034a3,3,0,0,1,.608.737c.441.766.32,1.842-.572,3.275q.031-1.274-.029-2.574Zm-.293-3.348c-.024-.2-.052-.394-.081-.592.374-.038.741-.088,1.106-.145.074.18.145.357.218.537-.3.145-.6.283-.893.416-.111-.073-.228-.146-.35-.216Zm-.349-3.786c.109.221.215.441.322.664l-.352.037c.012-.234.022-.467.03-.7Zm2.137,5c.069.191.139.383.206.575a57.56,57.56,0,0,1,1.693,5.624,7.327,7.327,0,0,1-.773,1.023c-.207.072-.42.142-.632.206-.113-.057-.227-.12-.341-.183a12.473,12.473,0,0,1-1.251-.821c1.753-2.455,1.936-4.458,1.032-6.025a2.624,2.624,0,0,0-.179-.282l.245-.117Zm-1.635-8.536c.009.126.018.252.029.382l-.579-.1c-.012-.173-.023-.345-.038-.516l.588.238Zm1.116-8.529a8.538,8.538,0,0,1,1.622,1.479,32.359,32.359,0,0,0-4.665.079c-.12-.359-.25-.713-.387-1.061a13.63,13.63,0,0,1,3.43-.5Zm-1.124,6.432,0,.084-.047-.038.051-.046Zm-2.385-1.592c-.226-.147-.451-.286-.673-.418-.09-.374-.184-.742-.287-1.106.185-.025.371-.047.556-.069.152.521.288,1.053.4,1.593Zm-2.988,32.026q.3-.3.577-.611.557.457,1.145.851c-.572-.079-1.147-.156-1.722-.24Zm3.33-4.785.075-.162.191-.03c.583-.095,1.645-.332,3.035-.69q.766.08,1.509.148a27.578,27.578,0,0,1-4.81.734Zm1.136-3,.076-.261c.408-.221.822-.464,1.244-.734a12.969,12.969,0,0,0,2.069-1.627,7.744,7.744,0,0,0,1.838.592q.133.827.227,1.624c-.936.267-1.81.508-2.6.72q-1.38-.138-2.851-.314Zm4.885,3.975a18.423,18.423,0,0,1-3.83,3.536c-.209.141-.418.277-.629.408a11.857,11.857,0,0,1-3.038-1.573,39.213,39.213,0,0,0,7.5-2.371Zm-4.04-8.051.015-.123.128.1-.143.024Zm-15.637-16.671q.636.349,1.28.715c-.077.286-.155.579-.228.883a8.39,8.39,0,0,0-1.181.64c-.292-.13-.587-.267-.882-.407a5.889,5.889,0,0,0-.031-1.223c.083-.235.172-.466.27-.689l.772.081Zm.454,4.432c-.042.224-.079.451-.119.682-.436.145-.867.283-1.3.409a2.073,2.073,0,0,1,.194-.444,3.549,3.549,0,0,1,.717-.863l.5.216Zm-.621,4.146-.02.174-.089-.151.109-.023Zm-.267,2.569c-.04.47-.074.929-.1,1.381-.194-.511-.366-1.033-.515-1.561.2.063.41.123.617.18Zm1.91,5.154q.628-.039,1.232-.1c.02.2.043.4.066.6q.067.591.156,1.166a12,12,0,0,1-1.454-1.657Zm16.478-9.71.068.1-.025.012-.043-.112Zm.87,1.367a10.855,10.855,0,0,1,1.022,2.419,14.235,14.235,0,0,1-1.27-2.284l.248-.135Zm1.937,3.12a11.167,11.167,0,0,0-1.073-3.6c.334-.193.668-.393,1.006-.6l.168.1c.075.044.153.084.231.127l.128.148c.36.415.488.586.6.739a9.665,9.665,0,0,0,.983,1.142l.039.1a13.757,13.757,0,0,0-.663,2.893,5.725,5.725,0,0,1-1.235-.6c-.052-.033-.1-.068-.155-.107-.007-.113-.019-.226-.029-.339Zm-3.134-6.889q-.33-.425-.664-.82c-.042-.181-.085-.36-.123-.541l.4.078a7.322,7.322,0,0,0,.6,1.253l.006.011-.227.019Zm-1.144-3.476-.007-.052.079.065-.072-.013Zm6.942,10.613c.055.276.1.554.14.829a1.21,1.21,0,0,1-.3.092c.04-.306.093-.614.161-.921Zm-3.359,1.3a5.162,5.162,0,0,1-.271,1.162c-.2-.8-.417-1.611-.655-2.413a8.34,8.34,0,0,0,.926,1.251Zm.128,2.611a7.837,7.837,0,0,0,.546-2.02l.031.019a5.793,5.793,0,0,0,1.328.638c0,.1,0,.208.009.314a18.466,18.466,0,0,1-1.914,1.049Zm3.467-.034c-.021.243-.044.481-.074.72h0c-.009.065-.019.132-.03.2l-.024.024c-.067-.24-.128-.483-.176-.727.1-.072.2-.142.3-.215Zm-1.124,1.58a4.128,4.128,0,0,1-1.985.251,20.452,20.452,0,0,0,1.8-.967q.078.362.182.716Zm-3.276-13.441c.2.226.391.451.573.676l-.47.032a6.476,6.476,0,0,1-.782-.865c.227.05.454.1.679.157Zm5.141,11.6c.005-.1.009-.208.013-.311l.177-.145a4.036,4.036,0,0,1-.19.456Zm-.169-3.436c-.06-.4-.131-.789-.217-1.186l.262.241c.052.142.1.281.159.423a2.348,2.348,0,0,1-.189.493l-.015.029Zm-6.728-12.563a10.512,10.512,0,0,1,.274-1.4,15.186,15.186,0,0,1,2.226-.793c.031.116.061.23.094.347a11.817,11.817,0,0,0,1.431,3.038,35.515,35.515,0,0,1-4.025-1.189Zm-1.1-.409c.009-.119.016-.235.026-.35.144-.073.3-.149.461-.229-.041.247-.072.488-.1.727l-.392-.148Zm6.693,19.76c-.131.452-.279.9-.447,1.337-.576.173-1.141.341-1.686.5-.049-.437-.106-.881-.17-1.327a4.211,4.211,0,0,0,2.3-.512Zm-5.017,10.034a19.689,19.689,0,0,0,2.254-2.475,10.066,10.066,0,0,1-.481,2.11c-.588.124-1.177.247-1.773.365Zm6.021-27.736a7.289,7.289,0,0,0-.4-2.224,6.548,6.548,0,0,0-1.052-1.909,5.54,5.54,0,0,1,1.05.175l.169.048a21.12,21.12,0,0,1,1.766,2.247,6.65,6.65,0,0,0-1.016,1.063,6.826,6.826,0,0,0-.417.613l-.1-.013Zm2.811,6.428c-.23-.027-.471-.061-.721-.1l-.011-.111a2.739,2.739,0,0,1,.732.211Zm4.4-20.044.035.178c-.953.066-1.84.167-2.661.295a23.83,23.83,0,0,0-3.492-.31,8.149,8.149,0,0,0,.8-3.859c-.006-.055-.012-.112-.019-.169a35.365,35.365,0,0,1,5.334,3.865Zm2.489,1.931q1.794-.022,3.875.1c-.012.14-.026.28-.041.422a17.806,17.806,0,0,0-2.059.323q-.862-.462-1.775-.843Zm5.143.433.023-.245c1.711.129,3.564.328,5.564.607l-.251.057a24.836,24.836,0,0,0-5.336-.419Zm17.317,2.237c4.989-.332,10.189,2.031,13.229,9.6q-1.785.732-3.4,1.33c-.2-.031-.408-.06-.613-.088a4.5,4.5,0,0,0-1.831-2.932,22.046,22.046,0,0,0-5.8-3.259c-.009-.151-.023-.294-.039-.439a8.157,8.157,0,0,0-1.549-4.211Zm5.718,10.268c.1.1.2.194.3.292l-.186-.009c-.036-.093-.074-.19-.113-.283Zm2.246,3.255.145-.048.068.141a10.119,10.119,0,0,1,.926,5.539c-.282.026-.572.057-.87.09a9.128,9.128,0,0,0-.269-5.722Zm2.439,5.526a12.6,12.6,0,0,0-.978-6.043l.523-.192a25.494,25.494,0,0,1,4.48,1.1,6.05,6.05,0,0,1-1.257,5.02c-.411,0-1.422.022-2.768.116Zm3.33,1.6a7.5,7.5,0,0,0,2.068-6.2,11.185,11.185,0,0,1,3.471,2.317,5.646,5.646,0,0,1,1.647,3.621,21.52,21.52,0,0,1-7.372,2.413,21.248,21.248,0,0,0,.186-2.154Zm-.576,4.069a22.938,22.938,0,0,0,7.578-2.257,10.811,10.811,0,0,1-.826,2.295h0l-.012.027a10.063,10.063,0,0,1-3.858,4.207,25.239,25.239,0,0,0-3.464-2.609,12.05,12.05,0,0,0,.582-1.663Zm-1.405,3.176a24.948,24.948,0,0,1,2.705,1.928,21.3,21.3,0,0,1-7.846,1.6,8.509,8.509,0,0,0,5.141-3.526Zm-10.115,5.224c5.449.5,10.437-.055,14.146-2.022,1.489,1.71,1.561,3.227-.24,4.4-2.918,1.9-9.393,3.308-20.478,3.911a19.8,19.8,0,0,0,6.572-6.293Zm-16.131,6.526c-1.405-.021-2.956-.07-4.635-.143.623-.526,1.234-1.077,1.831-1.648a14.152,14.152,0,0,0,2.8,1.791Zm-96.45-17.423a4.919,4.919,0,0,0,.707,2.864,7,7,0,0,0,1.868,2.018,16.054,16.054,0,0,1-1.867-.185c-4.418-.712-8.208-3.533-8.5-11.125,1.124.027,3.254.123,5.719.421.045.14.091.278.138.418a5.674,5.674,0,0,0,.086,1.845,9.084,9.084,0,0,0,1.844,3.744Zm-.835-7.847a3.964,3.964,0,0,1,.56-3.155l.027-.031a12.7,12.7,0,0,0,.823,2.3,4.161,4.161,0,0,0-.942.5,4.288,4.288,0,0,0-.468.389Zm43.083-23.332a38.659,38.659,0,0,0-4.74,1.189,14.613,14.613,0,0,0-1.735-1.053c-.146-.075-.294-.151-.444-.221q1.6-.363,3.345-.651a35.428,35.428,0,0,1,4.916-.464c-.466.381-.915.781-1.342,1.2Zm5.982-4.138a27,27,0,0,0-3.067-.293,8.1,8.1,0,0,1-1.2-4.308,3.466,3.466,0,0,1,.382-1.339,49.438,49.438,0,0,1,5.539-2.553,5.5,5.5,0,0,0-.623,3.066l.038.5.3.228a29.051,29.051,0,0,0,4.131,2.563,19.276,19.276,0,0,0-5.5,2.139Zm8.6-2.652a31.909,31.909,0,0,1-6.305-3.461,3.9,3.9,0,0,1,1.418-2.673,55.544,55.544,0,0,1,10.774,1.035c9.876,1.755,16.3,5.354,19.911,9.6-1.089.039-2.214.041-3.363.016a8.358,8.358,0,0,0-4.543-1.809c-.919-.356-1.85-.681-2.786-.976a15.439,15.439,0,0,0-5.153-1.731,30.846,30.846,0,0,0-8.939-.094c-.342.024-.679.053-1.014.089Zm25.206,6.391c.658-.014,1.3-.041,1.938-.077a15.571,15.571,0,0,1,1.109,2.029c.045.1.091.208.135.311a36.723,36.723,0,0,0-3.182-2.263Zm5.128,3.935a16.188,16.188,0,0,0-1.02-3.016c-.17-.376-.355-.751-.557-1.122,1-.1,1.954-.222,2.859-.38l.681-.12-.13-.985a18.252,18.252,0,0,0-1.536-5.366c-.14-.3-.29-.59-.446-.876a17.27,17.27,0,0,1,5.435,12.857q-2.356-.133-4.358-.089c-.3-.305-.611-.608-.928-.9Zm-17.918-7.715q-1.4.1-3.01.316c-1.883-.417-3.733-.91-5.51-1.487a38.708,38.708,0,0,1,8.52,1.171Zm-23.317,3.6.012.015-.029,0,.017-.018Zm3.959,2.3c-.231-.242-.454-.48-.675-.717q.957-.069,1.965-.116c-.451.27-.879.548-1.29.833Zm4.539-.838a15.7,15.7,0,0,1,3.309.6,19.782,19.782,0,0,1,1.875,1.48,39.233,39.233,0,0,0-8.414-.369,26.527,26.527,0,0,1,3.23-1.707Zm-10.87,19.6.027-.191c.125.073.247.146.369.223-.132-.013-.264-.023-.4-.032Zm-.364,2.18c.04-.2.077-.409.112-.611.2.01.391.023.584.041l-.7.57Zm1.373.7c.28-.228.562-.457.844-.68l.015.018c.1.312.181.623.252.935a9.487,9.487,0,0,1-1.111-.273Zm14.165-.275.445.13-.01.089-.46.078.025-.3Zm-10.686,2.3.173.136-.643.151.02-.025c.054-.086.106-.174.151-.264.1,0,.2,0,.3,0Zm-8.937-4.832c-.236-.068-.483-.13-.743-.19.006-.529,0-1.059-.02-1.585a12.137,12.137,0,0,0,.763,1.775Zm30.332-6.148q-.2-1.149-.5-2.254a31.8,31.8,0,0,1,3.274-.08c-.877.791-1.806,1.572-2.776,2.334Zm-2.516-4.089c.054.137.11.28.163.42-.175.021-.352.046-.527.07l-.051-.143c.137-.118.274-.233.415-.347Zm9.632-2.8c-.056.054-.11.1-.166.152q-.719-.063-1.47-.112c.584-.077,1.167-.138,1.755-.186l-.119.146Zm2.411.451a11.511,11.511,0,0,1,1.65-.655,30.014,30.014,0,0,1,3.481.367q1.1.183,2.132.4c-.016.19-.035.374-.059.561a11.949,11.949,0,0,0-1.081.687,36.03,36.03,0,0,0-6.123-1.362Zm2.859,4.845q-2.352-1.8-4.739-3.478a41.048,41.048,0,0,1,6.582,1.176,11.947,11.947,0,0,0-1.843,2.3Zm-31.741,4.472c-.223-.13-.444-.261-.666-.4.366.028.732.054,1.1.083l-.434.315Zm.054-2q-1.761-.117-3.45-.183c-.564-.4-1.129-.8-1.7-1.229a14.185,14.185,0,0,1,5.147,1.412Zm8.579,12.324c-.064-.8-.093-1.6-.088-2.395l.41-.049q-.047,1.191,0,2.457c-.108,0-.212-.009-.317-.013Zm9.18-1.447c.023-.215.045-.431.066-.644l.2.056c-.03.177-.062.355-.094.53l-.168.058Zm-4.449,13.976.049-.061-.023.058-.025,0Zm4.239-12.272-.029.123.015-.118.014,0Zm-8.568,1.347c.051.673.121,1.366.21,2.073l-.1-.078c-.136-.663-.249-1.332-.34-2l.233.008Zm22.007-9.27h.316a3.118,3.118,0,0,0,.18.307l.019.029-.684-.158.169-.177Zm5.112-3.648-.26-.21.376-.031c-.041.081-.08.161-.116.241Zm1.2-2.13c-.517,0-1.028.027-1.53.075a12.149,12.149,0,0,1,2.283-1.107c-.267.335-.516.679-.753,1.032Zm-.366-2.455c-.095.039-.189.08-.281.122l.034-.1.036-.112.211.094Zm-1.463-.586a13.938,13.938,0,0,1-.734,1.793,10.136,10.136,0,0,0-1.4,1.174l-.615-.481a10.537,10.537,0,0,1,2.4-2.608l.345.122Zm-39.758,24.218.154-.106.993.3c-.075.133-.148.264-.226.4-.305-.158-.609-.322-.911-.488l-.01-.1Zm3.9-7.907-.016,0,.016-.006v.01Zm.927,1.75.219.046c-.073.086-.165.184-.283.311.025-.12.045-.239.064-.357Zm-9.252.108c.061-.169.12-.338.179-.513q1.582-.423,3.185-.828a17.818,17.818,0,0,1-3.364,1.341Zm-16.077-12.844a14.274,14.274,0,0,1,1.417.491c.045.177.094.356.144.531a13.732,13.732,0,0,0-1.536.808,1.954,1.954,0,0,1-.408-.983,1.073,1.073,0,0,1,.383-.847Zm17.478,10.393-.669.176.066-.224c.2.021.406.037.6.048Zm-15.166-7.262.039.1-.391.013-.116,0,.468-.112Zm-17.295,9.857.026.024a5.359,5.359,0,0,1,.72.865c-.231-.133-.461-.265-.684-.4-.027-.16-.049-.323-.062-.491Zm4.262,6.248.025-.091.038.091Zm12.8-4.167c.019-.295.026-.59.023-.882.169.229.342.461.518.692l-.541.19Zm4.56,4.5c.17.178.343.36.519.539l-.184.311c-.04-.078-.077-.154-.111-.228a4.038,4.038,0,0,1-.224-.622Zm2.259,2.9c.192-.012.379-.026.566-.042l-.4.152-.167-.11Zm-27.746-3.065-.248.031c-.175-.049-.347-.106-.523-.165-.1-.11-.2-.221-.29-.333.342.164.695.321,1.061.467Zm77.185-.97-.039-.081a2.249,2.249,0,0,0,.527-.5,3.517,3.517,0,0,0,.667-1.689c.012-.083.021-.163.03-.246l.421.265c.037.155.079.311.12.467a13.9,13.9,0,0,1-1.721,1.782l0,0Zm-1.647-4.45q.795.584,1.637,1.152c-.023.215-.051.436-.082.654a1.376,1.376,0,0,1-.258.657.886.886,0,0,1-.247.224c-.156-.259-.307-.513-.451-.765-.211-.6-.41-1.242-.6-1.922Zm-.092,7.9c.561-.388,1.079-.777,1.558-1.162a13.845,13.845,0,0,0,1.18,1.716c-.513.023-1.046.039-1.6.049a9.783,9.783,0,0,1-1.142-.6Zm6.048-7.38a6.17,6.17,0,0,0,.082-2.249q1.181-.339,2.272-.612a28.115,28.115,0,0,1-2.354,2.861Zm4.166-5.866a18.319,18.319,0,0,1-6.618-1.835l.015-.145c2.262.573,4.5,1.17,6.695,1.79l-.092.19Zm-6.7,1.288a6.9,6.9,0,0,1,.719.985l-.644.2c-.035-.4-.059-.79-.075-1.186Zm6.673,1.294c1.347-.3,2.612-.536,3.82-.732l.432.214c-.285.372-.55.754-.8,1.143a14.222,14.222,0,0,0-.95,1.785,39.947,39.947,0,0,1-4.772,2.414c-.316-.18-.636-.363-.958-.553a27.638,27.638,0,0,0,3.224-4.271Zm1.094-5.5c-.467-.4-.931-.805-1.4-1.205.543-.118,1.095-.249,1.65-.394a10.468,10.468,0,0,1-.25,1.6Zm.184-3.467c-1.145.312-2.265.573-3.332.776-.5-.421-.994-.838-1.492-1.254a19.454,19.454,0,0,1,4.537-.723,7.135,7.135,0,0,1,.287,1.2Zm-6.988.309c.116-.047.229-.1.344-.148l.216.179a4.174,4.174,0,0,0,.287.841c-.4.033-.78.055-1.143.062.086-.311.179-.623.279-.927l.017-.007Zm1.357,2.6c.2-.018.4-.037.594-.06l.147.168c-.242-.038-.489-.075-.741-.108Zm2.53-7.969c-.141.231-.29.45-.445.661-.288-.033-.577-.059-.868-.082.262-.323.541-.639.838-.942.164.119.323.241.475.363Zm-2.559,2.382.274.007a4.1,4.1,0,0,0-.4.407l-.172.111c.1-.177.191-.351.293-.525Zm8.5-.035c-.5-.217-1.026-.417-1.564-.6q.875-.1,1.884-.164l.1.212c.1.206.184.413.27.625-.233-.025-.463-.049-.692-.07Zm-.656-2.434a28.611,28.611,0,0,0-2.985.489c-.177-.226-.364-.447-.566-.663.169-.386.325-.79.469-1.216.607-.067,1.229-.114,1.859-.137a13.971,13.971,0,0,1,1.223,1.527Zm-1.284,3.93c.341,0,.687.015,1.036.034.293.111.579.228.855.346q-.855.282-1.706.533c-.047-.306-.108-.612-.185-.913Zm.286,2.783c.639-.186,1.282-.38,1.919-.592l.188-.063a4.685,4.685,0,0,0,1.085,2.024,16.166,16.166,0,0,1-.406,2.648c-.1.042-.208.087-.313.126-.563-.172-1.125-.342-1.7-.509l-.123-.036-.237-.135-.84-.732a12.529,12.529,0,0,0,.422-2.731Zm-7.368-10.126c.027-.132.053-.263.075-.4a13.739,13.739,0,0,1,2.208-.826q1.044.315,2,.672c.1.067.2.132.292.2l-.014.06c-.379.248-.741.509-1.09.781-.583.11-1.151.241-1.7.4a18.438,18.438,0,0,0-1.772-.886Zm.253,28.546c-.312.034-.63.06-.957.088a10.871,10.871,0,0,1-2.045-2.449l.1-.093q.816-.294,1.616-.6c.336.929.709,1.837,1.122,2.714.053.115.106.225.161.337Zm-.164,2.886c.269.025.54.041.819.054-.464.164-.932.323-1.408.483.2-.174.392-.356.589-.537Zm-4.026,3.224c2.306-.66,4.5-1.374,6.522-2.145a21.914,21.914,0,0,0,2.786,3.236,37.072,37.072,0,0,1-2.935,2.455c-3.485-.189-7.414-.483-11.59-.887a21.716,21.716,0,0,0,5.217-2.659Zm5.367-6.45c-.155-.3-.3-.6-.447-.9-.338-.721-.652-1.465-.936-2.224q.754-.294,1.48-.592,1.1.585,2.244,1.14-1.074,1.269-2.341,2.579Zm3.846-4.453c-.318-.161-.641-.324-.969-.494.737-.348,1.434-.7,2.083-1.056q-.521.765-1.114,1.55Zm6.032-17.607a8.61,8.61,0,0,1,.75-1.185l.719-.016q.437.5.815,1.023c-.334.145-.672.287-1.017.43-.427-.094-.851-.179-1.267-.252Zm-.332-2.954q-.628.037-1.219.085a14.774,14.774,0,0,0-.928-1.412l.358.006a18.96,18.96,0,0,1,1.789,1.321Zm.653,6.026a4.454,4.454,0,0,1,1.6,1.9.971.971,0,0,1,.048.2,5.75,5.75,0,0,1-1.587-.948q-.007-.584-.058-1.147Zm-.039,3.169a6.609,6.609,0,0,0,.783.452l-.089.069a9.551,9.551,0,0,1-.851.58c.065-.371.117-.739.157-1.1Zm3.513-.528c-.177-.038-.347-.077-.513-.119a3.765,3.765,0,0,0-.231-1.485,5.28,5.28,0,0,0-1.5-2.064l.178-.074c.685.165,1.388.36,2.1.583a13.861,13.861,0,0,1,.827,2.675c-.29.156-.576.317-.861.484Zm-6.34,8.866a7.291,7.291,0,0,0,2.164-2.208l1.177,1.038.683.6a4.574,4.574,0,0,1,.083.622,4.2,4.2,0,0,1-.389,2.184,6.747,6.747,0,0,1-2.589,2.794q-1.143-.421-2.34-.942a8.888,8.888,0,0,1,.253-2.478c.344-.543.665-1.078.958-1.61Zm4.567,3.7q.114-.21.21-.42a6.786,6.786,0,0,0,.594-3.5,4.692,4.692,0,0,0-.412-1.533c.451.171.908.334,1.369.493l.472.158a27.53,27.53,0,0,1-1.623,4.478l-.341.18-.269.141Zm2.843-8.115-.131-.045a4.292,4.292,0,0,1-.35-.376l.525-.062c-.014.161-.028.321-.044.483Zm.085-2.367-.545.065c.045-.049.092-.1.143-.152.131.021.266.04.4.056v.031Zm-11.256,12.267q.842.388,1.7.754c.022.089.046.18.069.268a24.291,24.291,0,0,1-3.4.877q.867-.959,1.633-1.9Zm-.436,3.529c.6-.136,1.15-.279,1.673-.434-.188.091-.381.182-.575.27q-.56.093-1.1.164Zm1.808,5.051a19.62,19.62,0,0,1-2.541-2.75,10.844,10.844,0,0,0,4.592-1.146c.17.272.357.542.554.812l.086.114a39.838,39.838,0,0,1-2.691,2.97Zm3.543-1.94c4.261,4.627,9.537,2.88,13.818-1.023l.072-.064.057.006c-4.244,5.534-8.7,6.945-12.68,5.788a11.9,11.9,0,0,1-3.749-1.9c.868-.894,1.7-1.832,2.482-2.8Zm-.025-2.079c-.06-.075-.12-.156-.178-.234s-.11-.152-.163-.229l.024-.014c.286-.082.572-.167.861-.256-.177.248-.359.492-.544.733Zm7.4-14.77c.008-.1.014-.207.021-.311,1.231-.162,2.488-.343,3.814-.577-.394.769-.819,1.534-1.267,2.293l-.1.165c-.827-.3-1.671-.6-2.528-.9.024-.226.044-.449.062-.672Zm-.665,3.97q.648.2,1.3.387c-.675.945-1.387,1.853-2.127,2.714l-.207.122a28.289,28.289,0,0,0,1.032-3.223Zm5.574-7.85c-1.081.083-2.079.119-2.994.117a23.865,23.865,0,0,1,2.468-.542c.189.143.366.283.526.425Zm-8.006,14.928-.26-.059c.827-.778,1.634-1.624,2.413-2.519.345-.2.708-.426,1.083-.664a12.245,12.245,0,0,0-.366,1.986l-.08.037c-.958.447-1.889.85-2.79,1.219Zm-1.773,2.329.359-.131a65.374,65.374,0,0,0,6.57,1.762c.869.184,1.734.348,2.591.485-3.615,2.788-7.772,3.756-11.187.279q.877-1.172,1.667-2.4Zm4.648-1.829-.14-.017.132-.062.008.079Zm-10.948-29c.022-.126.043-.249.061-.375q.708-.033,1.426-.016-.621.24-1.2.52l-.288-.129Zm2.084,1.029a19.491,19.491,0,0,1,2.322-.691l1.218-.283a28.335,28.335,0,0,1,3.879,1.03c-.445.278-.872.568-1.283.874a41.063,41.063,0,0,0-5.3-.443c-.274-.167-.552-.328-.839-.487Zm3.559,2.455c.239.023.48.048.72.074-.1.1-.2.2-.3.3-.138-.126-.28-.253-.424-.379Zm2.67,2.91c.428,0,.868,0,1.318.013-.319.161-.645.322-.981.48-.109-.165-.22-.329-.337-.493Zm1.19,1.962a27.158,27.158,0,0,0,3.108-1.863,20.852,20.852,0,0,1,5.417.979,19.783,19.783,0,0,1-.564,2.867,18.162,18.162,0,0,0-2.771.536,21.375,21.375,0,0,0-3.125-1.469q-.952-.366-1.877-.666c-.061-.128-.124-.258-.188-.384Zm4.734-5.177-.037.044c-1.137-.315-2.312-.6-3.509-.835.305-.172.615-.335.933-.488a28.154,28.154,0,0,1,2.613,1.279Zm-3.8,7.453c.287.1.57.208.86.32q.746.286,1.391.578c-.607.23-1.213.49-1.813.777a15.933,15.933,0,0,0-.438-1.675Zm-18.816.607-.27-.024c.106-.064.213-.127.322-.186l-.052.21Zm24.24,8.615-.384-.148a13.21,13.21,0,0,1,1.726-1.819,7.9,7.9,0,0,1-1.342,1.967Zm2.723-2.6c.018-.1.031-.205.044-.307.079-.036.158-.067.235-.1a6.892,6.892,0,0,1,3.953-.572,10.2,10.2,0,0,1-2.132,4.12c-.663.165-1.317.355-1.948.569l-.029.009c-.524-.215-1.059-.428-1.6-.641a7.277,7.277,0,0,0,1.478-3.082Zm-3.649,5.348.283.06a8.327,8.327,0,0,0-1.032.85,5.468,5.468,0,0,0-1.6,2.93l-.471.237a13.032,13.032,0,0,1,.736-2.45c.705-.5,1.413-1.046,2.081-1.627Zm1.537-6.313.62-.128a11.475,11.475,0,0,0-.954.82c.116-.231.225-.46.334-.692Zm1.2-2.881c.067-.187.134-.377.2-.565.93-.092,1.9-.152,2.884-.178.662-.02,1.33-.021,2-.007l.043.024a19.953,19.953,0,0,1-2.208.388l-1.942.244c-.329.042-.651.08-.963.112l-.014-.018Zm5.136,1.272.213-.068,0,.117c-.068-.019-.137-.034-.21-.049Zm-8.63,10.9a4.538,4.538,0,0,1,.612-.74,8.574,8.574,0,0,1,2.3-1.552l.387.133a30.908,30.908,0,0,1-3.3,2.159Zm9.929-11.312.268-.088a4.9,4.9,0,0,1,.635,2.208,3.362,3.362,0,0,0-.5-.763,2.681,2.681,0,0,0-.423-.394,9.617,9.617,0,0,0,.022-.963Zm-.281,2.595.022.026a3.5,3.5,0,0,1,.46,2.811c-.593.085-1.2.185-1.812.3a11.249,11.249,0,0,0,1.33-3.139Zm-4.749,7.056a32.826,32.826,0,0,0,3.443.8l-.035.069a1.611,1.611,0,0,0-2.016.651,5.293,5.293,0,0,0-.654,2.58,16.038,16.038,0,0,1-5.87,1.141,5.413,5.413,0,0,1-.311-1.139,3.678,3.678,0,0,1-.039-.41,30.485,30.485,0,0,0,5.482-3.69Zm4.743-2.248c-.544.028-1.111.032-1.687.016.6-.122,1.2-.229,1.786-.321-.031.1-.065.2-.1.3Zm-11.269,6.478c.008.074.016.143.027.214a7.71,7.71,0,0,0,.159.763c-.246-.073-.476-.142-.694-.21-.025-.157-.043-.32-.053-.487.189-.093.375-.184.561-.28Zm9.553-17.428a9.987,9.987,0,0,0-3.476-.461,21.332,21.332,0,0,0,.444-2.4,15.369,15.369,0,0,1,1.838.9,12.553,12.553,0,0,1,1.194,1.965Zm-8.583-9.612c.3-.106.607-.2.916-.29a1.244,1.244,0,0,1,.449.987l0,.035q-.668-.382-1.362-.732Zm2.535,1.444a2.873,2.873,0,0,0,.1-.556,2.861,2.861,0,0,0-.289-1.5,5.45,5.45,0,0,1,2.073,3.391c-.6-.468-1.225-.915-1.88-1.331Zm-5.375-3.323c.586.144,1.1.291,1.558.443-.323.135-.64.276-.951.429-.68-.276-1.376-.526-2.076-.751.514-.062,1-.1,1.469-.121Zm13.062,25.906.2.095c-.134.141-.274.281-.417.416l-.006-.029.226-.482Zm-.351,2.8a12.152,12.152,0,0,0,1.99-1.992c1,.512,1.942,1.018,2.81,1.524a7.938,7.938,0,0,1-5.181,2.855,14.261,14.261,0,0,1-1.584.158,5.991,5.991,0,0,0,1.586-1.729,4.339,4.339,0,0,0,.379-.816Zm5.711-1.941c-.456-.273-.934-.549-1.429-.821q.918-.006,1.8-.067a9.6,9.6,0,0,1-.372.888Zm.878-2.79a25.874,25.874,0,0,1-3.008.1l.093-.215a9.963,9.963,0,0,0,3.1-1.257c-.045.481-.107.938-.187,1.374Zm-1.935-2.293c-.107.038-.213.074-.32.111l.019-.092.3-.019Zm-1.689.144c-.034.114-.07.23-.109.345-.326.061-.662.113-1,.156.043-.132.086-.262.128-.389.336-.042.666-.081.985-.112Zm-5.372,6.244a2.1,2.1,0,0,1,.256-.743.61.61,0,0,1,.4-.271c-.207.339-.425.679-.651,1.014Zm-58.2-50.609a43.6,43.6,0,0,1,13.389-1.28c.178.021.356.045.535.07a36.35,36.35,0,0,1,10.61,3.165,14.566,14.566,0,0,1,5.727,6.273,15.309,15.309,0,0,1,1.174,3.666c-.984.148-2.025.263-3.112.341-3.59-5.056-10.514-9.392-21.606-11.364a65.581,65.581,0,0,0-6.717-.871Zm29.036,32.205a12.438,12.438,0,0,1-2.016.426q.541-.6,1.021-1.225.5.4,1,.8Zm1.659,8.163a20.041,20.041,0,0,0,2.384.74c-.544.147-1.1.3-1.676.466a7.211,7.211,0,0,0-.708-1.206Zm15.009-13.207c1.276.205,2.541.461,3.775.76l-.138,0c-1.612-.056-3.1-.073-4.472-.053.265-.239.545-.474.835-.7Zm22.931,7.7q.094.3.175.588c-.31-.1-.622-.189-.939-.275.251-.1.507-.207.764-.313Zm1.67,1.116q-.168-.779-.425-1.62c5.932-2.314,9.633-2.249,11.453-.966a2.829,2.829,0,0,1,1.07,3.042,9.9,9.9,0,0,1-3.011,4.848,16.814,16.814,0,0,1-2.392,1.906,7.7,7.7,0,0,0-2.2-4.37,12.809,12.809,0,0,0-4.5-2.84Zm-39.709,9.208a2.677,2.677,0,0,1-.51-1.3l.588-.183a3.886,3.886,0,0,1-.078,1.484Zm-58.557-23.229a10.9,10.9,0,0,0-.868,1.525,28.536,28.536,0,0,0-3.759.192c.1-.249.205-.493.318-.735a16.241,16.241,0,0,1,4.211-5.423,17.381,17.381,0,0,1,2.6,1.77,12.228,12.228,0,0,0-2.5,2.671Zm-19.737,7.231c-.154.13-.3.262-.44.392-.059-.163-.119-.33-.174-.5.2.033.408.065.614.1Zm-9,1.942a11.453,11.453,0,0,0-.006,1.727,3.462,3.462,0,0,0-.5.462,3.952,3.952,0,0,0-.589.89A5.4,5.4,0,0,1,4864.91-6707.994Z" fill="#c9dfd3"/>
    </g>
    <g id="Сгруппировать_1333" data-name="Сгруппировать 1333">
      <path id="Контур_1992" data-name="Контур 1992" d="M4909.452-6696.33a.669.669,0,0,1,.026.071.231.231,0,0,1,.118.016C4909.558-6696.521,4909.73-6696.482,4909.452-6696.33Z" fill="#7b6a58"/>
      <path id="Контур_1993" data-name="Контур 1993" d="M4909.478-6696.259c-.122.02.08.233,0,0Z" fill="#7b6a58"/>
      <path id="Контур_1994" data-name="Контур 1994" d="M4910.194-6696.939l-.083.1C4910.125-6696.766,4910.147-6696.742,4910.194-6696.939Z" fill="#7b6a58"/>
      <path id="Контур_1995" data-name="Контур 1995" d="M4910.03-6696.754c.014-.212-.021-.009-.1.141l.177-.221C4910.087-6696.95,4910.085-6697.181,4910.03-6696.754Z" fill="#7b6a58"/>
      <path id="Контур_1996" data-name="Контур 1996" d="M4909.834-6696.722c-.09-.155-.207-.253-.045-.5C4909.481-6697.124,4909.527-6696.622,4909.834-6696.722Z" fill="#7b6a58"/>
      <path id="Контур_1997" data-name="Контур 1997" d="M4911.042-6696.049c.01-.152-.054-.405-.066-.6l-.119.174A.742.742,0,0,1,4911.042-6696.049Z" fill="#7b6a58"/>
      <path id="Контур_1998" data-name="Контур 1998" d="M4910.976-6696.648l.178-.261C4911-6696.939,4910.966-6696.815,4910.976-6696.648Z" fill="#7b6a58"/>
      <path id="Контур_1999" data-name="Контур 1999" d="M4910.223-6697.732l-.292.548.348-.555Z" fill="#7b6a58"/>
      <path id="Контур_2000" data-name="Контур 2000" d="M4911.72-6696.03l-.1.352.179-.531Z" fill="#7b6a58"/>
      <path id="Контур_2001" data-name="Контур 2001" d="M4912.514-6695.946c-.1.125-.206.093-.344-.145-.074.291.1.492.023.672C4912.315-6695.471,4912.42-6695.722,4912.514-6695.946Z" fill="#7b6a58"/>
      <path id="Контур_2002" data-name="Контур 2002" d="M4912.514-6695.946a1.022,1.022,0,0,0,.157-.328A1.971,1.971,0,0,0,4912.514-6695.946Z" fill="#7b6a58"/>
      <path id="Контур_2003" data-name="Контур 2003" d="M4911.6-6696.4l-.07-.427-.07-.007A.891.891,0,0,0,4911.6-6696.4Z" fill="#7b6a58"/>
      <path id="Контур_2004" data-name="Контур 2004" d="M4911.524-6696.841l0,.014c.076.009.128.019.151.024C4911.658-6696.807,4911.611-6696.818,4911.524-6696.841Z" fill="#7b6a58"/>
      <path id="Контур_2005" data-name="Контур 2005" d="M4911.438-6696.835h.018C4911.45-6696.876,4911.445-6696.89,4911.438-6696.835Z" fill="#7b6a58"/>
      <path id="Контур_2006" data-name="Контур 2006" d="M4910.8-6698.205c-.074.293.046.5-.111.86C4910.792-6697.584,4911.01-6697.84,4910.8-6698.205Z" fill="#7b6a58"/>
      <path id="Контур_2007" data-name="Контур 2007" d="M4911.163-6697.467a.947.947,0,0,1-.014.4l.2-.3Z" fill="#7b6a58"/>
      <path id="Контур_2008" data-name="Контур 2008" d="M4911.444-6697.505l-.092.136.07.036Z" fill="#7b6a58"/>
      <path id="Контур_2009" data-name="Контур 2009" d="M4912.349-6696.674a.334.334,0,0,1,.271-.231.537.537,0,0,0-.326-.129C4912.28-6696.9,4912.233-6696.659,4912.349-6696.674Z" fill="#7b6a58"/>
      <path id="Контур_2010" data-name="Контур 2010" d="M4911.948-6696.793c0-.009.012-.014.018-.024C4911.954-6696.853,4911.946-6696.865,4911.948-6696.793Z" fill="#7b6a58"/>
      <path id="Контур_2011" data-name="Контур 2011" d="M4913.611-6696.9c-.006-.024-.011-.053-.016-.078,0,.025,0,.049,0,.074Z" fill="#7b6a58"/>
      <path id="Контур_2012" data-name="Контур 2012" d="M4912.276-6697.113c-.081-.083-.129.022-.176.154a.379.379,0,0,1,.194-.075C4912.3-6697.094,4912.3-6697.134,4912.276-6697.113Z" fill="#7b6a58"/>
      <path id="Контур_2013" data-name="Контур 2013" d="M4912.948-6696.474a1.555,1.555,0,0,0-.14-.235C4912.849-6696.573,4912.933-6696.362,4912.948-6696.474Z" fill="#7b6a58"/>
      <path id="Контур_2014" data-name="Контур 2014" d="M4911.993-6696.7a.118.118,0,0,1-.012.019C4912.008-6696.588,4912-6696.633,4911.993-6696.7Z" fill="#7b6a58"/>
      <path id="Контур_2015" data-name="Контур 2015" d="M4911.993-6696.7a1.233,1.233,0,0,0,.107-.26.46.46,0,0,0-.134.142A.863.863,0,0,1,4911.993-6696.7Z" fill="#7b6a58"/>
      <path id="Контур_2016" data-name="Контур 2016" d="M4913.852-6698.061c-.1-.494.315-.718.261-1.444l-.217.255c0-.112.075-.293.015-.4-.015.4-.228.763-.412.338a5.564,5.564,0,0,0,.1,2.328.791.791,0,0,1,.192-.566c-.065-.217-.414-.506-.257-.865C4913.777-6698.615,4913.733-6698.271,4913.852-6698.061Z" fill="#7b6a58"/>
      <path id="Контур_2017" data-name="Контур 2017" d="M4913.24-6697.021l-.077.05a1.371,1.371,0,0,1,.265.537.894.894,0,0,0,.163-.472l-.378-.055Z" fill="#7b6a58"/>
      <path id="Контур_2018" data-name="Контур 2018" d="M4912.819-6696.97c.059-.431.244-.614.131-1.08-.225.029-.158.36-.292.547.363-.107-.1.24.158.484a.408.408,0,0,1-.2.114,1.1,1.1,0,0,1,.188.2l-.009-.026h0v-.007c-.016-.053-.021-.086,0-.055a.018.018,0,0,1,.007-.009,1.614,1.614,0,0,1,.017-.162c.1.089.016.112-.017.162,0,.021,0,.042,0,.064v.006l.364-.236C4913.086-6697.031,4912.99-6697.019,4912.819-6696.97Z" fill="#7b6a58"/>
      <path id="Контур_2019" data-name="Контур 2019" d="M4910.993-6699.131a.376.376,0,0,1,.012.1C4911.028-6699.084,4911.037-6699.12,4910.993-6699.131Z" fill="#7b6a58"/>
      <path id="Контур_2020" data-name="Контур 2020" d="M4910.986-6698.513l.026-.058a1.718,1.718,0,0,1,.309.744,6.859,6.859,0,0,0-.178-1.044c-.026.06-.049.232-.135.188-.074-.13,0-.207,0-.348A.448.448,0,0,0,4910.986-6698.513Z" fill="#7b6a58"/>
      <path id="Контур_2021" data-name="Контур 2021" d="M4911.991-6698.03l.3-.212-.154-.373.008.224C4911.975-6698.479,4912.013-6698.2,4911.991-6698.03Z" fill="#7b6a58"/>
      <path id="Контур_2022" data-name="Контур 2022" d="M4913.78-6696.875l-.135.188-.041.455Z" fill="#7b6a58"/>
      <path id="Контур_2023" data-name="Контур 2023" d="M4914.039-6696.743l-.015.4.1-.239Z" fill="#7b6a58"/>
      <path id="Контур_2024" data-name="Контур 2024" d="M4935.608-6701.68l-.016.2C4935.622-6701.592,4935.634-6701.671,4935.608-6701.68Z" fill="#7b6a58"/>
      <path id="Контур_2025" data-name="Контур 2025" d="M4923.707-6696.787c.129.369.274.943.259.5l-.04-.433C4923.835-6696.646,4923.766-6696.694,4923.707-6696.787Z" fill="#7b6a58"/>
      <path id="Контур_2026" data-name="Контур 2026" d="M4930.328-6699.377c-.013-.042-.025-.088-.038-.132-.032.148-.061.286-.088.415C4930.24-6699.183,4930.283-6699.278,4930.328-6699.377Z" fill="#7b6a58"/>
      <path id="Контур_2027" data-name="Контур 2027" d="M4939.772-6702.113l.1-.442C4939.713-6702.552,4939.785-6702.33,4939.772-6702.113Z" fill="#7b6a58"/>
      <path id="Контур_2028" data-name="Контур 2028" d="M4918.071-6696.9c.112.169.2.24.279.261C4918.215-6696.89,4918.106-6697.263,4918.071-6696.9Z" fill="#7b6a58"/>
      <path id="Контур_2029" data-name="Контур 2029" d="M4936.075-6697.313a.353.353,0,0,0-.076.264A.43.43,0,0,0,4936.075-6697.313Z" fill="#7b6a58"/>
      <path id="Контур_2030" data-name="Контур 2030" d="M4918.673-6696.642c-.02-.044-.039-.066-.059-.1a.282.282,0,0,1-.264.1C4918.449-6696.455,4918.563-6696.341,4918.673-6696.642Z" fill="#7b6a58"/>
      <path id="Контур_2031" data-name="Контур 2031" d="M4952.536-6701.753a.409.409,0,0,1,.028.051C4952.567-6701.76,4952.555-6701.763,4952.536-6701.753Z" fill="#7b6a58"/>
      <path id="Контур_2032" data-name="Контур 2032" d="M4956.254-6697.376a.338.338,0,0,1-.153.034C4956.129-6697.313,4956.175-6697.315,4956.254-6697.376Z" fill="#7b6a58"/>
      <path id="Контур_2033" data-name="Контур 2033" d="M4915.623-6696.553c-.084.028-.014.048,0,0Z" fill="#7b6a58"/>
      <path id="Контур_2034" data-name="Контур 2034" d="M4915.25-6698.48a.846.846,0,0,1-.033.211A.648.648,0,0,0,4915.25-6698.48Z" fill="#7b6a58"/>
      <path id="Контур_2035" data-name="Контур 2035" d="M4919.5-6699.342h.008C4919.487-6699.426,4919.491-6699.41,4919.5-6699.342Z" fill="#7b6a58"/>
      <path id="Контур_2036" data-name="Контур 2036" d="M4915.514-6696.545a.535.535,0,0,0-.073-.042C4915.431-6696.515,4915.44-6696.47,4915.514-6696.545Z" fill="#7b6a58"/>
      <path id="Контур_2037" data-name="Контур 2037" d="M4915.6-6696.622a.1.1,0,0,1,.019.069.86.86,0,0,1,.116-.024A.179.179,0,0,1,4915.6-6696.622Z" fill="#7b6a58"/>
      <path id="Контур_2038" data-name="Контур 2038" d="M4945.7-6700.592c.005.013.011.022.018.041C4945.8-6700.731,4945.762-6700.7,4945.7-6700.592Z" fill="#7b6a58"/>
      <path id="Контур_2039" data-name="Контур 2039" d="M4925.88-6701.293a.2.2,0,0,0-.01.021l.012.016Z" fill="#7b6a58"/>
      <path id="Контур_2040" data-name="Контур 2040" d="M4926.18-6701.616c-.128.54-.2.474-.3.36l.1,1.251Z" fill="#7b6a58"/>
      <path id="Контур_2041" data-name="Контур 2041" d="M4956.713-6700.534c-.221.849-.583-1.257-.946-.042-.08-.195.068-.308.025-.53-.091.41-.2.5-.408.312l.023-.1c-.578.1-.826-.305-1.475-.574l.047.473c-.139-.063-.169-.212-.234-.33-.16.718.392.04.246.832-.185-.964-.984-.014-1.109-1.11-.215,0,.063.549-.152.542l-.057-.3-.054.382c-.141-.063-.212-.434-.217-.685.034.03.1-.07.134-.091-.183-.35-.515.119-.578,0l.206.183c-.585.277-1.3-.112-1.867.49l.043.224c-.433.413-.346-.246-.821-.054l.017-.054c-.1.223-.222.335-.352.31.12-.262-.225-.509-.068-.8-.469.444-.232.348-.541,1.179l-.072-.371c-.106.336-.114.513-.351.609.194-.319-.152-.565.066-.986-.5-.811-.739.819-.967-.367-.228,1.026.431.57.3.789.107.336-.189.767-.345.664-.159-.023-.27-1.313-.67-1.293.04.005.042-.073.082-.069-.149-.261-.293.355-.477-.07-.1.62-.238-.036-.267.756l.367-.184c-.208.207-.4,1.134-.746.685a1.648,1.648,0,0,1,.2-.487c-.1-.234-.193.154-.3-.085.03-.793.446-.173.668-.777-.107-.334-.421.574-.309-.284-.161,1.091-.394-.138-.664.695l.017-.474c-.043.075-.131.3-.21.287l.142-.616c-.218.525-.422-.459-.632-.173.44-.015.1.572.285.918-.543.635-.312-1.241-.92-1.014.082-.067.309.285.18.505a1.1,1.1,0,0,1-.339-.529c-.4.1.061.489-.11.78-.137-.578-.2.235-.374.421l0-.483c-.459-.309-.121,1-.534.631l.174-.669-.215.173.044-.548c-.234.407-.307.3-.537.147.054.34-.03.876-.233.891-.139-.287.078-.458-.21-.39.064-.3.136-.68.261-.236.013-.157.064-.3.078-.458-.15-.329-.376-.075-.48-.071a.188.188,0,0,1,.113.113l-.418.669a.642.642,0,0,1,.038-.47c-.084.053-.143.274-.267.316.032-.392.024-.8.2-.982l-.4.435c-.026-.17-.2-.468-.152-.612-.221-.231-.541.76-.834.456a.358.358,0,0,1-.108.205c-.275-.089-.518-.57-.844-.032l-.185-.7c-.255.159.25.886-.174,1.151-.3.224-.113-.6-.218-.8-.15.355-.41,1.076-.686.5.091-.133.163-.029.248-.081l-.21-.39c.254-.641.438-.42.24-.968-.03,1.358-.818.139-.848,1.5l-.138-.286c.039.013.046-.067.085-.053-.27-.65-.2.982-.548.789a.4.4,0,0,1-.124-.463l-.27.336c-.078-.026-.059-.262.019-.236l-.412.108,0-.04a5.451,5.451,0,0,1-.257.683c-.1-.2.053-.144.026-.314l-.228.329c-.093-.352.1-.693.254-.643-.213-1.356-.19.342-.649-.45l.215-.172c-.139-.771-.307-.491-.551-.972.058.251.488,1.211.24,1.549-.069-.1-.161-.151-.295.122,0-.483-.132-.364-.3-.337l.011-.64c-.176.185-.162.511-.266.8-.2-.063-.238-.559-.283-.976-.315-.1.217.794-.156.915-.262-.245-.446.016-.759.4-.183-.22.032-.391-.034-.574l-.162.51c-.04-.012-.027-.169-.021-.248-.136.2-.011.639-.226.813-.058.705-.442-1.03-.708-.229-.066-.182.031-.392.011-.64a3.567,3.567,0,0,0-.613,1.088l-.256-.42a2.074,2.074,0,0,1-.262,1.516c.066.231.124.435.162.531l-.336.344a1.392,1.392,0,0,1,.048-.592c-.022.052-.044.105-.061.153a1.551,1.551,0,0,1,.028-.963c.041.126.081.261.121.4a5,5,0,0,0,.143-1.194.347.347,0,0,1-.11.173.87.87,0,0,0,.026-.263c-.012-.068-.047.074-.1.237l-.076-.713-.019.283-.439-.446c-.314.718-.587,1.774-1.085,2.069a6.157,6.157,0,0,0,.033-1.474c.136.656.386-.279.645-.145-.135-.069-.1-.365-.071-.468l-.461.6c.01-.507-.1-.38-.218-.589.091,1-.344.667-.531.974-.012-.337.033-.68.262-.6-.252-.754-.326,1.176-.574.536.056-.009.086.043.108-.128-.13.3-.449.062-.374-.231l.055-.007a.9.9,0,0,0-1.183.844c0-.11.048-1.026.071-1.2l-.662,2.862c.059-.73-.166-2.47.142-2.883-.088-.1-.2-.225-.384.033a3,3,0,0,1,.068,1.123,5.29,5.29,0,0,0-.435-1.129c.09.157-.01,1.3-.153,1.266.023-.171-.012-1.131.041-1.25l-.355,1.124a3.356,3.356,0,0,0-.064-1.271c.036.221-.307-.02-.4.091l.151.261c-.4-.17-.4,1.582-.794,1.523.048-.233.119-1.43-.084-1.572a12.859,12.859,0,0,1-.762,3.214l-.067-.329-.27.375a32.7,32.7,0,0,1,.9-3.4c-.15-.261-.041-.388-.266-.358a.394.394,0,0,1,.189-.487l-.524-.2c.024.673-.4.674-.38,1.235l.569-.7c.023.671-.329,1.908-.7,1.789a7.661,7.661,0,0,1,.063-1.421c-.048.232-.352.442-.386.278l.157-.359c-.206-.253-.336.891-.584.249-.086-.043-.255-.865-.271-.467a20.2,20.2,0,0,1,.075,3.716,5.865,5.865,0,0,1-.548-1.112c-.14-.6.212-1.434.092-1.951a1.515,1.515,0,0,1-.116.483c-.09-.156.037-.569-.157-.486-.033.682-.4-.057-.093.577-.191.194-.2-.14-.427-.111a3.286,3.286,0,0,1-.393,1.694,2.159,2.159,0,0,0-.053-.5c-.391-.062-.6-.371-.967-.377-.033-.165-.209-.365-.134-.658-.053.12-.1.351-.214.368-.217-.59.251-.092.085-.8-.014.4-.291.546-.451.794.049.612.37.117.531-.13a3.34,3.34,0,0,1-.661,2.118c-.3.209-.131-.546-.184-.426-.57-.147-.485,1.474-.958.865a4.994,4.994,0,0,1-.05-1.457c.247-.2.379.341.546.319l-.206-.254c.079-.179.244-.314.334-.159-.158-.483-.963-.092-1.4-.538-.078.18-.213.366-.15.583l.14-.075c.128.433-.262.6-.086.8-.187.3-.4.783-.659.538l-.049-.613c.006.179.172.365.246.179-.11.271-.4-.83-.523-.028l.184.425c-.187.308-.419.959-.651.766.1.6.053-.069.219.639-.144-.881.6.037.364-.889.17.822.294.349.516,1.05-.007-.2-.078-.387.117-.287a1.594,1.594,0,0,1,.043-.179l.013.015-.011-.023c.009-.031.01-.037,0-.009a.951.951,0,0,1-.1-.307c.1-.465.407-.45.512-.69.117.1-.048.232.016.447l.156-.359c.016.449.308.746.035,1.009l.246.02c.145.252.344.352.467.163.116.1.293-.5.192-.145l.385-.278,0,.112c.38.057.783-.744,1.218.067.128-.113.26-.252.474-.125l.042.389c.164-.136.494.389.565-.016.177,1.045.8.228,1.087.413l.011-.507c.2.029.39-.115.637-.319l-.016-.448c.214-.368.548.319.885.273-.023.171-.108.126-.169.023.4,1.013.85-.737,1.215,0,.091-.163.157-.108.22,0-.008,0-.015.01-.022.024a.072.072,0,0,0,.037,0c.041.077.082.167.127.239a1.062,1.062,0,0,0-.107-.24.531.531,0,0,0,.281-.178l.045.482c.008-.007.015-.006.024-.014.1.178.082-.228.027-.59a1.162,1.162,0,0,0,.139-.291c.083.778.273-.261.387.568.07-.405.524-.305.579-1.155,0,.111.035.163-.022.17.117.1.233.194.337-.046l.05.613.254-.824a1.264,1.264,0,0,1,.065,1.062c.37-.725.3-.273.614-.992l-.015.4c.112-.015.292-.545.36-.218.251.752,1.245.1,1.89.8-.125-1.165.3.523.326-.381.037.276.127.432.023.671.329-.271.5.437.722-.324.038.276-.07.4-.037.567.027-.059.1-.239.139-.075s-.048.232-.1.352c.336-.047.37-.9.4-1.694.171.378.256.325.379-.2.059.26.159.533-.051.627.118.038.719.383.731-.257.037.162.165.048.195-.026.264.038.287.1.547.035l-.072-.1c.1-.771.215-.172.424-.265l-.006.079c.479.556.207-.267.68.368l-.026-.479c.045-1.032.419.608.694.214l-.1-.274c.15-.353.419,1.4.57,1.531.032.09-.052.144-.1.211.394.608.051-.629.345-.775.054.339-.07.862.128.925.1.275.573-1.1.843-.45a.9.9,0,0,1,.018-.718c.209-.093.565.987.753.164a.6.6,0,0,1,.038.2c.16-.212.519-.353.615-.8.148,1.657.994-.806.991.722l.491-.081-.013.156c.314.1.425-.266.536-.632.072.1.019.246.013.326.459.308.5.244.89-.518l.04.5c.1-.288.664.777,1.114.2a.642.642,0,0,1-.05.222c.507-.581,1.213,1.375,1.4-.43l.334-.445c-.432-.14.065-.783-.113-1.083.17-.106.44.545.231.637l-.033-.09c-.077.941.538.334.526.974a22.435,22.435,0,0,1,2.477.515l-.091-.732.277.042c.074.171.1.573-.1.542.1.415.333-.347.339-.506.388.3-.152.853-.033.871l.162-.055-.037-.085c.131-.3.143-.616.381-.58.151.146.077.451.137.479,0,.052.02.077.091.021l.35.063-.14-.578c.156-.284.33.031.168-.624.238,1.009,1.307.363,1.452.676.218-.421.433-.414.7-.363-.067-.12-.106-.77.123-.69-.084,1.34.42.581.606,1.545-.166-.639.652-.157.392-1.065.191.108.011.5.156.817.456-.519,1,.337,1.567.162a1.543,1.543,0,0,1,.036-.707l.3.88c.112-.087.1-1.015.306-.405-.029-.148-.071-.371,0-.427,1.1.857,2.254-.7,3.374.908-.152-.341-.051-.375.065-.387-.075-.082,0-.435-.013-.673l.469.662c.085-.662.5-.045.552-.677l-.149.113C4957.158-6698.663,4956.684-6699.576,4956.713-6700.534Zm-40.175,3.588.006-.023C4916.681-6696.781,4916.632-6696.855,4916.538-6696.946Zm13.327-3.359c.045-.159.115-.08.194.1C4930-6700.163,4929.936-6700.181,4929.865-6700.305Zm4.783-1.161c.061-.1.183-.414.227-.129C4934.806-6701.043,4934.752-6701.307,4934.648-6701.466Zm11.94,4.121-.054-.126C4946.658-6697.61,4946.623-6697.485,4946.588-6697.345Z" fill="#7b6a58"/>
      <path id="Контур_2042" data-name="Контур 2042" d="M4930.407-6700.965a1.722,1.722,0,0,1,.026.262A.33.33,0,0,0,4930.407-6700.965Z" fill="#7b6a58"/>
      <path id="Контур_2043" data-name="Контур 2043" d="M4939.753-6702.031l.009,0c0-.029.008-.058.01-.087Z" fill="#7b6a58"/>
      <path id="Контур_2044" data-name="Контур 2044" d="M4920.743-6701c0-.118-.023-.217-.112-.249A.6.6,0,0,1,4920.743-6701Z" fill="#7b6a58"/>
      <path id="Контур_2045" data-name="Контур 2045" d="M4914.939-6696.461c-.087.024-.118-.082-.162-.158,0,.113.038.276-.018.284Z" fill="#7b6a58"/>
      <path id="Контур_2046" data-name="Контур 2046" d="M4913.188-6699.321c-.026.059-.056.007-.082.067l.007.224A.169.169,0,0,0,4913.188-6699.321Z" fill="#7b6a58"/>
      <path id="Контур_2047" data-name="Контур 2047" d="M4914.591-6697.938c-.014-.406-.128-.269-.255-.193.008,0,.015-.005.023,0C4914.322-6697.563,4914.456-6697.751,4914.591-6697.938Z" fill="#7b6a58"/>
      <path id="Контур_2048" data-name="Контур 2048" d="M4914.307-6698.118a.129.129,0,0,1-.117.011C4914.175-6697.88,4914.238-6698.06,4914.307-6698.118Z" fill="#7b6a58"/>
      <path id="Контур_2049" data-name="Контур 2049" d="M4915.9-6696.886c-.06-.1-.038.519-.071.353C4915.758-6696.016,4916.226-6697.158,4915.9-6696.886Z" fill="#7b6a58"/>
      <path id="Контур_2050" data-name="Контур 2050" d="M4914.489-6699.275l.045.5.071-.4Z" fill="#7b6a58"/>
      <path id="Контур_2051" data-name="Контур 2051" d="M4915.489-6698.908l-.2-.138a.227.227,0,0,1-.055.17C4915.357-6698.859,4915.494-6698.759,4915.489-6698.908Z" fill="#7b6a58"/>
      <path id="Контур_2052" data-name="Контур 2052" d="M4915.069-6698.793a.259.259,0,0,0,.163-.083A.136.136,0,0,0,4915.069-6698.793Z" fill="#7b6a58"/>
      <path id="Контур_2053" data-name="Контур 2053" d="M4914.968-6699.285l-.2-.141.06.1Z" fill="#7b6a58"/>
      <path id="Контур_2054" data-name="Контур 2054" d="M4917.887-6698.955c.023-.171-.037-.276-.12-.208-.053.12-.135.186-.1.352Z" fill="#7b6a58"/>
      <path id="Контур_2055" data-name="Контур 2055" d="M4917.1-6700.423l-.1.24a1.28,1.28,0,0,1,.1.381Z" fill="#7b6a58"/>
      <path id="Контур_2056" data-name="Контур 2056" d="M4917.642-6700.328c.022-.173.321-.5.041-.456C4917.661-6700.613,4917.439-6700.47,4917.642-6700.328Z" fill="#7b6a58"/>
      <path id="Контур_2057" data-name="Контур 2057" d="M4920.973-6699.542l-.056.008.008,1.019Z" fill="#7b6a58"/>
      <path id="Контур_2058" data-name="Контур 2058" d="M4923.609-6701.655c-.062.24.193.248.13.456.158-.254.241-.11.169-.78C4923.646-6702.223,4923.846-6701.351,4923.609-6701.655Z" fill="#7b6a58"/>
      <path id="Контур_2059" data-name="Контур 2059" d="M4956.871-6696.829l.168.212-.109-.342Z" fill="#7b6a58"/>
      <path id="Контур_2060" data-name="Контур 2060" d="M4957.194-6697.584l.04.649.1-.587C4957.3-6697.494,4957.223-6697.438,4957.194-6697.584Z" fill="#7b6a58"/>
      <path id="Контур_2061" data-name="Контур 2061" d="M4934.312-6702.41l-.131-.364-.013.156C4934.194-6702.449,4934.233-6702.436,4934.312-6702.41Z" fill="#7b6a58"/>
      <path id="Контур_2062" data-name="Контур 2062" d="M4936.465-6702.288l-.04-.013.074.587Z" fill="#7b6a58"/>
      <path id="Контур_2063" data-name="Контур 2063" d="M4938.382-6703.037c-.078-.024-.171.107-.249.082C4938.3-6703.061,4938.4-6702.305,4938.382-6703.037Z" fill="#7b6a58"/>
      <path id="Контур_2064" data-name="Контур 2064" d="M4926.8-6684.159l.183-.108c.1-.144.255-.5.153-.465Z" fill="#7b6a58"/>
      <path id="Контур_2065" data-name="Контур 2065" d="M4926.86-6685.2a1.912,1.912,0,0,1,.2-.4,4.312,4.312,0,0,0-.769,1.287c.355-.535.26-.286.674-.927.1-.037.027.249-.091.462.1-.141.043.183.261-.174C4927.266-6685.451,4927.162-6685.523,4926.86-6685.2Z" fill="#7b6a58"/>
      <path id="Контур_2066" data-name="Контур 2066" d="M4916.955-6692.165a.186.186,0,0,0-.107.106C4916.887-6692.059,4916.928-6692.111,4916.955-6692.165Z" fill="#7b6a58"/>
      <path id="Контур_2067" data-name="Контур 2067" d="M4916.458-6693.057a.456.456,0,0,0,.022.061C4916.491-6693.059,4916.49-6693.1,4916.458-6693.057Z" fill="#7b6a58"/>
      <path id="Контур_2068" data-name="Контур 2068" d="M4920.807-6689.98c-.1.191-.013.171.021.24Z" fill="#7b6a58"/>
      <path id="Контур_2069" data-name="Контур 2069" d="M4925.443-6684.6a.508.508,0,0,0,.136-.128.48.48,0,0,1-.087.036C4925.475-6684.659,4925.46-6684.631,4925.443-6684.6Z" fill="#7b6a58"/>
      <path id="Контур_2070" data-name="Контур 2070" d="M4922.884-6689.345l.034.016c.041-.065.09-.143.145-.229Z" fill="#7b6a58"/>
      <path id="Контур_2071" data-name="Контур 2071" d="M4923.933-6688.083a.951.951,0,0,1,.236-.314c.047-.1.1-.213.159-.365A4.591,4.591,0,0,0,4923.933-6688.083Z" fill="#7b6a58"/>
      <path id="Контур_2072" data-name="Контур 2072" d="M4920.517-6712.456l.056.083C4920.548-6712.425,4920.528-6712.46,4920.517-6712.456Z" fill="#7b6a58"/>
      <path id="Контур_2073" data-name="Контур 2073" d="M4923.567-6711.157l0,.039.172.264Z" fill="#7b6a58"/>
      <path id="Контур_2074" data-name="Контур 2074" d="M4915.478-6694.328v.012C4915.541-6694.357,4915.517-6694.356,4915.478-6694.328Z" fill="#7b6a58"/>
      <path id="Контур_2075" data-name="Контур 2075" d="M4905.416-6697.711c.4-.008,1.572,0,2.241-.062C4906.658-6697.7,4906.551-6697.8,4905.416-6697.711Z" fill="#7b6a58"/>
      <path id="Контур_2076" data-name="Контур 2076" d="M4912.277-6695.222a1.3,1.3,0,0,0,.076-.236A1.746,1.746,0,0,0,4912.277-6695.222Z" fill="#7b6a58"/>
      <path id="Контур_2077" data-name="Контур 2077" d="M4910.856-6695.3c-.01-.053.013-.127-.061-.079l-.017.068C4910.826-6695.373,4910.861-6695.4,4910.856-6695.3Z" fill="#7b6a58"/>
      <path id="Контур_2078" data-name="Контур 2078" d="M4909.656-6695.873c-.01.041-.018.075-.027.113l.051-.009Z" fill="#7b6a58"/>
      <path id="Контур_2079" data-name="Контур 2079" d="M4917.316-6709.967a5.02,5.02,0,0,1,.334.384C4917.41-6709.9,4917.492-6710.13,4917.316-6709.967Z" fill="#7b6a58"/>
      <path id="Контур_2080" data-name="Контур 2080" d="M4925.439-6684.682a.176.176,0,0,0,.053-.008,1.079,1.079,0,0,0,.087-.193A.6.6,0,0,1,4925.439-6684.682Z" fill="#7b6a58"/>
      <path id="Контур_2081" data-name="Контур 2081" d="M4908.127-6691.69a1.327,1.327,0,0,0,.062-.4,1.018,1.018,0,0,0-.085.12Z" fill="#7b6a58"/>
      <path id="Контур_2082" data-name="Контур 2082" d="M4926.575-6685.165l0-.216c.061,0-.175.429-.255.5-.3.323-.089-.25-.01-.43l.141-.07c.407-1.074-.429,0-.575-.147l.434-.715-.479.536a1.543,1.543,0,0,1,.372-.715c.053-.431-.24.213-.148-.252a.251.251,0,0,1,.067-.128l-.23.164c.1-.146.234-.539.257-.394-.011-.539-.625.391-.434-.217l.04-.037c-.427.106-.295.536-.834,1.072l.5-1.432-.295.536c-.021-.035-.064-.107.054-.321-.3.32-.1.249-.335.572.09-.574-.531.033-.142-.86-.256.392-.011.392-.313.605.408-.965-.264.072-.195-.428.277-.466.284-.145.355-.646-.48.782-.183-.31-.376-.209-.32.652-.385.151-.686.275.118-.214-.2-.537-.264-.862l.058-.107c-.354.645-.482.429-.684.5a1.965,1.965,0,0,1,.455-.679l-.13-.059c-.132.2-.226.29-.346.325l.27-.479c-.184-.055-.625.416-.687-.02-.234.455-.443,1.369-.825,1.565a2.861,2.861,0,0,1,.419-.757c-.036.023-.171.173-.16.047l.295-.375c-.012-.233-.221.325-.283.248.173-.355.063-.283.211-.56.037-.024,0,.181.1.056a.975.975,0,0,1,.026-.658c-.089.207-.231.48-.319.494-.184-.057.147-.456.135-.687-.16.227-.146-.082-.4.448-.049-.026.061-.279.111-.433-.2.193-.446-.132-.619.482l0,.048-.026.017c-.545.389-.458-.592-.856-.5l.086-.177c-.27.12-.441-.065-.748.259-.051-.025.036-.383.16-.584-.2.07-.307.263-.356-.122.282-.247.087-.3.246-.162-.1-.236,0-.54-.416-.142.281-.426.147-.636,0-.539l-.037.384c-.124.023-.184-.056-.247-.134l.333-.579c0-.9-1.229.937-.907-.412-.294.375.048.387-.271.838-.122-.159.125-1.1.075-1.126-.06-.438-.627.777-.749.439-.073.227-.32.812-.59.93-.122-.157.235-.992.419-1.115.047,0,.033.078,0,.149a.446.446,0,0,0,.25-.374l-.124.2c.026-.257-.207-.34.015-.667a.4.4,0,0,0-.185.481c-.058-.409-.318-.165-.431-.475-.023.134-.112.4-.145.382-.184-.415-.333.339-.589.331.037-.384.417-.757.073-.587-.023-.283.246-.58.382-.73-.393.319-.232-.445-.306-.574l.185-.123c-.11.073-.159.046-.209.02l-.148.456a.3.3,0,0,1,.013-.307c-.2.25-.295.734-.6,1.058.024-.256-.356.116-.11-.465.158.314.246-.583.5-.572-.073.048-.122.021-.146-.083a.278.278,0,0,1,.1-.138c0-.623-.42.588-.662.455.185-.3.234-.634.16-.586.1.055-.209.557-.418.758-.041-.326-.264.1-.333.032l.039.163c-.186.3-.246.224-.406.271.11-.254.183-.123.2-.252-.4.5,0-.716-.354-.421.024-.255.281-.6.282-.785-.393.322,0-.539-.366-.294a1.072,1.072,0,0,1-.433.708l.479-.142-.515.522c.1.055.343-.168.369-.065a.919.919,0,0,0-.334.579c.173-.711-.454.244-.4-.268l.517-1.062c-.011-.59-.689.341-.871-.077l.011.234c-.246.4-.221-.034-.4.089a2.657,2.657,0,0,0,.244-.753c-.122.266-.217-.134-.587.563l.087-.536c-.159-.313-.775.876-.959.638.26-.351.271-.656.566-.855-.079-.042-.12-.142-.24.1.06-.246-.455.371-.366,0-.109.139-.3.507-.376.434a1.033,1.033,0,0,1,.085-.176c-.085.176-.257.171-.367.6.286-1.23-.734-.254-.491-1.311a1.774,1.774,0,0,1-.673-.005c.061-.1.086-.177.1-.125-.061-.437-.627.955-.7.466.149-.637.283-.247.308-.5.267-.593.165-.593.033-.532-.088.082-.246.205-.088-.14l.057-.057c.2-.4-.407.35-.489.207,0,0,.083-.087.133-.153a1.969,1.969,0,0,1-1.222.594,3.328,3.328,0,0,0,.711-.529c-.121.022-.68.593-.962.618a3.691,3.691,0,0,1,.851-.781l.12.024c.616-.5-.128-.034-.065-.142l.317-.192c-.2.016-1.061.473-1.191.347l-.255.139-.027.009a.9.9,0,0,0,.012-.195l.593-.255c-.116.032-.348.082-.6.13,0-.009,0-.026,0-.008,0,0,0,.01-.009.01a5.462,5.462,0,0,1-.972.115c.924-.205,1.452-.283,1.956-.426-.036-.024-.219-.041-.8.11.132-.021.425-.094.278-.03a3.552,3.552,0,0,1-1.645.22c1.172-.285,1.247-.356,1.255-.412s-.075-.108.931-.283c-.9.071-.266-.1-.049-.152.09-.019.143-.034.129-.046-2.357.156-.029-.022-2.372.086-.084-.032-.025-.049.109-.057l.026,0h-.007q.768-.08,1.476-.118c.656-.014.451.022.948.015l-.012.019-.022.17.084-.192c.087-.009.226-.013.394-.015l-.051.317c.18-.065.4-.273.57-.316h.059a.15.15,0,0,1,.124.042c0-.018-.007-.025-.01-.042l.39,0-.391-.006c-.078-.408-.235-.214-.391-.1l-.237-.055-.007-.029.089.02c.074,0,0-.033-.1-.081l0-.009,0,.007a2.411,2.411,0,0,1-.271-.135c-.2-.113-.275-.238.1-.128l.321.144c-.084-.048-.57-.293-.225-.163.127.064.3.154.33.158-.107-.052-.483-.306-.279-.233l.307.2c.418.191-.617-.572-.58-.844.674.607.933.777,1.034.881l.078.1c.045,0-.024.01.028-.108a1.426,1.426,0,0,0,.079-.408,4.8,4.8,0,0,1,.092-.917c.755.644.966-.169,1.618.037a1.4,1.4,0,0,1-.362-.69c.182.092-.114-.66.325.017l-.038.008c.506.614.557.325.7.253l-.57-.89c1.207,1.039.592-1.081,1.552-.069-.064-.275.041-.343-.024-.617l.313.472a.745.745,0,0,0,.679-.362l.168.375c.182-.079-.71-1.491-.58-1.619l.518.67c.275-.2.975.221.825-.6.064.1.193.313.166.373.145-.072.834.127.136-.8.426.624.332-.135.3-.514l.289.478c-.271-.677-.376-.841-.307-1.126.083.032.288.345.151.265.305.146-.185-.512.153-.382l.135.338c.17-.063.052-.213-.1-.612-.033-.247.356-.07.659.333-.152-.268-.3-.662-.135-.6a.9.9,0,0,1,.17.328c.456.149,0-.782.473-.442a1.283,1.283,0,0,0,.215.256c-.2.12-.374.2-.383.157.288.425.5.394.768,1.066-.091-.405-.348-1.248-.06-1.151a1.672,1.672,0,0,1,.119.134l.017.058c.064.019.068-.042.05-.133.1.037.162.068.213.042.256.34.307.069.4.034-.321-.462-.169-.456-.524-.776.034.025.023.066-.016.12a.131.131,0,0,0,0,.071l-.022-.045a1.521,1.521,0,0,1-.173.162c-.1-.278-.168-.52.093-.32-.159-.327-.322-.664-.4-.825.546.577.989.789,1.288,1.17.061-.422.444-.551,0-1.527-.009-.159.247.2.365.318.021.115-.035.133.029.273-.017-.316.342-.359-.039-.992.357.161.284.628.451.369l.1.209c1.122.665-.305-2.068,1.054-1.159a.6.6,0,0,1-.205-.174c.956.159.85-1.331,2.018-.843.283.067.037-.336-.064-.7l.374.476-.22-.692c-.043-.586,1.249.945,1.015-.062l-.267-.31c.153-.011.214-.434.458-.034-.031-.069-.2-.375-.039-.229l.18.26-.033-.631c.338.047.67,1.061,1.01.905a2.3,2.3,0,0,0-.353-1.127c-.054.018-.227-.084-.408-.344l.012-.206a6.17,6.17,0,0,0-1.576-1.995l.141.592-.31-.336.134-.125c-.324-.294-.167.053-.082.308a1.606,1.606,0,0,0-.354-.362l.324.855c-.225-.288-.326-.652-.556-.739.149.4.535.623.552.94-.322-.293-.49-.6-.388-.229a1.039,1.039,0,0,1-.232-.444c.072.3-.167.26.064.7-.381-.373-.223.315-.708-.421a1.659,1.659,0,0,1,.17.764c-.442-.975-.341.156-.935-.808.421.86-.163.618-.063,1.186-.032-.069-.1-.211-.051-.182-.155.009-.346-.206-.517-.307a4.549,4.549,0,0,1,.531,1.386c-.558-.535-.433-.817-.882-1.391.362.522.121.684.463,1.091a2.816,2.816,0,0,1-.633-.63c.531.824,0,.2.248.759-.419-.3-.552-.735-.549-.377a1,1,0,0,1-.295-.582c-.176.1.327.652.529,1.027-.082.309-.4-.388-.677-.655-.014.246.27.872.161.911a.975.975,0,0,1-.182-.261c.2.575-.374.287-.114,1a1.183,1.183,0,0,1-.123-.138c.232.29.446.6.591.824-.068.061.123.481-.176.1.054-.019-.052-.183-.115-.322l.04.227c-.459-.528-.028-.272-.315-.7-.027.291.117.888-.11.8-.4-.546.146-.374-.349-.769l.327.092c-.739-.794.152-.012-.617-.876-.349,0-.074.467-.422.464.157.349.33.451.488.8.041.79-1.223-1.236-.965-.318.189.419.645,1.148.214.891l-.37-.677c-.274.093.486,1-.045.739-.126-.279.039-.334-.047-.386-.5-.4.133.436.013.518l-.406-.547c-.186.255-.182.845-.385,1.132a1.375,1.375,0,0,0-.351-.515c-.153.513-.78.427-1.337.316l.2.572c-.033.015-.2-.183-.235-.3-.254-.1.2.313.269.546-.051.083-.286-.214-.338-.392.051.567-.049,1.327-.641.969l-.051-.177c-.32-.07.463,1.14-.017.8l-.025-.109c-.548.063-.7.812-1.5.287.415.74-.612-.041.022.954-.559-.328-.61-.547-1.157-.652-.118.014.282.7.244.872l-.348-.509.215.635-.49-.558-.012.2c.06,0,.24.172.334.323,0,.338-.626-.1-.807-.355l-.081.685a1.2,1.2,0,0,1-.155-.489c.153.656-.4-.513-.26.088a2.258,2.258,0,0,1,.258.419c-.3-.247-.509-.11-.574.124l-.209-.372c-.337.1-.469.564-.785.767.223.089.61.717.558.837l-.4-.516c.167.374.234.14.389.63-.159.016-.493-.561-.545-.781l-.014.282a5.253,5.253,0,0,1-.272-.474c.168.374-.61-.377-.3.262l-.116-.156a.982.982,0,0,0-.312.345,1.025,1.025,0,0,1-.351.407c.327.458.076.476.251.907-.4.052-1.086-.016-1.448.286-.031.358.329.352.508.635-.46-.307-.8-.021-.939-.369a1.423,1.423,0,0,0-.613,1.038,1.714,1.714,0,0,1,.619.157c.008.1-.447.043-.72-.07l-.034-.04c.144.366-.612.426-1.431.574-.8.134-1.648.347-1.11.629l-.05-.03a2.348,2.348,0,0,0,.341.441c-.379.149-.473-.145-1.162-.062.389.253.137.386-.2.532s-.732.291-.438.436c-1.445.146-1.864.381-2.06.6.619.205,1.5.361.877.645l.606-.1c.773-.016-.185.137-.209.216.466-.083.4-.162.832-.169a2.589,2.589,0,0,1,1.662.955,7.181,7.181,0,0,0,1.161,1.338c.443.319,2.2-.984,1.9-.186l-.8.345a3.182,3.182,0,0,1,1.789.454,2.514,2.514,0,0,0,1.55.439c-.126.108-.227.28-.317.233-.025.255.17.355.376.34a.757.757,0,0,0,.393-.378c.061.079-.136.328-.173.531-.013.308.541-.42.392.039a.315.315,0,0,1-.134.149c.171-.175.306.213.478-.319.079.332.478-.043.49.327.369-.51.2.428.614-.345-.407.808.023.821.33.5-.159.227-.016.307-.228.625.145.056.346-.034.523-.464-.212,1.1.9-.536.439.784a4.932,4.932,0,0,1,1.619-.361c-.4.807-.452-.117-.847.744.516-.164,1.056-.764,1.313-.4.038.154-.221.327-.319.452.515-.165.649.4,1.177.112a.6.6,0,0,1-.172.189c.074,0,.086.189.257-.184l-.108.071c.159-.584.786-1,.933-1.28-.615,1.008.183.417-.629,1.674a1.112,1.112,0,0,0,.32-.453c.026.1-.024.256-.221.507.319-.094.429-.525.627-.419-.087.178-.161.228-.283.428.27-.3.54-.6.638-.366-.062.1-.11.253-.16.226.319.087.946-.689,1.1-.2-.469.731-.015.308-.321.989l.269-.118.088-.36c.145.085.515-.341.539-.058l-.246.223.344.009-.037-.333c.32-.273.394-.859.5-.574-.075.049.147.081.035.515l0,0c.178-.179.364-.367.4-.146-.074.229-.381.732-.432.885.345-.527.429.014.811-.54a3.149,3.149,0,0,0-.295.555l.282-.427a.932.932,0,0,1-.171.532c.171.185.344-.886.417-.4-.037.028-.061.1-.135.15.159.313.624-.056.747.28-.258.71-.282.069-.478.677.391.038,1.079-.48,1.324-.165l-.024-.1c.5-.934.012.588.392.215a1.824,1.824,0,0,0-.246.4c.147.259.564-.018,1.043-.158l-.16.226c.025.281.281.291.368.47.159-.225.221-.146.344-.527-.241,1.607,1.186-.352,1.009,1-.048-.02-.213.162-.177.181l.436-.07a2.177,2.177,0,0,0,.166-.629c.16-.227.344-.374.425-.335-.279.205-.32.669-.369.932.051-.133.141-.263.2-.4-.186.823.432-.824.425-.213l-.118.213c.141-.07.361-.32.425-.213-.193.5-.2.18-.4.574.146.036.7-.787.589-.249-.121.107-.2.07-.323.177-.142.628-.058.491,0,.628l0-.018.1.364.018-.18c.77-1.177.447-.068,1.066-.783-.592.674-.253.433-.532.971a1.13,1.13,0,0,1-.11.532c.317-.39.009.431.467-.141-.078.179.1.072-.132.5.2-.073.115-.322.233-.537.5-.5.145.967.846.29.425-.213.759-.783,1.143-.96a1.272,1.272,0,0,1-.375.607c.008.323.13.323.352.182a1.438,1.438,0,0,0-.193.5c.122,0,.375-.608.382-.285a7.37,7.37,0,0,1-.439.658c.195-.1.47-.377.668-.477a1.8,1.8,0,0,1-.437.608A1.116,1.116,0,0,0,4926.575-6685.165Zm-18.2-12.748.15.015h0l-.147-.015Zm9.15-6.772c.055.093.106.18.138.248-.008.1-.087.021-.159-.069a.353.353,0,0,0,.054-.118Zm-2.358-2.83-.056.09-.007-.01C4915.13-6707.468,4915.152-6707.5,4915.166-6707.515Zm-.225.241c.121.153.22.327.181.341-.054-.12-.194-.161-.335-.264A.363.363,0,0,0,4914.941-6707.274Zm-6.659,9.417-.381,0,.017-.038.368.01Zm.026-.167,0,.027c-.157-.036-.367-.082-.672-.147C4907.8-6698.121,4908.124-6698.063,4908.308-6698.024Zm-.42.126-.025.039h-.28C4907.118-6697.914,4907.477-6697.909,4907.888-6697.9Zm-1.362,1.4c-.86.29.493-.3-.3-.057l.3-.13C4906.528-6696.619,4906.527-6696.553,4906.526-6696.5Z" fill="#7b6a58"/>
      <path id="Контур_2083" data-name="Контур 2083" d="M4917.342-6705.111c0-.015-.009-.038,0-.048l-.1-.084.08.158Z" fill="#7b6a58"/>
      <path id="Контур_2084" data-name="Контур 2084" d="M4920.836-6689.648a.348.348,0,0,1-.019.08l.021-.065Z" fill="#7b6a58"/>
      <path id="Контур_2085" data-name="Контур 2085" d="M4909.66-6705.03l.08.117-.041-.123Z" fill="#7b6a58"/>
      <path id="Контур_2086" data-name="Контур 2086" d="M4922.757-6686.427l.032.238A.71.71,0,0,0,4922.757-6686.427Z" fill="#7b6a58"/>
      <path id="Контур_2087" data-name="Контур 2087" d="M4923.287-6685.862c.049-.087.084-.152.118-.211v0Z" fill="#7b6a58"/>
      <path id="Контур_2088" data-name="Контур 2088" d="M4912.638-6690.258a.049.049,0,0,0-.037.01C4912.5-6690.178,4912.554-6690.2,4912.638-6690.258Z" fill="#7b6a58"/>
      <path id="Контур_2089" data-name="Контур 2089" d="M4916.291-6689.956a1.613,1.613,0,0,1-.214.191C4916.113-6689.7,4916.151-6689.669,4916.291-6689.956Z" fill="#7b6a58"/>
      <path id="Контур_2090" data-name="Контур 2090" d="M4908.9-6691.308l0-.008-.021-.01Z" fill="#7b6a58"/>
      <path id="Контур_2091" data-name="Контур 2091" d="M4915.938-6689.843c.006.127.062.128.139.078C4916.048-6689.82,4916.02-6689.9,4915.938-6689.843Z" fill="#7b6a58"/>
      <path id="Контур_2092" data-name="Контур 2092" d="M4926.023-6684.236l.043-.079-.064.043Z" fill="#7b6a58"/>
      <path id="Контур_2093" data-name="Контур 2093" d="M4926.066-6684.315l.063-.043C4926.114-6684.366,4926.1-6684.369,4926.066-6684.315Z" fill="#7b6a58"/>
      <path id="Контур_2094" data-name="Контур 2094" d="M4926.265-6684.45l-.136.092C4926.154-6684.345,4926.178-6684.314,4926.265-6684.45Z" fill="#7b6a58"/>
      <path id="Контур_2095" data-name="Контур 2095" d="M4924.964-6685c.042.072-.032.468.111.4l.078-.142C4924.98-6684.489,4925.172-6685.276,4924.964-6685Z" fill="#7b6a58"/>
      <path id="Контур_2096" data-name="Контур 2096" d="M4925.367-6688.04c0-.717-.154.465-.4.248l.149.253C4925.167-6687.754,4925.244-6688.041,4925.367-6688.04Z" fill="#7b6a58"/>
      <path id="Контур_2097" data-name="Контур 2097" d="M4924.418-6688.4c.162-.034.136-.285.195-.393C4924.453-6688.654,4924.412-6688.618,4924.418-6688.4Z" fill="#7b6a58"/>
      <path id="Контур_2098" data-name="Контур 2098" d="M4919.5-6690.777l.233-.455C4919.607-6691.21,4919.643-6691.054,4919.5-6690.777Z" fill="#7b6a58"/>
      <path id="Контур_2099" data-name="Контур 2099" d="M4917.407-6688.848l-.049.329.246-.4Z" fill="#7b6a58"/>
      <path id="Контур_2100" data-name="Контур 2100" d="M4918.272-6692.352l.161-.047.072-.047Z" fill="#7b6a58"/>
      <path id="Контур_2101" data-name="Контур 2101" d="M4910.117-6696.106c.031-.087.032-.138-.017-.116a1.95,1.95,0,0,0-.059-.2l-.16.248a.472.472,0,0,0,.1.191l-.144.342a.843.843,0,0,0,.168-.235c0,.008,0,.013,0,.022A.289.289,0,0,0,4910.117-6696.106Z" fill="#7b6a58"/>
      <path id="Контур_2102" data-name="Контур 2102" d="M4907.443-6697.009c-.017.04-.262.194-.144.161C4907.64-6697.033,4907.85-6697.157,4907.443-6697.009Z" fill="#7b6a58"/>
      <path id="Контур_2103" data-name="Контур 2103" d="M4911.619-6700.255l.052.219.026-.23Z" fill="#7b6a58"/>
    </g>
  </g>
</svg>
