<svg xmlns="http://www.w3.org/2000/svg" width="33.786" height="19.728" viewBox="0 0 33.786 19.728">
  <g id="Сгруппировать_3661" data-name="Сгруппировать 3661" transform="translate(-1044.632 -1967.661)">
    <path id="Контур_9138" data-name="Контур 9138" d="M1057.416,1973.856c.124-.045.23-.1.341-.124a17.544,17.544,0,0,1,3.947-.608,33.159,33.159,0,0,1,4.686.137,22.62,22.62,0,0,1,3.025.587c1.143.3,2.277.631,3.4,1.015a16.281,16.281,0,0,1,2.78,1.217,6.64,6.64,0,0,1,1.4,1.114,2.612,2.612,0,0,1,.548.844,1.875,1.875,0,0,1-.233,1.878,3.106,3.106,0,0,1-1.512,1.223,5.949,5.949,0,0,1-2.117.368,14.3,14.3,0,0,1-4.733-.856,11.1,11.1,0,0,1-1.265-.554c-1.279-.634-2.567-1.251-3.791-1.989q-1.518-.915-3.029-1.842c-.68-.418-1.363-.831-2.026-1.274-.459-.306-.886-.659-1.326-.994A.633.633,0,0,1,1057.416,1973.856Z" fill="#f2f2f2"/>
    <path id="Контур_9139" data-name="Контур 9139" d="M1059.673,1972.96c-.137-.361-.235-.686-.384-.987s-.347-.573-.542-.887a1.554,1.554,0,0,1,.194-.153,11.44,11.44,0,0,1,1.862-.788q1.019-.365,2.05-.689a26.66,26.66,0,0,1,4.176-.9c1.229-.176,2.46-.333,3.7-.414a17.383,17.383,0,0,1,3.669.155,5.626,5.626,0,0,1,2.565,1.064,2.008,2.008,0,0,1,.623,2.727,2.875,2.875,0,0,1-1,1.122,8.04,8.04,0,0,1-3.2,1.225,1.065,1.065,0,0,1-.541-.065c-.319-.111-.64-.213-.96-.32a32.783,32.783,0,0,0-3.2-.864,22.417,22.417,0,0,0-6.441-.508c-.764.049-1.523.163-2.284.247Z" fill="#f2f2f2"/>
    <path id="Контур_9140" data-name="Контур 9140" d="M1068.459,1980.912l1.288.382a1.935,1.935,0,0,1,.66.947,7.49,7.49,0,0,1-4.486,4.07,7.218,7.218,0,0,1-2.48-1.567A6.866,6.866,0,0,0,1068.459,1980.912Z" fill="#f9e153"/>
    <path id="Контур_9141" data-name="Контур 9141" d="M1061.522,1982.777a5.022,5.022,0,0,1-.83-1.443c.47-.185.926-.352,1.372-.541a4.454,4.454,0,0,0,1.188-.779c.366-.323.7-.684,1.062-1.046.5.2.976.474,1.468.716A7.8,7.8,0,0,1,1061.522,1982.777Z" fill="#f9e153"/>
    <path id="Контур_9142" data-name="Контур 9142" d="M1062.138,1977.7a6.78,6.78,0,0,1-2.42,1.113,7.05,7.05,0,0,1-.753-2.517c.025-.044.05-.1.085-.15s.093-.119.153-.195a5.794,5.794,0,0,1,.993.553c.32.181.629.38.943.569S1061.794,1977.461,1062.138,1977.7Z" fill="#f9e153"/>
    <path id="Контур_9143" data-name="Контур 9143" d="M1077.255,1968.955a6.23,6.23,0,0,0-2.979-1.136,18.552,18.552,0,0,0-3.4-.131,40.811,40.811,0,0,0-5.109.643,24.917,24.917,0,0,0-2.987.76c-.923.293-1.817.658-2.712,1.022-.439.179-.862.4-1.291.6-.093.044-.182.1-.281.151a2.977,2.977,0,0,0-2.4-.89,2.834,2.834,0,0,0-2.092,1.461c-.114-.148-.2-.27-.3-.384a2.039,2.039,0,0,0-2.768-.408,2.7,2.7,0,0,0-.655.7c-.057.087-.121.17-.192.268a3.583,3.583,0,0,1-.407-.114,19.664,19.664,0,0,1-4.128-2.012,1.248,1.248,0,0,0-.271-.108c-.1.158,0,.228.071.3a5.369,5.369,0,0,0,1.514,1.111,20.16,20.16,0,0,0,2.771,1.241,2.785,2.785,0,0,1,.274.128c-.024.254-.048.483-.067.712a4.16,4.16,0,0,1-.006.695,11.868,11.868,0,0,1-3.038-.065c-.542-.1-1.083-.216-1.625-.323a1.95,1.95,0,0,0-.362-.055c-.061,0-.122.057-.19.093.214.225.224.246.459.326a9.766,9.766,0,0,0,1.011.309,13.743,13.743,0,0,0,3.613.28c.088,0,.176,0,.275.005.086.264.152.516.25.756a20.559,20.559,0,0,0,1.216,2.321.705.705,0,0,0,.4.393,1.176,1.176,0,0,0,.258-.146,3.542,3.542,0,0,0,.476-.5,7.061,7.061,0,0,0,.986-1.655,3.509,3.509,0,0,1,.188-.361l.477.889c-.088.109-.166.2-.24.3a6.512,6.512,0,0,0-1.231,2.649,4.306,4.306,0,0,0-.028,1.419c.014.108.026.218.2.238.132-.359.037-.751.132-1.114a10.661,10.661,0,0,1,.32-1.1,8.69,8.69,0,0,1,.5-1.033,4.588,4.588,0,0,1,.646-.936,9.35,9.35,0,0,0,.91.642,10.311,10.311,0,0,0,1.071.44,4.162,4.162,0,0,1-.152.939,9.078,9.078,0,0,1-.253.98c-.1.3-.256.59-.384.885s-.426.514-.514.9a.821.821,0,0,0,.244-.064,1.547,1.547,0,0,0,.266-.252,5.422,5.422,0,0,0,1.327-3.076c.01-.105.021-.21.034-.342l.365-.041c.046.142.093.256.121.374.147.627.316,1.25.428,1.883a5.455,5.455,0,0,1-.356,3.288,5.908,5.908,0,0,0-.213.559,1.839,1.839,0,0,0-.048.274l.15.1c.2-.067.261-.229.331-.379.144-.305.286-.612.42-.922a5.663,5.663,0,0,0,.385-3.2,11.511,11.511,0,0,0-.5-1.913c-.034-.1-.054-.2-.076-.285a.421.421,0,0,1,.368-.216c.063.195.128.38.185.568.133.441.243.889.4,1.321.244.678.52,1.345.781,2.017a11.382,11.382,0,0,0,1.3,2.425,10.707,10.707,0,0,0,4.518,3.668,6.143,6.143,0,0,0,2.96.541,2.586,2.586,0,0,0,1.68-.758,2.92,2.92,0,0,0,.891-2.554,6.136,6.136,0,0,0-.664-2.423c-.014-.023-.006-.059-.013-.142.126.025.215.041.3.06a18.626,18.626,0,0,0,2.92.356,5.354,5.354,0,0,0,2.6-.464,2.378,2.378,0,0,0,.76-.507,5.911,5.911,0,0,0,.6-.7,2.44,2.44,0,0,0,.305-2.443,3.172,3.172,0,0,0-.719-1.057,6.514,6.514,0,0,0-1.614-1.211c-.452-.228-.919-.424-1.378-.637-.076-.035-.145-.084-.25-.146a2.839,2.839,0,0,1,.306-.1,8.047,8.047,0,0,0,2.228-.849,4,4,0,0,0,.616-.4,3.107,3.107,0,0,0,1.027-1.333,2.471,2.471,0,0,0-.12-2.259A2.978,2.978,0,0,0,1077.255,1968.955Zm-18.29,7.343c.025-.044.05-.1.085-.15s.093-.119.153-.195a5.794,5.794,0,0,1,.993.553c.32.181.629.38.943.569s.655.386,1,.627a6.78,6.78,0,0,1-2.42,1.113A7.05,7.05,0,0,1,1058.965,1976.3Zm1.727,5.036c.47-.185.926-.352,1.372-.541a4.454,4.454,0,0,0,1.188-.779c.366-.323.7-.684,1.062-1.046.5.2.976.474,1.468.716a7.8,7.8,0,0,1-4.26,3.093A5.022,5.022,0,0,1,1060.692,1981.334Zm8.168,3.162a6.577,6.577,0,0,1-2.939,1.815,7.218,7.218,0,0,1-2.48-1.567,6.866,6.866,0,0,0,5.018-3.832l1.288.382a1.935,1.935,0,0,1,.66.947A6.612,6.612,0,0,1,1068.86,1984.5Zm6.73-8.416a6.64,6.64,0,0,1,1.4,1.114,2.612,2.612,0,0,1,.548.844,1.875,1.875,0,0,1-.233,1.878,3.106,3.106,0,0,1-1.512,1.223,5.949,5.949,0,0,1-2.117.368,14.3,14.3,0,0,1-4.733-.856,11.1,11.1,0,0,1-1.265-.554c-1.279-.634-2.567-1.251-3.791-1.989q-1.518-.915-3.029-1.842c-.68-.418-1.363-.831-2.026-1.274-.459-.306-.886-.659-1.326-.994a.633.633,0,0,1-.091-.142c.124-.045.23-.1.341-.124a17.544,17.544,0,0,1,3.947-.608,33.159,33.159,0,0,1,4.686.137,22.62,22.62,0,0,1,3.025.587c1.143.3,2.277.631,3.4,1.015A16.281,16.281,0,0,1,1075.59,1976.08Zm1.995-3.993a2.875,2.875,0,0,1-1,1.122,8.04,8.04,0,0,1-3.2,1.225,1.065,1.065,0,0,1-.541-.065c-.319-.111-.64-.213-.96-.32a32.783,32.783,0,0,0-3.2-.864,22.417,22.417,0,0,0-6.441-.508c-.764.049-1.523.163-2.284.247l-.3.036c-.137-.361-.235-.686-.384-.987s-.347-.573-.542-.887a1.554,1.554,0,0,1,.194-.153,11.355,11.355,0,0,1,1.862-.788q1.019-.365,2.05-.689a26.66,26.66,0,0,1,4.176-.9c1.229-.176,2.46-.333,3.7-.414a17.383,17.383,0,0,1,3.669.155,5.626,5.626,0,0,1,2.565,1.064A2.008,2.008,0,0,1,1077.585,1972.087Z" fill="#7b6a58"/>
  </g>
</svg>
